<?xml version="1.0" encoding="UTF-8"?>
<svg width="70px" height="70px" viewBox="0 0 70 70" version="1.1" xmlns="http://www.w3.org/2000/svg" xmlns:xlink="http://www.w3.org/1999/xlink">
    <title>Add-square-icon</title>
    <g id="Page-1" stroke="none" stroke-width="1" fill="none" fill-rule="evenodd">
        <g id="Add-square-icon" fill-rule="nonzero">
            <rect id="Rectangle" fill="#FFFFFF" opacity="0" x="0" y="0" width="70" height="70" rx="8"></rect>
            <g id="Add" fill="#0078D3">
                <path d="M35,0.994318182 C36.6773938,0.994318182 38.0516263,2.29230557 38.1730909,3.93867355 L38.1818182,4.17613636 L38.1818182,65.8238636 C38.1818182,67.5811333 36.7572697,69.0056818 35,69.0056818 C33.3226062,69.0056818 31.9483737,67.7076944 31.8269091,66.0613264 L31.8181818,65.8238636 L31.8181818,4.17613636 C31.8181818,2.4188667 33.2427303,0.994318182 35,0.994318182 Z" id="Path"></path>
                <path d="M35,-7.10542736e-15 C36.6773938,-7.10542736e-15 38.0516263,1.29798739 38.1730909,2.94435537 L38.1818182,3.18181818 L38.1818182,66.8181818 C38.1818182,68.5754515 36.7572697,70 35,70 C33.3226062,70 31.9483737,68.7020126 31.8269091,67.0556446 L31.8181818,66.8181818 L31.8181818,3.18181818 C31.8181818,1.42454852 33.2427303,-7.10542736e-15 35,-7.10542736e-15 Z" id="Path" transform="translate(35.000000, 35.000000) rotate(90.000000) translate(-35.000000, -35.000000) "></path>
            </g>
        </g>
    </g>
</svg>