<?xml version="1.0" encoding="UTF-8"?>
<svg width="60px" height="60px" viewBox="0 0 60 60" version="1.1" xmlns="http://www.w3.org/2000/svg" xmlns:xlink="http://www.w3.org/1999/xlink">
    <title>Visit-calendar</title>
    <g id="Design" stroke="none" stroke-width="1" fill="none" fill-rule="evenodd">
        <g id="Appointments" transform="translate(-68.000000, -1010.000000)">
            <g id="Noti-holder-1-Copy" transform="translate(40.000000, 960.000000)">
                <g id="Content" transform="translate(28.000000, 43.000000)">
                    <g id="Visit-calendar" transform="translate(0.000000, 7.000000)">
                        <circle id="Oval" fill="#0078D3" cx="30" cy="30" r="30"></circle>
                        <g id="Group" transform="translate(15.000000, 15.000000)" fill="#FFFFFF" fill-rule="nonzero">
                            <path d="M8.03125,11.375 L4.8125,11.375 C4.625,11.375 4.46875,11.53125 4.46875,11.71875 L4.46875,14.40625 C4.46875,14.59375 4.625,14.75 4.8125,14.75 L8.03125,14.75 C8.21875,14.75 8.375,14.59375 8.375,14.40625 L8.375,11.71875 C8.375,11.53125 8.21875,11.375 8.03125,11.375 Z" id="Path"></path>
                            <path d="M16.84375,14.75 L20.0625,14.75 C20.25,14.75 20.40625,14.59375 20.40625,14.40625 L20.40625,11.71875 C20.40625,11.53125 20.25,11.375 20.0625,11.375 L16.84375,11.375 C16.65625,11.375 16.5,11.53125 16.5,11.71875 L16.5,14.40625 C16.5,14.59375 16.65625,14.75 16.84375,14.75 Z" id="Path"></path>
                            <path d="M14.03125,11.375 L10.8125,11.375 C10.625,11.375 10.46875,11.53125 10.46875,11.71875 L10.46875,14.40625 C10.46875,14.59375 10.625,14.75 10.8125,14.75 L14.03125,14.75 C14.21875,14.75 14.375,14.59375 14.375,14.40625 L14.375,11.71875 C14.375,11.53125 14.21875,11.375 14.03125,11.375 Z" id="Path"></path>
                            <path d="M8.03125,16.90625 L4.8125,16.90625 C4.625,16.90625 4.46875,17.0625 4.46875,17.25 L4.46875,19.9375 C4.46875,20.125 4.625,20.28125 4.8125,20.28125 L8.03125,20.28125 C8.21875,20.28125 8.375,20.125 8.375,19.9375 L8.375,17.25 C8.375,17.03125 8.21875,16.90625 8.03125,16.90625 Z" id="Path"></path>
                            <path d="M14.03125,16.90625 L10.8125,16.90625 C10.625,16.90625 10.46875,17.0625 10.46875,17.25 L10.46875,19.9375 C10.46875,20.125 10.625,20.28125 10.8125,20.28125 L14.03125,20.28125 C14.21875,20.28125 14.375,20.125 14.375,19.9375 L14.375,17.25 C14.375,17.03125 14.21875,16.90625 14.03125,16.90625 Z" id="Path"></path>
                            <path d="M24.625,16.375 L24.625,3.8125 C24.625,3.03125 24,2.40625 23.21875,2.40625 L20.15625,2.40625 L20.15625,2.25 C20.15625,1.09375 19.21875,0.15625 18.0625,0.15625 L16.5,0.15625 C15.34375,0.15625 14.40625,1.09375 14.40625,2.25 L14.40625,2.375 L10.5,2.375 L10.5,2.25 C10.5,1.09375 9.5625,0.15625 8.40625,0.15625 L6.84375,0.15625 C5.6875,0.15625 4.75,1.09375 4.75,2.25 L4.75,2.375 L1.625,2.375 C0.84375,2.375 0.21875,3 0.21875,3.78125 L0.21875,22.875 C0.21875,23.65625 0.84375,24.28125 1.625,24.28125 L15.375,24.28125 C16.03125,27.46875 18.84375,29.84375 22.1875,29.84375 C26.03125,29.84375 29.15625,26.71875 29.15625,22.875 C29.15625,19.90625 27.25,17.375 24.625,16.375 Z M16.1875,2.25 C16.1875,2.09375 16.3125,1.96875 16.46875,1.96875 L18.03125,1.96875 C18.1875,1.96875 18.3125,2.09375 18.3125,2.25 L18.3125,4.46875 C18.3125,4.625 18.1875,4.75 18.03125,4.75 L16.46875,4.75 C16.3125,4.75 16.1875,4.625 16.1875,4.46875 L16.1875,2.25 Z M6.53125,2.25 C6.53125,2.09375 6.65625,1.96875 6.8125,1.96875 L8.375,1.96875 C8.53125,1.96875 8.65625,2.09375 8.65625,2.25 L8.65625,4.46875 C8.65625,4.625 8.53125,4.75 8.375,4.75 L6.8125,4.75 C6.65625,4.75 6.53125,4.625 6.53125,4.46875 L6.53125,2.25 Z M2.15625,9.1875 L22.6875,9.1875 L22.6875,15.96875 C22.53125,15.9375 22.34375,15.9375 22.1875,15.9375 C18.53125,15.9375 15.5,18.78125 15.25,22.40625 L2.15625,22.40625 L2.15625,9.1875 Z M22.1875,27.90625 C19.40625,27.90625 17.15625,25.65625 17.15625,22.875 C17.15625,20.09375 19.40625,17.84375 22.1875,17.84375 C24.96875,17.84375 27.21875,20.09375 27.21875,22.875 C27.21875,25.65625 24.96875,27.90625 22.1875,27.90625 Z" id="Shape"></path>
                            <path d="M24.46875,22.5625 L22.5,22.5625 L22.5,20.59375 C22.5,20.0625 22.0625,19.625 21.53125,19.625 C21,19.625 20.5625,20.0625 20.5625,20.59375 L20.5625,23.53125 C20.5625,24.0625 21,24.5 21.53125,24.5 L24.46875,24.5 C25,24.5 25.4375,24.0625 25.4375,23.53125 C25.4375,23 25,22.5625 24.46875,22.5625 Z" id="Path"></path>
                        </g>
                    </g>
                </g>
            </g>
        </g>
    </g>
</svg>