<?xml version="1.0" encoding="UTF-8"?>
<svg width="20px" height="20px" viewBox="0 0 20 20" version="1.1" xmlns="http://www.w3.org/2000/svg" xmlns:xlink="http://www.w3.org/1999/xlink">
    <title>Appointments</title>
    <g id="Page-1" stroke="none" stroke-width="1" fill="none" fill-rule="evenodd">
        <g id="Appointments" transform="translate(0.145833, 0.104167)" fill="#111111" fill-rule="nonzero">
            <path d="M5.20833334,7.47916666 L3.0625,7.47916666 C2.9375,7.47916666 2.83333334,7.58333333 2.83333334,7.70833333 L2.83333334,9.5 C2.83333334,9.625 2.9375,9.72916666 3.0625,9.72916666 L5.20833334,9.72916666 C5.33333334,9.72916666 5.4375,9.625 5.4375,9.5 L5.4375,7.70833333 C5.4375,7.58333333 5.33333334,7.47916666 5.20833334,7.47916666 Z" id="Path"></path>
            <path d="M11.0833334,9.72916666 L13.2291667,9.72916666 C13.3541667,9.72916666 13.4583334,9.625 13.4583334,9.5 L13.4583334,7.70833333 C13.4583334,7.58333333 13.3541667,7.47916666 13.2291667,7.47916666 L11.0833334,7.47916666 C10.9583334,7.47916666 10.8541667,7.58333333 10.8541667,7.70833333 L10.8541667,9.5 C10.8541667,9.625 10.9583334,9.72916666 11.0833334,9.72916666 Z" id="Path"></path>
            <path d="M9.20833334,7.47916666 L7.0625,7.47916666 C6.9375,7.47916666 6.83333334,7.58333333 6.83333334,7.70833333 L6.83333334,9.5 C6.83333334,9.625 6.9375,9.72916666 7.0625,9.72916666 L9.20833334,9.72916666 C9.33333334,9.72916666 9.4375,9.625 9.4375,9.5 L9.4375,7.70833333 C9.4375,7.58333333 9.33333334,7.47916666 9.20833334,7.47916666 Z" id="Path"></path>
            <path d="M5.20833334,11.1666666 L3.0625,11.1666666 C2.9375,11.1666666 2.83333334,11.2708333 2.83333334,11.3958333 L2.83333334,13.1875 C2.83333334,13.3125 2.9375,13.4166666 3.0625,13.4166666 L5.20833334,13.4166666 C5.33333334,13.4166666 5.4375,13.3125 5.4375,13.1875 L5.4375,11.3958333 C5.4375,11.25 5.33333334,11.1666666 5.20833334,11.1666666 Z" id="Path"></path>
            <path d="M9.20833334,11.1666666 L7.0625,11.1666666 C6.9375,11.1666666 6.83333334,11.2708333 6.83333334,11.3958333 L6.83333334,13.1875 C6.83333334,13.3125 6.9375,13.4166666 7.0625,13.4166666 L9.20833334,13.4166666 C9.33333334,13.4166666 9.4375,13.3125 9.4375,13.1875 L9.4375,11.3958333 C9.4375,11.25 9.33333334,11.1666666 9.20833334,11.1666666 Z" id="Path"></path>
            <path d="M16.2708334,10.8125 L16.2708334,2.4375 C16.2708334,1.91666666 15.8541667,1.5 15.3333334,1.5 L13.2916667,1.5 L13.2916667,1.39583333 C13.2916667,0.625 12.6666667,0 11.8958334,0 L10.8541667,0 C10.0833334,0 9.45833334,0.625 9.45833334,1.39583333 L9.45833334,1.47916666 L6.85416667,1.47916666 L6.85416667,1.39583333 C6.85416667,0.625 6.22916667,0 5.45833334,0 L4.41666667,0 C3.64583334,0 3.02083334,0.625 3.02083334,1.39583333 L3.02083334,1.47916666 L0.937499997,1.47916666 C0.416666667,1.47916666 0,1.89583333 0,2.41666666 L0,15.1458333 C0,15.6666666 0.416666667,16.0833333 0.937499997,16.0833333 L10.1041667,16.0833333 C10.5416667,18.2083333 12.4166667,19.7916666 14.6458334,19.7916666 C17.2083334,19.7916666 19.2916667,17.7083333 19.2916667,15.1458333 C19.2916667,13.1666666 18.0208334,11.4791666 16.2708334,10.8125 Z M10.6458334,1.39583333 C10.6458334,1.29166666 10.7291667,1.20833333 10.8333334,1.20833333 L11.875,1.20833333 C11.9791667,1.20833333 12.0625,1.29166666 12.0625,1.39583333 L12.0625,2.875 C12.0625,2.97916666 11.9791667,3.0625 11.875,3.0625 L10.8333334,3.0625 C10.7291667,3.0625 10.6458334,2.97916666 10.6458334,2.875 L10.6458334,1.39583333 Z M4.20833334,1.39583333 C4.20833334,1.29166666 4.29166667,1.20833333 4.39583334,1.20833333 L5.4375,1.20833333 C5.54166667,1.20833333 5.625,1.29166666 5.625,1.39583333 L5.625,2.875 C5.625,2.97916666 5.54166667,3.0625 5.4375,3.0625 L4.39583334,3.0625 C4.29166667,3.0625 4.20833334,2.97916666 4.20833334,2.875 L4.20833334,1.39583333 Z M1.29166667,6.02083333 L14.9791667,6.02083333 L14.9791667,10.5416666 C14.875,10.5208333 14.75,10.5208333 14.6458334,10.5208333 C12.2083334,10.5208333 10.1875,12.4166666 10.0208334,14.8333333 L1.29166667,14.8333333 L1.29166667,6.02083333 Z M14.6458334,18.5 C12.7916667,18.5 11.2916667,17 11.2916667,15.1458333 C11.2916667,13.2916666 12.7916667,11.7916666 14.6458334,11.7916666 C16.5,11.7916666 18,13.2916666 18,15.1458333 C18,17 16.5,18.5 14.6458334,18.5 Z" id="Shape"></path>
            <path d="M16.1666667,14.9375 L14.8541667,14.9375 L14.8541667,13.625 C14.8541667,13.2708333 14.5625,12.9791666 14.2083334,12.9791666 C13.8541667,12.9791666 13.5625,13.2708333 13.5625,13.625 L13.5625,15.5833333 C13.5625,15.9375 13.8541667,16.2291666 14.2083334,16.2291666 L16.1666667,16.2291666 C16.5208334,16.2291666 16.8125,15.9375 16.8125,15.5833333 C16.8125,15.2291666 16.5208334,14.9375 16.1666667,14.9375 Z" id="Path"></path>
        </g>
    </g>
</svg>