<?xml version="1.0" encoding="UTF-8"?>
<svg width="30px" height="30px" viewBox="0 0 30 30" version="1.1" xmlns="http://www.w3.org/2000/svg" xmlns:xlink="http://www.w3.org/1999/xlink">
    <title>Blood-type</title>
    <g id="Welcome" stroke="none" stroke-width="1" fill="none" fill-rule="evenodd">
        <g id="Patient-Summary" transform="translate(-629.000000, -344.000000)">
            <g id="Cards" transform="translate(320.000000, 228.000000)">
                <g id="Patient-info-card">
                    <g id="Profile" transform="translate(30.000000, 30.000000)">
                        <g id="Overview" transform="translate(150.000000, 83.000000)">
                            <g id="Height" transform="translate(129.000000, 0.000000)">
                                <g id="Blood-type" transform="translate(0.000000, 3.000000)">
                                    <circle id="Oval" fill="#F6D2D4" cx="15" cy="15" r="15"></circle>
                                    <path d="M14.773145,7 C12.6219022,7 9,13.8912914 9,17.112128 C9,21.0803858 11.9898708,22.885273 14.773145,22.885273 C17.5564191,22.885273 20.5462899,21.0803858 20.5462899,17.112128 C20.5462899,13.8912914 16.9243877,7 14.773145,7 Z M17.5077931,16.8629505 C17.5077931,16.9966636 17.3984114,17.1060453 17.2646976,17.1060453 L15.6846941,17.1060453 L15.6846941,18.6860494 C15.6846941,18.819762 15.5753124,18.9291437 15.4415992,18.9291437 L14.1046907,18.9291437 C13.9709775,18.9291437 13.8615958,18.819762 13.8615958,18.6860494 L13.8615958,17.1060453 L12.2815917,17.1060453 C12.1478785,17.1060453 12.0384974,16.9966636 12.0384974,16.8629505 L12.0384974,15.532087 C12.0384974,15.3984114 12.1478785,15.282947 12.2815917,15.282947 L13.8615958,15.282947 L13.8615958,13.7089886 C13.8615958,13.5753124 13.9709775,13.459848 14.1046907,13.459848 L15.4415992,13.459848 C15.5753124,13.459848 15.6846941,13.5753124 15.6846941,13.7089886 L15.6846941,15.282947 L17.2646976,15.282947 C17.3984114,15.282947 17.5077931,15.3984114 17.5077931,15.532087 L17.5077931,16.8629505 Z" id="Shape" fill="#D32027" fill-rule="nonzero"></path>
                                </g>
                            </g>
                        </g>
                    </g>
                </g>
            </g>
        </g>
    </g>
</svg>