<?xml version="1.0" encoding="UTF-8"?>
<svg width="160px" height="160px" viewBox="0 0 160 160" version="1.1" xmlns="http://www.w3.org/2000/svg" xmlns:xlink="http://www.w3.org/1999/xlink">
    <title>Retrieve-bluetooth</title>
    <g id="Design" stroke="none" stroke-width="1" fill="none" fill-rule="evenodd">
        <g id="Retrieve-data-popup" transform="translate(-295.000000, -349.000000)" fill="#0078D3" fill-rule="nonzero">
            <g id="Popover-new" transform="translate(0.000000, 156.000000)">
                <path d="M375,193 C330.817514,193 295,228.817405 295,272.999892 C295,317.182595 330.817514,353.000108 375,353.000108 C419.182486,353.000108 455,317.182595 455,272.999892 C455,228.817405 419.182486,193 375,193 Z M368.040432,216.783784 C369.205052,216.646339 370.375559,216.987736 371.283676,217.72973 L403.716108,243.675676 C404.742947,244.496357 405.340796,245.739508 405.340796,247.054011 C405.340796,248.368513 404.742947,249.611665 403.716108,250.432346 L375.27027,272.999892 L403.716108,295.5 C404.768391,296.319422 405.383742,297.578518 405.383742,298.912216 C405.383742,300.245914 404.768391,301.505011 403.716108,302.324432 L371.283676,328.270378 C369.985338,329.309438 368.206229,329.512039 366.707512,328.791502 C365.208795,328.070965 364.255955,326.554927 364.256649,324.892 L364.256649,281.648541 L351.824216,291.513405 C350.605875,292.487232 348.959616,292.73477 347.508766,292.162293 C346.057916,291.589817 345.024251,290.284835 344.799148,288.741455 C344.574046,287.198075 345.191915,285.652216 346.418811,284.689189 L361.216216,272.999892 L346.418811,261.243157 C344.987667,260.17535 344.359912,258.337776 344.838596,256.617531 C345.317279,254.897285 346.803974,253.648088 348.580973,253.472995 C349.745593,253.335549 350.916099,253.676947 351.824216,254.418941 L364.256649,264.283805 L364.256649,221.108108 C364.239658,218.916018 365.865486,217.057929 368.040432,216.783784 L368.040432,216.783784 Z M372.905297,230.094595 L372.905297,263.743265 L394.054054,246.986508 L372.905297,230.094595 Z M372.905297,282.189081 L372.905297,315.905405 L394.054054,298.946054 L372.905297,282.189081 Z" id="Retrieve-bluetooth"></path>
            </g>
        </g>
    </g>
</svg>