<?xml version="1.0" encoding="UTF-8"?>
<svg width="35px" height="35px" viewBox="0 0 35 35" version="1.1" xmlns="http://www.w3.org/2000/svg" xmlns:xlink="http://www.w3.org/1999/xlink">
    <title>Multi</title>
    <g id="Provider" stroke="none" stroke-width="1" fill="none" fill-rule="evenodd">
        <g id="Patient-Overview-listover" transform="translate(-14.000000, -34.000000)">
            <g id="Top-left" transform="translate(0.000000, 20.000000)">
                <g id="Multi" transform="translate(14.000000, 14.000000)">
                    <rect id="Rectangle" fill="#0078D3" opacity="0" x="0" y="0" width="35" height="35"></rect>
                    <g id="multi" transform="translate(5.000000, 8.000000)" fill="#007AFF" fill-rule="nonzero">
                        <path d="M15.6708673,5.58800523 C15.6708673,7.33914759 14.2513388,8.75867614 12.5003393,8.75867614 C10.7491969,8.75867614 9.32966839,7.33914759 9.32966839,5.58800523 C9.32966839,3.83700573 10.7491969,2.41747719 12.5003393,2.41747719 C14.2513388,2.41747719 15.6708673,3.83700573 15.6708673,5.58800523" id="Path"></path>
                        <path d="M15.5340789,8.09519851 C17.9476274,9.25411467 19.8466656,16.0017861 19.4148712,18.5300512 L5.58602167,18.5300512 C5.15369155,16.0015361 7.05283689,9.25415039 9.46645685,8.09519851 C10.1888642,8.96785892 11.2795647,9.52379867 12.5004107,9.52379867 C13.7211496,9.52379867 14.8122429,8.96785892 15.5343646,8.09519851 L15.5340789,8.09519851 Z" id="Path"></path>
                        <path d="M21.704203,2.74616237 C21.704203,4.26280001 20.4746782,5.49232474 18.9580406,5.49232474 C17.4414029,5.49232474 16.2118782,4.26280001 16.2118782,2.74616237 C16.2118782,1.22952473 17.4414029,-1.01508146e-15 18.9580406,-1.01508146e-15 C20.4746782,-1.01508146e-15 21.704203,1.22952473 21.704203,2.74616237" id="Path"></path>
                        <path d="M21.5856291,4.91727746 C23.6762069,5.92161908 25.3210614,11.7656295 24.9465896,13.9556735 L19.6932697,13.9556735 C18.9739338,11.1980823 17.6084063,8.33198899 15.9642661,7.45661424 C16.264915,6.90067449 16.4352756,6.2641974 16.4352756,5.58814809 C16.4352756,5.38362255 16.4197899,5.18342567 16.3899354,4.98727887 C17.0149479,5.70297183 17.9335021,6.15512378 18.9576656,6.15512378 C20.0150083,6.15512378 20.959813,5.67354267 21.5853613,4.9173846 L21.5856291,4.91727746 Z" id="Path"></path>
                        <path d="M8.78822893,2.74616237 C8.78822893,4.26280001 7.55884706,5.49232474 6.04206656,5.49232474 C4.52542892,5.49232474 3.29590419,4.26280001 3.29590419,2.74616237 C3.29590419,1.22952473 4.52542892,-1.01508146e-15 6.04206656,-1.01508146e-15 C7.55884706,-1.01508146e-15 8.78822893,1.22952473 8.78822893,2.74616237" id="Path"></path>
                        <path d="M3.41437086,4.91724174 C1.3237931,5.92161908 -0.321061403,11.7656295 0.0534104131,13.9556735 L5.30708749,13.9556735 C6.02642339,11.1980823 7.39223657,8.33198899 9.03609106,7.45661424 C8.73544215,6.90067449 8.56508158,6.2641974 8.56508158,5.58814809 C8.56508158,5.38362255 8.58084654,5.18285423 8.61070036,4.98685029 C7.98540207,5.70282897 7.06659788,6.15498092 6.04229156,6.15498092 C4.98494887,6.15498092 4.04014416,5.67339981 3.41459586,4.91724174 L3.41437086,4.91724174 Z" id="Path"></path>
                    </g>
                </g>
            </g>
        </g>
    </g>
</svg>