<?xml version="1.0" encoding="UTF-8"?>
<svg width="20px" height="16px" viewBox="0 0 20 16" version="1.1" xmlns="http://www.w3.org/2000/svg" xmlns:xlink="http://www.w3.org/1999/xlink">
    <title>CarePrograms</title>
    <g id="Page-1" stroke="none" stroke-width="1" fill="none" fill-rule="evenodd">
        <g id="CarePrograms" fill="#111111" fill-rule="nonzero">
            <path d="M19.2842105,0 L0.7157895,0 C0.3157895,0 0,0.3157895 0,0.7157895 L0,14.6526316 C0,15.0526316 0.3157895,15.3684211 0.7157895,15.3684211 L19.2842105,15.3684211 C19.6842105,15.3684211 20,15.0526316 20,14.6526316 L20,0.7157895 C20,0.3157895 19.6842105,0 19.2842105,0 Z M6.0421053,12.2105263 C5.5368421,12.2105263 5.1368421,11.8105263 5.1368421,11.3052632 C5.1368421,10.8 5.5368421,10.4 6.0421053,10.4 C6.5473684,10.4 6.9473684,10.8 6.9473684,11.3052632 C6.9473684,11.8105263 6.5263158,12.2105263 6.0421053,12.2105263 Z M8.2947368,7.2842105 C7.9368421,7.7894737 7.5578947,8.0421053 7.2842105,8.2315789 C6.9684211,8.4631579 6.8210526,8.5684211 6.7789474,9.0947368 C6.7578947,9.2842105 6.5894737,9.4526316 6.4,9.4526316 L5.7052632,9.4526316 C5.6,9.4526316 5.4947368,9.4105263 5.4105263,9.3263158 C5.3263158,9.2421053 5.3052632,9.1368421 5.3052632,9.0315789 C5.3894737,7.8526316 5.8526316,7.4526316 6.4210526,7.0315789 C6.6526316,6.8631579 6.8631579,6.7157895 7.0947368,6.4 C7.3263158,6.0842105 7.3473684,5.6421053 7.1578947,5.2842105 C7.0315789,5.0315789 6.6947368,4.6105263 5.9157895,4.6105263 C4.9052632,4.6105263 4.5684211,5.2421053 4.4842105,5.7684211 C4.4421053,5.9578947 4.2947368,6.0842105 4.1052632,6.0842105 L3.4105263,6.0842105 C3.3052632,6.0842105 3.1789474,6.0421053 3.1157895,5.9578947 C3.0526316,5.8736842 3.0105263,5.7684211 3.0315789,5.6631579 C3.2,4.4421053 4.0631579,3.1578947 5.9368421,3.1578947 C7.0736842,3.1578947 8.0210526,3.7052632 8.4842105,4.6315789 C8.9473684,5.5157895 8.8631579,6.5263158 8.2947368,7.2842105 Z M15.9157895,12.0421053 L11.4947368,12.0421053 C11.0947368,12.0421053 10.7789474,11.7263158 10.7789474,11.3263158 C10.7789474,10.9263158 11.0947368,10.6105263 11.4947368,10.6105263 L15.9368421,10.6105263 C16.3368421,10.6105263 16.6526316,10.9263158 16.6526316,11.3263158 C16.6526316,11.7052632 16.3157895,12.0421053 15.9157895,12.0421053 Z M15.9157895,8.4 L11.4947368,8.4 C11.0947368,8.4 10.7789474,8.0842105 10.7789474,7.6842105 C10.7789474,7.2842105 11.0947368,6.9684211 11.4947368,6.9684211 L15.9368421,6.9684211 C16.3368421,6.9684211 16.6526316,7.2842105 16.6526316,7.6842105 C16.6526316,8.0842105 16.3157895,8.4 15.9157895,8.4 Z M15.9157895,4.7789474 L11.4947368,4.7789474 C11.0947368,4.7789474 10.7789474,4.4631579 10.7789474,4.0631579 C10.7789474,3.6631579 11.0947368,3.3473684 11.4947368,3.3473684 L15.9368421,3.3473684 C16.3368421,3.3473684 16.6526316,3.6631579 16.6526316,4.0631579 C16.6526316,4.4631579 16.3157895,4.7789474 15.9157895,4.7789474 Z" id="Programs-icon"></path>
        </g>
    </g>
</svg>