<?xml version="1.0" encoding="UTF-8"?>
<svg width="40px" height="40px" viewBox="0 0 40 40" version="1.1" xmlns="http://www.w3.org/2000/svg" xmlns:xlink="http://www.w3.org/1999/xlink">
    <title>Pincode-icon</title>
    <g id="Design" stroke="none" stroke-width="1" fill="none" fill-rule="evenodd">
        <g id="More-menu" transform="translate(-40.000000, -904.000000)" fill="#212121" fill-rule="nonzero">
            <g id="Menu-list" transform="translate(0.000000, 263.000000)">
                <g id="Group-2" transform="translate(0.000000, 519.000000)">
                    <g id="List-Copy-3" transform="translate(0.000000, 82.000000)">
                        <g id="Pincode-icon" transform="translate(40.000000, 40.000000)">
                            <path d="M25.1789474,16.8 L32.9403509,9.03859649 C32.1207912,8.55556413 31.4374183,7.87219127 30.954386,7.05263158 L23.2,14.8210526 C24.0161295,15.3030676 24.6969324,15.9838705 25.1789474,16.8 Z" id="Path"></path>
                            <path d="M15.522807,22.4982456 L7.76140351,30.2596491 C8.5809632,30.7426815 9.26433606,31.4260543 9.74736842,32.245614 L17.5017544,24.477193 C16.6856249,23.995178 16.004822,23.3143751 15.522807,22.4982456 Z" id="Path"></path>
                            <path d="M14.9614035,36.645614 C14.6926637,35.7324711 14.6660618,34.7651288 14.8842105,33.8385965 L10.3789474,33.8385965 C10.5970961,34.7651288 10.5704942,35.7324711 10.3017544,36.645614 L14.9614035,36.645614 Z" id="Path"></path>
                            <path d="M30.3578947,5.61403509 C30.1116131,4.69456874 30.1116131,3.72648389 30.3578947,2.80701754 L25.7824561,2.80701754 C26.0287378,3.72648389 26.0287378,4.69456874 25.7824561,5.61403509 L30.3578947,5.61403509 Z" id="Path"></path>
                            <circle id="Oval" cx="4.9122807" cy="4.21052632" r="4.21052632"></circle>
                            <path d="M20.3508772,8.42105263 C22.6762867,8.42105263 24.5614035,6.53593579 24.5614035,4.21052632 C24.5614035,1.88511684 22.6762867,-6.23283102e-16 20.3508772,-6.23283102e-16 C18.0254677,-6.23283102e-16 16.1403509,1.88511684 16.1403509,4.21052632 C16.1403509,6.53593579 18.0254677,8.42105263 20.3508772,8.42105263 Z" id="Path"></path>
                            <path d="M35.7894737,-2.88438348e-06 C34.4234397,0.00156020895 33.143057,0.665726652 32.3550138,1.78153993 C31.5669707,2.89735321 31.3692156,4.32612538 31.8245614,5.61403509 C31.8734646,5.7525905 31.9296839,5.88845394 31.9929825,6.02105263 C32.8899521,7.90432831 35.0306271,8.84695709 37.0254463,8.23705708 C39.0202655,7.62715707 40.2678133,5.64860635 39.9582777,3.58572739 C39.6487422,1.52284844 37.8754449,-0.00242369011 35.7894737,-2.88438348e-06 Z" id="Path"></path>
                            <circle id="Oval" cx="4.9122807" cy="19.6491228" r="4.21052632"></circle>
                            <path d="M24.1473684,17.8385965 C23.2199556,15.9048753 20.9872864,14.9771979 18.9626003,15.6843175 C16.9379141,16.3914372 15.7682277,18.5073839 16.2463211,20.5980295 C16.7244144,22.6886751 18.6975062,24.0859246 20.8282911,23.8427621 C22.959076,23.5995996 24.566632,21.7937311 24.5614162,19.6491228 C24.5598754,19.0223192 24.4184229,18.4037642 24.1473684,17.8385965 Z" id="Path"></path>
                            <circle id="Oval" cx="35.7894737" cy="19.6491228" r="4.21052632"></circle>
                            <path d="M4.9122807,39.2982485 C6.25049085,39.2982485 7.50902792,38.6621641 8.30261666,37.5846562 C9.09620539,36.5071483 9.33033568,35.1165619 8.93333333,33.8385965 C8.87216852,33.6462726 8.79711732,33.4586446 8.70877193,33.277193 C7.81180229,31.3939173 5.67112733,30.4512885 3.67630809,31.0611885 C1.68148885,31.6710885 0.433941129,33.6496393 0.743476666,35.7125182 C1.0530122,37.7753972 2.82630948,39.3006693 4.9122807,39.2982485 Z" id="Path"></path>
                            <path d="M20.3508772,39.2982467 C22.2004488,39.2995376 23.8343027,38.0936607 24.3781858,36.3258632 C24.922069,34.5580658 24.2486182,32.6423201 22.7181878,31.6037156 C21.1877573,30.5651111 19.1587343,30.646862 17.7168214,31.8052245 C16.2749084,32.963587 15.7577641,34.9273027 16.4421053,36.645614 C17.0795892,38.2462715 18.627947,39.2970421 20.3508772,39.2982467 Z" id="Path"></path>
                            <circle id="Oval" cx="35.7894737" cy="35.0877193" r="4.21052632"></circle>
                        </g>
                    </g>
                </g>
            </g>
        </g>
    </g>
</svg>