<?xml version="1.0" encoding="UTF-8"?>
<svg width="40px" height="40px" viewBox="0 0 40 40" version="1.1" xmlns="http://www.w3.org/2000/svg" xmlns:xlink="http://www.w3.org/1999/xlink">
    <title>Language-icon</title>
    <g id="Design" stroke="none" stroke-width="1" fill="none" fill-rule="evenodd">
        <g id="More-menu" transform="translate(-40.000000, -2245.000000)" fill="#212121" fill-rule="nonzero">
            <g id="Menu-list" transform="translate(0.000000, 263.000000)">
                <g id="Group-2" transform="translate(0.000000, 1260.000000)">
                    <g id="List-Copy-7" transform="translate(0.000000, 682.000000)">
                        <g id="Language-icon" transform="translate(40.000000, 40.000000)">
                            <path d="M33.4138462,5.20923077 L33.3061538,5.11076923 C32.9164103,4.76307692 32.5158974,4.43179487 32.1046154,4.11692308 C32.0246154,4.05538462 31.9430769,3.99538462 31.8615385,3.93538462 C31.4461538,3.62769231 31.0194872,3.33589744 30.5815385,3.06 L30.3215385,2.90615385 C29.8815385,2.64 29.4323077,2.38769231 28.9738462,2.15538462 C28.8784615,2.10769231 28.7830769,2.06461538 28.6876923,2.01846154 C28.2548718,1.80717949 27.8158974,1.61282051 27.3707692,1.43538462 C28.4518323,2.97016501 29.3308493,4.63771183 29.9861538,6.39692308 C31.1541095,6.07850254 32.2992701,5.68170544 33.4138462,5.20923077 Z" id="Path"></path>
                            <path d="M12.0246154,29.9784615 C14.1486638,29.5760368 16.3007947,29.3394259 18.4615385,29.2707692 L18.4615385,21.5384615 L10.8076923,21.5384615 C10.8865117,24.3893091 11.2948671,27.2214683 12.0246154,29.9784615 L12.0246154,29.9784615 Z" id="Path"></path>
                            <path d="M27.9753846,10.0215385 C25.8513362,10.4239632 23.6992053,10.6605741 21.5384615,10.7292308 L21.5384615,18.4615385 L29.1923077,18.4615385 C29.1134883,15.6106909 28.7051329,12.7785317 27.9753846,10.0215385 L27.9753846,10.0215385 Z" id="Path"></path>
                            <path d="M10.8076923,18.4615385 L18.4615385,18.4615385 L18.4615385,10.7292308 C16.3007947,10.6605741 14.1486638,10.4239632 12.0246154,10.0215385 C11.2948671,12.7785317 10.8865117,15.6106909 10.8076923,18.4615385 L10.8076923,18.4615385 Z" id="Path"></path>
                            <path d="M21.5384615,39.6769231 C23.5707692,38.8615385 25.5384615,36.4846154 26.9846154,32.9215385 C25.1850006,32.601276 23.365162,32.4074683 21.5384615,32.3415385 L21.5384615,39.6769231 Z" id="Path"></path>
                            <path d="M13.0153846,7.07692308 C14.8149994,7.39718555 16.634838,7.59099321 18.4615385,7.65692308 L18.4615385,0.323076923 C16.4292308,1.13846154 14.4615385,3.51538462 13.0153846,7.07692308 Z" id="Path"></path>
                            <path d="M21.5384615,0.323076923 L21.5384615,7.65846154 C23.365162,7.59253168 25.1850006,7.39872401 26.9846154,7.07846154 C25.5384615,3.51538462 23.5707692,1.13846154 21.5384615,0.323076923 Z" id="Path"></path>
                            <path d="M29.1923077,21.5384615 L21.5384615,21.5384615 L21.5384615,29.2707692 C23.6992053,29.3394259 25.8513362,29.5760368 27.9753846,29.9784615 C28.7051329,27.2214683 29.1134883,24.3893091 29.1923077,21.5384615 Z" id="Path"></path>
                            <path d="M30.9492308,9.32923077 C31.7389403,12.3124011 32.1813604,15.3768192 32.2676923,18.4615385 L39.9215385,18.4615385 C39.6191682,14.4789057 38.1245394,10.6796108 35.6323077,7.55846154 C34.1267106,8.2860254 32.5595436,8.87860397 30.9492308,9.32923077 L30.9492308,9.32923077 Z" id="Path"></path>
                            <path d="M30.9492308,30.6707692 C32.5595436,31.121396 34.1267106,31.7139746 35.6323077,32.4415385 C38.1245394,29.3203892 39.6191682,25.5210943 39.9215385,21.5384615 L32.2676923,21.5384615 C32.1813604,24.6231808 31.7389403,27.6875989 30.9492308,30.6707692 Z" id="Path"></path>
                            <path d="M27.3707692,38.5692308 C27.8169231,38.3907692 28.2558974,38.1964103 28.6876923,37.9861538 C28.7830769,37.94 28.8784615,37.8969231 28.9738462,37.8492308 C29.4353846,37.6169231 29.8830769,37.3646154 30.3230769,37.0969231 L30.58,36.9430769 C31.0179487,36.6671795 31.4451282,36.3748718 31.8615385,36.0661538 C31.9430769,36.0061538 32.0246154,35.9461538 32.1046154,35.8846154 C32.5148718,35.5697436 32.9153846,35.2384615 33.3061538,34.8907692 L33.4138462,34.7923077 C32.2996547,34.3214666 31.1550124,33.9262129 29.9876923,33.6092308 C29.3314429,35.3678324 28.4519331,37.0348163 27.3707692,38.5692308 Z" id="Path"></path>
                            <path d="M7.73230769,21.5384615 L0.0784615385,21.5384615 C0.380831836,25.5210943 1.87546064,29.3203892 4.36769231,32.4415385 C5.87328944,31.7139746 7.44045641,31.121396 9.05076923,30.6707692 C8.26105975,27.6875989 7.81863955,24.6231808 7.73230769,21.5384615 L7.73230769,21.5384615 Z" id="Path"></path>
                            <path d="M18.4615385,39.6769231 L18.4615385,32.3415385 C16.634838,32.4074683 14.8149994,32.601276 13.0153846,32.9215385 C14.4615385,36.4846154 16.4292308,38.8615385 18.4615385,39.6769231 Z" id="Path"></path>
                            <path d="M6.58615385,34.7907692 L6.69384615,34.8892308 C7.08358974,35.2369231 7.48410256,35.5682051 7.89538462,35.8830769 C7.97538462,35.9446154 8.04923077,36.0046154 8.13846154,36.0646154 C8.55589744,36.3723077 8.98307692,36.6646154 9.42,36.9415385 L9.67692308,37.0953846 C10.1169231,37.3630769 10.5676923,37.6153846 11.0261538,37.8476923 C11.1215385,37.8953846 11.2169231,37.9384615 11.3123077,37.9846154 C11.7441026,38.1958974 12.1830769,38.3902564 12.6292308,38.5676923 C11.548488,37.0327158 10.6694935,35.3652116 10.0138462,33.6061538 C8.84596628,33.9235716 7.70080719,34.3193402 6.58615385,34.7907692 L6.58615385,34.7907692 Z" id="Path"></path>
                            <path d="M9.05076923,9.32923077 C7.44045641,8.87860397 5.87328944,8.2860254 4.36769231,7.55846154 C1.87546064,10.6796108 0.380831836,14.4789057 0.0784615385,18.4615385 L7.73230769,18.4615385 C7.81863955,15.3768192 8.26105975,12.3124011 9.05076923,9.32923077 L9.05076923,9.32923077 Z" id="Path"></path>
                            <path d="M12.6292308,1.43076923 C12.1830769,1.60923077 11.7441026,1.80358974 11.3123077,2.01384615 C11.2169231,2.06 11.1215385,2.10307692 11.0261538,2.15076923 C10.5646154,2.38307692 10.1184615,2.63538462 9.67846154,2.90153846 L9.41846154,3.05538462 C8.98153846,3.32923077 8.55487179,3.62102564 8.13846154,3.93076923 C8.05692308,3.99076923 7.97538462,4.05076923 7.89538462,4.11230769 C7.48512821,4.42820513 7.08461538,4.75948718 6.69384615,5.10615385 L6.58615385,5.20461538 C7.70034529,5.67545648 8.84498759,6.07071015 10.0123077,6.38769231 C10.668454,4.63000677 11.5479793,2.96402771 12.6292308,1.43076923 L12.6292308,1.43076923 Z" id="Path"></path>
                        </g>
                    </g>
                </g>
            </g>
        </g>
    </g>
</svg>