<?xml version="1.0" encoding="utf-8"?>
<!-- Generator: Adobe Illustrator 24.0.3, SVG Export Plug-In . SVG Version: 6.00 Build 0)  -->
<svg version="1.1" id="Layer_1" xmlns="http://www.w3.org/2000/svg" xmlns:xlink="http://www.w3.org/1999/xlink" x="0px" y="0px"
	 width="40px" height="40px" viewBox="0 0 40 40" enable-background="new 0 0 40 40" xml:space="preserve">
<path fill="#212121" d="M20.086,0.3c-0.171,0-0.342,0-0.513,0C12.673,0.528,7.37,6.401,7.37,13.3v4.105H7.085
	c-1.882,0-3.364,1.483-3.364,3.364v15.566c0,1.882,1.483,3.364,3.364,3.364h25.83c1.882,0,3.364-1.483,3.364-3.364V20.77
	c0-1.882-1.483-3.364-3.364-3.364h-0.114v-4.448C32.801,6.002,27.099,0.3,20.086,0.3z M22.48,32.459
	c0.057,0.399-0.228,0.741-0.627,0.741h-1.882H18.09c-0.399,0-0.684-0.342-0.627-0.741l0.741-3.535
	c-0.684-0.627-1.14-1.54-0.969-2.566c0.171-1.197,1.197-2.167,2.395-2.338c0.114,0,0.228,0,0.342,0c1.54,0,2.794,1.254,2.794,2.794
	c0,0.855-0.399,1.654-1.026,2.167L22.48,32.459z M27.213,17.406H12.901v-4.219c0-3.706,2.737-7.013,6.443-7.356
	c0.228,0,0.456-0.057,0.684-0.057c3.934,0,7.184,3.193,7.184,7.184V17.406L27.213,17.406z"/>
</svg>
