<?xml version="1.0" encoding="UTF-8"?>
<svg width="16px" height="18px" viewBox="0 0 16 18" version="1.1" xmlns="http://www.w3.org/2000/svg" xmlns:xlink="http://www.w3.org/1999/xlink">
    <title>Delete</title>
    <g id="Welcome" stroke="none" stroke-width="1" fill="none" fill-rule="evenodd">
        <g id="Provider-Chats" transform="translate(-1027.000000, -1279.000000)" fill="#212121" fill-rule="nonzero">
            <g id="Chat-box" transform="translate(320.000000, 228.000000)">
                <g id="Content" transform="translate(371.000000, 30.000000)">
                    <g id="Delete" transform="translate(336.000000, 1021.000000)">
                        <path d="M13.6233918,1.57192982 L9.69356725,1.57192982 C9.69356725,0.711111111 8.98245614,-8.68441121e-15 8.12163743,-8.68441121e-15 L7.07368421,-8.68441121e-15 C6.2128655,-8.68441121e-15 5.50175439,0.711111111 5.50175439,1.57192982 L1.57192982,1.57192982 C0.711111111,1.57192982 6.06329801e-13,2.28304094 6.06329801e-13,3.14385965 L6.06329801e-13,3.36842105 C6.06329801e-13,3.53684211 0.130994152,3.66783626 0.299415205,3.66783626 L14.8584795,3.66783626 C15.0269006,3.66783626 15.1578947,3.53684211 15.1578947,3.36842105 L15.1578947,3.14385965 C15.1953216,2.28304094 14.502924,1.57192982 13.6233918,1.57192982 Z" id="Path"></path>
                        <path d="M1.34736842,16.205848 C1.34736842,17.0666667 2.05847953,17.7777778 2.91929825,17.7777778 L12.3321637,17.7777778 C13.1929825,17.7777778 13.9040936,17.0666667 13.9040936,16.205848 L13.9040936,4.71578947 L1.34736842,4.71578947 L1.34736842,16.205848 Z M9.00116959,8.25263158 C9.00116959,7.85964912 9.31929825,7.54152047 9.7122807,7.54152047 C10.1052632,7.54152047 10.4233918,7.85964912 10.4233918,8.25263158 L10.4233918,14.2222222 C10.4233918,14.6152047 10.1052632,14.9333333 9.7122807,14.9333333 C9.31929825,14.9333333 9.00116959,14.6152047 9.00116959,14.2222222 L9.00116959,8.25263158 L9.00116959,8.25263158 Z M4.82807018,8.25263158 C4.82807018,7.85964912 5.14619883,7.54152047 5.53918129,7.54152047 C5.93216374,7.54152047 6.2502924,7.85964912 6.2502924,8.25263158 L6.2502924,14.2222222 C6.2502924,14.6152047 5.93216374,14.9333333 5.53918129,14.9333333 C5.14619883,14.9333333 4.82807018,14.6152047 4.82807018,14.2222222 L4.82807018,8.25263158 Z" id="Shape"></path>
                    </g>
                </g>
            </g>
        </g>
    </g>
</svg>