<?xml version="1.0" encoding="UTF-8"?>
<svg width="40px" height="40px" viewBox="0 0 40 40" version="1.1" xmlns="http://www.w3.org/2000/svg" xmlns:xlink="http://www.w3.org/1999/xlink">
    <title>Chat</title>
    <g id="Design" stroke="none" stroke-width="1" fill="none" fill-rule="evenodd">
        <g id="More-menu" transform="translate(-67.000000, -544.000000)">
            <g id="Menu-list" transform="translate(0.000000, 263.000000)">
                <g id="List-Copy" transform="translate(0.000000, 240.000000)">
                    <g id="Chat" transform="translate(67.000000, 41.000000)">
                        <rect id="Rectangle" x="0" y="0" width="40" height="40"></rect>
                        <path d="M40,15.5384615 L40,29.3846154 C39.9962823,30.6575756 38.9652679,31.68859 37.6923077,31.6923077 L35.3846154,31.6923077 L35.3846154,35.5384615 C35.3879367,35.829305 35.2231517,36.0959571 34.9615385,36.2230769 C34.701432,36.3574237 34.3872956,36.3304977 34.1538462,36.1538462 L28.2076923,31.6923077 L16.1538462,31.6923077 C14.880886,31.68859 13.8498715,30.6575756 13.8461538,29.3846154 L13.8461538,24 L23.8461538,24 C25.9700093,23.9992358 27.6915435,22.2777017 27.6923077,20.1538462 L27.6923077,13.2307692 L37.6923077,13.2307692 C38.9652679,13.2344869 39.9962823,14.2655014 40,15.5384615 L40,15.5384615 Z M23.8461538,22.4615385 L11.795,22.4615385 L5.84615385,26.9230769 C5.61306335,27.0978948 5.30120803,27.1260148 5.04060493,26.9957132 C4.78000183,26.8654117 4.61538462,26.5990554 4.61538462,26.3076923 L4.61538462,22.4615385 L2.30769231,22.4615385 C1.03376898,22.4601395 0.00139900857,21.4277695 0,20.1538462 L0,6.30769231 C0.00139900857,5.03376898 1.03376898,4.00139901 2.30769231,4 L23.8461538,4 C25.1200772,4.00139901 26.1524471,5.03376898 26.1538462,6.30769231 L26.1538462,20.1538462 C26.1524471,21.4277695 25.1200772,22.4601395 23.8461538,22.4615385 L23.8461538,22.4615385 Z M7.69230769,12.4615385 L6.15384615,12.4615385 L6.15384615,14 L7.69230769,14 L7.69230769,12.4615385 Z M13.8461538,12.4615385 L12.3076923,12.4615385 L12.3076923,14 L13.8461538,14 L13.8461538,12.4615385 Z M20,12.4615385 L18.4615385,12.4615385 L18.4615385,14 L20,14 L20,12.4615385 Z" id="Shape" fill="#212121" fill-rule="nonzero"></path>
                    </g>
                </g>
            </g>
        </g>
    </g>
</svg>