<?xml version="1.0" encoding="UTF-8"?>
<svg width="70px" height="70px" viewBox="0 0 70 70" version="1.1" xmlns="http://www.w3.org/2000/svg" xmlns:xlink="http://www.w3.org/1999/xlink">
    <title>Close-popup</title>
    <g id="Page-1" stroke="none" stroke-width="1" fill="none" fill-rule="evenodd">
        <g id="Close-popup" fill-rule="nonzero">
            <rect id="Rectangle" fill="#FFFFFF" opacity="0" x="0" y="0" width="70" height="70" rx="8"></rect>
            <g id="icon" transform="translate(10.000000, 10.000000)" fill="#212121">
                <path d="M-2.12132034,-1.28798701 C-0.996610383,-2.41269697 0.798952549,-2.45768537 1.97733075,-1.42295221 L2.12132034,-1.28798701 L51.287987,47.8786797 C52.4595599,49.0502525 52.4595599,50.9497475 51.287987,52.1213203 C50.163277,53.2460303 48.3677141,53.2910187 47.1893359,52.2562855 L47.0453463,52.1213203 L-2.12132034,2.95465368 C-3.29289322,1.7830808 -3.29289322,-0.116414135 -2.12132034,-1.28798701 Z" id="Line"></path>
                <path d="M47.0453463,-2.12132034 C48.2169192,-3.29289322 50.1164141,-3.29289322 51.287987,-2.12132034 C52.412697,-0.996610383 52.4576854,0.798952549 51.4229522,1.97733075 L51.287987,2.12132034 L2.12132034,51.287987 C0.949747468,52.4595599 -0.949747468,52.4595599 -2.12132034,51.287987 C-3.2460303,50.163277 -3.2910187,48.3677141 -2.25628554,47.1893359 L-2.12132034,47.0453463 L47.0453463,-2.12132034 Z" id="Line-2"></path>
            </g>
        </g>
    </g>
</svg>