<?xml version="1.0" encoding="UTF-8"?>
<svg width="120px" height="120px" viewBox="0 0 120 120" version="1.1" xmlns="http://www.w3.org/2000/svg" xmlns:xlink="http://www.w3.org/1999/xlink">
    <title>Consent-blue</title>
    <g id="Design" stroke="none" stroke-width="1" fill="none" fill-rule="evenodd">
        <g id="Retrieve-data-popup" transform="translate(-499.000000, -379.000000)" fill-rule="nonzero">
            <g id="Popover-new" transform="translate(0.000000, 156.000000)">
                <g id="Consent-blue" transform="translate(499.000000, 223.000000)">
                    <path d="M60,0 C26.9008264,0 0,26.9286453 0,60.0620476 C0,93.1954498 26.9008264,120 60,120 C93.0991736,120 120,93.0713547 120,60.0620476 C120,27.0527404 93.0991736,0 60,0 Z" id="Path" fill="#0078D3"></path>
                    <path d="M81.525234,45.5250185 C82.8921286,44.158243 85.108206,44.1583395 86.4749815,45.525234 C87.7929436,46.8433109 87.8399239,48.9509979 86.6159888,50.3253688 L86.474766,50.4749815 L55.8118083,81.1352686 C54.4937721,82.4531901 52.3861638,82.5002139 51.0117829,81.276373 L50.8621687,81.1351608 L33.5251263,63.7981184 C32.1582912,62.4312834 32.1582912,60.215206 33.5251263,58.848371 C34.8431458,57.5303515 36.9508307,57.4832793 38.3252548,58.7071546 L38.4748737,58.848371 L53.337,73.711 L81.525234,45.5250185 Z" id="Stroke-1" fill="#FFFFFF"></path>
                </g>
            </g>
        </g>
    </g>
</svg>