<?xml version="1.0" encoding="UTF-8"?>
<svg width="60px" height="60px" viewBox="0 0 60 60" version="1.1" xmlns="http://www.w3.org/2000/svg" xmlns:xlink="http://www.w3.org/1999/xlink">
    <title>Back-cancel-key</title>
    <g id="Page-1" stroke="none" stroke-width="1" fill="none" fill-rule="evenodd">
        <g id="Back-cancel-key">
            <rect id="Rectangle" x="0" y="0" width="60" height="60"></rect>
            <path d="M43.5420457,17 C45.8716779,17 47.765905,18.8943045 47.765905,21.2310475 L47.765905,21.2310475 L47.765905,39.2861336 C47.765905,41.6207726 45.8748187,43.5171811 43.5420457,43.5171811 L43.5420457,43.5171811 L23.7536318,43.5171811 L12.2977433,31.2879373 C11.7652012,30.7194448 11.9664824,30.2585905 12.7461465,30.2585905 L12.6517121,30.2562158 C11.950983,30.2199992 11.7873904,29.7740491 12.2977433,29.2292438 L12.2977433,29.2292438 L23.7536318,17 L43.5420457,17 Z M38.8429806,22.934877 L33.2753878,28.501227 L27.7084997,22.934877 L25.9520265,24.6913502 L31.5185985,30.2580164 L25.9520265,35.825831 L27.7084997,37.5823042 L33.2753878,32.0148057 L38.8429806,37.5823042 L40.5994538,35.825831 L35.0321772,30.2580164 L40.5994538,24.6913502 L38.8429806,22.934877 Z" id="backspace" fill="#000000" fill-rule="nonzero"></path>
        </g>
    </g>
</svg>