<?xml version="1.0" encoding="UTF-8"?>
<svg width="41px" height="40px" viewBox="0 0 41 40" version="1.1" xmlns="http://www.w3.org/2000/svg" xmlns:xlink="http://www.w3.org/1999/xlink">
    <title>Device-menu</title>
    <g id="Design" stroke="none" stroke-width="1" fill="none" fill-rule="evenodd">
        <g id="More-menu" transform="translate(-43.000000, -299.000000)">
            <g id="Menu-list" transform="translate(0.000000, 263.000000)">
                <g id="List" transform="translate(0.500000, 0.000000)">
                    <g id="Device-menu" transform="translate(43.000000, 36.000000)">
                        <rect id="Rectangle" x="0" y="0" width="40" height="40"></rect>
                        <g id="Device" transform="translate(8.500000, 0.000000)" fill="#000000" fill-rule="nonzero">
                            <path d="M17.8388626,7.11374408 L2.63507109,7.11374408 L3.26066351,1.62085308 C3.36492891,0.696682464 4.14691943,6.73500223e-16 5.07582938,6.73500223e-16 L15.3981043,6.73500223e-16 C16.3270142,6.73500223e-16 17.1090047,0.696682464 17.2132701,1.62085308 L17.8388626,7.11374408 Z" id="Path"></path>
                            <path d="M17.8341232,32.8957346 L17.2132701,38.3459716 C17.1090047,39.2701422 16.3270142,39.9668246 15.3981043,39.9668246 L5.07582938,39.9668246 C4.14691943,39.9668246 3.36492891,39.2701422 3.26066351,38.3459716 L2.63981043,32.8957346 L17.8341232,32.8957346 Z" id="Path"></path>
                            <path d="M21.3791469,17.4407583 C21.2654028,17.3981043 21.1421801,17.3791469 21.0094787,17.3791469 L20.4265403,17.3791469 L20.4265403,11.0094787 C20.4265403,9.90995261 19.5308057,9.01421801 18.4312796,9.01421801 L1.99526066,9.01421801 C0.895734597,9.01421801 0,9.90995261 0,11.0094787 L0,29.0094787 C0,30.1090047 0.895734597,31.0047393 1.99526066,31.0047393 L18.436019,31.0047393 C19.535545,31.0047393 20.4312796,30.1090047 20.4312796,29.0094787 L20.4312796,22.6398104 L20.9952607,22.6398104 C21.1279621,22.6398104 21.2606635,22.6161137 21.3791469,22.5734597 C21.8151659,22.4170616 22.1279621,21.9952607 22.1279621,21.507109 L22.1279621,18.4976303 C22.1279621,18.0047393 21.8151659,17.5924171 21.3791469,17.4407583 Z M4.55450237,23.0189573 L12.5118483,15.0663507 L13.8530806,16.4075829 L5.8957346,24.3601896 L4.55450237,23.0189573 Z M11.1563981,24.9052133 L9.81516588,23.563981 L12.8625592,20.5165877 L14.2037915,21.8578199 L11.1563981,24.9052133 Z" id="Shape"></path>
                        </g>
                    </g>
                </g>
            </g>
        </g>
    </g>
</svg>