<?xml version="1.0" encoding="UTF-8"?>
<svg width="52px" height="52px" viewBox="0 0 52 52" version="1.1" xmlns="http://www.w3.org/2000/svg" xmlns:xlink="http://www.w3.org/1999/xlink">
    <title>Education-empty</title>
    <g id="Patient" stroke="none" stroke-width="1" fill="none" fill-rule="evenodd">
        <g id="Files-patient" transform="translate(-14.000000, -165.000000)">
            <g id="Content">
                <g id="Left-list">
                    <g id="#1" transform="translate(0.000000, 151.000000)">
                        <g id="Education-empty" transform="translate(15.000000, 15.000000)">
                            <rect id="Thumbnail" stroke="#E0E0E0" fill="#FFFFFF" x="-0.5" y="-0.5" width="51" height="51" rx="4"></rect>
                            <g id="Education" transform="translate(10.000000, 16.000000)" fill="#B0B0B0" fill-rule="nonzero">
                                <path d="M15,11.96875 C14.15625,11.96875 13.3125,11.84375 12.5,11.625 L5.5,9.53125 L5.5,14.3125 C5.5,15.1875 6.0625,15.9375 6.90625,16.1875 L9.96875,17.09375 C13.34375,18.09375 16.90625,18.09375 20.28125,17.09375 L23.34375,16.1875 C24.1875,15.9375 24.75,15.1875 24.75,14.3125 L24.75,9.46875 L17.5,11.625 C16.6875,11.875 15.84375,11.96875 15,11.96875 Z" id="Path"></path>
                                <path d="M29.21875,4.21875 L16.875,0.5625 C15.65625,0.1875 14.34375,0.1875 13.09375,0.5625 L0.78125,4.21875 C-0.0625,4.46875 -0.0625,5.6875 0.78125,5.9375 L13.125,9.59375 C14.34375,9.96875 15.65625,9.96875 16.90625,9.59375 L27.46875,6.46875 L27.46875,9.25 C27.25,9.375 27.09375,9.59375 27.09375,9.84375 L27.09375,10.59375 C27.09375,10.875 27.25,11.125 27.5,11.21875 L26.84375,12.75 C26.75,12.96875 26.875,13.1875 27.125,13.21875 L27.8125,13.28125 C27.9375,13.28125 28.09375,13.28125 28.21875,13.28125 L28.90625,13.21875 C29.125,13.1875 29.25,12.96875 29.1875,12.75 L28.53125,11.21875 C28.78125,11.09375 28.9375,10.875 28.9375,10.59375 L28.9375,9.84375 C28.9375,9.59375 28.78125,9.375 28.5625,9.25 L28.5625,6.15625 L29.25,5.9375 C30.0625,5.65625 30.0625,4.46875 29.21875,4.21875 Z" id="Path"></path>
                            </g>
                        </g>
                    </g>
                </g>
            </g>
        </g>
    </g>
</svg>