<?xml version="1.0" encoding="UTF-8"?>
<svg width="40px" height="40px" viewBox="0 0 40 40" version="1.1" xmlns="http://www.w3.org/2000/svg" xmlns:xlink="http://www.w3.org/1999/xlink">
    <title>Education</title>
    <g id="Design" stroke="none" stroke-width="1" fill="none" fill-rule="evenodd">
        <g id="More-menu" transform="translate(-67.000000, -544.000000)">
            <g id="Menu-list" transform="translate(0.000000, 263.000000)">
                <g id="List-Copy" transform="translate(0.000000, 240.000000)">
                    <g id="Education" transform="translate(67.000000, 41.000000)">
                        <rect id="Rectangle" x="0" y="0" width="40" height="40"></rect>
                        <g transform="translate(0.000000, 8.000000)" fill="#212121" fill-rule="nonzero" id="Path">
                            <path d="M20,15.9583333 C18.875,15.9583333 17.75,15.7916667 16.6666667,15.5 L7.33333333,12.7083333 L7.33333333,19.0833333 C7.33333333,20.25 8.08333333,21.25 9.20833333,21.5833333 L13.2916667,22.7916667 C17.7916667,24.125 22.5416667,24.125 27.0416667,22.7916667 L31.125,21.5833333 C32.25,21.25 33,20.25 33,19.0833333 L33,12.625 L23.3333333,15.5 C22.25,15.8333333 21.125,15.9583333 20,15.9583333 Z"></path>
                            <path d="M38.9583333,5.625 L22.5,0.75 C20.875,0.25 19.125,0.25 17.4583333,0.75 L1.04166667,5.625 C-0.0833333333,5.95833333 -0.0833333333,7.58333333 1.04166667,7.91666667 L17.5,12.7916667 C19.125,13.2916667 20.875,13.2916667 22.5416667,12.7916667 L36.625,8.625 L36.625,12.3333333 C36.3333333,12.5 36.125,12.7916667 36.125,13.125 L36.125,14.125 C36.125,14.5 36.3333333,14.8333333 36.6666667,14.9583333 L35.7916667,17 C35.6666667,17.2916667 35.8333333,17.5833333 36.1666667,17.625 L37.0833333,17.7083333 C37.25,17.7083333 37.4583333,17.7083333 37.625,17.7083333 L38.5416667,17.625 C38.8333333,17.5833333 39,17.2916667 38.9166667,17 L38.0416667,14.9583333 C38.375,14.7916667 38.5833333,14.5 38.5833333,14.125 L38.5833333,13.125 C38.5833333,12.7916667 38.375,12.5 38.0833333,12.3333333 L38.0833333,8.20833333 L39,7.91666667 C40.0833333,7.54166667 40.0833333,5.95833333 38.9583333,5.625 Z"></path>
                        </g>
                    </g>
                </g>
            </g>
        </g>
    </g>
</svg>