<?xml version="1.0" encoding="UTF-8"?>
<svg width="50px" height="50px" viewBox="0 0 50 50" version="1.1" xmlns="http://www.w3.org/2000/svg" xmlns:xlink="http://www.w3.org/1999/xlink">
    <title>Education-white</title>
    <g id="Welcome" stroke="none" stroke-width="1" fill="none" fill-rule="evenodd">
        <g id="Education-2" transform="translate(-1230.000000, -374.000000)">
            <g id="Patients" transform="translate(1130.000000, 229.000000)">
                <g id="User-patient-card">
                    <g id="Patient-card">
                        <g id="User-patient-card">
                            <g id="Education-white" transform="translate(100.000000, 145.000000)">
                                <rect id="Rectangle" fill="#D8D8D8" opacity="0" x="0" y="0" width="50" height="50"></rect>
                                <g id="Group-4" transform="translate(1.000000, 10.000000)" fill="#FFFFFF" fill-rule="nonzero">
                                    <path d="M24.4393928,19.2326837 C23.050937,19.2326837 21.6624813,19.0269865 20.3254498,18.6670165 L8.8064093,15.2215892 L8.8064093,23.0895052 C8.8064093,24.5293853 9.73204648,25.7635682 11.1205022,26.1749625 L16.1600825,27.6662669 C21.7139055,29.3118441 27.5762744,29.3118441 33.1300975,27.6662669 L38.1696777,26.1749625 C39.5581334,25.7635682 40.4837706,24.5293853 40.4837706,23.0895052 L40.4837706,15.1187406 L28.5533358,18.6670165 C27.2163043,19.0784108 25.8278486,19.2326837 24.4393928,19.2326837 Z" id="Path"></path>
                                    <path d="M47.8374438,6.47946027 L27.5248501,0.462818591 C25.5193028,-0.154272864 23.3594828,-0.154272864 21.3025112,0.462818591 L1.04134183,6.47946027 C-0.347113943,6.89085457 -0.347113943,8.8964018 1.04134183,9.3077961 L21.3539355,15.3244378 C23.3594828,15.9415292 25.5193028,15.9415292 27.5762744,15.3244378 L44.9576837,10.182009 L44.9576837,14.7587706 C44.5977136,14.9644678 44.3405922,15.3244378 44.3405922,15.7358321 L44.3405922,16.970015 C44.3405922,17.4328336 44.5977136,17.8442279 45.0091079,17.9985007 L43.9291979,20.5182909 C43.774925,20.8782609 43.9806222,21.2382309 44.3920165,21.2896552 L45.5233508,21.3925037 C45.729048,21.3925037 45.9861694,21.3925037 46.1918666,21.3925037 L47.3232009,21.2896552 C47.6831709,21.2382309 47.8888681,20.8782609 47.7860195,20.5182909 L46.7061094,17.9985007 C47.1175037,17.7928036 47.3746252,17.4328336 47.3746252,16.970015 L47.3746252,15.7358321 C47.3746252,15.3244378 47.1175037,14.9644678 46.7575337,14.7587706 L46.7575337,9.66776612 L47.8888681,9.3077961 C49.2258996,8.84497751 49.2258996,6.89085457 47.8374438,6.47946027 Z" id="Path"></path>
                                </g>
                            </g>
                        </g>
                    </g>
                </g>
            </g>
        </g>
    </g>
</svg>