<?xml version="1.0" encoding="UTF-8"?>
<svg width="24px" height="20px" viewBox="0 0 40 40" version="1.1" xmlns="http://www.w3.org/2000/svg" xmlns:xlink="http://www.w3.org/1999/xlink">
    <title>Email</title>
    <g id="Design" stroke="none" stroke-width="1" fill="none" fill-rule="evenodd">
        <g id="Set-new-password" transform="translate(-65.000000, -289.000000)">
            <g id="Data" transform="translate(39.000000, 260.000000)">
                <g id="Search">
                    <g id="Email" transform="translate(26.000000, 29.000000)">
                        <rect id="Rectangle" fill-opacity="0" fill="#D8D8D8" x="0" y="0" width="24" height="20"></rect>
                        <path d="M3.07692308,6 C2.66852821,6 2.27902051,6.08112821 1.92307692,6.22435897 L18.9262821,21.9455538 C19.6558564,22.6200667 20.3104154,22.6205282 21.0416667,21.9455538 L38.0769231,6.22435897 C37.7209795,6.08112821 37.3314718,6 36.9230769,6 L3.07692308,6 Z M0.0320512821,8.66025641 C0.0140564103,8.79538462 0,8.93671795 0,9.07692308 L0,30.6154 C0,32.3200154 1.37232821,33.6923231 3.07692308,33.6923231 L36.9230769,33.6923231 C38.6276718,33.6923231 40,32.3200154 40,30.6154 L40,9.07692308 C40,8.93671795 39.9859487,8.79538462 39.9679487,8.66025641 L23.1410256,24.2051436 C21.3764308,25.8340154 18.5913487,25.8365795 16.8269231,24.2051436 L0.0320512821,8.66025641 Z" id="Shape" fill="#212121" fill-rule="nonzero"></path>
                    </g>
                </g>
            </g>
        </g>
    </g>
</svg>