<?xml version="1.0" encoding="UTF-8"?>
<svg width="140px" height="140px" viewBox="0 0 140 140" version="1.1" xmlns="http://www.w3.org/2000/svg" xmlns:xlink="http://www.w3.org/1999/xlink">
    <title>Empty-view</title>
    <g id="Page-1" stroke="none" stroke-width="1" fill="none" fill-rule="evenodd">
        <g id="Empty-view" fill-rule="nonzero">
            <circle id="path-1" fill="#CCE4F6" cx="70" cy="70" r="70"></circle>
            <g id="Group" transform="translate(0.000000, 26.000000)">
                <polyline id="Fill-1" fill="#F1F0EC" points="53.4959547 51.4393511 26.5441666 69.4664595 0 29.7808792 26.9520284 11.754011 53.4959547 51.4393511"></polyline>
                <polyline id="Fill-2" fill="#D4D5CF" points="39.5722052 49.557614 39.266429 51.4506405 25.86824 49.5203828 26.1742565 47.6275965 39.5722052 49.557614"></polyline>
                <polyline id="Fill-3" fill="#D4D5CF" points="32.8247102 42.8048346 34.7472816 43.0820269 32.6157351 56.2731622 30.6931638 55.9962102 32.8247102 42.8048346"></polyline>
                <path d="M20.4840902,26.0385428 C20.5031036,26.0673669 17.80228,27.9075492 14.4521923,30.1483872 C11.1006634,32.3899459 8.3690941,34.1832888 8.34991542,34.1544647 C8.33090209,34.1258808 11.0312452,32.2859387 14.382534,30.04438 C17.7326216,27.803542 20.4649116,26.0099588 20.4840902,26.0385428" id="Fill-4" fill="#D4D5CF"></path>
                <path d="M30.3956768,23.5505376 C30.4147705,23.5793618 25.9232461,26.6171877 20.3649878,30.3347835 C14.8045676,34.0540606 10.2830182,37.0445669 10.2636796,37.0157427 C10.2445859,36.9871588 14.7351495,33.9498132 20.2953294,30.2310164 C25.853828,26.5131806 30.3763383,23.5217134 30.3956768,23.5505376" id="Fill-5" fill="#D4D5CF"></path>
                <path d="M32.3823849,26.520867 C32.4017157,26.5496912 27.9101914,29.5875172 22.3516928,33.3051129 C16.7915129,37.02439 12.2697232,40.0148963 12.2503846,39.9863123 C12.2312909,39.9574882 16.7218545,36.9203828 22.2822747,33.2013459 C27.840533,29.48351 32.3630433,26.492283 32.3823849,26.520867" id="Fill-6" fill="#D4D5CF"></path>
                <path d="M34.3693271,29.4911964 C34.3884208,29.5200206 29.8968964,32.5578466 24.3386381,36.2756825 C18.7782179,39.9947194 14.2566685,42.9852257 14.2370927,42.9566418 C14.2182363,42.9280578 18.7085596,39.8907122 24.2689797,36.1716753 C29.8272381,32.4538394 34.3499886,29.4626125 34.3693271,29.4911964" id="Fill-7" fill="#D4D5CF"></path>
                <path d="M36.3560322,32.4617661 C36.3751258,32.4905902 31.8836015,35.5284162 26.3253431,39.2460119 C20.764923,42.9650488 16.2433735,45.9557953 16.2240349,45.9269712 C16.2049413,45.8983872 20.6955048,42.8612819 26.2556848,39.1422449 C31.8141833,35.424409 36.3366936,32.4331821 36.3560322,32.4617661" id="Fill-8" fill="#D4D5CF"></path>
                <polyline id="Fill-9" fill="#F1F0EC" points="139.366722 71.6801548 116.731592 86.8195631 94.4394695 53.4906703 117.074359 38.3510218 139.366722 71.6801548"></polyline>
                <polyline id="Fill-10" fill="#D4D5CF" points="127.673002 70.0996302 127.416227 71.6895227 116.164237 70.068404 116.421252 68.4787518 127.673002 70.0996302"></polyline>
                <polyline id="Fill-11" fill="#D4D5CF" points="122.006653 64.4287174 123.621046 64.6609921 121.830826 75.739557 120.216192 75.5070421 122.006653 64.4287174"></polyline>
                <path d="M111.642207,50.3478763 C111.661423,50.3764602 109.395844,51.9255185 106.582126,53.8074958 C103.767447,55.6901936 101.470883,57.1924127 101.451666,57.1635886 C101.43245,57.1347644 103.698029,55.5859463 106.512708,53.7034886 C109.325946,51.8215114 111.622991,50.318812 111.642207,50.3478763" id="Fill-12" fill="#D4D5CF"></path>
                <path d="M119.966289,48.2581249 C119.985359,48.2867089 116.21588,50.8417302 111.547808,53.9641071 C106.878054,57.0874447 103.078309,59.5956268 103.058948,59.5665625 C103.039877,59.5379785 106.808636,56.9836777 111.478149,53.8603401 C116.146462,50.7379633 119.946927,48.2293007 119.966289,48.2581249" id="Fill-13" fill="#D4D5CF"></path>
                <path d="M121.635208,50.7528557 C121.654278,50.7814397 117.884318,53.336461 113.216487,56.4588379 C108.546733,59.5821756 104.746748,62.0898772 104.727389,62.0612933 C104.708555,62.0327093 108.477075,59.4781683 113.147068,56.3548307 C117.8149,53.2324539 121.615846,50.7240316 121.635208,50.7528557" id="Fill-14" fill="#D4D5CF"></path>
                <path d="M123.303646,53.2475865 C123.322716,53.2761705 119.553237,55.8311919 114.884924,58.9535687 C110.215411,62.0769064 106.415427,64.5846081 106.396064,64.5560241 C106.376994,64.5274401 110.145752,61.9728992 114.815506,58.8495615 C119.483579,55.7271847 123.284284,53.2187624 123.303646,53.2475865" id="Fill-15" fill="#D4D5CF"></path>
                <path d="M124.972084,55.7420772 C124.991155,55.7709013 121.221675,58.3256825 116.553603,61.4480593 C111.88385,64.5713969 108.084105,67.0793389 108.064739,67.0507549 C108.045432,67.0219307 111.814191,64.46763 116.483945,61.3440522 C121.152017,58.2219155 124.952722,55.713253 124.972084,55.7420772" id="Fill-16" fill="#D4D5CF"></path>
                <polyline id="Fill-17" fill="#F1F0EC" points="61.8158075 49.5741878 37.1187891 36.3657579 56.5676491 0 81.2649077 13.2084299 61.8158075 49.5741878"></polyline>
                <polyline id="Fill-18" fill="#D4D5CF" points="57.5880243 38.1982537 56.0209509 38.7348635 52.0439378 27.7398887 53.6107709 27.203279 57.5880243 38.1982537"></polyline>
                <polyline id="Fill-19" fill="#D4D5CF" points="59.9902776 30.3105231 60.5609958 31.8881653 49.6416844 35.6278595 49.0709662 34.0499771 59.9902776 30.3105231"></polyline>
                <path d="M67.7490201,14.0880472 C67.729804,14.1243175 65.2247445,12.8221862 62.1547316,11.1804103 C59.0837578,9.53815392 56.6108853,8.17789385 56.6301015,8.14162345 C56.6493175,8.10535306 59.1538966,9.40724418 62.2248703,11.0495005 C65.2946432,12.6915167 67.7684765,14.0520169 67.7490201,14.0880472" id="Fill-20" fill="#D4D5CF"></path>
                <path d="M73.6756408,20.6294494 C73.6560508,20.6657199 69.5104164,18.4863734 64.4171877,15.7622503 C59.3217973,13.0371664 55.20859,10.7996912 55.2276725,10.7636609 C55.2470222,10.7273906 59.3919361,12.9064969 64.4870863,15.6313405 C69.5805551,18.3554636 73.6947232,20.5934193 73.6756408,20.6294494" id="Fill-21" fill="#D4D5CF"></path>
                <path d="M72.2197839,23.3514107 C72.2004309,23.3876811 68.0547964,21.2083346 62.9613276,18.4842115 C57.8661774,15.7593679 53.7527299,13.5216524 53.7720492,13.4853821 C53.7914024,13.4493518 57.9363162,15.6282179 63.0314663,18.3533018 C68.1246949,21.0774249 72.2391033,23.3153805 72.2197839,23.3514107" id="Fill-22" fill="#D4D5CF"></path>
                <path d="M70.7639271,26.073372 C70.7445707,26.1096424 66.5991764,23.9302959 61.5057076,21.2061728 C56.4105574,18.4810889 52.29711,16.2436137 52.3161925,16.2073433 C52.3357824,16.1713131 56.480456,18.3501792 61.5756062,21.0752631 C66.6690751,23.7991459 70.7834833,26.0373418 70.7639271,26.073372" id="Fill-23" fill="#D4D5CF"></path>
                <path d="M45.9469079,38.7209318 L36.3412574,88.1058411 L93.0438999,87.8262468 C95.5885922,87.8135161 97.8438424,85.5541825 98.6624481,82.197129 L108.717035,40.9696965 C109.338676,38.4214008 107.974813,35.7707793 106.043354,35.7726988 L48.6534963,35.8329915 C47.3864343,35.8344327 46.2783857,37.0167035 45.9469079,38.7209318" id="Fill-116" fill="#E0565F"></path>
                <path d="M93.7685868,87.7613924 C94.1766886,87.6631501 94.5240197,87.5540987 94.8199478,87.4404834 C94.4803034,87.5901289 94.1286491,87.6982194 93.7685868,87.7613924" id="Fill-117" fill="#6D232C"></path>
                <path d="M94.3486733,86.4751144 C88.1983186,86.4751144 87.6052616,79.4357748 87.6047811,79.4307305 L82.189923,35.7976819 L106.043354,35.7727009 C106.044075,35.7727009 106.044555,35.7727009 106.045516,35.7727009 C107.655345,35.7727009 108.870284,37.6157656 108.869084,39.7050366 C108.868602,40.1210653 108.820322,40.546702 108.717035,40.9696965 L98.6624481,82.197129 C98.2404146,83.9280197 97.436461,85.3670657 96.407679,86.3569354 C96.4595623,86.2747865 96.4754159,86.2260256 96.4754159,86.2260256 C95.7017272,86.3972891 94.9940937,86.4751144 94.3486733,86.4751144" id="Fill-118" fill="#03508B"></path>
                <path d="M87.6047811,79.4307305 L81.6011896,31.0522648 C81.3552234,29.0701235 79.77614,27.5914443 77.9116975,27.5974129 L64.7472244,27.6404454 C63.7727276,27.6438081 62.8385847,28.0579152 62.1465647,28.7936518 L55.8955658,35.4385809 L19.2824005,35.6297811 C17.0451654,35.6413108 15.3262849,37.7584452 15.6226933,40.1371588 L21.1968049,84.8511133 C21.4434916,86.8306123 23.0196927,88.30737 24.8814931,88.3037801 L88.6900106,88.1776613 C95.7968466,88.3249047 96.4754159,86.2260256 96.4754159,86.2260256 C88.3306695,88.0308983 87.6055018,79.4362552 87.6047811,79.4307305" id="Fill-119" fill="#0078D3"></path>
                <path d="M57.9387181,72.0596729 L50.8407694,65.6744014 L52.9927329,63.3629442 L60.0909219,69.7484559 L57.9387181,72.0596729 M48.4622961,63.5346881 L41.3643473,57.1494167 L43.5163108,54.8379594 L50.6142595,61.2232309 L48.4622961,63.5346881" id="Fill-120" fill="#FFFFFF"></path>
                <polyline id="Fill-121" fill="#FFFFFF" points="44.4182667 72.5722624 42.0400335 70.4325492 57.0367622 54.3253698 59.4152356 56.4650831 44.4182667 72.5722624"></polyline>
            </g>
        </g>
    </g>
</svg>