<?xml version="1.0" encoding="UTF-8"?>
<svg width="60px" height="60px" viewBox="0 0 60 60" version="1.1" xmlns="http://www.w3.org/2000/svg" xmlns:xlink="http://www.w3.org/1999/xlink">
    <title>Exercise</title>
    <g id="Welcome" stroke="none" stroke-width="1" fill="none" fill-rule="evenodd">
        <g id="Patient-Summary-vitals" transform="translate(-419.000000, -646.000000)">
            <g id="Cards" transform="translate(320.000000, 228.000000)">
                <g id="Organisation-Card" transform="translate(0.000000, 310.000000)">
                    <g id="Group-4" transform="translate(0.000000, 108.000000)">
                        <g id="Group-5" transform="translate(16.000000, 0.000000)">
                            <g id="Exercise" transform="translate(83.000000, 0.000000)">
                                <circle id="Oval" fill="#444FF4" cx="30" cy="30" r="30"></circle>
                                <g id="Steps" transform="translate(18.000000, 15.000000)" fill="#FFFFFF" fill-rule="nonzero">
                                    <path d="M6.8952381,23.6952381 C4.72380952,24.152381 2.81904762,23.7333333 3.35238095,26.247619 C3.88571429,28.7619048 6.0952381,30.4380952 8.26666667,29.9809524 C10.4380952,29.5238095 11.8095238,27.047619 11.2761905,24.5333333 C10.7428571,22.0190476 9.1047619,23.2 6.8952381,23.6952381 Z" id="Path"></path>
                                    <path d="M6.7047619,22.5904762 C6.85714286,22.552381 6.97142857,22.5142857 7.12380952,22.4761905 C7.84761905,22.247619 8.53333333,21.9809524 9.1047619,21.4857143 C9.71428571,20.952381 10.0571429,20.152381 10.2095238,19.352381 C10.5904762,17.3714286 10.3238095,15.1619048 9.67619048,13.2952381 C9.14285714,11.7714286 8.34285714,10.3619048 7.16190476,9.25714286 C6.24761905,8.38095238 4.99047619,7.65714286 3.6952381,7.88571429 C2.36190476,8.11428571 1.37142857,9.33333333 0.8,10.5904762 C-0.0380952381,12.4952381 -0.152380952,14.6285714 0.266666667,16.647619 C0.571428571,18.0952381 1.21904762,19.5047619 1.94285714,20.8 C2.4,21.5619048 3.00952381,22.2857143 3.84761905,22.6285714 C4.8,23.0095238 5.79047619,22.8571429 6.7047619,22.5904762 Z" id="Path"></path>
                                    <path d="M17.5619048,16.2666667 C15.3904762,16.1142857 13.5619048,14.7428571 13.1428571,17.2952381 C12.7238095,19.847619 14.247619,22.1714286 16.4571429,22.5142857 C18.6666667,22.8571429 20.8,21.0666667 21.1809524,18.5142857 C21.5619048,15.9619048 19.7333333,16.7619048 17.5619048,16.2666667 Z" id="Path"></path>
                                    <path d="M19.847619,0.266666667 C17.7904762,-0.0380952381 16.3428571,1.44761905 15.3904762,3.04761905 C14.3619048,4.72380952 13.7904762,6.66666667 13.6380952,8.64761905 C13.5619048,9.67619048 13.6380952,10.7047619 13.8285714,11.7333333 C14.0190476,12.6095238 14.1714286,13.5238095 14.9333333,14.1333333 C15.4285714,14.5142857 16.0380952,14.7047619 16.647619,14.8571429 C17.5238095,15.0857143 18.4,15.1619048 19.3142857,15.1619048 C20.4190476,15.1619048 21.1047619,14.7428571 21.7142857,13.8285714 C22.8571429,12.152381 23.5047619,10.2095238 23.6571429,8.19047619 C23.7714286,6.32380952 23.4666667,4.19047619 22.6285714,2.47619048 C22.3238095,1.9047619 21.9428571,1.33333333 21.447619,0.914285714 C20.952381,0.571428571 20.4571429,0.380952381 19.847619,0.266666667 Z" id="Path"></path>
                                </g>
                            </g>
                        </g>
                    </g>
                </g>
            </g>
        </g>
    </g>
</svg>