<?xml version="1.0" encoding="UTF-8"?>
<svg width="40px" height="40px" viewBox="0 0 40 40" version="1.1" xmlns="http://www.w3.org/2000/svg" xmlns:xlink="http://www.w3.org/1999/xlink">
    <title>Expand-icon</title>
    <g id="Provider" stroke="none" stroke-width="1" fill="none" fill-rule="evenodd">
        <g id="Patient-Overview-listover-2" transform="translate(-300.000000, -364.000000)">
            <g id="Expand-icon" transform="translate(320.000000, 384.000000) scale(-1, 1) translate(-320.000000, -384.000000) translate(300.000000, 364.000000)">
                <rect id="Rectangle" fill="#F6861F" x="0" y="0" width="40" height="40" rx="2"></rect>
                <g id="Group-4" transform="translate(12.000000, 12.000000)" fill="#FFFFFF" fill-rule="nonzero">
                    <path d="M7.272323,-0.685919955 C7.65114613,-1.08780486 8.28403505,-1.10650013 8.68591995,-0.727677 C9.05689064,-0.37799411 9.10135654,0.188170868 8.8080477,0.589297408 L8.727677,0.685919955 L1.373,8.487 L8.727677,16.2881189 C9.07735989,16.6590896 9.08832888,17.2268921 8.77185392,17.6100059 L8.68591995,17.7017159 C8.31494927,18.0513988 7.74714677,18.0623678 7.36403298,17.7458928 L7.272323,17.6599589 L-0.727677,9.1729394 C-1.06051622,8.81983778 -1.08825282,8.28503903 -0.810886805,7.90165455 L-0.727677,7.80109949 L7.272323,-0.685919955 Z" id="Stroke-1"></path>
                    <path d="M14.3450907,1.38267204 C14.6860315,1.02097562 15.2556315,1.00414988 15.617328,1.3450907 C15.948883,1.65761978 15.9906509,2.16228611 15.7326985,2.52282517 L15.6549093,2.61732796 L10.236,8.365 L15.6549093,14.1132012 C15.9674384,14.4447563 15.9793442,14.9510081 15.7005598,15.2956922 L15.617328,15.3854385 C15.2857729,15.6979676 14.7795211,15.7098734 14.434837,15.431089 L14.3450907,15.3478571 L8.3450907,8.98259255 C8.0455354,8.66480109 8.02057246,8.18348221 8.27020188,7.83843618 L8.3450907,7.74793663 L14.3450907,1.38267204 Z" id="Stroke-1"></path>
                </g>
            </g>
        </g>
    </g>
</svg>