<?xml version="1.0" encoding="utf-8"?>
<!-- Generator: Adobe Illustrator 21.1.0, SVG Export Plug-In . SVG Version: 6.00 Build 0)  -->
<svg version="1.1" id="Layer_1" xmlns="http://www.w3.org/2000/svg" xmlns:xlink="http://www.w3.org/1999/xlink" x="0px" y="0px"
	 width="74.26px" height="74.26px" viewBox="0 0 74.26 74.26" enable-background="new 0 0 74.26 74.26" xml:space="preserve">
<path fill="#3A3D47" d="M62.222,74.26h-8.34c-1.041,0.024-1.905-0.801-1.929-1.842c-0.024-1.041,0.801-1.905,1.842-1.929
	c0.029-0.001,0.058-0.001,0.087,0h8.34c4.563-0.006,8.261-3.704,8.267-8.267v-8.34c-0.024-1.041,0.801-1.905,1.842-1.929
	c1.041-0.024,1.905,0.801,1.929,1.842c0.001,0.029,0.001,0.058,0,0.087v8.34C74.252,68.867,68.867,74.252,62.222,74.26z"/>
<path fill="#3A3D47" d="M20.378,74.26h-8.34C5.393,74.252,0.008,68.867,0,62.222v-8.34c-0.024-1.041,0.801-1.905,1.842-1.929
	s1.905,0.801,1.929,1.842c0.001,0.029,0.001,0.058,0,0.087v8.34c0.006,4.563,3.704,8.261,8.267,8.267h8.34
	c1.041-0.024,1.905,0.801,1.929,1.842s-0.801,1.905-1.842,1.929C20.436,74.261,20.407,74.261,20.378,74.26z"/>
<path fill="#3A3D47" d="M37.13,59.974c-4.824,0.006-9.472-1.812-13.012-5.088c-0.794-0.734-0.844-1.973-0.11-2.767
	s1.973-0.844,2.767-0.11c5.848,5.399,14.862,5.399,20.71,0c0.794-0.734,2.033-0.684,2.767,0.11c0.734,0.794,0.684,2.033-0.11,2.767
	C46.602,58.162,41.954,59.98,37.13,59.974z"/>
<path fill="#3A3D47" d="M36.042,46.92h-1.6c-1.081,0-1.958-0.877-1.958-1.958s0.877-1.958,1.958-1.958h1.6
	c0.601-0.001,1.087-0.487,1.088-1.088V27.993c0-1.081,0.877-1.958,1.958-1.958s1.958,0.877,1.958,1.958v13.923
	C41.043,44.678,38.804,46.917,36.042,46.92z"/>
<path fill="#3A3D47" d="M52.685,35.32c-1.021,0.001-1.848-0.826-1.849-1.847c0-0.001,0-0.001,0-0.002v-5.587
	c0-1.022,0.828-1.85,1.85-1.85s1.85,0.828,1.85,1.85v5.584c0.001,1.021-0.826,1.848-1.847,1.849c-0.001,0-0.001,0-0.002,0
	L52.685,35.32z"/>
<path fill="#3A3D47" d="M22.009,35.32c-1.021,0.001-1.848-0.826-1.849-1.847c0-0.001,0-0.001,0-0.002v-5.587
	c0-1.022,0.828-1.85,1.85-1.85s1.85,0.828,1.85,1.85v5.584c0.001,1.021-0.826,1.848-1.847,1.849c-0.001,0-0.001,0-0.002,0
	L22.009,35.32z"/>
<path fill="#3A3D47" d="M72.374,22.263c-1.041,0.001-1.885-0.841-1.886-1.882c0-0.001,0-0.003,0-0.004v-8.34
	c-0.006-4.563-3.704-8.261-8.267-8.267h-8.34c-1.042-0.002-1.884-0.848-1.882-1.89c0.002-0.755,0.454-1.437,1.149-1.732
	C53.38,0.05,53.63-0.001,53.882,0h8.34c6.645,0.008,12.03,5.393,12.038,12.038v8.34c0.001,1.041-0.841,1.885-1.882,1.886
	C72.377,22.264,72.375,22.264,72.374,22.263L72.374,22.263z"/>
<path fill="#3A3D47" d="M1.885,22.263C0.844,22.264,0.001,21.42,0,20.38c0-0.001,0-0.001,0-0.002v-8.34
	C0.008,5.393,5.393,0.008,12.038,0h8.34c1.041-0.024,1.905,0.801,1.929,1.842s-0.801,1.905-1.842,1.929
	c-0.029,0.001-0.058,0.001-0.087,0h-8.34c-4.563,0.006-8.261,3.704-8.267,8.267v8.34c0.001,1.041-0.841,1.885-1.882,1.886
	C1.888,22.264,1.886,22.264,1.885,22.263L1.885,22.263z"/>
</svg>
