<?xml version="1.0" encoding="UTF-8"?>
<svg width="40px" height="40px" viewBox="0 0 40 40" version="1.1" xmlns="http://www.w3.org/2000/svg" xmlns:xlink="http://www.w3.org/1999/xlink">
    <title>Files-icon</title>
    <g id="Design" stroke="none" stroke-width="1" fill="none" fill-rule="evenodd">
        <g id="More-menu" transform="translate(-67.000000, -544.000000)">
            <g id="Menu-list" transform="translate(0.000000, 263.000000)">
                <g id="List-Copy" transform="translate(0.000000, 240.000000)">
                    <g id="Files-icon" transform="translate(67.000000, 41.000000)">
                        <rect id="Rectangle" x="0" y="0" width="40" height="40"></rect>
                        <g transform="translate(4.000000, 0.000000)" fill="#212121" fill-rule="nonzero" id="Path">
                            <path d="M2.15,0.2 C1.6,0.2 1.15,0.4 0.75,0.8 C0.35,1.2 0.15,1.65 0.15,2.2 L0.15,37.85 C0.15,38.4 0.35,38.85 0.75,39.25 C1.15,39.65 1.6,39.85 2.15,39.85 L29.8,39.85 C30.35,39.85 30.8,39.65 31.2,39.25 C31.6,38.85 31.8,38.4 31.8,37.85 L31.8,13.35 L20.6,13.35 C20.05,13.35 19.6,13.15 19.2,12.75 C18.8,12.35 18.6,11.9 18.6,11.35 L18.6,0.2 L2.15,0.2 Z"></path>
                            <path d="M22,1.6 C21.8,1.4 21.55,1.2 21.25,1 L21.25,10.7 L31,10.7 C30.8,10.4 30.6,10.15 30.4,9.95 L22,1.6 Z"></path>
                        </g>
                    </g>
                </g>
            </g>
        </g>
    </g>
</svg>