<?xml version="1.0" encoding="utf-8"?>
<!-- Generator: Adobe Illustrator 19.2.1, SVG Export Plug-In . SVG Version: 6.00 Build 0)  -->
<svg version="1.1" id="Layer_9" xmlns="http://www.w3.org/2000/svg" xmlns:xlink="http://www.w3.org/1999/xlink" x="0px" y="0px"
	 width="100px" height="100px" viewBox="0 0 100 100" enable-background="new 0 0 100 100" xml:space="preserve">
<g>
	<path d="M32.503,89.144c-7.708-5.684-12.309-14.787-12.309-24.351V35.277c0-0.865,0.037-1.738,0.11-2.596
		c0.08-0.94-0.617-1.766-1.558-1.846c-0.939-0.079-1.766,0.617-1.846,1.557c-0.081,0.953-0.122,1.924-0.122,2.885v29.516
		c0,5.36,1.291,10.692,3.735,15.423c2.363,4.576,5.808,8.615,9.963,11.679c0.306,0.225,0.661,0.333,1.013,0.333
		c0.524,0,1.041-0.24,1.376-0.694C33.424,90.773,33.263,89.704,32.503,89.144L32.503,89.144z"/>
	<path d="M40.475,93.352c-1.052-0.367-2.095-0.797-3.1-1.279c-0.851-0.408-1.872-0.049-2.279,0.802
		c-0.408,0.851-0.049,1.871,0.802,2.279c1.119,0.537,2.281,1.015,3.453,1.425c0.186,0.065,0.376,0.096,0.563,0.096
		c0.706,0,1.367-0.441,1.613-1.147C41.836,94.637,41.366,93.663,40.475,93.352L40.475,93.352z"/>
	<path d="M82.373,57.029c-0.943,0-1.708,0.765-1.708,1.708v6.057c0,16.672-13.563,30.235-30.235,30.235
		c-1.18,0-2.368-0.069-3.532-0.204c-0.939-0.109-1.786,0.562-1.894,1.499c-0.11,0.938,0.562,1.785,1.499,1.894
		c1.294,0.151,2.615,0.227,3.927,0.227c18.555,0,33.652-15.097,33.652-33.652v-6.057C84.082,57.794,83.317,57.029,82.373,57.029
		L82.373,57.029z"/>
	<path d="M50.43,1.625c-7.267,0-14.184,2.279-20.007,6.589c-5.707,4.226-9.868,10.015-12.034,16.741
		c-0.289,0.899,0.205,1.861,1.103,2.15c0.899,0.289,1.861-0.205,2.15-1.103c1.945-6.042,5.685-11.243,10.813-15.04
		c5.23-3.873,11.446-5.92,17.974-5.92c16.671,0,30.235,13.563,30.235,30.235v16.626c0,0.943,0.764,1.708,1.708,1.708
		c0.943,0,1.708-0.765,1.708-1.708V35.277C84.082,16.722,68.985,1.625,50.43,1.625L50.43,1.625z"/>
	<path d="M27.343,74.233c-0.846,0.418-1.193,1.443-0.776,2.288c2.165,4.388,5.497,8.098,9.635,10.728
		c4.255,2.705,9.175,4.134,14.228,4.134c3.823,0,7.516-0.797,10.976-2.372c0.86-0.39,1.239-1.404,0.848-2.262
		c-0.39-0.859-1.404-1.238-2.262-0.848c-3.013,1.372-6.23,2.066-9.561,2.066c-4.404,0-8.689-1.245-12.395-3.6
		c-3.609-2.295-6.516-5.53-8.403-9.357C29.214,74.163,28.189,73.816,27.343,74.233L27.343,74.233z"/>
	<path d="M66.857,85.176c0.401,0,0.804-0.142,1.129-0.427c5.742-5.056,9.034-12.331,9.034-19.955V35.278
		c0-5.687-1.777-11.115-5.139-15.698c-0.558-0.761-1.627-0.925-2.388-0.367c-0.761,0.558-0.925,1.627-0.367,2.388
		c2.929,3.992,4.477,8.721,4.477,13.677v29.516c0,6.644-2.871,12.983-7.876,17.392c-0.707,0.624-0.776,1.703-0.152,2.411
		C65.913,84.979,66.384,85.176,66.857,85.176L66.857,85.176z"/>
	<path d="M63.596,16.217c0.297,0.206,0.636,0.305,0.972,0.305c0.542,0,1.073-0.257,1.406-0.735c0.537-0.775,0.345-1.84-0.431-2.377
		c-1.294-0.897-2.673-1.682-4.1-2.334c-0.86-0.393-1.872-0.015-2.265,0.844c-0.392,0.858-0.013,1.871,0.844,2.263
		C61.267,14.752,62.469,15.436,63.596,16.217L63.596,16.217z"/>
	<path d="M54.878,9.058c-1.46-0.247-2.958-0.371-4.448-0.371c-14.662,0-26.591,11.928-26.591,26.591v28.699
		c0,0.943,0.765,1.708,1.708,1.708s1.708-0.765,1.708-1.708V35.278c0-12.779,10.395-23.174,23.174-23.174
		c1.3,0,2.605,0.109,3.878,0.323c0.933,0.158,1.812-0.469,1.969-1.399C56.435,10.098,55.809,9.216,54.878,9.058L54.878,9.058z"/>
	<path d="M34.24,24.363c-0.528,0.782-0.323,1.844,0.458,2.372c0.782,0.528,1.844,0.324,2.372-0.458
		c3.011-4.454,8.005-7.112,13.359-7.112c8.884,0,16.111,7.228,16.111,16.113v19.131c0,0.943,0.765,1.708,1.708,1.708
		c0.944,0,1.708-0.765,1.708-1.708V35.278c0-10.769-8.76-19.529-19.528-19.529C43.941,15.749,37.889,18.969,34.24,24.363
		L34.24,24.363z"/>
	<path d="M32.609,41.083c0.943,0,1.708-0.765,1.708-1.708v-4.097c0-0.944-0.765-1.708-1.708-1.708s-1.708,0.764-1.708,1.708v4.097
		C30.9,40.318,31.666,41.083,32.609,41.083L32.609,41.083z"/>
	<path d="M30.9,64.794c0,7.067,3.844,13.604,10.034,17.061c0.264,0.148,0.55,0.218,0.831,0.218c0.599,0,1.181-0.316,1.494-0.875
		c0.46-0.824,0.166-1.865-0.659-2.325c-5.11-2.854-8.283-8.249-8.283-14.079V46.208c0-0.943-0.765-1.708-1.708-1.708
		s-1.708,0.765-1.708,1.708L30.9,64.794L30.9,64.794z"/>
	<path d="M69.958,64.794v-3.095c0-0.944-0.764-1.708-1.708-1.708c-0.943,0-1.708,0.764-1.708,1.708v3.095
		c0,8.884-7.228,16.112-16.111,16.112c-1.298,0-2.591-0.155-3.84-0.463c-0.917-0.225-1.841,0.336-2.067,1.253
		c-0.225,0.917,0.336,1.842,1.253,2.067c1.516,0.371,3.081,0.56,4.654,0.56C61.198,84.322,69.958,75.562,69.958,64.794
		L69.958,64.794z"/>
	<path d="M62.897,35.458c0-6.846-5.486-12.519-12.227-12.647c-3.377-0.063-6.558,1.204-8.968,3.569
		c-2.411,2.367-3.74,5.526-3.74,8.897v29.516c0,0.943,0.764,1.708,1.708,1.708c0.943,0,1.708-0.765,1.708-1.708V35.278
		c0-2.446,0.964-4.739,2.715-6.458c1.751-1.718,4.072-2.637,6.51-2.592c4.894,0.092,8.876,4.233,8.876,9.23v16.217
		c0,0.944,0.764,1.708,1.708,1.708c0.943,0,1.708-0.764,1.708-1.708V35.458H62.897z"/>
	<path d="M45.023,66.771c0,4.927,4.01,8.937,8.937,8.937s8.936-4.009,8.936-8.937v-8.262c0-0.943-0.764-1.708-1.708-1.708
		c-0.943,0-1.708,0.765-1.708,1.708v8.262c0,3.043-2.476,5.52-5.519,5.52s-5.52-2.476-5.52-5.52v-14.64
		c0-0.943-0.764-1.708-1.708-1.708c-0.943,0-1.708,0.765-1.708,1.708v14.64C45.025,66.771,45.023,66.771,45.023,66.771z"/>
	<path d="M54.127,67.822c0.943,0,1.708-0.764,1.708-1.708V35.385c0-2.945-2.256-5.365-5.135-5.507
		c-1.496-0.073-2.913,0.454-3.996,1.485c-1.068,1.017-1.681,2.444-1.681,3.915v9.563c0,0.944,0.765,1.708,1.708,1.708
		c0.944,0,1.708-0.764,1.708-1.708v-9.563c0-0.548,0.22-1.06,0.62-1.44c0.399-0.379,0.92-0.574,1.472-0.547
		c1.041,0.052,1.888,0.991,1.888,2.094v30.729C52.419,67.058,53.182,67.822,54.127,67.822L54.127,67.822z"/>
</g>
</svg>
