<?xml version="1.0" encoding="UTF-8"?>
<svg width="60px" height="60px" viewBox="0 0 60 60" version="1.1" xmlns="http://www.w3.org/2000/svg" xmlns:xlink="http://www.w3.org/1999/xlink">
    <title>Food</title>
    <g id="Welcome" stroke="none" stroke-width="1" fill="none" fill-rule="evenodd">
        <g id="Patient-Summary-vitals" transform="translate(-501.000000, -646.000000)">
            <g id="Cards" transform="translate(320.000000, 228.000000)">
                <g id="Organisation-Card" transform="translate(0.000000, 310.000000)">
                    <g id="Group-4" transform="translate(0.000000, 108.000000)">
                        <g id="Group-5" transform="translate(16.000000, 0.000000)">
                            <g id="Food" transform="translate(165.000000, 0.000000)">
                                <circle id="Oval" fill="#FAB448" cx="30" cy="30" r="30"></circle>
                                <g id="Group" transform="translate(7.000000, 18.000000)" fill="#FFFFFF" fill-rule="nonzero">
                                    <path d="M27.6361983,4.86138843 C27.6328264,4.86059504 27.6293554,4.86089256 27.6259835,4.86009917 C26.1919339,4.51408264 24.7050248,4.33854545 23.2064132,4.33854545 C21.7079008,4.33854545 20.2208926,4.51408264 18.786843,4.86009917 C18.7833719,4.86099174 18.7797025,4.86079339 18.7762314,4.8614876 C12.5110413,6.38052893 6.95246281,11.2210909 6.80429752,19.886876 L39.6087273,19.886876 C39.4604628,11.2206942 33.901686,6.38013223 27.6361983,4.86138843 Z M36.2174876,16.4889917 C36.1990413,16.4917686 36.1806942,16.4932562 36.1624463,16.4932562 C35.9895868,16.4932562 35.8377521,16.3672066 35.8104793,16.1910744 C35.4677355,13.9741488 34.4003306,12.2254215 32.7237025,11.1340165 C32.5586777,11.0265124 32.5119669,10.8055537 32.6193719,10.6405289 C32.726876,10.475405 32.9479339,10.4286942 33.1128595,10.5361983 C34.9641322,11.7413554 36.1407273,13.6590744 36.515405,16.0819835 C36.5455537,16.2766612 36.4120661,16.458843 36.2174876,16.4889917 Z" id="Shape"></path>
                                    <path d="M23.2064132,0.0657520661 C20.9686612,0.0657520661 19.1385124,1.84304132 19.0538182,4.0597686 C20.3911736,3.77047934 21.7835702,3.62082645 23.2065124,3.62082645 C24.6294545,3.62082645 26.0217521,3.77047934 27.3591074,4.0597686 C27.2744132,1.84294215 25.4442645,0.0657520661 23.2064132,0.0657520661 Z" id="Path"></path>
                                    <path d="M46.0161322,23.188562 L42.9157686,23.188562 L42.9157686,20.6000331 L39.970314,20.6000331 C39.9698182,20.6000331 39.9690248,20.6000331 39.9683306,20.6000331 L6.44459504,20.6000331 L3.49705785,20.6000331 L3.49705785,23.188562 L0.397090909,23.188562 C0.200132231,23.188562 0.0404628099,23.3481322 0.0404628099,23.5451901 C0.0404628099,23.7421488 0.200033058,23.9018182 0.397090909,23.9018182 L46.0161322,23.9018182 C46.2130909,23.9018182 46.3727603,23.7422479 46.3727603,23.5451901 C46.3727603,23.3481322 46.2130909,23.188562 46.0161322,23.188562 Z" id="Path"></path>
                                </g>
                            </g>
                        </g>
                    </g>
                </g>
            </g>
        </g>
    </g>
</svg>