<?xml version="1.0" encoding="UTF-8"?>
<svg width="23px" height="30px" viewBox="0 0 23 30" version="1.1" xmlns="http://www.w3.org/2000/svg" xmlns:xlink="http://www.w3.org/1999/xlink">
    <title>Apple-eaten</title>
    <g id="Design" stroke="none" stroke-width="1" fill="none" fill-rule="evenodd">
        <g id="Results-steps" transform="translate(-68.000000, -991.000000)" fill="#B0B0B0" fill-rule="nonzero">
            <g id="Data" transform="translate(38.000000, 420.000000)">
                <g id="List" transform="translate(2.000000, 508.000000)">
                    <g id="Group-11" transform="translate(28.000000, 24.000000)">
                        <g id="Apple-eaten" transform="translate(0.000000, 39.000000)">
                            <path d="M22.21875,24.5 C22.34375,24.5 22.5,24.5 22.625,24.46875 C20.40625,28.46875 16.46875,30.625 12.71875,29.5625 C12.3125,29.4375 11.9375,29.28125 11.5625,29.09375 C11.1875,29.28125 10.8125,29.4375 10.40625,29.5625 C6.625,30.65625 2.6875,28.46875 0.5,24.46875 C0.625,24.46875 0.78125,24.5 0.90625,24.5 C4.40625,24.5 7.25,21.53125 7.25,17.875 C7.25,14.21875 4.40625,11.25 0.90625,11.25 C0.6875,11.25 0.5,11.25 0.28125,11.28125 C1.40625,9.3125 3.0625,7.84375 5.125,7.25 C7.03125,6.6875 8.96875,7 10.71875,7.9375 C9.90625,5.3125 8.6875,2.40625 8.03125,1.1875 C7.40625,-5.55111512e-17 10.8125,-0.28125 11.3125,0.96875 C11.71875,2.03125 12.125,5.25 12.3125,8 C14.09375,7.03125 16.0625,6.71875 18,7.28125 C20.0625,7.875 21.71875,9.34375 22.84375,11.3125 C22.625,11.28125 22.4375,11.28125 22.21875,11.28125 C18.71875,11.28125 15.875,14.25 15.875,17.90625 C15.875,21.5625 18.71875,24.5 22.21875,24.5 Z" id="Path"></path>
                            <path d="M13.71875,6.46875 C14.4375,6.28125 15.90625,5.78125 16.6875,4.59375 C17.5,3.40625 17.40625,1.875 17.3125,1.125 C17.28125,0.875 17.03125,0.71875 16.78125,0.78125 C16.0625,0.96875 14.59375,1.46875 13.8125,2.65625 C13.03125,3.84375 13.09375,5.375 13.21875,6.125 C13.25,6.375 13.5,6.53125 13.71875,6.46875 Z" id="Path"></path>
                        </g>
                    </g>
                </g>
            </g>
        </g>
    </g>
</svg>