<?xml version="1.0" encoding="UTF-8"?>
<svg width="54px" height="92px" viewBox="0 0 54 92" version="1.1" xmlns="http://www.w3.org/2000/svg" xmlns:xlink="http://www.w3.org/1999/xlink">
    <title>BloodGlucoseAfterBreakfast</title>
    <g id="Page-1" stroke="none" stroke-width="1" fill="none" fill-rule="evenodd">
        <g id="BloodGlucoseAfterBreakfast" fill="#B0B0B0" fill-rule="nonzero">
            <path d="M27,19.669 C28.69,19.669 30.68,19.29 33.549,17.991 C36.418,16.692 46.268,15.501 53.818,21.184 C53.818,21.184 33.765,28.247 34.983,52.684 C35.572,64.503 42.447,71.954 49.39,76.498 C49.39,76.498 45.943,81.424 41.193,82.885 C36.445,84.346 30.342,78.663 27,79.191 C23.658,78.663 17.555,84.346 12.806,82.885 C8.057,81.424 4.609,76.498 4.609,76.498 C11.552,71.955 18.427,64.503 19.016,52.684 C20.234,28.247 0.181,21.184 0.181,21.184 C7.731,15.501 17.582,16.692 20.45,17.991 C23.318,19.29 25.31,19.669 27,19.669 Z" id="Path"></path>
            <path d="M27,91.491 C27.848,91.491 27.88,88.65 28.854,88.65 C29.828,88.65 32.67,90.639 32.67,90.639 C33.969,82.723 29.46,82.602 27.001,82.602 C24.542,82.602 20.033,82.724 21.332,90.639 C21.332,90.639 24.173,88.65 25.148,88.65 C26.123,88.65 26.152,91.491 27,91.491 Z" id="Path"></path>
            <path d="M27,16.273 C23.18,16.273 22.427,5.272 23.36,2.918 C24.294,0.564 25.909,0.509 27,0.509 C28.091,0.509 29.706,0.563 30.64,2.917 C31.573,5.272 30.82,16.273 27,16.273 Z" id="Path"></path>
        </g>
    </g>
</svg>