<?xml version="1.0" encoding="UTF-8"?>
<svg width="30px" height="30px" viewBox="0 0 30 30" version="1.1" xmlns="http://www.w3.org/2000/svg" xmlns:xlink="http://www.w3.org/1999/xlink">
    <title>Height-icon</title>
    <g id="Welcome" stroke="none" stroke-width="1" fill="none" fill-rule="evenodd">
        <g id="Patient-Summary" transform="translate(-500.000000, -344.000000)">
            <g id="Cards" transform="translate(320.000000, 228.000000)">
                <g id="Patient-info-card">
                    <g id="Profile" transform="translate(30.000000, 30.000000)">
                        <g id="Overview" transform="translate(150.000000, 83.000000)">
                            <g id="Height">
                                <g id="Height-icon" transform="translate(0.000000, 3.000000)">
                                    <circle id="Oval" fill="#CCE4F6" cx="15" cy="15" r="15"></circle>
                                    <g id="icon" transform="translate(11.000000, 6.000000)" fill="#0078D3" fill-rule="nonzero">
                                        <path d="M7.31295421,9.59001041 C7.31295421,9.57127992 6.88215296,6.81789802 6.76977002,5.9937565 C6.61992611,4.9635796 5.88943704,4.17689906 4.95291258,3.95213319 C4.5783028,4.17689906 4.12877106,4.30801249 3.66050884,4.30801249 C3.19224661,4.30801249 2.74271487,4.17689906 2.36810509,3.95213319 C1.41285015,4.17689906 0.701091564,4.9635796 0.551247652,5.9937565 C0.420134228,6.83662851 0.00806346862,9.57127992 0.00806346862,9.59001041 C-0.0481279986,9.9458897 0.195368359,10.2830385 0.551247652,10.33923 C0.963318411,10.3954214 1.24427575,10.1144641 1.30046721,9.79604579 C1.30046721,9.7773153 1.78745993,6.57440166 1.8436514,6.21852237 C1.8436514,6.19979188 1.86238189,6.18106139 1.88111238,6.18106139 C1.91857335,6.18106139 1.93730384,6.19979188 1.93730384,6.23725286 L1.93730384,10.5452653 L1.35665868,16.8761707 C1.3191977,17.3444329 1.65634651,17.7565036 2.12460873,17.7939646 C2.59287096,17.8314256 3.00494172,17.4942768 3.0424027,17.0260146 C3.0424027,17.0260146 3.60431737,10.8636837 3.60431737,10.8449532 C3.60431737,10.8262227 3.67923933,10.8262227 3.67923933,10.8449532 C3.67923933,10.8636837 4.241154,17.0260146 4.241154,17.0260146 C4.27861498,17.4755463 4.61576378,17.8501561 5.15894796,17.7939646 C5.62721019,17.7565036 5.96435899,17.3444329 5.92689802,16.8761707 L5.34625285,10.5452653 L5.36498334,6.19979188 C5.36498334,6.18106139 5.38371383,6.16233091 5.40244432,6.16233091 C5.42117481,6.16233091 5.4399053,6.18106139 5.4399053,6.19979188 C5.49609677,6.55567118 5.98308948,9.7773153 5.98308948,9.81477627 C6.03928095,10.1331946 6.28277731,10.4328824 6.73230905,10.3579605 C7.12564932,10.2830385 7.36914567,9.9458897 7.31295421,9.59001041 Z" id="Path"></path>
                                        <circle id="Oval" cx="3.66050884" cy="1.81685744" r="1.81685744"></circle>
                                    </g>
                                </g>
                            </g>
                        </g>
                    </g>
                </g>
            </g>
        </g>
    </g>
</svg>