<?xml version="1.0" encoding="UTF-8"?>
<svg width="45px" height="35px" viewBox="0 0 45 35" version="1.1" xmlns="http://www.w3.org/2000/svg" xmlns:xlink="http://www.w3.org/1999/xlink">
    <!-- Generator: Sketch 61.2 (89653) - https://sketch.com -->
    <title>Email-login</title>
    <desc>Created with Sketch.</desc>
    <g id="Main" stroke="none" stroke-width="1" fill="none" fill-rule="evenodd">
        <g id="Register" transform="translate(-54.000000, -757.000000)" fill="#ACB0B9">
            <g id="Cont" transform="translate(24.000000, 205.000000)">
                <g id="password" transform="translate(0.000000, 524.000000)">
                    <g id="Email-login" transform="translate(30.000000, 28.000000)">
                        <path d="M22.5115313,21.4849531 L22.5045,21.4947969 L22.510125,21.4990156 L22.5171563,21.5018281 L22.510125,21.4990156 L22.5030938,21.5018281 L22.5016875,21.4990156 L22.498875,21.5018281 L22.4904375,21.4976094 L22.482,21.5018281 L22.4693438,21.4849531 L0.00028125,8.83714062 L0.00028125,31.6366719 C0.00028125,33.0218281 1.12246875,34.1440156 2.50621875,34.1440156 L42.47325,34.1440156 C43.8584063,34.1440156 44.9805938,33.0218281 44.9805938,31.6366719 L44.9805938,8.86104687 L22.5115313,21.4849531 Z" id="Fill-1"></path>
                        <path d="M22.4902969,18.6814531 L44.9804531,6.02520312 L44.9804531,2.91317187 C44.9804531,1.52801562 43.8582656,0.405828125 42.4731094,0.405828125 L2.50748437,0.405828125 C1.12232812,0.405828125 0.000140625,1.52801562 0.000140625,2.91317187 L0.000140625,6.02520312 L22.4902969,18.6814531 Z" id="Fill-4"></path>
                    </g>
                </g>
            </g>
        </g>
    </g>
</svg>