<?xml version="1.0" encoding="utf-8"?>
<!-- Generator: Adobe Illustrator 21.1.0, SVG Export Plug-In . SVG Version: 6.00 Build 0)  -->
<svg version="1.1" id="Layer_1" xmlns="http://www.w3.org/2000/svg" xmlns:xlink="http://www.w3.org/1999/xlink" x="0px" y="0px"
	 width="140px" height="140px" viewBox="0 0 140 140" enable-background="new 0 0 140 140" xml:space="preserve">
<circle fill="#00B0E4" cx="70" cy="70" r="70"/>
<path fill="#FFFFFF" d="M68.716,83.273c6.048,0,10.934-5.281,10.934-11.758V49.758C79.65,43.281,74.764,38,68.716,38
	s-10.934,5.281-10.934,11.758v21.756C57.782,77.992,62.668,83.273,68.716,83.273L68.716,83.273z"/>
<path fill="#FFFFFF" d="M84.079,60.531v11.223c0,8.477-6.893,15.377-15.225,15.377s-15.225-6.9-15.225-15.377V60.531H51v11.223
	c0,9.463,7.336,17.264,16.609,17.954v8.843H57.505v2.535h22.283v-2.535h-9.55v-8.843c9.135-0.69,16.194-8.491,16.194-17.954V60.531
	H84.079L84.079,60.531z"/>
</svg>
