<?xml version="1.0" encoding="utf-8"?>
<!-- Generator: Adobe Illustrator 21.1.0, SVG Export Plug-In . SVG Version: 6.00 Build 0)  -->
<svg version="1.1" id="Layer_1" xmlns="http://www.w3.org/2000/svg" xmlns:xlink="http://www.w3.org/1999/xlink" x="0px" y="0px"
	 width="140px" height="140px" viewBox="0 0 140 140" enable-background="new 0 0 140 140" xml:space="preserve">
<circle fill="#EA2915" cx="70" cy="70" r="70"/>
<path fill="#FFFFFF" d="M39.653,81.093c3.803-0.015,12.712-1.891,16.144-5.445c0.795-0.823,1.306-1.719,1.495-2.673
	c0.567-2.811,1.042-5.029,1.686-5.695c0.353-0.366,1.059-0.442,2.636-0.585l0.269-0.018c4.387-0.385,5.415-0.377,7.278-0.371
	l0.475,0.005c0.334-0.006,0.63,0.002,0.912-0.003c1.619-0.002,2.788-0.01,7.147,0.184l0.193,0.009
	c2.083,0.092,3.446,0.146,4.019,0.624c0.561,0.466,0.968,1.743,1.427,4.433c0.545,3.254,2.847,5.578,6.828,6.922
	c3.153,1.05,6.846,1.358,10.101,1.623l0.283,0.021c2.805,0.234,5.028-0.499,6.63-2.158c1.779-1.842,2.262-4.33,2.522-5.645
	c0.024-0.103,0.035-0.219,0.059-0.322c0.604-2.927,0.297-5.774-0.831-7.823c-1.698-3.08-4.355-6.605-14.322-9.335
	c-8.624-2.368-15.114-3.232-23.966-3.193c-8.325,0.042-11.502,0.56-18.52,1.812c-7.813,1.395-14.024,3.983-17.027,7.093
	c-2.789,2.888-4.984,5.161-4.206,12.176C31.708,80.088,35.58,81.1,39.653,81.093L39.653,81.093z"/>
</svg>
