<?xml version="1.0" encoding="UTF-8"?>
<svg width="60px" height="60px" viewBox="0 0 60 60" version="1.1" xmlns="http://www.w3.org/2000/svg" xmlns:xlink="http://www.w3.org/1999/xlink">
    <title>Lab</title>
    <g id="Welcome" stroke="none" stroke-width="1" fill="none" fill-rule="evenodd">
        <g id="Patient-Summary-vitals" transform="translate(-584.000000, -646.000000)">
            <g id="Cards" transform="translate(320.000000, 228.000000)">
                <g id="Organisation-Card" transform="translate(0.000000, 310.000000)">
                    <g id="Group-4" transform="translate(0.000000, 108.000000)">
                        <g id="Group-5" transform="translate(16.000000, 0.000000)">
                            <g id="Lab" transform="translate(248.000000, 0.000000)">
                                <circle id="Oval" fill="#329EF4" cx="30" cy="30" r="30"></circle>
                                <path d="M35.9930493,27.862663 L43.8722236,39.078519 C44.4611688,39.9168713 44.2589843,41.0739244 43.420632,41.6628696 C43.1083175,41.8822715 42.7359298,42 42.3542525,42 L24.4993817,42 C23.4748375,42 22.6442802,41.1694429 22.6442802,40.1448985 C22.6442802,39.7701428 22.7577816,39.4041741 22.9698379,39.0951856 L30.6478112,27.9075588 L30.6478112,21.3384676 L29.5296732,21.3384676 C29.1198555,21.3384676 28.7876326,21.0062447 28.7876326,20.596427 L28.7876326,18.7420406 C28.7876326,18.3322229 29.1198555,18 29.5296732,18 L37.1111873,18 C37.521005,18 37.8532279,18.3322229 37.8532279,18.7420406 L37.8532279,20.596427 C37.8532279,21.0062447 37.521005,21.3384676 37.1111873,21.3384676 L35.9930493,21.3384676 L35.9930493,27.862663 Z M25.0185086,28.617688 L25.0229211,28.617688 L26.3338309,30.302903 L20.3658075,38.1562126 L16.6130608,38.1562126 C15.9983343,38.1562126 15.5,37.6578783 15.5,37.0431517 C15.5,36.7999076 15.5796819,36.5633601 15.7268571,36.3696925 L21.6178951,28.617688 L21.6242386,28.617688 L21.6242386,25.7907547 L21.1850505,25.7907547 C20.7752328,25.7907547 20.4430099,25.4585318 20.4430099,25.0487141 L20.4430099,24.1189821 C20.4430099,23.7091644 20.7752328,23.3769415 21.1850505,23.3769415 L25.4576967,23.3769415 C25.8675144,23.3769415 26.1997373,23.7091644 26.1997373,24.1189821 L26.1997373,25.0487141 C26.1997373,25.4585318 25.8675144,25.7907547 25.4576967,25.7907547 L25.0185086,25.7907547 L25.0185086,28.617688 Z" id="Shape" fill="#FFFFFF" fill-rule="nonzero"></path>
                            </g>
                        </g>
                    </g>
                </g>
            </g>
        </g>
    </g>
</svg>