<svg width="72" height="72" viewBox="0 0 72 72" fill="none" xmlns="http://www.w3.org/2000/svg">
<path d="M52.276 37.2649C53.4106 37.2649 53.7596 37.2649 54.6324 37.2649C59.6069 37.2649 63.7088 38.2248 67.0252 41.5412C70.3417 44.8577 71.9999 48.9596 71.9999 53.934C71.9999 58.7343 70.3417 62.8361 66.938 66.2396C63.6215 69.5561 59.5197 71.3016 54.6324 71.3016C49.2213 71.3016 45.0322 69.7308 41.8904 66.5888C38.8357 63.447 37.2649 59.1705 37.2649 53.6723V37.3521H49.745V52.7997C49.745 54.5452 50.0069 55.8542 50.8795 56.9013C51.7524 57.9487 53.1487 58.6468 54.545 58.6468C55.8542 58.6468 56.9888 58.2106 57.8614 57.2505C58.8215 56.2904 59.1705 55.0686 59.1705 53.7596C59.0833 51.9268 58.1234 50.7923 57.2505 50.1814C55.2433 48.8723 54.2832 49.396 52.276 49.396V37.2649Z" fill="#727271"/>
<path fill-rule="evenodd" clip-rule="evenodd" d="M19.7239 37.2649C18.5893 37.2649 18.2402 37.2649 17.3675 37.2649C12.3929 37.2649 8.29102 38.2248 4.97461 41.5412C1.65821 44.8577 0 48.9596 0 53.934C0 58.7343 1.65821 62.8361 5.0619 66.2396C8.37831 69.5561 12.4802 71.3016 17.3675 71.3016C22.7785 71.3016 26.9676 69.7308 30.1096 66.5888C33.1641 63.447 34.7351 59.1705 34.7351 53.6723V37.3521H22.2548V52.7997C22.2548 54.5452 21.9931 55.8542 21.1202 56.9013C20.2476 57.9487 18.8512 58.6468 17.4548 58.6468C16.1457 58.6468 15.0111 58.2106 14.1384 57.2505C13.1784 56.2904 12.8293 55.0686 12.8293 53.7596C12.9165 51.9268 13.8765 50.7923 14.7493 50.1814C16.7566 48.8723 17.7166 49.396 19.7239 49.396V37.2649Z" fill="#727271"/>
<path d="M52.276 34.7353C53.4106 34.7353 53.7596 34.7353 54.6324 34.7353C59.6069 34.7353 63.7088 33.7752 67.0252 30.4587C70.3417 27.1424 71.9999 23.0406 71.9999 18.0659C71.9999 13.2659 70.3417 9.16398 66.938 5.76029C63.6215 2.44389 59.5197 0.698425 54.6324 0.698425C49.2213 0.698425 45.0322 2.26936 41.8904 5.41122C38.8357 8.55308 37.2649 12.8295 37.2649 18.3277V34.648H49.745V19.2005C49.745 17.455 50.0069 16.1459 50.8795 15.0986C51.7524 14.0513 53.1487 13.3531 54.545 13.3531C55.8542 13.3531 56.9888 13.7895 57.8614 14.7495C58.8215 15.7095 59.1705 16.9313 59.1705 18.2405C59.0832 20.0732 58.1234 21.2079 57.2505 21.8188C55.2433 23.1278 54.2832 22.6042 52.276 22.6042V34.7353Z" fill="#727271"/>
<path d="M19.7239 34.7353C18.5893 34.7353 18.2402 34.7353 17.3675 34.7353C12.3929 34.7353 8.29102 33.7752 4.97461 30.4587C1.65821 27.1424 0 23.0406 0 18.0659C0 13.2659 1.65821 9.16398 5.0619 5.76029C8.37831 2.44389 12.4802 0.698425 17.3675 0.698425C22.7785 0.698425 26.9676 2.26936 30.1096 5.41122C33.1641 8.55308 34.7351 12.8295 34.7351 18.3277V34.648H22.2548V19.2005C22.2548 17.455 21.9931 16.1459 21.1202 15.0986C20.2476 14.0513 18.8512 13.3531 17.4548 13.3531C16.1457 13.3531 15.0111 13.7895 14.1384 14.7495C13.1784 15.7095 12.8293 16.9313 12.8293 18.2405C12.9165 20.0732 13.8765 21.2079 14.7493 21.8188C16.7566 23.1278 17.7166 22.6042 19.7239 22.6042V34.7353Z" fill="#3894B5"/>
</svg>
