<?xml version="1.0" encoding="UTF-8"?>
<svg width="40px" height="40px" viewBox="0 0 40 40" version="1.1" xmlns="http://www.w3.org/2000/svg" xmlns:xlink="http://www.w3.org/1999/xlink">
    <!-- Generator: Sketch 64 (93537) - https://sketch.com -->
    <title>Logout</title>
    <desc>Created with Sketch.</desc>
    <g id="Design" stroke="none" stroke-width="1" fill="none" fill-rule="evenodd">
        <g id="Profile" transform="translate(-43.000000, -1716.000000)" fill="#212121" fill-rule="nonzero">
            <g id="NAV" transform="translate(-1.000000, 0.000000)">
                <g id="DATA" transform="translate(0.500000, 260.000000)">
                    <g id="Group-3" transform="translate(0.000000, 840.000000)">
                        <g id="Menu-list" transform="translate(0.500000, 73.000000)">
                            <g id="List-Copy-3" transform="translate(0.500000, 500.000000)">
                                <g id="Logout" transform="translate(42.500000, 43.000000)">
                                    <path d="M39.9771167,2.0228833 L39.9771167,32.9748284 C39.9771167,33.208238 39.8489703,33.4553776 39.6384439,33.5697941 C39.1395881,33.8352403 38.6361556,34.1006865 38.1372998,34.3615561 C35.9679634,35.5057208 33.7940503,36.6544622 31.624714,37.8032037 C30.2517162,38.5263158 28.8832952,39.2540046 27.5102975,39.9771167 C27.0572082,40.2196796 26.4759725,39.9221968 26.4759725,39.382151 C26.4759725,39.3638444 26.4759725,39.3455378 26.4759725,39.3272311 C26.4668192,38.9107551 26.4759725,38.4897025 26.4759725,38.0686499 L26.4759725,34.3478261 L13.4324943,34.3478261 C12.6864989,34.3478261 12.0594966,33.7162471 12.0594966,32.9748284 L12.0594966,23.0938215 C12.0594966,22.3249428 12.6910755,21.7528604 13.4324943,21.7208238 C14.173913,21.6887872 14.805492,22.375286 14.805492,23.0938215 L14.805492,31.6018307 L26.4759725,31.6018307 L26.4759725,7.11670481 C26.4759725,6.88329519 26.604119,6.63615561 26.8146453,6.52173913 C27.3135011,6.25629291 27.8169336,5.99084668 28.3157895,5.72997712 C30.1830664,4.74141876 32.0503432,3.75743707 33.9221968,2.76887872 L14.805492,2.76887872 L14.805492,10.4073227 C14.805492,11.1762014 14.173913,11.7482838 13.4324943,11.7803204 C12.6910755,11.812357 12.0594966,11.1258581 12.0594966,10.4073227 L12.0594966,1.39588101 C12.0594966,0.649885584 12.6910755,0.0228832952 13.4324943,0.0228832952 C13.4508009,0.0228832952 13.4645309,0.0228832952 13.4828375,0.0228832952 C14.6453089,0.00457665904 15.812357,0.0228832952 16.979405,0.0228832952 L39.3363844,0.0228832952 C39.4691076,0.0274599542 39.5881007,0.0778032037 39.6933638,0.155606407 C39.6979405,0.160183066 39.7070938,0.164759725 39.7116705,0.169336384 C39.7803204,0.219679634 39.8398169,0.28375286 39.8855835,0.366132723 C39.9130435,0.411899314 39.9359268,0.466819222 39.9496568,0.517162471 C39.9496568,0.52173913 39.9542334,0.526315789 39.9542334,0.530892449 C39.9542334,0.530892449 39.9542334,0.530892449 39.9542334,0.530892449 C39.97254,0.590389016 39.9816934,0.649885584 39.9816934,0.709382151 C39.9816934,0.727688787 39.9816934,0.745995423 39.9816934,0.764302059 C39.98627,1.18077803 39.9771167,1.60183066 39.9771167,2.0228833 Z" id="Path"></path>
                                    <path d="M17.4645309,15.1670481 L17.4645309,18.5171625 C17.4645309,18.8878719 17.1487414,19.2036613 16.778032,19.2036613 L9.68421053,19.2036613 L9.68421053,23.1716247 C9.68421053,23.6430206 9.08009153,24.0915332 8.64988558,23.7665904 C8.31121281,23.5057208 7.96796339,23.2448513 7.62929062,22.9885584 C6.14187643,21.8535469 4.65446224,20.7139588 3.16704805,19.5789474 C2.23340961,18.8649886 1.29977117,18.1510297 0.366132723,17.4370709 C-0.0686498856,17.1029748 -0.0686498856,16.5858124 0.366132723,16.2517162 C0.704805492,15.9908467 1.04805492,15.7299771 1.38672769,15.4736842 C2.87414188,14.3386728 4.36155606,13.1990847 5.84897025,12.0640732 C6.7826087,11.3501144 7.71624714,10.6361556 8.64988558,9.9221968 C9.08009153,9.59267735 9.68421053,10.0411899 9.68421053,10.5171625 L9.68421053,14.4851259 L16.778032,14.4851259 C17.1487414,14.4622426 17.4645309,14.805492 17.4645309,15.1670481 Z" id="Path"></path>
                                </g>
                            </g>
                        </g>
                    </g>
                </g>
            </g>
        </g>
    </g>
</svg>