<svg width="41" height="40" viewBox="0 0 41 40" fill="none" xmlns="http://www.w3.org/2000/svg">
<path d="M29.5423 20.3149C30.1726 20.3149 30.3664 20.3149 30.8514 20.3149C33.615 20.3149 35.8938 20.8482 37.7363 22.6907C39.5788 24.5332 40.5001 26.812 40.5001 29.5757C40.5001 32.2425 39.5788 34.5213 37.6879 36.4122C35.8454 38.2547 33.5665 39.2244 30.8514 39.2244C27.8452 39.2244 25.5178 38.3517 23.7724 36.6062C22.0753 34.8607 21.2026 32.4848 21.2026 29.4303V20.3634H28.1361V28.9455C28.1361 29.9152 28.2816 30.6424 28.7664 31.2242C29.2513 31.806 30.0271 32.1939 30.8028 32.1939C31.5302 32.1939 32.1605 31.9516 32.6453 31.4182C33.1787 30.8848 33.3725 30.206 33.3725 29.4787C33.3241 28.4605 32.7908 27.8302 32.3059 27.4908C31.1908 26.7636 30.6574 27.0545 29.5423 27.0545V20.3149Z" fill="white"/>
<path fill-rule="evenodd" clip-rule="evenodd" d="M11.4579 20.3149C10.8275 20.3149 10.6336 20.3149 10.1487 20.3149C7.38502 20.3149 5.10617 20.8482 3.2637 22.6907C1.42124 24.5332 0.5 26.812 0.5 29.5757C0.5 32.2425 1.42124 34.5213 3.3122 36.4122C5.15466 38.2547 7.4335 39.2244 10.1487 39.2244C13.1548 39.2244 15.4822 38.3517 17.2277 36.6062C18.9247 34.8607 19.7975 32.4848 19.7975 29.4303V20.3634H12.8639V28.9455C12.8639 29.9152 12.7185 30.6424 12.2336 31.2242C11.7488 31.806 10.973 32.1939 10.1972 32.1939C9.46991 32.1939 8.8396 31.9516 8.35474 31.4182C7.82139 30.8848 7.62744 30.206 7.62744 29.4787C7.67594 28.4605 8.20928 27.8302 8.69414 27.4908C9.80932 26.7636 10.3427 27.0545 11.4579 27.0545V20.3149Z" fill="white"/>
<path d="M29.5423 18.9096C30.1726 18.9096 30.3664 18.9096 30.8514 18.9096C33.615 18.9096 35.8938 18.3762 37.7363 16.5337C39.5788 14.6913 40.5001 12.4124 40.5001 9.64871C40.5001 6.98199 39.5788 4.70314 37.6879 2.81218C35.8454 0.969711 33.5665 0 30.8514 0C27.8452 0 25.5178 0.87275 23.7724 2.61825C22.0753 4.36374 21.2026 6.73955 21.2026 9.79416V18.8611H28.1361V10.279C28.1361 9.3093 28.2816 8.58203 28.7664 8.0002C29.2513 7.41837 30.0271 7.03048 30.8028 7.03048C31.5302 7.03048 32.1605 7.27289 32.6453 7.80624C33.1787 8.33958 33.3725 9.01839 33.3725 9.74568C33.3241 10.7639 32.7908 11.3943 32.3059 11.7336C31.1908 12.4609 30.6574 12.17 29.5423 12.17V18.9096Z" fill="white"/>
<path d="M11.4579 18.9096C10.8275 18.9096 10.6336 18.9096 10.1487 18.9096C7.38502 18.9096 5.10617 18.3762 3.2637 16.5337C1.42124 14.6913 0.5 12.4124 0.5 9.64871C0.5 6.98199 1.42124 4.70314 3.3122 2.81218C5.15466 0.969711 7.4335 0 10.1487 0C13.1548 0 15.4822 0.87275 17.2277 2.61825C18.9247 4.36374 19.7975 6.73955 19.7975 9.79416V18.8611H12.8639V10.279C12.8639 9.3093 12.7185 8.58203 12.2336 8.0002C11.7488 7.41837 10.973 7.03048 10.1972 7.03048C9.46991 7.03048 8.8396 7.27289 8.35474 7.80624C7.82139 8.33958 7.62744 9.01839 7.62744 9.74568C7.67594 10.7639 8.20928 11.3943 8.69414 11.7336C9.80932 12.4609 10.3427 12.17 11.4579 12.17V18.9096Z" fill="white"/>
</svg>
