<?xml version="1.0" encoding="UTF-8"?>
<svg width="114px" height="45px" viewBox="0 0 114 45" version="1.1" xmlns="http://www.w3.org/2000/svg" xmlns:xlink="http://www.w3.org/1999/xlink">
    <!-- Generator: Sketch 64 (93537) - https://sketch.com -->
    <title>Logo-Atom</title>
    <desc>Created with Sketch.</desc>
    <g id="Welcome" stroke="none" stroke-width="1" fill="none" fill-rule="evenodd">
        <g id="Sign-in" transform="translate(-1104.000000, -198.000000)">
            <g transform="translate(191.000000, 168.000000)" id="Logo-Atom">
                <g transform="translate(360.000000, 0.000000)">
                    <g transform="translate(553.000000, 30.000000)">
                        <g id="Shape">
                            <path d="M36.932521,34.6573739 C36.5192017,35.1397059 35.8978992,35.5535924 35.0684244,35.9672899 C34.3094748,36.1743277 33.2727731,36.3838235 32.1697059,36.3838235 C30.9942227,36.3838235 29.5457143,36.1743277 28.097395,35.8294538 C28.3023529,35.0710714 28.5804832,34.2432983 28.7878992,33.4130672 C29.270042,31.6196849 29.615105,29.6173739 29.8223319,27.5460504 C31.272542,26.3042017 32.5837815,25.0604622 33.7579412,23.749979 C33.8953992,24.0262185 34.1028151,24.2328782 34.2410294,24.439916 C35.4132983,25.8882353 36.2435294,27.2698109 36.7948739,28.6519538 C37.3465966,29.9620588 37.6232143,31.2059874 37.6232143,32.1714076 C37.6232143,33.137395 37.4157983,33.9672479 36.932521,34.6573739 Z M26.5087815,35.4157563 C25.6810084,35.1397059 24.8513445,34.8640336 24.0239496,34.5881723 C23.1933403,34.2432983 22.2967437,33.8290336 21.4697269,33.4130672 C22.917479,32.5854832 24.3684454,31.7577101 25.8190336,30.7208193 C26.5087815,30.1690966 27.2679202,29.6173739 27.9597479,29.0660294 C27.6127941,31.3438235 27.1297059,33.5510924 26.5087815,35.4157563 Z M25.7481303,37.3490546 C24.8513445,39.2137185 23.8857353,40.7314286 22.917479,41.6991176 C22.2967437,42.1822059 21.8144118,42.5267017 21.2623109,42.8027521 C20.7796008,43.0784244 20.2259874,43.2164496 19.6738866,43.2164496 C19.1906092,43.2164496 18.6390756,43.0784244 18.0854622,42.8027521 C17.1882983,42.4578782 16.2228782,41.5612815 15.3926471,40.3865546 C14.7028992,39.4205672 14.0131513,38.2456513 13.4616176,36.8667227 C14.2196218,36.5904832 15.1167857,36.3127311 15.9470168,36.0363025 C17.1192857,35.5535924 18.3626471,35.0016807 19.6738866,34.3811345 C20.917437,35.0016807 22.1587185,35.5535924 23.4034034,36.0363025 C24.2992437,36.4530252 25.0580042,36.6594958 25.8861555,36.9355462 C25.8861555,37.0735714 25.8190336,37.2804202 25.7481303,37.3490546 Z M12.1488655,32.9301681 C11.8034244,31.7577101 11.5967647,30.3761345 11.3209034,29.0660294 C12.0798529,29.5483613 12.7716807,30.1002731 13.5306303,30.6518067 C14.9785714,31.6196849 16.430105,32.5854832 17.8803151,33.4130672 C16.9808824,33.7605882 16.1536765,34.1052731 15.3262815,34.5189706 C14.4962395,34.795021 13.6688445,35.0710714 12.8380462,35.3467437 C12.5621849,34.5881723 12.3555252,33.7605882 12.1488655,32.9301681 Z M7.17806723,36.2435294 C6.075,36.2435294 4.97117647,36.0363025 4.21014706,35.7604412 C3.3819958,35.484958 2.76144958,35.0016807 2.34529412,34.4501471 C1.86201681,33.8290336 1.65554622,33.0681933 1.65554622,32.102584 C1.65554622,31.0656933 1.93197479,29.8246008 2.55478992,28.5112815 C3.17552521,26.9935714 4.21014706,25.3367017 5.59172269,23.6811555 L5.72993697,23.749979 C6.83319328,24.9914496 8.14556723,26.3042017 9.5252521,27.5460504 C9.87088235,30.5143487 10.4216597,33.275042 11.252458,35.6919958 C9.8037605,36.0363025 8.42142857,36.2435294 7.17806723,36.2435294 Z M9.31027311,19.6759664 C9.31027311,20.5035504 9.31027311,21.4716176 9.31027311,22.4372269 C9.31027311,23.3340126 9.31027311,24.2328782 9.31027311,25.1296639 C8.36489496,24.2328782 7.52086134,23.2651891 6.62142857,22.3684034 L6.89596639,22.0923529 C7.6569958,21.2645798 8.55397059,20.4345378 9.31027311,19.6759664 Z M2.55478992,16.224958 C2.00042017,14.8431933 1.72455882,13.6711134 1.72455882,12.6336555 C1.72455882,11.6682353 1.93197479,10.9094748 2.41638655,10.217458 C2.89966387,9.66554622 3.52021008,9.25184874 4.27840336,8.97617647 C5.10939076,8.63111345 6.075,8.49327731 7.24991597,8.49327731 C8.42142857,8.49327731 9.8037605,8.63111345 11.3209034,9.04481092 C11.0452311,9.8037605 10.7693697,10.6336134 10.5621429,11.5303992 C10.1465546,13.2568487 9.8037605,15.2567017 9.5252521,17.259958 C8.07731092,18.5036975 6.7639916,19.8138025 5.59172269,21.1267437 C5.45426471,20.919895 5.31605042,20.6413866 5.10939076,20.4345378 C4.00273109,18.9860294 3.17552521,17.5352521 2.55478992,16.224958 Z M12.909895,9.4585084 C13.6688445,9.66554622 14.4962395,9.94159664 15.3926471,10.2862815 C16.2228782,10.6336134 17.0508403,11.0471218 17.9472479,11.4617647 C16.4987395,12.2201471 15.0506092,13.1878361 13.5990756,14.1538235 C12.8380462,14.7051681 12.0798529,15.2567017 11.3209034,15.8112605 C11.734979,13.4638866 12.2872689,11.3233613 12.909895,9.4585084 Z M13.6688445,7.52539916 C14.4962395,5.59418067 15.4639286,4.14340336 16.4987395,3.10878151 C16.9808824,2.62380252 17.6044538,2.27855042 18.0854622,2.00306723 C18.6390756,1.72701681 19.1906092,1.65781513 19.6738866,1.65781513 C20.2259874,1.65781513 20.7796008,1.72701681 21.2623109,2.00306723 C22.2282983,2.41676471 23.1269748,3.24661765 23.9543697,4.41926471 C24.7133193,5.45596639 25.3340546,6.62861345 25.9566807,8.01018908 C25.1270168,8.28642857 24.2992437,8.49327731 23.4716597,8.83796218 C22.2282983,9.32105042 20.9870168,9.8037605 19.8121008,10.4931303 C18.432605,9.8037605 17.1882983,9.25184874 15.9470168,8.76913866 C15.1167857,8.42426471 14.2895798,8.14840336 13.5306303,7.87008403 C13.5306303,7.80144958 13.5990756,7.66323529 13.6688445,7.52539916 Z M27.2679202,11.8752731 C27.5437815,13.1190126 27.8194538,14.4294958 27.9597479,15.8112605 C27.2679202,15.2567017 26.6469958,14.7051681 25.8861555,14.2226471 C24.437458,13.1878361 22.9895168,12.2893487 21.5379832,11.4617647 C22.4351471,11.0471218 23.2653782,10.7026261 24.0927731,10.4244958 C24.9197899,10.0794328 25.7481303,9.8037605 26.5087815,9.52771008 C26.7158193,10.2862815 26.9914916,11.0471218 27.2679202,11.8752731 Z M28.4407563,22.4372269 C28.4407563,23.8883824 28.4407563,25.3367017 28.3023529,26.7871008 C27.1979622,27.6146849 26.0947059,28.5112815 24.8513445,29.3413235 C23.1269748,30.5143487 21.3313235,31.6196849 19.6738866,32.5168487 C17.9472479,31.6196849 16.1536765,30.5143487 14.4962395,29.3413235 C13.254958,28.442458 12.1488655,27.6146849 11.1142437,26.6492647 C10.9760294,25.3367017 10.907584,23.8883824 10.907584,22.4372269 C10.907584,20.919895 10.9760294,19.4693067 11.1142437,18.1565546 C12.2173109,17.1907563 13.3232143,16.3629832 14.4962395,15.4637395 C16.2918908,14.2914706 18.0185294,13.2568487 19.7430882,12.3579832 C21.4697269,13.2568487 23.1933403,14.3606723 24.9197899,15.6019538 C26.0947059,16.3629832 27.2679202,17.259958 28.3023529,18.1565546 C28.4407563,19.5383193 28.4407563,20.9889076 28.4407563,22.4372269 Z M30.0291807,19.6759664 C30.9942227,20.6413866 31.9632353,21.5406303 32.7210504,22.5064286 L32.4453782,22.7821008 C31.6866176,23.6121429 30.9284244,24.3709034 30.0291807,25.1984874 C30.097437,24.3020798 30.097437,23.3340126 30.097437,22.4372269 C30.097437,21.4716176 30.097437,20.6413866 30.0291807,19.6759664 Z M32.1697059,8.63111345 C33.3448109,8.63111345 34.3794328,8.76913866 35.2068277,9.11401261 C36.0363025,9.38987395 36.5884034,9.8037605 37.002479,10.4244958 C37.485,11.0471218 37.6914706,11.8062605 37.6914706,12.7720588 C37.6914706,13.8085714 37.485,14.9814076 36.8640756,16.2939706 C36.2435294,17.8805042 35.1368697,19.5383193 33.7579412,21.1953782 L33.6204832,21.0579202 C32.5138235,19.8138025 31.272542,18.572521 29.8223319,17.3285924 C29.5457143,14.2914706 28.9253571,11.5303992 28.097395,9.11401261 C29.615105,8.76913866 30.9942227,8.63111345 32.1697059,8.63111345 Z M34.8619538,22.5064286 C35.1368697,22.2301891 35.4132983,21.8853151 35.6227941,21.5406303 C36.7948739,20.0208403 37.6914706,18.5036975 38.3812185,16.9837185 C39.004979,15.4637395 39.4188655,14.0848109 39.4188655,12.7720588 C39.4188655,11.5303992 39.004979,10.4244958 38.3148529,9.4585084 C37.6914706,8.56247899 36.7948739,7.93890756 35.7611975,7.52539916 C34.7235504,7.18071429 33.4822689,6.97386555 32.1697059,6.97386555 C30.7189286,6.97386555 29.1318277,7.18071429 27.5437815,7.59441176 C27.4743908,7.31817227 27.3363655,7.0425 27.2679202,6.83546218 C26.3023109,4.76413866 25.2654202,3.10878151 23.9543697,1.93405462 C23.4034034,1.31331933 22.6418067,0.899432773 21.9518697,0.554369748 C21.1938655,0.207037815 20.5010924,0 19.6738866,0 C18.914937,0 18.1559874,0.207037815 17.3951471,0.554369748 C16.1536765,1.10628151 15.0506092,2.14071429 14.0131513,3.45365546 C13.254958,4.62630252 12.4960084,5.93886555 11.8731933,7.4560084 C10.2178361,7.0425 8.62941176,6.83546218 7.24991597,6.83546218 C5.93659664,6.83546218 4.76168067,7.0425 3.72686975,7.38737395 C2.6930042,7.80144958 1.7937605,8.42426471 1.17302521,9.25184874 C0.414264706,10.1482563 0.138403361,11.392563 0.138403361,12.6336555 C0.138403361,13.9467857 0.414264706,15.3259034 1.10401261,16.8456933 C1.86201681,18.572521 3.03731092,20.4345378 4.48506303,22.3684034 C4.27840336,22.6442647 4.00273109,22.9889496 3.79607143,23.2651891 C2.55478992,24.8536134 1.65554622,26.4422269 0.965798319,27.8905462 C0.345063025,29.3413235 0,30.7898319 0,32.102584 C0,33.275042 0.276617647,34.5189706 0.965798319,35.4157563 C1.65554622,36.3127311 2.55478992,36.8667227 3.65766807,37.2804202 C4.6955042,37.6943067 5.86834034,37.8319538 7.17806723,37.8319538 C8.62941176,37.8319538 10.1465546,37.6943067 11.8034244,37.2804202 C11.9416387,37.4872689 12.0798529,37.7629412 12.1488655,38.0388025 C13.0482983,40.0418697 14.1513655,41.6991176 15.3926471,42.9405882 C16.0154622,43.4926891 16.7059664,43.975021 17.3951471,44.3223529 C18.1559874,44.6672269 18.914937,44.8742647 19.6738866,44.8742647 C20.5010924,44.8742647 21.1938655,44.6672269 21.9518697,44.3223529 C23.2653782,43.7681723 24.3684454,42.664916 25.3340546,41.3517857 C26.1640966,40.2485294 26.8538445,38.9376681 27.4743908,37.3490546 C29.1318277,37.7629412 30.7189286,37.9697899 32.1697059,37.9697899 C33.4822689,37.9697899 34.6545378,37.8319538 35.6891597,37.4872689 C36.7258613,37.0043697 37.5532563,36.4530252 38.2437605,35.5535924 C38.9357773,34.6573739 39.2806513,33.4820798 39.2806513,32.1714076 C39.2806513,30.8588445 38.9357773,29.4795378 38.3148529,27.9595588 C37.5532563,26.2351891 36.3819328,24.3709034 34.8619538,22.5064286 L34.8619538,22.5064286 Z" id="Fill-8" fill="#0078D3"></path>
                            <path d="M19.6738866,18.3654832 C17.4647269,18.3654832 15.6013866,20.1590546 15.6013866,22.4372269 C15.6013866,24.6467647 17.4647269,26.5802521 19.6738866,26.5802521 C21.9518697,26.5802521 23.7477101,24.6467647 23.7477101,22.4372269 C23.7477101,20.1590546 21.9518697,18.3654832 19.6738866,18.3654832" id="Fill-9" fill="#00747A"></path>
                        </g>
                        <path d="M47.928,32 L49.536,27.464 L56.376,27.464 L57.984,32 L61.2,32 L54.6,14.864 L51.408,14.864 L44.832,32 L47.928,32 Z M55.584,25.184 L50.352,25.184 L52.944,17.816 L53.016,17.816 L55.584,25.184 Z M69.624,32 L69.624,17.456 L75.072,17.456 L75.072,14.864 L61.2,14.864 L61.2,17.456 L66.624,17.456 L66.624,32 L69.624,32 Z M84.36,32.408 C85.64,32.408 86.788,32.172 87.804,31.7 C88.82,31.228 89.68,30.584 90.384,29.768 C91.088,28.952 91.628,28 92.004,26.912 C92.38,25.824 92.568,24.664 92.568,23.432 C92.568,22.216 92.38,21.064 92.004,19.976 C91.628,18.888 91.088,17.936 90.384,17.12 C89.68,16.304 88.82,15.656 87.804,15.176 C86.788,14.696 85.64,14.456 84.36,14.456 C83.08,14.456 81.932,14.696 80.916,15.176 C79.9,15.656 79.04,16.304 78.336,17.12 C77.632,17.936 77.092,18.888 76.716,19.976 C76.34,21.064 76.152,22.216 76.152,23.432 C76.152,24.664 76.34,25.824 76.716,26.912 C77.092,28 77.632,28.952 78.336,29.768 C79.04,30.584 79.9,31.228 80.916,31.7 C81.932,32.172 83.08,32.408 84.36,32.408 Z M84.36,29.96 C83.448,29.96 82.66,29.776 81.996,29.408 C81.332,29.04 80.792,28.548 80.376,27.932 C79.96,27.316 79.652,26.616 79.452,25.832 C79.252,25.048 79.152,24.248 79.152,23.432 C79.152,22.616 79.252,21.816 79.452,21.032 C79.652,20.248 79.96,19.548 80.376,18.932 C80.792,18.316 81.332,17.824 81.996,17.456 C82.66,17.088 83.448,16.904 84.36,16.904 C85.272,16.904 86.06,17.088 86.724,17.456 C87.388,17.824 87.928,18.316 88.344,18.932 C88.76,19.548 89.068,20.248 89.268,21.032 C89.468,21.816 89.568,22.616 89.568,23.432 C89.568,24.248 89.468,25.048 89.268,25.832 C89.068,26.616 88.76,27.316 88.344,27.932 C87.928,28.548 87.388,29.04 86.724,29.408 C86.06,29.776 85.272,29.96 84.36,29.96 Z M98.112,32 L98.112,18.776 L98.16,18.776 L102.912,32 L105.384,32 L110.136,18.776 L110.184,18.776 L110.184,32 L113.04,32 L113.04,14.864 L108.864,14.864 L104.256,28.28 L104.208,28.28 L99.48,14.864 L95.256,14.864 L95.256,32 L98.112,32 Z" id="ATOM" fill="#252525" fill-rule="nonzero"></path>
                    </g>
                </g>
            </g>
        </g>
    </g>
</svg>