<?xml version="1.0" encoding="UTF-8"?>
<svg width="480px" height="42px" viewBox="0 0 480 42" version="1.1" xmlns="http://www.w3.org/2000/svg" xmlns:xlink="http://www.w3.org/1999/xlink">
    <title>AMD Health Logo</title>
    <g id="Page-1" stroke="none" stroke-width="1" fill="none" fill-rule="evenodd">
        <g id="AMD-Health-Logo">
            <polygon id="Path" fill="#2D93B5" fill-rule="nonzero" points="313.410439 40.3499637 313.410439 1.82322564 317.992403 1.82322564 317.992403 16.6412018 338.464427 16.6412018 338.464427 1.82322564 343.121506 1.82322564 343.121506 40.3499637 338.464427 40.3499637 338.464427 21.0114805 317.992403 21.0114805 317.992403 40.3499637"></polygon>
            <polygon id="Path" fill="#2D93B5" fill-rule="nonzero" points="349.779352 40.3499637 349.779352 1.82322564 370.094319 1.82322564 370.094319 6.0091332 354.361316 6.0091332 354.361316 17.057744 370.094319 17.057744 370.094319 21.3187657 354.361316 21.3187657 354.361316 36.0821134 370.094319 36.0821134 370.094319 40.3431352 349.779352 40.3431352"></polygon>
            <path d="M387.493492,0.2936281 L405.015578,40.3431352 L400.044386,40.3431352 L395.045879,28.5297256 L379.995732,28.5297256 L374.997226,40.3431352 L370.026034,40.3431352 L387.493492,0.2936281 Z M387.493492,10.4272118 L381.361444,24.6101319 L393.625539,24.6101319 L387.493492,10.4272118 Z" id="Shape" fill="#2D93B5" fill-rule="nonzero"></path>
            <polygon id="Path" fill="#2D93B5" fill-rule="nonzero" points="406.442747 40.3499637 406.442747 1.82322564 411.024711 1.82322564 411.024711 35.979685 425.576373 35.979685 425.576373 40.3499637 406.449575 40.3499637"></polygon>
            <polygon id="Path" fill="#2D93B5" fill-rule="nonzero" points="432.261534 40.3499637 432.261534 6.19350433 421.36998 6.19350433 421.36998 1.82322564 447.735052 1.82322564 447.735052 6.19350433 436.891298 6.19350433 436.891298 40.3499637"></polygon>
            <polygon id="Path" fill="#2D93B5" fill-rule="nonzero" points="450.288933 40.3499637 450.288933 1.82322564 454.870898 1.82322564 454.870898 16.6412018 475.342922 16.6412018 475.342922 1.82322564 480 1.82322564 480 40.3499637 475.342922 40.3499637 475.342922 21.0114805 454.870898 21.0114805 454.870898 40.3499637"></polygon>
            <path d="M30.9333789,21.6123938 C31.5889207,21.6123938 31.8210917,21.6123938 32.3195766,21.6123938 C35.2831719,21.6123938 37.673168,22.1859929 39.6534506,24.1389612 C41.6269045,26.0919295 42.6170458,28.5297256 42.6170458,31.4728351 C42.6170458,34.334002 41.620076,36.7581409 39.6193078,38.745252 C37.6253681,40.7391917 35.2012291,41.7361615 32.3400623,41.7361615 C29.1579531,41.7361615 26.6450429,40.8074773 24.8013316,38.9364517 C22.9644488,37.0654261 22.0494217,34.5183731 22.0494217,31.2816354 L22.0494217,21.6123938 L29.4584098,21.6123938 C29.4584098,21.6123938 29.4584098,30.7490077 29.4584098,30.7490077 C29.4584098,31.7869489 29.6018096,32.5380906 30.107123,33.1594896 C30.605608,33.77406 31.4455209,34.1906022 32.2990909,34.1906022 C33.0707183,34.1906022 33.7194315,33.9174598 34.2793735,33.3506893 C34.8393154,32.7839187 35.0783151,32.080577 35.0578294,31.3021211 C35.0305151,30.2300371 34.4432589,29.533524 33.8969741,29.1716103 C32.6883189,28.3726687 32.1488626,28.7072681 30.9538645,28.6867825 L30.9402074,21.626051 L30.9333789,21.6123938 Z" id="Path" fill="#6F6F6E"></path>
            <path d="M11.6768384,21.6123938 C11.0212966,21.6123938 10.7891255,21.6123938 10.2906406,21.6123938 C7.32704537,21.6123938 4.93704921,22.1859929 2.95676668,24.1389612 C0.983312705,26.0782724 0,28.522897 0,31.4660066 C0,34.3271734 0.996969826,36.7513124 2.99773804,38.7384235 C4.99167769,40.7323631 7.41581665,41.7293329 10.2769835,41.7293329 C13.4590927,41.7293329 15.9720029,40.8006487 17.8157142,38.9296231 C19.652597,37.0585976 20.5676241,34.5115445 20.5676241,31.2748069 L20.5676241,21.6055653 L13.158636,21.6055653 C13.158636,21.6055653 13.158636,30.7421792 13.158636,30.7421792 C13.158636,31.7801204 13.0152362,32.531262 12.5099228,33.152661 C12.0114378,33.7672314 11.1715249,34.1837736 10.3179548,34.1837736 C9.54632751,34.1837736 8.89761427,33.9106312 8.33767231,33.3438607 C7.77773036,32.7770902 7.53873074,32.0737485 7.55921642,31.2952926 C7.58653066,30.2232086 8.17378686,29.5266954 8.7200717,29.1647817 C9.9287269,28.3658401 10.4681832,28.7004396 11.6631813,28.6799539 L11.6768384,21.6192224 L11.6768384,21.6123938 Z" id="Path" fill="#6F6F6E"></path>
            <path d="M30.9333789,20.1169391 C31.5889207,20.1169391 31.8210917,20.1169391 32.3195766,20.1169391 C35.2831719,20.1169391 37.673168,19.54334 39.6534506,17.5903717 C41.6269045,15.6374034 42.6170458,13.1996074 42.6170458,10.2564978 C42.6170458,7.39533097 41.620076,4.97119201 39.6193078,2.98408092 C37.6253681,0.996969826 35.2012291,0 32.3400623,0 C29.1579531,0 26.6450429,0.928684222 24.8013316,2.79970979 C22.9644488,4.67073535 22.0494217,7.2177884 22.0494217,10.4545261 L22.0494217,20.1237677 L29.4584098,20.1237677 C29.4584098,20.1237677 29.4584098,10.9871538 29.4584098,10.9871538 C29.4584098,9.94921258 29.6018096,9.19807093 30.107123,8.57667193 C30.605608,7.96210149 31.4455209,7.5455593 32.2990909,7.5455593 C33.0707183,7.5455593 33.7194315,7.81870172 34.2793735,8.38547224 C34.8393154,8.95224276 35.0783151,9.66241304 35.0578294,10.4340404 C35.0305151,11.5061244 34.4432589,12.2026375 33.8969741,12.5645512 C32.6883189,13.3634928 32.1488626,13.0288933 30.9538645,13.049379 L30.9402074,20.1101105 L30.9333789,20.1169391 Z" id="Path" fill="#6F6F6E"></path>
            <path d="M11.6768384,20.1169391 C11.0212966,20.1169391 10.7891255,20.1169391 10.2906406,20.1169391 C7.32704537,20.1169391 4.93704921,19.54334 2.95676668,17.5903717 C0.983312705,15.644232 0,13.2064359 0,10.2633264 C0,7.40215953 0.996969826,4.97802057 2.99773804,2.99090948 C4.98484913,0.996969826 7.41581665,0 10.2769835,0 C13.4590927,0 15.9720029,0.928684222 17.8157142,2.79970979 C19.652597,4.67073535 20.5676241,7.2177884 20.5676241,10.4545261 L20.5676241,20.1237677 L13.158636,20.1237677 C13.158636,20.1237677 13.158636,10.9871538 13.158636,10.9871538 C13.158636,9.94921258 13.0152362,9.19807093 12.5099228,8.57667193 C12.0114378,7.96210149 11.1715249,7.5455593 10.3179548,7.5455593 C9.54632751,7.5455593 8.89761427,7.81870172 8.33767231,8.38547224 C7.77773036,8.95224276 7.53873074,9.66241304 7.55921642,10.4340404 C7.58653066,11.5061244 8.17378686,12.2026375 8.7200717,12.5645512 C9.9287269,13.3634928 10.4681832,13.0288933 11.6631813,13.049379 L11.6768384,20.1101105 L11.6768384,20.1169391 Z" id="Path" fill="#2D93B5"></path>
            <polygon id="Path" fill="#575656" points="68.7226324 10.4340404 56.2331953 40.3499637 51.2756604 40.3499637 68.7226324 0.30728522 86.2447185 40.3499637 81.2803551 40.3499637"></polygon>
            <polygon id="Path" fill="#575656" fill-rule="nonzero" points="88.0269728 40.3499637 88.0269728 1.82322564 92.6089369 1.82322564 92.6089369 35.979685 107.160599 35.979685 107.160599 40.3499637"></polygon>
            <path d="M114.528616,23.0600487 L114.528616,40.3499637 L110.055909,40.3499637 L110.055909,1.82322564 L118.134096,1.82322564 C120.96112,1.82322564 123.037002,1.97345397 124.368572,2.27391063 C125.700141,2.57436729 126.860996,3.06602364 127.844309,3.74887969 C129.07345,4.62976399 130.029448,5.82476207 130.725961,7.35435961 C131.415646,8.88395715 131.763903,10.5706116 131.763903,12.4348086 C131.763903,14.2990056 131.415646,15.98566 130.725961,17.5152576 C130.029448,19.0380265 129.07345,20.2466817 127.844309,21.1207375 C126.860996,21.8240792 125.706969,22.3225641 124.382229,22.6230208 C123.057488,22.9234774 120.974777,23.0737058 118.134096,23.0737058 L114.528616,23.0737058 L114.528616,23.0600487 Z M114.528616,18.9014553 L116.843498,18.9014553 C120.76992,18.9014553 123.419402,18.4439418 124.778285,17.5220861 C126.137169,16.6002305 126.820025,14.9886902 126.820025,12.6942939 C126.820025,10.2360121 126.123512,8.50838633 124.730485,7.5114165 C123.337459,6.51444667 120.708463,6.0091332 116.850326,6.0091332 L114.535444,6.0091332 L114.535444,18.9014553 L114.528616,18.9014553 Z" id="Shape" fill="#575656" fill-rule="nonzero"></path>
            <polygon id="Path" fill="#575656" fill-rule="nonzero" points="134.870898 40.3499637 134.870898 1.82322564 139.452862 1.82322564 139.452862 16.6412018 159.924886 16.6412018 159.924886 1.82322564 164.581964 1.82322564 164.581964 40.3499637 159.924886 40.3499637 159.924886 21.0114805 139.452862 21.0114805 139.452862 40.3499637"></polygon>
            <polygon id="Path" fill="#575656" points="183.073706 10.4340404 170.584269 40.3499637 165.626734 40.3499637 183.073706 0.30728522 200.595792 40.3499637 195.631428 40.3499637"></polygon>
            <polygon id="Path" fill="#575656" fill-rule="nonzero" points="236.029192 41.79079 224.058726 14.1078059 219.217276 40.2885067 214.744569 40.2885067 222.556442 0.238999616 236.029192 32.1078913 249.501942 0.238999616 257.320644 40.2885067 252.847936 40.2885067 247.951859 14.1078059"></polygon>
            <path d="M260.687124,40.2885067 L260.687124,1.76859716 L268.082455,1.76859716 C273.55896,1.76859716 277.410268,2.04856814 279.650036,2.59485297 C281.889804,3.14796637 283.849601,4.07665059 285.529427,5.37407708 C287.74188,7.07438863 289.414878,9.25269942 290.555247,11.9021809 C291.695617,14.5516623 292.262387,17.6040289 292.262387,21.0592804 C292.262387,24.514532 291.695617,27.5395843 290.562076,30.1754086 C289.428535,32.811233 287.748709,34.9895438 285.522598,36.6898553 C283.835944,37.9872818 281.923947,38.915966 279.77295,39.4690794 C277.621954,40.0221928 274.275959,40.2953352 269.734966,40.2953352 L260.680295,40.2953352 L260.687124,40.2885067 Z M265.316888,35.9728565 L268.239512,35.9728565 C272.978533,35.9728565 276.256242,35.7679997 278.079467,35.3514575 C279.902693,34.9417438 281.418633,34.2315736 282.634117,33.2346037 C284.211515,31.9166916 285.413341,30.2232086 286.239597,28.1404976 C287.065853,26.0646153 287.475567,23.6814477 287.475567,20.9978234 C287.475567,18.3141991 287.065853,15.924203 286.253254,13.8824634 C285.440656,11.8407238 284.232,10.1472408 282.634117,8.81567155 C281.425462,7.79821604 279.882207,7.07438863 278.01801,6.64418932 C276.146985,6.21399001 272.889761,6.00230464 268.239512,6.00230464 L265.316888,6.00230464 L265.316888,35.9728565 Z" id="Shape" fill="#575656" fill-rule="nonzero"></path>
        </g>
    </g>
</svg>