<?xml version="1.0" encoding="UTF-8"?>
<svg width="60px" height="60px" viewBox="0 0 60 60" version="1.1" xmlns="http://www.w3.org/2000/svg" xmlns:xlink="http://www.w3.org/1999/xlink">
    <title>Measurement-task-icon</title>
    <g id="Design" stroke="none" stroke-width="1" fill="none" fill-rule="evenodd">
        <g id="Tasks" transform="translate(-68.000000, -830.000000)">
            <g id="Noti-holder-1-Copy-2" transform="translate(40.000000, 780.000000)">
                <g id="Content" transform="translate(28.000000, 44.000000)">
                    <g id="Measurement-task-icon" transform="translate(0.000000, 6.000000)">
                        <circle id="Oval" fill="#0078D3" cx="30" cy="30" r="30"></circle>
                        <g id="Rocket" transform="translate(15.000000, 15.000000)" fill="#FFFFFF" fill-rule="nonzero">
                            <path d="M24.28125,16.3125 C28.8125,10.90625 29.96875,3.375 29.84375,1.09375 C29.84375,0.84375 29.71875,0.625 29.5625,0.4375 C29.40625,0.28125 29.1875,0.15625 28.90625,0.15625 C26.625,0.03125 19.09375,1.15625 13.71875,5.6875 L12.46875,5.21875 C10.28125,4.40625 7.8125,5.0625 6.3125,6.84375 L2.84375,10.9375 C2.34375,11.5 2.59375,12.40625 3.3125,12.65625 L7.03125,14.03125 C6.21875,15.40625 5.65625,16.5625 5.28125,17.375 C4.96875,18.03125 5.125,18.8125 5.65625,19.34375 L10.65625,24.375 C11.15625,24.875 11.9375,25.03125 12.625,24.71875 C13.4375,24.34375 14.59375,23.78125 15.96875,22.96875 L17.3125,26.6875 C17.5625,27.40625 18.46875,27.625 19.03125,27.15625 L23.09375,23.6875 C24.875,22.1875 25.53125,19.71875 24.71875,17.53125 L24.28125,16.3125 Z M21.9375,12.40625 C20.75,13.59375 18.8125,13.59375 17.59375,12.40625 C16.40625,11.21875 16.40625,9.28125 17.59375,8.0625 C18.78125,6.875 20.71875,6.875 21.9375,8.0625 C23.125,9.28125 23.125,11.21875 21.9375,12.40625 Z" id="Shape"></path>
                            <path d="M8.5,25.65625 L6.25,27.875 C5.8125,28.3125 5.8125,29.0625 6.25,29.5 C6.6875,29.9375 7.4375,29.9375 7.875,29.5 L10.125,27.25 C10.5625,26.8125 10.5625,26.0625 10.125,25.625 C9.65625,25.1875 8.9375,25.1875 8.5,25.65625 Z" id="Path"></path>
                            <path d="M7.21875,22.78125 C6.78125,22.34375 6.03125,22.34375 5.59375,22.78125 L2.03125,26.375 C1.59375,26.8125 1.59375,27.5625 2.03125,28 C2.46875,28.4375 3.21875,28.4375 3.65625,28 L7.21875,24.375 C7.6875,23.9375 7.6875,23.21875 7.21875,22.78125 Z" id="Path"></path>
                            <path d="M4.375,21.53125 C4.8125,21.09375 4.8125,20.34375 4.375,19.90625 C3.9375,19.46875 3.1875,19.46875 2.75,19.90625 L0.5,22.15625 C0.0625,22.59375 0.0625,23.34375 0.5,23.78125 C0.9375,24.21875 1.6875,24.21875 2.125,23.78125 L4.375,21.53125 Z" id="Path"></path>
                        </g>
                    </g>
                </g>
            </g>
        </g>
    </g>
</svg>