<?xml version="1.0" encoding="UTF-8"?>
<svg width="60px" height="60px" viewBox="0 0 60 60" version="1.1" xmlns="http://www.w3.org/2000/svg" xmlns:xlink="http://www.w3.org/1999/xlink">
    <title>Medication-list-icon</title>
    <g id="Design" stroke="none" stroke-width="1" fill="none" fill-rule="evenodd">
        <g id="Medication-list" transform="translate(-68.000000, -572.000000)">
            <g id="Noti-holder-1" transform="translate(40.000000, 522.000000)">
                <g id="Content" transform="translate(28.000000, 44.000000)">
                    <g id="Medication-list-icon" transform="translate(0.000000, 6.000000)">
                        <circle id="Oval" fill="#0078D3" cx="30" cy="30" r="30"></circle>
                        <path d="M34.6971223,29.9510791 C33.7992806,29.9510791 32.9705036,30.123741 32.2107914,30.4345324 L32.2107914,23.3553957 C32.2107914,19.2805755 28.8956835,16 24.8553957,16 C20.8151079,16 17.5,19.3151079 17.5,23.3553957 L17.5,36.305036 C17.5,40.3798561 20.8151079,43.6604317 24.8553957,43.6604317 C26.823741,43.6604317 28.6194245,42.9007194 29.9316547,41.6230216 C31.1748201,42.8316547 32.8323741,43.5913669 34.6971223,43.5913669 C38.4611511,43.5913669 41.5,40.552518 41.5,36.7884892 C41.5,33.0244604 38.4611511,29.9510791 34.6971223,29.9510791 Z M24.8553957,41.8992806 C21.747482,41.8992806 19.2266187,39.3784173 19.2266187,36.2705036 L19.2266187,29.8129496 L30.4841727,29.8129496 L30.4841727,31.4359712 C28.9302158,32.6791367 27.928777,34.6129496 27.928777,36.7539568 C27.928777,38.0316547 28.2741007,39.2057554 28.8956835,40.2071942 C27.8597122,41.2776978 26.4093525,41.8992806 24.8553957,41.8992806 Z M29.6208633,36.7539568 C29.6208633,35.7179856 29.9316547,34.7510791 30.4496403,33.9568345 C30.8985612,33.3007194 31.4856115,32.7482014 32.176259,32.3338129 C32.9014388,31.9194245 33.7647482,31.6776978 34.6625899,31.6776978 C37.4597122,31.6776978 39.7388489,33.9568345 39.7388489,36.7539568 L29.6208633,36.7539568 Z" id="Shape" fill="#FFFFFF" fill-rule="nonzero"></path>
                    </g>
                </g>
            </g>
        </g>
    </g>
</svg>