<?xml version="1.0" encoding="UTF-8"?>
<svg width="40px" height="40px" viewBox="0 0 40 40" version="1.1" xmlns="http://www.w3.org/2000/svg" xmlns:xlink="http://www.w3.org/1999/xlink">
    <title>Reminder-set-icon</title>
    <g id="Page-1" stroke="none" stroke-width="1" fill="none" fill-rule="evenodd">
        <g id="Reminder-set-icon">
            <rect id="Rectangle" x="0" y="0" width="40" height="40"></rect>
            <g id="Group-3" transform="translate(3.000000, 0.000000)" fill="#F6861F" fill-rule="nonzero">
                <path d="M15.8569381,39.1456938 C14.4153982,38.7088634 13.4980548,37.3110067 13.4980548,35.8257839 L13.4980548,34.6900252 C13.4980548,34.6900252 13.4980548,34.6463422 13.5417378,34.6463422 L20.4436558,34.6463422 L20.4436558,35.8694669 C20.3999727,38.1409842 18.2158214,39.8883052 15.8569381,39.1456938 Z" id="Path"></path>
                <path d="M31.6265101,33.8600477 L2.2715173,33.8600477 C1.00470958,33.8600477 1.46056007e-13,32.8553381 1.46056007e-13,31.5885304 L1.46056007e-13,31.1953832 C1.46056007e-13,30.5838209 0.218415126,30.0159416 0.655245376,29.5791112 L3.71305713,26.6086656 L3.71305713,16.954717 C3.71305713,11.1011917 7.38243123,6.16500983 12.8864924,4.41768883 C12.9301754,4.41768883 12.9301754,4.37400581 12.9301754,4.33032279 L12.9301754,3.98085859 C12.9301754,2.67036783 13.5417378,1.40356011 14.6338134,0.704631706 C17.6042591,-1.2174214 20.880486,1.09777893 20.880486,3.98085859 L20.880486,4.33032279 C26.4282301,6.07764379 30.1412873,11.0138256 30.1412873,16.911034 L30.1412873,26.6086656 L33.199099,29.6227943 C33.6359293,30.0596246 33.8543444,30.6275039 33.8543444,31.2390662 L33.8543444,31.6322134 C33.8980274,32.8553381 32.8933179,33.8600477 31.6265101,33.8600477 Z" id="Path"></path>
            </g>
        </g>
    </g>
</svg>