<?xml version="1.0" encoding="UTF-8"?>
<svg width="41px" height="40px" viewBox="0 0 41 40" version="1.1" xmlns="http://www.w3.org/2000/svg" xmlns:xlink="http://www.w3.org/1999/xlink">
    <title>Medication-icon</title>
    <g id="Design" stroke="none" stroke-width="1" fill="none" fill-rule="evenodd">
        <g id="More-menu" transform="translate(-43.000000, -423.000000)">
            <g id="Menu-list" transform="translate(0.000000, 263.000000)">
                <g id="List-Copy" transform="translate(0.500000, 120.000000)">
                    <g id="Medication-icon" transform="translate(43.000000, 40.000000)">
                        <rect id="Rectangle" x="0" y="0" width="40" height="40"></rect>
                        <path d="M27.8689139,20.1747815 C26.5705368,20.1747815 25.372035,20.4244694 24.2734082,20.8739076 L24.2734082,10.6367041 C24.2734082,4.74406991 19.4794007,0 13.6367041,0 C7.79400749,0 3,4.79400749 3,10.6367041 L3,29.3632959 C3,35.2559301 7.79400749,40 13.6367041,40 C16.4831461,40 19.0799001,38.9013733 20.9775281,37.0536829 C22.7752809,38.8014981 25.1722846,39.9001248 27.8689139,39.9001248 C33.3121099,39.9001248 37.7066167,35.505618 37.7066167,30.062422 C37.7066167,24.619226 33.3121099,20.1747815 27.8689139,20.1747815 Z M13.6367041,37.4531835 C9.1423221,37.4531835 5.4968789,33.8077403 5.4968789,29.3133583 L5.4968789,19.9750312 L21.7765293,19.9750312 L21.7765293,22.3220974 C19.5293383,24.1198502 18.0811486,26.9163546 18.0811486,30.0124844 C18.0811486,31.8601748 18.5805243,33.5580524 19.4794007,35.0062422 C17.9812734,36.5543071 15.8838951,37.4531835 13.6367041,37.4531835 Z M20.5280899,30.0124844 C20.5280899,28.5143571 20.9775281,27.1161049 21.7265918,25.9675406 C22.3757803,25.0187266 23.2247191,24.2197253 24.2234707,23.6204744 C25.2721598,23.0212235 26.5205993,22.6716604 27.8189763,22.6716604 C31.8639201,22.6716604 35.1598002,25.9675406 35.1598002,30.0124844 L20.5280899,30.0124844 Z" id="Shape" fill="#212121" fill-rule="nonzero"></path>
                    </g>
                </g>
            </g>
        </g>
    </g>
</svg>