<?xml version="1.0" encoding="UTF-8"?>
<svg width="40px" height="40px" viewBox="0 0 40 40" version="1.1" xmlns="http://www.w3.org/2000/svg" xmlns:xlink="http://www.w3.org/1999/xlink">
    <!-- Generator: Sketch 64 (93537) - https://sketch.com -->
    <title>Shape</title>
    <desc>Created with Sketch.</desc>
    <g id="Symbols" stroke="none" stroke-width="1" fill="none" fill-rule="evenodd">
        <g id="Activity" transform="translate(-55.000000, -16.000000)" fill="#B0B0B0" fill-rule="nonzero">
            <g id="Measurements">
                <path d="M75,16 C63.9669421,16 55,24.9669421 55,36 C55,47.0330579 63.9669421,55.9586777 75,55.9586777 C86.0330579,55.9586777 95,46.9917355 95,36 C95,25.0082645 86.0330579,16 75,16 Z M65.1239669,39.0578512 C63.4297521,39.0578512 62.0247934,37.6942149 62.0247934,35.9586777 C62.0247934,34.2231405 63.3884298,32.8595041 65.1239669,32.8595041 C66.8595041,32.8595041 68.2231405,34.2231405 68.2231405,35.9586777 C68.2231405,37.6942149 66.8181818,39.0578512 65.1239669,39.0578512 Z M75,39.0578512 C73.3057851,39.0578512 71.9008264,37.6942149 71.9008264,35.9586777 C71.9008264,34.2231405 73.2644628,32.8595041 75,32.8595041 C76.7355372,32.8595041 78.0991736,34.2231405 78.0991736,35.9586777 C78.0991736,37.6942149 76.6942149,39.0578512 75,39.0578512 Z M84.8760331,39.0578512 C83.1818182,39.0578512 81.7768595,37.6942149 81.7768595,35.9586777 C81.7768595,34.2231405 83.1404959,32.8595041 84.8760331,32.8595041 C86.6115702,32.8595041 87.9752066,34.2231405 87.9752066,35.9586777 C87.9752066,37.6942149 86.6115702,39.0578512 84.8760331,39.0578512 Z" id="Shape"></path>
            </g>
        </g>
    </g>
</svg>