<?xml version="1.0" encoding="UTF-8"?>
<svg width="20px" height="20px" viewBox="0 0 20 20" version="1.1" xmlns="http://www.w3.org/2000/svg" xmlns:xlink="http://www.w3.org/1999/xlink">
    <title>More-blue-tab</title>
    <g id="Provider" stroke="none" stroke-width="1" fill="none" fill-rule="evenodd">
        <g id="Patient-Overview-pro" transform="translate(-873.000000, -311.000000)">
            <g id="Patient-info-card" transform="translate(162.000000, 126.000000)">
                <g id="Items" transform="translate(0.000000, 179.000000)">
                    <g id="More-blue-tab" transform="translate(711.000000, 6.000000)">
                        <rect id="Rectangle" x="0" y="0" width="20" height="20"></rect>
                        <g id="Group-6" transform="translate(0.000000, 8.000000)" fill="#0078D3">
                            <path d="M2.38397966,4.77288998 C1.08073744,4.77288998 4.04121181e-14,3.72285419 4.04121181e-14,2.38644499 C4.04121181e-14,1.0500358 1.04895105,6.43929354e-14 2.38397966,6.43929354e-14 C3.71900826,6.43929354e-14 4.76795931,1.0500358 4.76795931,2.38644499 C4.76795931,3.72285419 3.68722187,4.77288998 2.38397966,4.77288998 Z" id="Path"></path>
                            <path d="M9.98092816,4.77288998 C8.67768595,4.77288998 7.59694851,3.72285419 7.59694851,2.38644499 C7.59694851,1.0500358 8.64589955,6.43929354e-14 9.98092816,6.43929354e-14 C11.3159568,6.43929354e-14 12.3649078,1.0500358 12.3649078,2.38644499 C12.3649078,3.72285419 11.2841704,4.77288998 9.98092816,4.77288998 Z" id="Path"></path>
                            <path d="M17.5778767,4.77288998 C16.2746345,4.77288998 15.193897,3.72285419 15.193897,2.38644499 C15.193897,1.0500358 16.2428481,6.43929354e-14 17.5778767,6.43929354e-14 C18.9129053,6.43929354e-14 19.9618563,1.0500358 19.9618563,2.38644499 C19.9618563,3.72285419 18.9129053,4.77288998 17.5778767,4.77288998 Z" id="Path"></path>
                        </g>
                    </g>
                </g>
            </g>
        </g>
    </g>
</svg>