<?xml version="1.0" encoding="UTF-8"?>
<svg width="750px" height="1127px" viewBox="0 0 750 1127" version="1.1" xmlns="http://www.w3.org/2000/svg" xmlns:xlink="http://www.w3.org/1999/xlink">
    <title>No-internet</title>
    <defs>
        <path d="M204.812777,46.0444707 L204.82652,46.054627 C205.373133,46.4981401 205.373133,47.3771701 204.82652,48.691717 C191.892043,105.767141 157.9147,134.304852 102.894492,134.304852 C47.874283,134.304852 14.1596705,105.767141 1.75065401,48.691717 C1.67232434,47.8391612 1.69114483,47.0864501 1.80711549,46.4335836 C3.1378773,58.5412548 28.206176,34.6736438 51.3775945,42.7496916 C56.7153133,44.6100729 61.4707552,47.5783108 66.1930538,50.7887517 L67.1067807,51.4129193 C68.7817286,52.5619188 70.4569641,53.7343824 72.1570215,54.8916343 L73.0869346,55.5211215 C81.4809622,61.1687451 90.5806753,66.2803167 103.288587,66.2803167 C139.099457,66.2803167 170.580402,45.2836966 188.657868,39.9743376 C198.604187,37.0530997 204.492925,53.4476944 204.812777,46.0444707 Z" id="path-1"></path>
        <polygon id="path-3" points="99.7872788 83.7225054 132.910236 88.4933545 163.664028 72.5017049 189.290138 68.1796028 203.075866 45.3496904 184.761657 33.2488599 167.428821 14.332712 133.680014 9.29601128 101.537933 0 67.5901994 9.57344971 33.7502544 13.1074802 16.4726553 32.2833657 0 45.3496904 8.15637896 63.1876047 30.5919581 69.8177218 63.2005546 87.3556158"></polygon>
    </defs>
    <g id="Design" stroke="none" stroke-width="1" fill="none" fill-rule="evenodd">
        <g id="No-internet" transform="translate(0.000000, -88.000000)">
            <g transform="translate(0.000000, 88.000000)">
                <g id="umbrella" transform="translate(23.097965, 912.187857)">
                    <path d="M220.406581,135.910424 C213.078085,155.182813 178.52225,168.849338 139.688322,167.535668 C100.854394,166.221998 72.9769549,157.405854 66.5253828,137.685209 C62.2243347,124.538113 90.7228678,115.638939 152.020982,110.987689 C200.948176,114.647677 223.743376,122.955255 220.406581,135.910424 Z" id="shadow" fill="#F1F1F1" style="mix-blend-mode: multiply;" transform="translate(143.414260, 139.305282) scale(-1, 1) translate(-143.414260, -139.305282) "></path>
                    <g id="umbrella-" transform="translate(117.213564, 92.496390) rotate(15.000000) translate(-117.213564, -92.496390) translate(13.924977, 25.343964)">
                        <g id="Path-67">
                            <mask id="mask-2" fill="white">
                                <use xlink:href="#path-1"></use>
                            </mask>
                            <use id="Mask" fill="#686B89" xlink:href="#path-1"></use>
                            <path d="M10.1285942,64.5795118 C27.472854,108.759033 56.1982033,131.73812 96.304642,133.516772 C71.2099211,121.448822 66.2922775,103.786389 63.6414413,81.2574809 C61.8742172,66.2382086 44.0366015,60.6788856 10.1285942,64.5795118 Z" fill="#606484" mask="url(#mask-2)"></path>
                            <path d="M106.422272,64.5795118 C123.766532,109.921845 152.491882,133.482338 192.59832,135.260991 C167.503599,123.193041 162.585956,103.786389 159.93512,81.2574809 C158.167896,66.2382086 140.33028,60.6788856 106.422272,64.5795118 Z" id="Path-67-Copy" fill="#606484" mask="url(#mask-2)" transform="translate(149.510296, 99.317121) scale(-1, 1) translate(-149.510296, -99.317121) "></path>
                        </g>
                        <g id="Path-68" transform="translate(1.750654, 1.744219)">
                            <mask id="mask-4" fill="white">
                                <use xlink:href="#path-3"></use>
                            </mask>
                            <use id="Mask" fill="#373855" xlink:href="#path-3"></use>
                            <path d="M14.313166,25.3250748 C30.2211059,61.4499779 56.2583806,86.3335589 92.4249901,99.9758179 C78.9966465,84.8248087 68.4774273,36.9606563 69.4726035,9.4249695 C70.1360542,-8.93215501 51.7495751,-3.63211992 14.313166,25.3250748 Z" fill="#32334D" mask="url(#mask-4)"></path>
                            <path d="M109.293317,22.069302 C127.461818,60.3647203 154.629373,86.3335589 190.795982,99.9758179 C177.367639,84.8248087 166.848419,36.9606563 167.843596,9.4249695 C168.507046,-8.93215501 148.990287,-4.71737751 109.293317,22.069302 Z" id="Path-68-Copy" fill="#32334D" mask="url(#mask-4)" transform="translate(150.044650, 49.101884) scale(-1, 1) translate(-150.044650, -49.101884) "></path>
                        </g>
                    </g>
                </g>
                <g id="Rain" transform="translate(48.869681, 0.000000)" fill="#F1F1F1">
                    <g id="Group-14-Copy-2" style="mix-blend-mode: multiply;" transform="translate(312.019550, 403.034053) rotate(-22.000000) translate(-312.019550, -403.034053) translate(119.532847, 46.983521)">
                        <path d="M1.95428584,72.0225204 L3.71741066,119.388612 C3.75743604,120.463887 2.91819964,121.368018 1.8429237,121.408043 C1.81877669,121.408942 1.79461506,121.409392 1.77045134,121.409392 C0.702404915,121.409392 -0.163417781,120.543569 -0.163417781,119.475522 C-0.163417781,119.446746 -0.162775495,119.417974 -0.161491404,119.389226 L1.95428584,72.0225204 L1.95428584,72.0225204 Z" id="Rectangle-3"></path>
                        <path d="M1.95428584,135.813896 L3.71741066,183.179987 C3.75743604,184.255263 2.91819964,185.159393 1.8429237,185.199418 C1.81877669,185.200317 1.79461506,185.200767 1.77045134,185.200767 C0.702404915,185.200767 -0.163417781,184.334944 -0.163417781,183.266898 C-0.163417781,183.238122 -0.162775495,183.209349 -0.161491404,183.180602 L1.95428584,135.813896 L1.95428584,135.813896 Z" id="Rectangle-3-Copy"></path>
                        <path d="M1.95428584,197.547485 L3.71741066,244.913576 C3.75743604,245.988852 2.91819964,246.892982 1.8429237,246.933007 C1.81877669,246.933906 1.79461506,246.934356 1.77045134,246.934356 C0.702404915,246.934356 -0.163417781,246.068533 -0.163417781,245.000487 C-0.163417781,244.97171 -0.162775495,244.942938 -0.161491404,244.914191 L1.95428584,197.547485 L1.95428584,197.547485 Z" id="Rectangle-3-Copy-2"></path>
                        <path d="M1.95428584,259.281073 L3.71741066,306.647165 C3.75743604,307.722441 2.91819964,308.626571 1.8429237,308.666596 C1.81877669,308.667495 1.79461506,308.667945 1.77045134,308.667945 C0.702404915,308.667945 -0.163417781,307.802122 -0.163417781,306.734076 C-0.163417781,306.705299 -0.162775495,306.676527 -0.161491404,306.647779 L1.95428584,259.281073 L1.95428584,259.281073 Z" id="Rectangle-3-Copy-3"></path>
                        <path d="M1.95428584,329.245808 L3.71741066,376.611899 C3.75743604,377.687175 2.91819964,378.591305 1.8429237,378.63133 C1.81877669,378.632229 1.79461506,378.632679 1.77045134,378.632679 C0.702404915,378.632679 -0.163417781,377.766856 -0.163417781,376.69881 C-0.163417781,376.670034 -0.162775495,376.641261 -0.161491404,376.612514 L1.95428584,329.245808 L1.95428584,329.245808 Z" id="Rectangle-3-Copy-4"></path>
                        <path d="M1.95428584,397.152755 L3.71741066,444.518847 C3.75743604,445.594122 2.91819964,446.498253 1.8429237,446.538278 C1.81877669,446.539177 1.79461506,446.539627 1.77045134,446.539627 C0.702404915,446.539627 -0.163417781,445.673804 -0.163417781,444.605757 C-0.163417781,444.576981 -0.162775495,444.548209 -0.161491404,444.519461 L1.95428584,397.152755 L1.95428584,397.152755 Z" id="Rectangle-3-Copy-5"></path>
                        <path d="M1.95428584,463.001917 L3.71741066,510.368008 C3.75743604,511.443284 2.91819964,512.347414 1.8429237,512.38744 C1.81877669,512.388339 1.79461506,512.388788 1.77045134,512.388788 C0.702404915,512.388788 -0.163417781,511.522965 -0.163417781,510.454919 C-0.163417781,510.426143 -0.162775495,510.39737 -0.161491404,510.368623 L1.95428584,463.001917 L1.95428584,463.001917 Z" id="Rectangle-3-Copy-6"></path>
                        <path d="M1.95428584,537.082224 L3.71741066,584.448315 C3.75743604,585.523591 2.91819964,586.427721 1.8429237,586.467746 C1.81877669,586.468645 1.79461506,586.469095 1.77045134,586.469095 C0.702404915,586.469095 -0.163417781,585.603272 -0.163417781,584.535226 C-0.163417781,584.50645 -0.162775495,584.477677 -0.161491404,584.44893 L1.95428584,537.082224 L1.95428584,537.082224 Z" id="Rectangle-3-Copy-7"></path>
                        <path d="M1.95428584,609.104744 L3.71741066,656.470835 C3.75743604,657.546111 2.91819964,658.450241 1.8429237,658.490267 C1.81877669,658.491166 1.79461506,658.491615 1.77045134,658.491615 C0.702404915,658.491615 -0.163417781,657.625793 -0.163417781,656.557746 C-0.163417781,656.52897 -0.162775495,656.500197 -0.161491404,656.47145 L1.95428584,609.104744 L1.95428584,609.104744 Z" id="Rectangle-3-Copy-8"></path>
                        <path d="M38.9944392,125.524964 L40.757564,172.891055 C40.7975894,173.966331 39.958353,174.870462 38.8830771,174.910487 C38.85893,174.911386 38.8347684,174.911835 38.8106047,174.911835 C37.7425583,174.911835 36.8767356,174.046013 36.8767356,172.977966 C36.8767356,172.94919 36.8773779,172.920418 36.878662,172.89167 L38.9944392,125.524964 L38.9944392,125.524964 Z" id="Rectangle-3"></path>
                        <path d="M38.9944392,189.316339 L40.757564,236.68243 C40.7975894,237.757706 39.958353,238.661837 38.8830771,238.701862 C38.85893,238.702761 38.8347684,238.703211 38.8106047,238.703211 C37.7425583,238.703211 36.8767356,237.837388 36.8767356,236.769341 C36.8767356,236.740565 36.8773779,236.711793 36.878662,236.683045 L38.9944392,189.316339 L38.9944392,189.316339 Z" id="Rectangle-3-Copy"></path>
                        <path d="M38.9944392,251.049928 L40.757564,298.416019 C40.7975894,299.491295 39.958353,300.395426 38.8830771,300.435451 C38.85893,300.43635 38.8347684,300.436799 38.8106047,300.436799 C37.7425583,300.436799 36.8767356,299.570977 36.8767356,298.50293 C36.8767356,298.474154 36.8773779,298.445382 36.878662,298.416634 L38.9944392,251.049928 L38.9944392,251.049928 Z" id="Rectangle-3-Copy-2"></path>
                        <path d="M38.9944392,312.783517 L40.757564,360.149608 C40.7975894,361.224884 39.958353,362.129015 38.8830771,362.16904 C38.85893,362.169939 38.8347684,362.170388 38.8106047,362.170388 C37.7425583,362.170388 36.8767356,361.304566 36.8767356,360.236519 C36.8767356,360.207743 36.8773779,360.178971 36.878662,360.150223 L38.9944392,312.783517 L38.9944392,312.783517 Z" id="Rectangle-3-Copy-3"></path>
                        <path d="M38.9944392,382.748251 L40.757564,430.114342 C40.7975894,431.189618 39.958353,432.093749 38.8830771,432.133774 C38.85893,432.134673 38.8347684,432.135122 38.8106047,432.135122 C37.7425583,432.135122 36.8767356,431.2693 36.8767356,430.201253 C36.8767356,430.172477 36.8773779,430.143705 36.878662,430.114957 L38.9944392,382.748251 L38.9944392,382.748251 Z" id="Rectangle-3-Copy-4"></path>
                        <path d="M38.9944392,450.655199 L40.757564,498.02129 C40.7975894,499.096566 39.958353,500.000697 38.8830771,500.040722 C38.85893,500.041621 38.8347684,500.04207 38.8106047,500.04207 C37.7425583,500.04207 36.8767356,499.176248 36.8767356,498.108201 C36.8767356,498.079425 36.8773779,498.050653 36.878662,498.021905 L38.9944392,450.655199 L38.9944392,450.655199 Z" id="Rectangle-3-Copy-5"></path>
                        <path d="M38.9944392,516.504361 L40.757564,563.870452 C40.7975894,564.945728 39.958353,565.849858 38.8830771,565.889883 C38.85893,565.890782 38.8347684,565.891232 38.8106047,565.891232 C37.7425583,565.891232 36.8767356,565.025409 36.8767356,563.957363 C36.8767356,563.928587 36.8773779,563.899814 36.878662,563.871067 L38.9944392,516.504361 L38.9944392,516.504361 Z" id="Rectangle-3-Copy-6"></path>
                        <path d="M38.9944392,590.584667 L40.757564,637.950758 C40.7975894,639.026034 39.958353,639.930165 38.8830771,639.97019 C38.85893,639.971089 38.8347684,639.971539 38.8106047,639.971539 C37.7425583,639.971539 36.8767356,639.105716 36.8767356,638.037669 C36.8767356,638.008893 36.8773779,637.980121 36.878662,637.951373 L38.9944392,590.584667 L38.9944392,590.584667 Z" id="Rectangle-3-Copy-7"></path>
                        <path d="M38.9944392,662.607188 L40.757564,709.973279 C40.7975894,711.048555 39.958353,711.952685 38.8830771,711.992711 C38.85893,711.993609 38.8347684,711.994059 38.8106047,711.994059 C37.7425583,711.994059 36.8767356,711.128236 36.8767356,710.06019 C36.8767356,710.031414 36.8773779,710.002641 36.878662,709.973894 L38.9944392,662.607188 L38.9944392,662.607188 Z" id="Rectangle-3-Copy-8"></path>
                        <path d="M76.0345926,84.3692382 L77.7977174,131.735329 C77.8377427,132.810605 76.9985063,133.714736 75.9232304,133.754761 C75.8990834,133.75566 75.8749218,133.756109 75.850758,133.756109 C74.7827116,133.756109 73.9168889,132.890287 73.9168889,131.82224 C73.9168889,131.793464 73.9175312,131.764692 73.9188153,131.735944 L76.0345926,84.3692382 L76.0345926,84.3692382 Z" id="Rectangle-3"></path>
                        <path d="M76.0345926,148.160613 L77.7977174,195.526705 C77.8377427,196.60198 76.9985063,197.506111 75.9232304,197.546136 C75.8990834,197.547035 75.8749218,197.547485 75.850758,197.547485 C74.7827116,197.547485 73.9168889,196.681662 73.9168889,195.613615 C73.9168889,195.584839 73.9175312,195.556067 73.9188153,195.527319 L76.0345926,148.160613 L76.0345926,148.160613 Z" id="Rectangle-3-Copy"></path>
                        <path d="M76.0345926,209.894202 L77.7977174,257.260293 C77.8377427,258.335569 76.9985063,259.2397 75.9232304,259.279725 C75.8990834,259.280624 75.8749218,259.281073 75.850758,259.281073 C74.7827116,259.281073 73.9168889,258.415251 73.9168889,257.347204 C73.9168889,257.318428 73.9175312,257.289656 73.9188153,257.260908 L76.0345926,209.894202 L76.0345926,209.894202 Z" id="Rectangle-3-Copy-2"></path>
                        <path d="M76.0345926,271.627791 L77.7977174,318.993882 C77.8377427,320.069158 76.9985063,320.973289 75.9232304,321.013314 C75.8990834,321.014213 75.8749218,321.014662 75.850758,321.014662 C74.7827116,321.014662 73.9168889,320.14884 73.9168889,319.080793 C73.9168889,319.052017 73.9175312,319.023245 73.9188153,318.994497 L76.0345926,271.627791 L76.0345926,271.627791 Z" id="Rectangle-3-Copy-3"></path>
                        <path d="M76.0345926,341.592525 L77.7977174,388.958616 C77.8377427,390.033892 76.9985063,390.938023 75.9232304,390.978048 C75.8990834,390.978947 75.8749218,390.979397 75.850758,390.979397 C74.7827116,390.979397 73.9168889,390.113574 73.9168889,389.045527 C73.9168889,389.016751 73.9175312,388.987979 73.9188153,388.959231 L76.0345926,341.592525 L76.0345926,341.592525 Z" id="Rectangle-3-Copy-4"></path>
                        <path d="M76.0345926,409.499473 L77.7977174,456.865564 C77.8377427,457.94084 76.9985063,458.844971 75.9232304,458.884996 C75.8990834,458.885895 75.8749218,458.886344 75.850758,458.886344 C74.7827116,458.886344 73.9168889,458.020522 73.9168889,456.952475 C73.9168889,456.923699 73.9175312,456.894927 73.9188153,456.866179 L76.0345926,409.499473 L76.0345926,409.499473 Z" id="Rectangle-3-Copy-5"></path>
                        <path d="M76.0345926,475.348635 L77.7977174,522.714726 C77.8377427,523.790002 76.9985063,524.694132 75.9232304,524.734158 C75.8990834,524.735056 75.8749218,524.735506 75.850758,524.735506 C74.7827116,524.735506 73.9168889,523.869683 73.9168889,522.801637 C73.9168889,522.772861 73.9175312,522.744088 73.9188153,522.715341 L76.0345926,475.348635 L76.0345926,475.348635 Z" id="Rectangle-3-Copy-6"></path>
                        <path d="M76.0345926,549.428941 L77.7977174,596.795033 C77.8377427,597.870308 76.9985063,598.774439 75.9232304,598.814464 C75.8990834,598.815363 75.8749218,598.815813 75.850758,598.815813 C74.7827116,598.815813 73.9168889,597.94999 73.9168889,596.881943 C73.9168889,596.853167 73.9175312,596.824395 73.9188153,596.795647 L76.0345926,549.428941 L76.0345926,549.428941 Z" id="Rectangle-3-Copy-7"></path>
                        <path d="M76.0345926,621.451462 L77.7977174,668.817553 C77.8377427,669.892829 76.9985063,670.796959 75.9232304,670.836985 C75.8990834,670.837883 75.8749218,670.838333 75.850758,670.838333 C74.7827116,670.838333 73.9168889,669.97251 73.9168889,668.904464 C73.9168889,668.875688 73.9175312,668.846915 73.9188153,668.818168 L76.0345926,621.451462 L76.0345926,621.451462 Z" id="Rectangle-3-Copy-8"></path>
                        <path d="M117.190319,28.8090082 L118.953443,76.1750993 C118.993469,77.2503752 118.154232,78.1545056 117.078956,78.1945309 C117.054809,78.1954298 117.030648,78.1958793 117.006484,78.1958793 C115.938438,78.1958793 115.072615,77.3300566 115.072615,76.2620102 C115.072615,76.2332341 115.073257,76.2044616 115.074541,76.1757141 L117.190319,28.8090082 L117.190319,28.8090082 Z" id="Rectangle-3"></path>
                        <path d="M117.190319,92.6003834 L118.953443,139.966474 C118.993469,141.04175 118.154232,141.945881 117.078956,141.985906 C117.054809,141.986805 117.030648,141.987255 117.006484,141.987255 C115.938438,141.987255 115.072615,141.121432 115.072615,140.053385 C115.072615,140.024609 115.073257,139.995837 115.074541,139.967089 L117.190319,92.6003834 L117.190319,92.6003834 Z" id="Rectangle-3-Copy"></path>
                        <path d="M117.190319,154.333972 L118.953443,201.700063 C118.993469,202.775339 118.154232,203.67947 117.078956,203.719495 C117.054809,203.720394 117.030648,203.720843 117.006484,203.720843 C115.938438,203.720843 115.072615,202.855021 115.072615,201.786974 C115.072615,201.758198 115.073257,201.729426 115.074541,201.700678 L117.190319,154.333972 L117.190319,154.333972 Z" id="Rectangle-3-Copy-2"></path>
                        <path d="M117.190319,216.067561 L118.953443,263.433652 C118.993469,264.508928 118.154232,265.413059 117.078956,265.453084 C117.054809,265.453983 117.030648,265.454432 117.006484,265.454432 C115.938438,265.454432 115.072615,264.58861 115.072615,263.520563 C115.072615,263.491787 115.073257,263.463015 115.074541,263.434267 L117.190319,216.067561 L117.190319,216.067561 Z" id="Rectangle-3-Copy-3"></path>
                        <path d="M117.190319,286.032295 L118.953443,333.398386 C118.993469,334.473662 118.154232,335.377793 117.078956,335.417818 C117.054809,335.418717 117.030648,335.419166 117.006484,335.419166 C115.938438,335.419166 115.072615,334.553344 115.072615,333.485297 C115.072615,333.456521 115.073257,333.427749 115.074541,333.399001 L117.190319,286.032295 L117.190319,286.032295 Z" id="Rectangle-3-Copy-4"></path>
                        <path d="M117.190319,353.939243 L118.953443,401.305334 C118.993469,402.38061 118.154232,403.284741 117.078956,403.324766 C117.054809,403.325665 117.030648,403.326114 117.006484,403.326114 C115.938438,403.326114 115.072615,402.460292 115.072615,401.392245 C115.072615,401.363469 115.073257,401.334697 115.074541,401.305949 L117.190319,353.939243 L117.190319,353.939243 Z" id="Rectangle-3-Copy-5"></path>
                        <path d="M117.190319,419.788405 L118.953443,467.154496 C118.993469,468.229772 118.154232,469.133902 117.078956,469.173927 C117.054809,469.174826 117.030648,469.175276 117.006484,469.175276 C115.938438,469.175276 115.072615,468.309453 115.072615,467.241407 C115.072615,467.212631 115.073257,467.183858 115.074541,467.155111 L117.190319,419.788405 L117.190319,419.788405 Z" id="Rectangle-3-Copy-6"></path>
                        <path d="M117.190319,493.868711 L118.953443,541.234803 C118.993469,542.310078 118.154232,543.214209 117.078956,543.254234 C117.054809,543.255133 117.030648,543.255583 117.006484,543.255583 C115.938438,543.255583 115.072615,542.38976 115.072615,541.321713 C115.072615,541.292937 115.073257,541.264165 115.074541,541.235417 L117.190319,493.868711 L117.190319,493.868711 Z" id="Rectangle-3-Copy-7"></path>
                        <path d="M117.190319,565.891232 L118.953443,613.257323 C118.993469,614.332599 118.154232,615.236729 117.078956,615.276755 C117.054809,615.277653 117.030648,615.278103 117.006484,615.278103 C115.938438,615.278103 115.072615,614.41228 115.072615,613.344234 C115.072615,613.315458 115.073257,613.286685 115.074541,613.257938 L117.190319,565.891232 L117.190319,565.891232 Z" id="Rectangle-3-Copy-8"></path>
                        <path d="M154.230472,0 L155.993597,47.3660911 C156.033622,48.441367 155.194386,49.3454974 154.11911,49.3855228 C154.094963,49.3864216 154.070801,49.3868711 154.046637,49.3868711 C152.978591,49.3868711 152.112768,48.5210484 152.112768,47.453002 C152.112768,47.4242259 152.113411,47.3954534 152.114695,47.366706 L154.230472,0 L154.230472,0 Z" id="Rectangle-3"></path>
                        <path d="M154.230472,63.7913752 L155.993597,111.157466 C156.033622,112.232742 155.194386,113.136873 154.11911,113.176898 C154.094963,113.177797 154.070801,113.178246 154.046637,113.178246 C152.978591,113.178246 152.112768,112.312424 152.112768,111.244377 C152.112768,111.215601 152.113411,111.186829 152.114695,111.158081 L154.230472,63.7913752 L154.230472,63.7913752 Z" id="Rectangle-3-Copy"></path>
                        <path d="M154.230472,125.524964 L155.993597,172.891055 C156.033622,173.966331 155.194386,174.870462 154.11911,174.910487 C154.094963,174.911386 154.070801,174.911835 154.046637,174.911835 C152.978591,174.911835 152.112768,174.046013 152.112768,172.977966 C152.112768,172.94919 152.113411,172.920418 152.114695,172.89167 L154.230472,125.524964 L154.230472,125.524964 Z" id="Rectangle-3-Copy-2"></path>
                        <path d="M154.230472,187.258553 L155.993597,234.624644 C156.033622,235.69992 155.194386,236.60405 154.11911,236.644076 C154.094963,236.644975 154.070801,236.645424 154.046637,236.645424 C152.978591,236.645424 152.112768,235.779602 152.112768,234.711555 C152.112768,234.682779 152.113411,234.654006 152.114695,234.625259 L154.230472,187.258553 L154.230472,187.258553 Z" id="Rectangle-3-Copy-3"></path>
                        <path d="M154.230472,257.223287 L155.993597,304.589378 C156.033622,305.664654 155.194386,306.568785 154.11911,306.60881 C154.094963,306.609709 154.070801,306.610158 154.046637,306.610158 C152.978591,306.610158 152.112768,305.744336 152.112768,304.676289 C152.112768,304.647513 152.113411,304.618741 152.114695,304.589993 L154.230472,257.223287 L154.230472,257.223287 Z" id="Rectangle-3-Copy-4"></path>
                        <path d="M154.230472,325.130235 L155.993597,372.496326 C156.033622,373.571602 155.194386,374.475732 154.11911,374.515758 C154.094963,374.516657 154.070801,374.517106 154.046637,374.517106 C152.978591,374.517106 152.112768,373.651283 152.112768,372.583237 C152.112768,372.554461 152.113411,372.525688 152.114695,372.496941 L154.230472,325.130235 L154.230472,325.130235 Z" id="Rectangle-3-Copy-5"></path>
                        <path d="M154.230472,390.979397 L155.993597,438.345488 C156.033622,439.420764 155.194386,440.324894 154.11911,440.364919 C154.094963,440.365818 154.070801,440.366268 154.046637,440.366268 C152.978591,440.366268 152.112768,439.500445 152.112768,438.432399 C152.112768,438.403622 152.113411,438.37485 152.114695,438.346102 L154.230472,390.979397 L154.230472,390.979397 Z" id="Rectangle-3-Copy-6"></path>
                        <path d="M154.230472,465.059703 L155.993597,512.425794 C156.033622,513.50107 155.194386,514.405201 154.11911,514.445226 C154.094963,514.446125 154.070801,514.446574 154.046637,514.446574 C152.978591,514.446574 152.112768,513.580752 152.112768,512.512705 C152.112768,512.483929 152.113411,512.455157 152.114695,512.426409 L154.230472,465.059703 L154.230472,465.059703 Z" id="Rectangle-3-Copy-7"></path>
                        <path d="M154.230472,537.082224 L155.993597,584.448315 C156.033622,585.523591 155.194386,586.427721 154.11911,586.467746 C154.094963,586.468645 154.070801,586.469095 154.046637,586.469095 C152.978591,586.469095 152.112768,585.603272 152.112768,584.535226 C152.112768,584.50645 152.113411,584.477677 152.114695,584.44893 L154.230472,537.082224 L154.230472,537.082224 Z" id="Rectangle-3-Copy-8"></path>
                        <path d="M191.270625,84.3692382 L193.03375,131.735329 C193.073775,132.810605 192.234539,133.714736 191.159263,133.754761 C191.135116,133.75566 191.110954,133.756109 191.086791,133.756109 C190.018744,133.756109 189.152922,132.890287 189.152922,131.82224 C189.152922,131.793464 189.153564,131.764692 189.154848,131.735944 L191.270625,84.3692382 L191.270625,84.3692382 Z" id="Rectangle-3"></path>
                        <path d="M191.270625,148.160613 L193.03375,195.526705 C193.073775,196.60198 192.234539,197.506111 191.159263,197.546136 C191.135116,197.547035 191.110954,197.547485 191.086791,197.547485 C190.018744,197.547485 189.152922,196.681662 189.152922,195.613615 C189.152922,195.584839 189.153564,195.556067 189.154848,195.527319 L191.270625,148.160613 L191.270625,148.160613 Z" id="Rectangle-3-Copy"></path>
                        <path d="M191.270625,209.894202 L193.03375,257.260293 C193.073775,258.335569 192.234539,259.2397 191.159263,259.279725 C191.135116,259.280624 191.110954,259.281073 191.086791,259.281073 C190.018744,259.281073 189.152922,258.415251 189.152922,257.347204 C189.152922,257.318428 189.153564,257.289656 189.154848,257.260908 L191.270625,209.894202 L191.270625,209.894202 Z" id="Rectangle-3-Copy-2"></path>
                        <path d="M191.270625,271.627791 L193.03375,318.993882 C193.073775,320.069158 192.234539,320.973289 191.159263,321.013314 C191.135116,321.014213 191.110954,321.014662 191.086791,321.014662 C190.018744,321.014662 189.152922,320.14884 189.152922,319.080793 C189.152922,319.052017 189.153564,319.023245 189.154848,318.994497 L191.270625,271.627791 L191.270625,271.627791 Z" id="Rectangle-3-Copy-3"></path>
                        <path d="M191.270625,341.592525 L193.03375,388.958616 C193.073775,390.033892 192.234539,390.938023 191.159263,390.978048 C191.135116,390.978947 191.110954,390.979397 191.086791,390.979397 C190.018744,390.979397 189.152922,390.113574 189.152922,389.045527 C189.152922,389.016751 189.153564,388.987979 189.154848,388.959231 L191.270625,341.592525 L191.270625,341.592525 Z" id="Rectangle-3-Copy-4"></path>
                        <path d="M191.270625,409.499473 L193.03375,456.865564 C193.073775,457.94084 192.234539,458.844971 191.159263,458.884996 C191.135116,458.885895 191.110954,458.886344 191.086791,458.886344 C190.018744,458.886344 189.152922,458.020522 189.152922,456.952475 C189.152922,456.923699 189.153564,456.894927 189.154848,456.866179 L191.270625,409.499473 L191.270625,409.499473 Z" id="Rectangle-3-Copy-5"></path>
                        <path d="M191.270625,475.348635 L193.03375,522.714726 C193.073775,523.790002 192.234539,524.694132 191.159263,524.734158 C191.135116,524.735056 191.110954,524.735506 191.086791,524.735506 C190.018744,524.735506 189.152922,523.869683 189.152922,522.801637 C189.152922,522.772861 189.153564,522.744088 189.154848,522.715341 L191.270625,475.348635 L191.270625,475.348635 Z" id="Rectangle-3-Copy-6"></path>
                        <path d="M191.270625,549.428941 L193.03375,596.795033 C193.073775,597.870308 192.234539,598.774439 191.159263,598.814464 C191.135116,598.815363 191.110954,598.815813 191.086791,598.815813 C190.018744,598.815813 189.152922,597.94999 189.152922,596.881943 C189.152922,596.853167 189.153564,596.824395 189.154848,596.795647 L191.270625,549.428941 L191.270625,549.428941 Z" id="Rectangle-3-Copy-7"></path>
                        <path d="M191.270625,621.451462 L193.03375,668.817553 C193.073775,669.892829 192.234539,670.796959 191.159263,670.836985 C191.135116,670.837883 191.110954,670.838333 191.086791,670.838333 C190.018744,670.838333 189.152922,669.97251 189.152922,668.904464 C189.152922,668.875688 189.153564,668.846915 189.154848,668.818168 L191.270625,621.451462 L191.270625,621.451462 Z" id="Rectangle-3-Copy-8"></path>
                        <path d="M230.368565,43.2135122 L232.13169,90.5796033 C232.171715,91.6548793 231.332479,92.5590096 230.257203,92.599035 C230.233056,92.5999339 230.208894,92.6003834 230.18473,92.6003834 C229.116684,92.6003834 228.250861,91.7345607 228.250861,90.6665143 C228.250861,90.6377382 228.251504,90.6089656 228.252788,90.5802182 L230.368565,43.2135122 L230.368565,43.2135122 Z" id="Rectangle-3"></path>
                        <path d="M230.368565,107.004887 L232.13169,154.370979 C232.171715,155.446255 231.332479,156.350385 230.257203,156.39041 C230.233056,156.391309 230.208894,156.391759 230.18473,156.391759 C229.116684,156.391759 228.250861,155.525936 228.250861,154.457889 C228.250861,154.429113 228.251504,154.400341 228.252788,154.371593 L230.368565,107.004887 L230.368565,107.004887 Z" id="Rectangle-3-Copy"></path>
                        <path d="M230.368565,168.738476 L232.13169,216.104567 C232.171715,217.179843 231.332479,218.083974 230.257203,218.123999 C230.233056,218.124898 230.208894,218.125348 230.18473,218.125348 C229.116684,218.125348 228.250861,217.259525 228.250861,216.191478 C228.250861,216.162702 228.251504,216.13393 228.252788,216.105182 L230.368565,168.738476 L230.368565,168.738476 Z" id="Rectangle-3-Copy-2"></path>
                        <path d="M230.368565,230.472065 L232.13169,277.838156 C232.171715,278.913432 231.332479,279.817563 230.257203,279.857588 C230.233056,279.858487 230.208894,279.858936 230.18473,279.858936 C229.116684,279.858936 228.250861,278.993114 228.250861,277.925067 C228.250861,277.896291 228.251504,277.867519 228.252788,277.838771 L230.368565,230.472065 L230.368565,230.472065 Z" id="Rectangle-3-Copy-3"></path>
                        <path d="M230.368565,300.436799 L232.13169,347.802891 C232.171715,348.878166 231.332479,349.782297 230.257203,349.822322 C230.233056,349.823221 230.208894,349.823671 230.18473,349.823671 C229.116684,349.823671 228.250861,348.957848 228.250861,347.889801 C228.250861,347.861025 228.251504,347.832253 228.252788,347.803505 L230.368565,300.436799 L230.368565,300.436799 Z" id="Rectangle-3-Copy-4"></path>
                        <path d="M230.368565,368.343747 L232.13169,415.709838 C232.171715,416.785114 231.332479,417.689245 230.257203,417.72927 C230.233056,417.730169 230.208894,417.730618 230.18473,417.730618 C229.116684,417.730618 228.250861,416.864796 228.250861,415.796749 C228.250861,415.767973 228.251504,415.739201 228.252788,415.710453 L230.368565,368.343747 L230.368565,368.343747 Z" id="Rectangle-3-Copy-5"></path>
                        <path d="M230.368565,434.192909 L232.13169,481.559 C232.171715,482.634276 231.332479,483.538406 230.257203,483.578432 C230.233056,483.57933 230.208894,483.57978 230.18473,483.57978 C229.116684,483.57978 228.250861,482.713957 228.250861,481.645911 C228.250861,481.617135 228.251504,481.588362 228.252788,481.559615 L230.368565,434.192909 L230.368565,434.192909 Z" id="Rectangle-3-Copy-6"></path>
                        <path d="M230.368565,508.273215 L232.13169,555.639307 C232.171715,556.714583 231.332479,557.618713 230.257203,557.658738 C230.233056,557.659637 230.208894,557.660087 230.18473,557.660087 C229.116684,557.660087 228.250861,556.794264 228.250861,555.726218 C228.250861,555.697441 228.251504,555.668669 228.252788,555.639921 L230.368565,508.273215 L230.368565,508.273215 Z" id="Rectangle-3-Copy-7"></path>
                        <path d="M230.368565,580.295736 L232.13169,627.661827 C232.171715,628.737103 231.332479,629.641233 230.257203,629.681259 C230.233056,629.682158 230.208894,629.682607 230.18473,629.682607 C229.116684,629.682607 228.250861,628.816784 228.250861,627.748738 C228.250861,627.719962 228.251504,627.691189 228.252788,627.662442 L230.368565,580.295736 L230.368565,580.295736 Z" id="Rectangle-3-Copy-8"></path>
                        <path d="M269.466505,69.9647341 L271.229629,117.330825 C271.269655,118.406101 270.430418,119.310232 269.355142,119.350257 C269.330995,119.351156 269.306834,119.351605 269.28267,119.351605 C268.214624,119.351605 267.348801,118.485783 267.348801,117.417736 C267.348801,117.38896 267.349443,117.360188 267.350727,117.33144 L269.466505,69.9647341 L269.466505,69.9647341 Z" id="Rectangle-3"></path>
                        <path d="M269.466505,133.756109 L271.229629,181.1222 C271.269655,182.197476 270.430418,183.101607 269.355142,183.141632 C269.330995,183.142531 269.306834,183.14298 269.28267,183.14298 C268.214624,183.14298 267.348801,182.277158 267.348801,181.209111 C267.348801,181.180335 267.349443,181.151563 267.350727,181.122815 L269.466505,133.756109 L269.466505,133.756109 Z" id="Rectangle-3-Copy"></path>
                        <path d="M269.466505,195.489698 L271.229629,242.855789 C271.269655,243.931065 270.430418,244.835196 269.355142,244.875221 C269.330995,244.87612 269.306834,244.876569 269.28267,244.876569 C268.214624,244.876569 267.348801,244.010747 267.348801,242.9427 C267.348801,242.913924 267.349443,242.885152 267.350727,242.856404 L269.466505,195.489698 L269.466505,195.489698 Z" id="Rectangle-3-Copy-2"></path>
                        <path d="M269.466505,257.223287 L271.229629,304.589378 C271.269655,305.664654 270.430418,306.568785 269.355142,306.60881 C269.330995,306.609709 269.306834,306.610158 269.28267,306.610158 C268.214624,306.610158 267.348801,305.744336 267.348801,304.676289 C267.348801,304.647513 267.349443,304.618741 267.350727,304.589993 L269.466505,257.223287 L269.466505,257.223287 Z" id="Rectangle-3-Copy-3"></path>
                        <path d="M269.466505,327.188021 L271.229629,374.554112 C271.269655,375.629388 270.430418,376.533519 269.355142,376.573544 C269.330995,376.574443 269.306834,376.574892 269.28267,376.574892 C268.214624,376.574892 267.348801,375.70907 267.348801,374.641023 C267.348801,374.612247 267.349443,374.583475 267.350727,374.554727 L269.466505,327.188021 L269.466505,327.188021 Z" id="Rectangle-3-Copy-4"></path>
                        <path d="M269.466505,395.094969 L271.229629,442.46106 C271.269655,443.536336 270.430418,444.440467 269.355142,444.480492 C269.330995,444.481391 269.306834,444.48184 269.28267,444.48184 C268.214624,444.48184 267.348801,443.616018 267.348801,442.547971 C267.348801,442.519195 267.349443,442.490423 267.350727,442.461675 L269.466505,395.094969 L269.466505,395.094969 Z" id="Rectangle-3-Copy-5"></path>
                        <path d="M269.466505,460.944131 L271.229629,508.310222 C271.269655,509.385498 270.430418,510.289628 269.355142,510.329653 C269.330995,510.330552 269.306834,510.331002 269.28267,510.331002 C268.214624,510.331002 267.348801,509.465179 267.348801,508.397133 C267.348801,508.368357 267.349443,508.339584 267.350727,508.310837 L269.466505,460.944131 L269.466505,460.944131 Z" id="Rectangle-3-Copy-6"></path>
                        <path d="M269.466505,535.024437 L271.229629,582.390528 C271.269655,583.465804 270.430418,584.369935 269.355142,584.40996 C269.330995,584.410859 269.306834,584.411308 269.28267,584.411308 C268.214624,584.411308 267.348801,583.545486 267.348801,582.477439 C267.348801,582.448663 267.349443,582.419891 267.350727,582.391143 L269.466505,535.024437 L269.466505,535.024437 Z" id="Rectangle-3-Copy-7"></path>
                        <path d="M269.466505,607.046958 L271.229629,654.413049 C271.269655,655.488325 270.430418,656.392455 269.355142,656.432481 C269.330995,656.433379 269.306834,656.433829 269.28267,656.433829 C268.214624,656.433829 267.348801,655.568006 267.348801,654.49996 C267.348801,654.471184 267.349443,654.442411 267.350727,654.413664 L269.466505,607.046958 L269.466505,607.046958 Z" id="Rectangle-3-Copy-8"></path>
                        <path d="M306.506658,37.0401534 L308.269783,84.4062445 C308.309808,85.4815204 307.470572,86.3856508 306.395296,86.4256761 C306.371149,86.426575 306.346987,86.4270245 306.322823,86.4270245 C305.254777,86.4270245 304.388954,85.5612018 304.388954,84.4931554 C304.388954,84.4643793 304.389597,84.4356068 304.390881,84.4068593 L306.506658,37.0401534 L306.506658,37.0401534 Z" id="Rectangle-3"></path>
                        <path d="M306.506658,100.831529 L308.269783,148.19762 C308.309808,149.272896 307.470572,150.177026 306.395296,150.217051 C306.371149,150.21795 306.346987,150.2184 306.322823,150.2184 C305.254777,150.2184 304.388954,149.352577 304.388954,148.284531 C304.388954,148.255754 304.389597,148.226982 304.390881,148.198235 L306.506658,100.831529 L306.506658,100.831529 Z" id="Rectangle-3-Copy"></path>
                        <path d="M306.506658,162.565118 L308.269783,209.931209 C308.309808,211.006485 307.470572,211.910615 306.395296,211.95064 C306.371149,211.951539 306.346987,211.951989 306.322823,211.951989 C305.254777,211.951989 304.388954,211.086166 304.388954,210.01812 C304.388954,209.989343 304.389597,209.960571 304.390881,209.931823 L306.506658,162.565118 L306.506658,162.565118 Z" id="Rectangle-3-Copy-2"></path>
                        <path d="M306.506658,224.298706 L308.269783,271.664798 C308.309808,272.740073 307.470572,273.644204 306.395296,273.684229 C306.371149,273.685128 306.346987,273.685578 306.322823,273.685578 C305.254777,273.685578 304.388954,272.819755 304.388954,271.751708 C304.388954,271.722932 304.389597,271.69416 304.390881,271.665412 L306.506658,224.298706 L306.506658,224.298706 Z" id="Rectangle-3-Copy-3"></path>
                        <path d="M306.506658,294.263441 L308.269783,341.629532 C308.309808,342.704808 307.470572,343.608938 306.395296,343.648963 C306.371149,343.649862 306.346987,343.650312 306.322823,343.650312 C305.254777,343.650312 304.388954,342.784489 304.388954,341.716443 C304.388954,341.687666 304.389597,341.658894 304.390881,341.630146 L306.506658,294.263441 L306.506658,294.263441 Z" id="Rectangle-3-Copy-4"></path>
                        <path d="M306.506658,362.170388 L308.269783,409.536479 C308.309808,410.611755 307.470572,411.515886 306.395296,411.555911 C306.371149,411.55681 306.346987,411.55726 306.322823,411.55726 C305.254777,411.55726 304.388954,410.691437 304.388954,409.62339 C304.388954,409.594614 304.389597,409.565842 304.390881,409.537094 L306.506658,362.170388 L306.506658,362.170388 Z" id="Rectangle-3-Copy-5"></path>
                        <path d="M306.506658,428.01955 L308.269783,475.385641 C308.309808,476.460917 307.470572,477.365047 306.395296,477.405073 C306.371149,477.405971 306.346987,477.406421 306.322823,477.406421 C305.254777,477.406421 304.388954,476.540598 304.388954,475.472552 C304.388954,475.443776 304.389597,475.415003 304.390881,475.386256 L306.506658,428.01955 L306.506658,428.01955 Z" id="Rectangle-3-Copy-6"></path>
                        <path d="M306.506658,502.099857 L308.269783,549.465948 C308.309808,550.541224 307.470572,551.445354 306.395296,551.485379 C306.371149,551.486278 306.346987,551.486728 306.322823,551.486728 C305.254777,551.486728 304.388954,550.620905 304.388954,549.552859 C304.388954,549.524083 304.389597,549.49531 304.390881,549.466563 L306.506658,502.099857 L306.506658,502.099857 Z" id="Rectangle-3-Copy-7"></path>
                        <path d="M306.506658,574.122377 L308.269783,621.488468 C308.309808,622.563744 307.470572,623.467874 306.395296,623.5079 C306.371149,623.508799 306.346987,623.509248 306.322823,623.509248 C305.254777,623.509248 304.388954,622.643425 304.388954,621.575379 C304.388954,621.546603 304.389597,621.51783 304.390881,621.489083 L306.506658,574.122377 L306.506658,574.122377 Z" id="Rectangle-3-Copy-8"></path>
                        <path d="M343.546811,65.8491615 L345.309936,113.215253 C345.349961,114.290529 344.510725,115.194659 343.435449,115.234684 C343.411302,115.235583 343.38714,115.236033 343.362977,115.236033 C342.29493,115.236033 341.429108,114.37021 341.429108,113.302164 C341.429108,113.273387 341.42975,113.244615 341.431034,113.215867 L343.546811,65.8491615 L343.546811,65.8491615 Z" id="Rectangle-3"></path>
                        <path d="M343.546811,129.640537 L345.309936,177.006628 C345.349961,178.081904 344.510725,178.986034 343.435449,179.02606 C343.411302,179.026958 343.38714,179.027408 343.362977,179.027408 C342.29493,179.027408 341.429108,178.161585 341.429108,177.093539 C341.429108,177.064763 341.42975,177.03599 341.431034,177.007243 L343.546811,129.640537 L343.546811,129.640537 Z" id="Rectangle-3-Copy"></path>
                        <path d="M343.546811,191.374126 L345.309936,238.740217 C345.349961,239.815493 344.510725,240.719623 343.435449,240.759648 C343.411302,240.760547 343.38714,240.760997 343.362977,240.760997 C342.29493,240.760997 341.429108,239.895174 341.429108,238.827128 C341.429108,238.798352 341.42975,238.769579 341.431034,238.740832 L343.546811,191.374126 L343.546811,191.374126 Z" id="Rectangle-3-Copy-2"></path>
                        <path d="M343.546811,253.107715 L345.309936,300.473806 C345.349961,301.549082 344.510725,302.453212 343.435449,302.493237 C343.411302,302.494136 343.38714,302.494586 343.362977,302.494586 C342.29493,302.494586 341.429108,301.628763 341.429108,300.560717 C341.429108,300.531941 341.42975,300.503168 341.431034,300.474421 L343.546811,253.107715 L343.546811,253.107715 Z" id="Rectangle-3-Copy-3"></path>
                        <path d="M343.546811,323.072449 L345.309936,370.43854 C345.349961,371.513816 344.510725,372.417946 343.435449,372.457971 C343.411302,372.45887 343.38714,372.45932 343.362977,372.45932 C342.29493,372.45932 341.429108,371.593497 341.429108,370.525451 C341.429108,370.496675 341.42975,370.467902 341.431034,370.439155 L343.546811,323.072449 L343.546811,323.072449 Z" id="Rectangle-3-Copy-4"></path>
                        <path d="M343.546811,390.979397 L345.309936,438.345488 C345.349961,439.420764 344.510725,440.324894 343.435449,440.364919 C343.411302,440.365818 343.38714,440.366268 343.362977,440.366268 C342.29493,440.366268 341.429108,439.500445 341.429108,438.432399 C341.429108,438.403622 341.42975,438.37485 341.431034,438.346102 L343.546811,390.979397 L343.546811,390.979397 Z" id="Rectangle-3-Copy-5"></path>
                        <path d="M343.546811,456.828558 L345.309936,504.194649 C345.349961,505.269925 344.510725,506.174055 343.435449,506.214081 C343.411302,506.21498 343.38714,506.215429 343.362977,506.215429 C342.29493,506.215429 341.429108,505.349606 341.429108,504.28156 C341.429108,504.252784 341.42975,504.224011 341.431034,504.195264 L343.546811,456.828558 L343.546811,456.828558 Z" id="Rectangle-3-Copy-6"></path>
                        <path d="M343.546811,530.908865 L345.309936,578.274956 C345.349961,579.350232 344.510725,580.254362 343.435449,580.294388 C343.411302,580.295286 343.38714,580.295736 343.362977,580.295736 C342.29493,580.295736 341.429108,579.429913 341.429108,578.361867 C341.429108,578.333091 341.42975,578.304318 341.431034,578.275571 L343.546811,530.908865 L343.546811,530.908865 Z" id="Rectangle-3-Copy-7"></path>
                        <path d="M343.546811,602.931385 L345.309936,650.297476 C345.349961,651.372752 344.510725,652.276883 343.435449,652.316908 C343.411302,652.317807 343.38714,652.318256 343.362977,652.318256 C342.29493,652.318256 341.429108,651.452434 341.429108,650.384387 C341.429108,650.355611 341.42975,650.326839 341.431034,650.298091 L343.546811,602.931385 L343.546811,602.931385 Z" id="Rectangle-3-Copy-8"></path>
                        <path d="M382.644751,28.8090082 L384.407876,76.1750993 C384.447901,77.2503752 383.608665,78.1545056 382.533389,78.1945309 C382.509242,78.1954298 382.48508,78.1958793 382.460916,78.1958793 C381.39287,78.1958793 380.527047,77.3300566 380.527047,76.2620102 C380.527047,76.2332341 380.52769,76.2044616 380.528974,76.1757141 L382.644751,28.8090082 L382.644751,28.8090082 Z" id="Rectangle-3"></path>
                        <path d="M382.644751,92.6003834 L384.407876,139.966474 C384.447901,141.04175 383.608665,141.945881 382.533389,141.985906 C382.509242,141.986805 382.48508,141.987255 382.460916,141.987255 C381.39287,141.987255 380.527047,141.121432 380.527047,140.053385 C380.527047,140.024609 380.52769,139.995837 380.528974,139.967089 L382.644751,92.6003834 L382.644751,92.6003834 Z" id="Rectangle-3-Copy"></path>
                        <path d="M382.644751,154.333972 L384.407876,201.700063 C384.447901,202.775339 383.608665,203.67947 382.533389,203.719495 C382.509242,203.720394 382.48508,203.720843 382.460916,203.720843 C381.39287,203.720843 380.527047,202.855021 380.527047,201.786974 C380.527047,201.758198 380.52769,201.729426 380.528974,201.700678 L382.644751,154.333972 L382.644751,154.333972 Z" id="Rectangle-3-Copy-2"></path>
                        <path d="M382.644751,216.067561 L384.407876,263.433652 C384.447901,264.508928 383.608665,265.413059 382.533389,265.453084 C382.509242,265.453983 382.48508,265.454432 382.460916,265.454432 C381.39287,265.454432 380.527047,264.58861 380.527047,263.520563 C380.527047,263.491787 380.52769,263.463015 380.528974,263.434267 L382.644751,216.067561 L382.644751,216.067561 Z" id="Rectangle-3-Copy-3"></path>
                        <path d="M382.644751,286.032295 L384.407876,333.398386 C384.447901,334.473662 383.608665,335.377793 382.533389,335.417818 C382.509242,335.418717 382.48508,335.419166 382.460916,335.419166 C381.39287,335.419166 380.527047,334.553344 380.527047,333.485297 C380.527047,333.456521 380.52769,333.427749 380.528974,333.399001 L382.644751,286.032295 L382.644751,286.032295 Z" id="Rectangle-3-Copy-4"></path>
                        <path d="M382.644751,353.939243 L384.407876,401.305334 C384.447901,402.38061 383.608665,403.284741 382.533389,403.324766 C382.509242,403.325665 382.48508,403.326114 382.460916,403.326114 C381.39287,403.326114 380.527047,402.460292 380.527047,401.392245 C380.527047,401.363469 380.52769,401.334697 380.528974,401.305949 L382.644751,353.939243 L382.644751,353.939243 Z" id="Rectangle-3-Copy-5"></path>
                        <path d="M382.644751,419.788405 L384.407876,467.154496 C384.447901,468.229772 383.608665,469.133902 382.533389,469.173927 C382.509242,469.174826 382.48508,469.175276 382.460916,469.175276 C381.39287,469.175276 380.527047,468.309453 380.527047,467.241407 C380.527047,467.212631 380.52769,467.183858 380.528974,467.155111 L382.644751,419.788405 L382.644751,419.788405 Z" id="Rectangle-3-Copy-6"></path>
                        <path d="M382.644751,493.868711 L384.407876,541.234803 C384.447901,542.310078 383.608665,543.214209 382.533389,543.254234 C382.509242,543.255133 382.48508,543.255583 382.460916,543.255583 C381.39287,543.255583 380.527047,542.38976 380.527047,541.321713 C380.527047,541.292937 380.52769,541.264165 380.528974,541.235417 L382.644751,493.868711 L382.644751,493.868711 Z" id="Rectangle-3-Copy-7"></path>
                        <path d="M382.644751,565.891232 L384.407876,613.257323 C384.447901,614.332599 383.608665,615.236729 382.533389,615.276755 C382.509242,615.277653 382.48508,615.278103 382.460916,615.278103 C381.39287,615.278103 380.527047,614.41228 380.527047,613.344234 C380.527047,613.315458 380.52769,613.286685 380.528974,613.257938 L382.644751,565.891232 L382.644751,565.891232 Z" id="Rectangle-3-Copy-8"></path>
                    </g>
                </g>
                <g id="person" transform="translate(181.950836, 491.339006)">
                    <g id="bottom" transform="translate(330.083327, 509.473591) scale(-1, 1) translate(-330.083327, -509.473591) translate(93.214976, 384.806038)">
                        <polygon id="Path-9" fill="#F1F1F1" style="mix-blend-mode: multiply;" points="471.761761 232.055443 0.118799783 249.014305 231.824708 196.313387 439.363787 214.133132"></polygon>
                        <path d="M335.271961,111.538615 C327.141584,124.174135 324.431459,138.750739 327.141584,155.268426 C329.85171,171.786114 331.03739,192.205326 330.698624,216.526063 L344.173139,216.526063 L360.993516,106.079648 C348.25882,101.265121 339.684968,99.3261515 335.271961,100.262738 C330.858953,101.199325 330.858953,104.95795 335.271961,111.538615 Z" id="Path-39" fill="#CACACA"></path>
                        <path d="M415.924002,111.728098 C407.793625,124.363619 405.0835,138.940222 407.793625,155.45791 C410.503751,171.975597 411.689431,192.394809 411.350665,216.715546 L424.82518,216.715546 L441.645557,106.269131 L410.441636,91.4830375 L415.924002,111.728098 Z" id="Path-39-Copy" fill="#CACACA" transform="translate(424.211442, 154.099292) rotate(-13.000000) translate(-424.211442, -154.099292) "></path>
                        <path d="M330.306253,216.067561 L346.793351,211.091659 L357.878993,216.067561 L375.618598,217.915287 C376.836995,218.042194 377.855847,218.897126 378.192377,220.074982 L380.294087,227.430967 C380.900984,229.555107 379.671016,231.76905 377.546875,232.375947 C377.18951,232.478052 376.819657,232.529852 376.447991,232.529852 L334.306253,232.529852 C332.097114,232.529852 330.306253,230.738991 330.306253,228.529852 L330.306253,216.067561 L330.306253,216.067561 Z" id="Rectangle-17" fill="#302C48"></path>
                        <path d="M424.964423,216.067561 L441.451521,211.091659 L452.537163,216.067561 L470.276768,217.915287 C471.495165,218.042194 472.514016,218.897126 472.850546,220.074982 L474.952256,227.430967 C475.559154,229.555107 474.329185,231.76905 472.205045,232.375947 C471.847679,232.478052 471.477827,232.529852 471.106161,232.529852 L428.964423,232.529852 C426.755284,232.529852 424.964423,230.738991 424.964423,228.529852 L424.964423,216.067561 L424.964423,216.067561 Z" id="Rectangle-17-Copy" fill="#302C48"></path>
                        <polygon id="Path-31" fill="#302C48" points="326.190681 110.538736 326.190681 0 424.863563 0 437.530258 110.538736 392.490288 110.538736 378.621607 53.6251366 368.849882 110.538736"></polygon>
                        <polygon id="Path-34" fill="#3B3C45" opacity="0.1953125" style="mix-blend-mode: multiply;" points="368.791132 110.693869 371.225681 31.8744399 378.445821 53.7644824"></polygon>
                    </g>
                    <path d="M34.5576148,269.517707 C31.6443934,270.178821 32.0170702,266.409729 30.5752842,264.372843 C27.2431992,259.665433 29.9802862,246.943895 30.5752842,245.106612 C32.5816227,238.911276 35.7132376,230.611234 38.5356778,233.064869 C40.9667766,237.22417 36.2773404,241.275168 36.4857234,245.106612 C36.5313135,245.944858 38.5356778,249.115577 40.9667766,247.111679 C43.4915598,245.030559 38.510606,268.620632 34.5576148,269.517707 Z" id="hand" fill="#CACACA" transform="translate(35.302332, 251.109055) scale(-1, 1) rotate(-11.000000) translate(-35.302332, -251.109055) "></path>
                    <g id="handle" transform="translate(17.491184, 129.640537) scale(-1, 1) translate(-17.491184, -129.640537) ">
                        <rect id="Rectangle-36" fill="#CACBD5" x="0.749620245" y="0" width="6.24685126" height="222.24092" rx="3.12342563"></rect>
                        <path d="M7.49622151,216.067561 C7.49622151,214.02189 5.81813517,212.363546 3.74811076,212.363546 C1.67808634,212.363546 0,214.02189 0,216.067561 L0,240.807328 L0.0108312036,241.088717 C0.853458034,252.018351 6.66201689,258.168602 16.6466069,258.168602 C26.6298732,258.168602 32.4419805,252.020255 33.2940129,241.091872 C33.4530325,239.052245 31.9088159,237.271407 29.8449085,237.114259 C27.7810011,236.95711 25.9789626,238.483159 25.819943,240.522785 C25.2522561,247.804081 22.4574493,250.760572 16.6466069,250.760572 C10.8735495,250.760572 8.08179486,247.842954 7.49622151,240.662501 L7.49622151,216.067561 Z" id="Path-66" fill="#302C48" fill-rule="nonzero"></path>
                    </g>
                    <g id="top" transform="translate(162.494467, 256.542846) scale(-1, 1) translate(-162.494467, -256.542846) translate(19.376116, 104.947101)">
                        <path d="M73.0829663,243.870864 C50.7376989,222.783583 50.1982669,223.387362 40.3902367,210.15543 C35.7080591,203.838744 30.3244152,198.895918 30.6185523,198.152503 C34.9776934,187.13502 49.9990679,174.834545 73.0829663,145.082315 L59.2023471,119.351605 C25.5052861,151.600589 15.3143553,175.676 10.1918909,188.62274 C8.95057521,191.760095 6.76537605,197.456648 7.32323195,201.141574 C9.77993843,217.369385 31.7434636,236.117647 71.5654431,257.223287 L73.0829663,243.870864 Z" id="Path-32" fill="#CACACA" fill-rule="nonzero" transform="translate(40.158386, 188.287446) rotate(6.000000) translate(-40.158386, -188.287446) "></path>
                        <path d="M276.245235,135.055413 C277.46882,131.453872 276.245235,123.555955 277.46882,121.762981 C279.795931,120.506743 282.301192,124.263378 284.984601,133.032885 C286.377366,145.875569 284.333199,154.121448 278.852099,157.770524 C273.371,161.4196 270.630451,161.4196 270.630451,157.770524 C266.612009,144.14056 266.180188,137.513932 269.334986,137.89064 C274.067183,138.455701 275.665626,137.89064 276.245235,135.055413 Z" id="Path-36" fill="#CACACA"></path>
                        <path d="M237.70587,233.581933 C215.497583,212.494652 214.961458,213.098431 205.213552,199.866499 C200.560077,193.549812 195.209436,188.606987 195.50177,187.863572 C199.834189,176.846088 214.76348,164.545613 237.70587,134.793383 L223.910341,109.062674 C190.419849,141.311657 180.29139,165.387068 175.200328,178.333808 C168.53358,195.287567 187.632654,221.036158 236.19765,246.934356 L237.70587,233.581933 Z" id="Path-32-Copy" fill="#CACACA" fill-rule="nonzero" transform="translate(205.810182, 177.998515) rotate(-82.000000) translate(-205.810182, -177.998515) "></path>
                        <path d="M117.826086,26.7512219 C117.826086,26.7512219 117.382712,34.7044561 122.999201,39.1318731 C129.270035,44.0751032 136.288815,49.7883618 137.908607,51.8289878 C139.955649,54.4078665 138.932128,55.6973059 134.838045,55.6973059 L137.908607,80.6779004 L112.366221,92.0303619 L117.826086,113.178246 L87.2247691,113.178246 L83.3718978,92.0303619 C89.310157,65.5554866 94.1499057,48.7738526 97.8911439,41.6854598 C105.495397,27.2779482 117.826086,26.7512219 117.826086,26.7512219 Z" id="Path-33" fill="#CACACA"></path>
                        <path d="M87.9620091,94.6581697 C101.017536,94.6581697 102.835413,79.2676334 110.468144,69.2735953 C116.277224,61.6673834 116.296479,55.2314302 116.296479,44.6717355 C116.296479,20.2373297 110.953769,6.17335889 87.9620091,6.17335889 C64.9702488,6.17335889 46.3317444,25.9813585 46.3317444,50.4157643 C46.3317444,74.8501701 73.4986356,83.9640086 87.9620091,94.6581697 Z" id="Oval-8" fill="#302C48"></path>
                        <ellipse id="Oval" fill="#302C48" cx="97.7764019" cy="13.3756109" rx="14.4045041" ry="13.3756109"></ellipse>
                        <ellipse id="Oval-Copy" fill="#302C48" cx="82.3430046" cy="8.23114519" rx="9.26003834" ry="8.23114519"></ellipse>
                        <ellipse id="Oval-Copy-2" fill="#302C48" cx="66.9096074" cy="21.6067561" rx="14.4045041" ry="13.3756109"></ellipse>
                        <ellipse id="Oval-Copy-6" fill="#302C48" cx="58.6784622" cy="36.0112602" rx="14.4045041" ry="13.3756109"></ellipse>
                        <circle id="Oval-Copy-3" fill="#302C48" cx="69.9962868" cy="11.3178246" r="7.20225204"></circle>
                        <circle id="Oval-Copy-4" fill="#302C48" cx="111.152013" cy="15.4333972" r="7.20225204"></circle>
                        <circle id="Oval-Copy-5" fill="#302C48" cx="115.267585" cy="25.7223287" r="7.20225204"></circle>
                        <ellipse id="Oval-2" fill="#CACACA" cx="114.238692" cy="58.6469095" rx="8.23114519" ry="9.26003834"></ellipse>
                        <path d="M19.5805225,155.086216 L63.4519834,114.545878 C77.5263096,109.518551 89.1420183,107.004887 98.2991096,107.004887 C104.984964,107.004887 95.3117773,107.004887 118.598486,107.004887 C124.336669,107.004887 135.401189,109.518551 151.792048,114.545878 L184.203426,155.086216 L163.630192,184.194502 L141.126629,155.086216 L166.225547,294.031879 C149.237387,299.673683 133.3617,302.494586 118.598486,302.494586 C103.835273,302.494586 85.4531051,299.755025 63.4519834,294.275902 L63.4519834,164.984842 L47.245326,184.194502 L19.5805225,155.086216 Z" id="Path-30" fill="#0078D3"></path>
                        <path d="M157.452204,238.703211 L130.700983,148.160613 C138.025124,150.433326 141.889669,153.027229 142.294619,155.94232 C142.699568,158.857411 147.752096,186.444375 157.452204,238.703211 Z" id="Path-38" fill="#DEEAF4" opacity="0.549818841" style="mix-blend-mode: multiply;"></path>
                    </g>
                </g>
                <g id="cloud" transform="translate(0.148161, 103.401018)" fill="#F1F1F1">
                    <path d="M394.59931,213.632514 C419.316318,213.632514 439.353411,233.186786 439.353411,257.308203 C439.353411,258.472826 439.306702,259.626802 439.215013,260.768445 C454.575172,267.686327 465.235301,282.850601 465.235301,300.444686 C465.235301,324.566103 445.198208,344.120375 420.4812,344.120375 C406.936182,344.120375 394.796582,338.248064 386.589732,328.969876 C378.758349,339.185659 364.508181,344.120375 348.227591,344.120375 C327.430464,344.120375 309.946575,336.067915 304.924089,319.239618 C304.088444,319.290727 303.24495,319.316897 302.395078,319.316897 C280.953819,319.316897 263.572244,302.659554 263.572244,282.111681 C263.572244,261.563807 280.953819,244.906464 302.395078,244.906464 C302.447179,244.906464 302.499255,244.906563 302.551307,244.906759 C304.231298,227.364671 319.453215,213.632514 337.982677,213.632514 C348.47937,213.632514 357.914649,218.039262 364.428355,225.048969 C372.38482,217.95789 382.97447,213.632514 394.59931,213.632514 Z"></path>
                    <path d="M170.895722,22.2638759 C203.118453,22.2638759 229.240137,47.7157734 229.240137,79.1122801 C229.240137,80.5060948 229.188656,81.8881936 229.087445,83.2568699 C249.187059,92.2322072 263.149712,112.009009 263.149712,134.963344 C263.149712,166.359851 237.028027,191.811748 204.805297,191.811748 C187.265179,191.811748 171.532837,184.2702 160.837422,172.333456 C150.584498,185.466633 132.124046,191.811748 111.055297,191.811748 C83.7196804,191.811748 60.7748005,181.130556 54.4436487,158.800751 C53.3767258,158.866569 52.2998046,158.899514 51.2148713,158.899514 C23.398668,158.899514 0.849179812,137.243075 0.849179812,110.528504 C0.849179812,83.813932 23.398668,62.1574929 51.2148713,62.1574929 L50.9990673,62.1590489 C53.5616296,39.7183872 73.2207751,22.2638759 97.0925309,22.2638759 C110.776444,22.2638759 123.076143,27.9992214 131.564864,37.1214306 C141.937124,27.8931105 155.741735,22.2638759 170.895722,22.2638759 Z" transform="translate(131.999446, 107.037812) scale(-1, 1) translate(-131.999446, -107.037812) "></path>
                    <path d="M632.664339,0.32238652 C673.149309,0.32238652 705.968861,32.2488896 705.968861,71.6322269 C705.968861,73.5874738 705.887968,75.5243413 705.72926,77.439835 C731.160722,88.6291176 748.854499,113.526182 748.854499,142.443397 C748.854499,181.826735 716.034947,213.753238 675.549978,213.753238 C653.258576,213.753238 633.291104,204.07406 619.846505,188.800391 C607.052434,205.626765 583.635044,213.753238 556.866467,213.753238 C522.663861,213.753238 493.932253,200.486323 485.838847,172.755853 C484.592464,172.826504 483.333549,172.86228 482.065935,172.86228 C447.089125,172.86228 418.734818,145.624285 418.734818,112.024514 C418.734818,78.4247438 447.089125,51.1867482 482.065935,51.1867482 L481.839946,51.1889956 C484.694241,22.6409107 509.604314,0.32238652 539.91168,0.32238652 C557.114815,0.32238652 572.57897,7.51330384 583.257555,18.9527074 C596.287471,7.38076549 613.628562,0.32238652 632.664339,0.32238652 Z"></path>
                </g>
            </g>
        </g>
    </g>
</svg>