<?xml version="1.0" encoding="UTF-8"?>
<svg width="30px" height="30px" viewBox="0 0 30 30" version="1.1" xmlns="http://www.w3.org/2000/svg" xmlns:xlink="http://www.w3.org/1999/xlink">
    <title>Bill</title>
    <g id="Provider" stroke="none" stroke-width="1" fill="none" fill-rule="evenodd">
        <g id="Patient-bills-pro" transform="translate(-182.000000, -450.000000)">
            <g id="Patient-info-card" transform="translate(162.000000, 126.000000)">
                <g id="Education" transform="translate(0.000000, 241.000000)">
                    <g id="Noti-holder-1" transform="translate(0.000000, 58.000000)">
                        <g id="Content" transform="translate(20.000000, 19.000000)">
                            <g id="Bill" transform="translate(0.000000, 6.000000)">
                                <circle id="Oval" fill="#0078D3" cx="15" cy="15" r="15"></circle>
                                <path d="M10.6335152,16.5871758 L10.6335152,20.7610981 C10.6335152,21.7300776 9.90680547,22.5685555 8.93782595,22.6430566 C7.87564524,22.7175343 7,21.8790464 7,20.8355991 L7,17.0716156 C7,16.8107521 7.20497605,16.6057761 7.46583954,16.6057761 L10.6335152,16.6057761 L10.6335152,16.5871758 Z M22,7.77349162 L22,20.8356324 C22,21.8417793 21.1800891,22.6430898 20.1925426,22.6430898 L10.2049428,22.6430898 C10.7266831,22.2517181 11.0621541,21.636943 11.0993214,20.9474006 L11.0993214,20.8356191 L11.0993214,7.79211189 C11.0993214,7.41947353 11.5092602,7.19577073 11.8260311,7.40074013 L12.645942,7.94104745 C12.7950273,8.05282898 13.0000133,8.05282898 13.1676823,7.94104745 L14.4719997,7.08383614 C14.621085,6.97205462 14.826071,6.97205462 14.99374,7.08383614 L16.2980574,7.94104745 C16.4471427,8.05282898 16.6521288,8.05282898 16.8197977,7.94104745 L18.1241152,7.08383614 C18.2732005,6.97205462 18.4781865,6.97205462 18.6458555,7.08383614 L19.9501729,7.94104745 C20.0992582,8.05282898 20.3042442,8.05282898 20.4719132,7.94104745 L21.2918241,7.38200673 C21.5899913,7.17716377 22,7.40072349 22,7.77351159 L22,7.77349162 Z M19.4472326,17.7983586 C19.4472326,17.5374951 19.2422565,17.332519 18.981393,17.332519 L14.1366618,17.332519 C13.8757983,17.332519 13.6708223,17.5374951 13.6708223,17.7983586 C13.6708223,18.0592221 13.8757983,18.2641981 14.1366618,18.2641981 L18.981393,18.2641981 C19.2236695,18.2829149 19.4472326,18.0592221 19.4472326,17.7983586 L19.4472326,17.7983586 Z M19.4472326,14.7797516 C19.4472326,14.5188881 19.2422565,14.3139121 18.981393,14.3139121 L14.1366618,14.3139121 C13.8757983,14.3139121 13.6708223,14.5188881 13.6708223,14.7797516 C13.6708223,15.0406151 13.8757983,15.2455912 14.1366618,15.2455912 L18.981393,15.2455912 C19.2236695,15.2455912 19.4472326,15.0406151 19.4472326,14.7797516 L19.4472326,14.7797516 Z M19.4472326,11.7424445 C19.4472326,11.481581 19.2422565,11.276605 18.981393,11.276605 L14.1366618,11.276605 C13.8757983,11.276605 13.6708223,11.481581 13.6708223,11.7424445 C13.6708223,12.003308 13.8757983,12.2082841 14.1366618,12.2082841 L18.981393,12.2082841 C19.2236695,12.2270008 19.4472326,12.003308 19.4472326,11.7424445 L19.4472326,11.7424445 Z" id="Shape" fill="#FFFFFF" fill-rule="nonzero"></path>
                            </g>
                        </g>
                    </g>
                </g>
            </g>
        </g>
    </g>
</svg>