<?xml version="1.0" encoding="UTF-8"?>
<svg width="70px" height="70px" viewBox="0 0 70 70" version="1.1" xmlns="http://www.w3.org/2000/svg" xmlns:xlink="http://www.w3.org/1999/xlink">
    <title>Notification</title>
    <g id="Page-1" stroke="none" stroke-width="1" fill="none" fill-rule="evenodd">
        <g id="Notification" fill-rule="nonzero">
            <rect id="Rectangle" fill="#FFFFFF" opacity="0" x="0" y="0" width="70" height="70" rx="8"></rect>
            <g id="alarm" transform="translate(5.000000, 0.000000)" fill="#F6861F">
                <path d="M28.1318681,68.5714286 C25.6091734,67.8069756 24.0038222,65.3607263 24.0038222,62.7615862 L24.0038222,60.7740087 C24.0038222,60.7740087 24.0038222,60.6975633 24.0802675,60.6975633 L36.158624,60.6975633 L36.158624,62.8380316 C36.0821787,66.8131868 32.2599141,69.8709985 28.1318681,68.5714286 Z" id="Path"></path>
                <path d="M55.7286193,59.3215481 L4.35738175,59.3215481 C2.14046823,59.3215481 0.382226469,57.5633062 0.382226469,55.3463928 L0.382226469,54.658385 C0.382226469,53.5881509 0.764452938,52.5943621 1.52890588,51.8299092 L6.88007644,46.6316293 L6.88007644,29.7372194 C6.88007644,19.4935499 13.3014811,10.8552317 22.9335881,7.79741997 C23.0100334,7.79741997 23.0100334,7.72097468 23.0100334,7.64452938 L23.0100334,7.03296703 C23.0100334,4.73960822 24.0802675,2.5226947 25.9913999,1.29957 C31.18968,-2.06402294 36.923077,1.98757764 36.923077,7.03296703 L36.923077,7.64452938 C46.6316293,10.7023411 53.1294793,19.3406593 53.1294793,29.660774 L53.1294793,46.6316293 L58.4806498,51.9063545 C59.2451028,52.6708075 59.6273292,53.6645962 59.6273292,54.7348303 L59.6273292,55.422838 C59.7037744,57.5633062 57.9455327,59.3215481 55.7286193,59.3215481 Z" id="Path"></path>
            </g>
        </g>
    </g>
</svg>