<?xml version="1.0" encoding="UTF-8"?>
<svg width="102px" height="102px" viewBox="0 0 102 102" version="1.1" xmlns="http://www.w3.org/2000/svg" xmlns:xlink="http://www.w3.org/1999/xlink">
    <title>PDF-box</title>
    <g id="Design" stroke="none" stroke-width="1" fill="none" fill-rule="evenodd">
        <g id="Files" transform="translate(-71.000000, -447.000000)">
            <g id="Noti-holder-1" transform="translate(40.000000, 418.000000)">
                <g id="Content" transform="translate(32.000000, 30.000000)">
                    <g id="PDF-box">
                        <rect id="Thumbnail" stroke="#E0E0E0" fill="#FFFFFF" x="-0.5" y="-0.5" width="101" height="101" rx="8"></rect>
                        <path d="M68.4,75 L31.6,75 C30.7163444,75 30,74.2836556 30,73.4 L30,26.6 C30,25.7163444 30.7163444,25 31.6,25 L58.95,25 L58.95,34.114 C58.95,35.1832233 59.8167767,36.05 60.886,36.05 L70,36.05 L70,73.4 C70,74.2836556 69.2836556,75 68.4,75 Z M37.2092,57.4 L39.242,57.4 L39.242,54.628 L40.7864,54.628 C42.8588,54.628 44.522,53.5192 44.522,51.3808 L44.522,51.3544 C44.522,49.4668 43.1888,48.16 40.9844,48.16 L37.2092,48.16 L37.2092,57.4 Z M39.242,52.8196 L39.242,49.9948 L40.8128,49.9948 C41.8292,49.9948 42.4628,50.4832 42.4628,51.394 L42.4628,51.4204 C42.4628,52.2124 41.8688,52.8196 40.8524,52.8196 L39.242,52.8196 Z M46.0268,57.4 L49.6304,57.4 C52.5344,57.4 54.5408,55.3804 54.5408,52.78 L54.5408,52.7536 C54.5408,50.1532 52.5344,48.16 49.6304,48.16 L46.0268,48.16 L46.0268,57.4 Z M49.6304,49.9948 C51.2936,49.9948 52.4156,51.1432 52.4156,52.78 L52.4156,52.8064 C52.4156,54.4432 51.2936,55.5652 49.6304,55.5652 L48.0596,55.5652 L48.0596,49.9948 L49.6304,49.9948 Z M56.3492,57.4 L58.382,57.4 L58.382,53.8228 L62.7908,53.8228 L62.7908,51.9748 L58.382,51.9748 L58.382,50.008 L63.3848,50.008 L63.3848,48.16 L56.3492,48.16 L56.3492,57.4 Z M60,33.4 L60,25 L70,35 L61.6,35 C60.7163444,35 60,34.2836556 60,33.4 Z" id="Shape" fill="#E11616" fill-rule="nonzero"></path>
                    </g>
                </g>
            </g>
        </g>
    </g>
</svg>