<?xml version="1.0" standalone="no"?>
<!DOCTYPE svg PUBLIC "-//W3C//DTD SVG 20010904//EN"
 "http://www.w3.org/TR/2001/REC-SVG-20010904/DTD/svg10.dtd">
<svg version="1.0" xmlns="http://www.w3.org/2000/svg"
 width="824.000000pt" height="1280.000000pt" viewBox="0 0 824.000000 1280.000000"
 preserveAspectRatio="xMidYMid meet">
<metadata>
Created by potrace 1.15, written by Peter Selinger 2001-2017
</metadata>
<g transform="translate(0.000000,1280.000000) scale(0.100000,-0.100000)"
fill="#000000" stroke="none">
<path d="M3604 12790 c-870 -73 -1640 -597 -2028 -1380 -237 -478 -313 -994
-226 -1525 151 -925 841 -1708 1740 -1975 56 -16 104 -32 108 -34 17 -10 -71
-1189 -203 -2721 -19 -219 -65 -821 -65 -847 0 -19 -4 -20 -117 -13 -378 21
-641 77 -1258 270 -225 70 -417 120 -544 141 -139 22 -345 15 -446 -16 -192
-60 -355 -189 -510 -406 l-56 -78 33 -19 c18 -10 123 -67 232 -128 868 -479
1501 -982 1913 -1519 109 -143 325 -468 397 -598 32 -59 127 -231 211 -382
181 -326 229 -420 296 -583 110 -267 165 -520 178 -822 l6 -150 1859 -3 1858
-2 -7 557 c-10 794 1 940 91 1181 70 187 165 358 431 780 365 578 528 905 632
1267 74 258 104 453 105 675 1 181 -11 252 -66 410 -94 264 -303 549 -616 836
-147 136 -679 588 -787 669 -205 155 -552 332 -861 439 -659 228 -1192 241
-1405 34 -48 -46 -99 -137 -99 -175 0 -13 -3 -23 -7 -23 -10 0 -7 108 18 720
11 278 24 508 27 511 4 3 43 16 87 28 474 133 950 461 1265 871 148 194 300
473 375 690 184 533 188 1095 11 1625 -301 899 -1083 1547 -2029 1680 -132 18
-411 26 -543 15z m581 -359 c442 -83 805 -269 1119 -571 228 -220 384 -446
502 -726 102 -244 153 -484 161 -761 13 -422 -74 -778 -276 -1136 -95 -170
-205 -313 -355 -463 -235 -235 -491 -399 -788 -505 l-108 -39 0 191 0 190 33
11 c17 6 88 40 157 75 379 192 681 521 843 919 199 485 175 1023 -64 1494
-277 544 -794 900 -1409 971 -129 14 -369 7 -500 -16 -643 -114 -1181 -575
-1389 -1190 -159 -472 -122 -964 105 -1405 202 -391 541 -696 953 -856 l74
-28 -8 -181 c-4 -99 -9 -182 -11 -184 -9 -9 -259 86 -367 140 -232 116 -388
229 -573 413 -249 249 -415 518 -523 842 -78 237 -111 440 -111 689 0 867 523
1653 1326 1991 135 56 311 108 458 134 159 28 167 28 416 25 177 -2 249 -7
335 -24z m-95 -721 c607 -123 1064 -608 1151 -1218 15 -109 6 -393 -16 -492
-41 -184 -115 -358 -217 -512 -71 -107 -219 -264 -323 -343 -66 -51 -220 -145
-237 -145 -5 0 -8 90 -8 199 l0 199 48 36 c27 19 84 72 128 118 208 217 314
479 314 777 0 641 -524 1144 -1165 1118 -290 -12 -541 -122 -746 -326 -203
-204 -313 -455 -326 -743 -7 -148 5 -239 49 -383 73 -242 246 -472 456 -605
l71 -45 -6 -190 c-3 -104 -7 -191 -8 -193 -4 -5 -161 75 -209 106 -287 185
-505 462 -606 771 -55 171 -65 238 -65 456 0 158 4 218 19 285 107 491 433
878 892 1059 107 42 241 76 356 91 113 14 328 4 448 -20z m-619 -751 c-100
-222 -165 -553 -191 -974 -7 -104 -14 -191 -15 -193 -2 -2 -26 25 -54 60 -62
78 -116 185 -142 286 -29 107 -29 277 0 385 40 152 146 315 263 405 53 41 159
104 165 98 2 -2 -10 -32 -26 -67z m793 -13 c136 -97 239 -248 288 -423 32
-116 30 -286 -6 -408 -32 -106 -106 -246 -117 -218 -3 10 -9 63 -13 118 -19
286 -96 659 -180 867 -23 59 -41 108 -38 108 2 0 32 -20 66 -44z"/>
</g>
</svg>
