<?xml version="1.0" encoding="UTF-8"?>
<svg width="20px" height="17px" viewBox="0 0 20 17" version="1.1" xmlns="http://www.w3.org/2000/svg" xmlns:xlink="http://www.w3.org/1999/xlink">
    <title>Questionnaire-icon</title>
    <g id="Welcome" stroke="none" stroke-width="1" fill="none" fill-rule="evenodd">
        <g id="Cards-&amp;-Badges" transform="translate(-474.000000, -4350.000000)" fill="#b0b0b0" fill-rule="nonzero">
            <g id="Questionnaire-icon" transform="translate(474.000000, 4350.000000)">
                <path d="M18.0538462,13.1792308 C18.1384615,13.1338462 18.2230769,13.0930769 18.3061538,13.0615385 L18.93,12.8207692 C19.6569231,12.5407692 19.6676923,12.0546154 18.9538462,11.7415385 L17.5176923,11.1115385 C16.8030769,10.7992308 15.6361538,10.2861538 14.9215385,9.97384615 L13.4853846,9.34384615 C12.77,9.03076923 12.4430769,9.35846154 12.7561538,10.0723077 L13.3869231,11.5092308 C13.6984615,12.2230769 14.2115385,13.3907692 14.5246154,14.1046154 L15.1538462,15.5415385 C15.4676923,16.2553846 15.9530769,16.2438462 16.2338462,15.5169231 L16.4738462,14.8938462 C16.5061538,14.8107692 16.5469231,14.7261538 16.5923077,14.6415385 L18.4830769,16.5323077 L19.9446154,15.0715385 L18.0538462,13.1792308 Z" id="Path"></path>
                <path d="M0.0546153846,1.41307692 L0.0546153846,3.88153846 C0.0546153846,4.44538462 0.512307692,4.90307692 1.07538462,4.90307692 L4.48153846,4.90307692 L4.48153846,0.391538462 L1.07538462,0.391538462 C0.512307692,0.391538462 0.0546153846,0.849230769 0.0546153846,1.41307692 Z M2.26692308,4.21692308 C2.08461538,4.21692308 1.93615385,4.06923077 1.93615385,3.88538462 C1.93615385,3.70384615 2.08384615,3.55461538 2.26692308,3.55461538 C2.45,3.55461538 2.59846154,3.70307692 2.59846154,3.88538462 C2.59769231,4.06923077 2.45,4.21692308 2.26692308,4.21692308 Z M2.26076923,1.07692308 C2.57769231,1.07692308 2.84384615,1.20461538 3.00923077,1.43692308 C3.17538462,1.67153846 3.22076923,1.98461538 3.12615385,2.25615385 C3.06538462,2.43230769 2.94153846,2.57307692 2.82153846,2.70923077 C2.66307692,2.88846154 2.52538462,3.04307692 2.52538462,3.25769231 L2.00846154,3.25769231 C2.00846154,2.84769231 2.24461538,2.58 2.43461538,2.36615385 C2.52461538,2.26384615 2.61076923,2.16692308 2.63846154,2.08692308 C2.67,1.99384615 2.66846154,1.84846154 2.58846154,1.73769231 C2.52076923,1.64230769 2.40923077,1.59384615 2.26076923,1.59384615 C1.94,1.59384615 1.88,1.96846154 1.87461538,2.01076923 L1.36153846,1.94692308 C1.39846154,1.64615385 1.63307692,1.07692308 2.26076923,1.07692308 Z" id="Shape"></path>
                <path d="M17.4215385,3.88153846 L17.4215385,1.41307692 C17.4215385,0.849230769 16.9630769,0.391538462 16.4,0.391538462 L5.58846154,0.391538462 L5.58846154,4.90307692 L16.4,4.90307692 C16.9630769,4.90307692 17.4215385,4.44538462 17.4215385,3.88153846 Z" id="Path"></path>
                <path d="M0.0546153846,6.90230769 L0.0546153846,9.37076923 C0.0546153846,9.93461538 0.512307692,10.3923077 1.07538462,10.3923077 L4.48153846,10.3923077 L4.48153846,5.88076923 L1.07538462,5.88076923 C0.512307692,5.88076923 0.0546153846,6.33692308 0.0546153846,6.90230769 Z M2.26692308,9.70615385 C2.08461538,9.70615385 1.93615385,9.55846154 1.93615385,9.37461538 C1.93615385,9.19230769 2.08384615,9.04384615 2.26692308,9.04384615 C2.45,9.04384615 2.59846154,9.19153846 2.59846154,9.37461538 C2.59769231,9.55846154 2.45,9.70615385 2.26692308,9.70615385 Z M2.26076923,6.56615385 C2.57769231,6.56615385 2.84384615,6.69384615 3.00923077,6.92615385 C3.17615385,7.16 3.22076923,7.47384615 3.12615385,7.74461538 C3.06538462,7.92076923 2.94153846,8.06153846 2.82153846,8.19692308 C2.66384615,8.37692308 2.52538462,8.53230769 2.52538462,8.74692308 L2.00846154,8.74692308 C2.00846154,8.33692308 2.24461538,8.06923077 2.43461538,7.85538462 C2.52461538,7.75230769 2.61076923,7.65538462 2.63846154,7.57615385 C2.67,7.48307692 2.66846154,7.33769231 2.58846154,7.22692308 C2.52153846,7.13153846 2.41076923,7.08307692 2.26153846,7.08307692 C1.94076923,7.08307692 1.88076923,7.45692308 1.87538462,7.5 L1.36153846,7.43615385 C1.39846154,7.13461538 1.63307692,6.56615385 2.26076923,6.56615385 Z" id="Shape"></path>
                <path d="M0.0546153846,12.39 L0.0546153846,14.8592308 C0.0546153846,15.4230769 0.512307692,15.8807692 1.07538462,15.8807692 L4.48153846,15.8807692 L4.48153846,11.3684615 L1.07538462,11.3684615 C0.512307692,11.3684615 0.0546153846,11.8261538 0.0546153846,12.39 Z M2.26692308,15.1953846 C2.08461538,15.1953846 1.93615385,15.0476923 1.93615385,14.8638462 C1.93615385,14.6815385 2.08384615,14.5330769 2.26692308,14.5330769 C2.45,14.5330769 2.59846154,14.6807692 2.59846154,14.8638462 C2.59769231,15.0476923 2.45,15.1953846 2.26692308,15.1953846 Z M2.26076923,12.0546154 C2.57769231,12.0546154 2.84384615,12.1830769 3.00923077,12.4153846 C3.17615385,12.6492308 3.22076923,12.9630769 3.12615385,13.2338462 C3.06538462,13.41 2.94153846,13.55 2.82153846,13.6861538 C2.66384615,13.8653846 2.52538462,14.0215385 2.52538462,14.2361538 L2.00846154,14.2361538 C2.00846154,13.8253846 2.24461538,13.5584615 2.43461538,13.3438462 C2.52461538,13.2415385 2.61076923,13.1446154 2.63846154,13.0646154 C2.67,12.9715385 2.66846154,12.8269231 2.58846154,12.7153846 C2.52153846,12.6207692 2.41076923,12.5715385 2.26153846,12.5715385 C1.94076923,12.5715385 1.88076923,12.9461538 1.87538462,12.9892308 L1.36153846,12.9246154 C1.39846154,12.6238462 1.63307692,12.0546154 2.26076923,12.0546154 Z" id="Shape"></path>
                <path d="M11.9723077,8.89538462 C12.1946154,8.55461538 12.5746154,8.35846154 13.0138462,8.35846154 C13.2669231,8.35846154 13.5423077,8.42307692 13.8315385,8.55 L17.1815385,10.0192308 C17.3284615,9.84230769 17.4207692,9.61846154 17.4207692,9.37 L17.4207692,6.90153846 C17.4207692,6.33692308 16.9623077,5.88 16.3992308,5.88 L5.58846154,5.88 L5.58846154,10.3915385 L11.9523077,10.3915385 C11.6415385,9.66153846 11.7892308,9.17461538 11.9723077,8.89538462 Z" id="Path"></path>
                <polygon id="Path" points="5.58846154 11.3684615 5.58846154 15.8815385 14.3592308 15.8815385 12.3792308 11.3684615"></polygon>
            </g>
        </g>
    </g>
</svg>