<?xml version="1.0" encoding="UTF-8"?>
<svg width="20px" height="23px" viewBox="0 0 20 23" version="1.1" xmlns="http://www.w3.org/2000/svg" xmlns:xlink="http://www.w3.org/1999/xlink">
    <title>Reading-icon</title>
    <g id="Symbols" stroke="none" stroke-width="1" fill="none" fill-rule="evenodd">
        <g id="Reading-inactive" transform="translate(-37.000000, -14.000000)" fill="#B0B0B0" fill-rule="nonzero">
            <g id="Dashbaord" transform="translate(22.000000, 0.000000)">
                <g id="Reading-icon" transform="translate(15.000000, 14.000000)">
                    <path d="M0.558139535,17.744186 L6.62790698,17.744186 L10,22.3255814 L13.372093,17.744186 L19.4418605,17.744186 C19.744186,17.744186 19.9767442,17.5116279 19.9767442,17.2093023 L19.9767442,0.534883721 C19.9767442,0.23255814 19.744186,0 19.4418605,0 L0.558139535,0 C0.255813953,0 0.023255814,0.23255814 0.023255814,0.534883721 L0.023255814,17.2093023 C0.023255814,17.5116279 0.255813953,17.744186 0.558139535,17.744186 Z M14.6046512,4.09302326 L16.7674419,4.09302326 L16.7674419,14 L14.6046512,14 L14.6046512,4.09302326 Z M10.8139535,9.04651163 L12.9767442,9.04651163 L12.9767442,14 L10.8139535,14 L10.8139535,9.04651163 Z M7.02325581,6.81395349 L9.18604651,6.81395349 L9.18604651,14.0232558 L7.02325581,14.0232558 L7.02325581,6.81395349 Z M3.23255814,11.7209302 L5.39534884,11.7209302 L5.39534884,14.0232558 L3.23255814,14.0232558 L3.23255814,11.7209302 Z" id="Shape"></path>
                </g>
            </g>
        </g>
    </g>
</svg>