<?xml version="1.0" encoding="UTF-8"?>
<svg width="30px" height="30px" viewBox="0 0 30 30" version="1.1" xmlns="http://www.w3.org/2000/svg" xmlns:xlink="http://www.w3.org/1999/xlink">
    <title>Google-fit-icon</title>
    <g id="Design" stroke="none" stroke-width="1" fill="none" fill-rule="evenodd">
        <g id="Results-steps" transform="translate(-318.000000, -1031.000000)">
            <g id="Data" transform="translate(38.000000, 457.000000)">
                <g id="List" transform="translate(2.000000, 508.000000)">
                    <g id="Group-11" transform="translate(28.000000, 24.000000)">
                        <g id="Group-10" transform="translate(0.000000, 39.000000)">
                            <g id="Google-fit-icon" transform="translate(250.000000, 3.000000)">
                                <rect id="Rectangle" x="0" y="0" width="30" height="30"></rect>
                                <g id="Group-7" transform="translate(0.000000, 3.000000)" fill-rule="nonzero">
                                    <path d="M2.825,13.225 L4.3125,14.7125 L7.525,11.5125 L6.05,10.025 L6.05,10.025 L5.375,9.35 C4.8375,8.8125 4.55,8.1125 4.55,7.35 C4.55,6.6875 4.775,6.0875 5.1625,5.6125 L5.1625,5.6125 L5.1625,5.6125 L5.1625,5.6125 L5.1625,5.6125 C5.6875,4.95 6.4875,4.525 7.3875,4.525 C8.15,4.525 8.85,4.825 9.4,5.3625 L10.0625,6 L11.55,7.5 L14.775,4.3 L13.275,2.8125 L12.6,2.1625 C11.2625,0.825 9.425,2.72374715e-13 7.3875,2.72374715e-13 C3.3,2.72374715e-13 -1.82076576e-13,3.3 -1.82076576e-13,7.3625 C-1.82076576e-13,8.375 0.2,9.3375 0.575,10.225 C0.95,11.1125 1.4875,11.9 2.1625,12.5625 L2.825,13.225" id="Path" fill="#EA4335"></path>
                                    <polyline id="Path" fill="#FBBC04" points="10.1875 15.275 14.775 10.7125 11.55 7.5 7.525 11.5125 7.525 11.5125 4.3125 14.7125 6.0375 16.45 7.525 17.925 9.075 16.375"></polyline>
                                    <polygon id="Path" fill="#34A853" points="17.975 21.95 25.225 14.7125 22 11.5125 14.7625 18.7375 10.7375 14.725 7.525 17.925 11.55 21.95 11.5375 21.9625 14.7625 25 14.7625 25 14.7625 25 17.9875 21.95 17.9875 21.95"></polygon>
                                    <path d="M27.3625,12.5625 C28.8625,11.0625 29.725,8.7625 29.4875,6.4375 C29.1375,2.9125 26.2125,0.2625 22.6625,0.025 C20.425,-0.125 18.375,0.7125 16.925,2.1625 L11.55,7.5 L14.7625,10.7125 L20.1375,5.3625 C20.7875,4.725 21.6875,4.425 22.6125,4.575 C23.8125,4.7625 24.7875,5.75 24.95,6.95 C25.075,7.85 24.775,8.725 24.1375,9.3625 L22,11.5125 L25.225,14.7125 L27.3625,12.5625 Z" id="Path" fill="#4285F4"></path>
                                </g>
                            </g>
                        </g>
                    </g>
                </g>
            </g>
        </g>
    </g>
</svg>