<?xml version="1.0" encoding="UTF-8"?>
<svg width="30px" height="31px" viewBox="0 0 30 31" version="1.1" xmlns="http://www.w3.org/2000/svg" xmlns:xlink="http://www.w3.org/1999/xlink">
    <title>Asclepius</title>
    <g id="Design" stroke="none" stroke-width="1" fill="none" fill-rule="evenodd">
        <g id="Results-steps" transform="translate(-111.000000, -992.000000)" fill="#B0B0B0" fill-rule="nonzero">
            <g id="Data" transform="translate(38.000000, 420.000000)">
                <g id="List" transform="translate(2.000000, 508.000000)">
                    <g id="Group-11" transform="translate(28.000000, 24.000000)">
                        <g id="Group-10" transform="translate(0.000000, 39.000000)">
                            <path d="M53.8606363,1 L53.8606363,8.65334014 L47.3460039,4.6347899 L43,11.6813295 L50.114873,16.0699734 L43,20.4597106 L47.3460039,27.5062502 L53.8600897,23.4866067 L53.8606363,31.1415868 L62.1399103,31.1415868 L62.1393637,23.4866067 L68.6529028,27.5051569 L73,20.459164 L65.885127,16.0699734 L73,11.6818762 L68.6529028,4.63588323 L62.1399103,8.6522468 L62.1399103,1 L53.8606363,1 Z M58.1820402,5.97357775 L58.2142935,7.08932541 C57.99672,7.03848537 57.7731331,7.03520536 57.5626663,7.0762054 L57.5954663,5.97357775 L58.1820402,5.97357775 Z M58.3618937,7.37632567 C58.3700937,7.64528591 58.2367069,7.84645942 57.7414264,7.92244615 C57.2844127,8.07004628 57.4997996,8.51831335 57.7709465,8.67466016 C58.382667,8.97478042 58.8566274,9.27872736 59.113561,9.7373811 C59.2666278,10.1905682 59.1747877,10.5207551 58.8631874,10.741062 C58.8172674,10.7727687 58.7658807,10.7908087 58.707934,10.7995554 L58.5237071,10.7995554 C58.4132804,10.3201283 58.1541601,9.99376799 57.7857065,9.88443456 C56.6945588,9.56026094 56.2222384,8.48277998 57.0039724,7.62779256 C57.3111994,7.29159226 57.8682532,7.17733882 58.3618937,7.37632567 Z M58.2421735,8.00389956 L58.2613069,8.67247349 L57.8835599,8.47348664 L57.8228798,8.42811327 C57.7638398,8.37563322 57.7195598,8.30456649 57.7080797,8.24935311 C57.7037064,8.22967309 57.6944131,8.2012464 57.7419731,8.17172637 L57.8064798,8.14329968 L57.9672,8.11104632 C58.0694267,8.08425963 58.1612668,8.04872627 58.2421735,8.00389956 Z M57.7201064,10.1052881 C57.9836,10.1834615 58.2011735,10.423995 58.2995736,10.8514888 C58.3050403,10.8755421 58.3137869,10.8985021 58.326907,10.9187288 L58.3864937,12.9326506 C57.8507599,12.8074638 57.4101461,12.5915303 57.4101461,12.3192901 L57.4101461,12.2607967 L57.4757462,10.016728 C57.5539196,10.0506214 57.6359197,10.0795947 57.7201064,10.1052881 Z M57.1663326,10.7547287 L57.1663326,12.3192901 C57.1663326,12.8747039 58.0289734,13.1228908 58.5679872,13.2196509 C59.468348,13.382011 60.1768286,13.9417982 60.250082,14.6803455 C60.3304421,15.4894129 59.7006815,16.2000802 58.7593207,16.6122672 L58.7593207,14.9312657 C58.7019206,14.6054521 58.3985204,14.4573053 58.1404935,14.3993586 C56.886439,14.119465 55.6176245,13.3224243 55.8237181,12.1864499 C55.9401582,11.545756 56.3627319,11.0094756 57.1663326,10.7547287 Z M58.0869201,14.6371588 C58.2416269,14.6715988 58.366267,14.7311855 58.4417071,14.8170123 L58.5565072,18.7098291 C58.336747,18.632749 58.1235468,18.5676956 57.9453333,18.5064689 C57.4320128,18.3293487 57.3724261,18.2309486 57.3811728,18.1604286 L57.3828128,18.1309086 L57.3680528,15.94752 C57.3669594,15.8879332 57.3439994,15.8354532 57.3062794,15.7977332 L57.3461861,14.4119319 C57.5916396,14.5075987 57.8431065,14.5830387 58.0869201,14.6371588 Z M57.1515726,15.9497066 L57.1663326,18.1325486 C57.0925325,18.6928824 58.4356937,18.7377091 59.2464011,19.2690696 C60.0068151,19.78075 60.5638689,20.6373775 60.5447356,21.4961916 C60.5234156,22.4960458 60.1642553,23.4559933 58.9222275,24.0196071 C57.5047196,24.5050476 56.5704654,23.9977404 55.8975181,22.9574329 C56.6606655,22.392179 57.573053,22.0893254 58.6866139,22.1456321 C59.1638544,21.5995116 58.9222275,20.9063377 58.0814534,20.508364 C57.0673858,20.0278436 55.5711578,19.5210831 55.4109844,18.3982288 C55.2693976,17.4071213 55.7176646,16.4597471 57.1515726,15.9497066 Z M57.98852,20.7040708 C58.3165203,20.8587777 58.5264405,21.0451912 58.6308539,21.2403513 L58.6483472,21.8138052 C58.6434272,21.8241918 58.6379606,21.8345785 58.6330406,21.8455119 L58.5745472,21.9275119 L58.2695069,21.9242319 C57.8611465,21.9362586 57.4790262,21.998032 57.1209592,22.1024454 L57.1728926,20.3367105 C57.4680929,20.4728306 57.7523598,20.5920041 57.98852,20.7040708 Z M58.8921608,25.414155 C58.8921608,25.9313022 58.4499071,26.3516892 57.9043332,26.3516892 C57.3593061,26.3516892 56.9165057,25.9313022 56.9165057,25.414155 C56.9165057,24.8970079 57.3593061,24.4766209 57.9043332,24.4766209 C58.4499071,24.4766209 58.8921608,24.8970079 58.8921608,25.414155 Z" id="Asclepius"></path>
                        </g>
                    </g>
                </g>
            </g>
        </g>
    </g>
</svg>