<?xml version="1.0" encoding="utf-8"?>
<!-- Generator: Adobe Illustrator 21.1.0, SVG Export Plug-In . SVG Version: 6.00 Build 0)  -->
<svg version="1.1" id="Layer_1" xmlns="http://www.w3.org/2000/svg" xmlns:xlink="http://www.w3.org/1999/xlink" x="0px" y="0px"
	 width="32px" height="32px" viewBox="0 0 32 32" enable-background="new 0 0 32 32" xml:space="preserve">
<path fill="#BBBBBB" d="M29.192,32L29.192,32l-9.049-9.05l-0.575,0.4c-5.886,3.802-13.74,2.113-17.542-3.773
	C-1.22,14.554-0.516,7.946,3.714,3.718C8.67-1.231,16.7-1.226,21.649,3.73c4.198,4.204,4.915,10.758,1.726,15.77l-0.417,0.591
	L32,29.142L29.192,32z M12.7,2.667c-5.532,0-10.017,4.485-10.017,10.017c0,2.657,1.055,5.204,2.934,7.083
	c3.912,3.912,10.255,3.912,14.167,0s3.912-10.255,0-14.167l0,0C17.909,3.715,15.358,2.659,12.7,2.667z"/>
</svg>
