<?xml version="1.0" encoding="UTF-8"?>
<svg width="40px" height="41px" viewBox="0 0 40 41" version="1.1" xmlns="http://www.w3.org/2000/svg" xmlns:xlink="http://www.w3.org/1999/xlink">
    <title>Setting-icon-menu</title>
    <g id="Design" stroke="none" stroke-width="1" fill="none" fill-rule="evenodd">
        <g id="More-menu" transform="translate(-40.000000, -2365.000000)" fill="#212121" fill-rule="nonzero">
            <g id="Menu-list" transform="translate(0.000000, 263.000000)">
                <g id="Group-2" transform="translate(0.000000, 1260.000000)">
                    <g id="List-Copy-8" transform="translate(0.000000, 802.000000)">
                        <path d="M79.1057606,56.4947424 L74.5647341,55.294782 C74.2864255,54.4900011 73.9563351,53.7040714 73.5765314,52.9419185 L75.9293949,48.9420505 C76.2122355,48.4789541 76.1338554,47.8813061 75.7411658,47.5068038 L72.4706855,44.2127949 C72.0961832,43.8201052 71.4985352,43.7417252 71.0354388,44.0245658 L67.0355708,46.3774293 C66.2734179,45.9976256 65.4874883,45.6675351 64.6827073,45.3892266 L63.5533329,40.8482001 C63.393043,40.3254417 62.8996252,39.9771468 62.3533725,40.0011692 L57.6476455,40.0011692 C57.1054902,40.0045239 56.6329311,40.3709983 56.4947424,40.8952573 L55.294782,45.4362839 C54.4900011,45.7145924 53.7040714,46.0446829 52.9419185,46.4244866 L48.9420505,44.0716231 C48.4789541,43.7887824 47.8813061,43.8671625 47.5068038,44.2598521 L44.2127949,47.5303324 C43.8201052,47.9048347 43.7417252,48.5024827 44.0245658,48.9655791 L46.3774293,52.9654471 C45.9976256,53.7276 45.6675351,54.5135297 45.3892266,55.3183106 L40.8482001,56.4476851 C40.3254417,56.607975 39.9771468,57.1013927 40.0011692,57.6476455 L40.0011692,62.3533725 C40.0045239,62.8955278 40.3709983,63.3680869 40.8952573,63.5062756 L45.4362839,64.706236 C45.7145924,65.5110169 46.0446829,66.2969465 46.4244866,67.0590995 L44.0716231,71.0589674 C43.7887824,71.5220639 43.8671625,72.1197119 44.2598521,72.4942142 L47.5303324,75.7882231 C47.9048347,76.1809127 48.5024827,76.2592928 48.9655791,75.9764522 L52.9654471,73.6235887 C53.7276,74.0033923 54.5135297,74.3334828 55.3183106,74.6117913 L56.4476851,79.1528179 C56.5858738,79.6770769 57.0584329,80.0435513 57.6005882,80.046906 L62.3063152,80.046906 C62.8484705,80.0435513 63.3210296,79.6770769 63.4592183,79.1528179 L64.706236,74.5647341 C65.5110169,74.2864255 66.2969465,73.9563351 67.0590995,73.5765314 L71.0589674,75.9293949 C71.5220639,76.2122355 72.1197119,76.1338554 72.4942142,75.7411658 L75.8117517,72.4236283 C76.2044413,72.049126 76.2828214,71.451478 75.9999808,70.9883815 L73.6471173,66.9885136 C74.026921,66.2263606 74.3570114,65.440431 74.63532,64.6356501 L79.1763465,63.5062756 C79.6726389,63.3423341 80.0057286,62.8760085 79.9999254,62.3533725 L79.9999254,57.6476455 C79.996494,57.1054902 79.6300196,56.6329311 79.1057606,56.4947424 Z M60.000509,67.0590995 C56.1021571,67.0590995 52.9419185,63.8988609 52.9419185,60.000509 C52.9419185,56.1021571 56.1021571,52.9419185 60.000509,52.9419185 C63.8988609,52.9419185 67.0590995,56.1021571 67.0590995,60.000509 C67.0590995,61.8725636 66.3154287,63.6679437 64.9916862,64.9916862 C63.6679437,66.3154287 61.8725636,67.0590995 60.000509,67.0590995 Z" id="Setting-icon-menu"></path>
                    </g>
                </g>
            </g>
        </g>
    </g>
</svg>