<svg width="20" height="17" viewBox="0 0 20 17" fill="none" xmlns="http://www.w3.org/2000/svg">
<path d="M14 0V2.21872C10.7107 3.05439 6.02271 5.29123 4.49993 10C8.30539 6.66048 13.6861 7.02427 14 7.03909V9.25781L20 4.63279L14 0ZM0.999915 1.5001C0.476386 1.5001 0 1.97653 0 2.50001V16.0001C0 16.5237 0.476431 17 0.999915 17H14.5C15.0235 17 15.4999 16.5236 15.4999 16.0001V9.35942L14.6093 10.0468L13.4998 10.9062V14.9999H1.99979V3.49988H8.52303C9.98598 2.5634 11.5387 1.91961 12.9293 1.49983L0.999915 1.5001Z" fill="#0078D3"/>
</svg>
