<?xml version="1.0" encoding="utf-8"?>
<!-- Generator: Adobe Illustrator 24.0.3, SVG Export Plug-In . SVG Version: 6.00 Build 0)  -->
<svg version="1.1" id="Layer_1" xmlns="http://www.w3.org/2000/svg" xmlns:xlink="http://www.w3.org/1999/xlink" x="0px" y="0px"
	 width="40px" height="40px" viewBox="0 0 40 40" enable-background="new 0 0 40 40" xml:space="preserve">
<path id="path-1_1_" fill-rule="evenodd" clip-rule="evenodd" fill="#757575" d="M20,15.182c-2.711,0-4.909,2.198-4.909,4.909
	S17.289,25,20,25s4.909-2.198,4.909-4.909S22.711,15.182,20,15.182L20,15.182z M20,28.273c-4.519,0-8.182-3.663-8.182-8.182
	s3.663-8.182,8.182-8.182s8.182,3.663,8.182,8.182S24.519,28.273,20,28.273L20,28.273z M20,7.818c-8.182,0-15.169,5.089-18,12.273
	c2.831,7.184,9.818,12.273,18,12.273s15.169-5.089,18-12.273C35.169,12.907,28.182,7.818,20,7.818z"/>
</svg>
