<?xml version="1.0" encoding="utf-8"?>
<!-- Generator: Adobe Illustrator 24.0.3, SVG Export Plug-In . SVG Version: 6.00 Build 0)  -->
<svg version="1.1" id="Layer_1" xmlns="http://www.w3.org/2000/svg" xmlns:xlink="http://www.w3.org/1999/xlink" x="0px" y="0px"
	 width="28px" height="28px" viewBox="0 0 28 28" enable-background="new 0 0 28 28" xml:space="preserve">
<g id="Sync-Icon" transform="translate(266.000000, 11.000000)">
	<path id="Path_54" fill="#FFFFFF" d="M-240.812-1.515c-0.135,0.007-0.271-0.009-0.4-0.049l-5.339-1.66
		c-0.595-0.185-0.927-0.818-0.742-1.412s0.818-0.927,1.412-0.741l4.176,1.3l0.956-4.153c0.091-0.393,0.384-0.708,0.77-0.826
		c0.386-0.118,0.805-0.021,1.1,0.254c0.295,0.275,0.421,0.686,0.33,1.079l-1.23,5.337c-0.113,0.488-0.534,0.844-1.034,0.873V-1.515z
		"/>
	<path id="Path_55" fill="#FFFFFF" d="M-264.587,4.91c-0.725,0.042-1.348-0.512-1.39-1.237c-0.366-6.287,3.55-12.031,9.536-13.988
		c5.986-1.957,12.539,0.364,15.957,5.653c0.377,0.609,0.198,1.408-0.404,1.797c-0.601,0.389-1.404,0.226-1.805-0.367
		c-2.77-4.284-8.079-6.165-12.928-4.579c-4.849,1.585-8.022,6.238-7.728,11.331c0.02,0.349-0.099,0.691-0.331,0.951
		C-263.912,4.732-264.238,4.89-264.587,4.91L-264.587,4.91z"/>
	<path id="Path_56" fill="#FFFFFF" d="M-263.795,16.022h-0.08c-0.62-0.043-1.088-0.58-1.047-1.2l0.39-5.577
		c0.022-0.313,0.174-0.603,0.418-0.8s0.56-0.283,0.871-0.237l5.42,0.795c0.403,0.054,0.745,0.32,0.897,0.697
		c0.152,0.377,0.089,0.806-0.165,1.124c-0.253,0.318-0.658,0.475-1.059,0.411l-4.217-0.618l-0.3,4.363
		C-262.712,15.569-263.204,16.024-263.795,16.022L-263.795,16.022z"/>
	<path id="Path_57" fill="#FFFFFF" d="M-252.497,16.736c-4.377,0.017-8.501-2.049-11.107-5.565
		c-0.382-0.581-0.246-1.358,0.309-1.775c0.555-0.417,1.34-0.331,1.791,0.197c2.897,3.878,7.952,5.465,12.546,3.938
		s7.693-5.823,7.693-10.664c0.02-0.712,0.603-1.28,1.316-1.28c0.713,0,1.296,0.567,1.315,1.28
		C-238.642,10.521-244.843,16.725-252.497,16.736L-252.497,16.736z"/>
</g>
</svg>
