<?xml version="1.0" encoding="UTF-8"?>
<svg width="40px" height="40px" viewBox="0 0 40 40" version="1.1" xmlns="http://www.w3.org/2000/svg" xmlns:xlink="http://www.w3.org/1999/xlink">
    <title>Task-icon</title>
    <g id="Design" stroke="none" stroke-width="1" fill="none" fill-rule="evenodd">
        <g id="More-menu" transform="translate(-50.000000, -1023.000000)">
            <g id="Menu-list" transform="translate(0.000000, 263.000000)">
                <g id="List-Copy-4" transform="translate(0.000000, 720.000000)">
                    <g id="Task-icon" transform="translate(50.000000, 40.000000)">
                        <rect id="Rectangle" x="0" y="0" width="40" height="40"></rect>
                        <g id="Group-3" transform="translate(3.000000, 0.000000)" fill="#212121" fill-rule="nonzero">
                            <path d="M24,28.4444444 C23.0181604,28.4444444 22.2222222,29.2403827 22.2222222,30.2222222 L22.2222222,38.7431111 L32.5208889,28.4444444 L24,28.4444444 Z" id="Path"></path>
                            <circle id="Oval" cx="16.8888889" cy="2.66666667" r="2.66666667"></circle>
                            <path d="M2.48689958e-14,5.33333333 L2.48689958e-14,38.2222222 C2.48689958e-14,39.2040618 0.795938222,40 1.77777778,40 L20.4444444,40 L20.4444444,30.2222222 C20.4444444,28.2585431 22.0363209,26.6666667 24,26.6666667 L33.7777778,26.6666667 L33.7777778,5.33333333 C33.7777778,4.35149378 32.9818396,3.55555556 32,3.55555556 L21.2444444,3.55555556 C20.8238289,5.62695465 19.0025614,7.11556676 16.8888889,7.11556676 C14.7752164,7.11556676 12.9539489,5.62695465 12.5333333,3.55555556 L1.77777778,3.55555556 C0.795938222,3.55555556 2.48689958e-14,4.35149378 2.48689958e-14,5.33333333 Z M4.44444444,9.77777778 L10.6666667,9.77777778 C11.1575864,9.77777778 11.5555556,10.1757469 11.5555556,10.6666667 C11.5555556,11.1575864 11.1575864,11.5555556 10.6666667,11.5555556 L4.44444444,11.5555556 C3.95352471,11.5555556 3.55555556,11.1575864 3.55555556,10.6666667 C3.55555556,10.1757469 3.95352471,9.77777778 4.44444444,9.77777778 Z M4.44444444,14.2222222 L26.6666667,14.2222222 C27.1575864,14.2222222 27.5555556,14.6201914 27.5555556,15.1111111 C27.5555556,15.6020308 27.1575864,16 26.6666667,16 L4.44444444,16 C3.95352471,16 3.55555556,15.6020308 3.55555556,15.1111111 C3.55555556,14.6201914 3.95352471,14.2222222 4.44444444,14.2222222 Z M4.44444444,18.6666667 L26.6666667,18.6666667 C27.1575864,18.6666667 27.5555556,19.0646358 27.5555556,19.5555556 C27.5555556,20.0464753 27.1575864,20.4444444 26.6666667,20.4444444 L4.44444444,20.4444444 C3.95352471,20.4444444 3.55555556,20.0464753 3.55555556,19.5555556 C3.55555556,19.0646358 3.95352471,18.6666667 4.44444444,18.6666667 Z M4.44444444,23.1111111 L26.6666667,23.1111111 C27.1575864,23.1111111 27.5555556,23.5090803 27.5555556,24 C27.5555556,24.4909197 27.1575864,24.8888889 26.6666667,24.8888889 L4.44444444,24.8888889 C3.95352471,24.8888889 3.55555556,24.4909197 3.55555556,24 C3.55555556,23.5090803 3.95352471,23.1111111 4.44444444,23.1111111 Z M4.44444444,31.1111111 L8,31.1111111 C8.49091973,31.1111111 8.88888889,31.5090803 8.88888889,32 C8.88888889,32.4909197 8.49091973,32.8888889 8,32.8888889 L4.44444444,32.8888889 C3.95352471,32.8888889 3.55555556,32.4909197 3.55555556,32 C3.55555556,31.5090803 3.95352471,31.1111111 4.44444444,31.1111111 Z" id="Shape"></path>
                        </g>
                    </g>
                </g>
            </g>
        </g>
    </g>
</svg>