<?xml version="1.0" encoding="UTF-8"?>
<svg width="30px" height="30px" viewBox="0 0 30 30" version="1.1" xmlns="http://www.w3.org/2000/svg" xmlns:xlink="http://www.w3.org/1999/xlink">
    <title>Trackers-icon</title>
    <g id="Patient" stroke="none" stroke-width="1" fill="none" fill-rule="evenodd">
        <g id="Trackers" transform="translate(-25.000000, -193.000000)">
            <g id="#1-copy" transform="translate(0.000000, 168.000000)">
                <g id="Trackers-icon" transform="translate(25.000000, 25.000000)">
                    <circle id="Oval" fill="#0078D3" cx="15" cy="15" r="15"></circle>
                    <path d="M18.6895817,15.1639344 C18.6895817,14.9839344 18.8095817,14.8639344 18.9895817,14.8639344 L19.9495817,14.8639344 C19.8295817,12.4639344 17.8495817,10.5439344 15.4495817,10.3639344 L15.4495817,11.3239344 C15.4495817,11.5039344 15.3295817,11.6239344 15.1495817,11.6239344 C14.9695817,11.6239344 14.8495817,11.5039344 14.8495817,11.3239344 L14.8495817,10.3639344 C12.4495817,10.4839344 10.5295817,12.4639344 10.3495817,14.8639344 L11.3095817,14.8639344 C11.4895817,14.8639344 11.6095817,14.9839344 11.6095817,15.1639344 C11.6095817,15.3439344 11.5495817,15.4639344 11.3695817,15.4639344 L10.4095817,15.4639344 C10.5295817,17.8639344 12.5095817,19.7839344 14.9095817,19.9639344 L14.9095817,19.0039344 C14.9095817,18.8239344 15.0295817,18.7039344 15.2095817,18.7039344 C15.3895817,18.7039344 15.5095817,18.8239344 15.5095817,19.0039344 L15.5095817,19.9639344 C17.9095817,19.8439344 19.8295817,17.8639344 20.0095817,15.4639344 L19.0495817,15.4639344 C18.8095817,15.4639344 18.6895817,15.2839344 18.6895817,15.1639344 Z M16.0495817,16.0039344 C15.8095817,16.6639344 15.0295817,17.0239344 14.3695817,16.7839344 C13.7095817,16.5439344 13.3495817,15.7639344 13.5895817,15.1039344 C13.7095817,14.7439344 14.0095817,14.5039344 14.3695817,14.3239344 L17.1295817,13.2439344 L16.0495817,16.0039344 Z M15.2095817,7.66393443 C11.0695817,7.66393443 7.70958168,11.0239344 7.70958168,15.1639344 C7.70958168,19.3039344 11.0095817,22.6639344 15.2095817,22.6639344 C19.4095817,22.6639344 22.7095817,19.3039344 22.7095817,15.1639344 C22.7095817,11.0239344 19.3495817,7.66393443 15.2095817,7.66393443 Z M15.2095817,21.1639344 C11.9095817,21.1639344 9.20958168,18.4639344 9.20958168,15.1639344 C9.20958168,11.8639344 11.9095817,9.16393443 15.2095817,9.16393443 C18.5095817,9.16393443 21.2095817,11.8639344 21.2095817,15.1639344 C21.2095817,18.4639344 18.5095817,21.1639344 15.2095817,21.1639344 Z" id="Shape" fill="#FFFFFF" fill-rule="nonzero"></path>
                </g>
            </g>
        </g>
    </g>
</svg>