<?xml version="1.0" encoding="UTF-8"?>
<svg width="599px" height="894px" viewBox="0 0 599 894" version="1.1" xmlns="http://www.w3.org/2000/svg" xmlns:xlink="http://www.w3.org/1999/xlink">
    <title>Update-app</title>
    <g id="Design" stroke="none" stroke-width="1" fill="none" fill-rule="evenodd">
        <g id="Update-app" transform="translate(-75.000000, -221.000000)">
            <g transform="translate(75.000000, 221.000000)">
                <path d="M141.850909,211.21798 C126.196364,201.428081 105.566061,206.181616 95.7741414,221.840202 C85.9842424,237.494747 90.7418182,258.125051 106.396364,267.914949 C122.054949,277.706869 142.683232,272.951313 152.473131,257.294747 C162.26303,241.636162 157.509495,221.009899 141.850909,211.21798 L141.850909,211.21798 Z M179.018586,186.355354 C183.721616,191.379596 187.665051,196.955354 190.806465,202.902828 L209.642828,202.832121 L216.642828,233.201818 L199.677172,241.385657 C199.45697,248.108889 198.353939,254.848283 196.323636,261.428081 L209.691313,274.692727 L193.16202,301.11697 L175.386263,294.908889 C170.36202,299.61596 164.782222,303.557374 158.834747,306.696768 L158.905455,325.535152 L128.537778,332.537172 L120.351919,315.569495 C113.630707,315.349293 106.891313,314.244242 100.311515,312.211919 L87.0488889,325.579596 L60.6185859,309.056364 L66.8307071,291.276566 C62.1236364,286.254343 58.1822222,280.676566 55.0428283,274.727071 L36.2024242,274.797778 L29.200404,244.426061 L46.1721212,236.244242 C46.3923232,229.52303 47.4973737,222.783636 49.5256566,216.203838 L36.1620202,202.939192 L52.6852525,176.512929 L70.4630303,182.72303 C75.4852525,178.01596 81.0670707,174.072525 87.0145455,170.935152 L86.9418182,152.094747 L117.311515,145.094747 L125.495354,162.062424 C132.216566,162.282626 138.95596,163.387677 145.537778,165.41798 L158.800404,152.052323 L185.224646,168.577576 L179.018586,186.355354 Z" id="Fill-1" fill="#CACACA"></path>
                <path d="M176.791111,72.3812121 C168.124444,66.9610101 156.702222,69.5933333 151.28202,78.2620202 C145.859798,86.9307071 148.494141,98.3509091 157.162828,103.771111 C165.831515,109.191313 177.251717,106.55899 182.671919,97.890303 C188.092121,89.2216162 185.459798,77.8034343 176.791111,72.3812121 L176.791111,72.3812121 Z M197.368889,58.6155556 C199.972929,61.3973737 202.154747,64.4862626 203.896162,67.7771717 L214.324444,67.7387879 L218.199192,84.5529293 L208.805253,89.0842424 C208.68404,92.8054545 208.073939,96.5367677 206.948687,100.179192 L214.350707,107.524646 L205.199192,122.152929 L195.356768,118.716566 C192.574949,121.322626 189.488081,123.504444 186.193131,125.243838 L186.233535,135.674141 L169.421414,139.548889 L164.888081,130.154949 C161.166869,130.033737 157.435556,129.419596 153.793131,128.296364 L146.449697,135.698384 L131.817374,126.546869 L135.255758,116.704444 C132.649697,113.924646 130.467879,110.835758 128.730505,107.542828 L118.298182,107.581212 L114.423434,90.7670707 L123.819394,86.2357576 C123.940606,82.5165657 124.552727,78.7852525 125.67596,75.1408081 L118.27596,67.7973737 L127.425455,53.1670707 L137.267879,56.6054545 C140.049697,53.9993939 143.138586,51.8155556 146.431515,50.0781818 L146.391111,39.6478788 L163.203232,35.7711111 L167.736566,45.1670707 C171.457778,45.2882828 175.189091,45.900404 178.831515,47.0236364 L186.174949,39.6236364 L200.805253,48.7731313 L197.368889,58.6155556 Z" id="Fill-3" fill="#CACACA"></path>
                <path d="M51.0711111,89.6969697 C51.0892929,89.6686869 51.3761616,89.830303 51.9115152,90.1656566 C52.4529293,90.4909091 53.2064646,91.0585859 54.0610101,91.9070707 C55.76,93.5616162 57.9135354,96.6323232 58.3741414,101.010101 C58.5862626,103.167677 58.390303,105.622222 57.4448485,108.022222 C56.4973737,110.4 54.9337374,112.785859 52.6246465,114.559596 C51.4993939,115.474747 50.190303,116.220202 48.7781818,116.775758 C47.3741414,117.349495 45.8448485,117.715152 44.2670707,117.820202 C41.1135354,118.10101 37.7761616,117.288889 34.9155556,115.535354 C32.0872727,113.731313 29.8953535,111.084848 28.7660606,108.127273 C28.170101,106.662626 27.8286869,105.129293 27.729697,103.612121 C27.6084848,102.09899 27.7094949,100.59798 28.0387879,99.1858586 C28.6206061,96.3313131 30.0832323,93.8808081 31.8044444,91.9878788 C33.549899,90.0888889 35.6711111,88.8383838 37.7054545,88.0828283 C41.8428283,86.5818182 45.5438384,87.1737374 47.7761616,87.9757576 C48.9135354,88.3737374 49.7519192,88.8020202 50.2812121,89.1474747 C50.8185859,89.4808081 51.0892929,89.6686869 51.0711111,89.6969697 C51.0185859,89.7959596 49.9135354,89.0262626 47.6610101,88.3292929 C45.4488889,87.6484848 41.8670707,87.1959596 37.9418182,88.7131313 C36.0105051,89.4727273 34.0145455,90.6969697 32.3842424,92.5212121 C30.7781818,94.3414141 29.4185859,96.6727273 28.8933333,99.369697 C28.5943434,100.70303 28.5115152,102.117172 28.6347475,103.541414 C28.7357576,104.967677 29.0650505,106.410101 29.6307071,107.783838 C30.7034343,110.561616 32.7640404,113.034343 35.4206061,114.729293 C38.1074747,116.373737 41.2307071,117.143434 44.1963636,116.890909 C45.6812121,116.8 47.119596,116.464646 48.4468687,115.931313 C49.780202,115.416162 51.0165657,114.725253 52.0832323,113.868687 C54.2771717,112.218182 55.780202,109.975758 56.7115152,107.733333 C57.6387879,105.470707 57.8650505,103.139394 57.7054545,101.070707 C57.349899,96.8767677 55.3741414,93.8565657 53.7943434,92.1636364 C52.180202,90.4444444 51.0064646,89.7878788 51.0711111,89.6969697" id="Fill-5" fill="#E1E1E1"></path>
                <path d="M67.7446465,78.5434343 C67.7325253,78.5454545 67.7789899,78.3757576 67.8840404,78.0383838 C68.0072727,77.6585859 68.1688889,77.1575758 68.3769697,76.5151515 C68.8456566,75.1171717 69.5163636,73.1131313 70.3850505,70.5171717 L70.4476768,70.6969697 C67.3971717,68.8161616 63.3911111,66.3454545 58.5466667,63.359596 L58.8456566,63.3252525 C57.0517172,65.1494949 55.0557576,67.1777778 52.9224242,69.3474747 L52.8052525,69.4666667 L52.6416162,69.4161616 C49.9264646,68.5919192 46.9183838,68.0525253 43.7244444,67.9575758 L43.5365657,67.9535354 L43.4537374,67.7818182 C42.300202,65.4121212 41.0537374,62.8464646 39.7567677,60.179798 L40.1385859,60.3636364 C35.849697,61.3636364 31.300202,62.4242424 26.5244444,63.5393939 L26.8133333,63.1737374 C26.8294949,65.789899 26.8456566,68.6707071 26.8638384,71.6242424 L26.8658586,71.8606061 L26.6557576,71.9737374 C24.1769697,73.2828283 21.6214141,75.0505051 19.3264646,77.2121212 L19.1466667,77.3818182 L18.9123232,77.3010101 C16.4375758,76.440404 13.710303,75.4929293 10.9325253,74.5272727 L11.4315152,74.3515152 C9.10828283,78.0808081 6.60121212,82.0989899 4.03353535,86.2161616 L3.97090909,85.6686869 C5.83959596,87.5191919 7.89212121,89.5535354 9.97292929,91.6121212 L10.1668687,91.8040404 L10.0860606,92.0666667 C9.25575758,94.759596 8.70424242,97.820202 8.60929293,100.937374 L8.60121212,101.216162 L8.35070707,101.337374 C5.96484848,102.488889 3.36484848,103.745455 0.740606061,105.014141 L0.991111111,104.488889 C1.98707071,108.80202 3.05575758,113.426263 4.13858586,118.111111 L3.6759596,117.745455 C6.34464646,117.735354 9.22545455,117.723232 12.1264646,117.711111 L12.4153535,117.711111 L12.5486869,117.965657 C13.88,120.492929 15.6456566,123.030303 17.7587879,125.280808 L17.7608081,125.282828 L17.7628283,125.284848 C17.8092929,125.49899 17.6618182,124.80404 17.8658586,125.767677 L17.8638384,125.775758 L17.8577778,125.791919 L17.8456566,125.822222 L17.8254545,125.884848 L17.7810101,126.012121 L17.6921212,126.262626 L17.5163636,126.763636 L17.1668687,127.765657 L16.4678788,129.765657 C16.0032323,131.09697 15.5406061,132.422222 15.08,133.741414 L14.8820202,133.183838 C18.8880808,135.690909 22.839596,138.163636 26.7365657,140.6 L26.1527273,140.666667 C28.1567677,138.648485 30.1406061,136.652525 32.1042424,134.674747 L32.3062626,134.472727 L32.5749495,134.557576 C35.48,135.456566 38.4739394,135.949495 41.4416162,136.048485 L41.720404,136.056566 L41.8416162,136.307071 C43.0820202,138.882828 44.3022222,141.418182 45.5062626,143.923232 L44.9971717,143.678788 C49.6476768,142.610101 54.1931313,141.569697 58.6234343,140.551515 L58.2840404,140.979798 C58.2779798,138.113131 58.2719192,135.29697 58.2638384,132.529293 L58.2638384,132.270707 L58.490101,132.151515 C61.2133333,130.719192 63.6820202,128.949495 65.8335354,126.941414 L66.0173737,126.769697 L66.249697,126.852525 C68.9830303,127.812121 71.6315152,128.743434 74.2193939,129.650505 L73.7547475,129.814141 C76.3729293,125.650505 78.8436364,121.721212 81.1951515,117.979798 L81.2476768,118.430303 C79.1446465,116.331313 77.1709091,114.361616 75.2678788,112.462626 L75.120404,112.317172 L75.1810101,112.121212 C76.1385859,109.042424 76.5931313,106.062626 76.700202,103.220202 L76.7062626,103.030303 L76.8759596,102.949495 C79.6476768,101.624242 82.1426263,100.432323 84.500202,99.3050505 L84.3486869,99.6222222 C83.1587879,94.3393939 82.1426263,89.8383838 81.2759596,85.9818182 L81.4820202,86.1474747 C78.110303,86.1353535 75.3426263,86.1272727 73.0335354,86.1191919 L72.9385859,86.1191919 L72.8961616,86.0383838 C71.4779798,83.3151515 70.1042424,81.4808081 69.1729293,80.2929293 C68.7123232,79.7333333 68.3587879,79.3030303 68.0941414,78.9838384 C67.8416162,78.6868687 67.7325253,78.5454545 67.7446465,78.5434343 C67.7567677,78.5414141 67.900202,78.6727273 68.1547475,78.9292929 C68.4133333,79.2020202 68.8032323,79.6141414 69.2941414,80.1939394 C70.269899,81.3535354 71.6941414,83.1717172 73.1668687,85.8949495 L73.0315152,85.8141414 C75.3406061,85.7878788 78.1082828,85.7575758 81.4820202,85.7212121 L81.649697,85.7191919 L81.690101,85.8868687 C82.5971717,89.7333333 83.6537374,94.2262626 84.8961616,99.4969697 L84.9486869,99.7131313 L84.7446465,99.8121212 C82.3951515,100.955556 79.9082828,102.167677 77.1466667,103.511111 L77.3224242,103.240404 C77.2355556,106.135354 76.7911111,109.175758 75.8335354,112.321212 L75.7466667,111.977778 C77.6618182,113.866667 79.6456566,115.826263 81.7587879,117.913131 L81.9668687,118.117172 L81.8113131,118.363636 C79.4779798,122.117172 77.0234343,126.060606 74.4254545,130.234343 L74.2577778,130.50303 L73.9587879,130.39798 C71.3688889,129.49899 68.7143434,128.577778 65.9789899,127.628283 L66.3971717,127.539394 C64.1991919,129.606061 61.6759596,131.428283 58.8880808,132.905051 L59.1163636,132.527273 C59.1305051,135.292929 59.1446465,138.109091 59.1587879,140.977778 L59.1608081,141.327273 L58.8193939,141.406061 C54.3911111,142.432323 49.849697,143.484848 45.2012121,144.561616 L44.849697,144.642424 L44.690101,144.317172 C43.4820202,141.814141 42.2557576,139.280808 41.0133333,136.709091 L41.4113131,136.967677 C38.3628283,136.870707 35.2880808,136.369697 32.300202,135.446465 L32.7688889,135.329293 C30.8052525,137.311111 28.8234343,139.311111 26.8214141,141.331313 L26.5567677,141.59798 L26.2375758,141.39798 C22.3406061,138.963636 18.3870707,136.492929 14.3789899,133.987879 L14.0577778,133.787879 L14.1830303,133.428283 C14.6436364,132.109091 15.1062626,130.783838 15.5709091,129.452525 L16.269899,127.452525 L16.6193939,126.450505 L16.7951515,125.947475 L16.8840404,125.69697 L16.9264646,125.571717 L16.9486869,125.509091 L16.9608081,125.476768 L16.9648485,125.462626 L16.9688889,125.454545 C17.1709091,126.416162 17.0234343,125.721212 17.069899,125.933333 L17.0678788,125.933333 L17.0658586,125.929293 C14.8921212,123.616162 13.0779798,121.006061 11.710303,118.408081 L12.1305051,118.660606 C9.22949495,118.670707 6.34868687,118.680808 3.68,118.690909 L3.30222222,118.692929 L3.21737374,118.323232 C2.13858586,113.636364 1.0759596,109.012121 0.084040404,104.69899 L-0.000808080807,104.335354 L0.334545455,104.173737 C2.96282828,102.909091 5.56484848,101.656566 7.95070707,100.509091 L7.69010101,100.907071 C7.79313131,97.7050505 8.36484848,94.5656566 9.22343434,91.8 L9.33656566,92.2545455 C7.26181818,90.189899 5.21333333,88.1515152 3.34868687,86.2969697 L3.09616162,86.0464646 L3.2840404,85.7474747 C5.86383838,81.6363636 8.3789899,77.6242424 10.7143434,73.9030303 L10.8921212,73.6161616 L11.2133333,73.7272727 C13.9870707,74.7030303 16.710303,75.6585859 19.1810101,76.5252525 L18.7668687,76.6141414 C21.1244444,74.4080808 23.7486869,72.6080808 26.2880808,71.2787879 L26.0779798,71.6262626 C26.0739394,68.6727273 26.069899,65.7919192 26.0658586,63.1757576 L26.0658586,62.8747475 L26.3567677,62.8080808 C31.1385859,61.7191919 35.6941414,60.6828283 39.9870707,59.7030303 L40.2517172,59.6444444 L40.3668687,59.8868687 C41.6476768,62.5616162 42.8779798,65.1333333 44.0153535,67.5111111 L43.7446465,67.3333333 C46.9971717,67.4505051 50.0537374,68.0222222 52.8072727,68.8848485 L52.5264646,68.9535354 C54.68,66.8040404 56.6921212,64.7939394 58.5022222,62.9858586 L58.6416162,62.8484848 L58.8032323,62.9515152 C63.6072727,65.9979798 67.5810101,68.5191919 70.6092929,70.4383838 L70.7123232,70.5050505 L70.6719192,70.6181818 C69.7466667,73.1656566 69.0315152,75.1313131 68.5325253,76.5050505 C68.2921212,77.1454545 68.1042424,77.6464646 67.9628283,78.0242424 C67.8294949,78.3656566 67.7567677,78.5414141 67.7446465,78.5434343" id="Fill-7" fill="#E1E1E1"></path>
                <path d="M551.340404,2.80363636 L491.944444,2.52888889 C483.978788,2.49454545 477.489899,9.21575758 477.459596,17.5410101 L477.409091,28.3147475 C477.378788,36.6420202 470.889899,43.3632323 462.924242,43.3268687 L347.148485,42.7894949 C339.182828,42.7551515 332.754545,35.9733333 332.788889,27.6460606 L332.835354,16.8723232 C332.869697,8.54505051 326.439394,1.76525253 318.473737,1.72888889 L297.584848,1.63191919 L245.59899,1.39102343 C219.780808,1.27434343 198.756566,22.1127273 198.647475,47.9309091 L195.479355,797.585455 C195.368687,823.391515 216.194949,844.401616 241.99899,844.520808 L547.740404,845.933438 C573.556566,846.052121 594.578788,825.213737 594.689899,799.393535 L597.860007,49.7369697 C597.966667,23.9329293 577.142424,2.92484848 551.340404,2.80363636" id="Fill-10" fill="#FFFFFF"></path>
                <g id="Group-14" transform="translate(194.939394, 0.949495)" fill="#1A2E35">
                    <path d="M356.40101,1.85414141 C356.40101,1.85414141 356.938384,1.86626263 358.00101,1.91474747 C359.055556,2.02181818 360.663636,1.90666667 362.734343,2.30868687 C366.873737,2.81777778 373.166667,4.19151515 380.231313,8.4440404 C383.80101,10.4763636 387.423232,13.3955556 390.849495,17.1268687 C394.261616,20.8622222 397.427273,25.5268687 399.681818,31.1066667 C401.968687,36.670303 403.188889,43.1591919 403.09596,50.0824242 C403.075758,56.9834343 403.051515,64.3309091 403.027273,72.1127273 C402.80303,134.387475 402.479798,224.484444 402.077778,335.813737 C401.641414,447.147071 401.118182,579.712727 400.538384,726.908687 C400.463636,745.308687 400.386869,763.93697 400.310101,782.781414 C400.293939,787.492525 400.273737,792.215758 400.253535,796.953131 C400.182828,801.696566 399.857576,806.563232 398.411111,811.169293 C397.047475,815.777374 395.122222,820.266263 392.40303,824.284444 C389.69596,828.296566 386.409091,831.922828 382.649495,835.017778 C375.045455,841.070303 365.534343,844.910707 355.689899,845.357172 C353.225253,845.518788 350.792929,845.484243 348.356566,845.470303 L341.029293,845.43596 C336.140404,845.413737 331.237374,845.393535 326.322222,845.369293 C306.667677,845.280404 286.823232,845.191515 266.79899,845.100606 C226.754545,844.918788 186.00101,844.734949 144.643434,844.545051 C123.962626,844.450101 103.132323,844.355152 82.1626263,844.258182 C71.679798,844.211717 61.1606061,844.161212 50.6090909,844.114747 C40.0252525,844.609697 29.089899,841.779394 20.279798,835.609697 C11.4313131,829.486465 4.92020202,820.248081 1.90606061,810.017778 C0.283838384,804.916768 0.00303030303,799.486465 0.0222516875,794.23596 C0.0454545455,788.975354 0.0696969697,783.720808 0.0898989899,778.478384 C0.180808081,757.502626 0.26969697,736.664242 0.356565657,715.979394 C0.534343434,674.609697 0.71010101,633.846061 0.881818182,593.791515 C1.23131313,513.680404 1.56666667,436.407677 1.88989899,362.799596 C2.21717172,289.189495 2.52828283,219.24202 2.82121212,153.779394 C2.96868687,121.048081 3.11414141,89.4379798 3.25151515,59.0521212 C3.26969697,55.2561616 3.28585859,51.4763636 3.3040404,47.7167677 C3.33636364,45.8339394 3.47979798,43.9369697 3.58888889,42.0581818 C3.92424242,40.2036364 4.07575758,38.3167677 4.56464646,36.5046465 C6.3,29.2076768 9.70606061,22.3874747 14.4515152,16.7793939 C19.2333333,11.2036364 25.2212121,6.79353535 31.8010101,3.91878788 C38.3787879,0.981414141 45.5888889,-0.0347474747 52.5545455,0.0699808001 C66.4717172,0.149090909 80.0555556,0.217777778 93.2959596,0.284444444 C99.9161616,0.318787879 106.449495,0.351111111 112.89596,0.385454545 C116.118182,0.401616162 119.320202,0.417777778 122.49798,0.433939394 C125.70404,0.290505051 129.019192,1.17737374 131.639394,3.02585859 C134.259596,4.87434343 136.269697,7.53090909 137.29596,10.5167677 C138.475758,13.5046465 138.180808,16.7268687 138.205051,19.7228283 C138.19697,21.2440404 138.188889,22.7612121 138.182828,24.2723232 C138.180808,25.7874747 138.120202,27.2905051 138.310101,28.7389899 C138.673737,31.6480808 139.891919,34.4379798 141.788889,36.6177778 C143.647475,38.8278788 146.20303,40.4137374 148.954545,41.1046465 C150.340404,41.4581818 151.732323,41.5612121 153.184848,41.5389899 C154.625253,41.5450505 156.061616,41.5531313 157.489899,41.5612121 C163.207071,41.5915152 168.831313,41.6218182 174.358586,41.650101 C196.469697,41.7672727 217.047475,41.8783838 235.988889,41.9773737 C245.457576,42.029899 254.518182,42.0783838 263.160606,42.1268687 C265.306061,42.0965657 267.479798,42.2420202 269.530303,42.070303 C271.594949,41.8420202 273.566667,41.1389899 275.283838,40.070303 C278.736364,37.9410101 281.087879,34.3935354 281.893939,30.6460606 C282.330303,28.7692929 282.263636,26.8561616 282.283838,24.9612121 C282.291919,23.070303 282.30202,21.2076768 282.314141,19.3713131 C282.344444,17.5450505 282.239394,15.7127273 282.578788,13.9288889 C282.889899,12.1551515 283.5,10.4642424 284.354545,8.9430303 C286.047475,5.88242424 288.782828,3.57535354 291.819192,2.39555556 C294.883838,1.07838384 298.138384,1.49252525 301.087879,1.4420202 C313.069697,1.51676768 323.207071,1.58141414 331.405051,1.63393939 C339.594949,1.69252525 345.839394,1.7389899 350.047475,1.77131313 C354.249495,1.80767677 356.40101,1.85414141 356.40101,1.85414141 C356.40101,1.85414141 354.249495,1.88040404 350.047475,1.87838384 C345.839394,1.87030303 339.594949,1.86020202 331.405051,1.84606061 C323.207071,1.81979798 313.067677,1.79151515 301.087879,1.75515152 C298.110101,1.81171717 294.914141,1.41575758 291.942424,2.70868687 C288.982828,3.87030303 286.316162,6.12686869 284.669697,9.12080808 C283.839394,10.6076768 283.247475,12.260202 282.948485,13.9915152 C282.619192,15.7208081 282.724242,17.5329293 282.7,19.3713131 C282.693939,21.209697 282.687879,23.0723232 282.679798,24.9632323 C282.665657,26.84 282.738384,28.799596 282.291919,30.7329293 C281.473737,34.5834343 279.067677,38.2359596 275.512121,40.44 C273.744444,41.5430303 271.708081,42.2743434 269.578788,42.5107071 C267.427273,42.6925253 265.326263,42.5490909 263.156566,42.5814141 C254.516162,42.5490909 245.455556,42.5147475 235.986869,42.4783838 C217.045455,42.4056566 196.467677,42.3248485 174.356566,42.2379798 C168.829293,42.2157576 163.205051,42.1935354 157.487879,42.1713131 C156.057576,42.1652525 154.623232,42.1591919 153.180808,42.1531313 C151.752525,42.1773737 150.233333,42.0723232 148.80303,41.7066667 C145.924242,40.9854545 143.253535,39.3309091 141.312121,37.0278788 C139.330303,34.7571717 138.057576,31.850101 137.675758,28.819798 C137.475758,27.2905051 137.538384,25.7713131 137.538384,24.2682828 C137.544444,22.7591919 137.548485,21.2420202 137.554545,19.7208081 C137.528283,16.6743434 137.809091,13.5834343 136.675758,10.7349495 C135.689899,7.87434343 133.758586,5.3389899 131.257576,3.57535354 C128.730303,1.81373737 125.647475,0.973333333 122.49596,1.11272727 C119.316162,1.10060606 116.116162,1.08848485 112.891919,1.07434343 C106.445455,1.04808081 99.9141414,1.01979798 93.2919192,0.991515152 C80.0535354,0.936969697 66.4676768,0.88040404 52.5525253,0.821818182 C45.6333333,0.718787879 38.5848485,1.72282828 32.1040404,4.61777778 C25.6333333,7.45212121 19.7464646,11.7955556 15.0474747,17.2824242 C10.3828283,22.8016162 7.04141414,29.5107071 5.34040404,36.6844444 C4.85959596,38.4662626 4.71616162,40.3228283 4.38282828,42.1450505 C4.27979798,43.9975758 4.14040404,45.8440404 4.10808081,47.7208081 C4.09191919,51.4783838 4.07777778,55.2581818 4.06363636,59.0561616 C3.94444444,89.4420202 3.82121212,121.052121 3.69393939,153.783434 C3.43131313,219.246061 3.15252525,289.193535 2.85757576,362.803636 C2.55656566,436.413737 2.23939394,513.684444 1.91212121,593.795556 C1.74646465,633.850101 1.57676768,674.615758 1.4030303,715.985455 C1.31616162,736.670303 1.22929293,757.508687 1.14040404,778.484444 C1.12020202,783.726869 1.0979798,788.979394 1.07575758,794.24 C1.05757576,799.480404 1.32828283,804.714747 2.91616162,809.724848 C5.86363636,819.726869 12.2292929,828.757172 20.8818182,834.747071 C29.5343434,840.777374 40.1040404,843.547071 50.6131313,843.062222 C61.1646465,843.112727 71.6838384,843.159192 82.1686869,843.209697 C103.138384,843.306667 123.968687,843.401616 144.647475,843.498586 C186.007071,843.692525 226.758586,843.884444 266.80303,844.070303 C286.827273,844.165253 306.673737,844.258182 326.328283,844.351111 C331.241414,844.375354 336.144444,844.397576 341.035354,844.419798 L348.360606,844.456162 C350.80101,844.474343 353.241414,844.504646 355.633333,844.345051 C365.269697,843.914747 374.572727,840.157172 382.019192,834.23596 C385.69798,831.205657 388.918182,827.658182 391.568687,823.730909 C394.233333,819.799596 396.116162,815.405657 397.449495,810.898586 C398.869697,806.375354 399.186869,801.656162 399.261616,796.949091 C399.281818,792.213737 399.30202,787.488485 399.322222,782.777374 C399.405051,763.932929 399.487879,745.304646 399.568687,726.904646 C400.233333,579.708687 400.831313,447.145051 401.334343,335.809697 C401.875758,224.482424 402.314141,134.385455 402.617172,72.1107071 C402.657576,64.3288889 402.69798,56.9814141 402.734343,50.080404 C402.843434,43.1915152 401.647475,36.7612121 399.390909,31.2258586 C397.166667,25.6763636 394.035354,21.029899 390.653535,17.3026263 C387.259596,13.5834343 383.665657,10.6622222 380.122222,8.62585859 C373.108081,4.36323232 366.845455,2.95717172 362.720202,2.41373737 C360.655556,1.99555556 359.051515,2.09454545 357.99899,1.96929293 C356.938384,1.90060606 356.40101,1.85414141 356.40101,1.85414141" id="Fill-12"></path>
                </g>
                <path d="M496.447677,238.841818 L491.855758,233.391313 L505.522424,226.070101 L442.069899,204.593333 L463.546667,266.094343 L471.354747,255.843838 C471.354747,255.843838 512.411313,328.088283 471.354747,372.009495 C430.58101,415.625657 382.522424,406.177172 382.522424,406.177172 L391.797172,436.437778 C391.797172,436.437778 467.449697,441.807475 507.962828,373.474141 C548.473939,305.140808 496.447677,238.841818 496.447677,238.841818" id="Fill-15" fill="#87DDFF"></path>
                <path d="M306.177778,390.42303 L310.769697,395.873535 L297.10303,403.194747 L360.555556,424.671515 L339.080808,363.170505 L331.270707,373.42101 C331.270707,373.42101 290.214141,301.176566 331.270707,257.255354 C372.044444,213.639192 420.10303,223.087677 420.10303,223.087677 L410.830303,192.827071 C410.830303,192.827071 335.175758,187.457374 294.662626,255.790707 C254.151515,324.12404 306.177778,390.42303 306.177778,390.42303" id="Fill-17" fill="#87DDFF"></path>
                <path d="M413.43596,294.853131 C403.302626,288.517778 389.949091,291.592525 383.611717,301.727879 C377.274343,311.863232 380.355152,325.214747 390.486465,331.552121 C400.621818,337.889495 413.975354,334.810707 420.310707,324.677374 C426.648081,314.54202 423.571313,301.190505 413.43596,294.853131 L413.43596,294.853131 Z M437.492525,278.760202 C440.53697,282.012727 443.090505,285.622828 445.124848,289.471313 L457.316768,289.424848 L461.848081,309.083434 L450.864242,314.380404 C450.722828,318.731919 450.009697,323.093535 448.694545,327.352121 L457.347071,335.93798 L446.648081,353.04303 L435.14101,349.024848 C431.890505,352.071313 428.280404,354.622828 424.427879,356.653131 L424.474343,368.849091 L404.817778,373.380404 L399.518788,362.398586 C395.169293,362.255152 390.807677,361.54 386.547071,360.224848 L377.963232,368.877374 L360.856162,358.180404 L364.876364,346.673333 C361.829899,343.422828 359.278384,339.810707 357.248081,335.962222 L345.050101,336.006667 L340.520808,316.348081 L351.504646,311.053131 C351.648081,306.701616 352.363232,302.34 353.674343,298.081414 L345.025859,289.495556 L355.720808,272.388485 L367.227879,276.408687 C370.478384,273.362222 374.090505,270.810707 377.94101,268.778384 L377.894545,256.584444 L397.551111,252.051111 L402.850101,263.03697 C407.199596,263.178384 411.561212,263.893535 415.821818,265.208687 L424.407677,256.556162 L441.508687,267.251111 L437.492525,278.760202 Z" id="Fill-23" fill="#0079D7"></path>
                <path d="M413.43596,294.853131 C403.302626,288.517778 389.949091,291.592525 383.611717,301.727879 C377.274343,311.863232 380.355152,325.214747 390.486465,331.552121 C400.621818,337.889495 413.975354,334.810707 420.310707,324.677374 C426.648081,314.54202 423.571313,301.190505 413.43596,294.853131" id="Fill-25" fill="#FFFFFF"></path>
                <path d="M569.060404,75.5377778 C569.062424,75.749899 560.874545,75.990303 550.773535,76.0751515 C540.670505,76.1579798 532.482626,76.0529293 532.482626,75.8387879 C532.480606,75.6266667 540.664444,75.3862626 550.767475,75.3034343 C560.866465,75.2185859 569.058384,75.3236364 569.060404,75.5377778" id="Fill-27" fill="#1A2E35"></path>
                <path d="M569.137374,84.8969697 C569.139394,85.1090909 560.951515,85.3494949 550.852525,85.4343434 C540.749495,85.5171717 532.561616,85.4121212 532.559596,85.1979798 C532.557576,84.9858586 540.741414,84.7454545 550.844444,84.6626263 C560.945455,84.5777778 569.135354,84.6848485 569.137374,84.8969697" id="Fill-29" fill="#1A2E35"></path>
                <path d="M569.214344,94.2553535 C569.216364,94.4674747 561.028485,94.709899 550.929495,94.7927273 C540.826465,94.8755556 532.638586,94.7705051 532.636565,94.5583838 C532.634545,94.3442424 540.818384,94.1038384 550.921414,94.0210101 C561.022424,93.9381818 569.212323,94.0432323 569.214344,94.2553535" id="Fill-31" fill="#1A2E35"></path>
                <path d="M236.362424,104.938384 C236.376566,104.924242 236.637172,104.908081 237.12202,104.887879 C237.72202,104.867677 238.41697,104.845455 239.239192,104.817172 C241.235152,104.770707 243.845253,104.708081 247.049293,104.631313 L246.833131,104.851515 C246.804848,103.120202 246.774545,101.229293 246.740202,99.1868687 C246.752323,98.1343434 246.651313,97.1424242 246.754343,95.9282828 C246.964444,94.7141414 248.045253,93.6434343 249.374545,93.520202 C250.633131,93.4939394 251.740202,93.4373737 253.105859,93.5 C254.511919,93.6717172 255.709899,95.0272727 255.667475,96.5181818 C255.695758,99.1585859 255.728081,101.916162 255.760404,104.776768 L255.398788,104.421212 C258.562424,104.388889 261.855354,104.354545 265.251313,104.320202 L264.875556,104.70202 C264.841212,100.734343 264.804848,96.6292929 264.766465,92.4252525 C264.758384,91.3767677 264.748283,90.3343434 264.740202,89.2979798 C264.736162,88.3343434 264.148283,87.689899 263.354343,86.9707071 C261.897778,85.5343434 260.459394,84.1181818 259.047273,82.7262626 C257.637172,81.3343434 256.251313,79.9666667 254.891717,78.6252525 C254.212929,77.9565657 253.542222,77.2919192 252.879596,76.6353535 C252.186667,75.9686869 251.643232,75.279798 250.841212,75.1161616 C250.063434,74.9060606 249.206869,75.0717172 248.580606,75.5464646 C247.982626,76.0515152 247.348283,76.7646465 246.746263,77.3505051 C245.534141,78.5747475 244.354343,79.7646465 243.212929,80.9161616 C240.988687,83.2272727 238.671515,85.3363636 236.988687,87.3323232 C236.277576,88.4333333 236.544242,89.7808081 236.491717,91.0090909 C236.489697,92.2292929 236.487677,93.3868687 236.485657,94.479798 C236.471515,96.6090909 236.459394,98.4737374 236.449293,100.071717 C236.435152,101.50202 236.42101,102.681818 236.408889,103.647475 C236.396768,104.475758 236.380606,104.918182 236.362424,104.938384 C236.344242,104.956566 236.32202,104.550505 236.293737,103.754545 C236.267475,102.80101 236.235152,101.639394 236.194747,100.231313 C236.160404,98.6212121 236.11596,96.740404 236.067475,94.5949495 C236.049293,93.4818182 236.025051,92.3 236.002828,91.0555556 C235.992727,90.4252525 235.984646,89.7787879 235.974397,89.1181818 C235.968485,88.4191919 236.148283,87.6959596 236.51798,87.0555556 C238.340202,84.8212121 240.51596,82.8454545 242.756364,80.4676768 C243.889697,79.3060606 245.059394,78.1080808 246.263434,76.8737374 C246.895758,76.2535354 247.412929,75.6373737 248.164444,74.9909091 C248.952323,74.3848485 250.035152,74.1686869 251.02101,74.4272727 C252.069495,74.659596 252.752323,75.5181818 253.386667,76.120202 C254.053333,76.7727273 254.728081,77.4333333 255.408889,78.1 C256.772525,79.4353535 258.162424,80.7989899 259.578586,82.1868687 C260.992727,83.5767677 262.433131,84.9888889 263.893737,86.4232323 C264.239192,86.7909091 264.655354,87.1 264.992727,87.6151515 C265.311919,88.1060606 265.493737,88.6878788 265.509899,89.2777778 C265.52,90.3181818 265.530101,91.3646465 265.538182,92.4191919 C265.570505,96.6232323 265.600808,100.728283 265.631111,104.69596 L265.635152,105.073737 L265.257374,105.077778 C261.861414,105.09798 258.568485,105.120202 255.404848,105.140404 L255.043232,105.142424 L255.041212,104.782828 C255.027071,101.922222 255.010909,99.1646465 254.998788,96.5222222 C255.039192,95.3323232 254.113939,94.2818182 253.006869,94.130303 C251.873535,94.0717172 250.538182,94.110101 249.433131,94.120202 C248.374545,94.2070707 247.491717,95.0575758 247.309899,96.0353535 C247.214949,97.0252525 247.287677,98.1808081 247.267475,99.1828283 C247.267475,101.225253 247.267475,103.116162 247.269495,104.847475 L247.269495,105.069697 L247.053333,105.067677 C243.794747,105.045455 241.140202,105.025253 239.111919,105.013131 C238.307879,104.99899 237.629091,104.986869 237.043232,104.976768 C236.580606,104.964646 236.348283,104.952525 236.362424,104.938384" id="Fill-33" fill="#1A2E35"></path>
                <path d="M478.482828,96.9521212 C478.482828,97.2430303 447.69899,97.4793939 409.735354,97.4793939 C371.755556,97.4793939 340.977778,97.2430303 340.977778,96.9521212 C340.977778,96.6612121 371.755556,96.4268687 409.735354,96.4268687 C447.69899,96.4268687 478.482828,96.6612121 478.482828,96.9521212" id="Fill-35" fill="#1A2E35"></path>
                <path d="M539.927273,577.048081 C539.927273,577.33899 477.860606,577.575354 401.319192,577.575354 C324.749495,577.575354 262.69899,577.33899 262.69899,577.048081 C262.69899,576.757172 324.749495,576.522828 401.319192,576.522828 C477.860606,576.522828 539.927273,576.757172 539.927273,577.048081" id="Fill-37" fill="#1A2E35"></path>
                <path d="M484.699192,594.042222 C484.699192,594.333131 447.363838,594.569495 401.317374,594.569495 C355.254747,594.569495 317.927475,594.333131 317.927475,594.042222 C317.927475,593.751313 355.254747,593.514949 401.317374,593.514949 C447.363838,593.514949 484.699192,593.751313 484.699192,594.042222" id="Fill-39" fill="#1A2E35"></path>
                <polygon id="Fill-41" fill="#0079D7" points="101.105455 844.353939 88.8327273 889.735758 128.721616 893.376162 137.103434 850.174141"></polygon>
                <polyline id="Fill-43" fill="#FFFFFF" points="88.8323232 889.735556 128.721212 893.37596 129.365657 890.046667 89.9858586 885.042626 88.8747475 889.28303"></polyline>
                <path d="M265.807273,832.177576 L263.136566,872.494747 C263.136566,872.494747 303.265859,885.811919 303.496162,893.310909 L225.092121,893.878586 L226.67596,830.886667 L265.807273,832.177576 Z" id="Fill-45" fill="#0079D7"></path>
                <path d="M225.092525,893.878384 L225.252121,887.528889 L300.977374,889.619798 C300.977374,889.619798 303.496566,890.708687 303.896566,893.878384 L225.092525,893.878384 Z" id="Fill-47" fill="#FFFFFF"></path>
                <path d="M264.39664,854.735152 C264.39664,854.892727 262.877374,855.084646 260.473333,854.595758 C259.275354,854.351313 257.871313,853.914949 256.404646,853.209899 C255.673333,852.856364 254.925859,852.438182 254.186465,851.945253 C253.832929,851.702828 253.412727,851.456364 253.030909,850.989697 C252.618788,850.575556 252.406667,849.555354 252.915758,848.947273 C253.33596,848.357374 254.053131,848.11899 254.618788,848.12298 C255.198586,848.12101 255.663232,848.252323 256.085455,848.371515 C256.952121,848.607879 257.760202,848.92303 258.499596,849.282626 C259.976364,850.007879 261.166263,850.904848 262.047071,851.765455 C263.812727,853.504848 264.390505,854.951313 264.257172,855.02404 C264.081414,855.143232 263.232929,853.92101 261.424848,852.474545 C260.523838,851.753333 259.366263,851.003838 257.984444,850.395758 C257.291515,850.094747 256.54404,849.832121 255.752121,849.634141 C254.927879,849.389697 254.222828,849.361414 253.998586,849.725051 C253.917778,849.864444 253.905657,849.91899 254.071313,850.167475 C254.245051,850.397778 254.574343,850.626061 254.921818,850.866465 C255.600606,851.339192 256.287475,851.753333 256.960202,852.114949 C258.305657,852.836162 259.598586,853.337172 260.709697,853.682626 C262.93596,854.377576 264.408687,854.527071 264.39664,854.735152" id="Fill-49" fill="#1A2E35"></path>
                <path d="M263.881818,855.267677 C263.744444,855.322222 263.027273,853.928283 262.960606,851.445455 C262.932323,850.215152 263.106061,848.730303 263.627273,847.166667 C263.891919,846.386869 264.243434,845.590909 264.69798,844.813131 C265.180808,844.053535 265.772727,843.033333 267.261616,842.908037 C268.037374,842.90202 268.663636,843.526263 268.867677,844.051515 C269.110101,844.588889 269.148485,845.045455 269.227273,845.50202 C269.344444,846.423232 269.3,847.318182 269.148485,848.146465 C268.851515,849.807071 268.128283,851.174747 267.350505,852.148485 C265.758586,854.132323 264.146465,854.542424 264.120202,854.411111 C263.99697,854.215152 265.354545,853.518182 266.584848,851.60303 C267.190909,850.657576 267.742424,849.405051 267.936364,847.952525 C268.037374,847.229293 268.049495,846.459596 267.934343,845.681818 C267.837374,844.845455 267.544444,844.164646 267.229293,844.239394 C266.841414,844.221212 266.158586,844.829293 265.817172,845.483838 C265.394949,846.174747 265.053535,846.883838 264.782828,847.580808 C264.249495,848.982828 263.992929,850.332323 263.90404,851.473737 C263.726263,853.770707 264.091919,855.217172 263.881818,855.267677" id="Fill-51" fill="#1A2E35"></path>
                <polygon id="Fill-53" fill="#2E2847" points="265.809293 481.909091 146.346667 481.010101 88.6193939 860.159596 138.199192 866.452525 201.738586 554.69899 220.756768 867.559596 220.807273 868.490909 274.425455 867.555556"></polygon>
                <path d="M356.556566,307.690505 C356.556566,307.690505 370.534343,286.734949 370.906061,286.551111 C370.906061,286.551111 383.524242,265.302626 387.718182,265.298583 C391.938384,265.294545 390.39899,269.603636 386.067677,277.217778 C382.271717,283.890505 381.885859,288.056162 381.885859,288.056162 L392.249495,294.314747 C392.249495,294.314747 399.170707,291.63596 399.457576,298.088485 C399.554545,300.246061 398.984848,302.916768 398.265657,306.850101 C397.847475,309.147071 396.807071,311.599596 394.639394,310.732929 C393.643434,310.33697 392.833333,309.571313 392.782828,308.13899 C392.649495,304.322828 393.362626,302.922828 392.875758,302.920808 C392.253535,302.918788 385.417172,322.945051 385.417172,322.945051 L356.556566,307.690505 Z" id="Fill-55" fill="#FFBF9D"></path>
                <path d="M384.780202,291.238788 C385.846869,290.507475 386.921616,289.772121 388.105455,289.25899 C389.289293,288.743838 390.606465,288.45899 391.879192,288.671111 C392.679192,288.804444 393.471111,289.15596 393.982222,289.788283 C394.679192,290.65697 394.725657,291.911515 394.378182,292.972121 C394.032727,294.030707 393.349899,294.939798 392.679192,295.826667" id="Fill-57" fill="#FFBF9D"></path>
                <path d="M380.052323,287.011919 C381.062424,286.32303 382.080606,285.628081 383.203838,285.143232 C384.325051,284.658384 385.571515,284.389697 386.779596,284.589697 C387.535152,284.714949 388.286667,285.044242 388.769495,285.642222 C389.430101,286.458384 389.474545,287.642222 389.145253,288.640202 C388.81596,289.636162 386.559394,291.949293 385.92303,292.783636" id="Fill-59" fill="#FFBF9D"></path>
                <path d="M361.427475,295.861212 L341.229495,339.059192 L363.496162,361.816768 L375.100202,329.622828 C375.100202,329.622828 381.318384,330.861212 383.853737,326.73798 C386.68404,322.131919 390.399192,308.826869 390.399192,308.826869 L361.427475,295.861212 Z" id="Fill-61" fill="#FFBF9D"></path>
                <path d="M375.85899,294.669495 C375.640808,294.602828 376.145859,291.709899 378.248889,288.695758 C379.319596,287.204848 380.681212,286.188687 381.709495,285.631111 C382.747879,285.067475 383.452929,284.877576 383.519596,285.000808 C383.711515,285.32404 381.099394,286.614949 379.129697,289.342222 C377.196364,292.091717 376.196364,294.812929 375.85899,294.669495" id="Fill-63" fill="#FF9A6C"></path>
                <path d="M398.266667,294.850101 C398.175758,294.993535 397.484848,294.617778 396.311111,294.413737 C395.155556,294.205657 393.444444,294.23596 391.89899,295.088485 C390.355556,295.945051 389.349495,297.355152 388.618182,298.34303 C387.894949,299.353131 387.418182,299.989495 387.280808,299.912727 C387.155556,299.84202 387.383838,299.086465 387.957576,297.93899 C388.543434,296.827879 389.515152,295.175354 391.371717,294.130909 C393.236364,293.104646 395.260606,293.227879 396.50303,293.666263 C397.779798,294.106667 398.347475,294.749091 398.266667,294.850101" id="Fill-65" fill="#FF9A6C"></path>
                <path d="M390.747071,288.75798 C390.805657,289.085253 388.252121,289.515556 386.001616,291.547879 C383.74101,293.543838 382.633939,295.889293 382.324848,295.735758 C382.078384,295.673131 382.765253,292.972121 385.282424,290.725657 C386.530909,289.626667 387.951111,289.002424 389.001616,288.776162 C390.060202,288.543838 390.730909,288.622626 390.747071,288.75798" id="Fill-67" fill="#FF9A6C"></path>
                <path d="M395.711717,298.088485 C395.996566,297.977374 396.525859,299.654141 395.463232,301.328889 C394.416768,303.013737 392.679394,303.264242 392.653131,302.961212 C392.562222,302.664242 393.74404,302.062222 394.53798,300.747071 C395.376364,299.460202 395.404646,298.132929 395.711717,298.088485" id="Fill-69" fill="#FF9A6C"></path>
                <path d="M356.604848,306.850909 C356.604848,306.850909 355.899798,293.96 359.014949,291.040808 C362.130101,288.121616 371.059394,291.153939 371.059394,291.153939" id="Fill-71" fill="#FFBF9D"></path>
                <path d="M372.322626,285.007475 C372.55899,285.195354 370.490303,288.484242 367.702424,292.352929 C364.914545,296.223636 362.447879,299.227677 362.195354,299.06202 C361.942828,298.896364 364.009495,295.607475 366.815556,291.714545 C369.619596,287.823636 372.086263,284.819596 372.322626,285.007475" id="Fill-73" fill="#FF9A6C"></path>
                <path d="M193.499192,187.271313 L193.190101,287.869293 L236.349697,289.927879 L237.598182,265.459192 C237.598182,265.459192 252.927475,268.501616 256.88101,254.267273 C259.408283,245.172323 258.77798,174.891515 258.77798,174.891515 L193.499192,187.271313 Z" id="Fill-75" fill="#CBCBCB"></path>
                <path d="M264.455758,181.974343 C257.657778,183.919798 256.18101,195.030909 256.18101,195.030909 L245.518384,218.580404 C240.086061,214.327879 232.793131,214.572323 231.413333,224.117778 C230.415354,231.014747 238.991111,232.408687 238.991111,232.408687 C233.999192,240.905657 230.613333,247.778384 223.342626,255.857172 C215.47596,264.604646 211.069899,265.485455 202.536566,265.628889 L193.128485,265.628889 C193.128485,265.628889 188.522424,250.679394 179.995152,213.293535 C170.532525,171.816768 219.57899,177.160202 228.671919,166.572323 C243.48,149.329899 285.88404,175.83899 264.455758,181.974343" id="Fill-77" fill="#2E2847"></path>
                <path d="M180.891717,217.204444 C172.940202,211.86303 172.22303,196.921616 176.861414,187.96202 C181.499798,179.000404 191.261414,172.929697 201.348283,172.733737 C202.697778,172.707475 204.089697,172.772121 205.348283,172.285253 C207.214949,171.566061 208.42303,169.796364 209.643232,168.210505 C216.748283,158.972121 223.732121,149.895354 236.974545,149.897373 C239.126061,149.897373 241.503838,149.897373 245.299798,151.96202 C247.190707,152.990303 249.853333,156.477172 250.299798,158.580202 C252.788687,157.400404 255.32404,156.208485 258.047273,155.796364 C260.770505,155.382222 263.760404,155.85899 265.81697,157.691313 C267.875556,159.521616 268.637172,162.893333 267.039192,165.135758 C271.501818,164.852929 275.732121,168.547879 276.435152,172.96404 C277.138182,177.382222 270.808889,180.485253 270.150303,180.828687 C270.150303,180.828687 273.62303,188.101414 265.340202,192.46101 C262.002828,194.216566 257.667475,192.101414 257.174545,191.846869" id="Fill-79" fill="#2E2847"></path>
                <path d="M147.551515,298.405253 L109.006061,363.138586 C104.692929,370.688081 100.70101,378.740606 96.8909091,387.08404 C93.8181818,395.07798 95.5959596,405.512323 100.959596,412.146667 L99.8707071,410.57899 C104.145455,415.865859 110.579798,418.938586 117.379798,418.938586 L118.377778,418.938586 C127.337374,418.938586 135.446465,413.625455 139.022222,405.407273 L151.406061,386.617374 L147.551515,298.405253 Z" id="Fill-81" fill="#0079D7"></path>
                <path d="M263.856162,286.037374 C253.508687,280.752525 243.292525,279.556566 232.145051,279.233333 C219.165253,278.855556 200.866263,277.039394 186.878384,278.526263 C186.878384,278.526263 147.023838,281.475758 144.256162,308.788889 L149.698586,437.071717 L140.573333,491.425253 L268.296566,495.283838 L267.381414,431.158586 C268.959192,397.794949 265.591515,350.552525 265.591515,350.552525 C267.557172,332.617172 277.371313,324.542424 278.765253,312.881818 C279.997576,302.570707 273.102626,290.760606 263.856162,286.037374" id="Fill-83" fill="#0079D7"></path>
                <path d="M227.857374,438.916768 C227.899798,438.963232 227.257374,439.627879 225.978586,440.694545 C224.701818,441.765253 222.744242,443.195556 220.154343,444.686465 C215.02303,447.682424 207.027071,450.686465 197.829091,450.848081 C188.627071,451.011717 180.530101,448.292525 175.293737,445.480404 C172.653333,444.080404 170.647273,442.722828 169.334141,441.696566 C168.01899,440.674343 167.352323,440.03596 167.392727,439.983434 C167.52,439.807677 170.348283,442.203636 175.643232,444.789495 C180.887677,447.381414 188.829091,449.914747 197.808889,449.755152 C206.786667,449.595556 214.635152,446.787475 219.782626,444.009697 C224.982626,441.23798 227.726061,438.745051 227.857374,438.916768" id="Fill-85" fill="#1A2E35"></path>
                <path d="M144.061414,310.256162 C144.099798,310.256162 144.148283,310.684444 144.208889,311.504646 C144.267475,312.44202 144.338182,313.627879 144.427071,315.088485 C144.578586,318.349091 144.784646,322.819798 145.039192,328.278384 C145.511919,339.547071 146.152323,354.868283 146.861414,371.795556 C147.629091,388.726869 148.32202,404.046061 148.831111,415.310707 C149.109899,420.769293 149.338182,425.23798 149.503838,428.494545 C149.566465,429.955152 149.61697,431.14303 149.657374,432.082424 C149.679596,432.902626 149.673535,433.334949 149.635152,433.338997 C149.596768,433.34101 149.530101,432.914747 149.437172,432.098586 C149.342222,431.163232 149.225051,429.979394 149.077576,428.524848 C148.778586,425.419798 148.447273,420.920808 148.059394,415.357172 C147.303838,404.231919 146.485657,388.846061 145.768485,371.84202 C145.049293,354.846061 144.552323,339.452121 144.267475,328.304646 C144.156364,322.84 144.065455,318.365253 144.000808,315.102626 C143.996768,313.64 143.992727,312.450101 143.988687,311.510707 C143.998788,310.688485 144.02303,310.256162 144.061414,310.256162" id="Fill-87" fill="#1A2E35"></path>
                <path d="M136.064444,317.046914 C136.096768,317.065859 135.945253,317.409293 135.62404,318.047677 C135.236162,318.789091 134.757374,319.700202 134.175556,320.809293 C132.886667,323.189091 130.971515,326.607273 128.512929,330.77697 C123.664444,339.156768 116.373535,350.38101 109.005859,363.138586 C105.325051,369.512323 102.199798,375.821414 99.4947475,381.585051 C96.8139394,387.340606 95.430101,392.991111 95.7816162,397.772929 C96.0543434,402.550707 97.4705051,406.263838 98.7391919,408.605253 C100.005859,410.974949 101.050303,412.07596 100.959394,412.146667 C100.931111,412.170909 100.666465,411.906263 100.185657,411.372929 C99.7230303,410.827475 99.0684848,409.989091 98.3694949,408.815354 C96.9614141,406.492121 95.3917172,402.732525 95.0119192,397.821414 C94.5412121,392.906263 95.9088889,387.015354 98.5755556,381.174949 C101.254343,375.338586 104.351313,369.011313 108.056364,362.595152 C115.454343,349.787071 122.838182,338.647677 127.850303,330.37899 C130.300808,326.352727 132.31697,323.045657 133.807879,320.597172 C134.460404,319.530505 134.995758,318.653737 135.432121,317.938586 C135.813939,317.336566 136.030101,317.029495 136.064444,317.046914" id="Fill-89" fill="#1A2E35"></path>
                <path d="M371.002828,352.26404 L341.447273,332.932727 L322.794747,365.245859 C322.794747,365.245859 296.932121,329.300404 285.186667,308.239798 C274.372525,288.85798 260.386667,283.637778 253.637172,282.231717 C251.643232,281.815556 249.835152,283.476162 250.055354,285.500404 L260.249293,355.397374 C261.532121,359.035758 282.865455,389.96101 294.786667,405.522626 C314.683636,431.496364 343.998788,414.874141 352.049293,396.696364 C358.439192,382.268081 368.384646,360.346869 371.002828,352.26404" id="Fill-91" fill="#0079D7"></path>
                <path d="M331.291111,394.411127 C331.135556,394.417172 330.955758,392.647475 330.725455,389.79899 C330.47899,386.954545 330.188081,383.019192 329.299192,378.792929 C328.410303,374.566667 326.933535,370.922222 325.525455,368.477778 C324.135556,366.017172 322.957778,364.685859 323.089091,364.566667 C323.173939,364.477778 324.57798,365.641414 326.186061,368.075758 C327.808283,370.487879 329.458788,374.227273 330.367879,378.564646 C331.28101,382.89798 331.448687,386.89596 331.497172,389.760606 C331.531515,392.633333 331.436566,394.407071 331.291111,394.411127" id="Fill-93" fill="#1A2E35"></path>
                <path d="M339.943232,379.969997 C339.769495,379.98404 339.628081,378.470909 338.892727,376.186061 C338.157374,373.917374 336.696768,370.872929 334.165455,368.260808 C331.674545,365.616364 328.648283,364.008283 326.306869,363.959798 C323.947273,363.840606 322.638182,364.78404 322.559394,364.620404 C322.448283,364.559798 323.688687,363.27697 326.314949,363.186061 C328.941212,363.030505 332.347273,364.719394 334.953333,367.503232 C337.636162,370.272929 339.068485,373.561818 339.636162,375.973939 C340.205859,378.412323 340.068485,379.969997 339.943232,379.969997" id="Fill-95" fill="#1A2E35"></path>
                <path d="M251.710303,290.86404 C251.734545,290.892323 251.490101,291.175152 251.001212,291.684242 C250.730505,291.96303 250.429495,292.270101 250.094141,292.615556 C249.750707,293.027677 249.374944,293.482222 248.962828,293.979192 C247.322424,296.05596 245.166869,299.338788 243.843636,303.914545 C242.435556,308.441818 241.87798,314.199394 242.722424,320.415556 C243.154747,323.522626 243.916364,326.748889 245.261818,329.870101 C246.568889,333.025657 248.300202,336.154949 250.039596,339.35899 C257.27596,352.06202 264.722424,363.05596 270.110303,370.989293 C272.77899,374.825657 274.972929,377.979192 276.599192,380.316566 C278.142626,382.512525 279.013333,383.714545 278.946667,383.767071 C278.916364,383.791313 278.661818,383.518586 278.203232,382.979192 C277.746667,382.439798 277.08,381.635758 276.257778,380.571111 C274.595152,378.46 272.273939,375.338788 269.47596,371.431717 C263.916364,363.597374 256.360808,352.66404 249.08404,339.894343 C247.332525,336.66404 245.599192,333.518586 244.273939,330.282222 C242.896162,327.047879 242.136566,323.728687 241.724444,320.548889 C240.914343,314.177172 241.568889,308.290303 243.106263,303.686263 C244.556768,299.029697 246.867879,295.730707 248.635556,293.706465 C249.08202,293.225657 249.488081,292.787273 249.857778,292.389293 C250.227475,292.070101 250.554747,291.783232 250.851717,291.524646 C251.393131,291.06202 251.686061,290.835758 251.710303,290.86404" id="Fill-97" fill="#1A2E35"></path>
                <path d="M251.785594,476.572525 C251.797374,476.608889 251.486263,476.742222 250.884242,476.962424 C250.154949,477.214949 249.280202,477.51798 248.227677,477.881616 C247.074141,478.281616 245.651919,478.738182 243.977172,479.184646 C242.304444,479.643232 240.413535,480.21899 238.278182,480.677576 C234.037778,481.72202 228.918586,482.675556 223.191313,483.447273 C217.45798,484.154343 211.116566,484.641212 204.443838,484.685657 C197.771111,484.679596 191.423636,484.229091 185.686263,483.554343 C179.954949,482.814949 174.829697,481.889697 170.583232,480.869495 C168.445859,480.42303 166.550909,479.855354 164.876162,479.408889 C163.197374,478.972525 161.773131,478.52202 160.617576,478.130101 C159.565051,477.774545 158.688283,477.473535 157.95697,477.227071 C157.352929,477.008889 157.043838,476.877576 157.0537,476.841212 C157.066061,476.804848 157.399394,476.867475 158.023636,477.01697 C158.769091,477.208889 159.66202,477.443232 160.738788,477.72202 C161.908485,478.049293 163.344848,478.439192 165.031717,478.81697 C166.712525,479.206869 168.611515,479.72 170.748889,480.113939 C174.995354,481.033131 180.104444,481.873535 185.803434,482.554343 C191.512525,483.168485 197.815556,483.586667 204.441818,483.590707 C211.066061,483.548283 217.365051,483.095758 223.068081,482.447273 C228.76303,481.736162 233.866061,480.867475 238.106465,479.92404 C240.243838,479.51596 242.138788,478.992727 243.819596,478.594747 C245.502424,478.206869 246.936768,477.808889 248.106465,477.473535 C249.179192,477.188687 250.072121,476.950303 250.817576,476.754343 C251.439798,476.600808 251.773131,476.536162 251.785594,476.572525" id="Fill-99" fill="#1A2E35"></path>
                <polygon id="Fill-101" fill="#000000" points="141.754141 401.261818 147.523838 392.310303 144.513737 321.815354"></polygon>
                <path d="M241.374343,317.046667 C241.374343,317.046667 241.562222,342.737576 247.499596,352.913333 C253.43697,363.089091 267.329899,385.08101 267.281541,383.767879 C267.234949,382.454747 266.491515,365.636566 266.491515,365.636566 C266.491515,365.636566 241.495556,331.424444 241.374343,317.046667" id="Fill-103" fill="#000000"></path>
            </g>
        </g>
    </g>
</svg>