<?xml version="1.0" encoding="UTF-8"?>
<svg width="102px" height="102px" viewBox="0 0 102 102" version="1.1" xmlns="http://www.w3.org/2000/svg" xmlns:xlink="http://www.w3.org/1999/xlink">
    <title>Upload-box</title>
    <g id="Design" stroke="none" stroke-width="1" fill="none" fill-rule="evenodd">
        <g id="Add-new-files" transform="translate(-69.000000, -898.000000)">
            <g id="Noti-holder-1" transform="translate(40.000000, 786.000000)">
                <g id="Group" transform="translate(0.000000, 83.000000)">
                    <g id="Content" transform="translate(30.000000, 30.000000)">
                        <g id="Upload-box">
                            <rect id="Rectangle" stroke="#E0E0E0" fill="#FFFFFF" x="0" y="0" width="100" height="100" rx="8"></rect>
                            <path d="M64.0245628,47.7311237 C64.0245628,47.6153983 64.044279,47.4988157 64.044279,47.3830903 C64.1296218,41.1835367 59.1744506,36.0879184 52.974933,36 C48.6674087,36.0274972 44.7701635,38.5604891 42.9959771,42.4857641 C42.203456,42.0752922 41.3245236,41.8595997 40.4320173,41.856561 C37.6143881,41.8905508 35.2347646,43.9575812 34.8069071,46.7427433 C30.8289035,48.1949071 28.4404377,52.2651503 29.1128038,56.4462048 C29.7851699,60.6272592 33.329307,63.7434653 37.5620281,63.8752414 L47.3686817,63.8752414 L47.3686817,56.1310711 L42.7568114,56.1310711 L50.4298321,48.0311524 L58.1028527,56.1233561 L53.4918396,56.1233561 L53.4918396,63.8666692 L64.044279,63.8666692 C68.4027967,63.7268686 71.862234,60.1505101 71.8571429,55.7897539 C71.8520405,51.4289976 68.3842526,47.8607355 64.02542,47.7311237 L64.0245628,47.7311237 Z" id="Path_1" fill="#B0B0B0" fill-rule="nonzero"></path>
                        </g>
                    </g>
                </g>
            </g>
        </g>
    </g>
</svg>