<?xml version="1.0" encoding="UTF-8"?>
<svg width="40px" height="40px" viewBox="0 0 40 40" version="1.1" xmlns="http://www.w3.org/2000/svg" xmlns:xlink="http://www.w3.org/1999/xlink">
    <title>Patient-icon</title>
    <g id="Design" stroke="none" stroke-width="1" fill="none" fill-rule="evenodd">
        <g id="More-menu" transform="translate(-68.000000, -543.000000)">
            <g id="Menu-list" transform="translate(0.000000, 263.000000)">
                <g id="List-Copy" transform="translate(0.000000, 240.000000)">
                    <g id="Patient-icon" transform="translate(68.000000, 40.000000)">
                        <rect id="Rectangle" x="0" y="0" width="40" height="40"></rect>
                        <g transform="translate(0.000000, 1.000000)" fill="#212121" fill-rule="nonzero">
                            <path d="M36.3121951,0.169570267 L26.9184669,0.169570267 C25.5437863,0.169570267 24.4255517,1.28780488 24.4255517,2.66248548 L24.4255517,20.0450639 C24.4255517,20.7317073 24.4264808,21.053194 29.398374,23.8109175 L29.398374,28.7247387 C29.398374,29.1094077 29.7105691,29.4216028 30.0952381,29.4216028 L30.4538908,29.4216028 L30.4538908,35.5400697 L26.912892,35.5400697 L26.912892,27.6199768 C26.912892,23.4397213 23.5247387,20.0506388 19.3440186,20.0506388 L7.80116144,20.0506388 C3.62090592,20.0506388 0.232288037,23.4397213 0.232288037,27.6199768 L0.232288037,37.8629501 L18.8957027,37.8629501 L26.9133566,37.8629501 L31.6157956,37.8629501 C32.2573751,37.8629501 32.7772358,37.3430894 32.7772358,36.7015099 L32.7772358,29.4216028 L33.1354239,29.4216028 C33.5200929,29.4216028 33.832288,29.1094077 33.832288,28.7247387 L33.832288,23.8058072 C38.8041812,21.0346109 38.8055749,20.7358885 38.8055749,20.0445993 L38.8055749,2.66202091 C38.8051103,1.28780488 37.6868757,0.169570267 36.3121951,0.169570267 Z M36.48223,19.5252033 C35.8346109,19.9670151 34.3256678,20.8543554 32.7307782,21.7542393 L30.4915215,21.7542393 C28.8966318,20.8590012 27.3900116,19.9744483 26.7484321,19.533101 L26.7484321,2.66202091 C26.7484321,2.56817654 26.8246225,2.49198606 26.9184669,2.49198606 L36.3121951,2.49198606 C36.4060395,2.49198606 36.48223,2.56817654 36.48223,2.66202091 L36.48223,19.5252033 Z" id="Shape"></path>
                            <circle id="Oval" cx="13.57259" cy="9.88803717" r="7.95586527"></circle>
                            <path d="M35.3319396,9.48524971 L33.1252033,9.48524971 L33.1252033,7.27851336 C33.1252033,7.15029036 33.0211382,7.04622532 32.8929152,7.04622532 L30.3377468,7.04622532 C30.2095238,7.04622532 30.1054588,7.15029036 30.1054588,7.27851336 L30.1054588,9.48524971 L27.899187,9.48524971 C27.770964,9.48524971 27.666899,9.58931475 27.666899,9.71753775 L27.666899,12.2727062 C27.666899,12.4009292 27.770964,12.5049942 27.899187,12.5049942 L30.1054588,12.5049942 L30.1054588,14.7117305 C30.1054588,14.8399535 30.2095238,14.9440186 30.3377468,14.9440186 L32.8929152,14.9440186 C33.0211382,14.9440186 33.1252033,14.8399535 33.1252033,14.7117305 L33.1252033,12.5049942 L35.3319396,12.5049942 C35.4601626,12.5049942 35.5642276,12.4009292 35.5642276,12.2727062 L35.5642276,9.71753775 C35.5642276,9.58885017 35.4601626,9.48524971 35.3319396,9.48524971 Z" id="Path"></path>
                        </g>
                    </g>
                </g>
            </g>
        </g>
    </g>
</svg>