<?xml version="1.0" encoding="UTF-8"?>
<svg width="60px" height="60px" viewBox="0 0 60 60" version="1.1" xmlns="http://www.w3.org/2000/svg" xmlns:xlink="http://www.w3.org/1999/xlink">
    <title>Vitals</title>
    <g id="Welcome" stroke="none" stroke-width="1" fill="none" fill-rule="evenodd">
        <g id="Patient-Summary-vitals" transform="translate(-336.000000, -646.000000)">
            <g id="Cards" transform="translate(320.000000, 228.000000)">
                <g id="Organisation-Card" transform="translate(0.000000, 310.000000)">
                    <g id="Group-4" transform="translate(0.000000, 108.000000)">
                        <g id="Vitals" transform="translate(16.000000, 0.000000)">
                            <circle id="Oval" fill="#FF892B" cx="30" cy="30" r="30"></circle>
                            <path d="M39.9437535,21.2622951 C36.9273601,18.2459016 32.0749011,18.2459016 29.0912945,21.2622951 C26.0749011,18.2459016 21.2224421,18.2459016 18.2388355,21.2622951 C15.3208027,24.1803279 15.2552289,28.9016393 18.0421142,31.9180328 C18.9273601,31.0327869 20.1404748,30.5081967 21.4847371,30.5081967 C24.2060486,30.5081967 26.4027699,32.704918 26.4027699,35.4262295 C26.4027699,36.7704918 25.8453929,38.0163934 24.960147,38.9016393 L29.0912945,43 L39.9437535,32.147541 C42.960147,29.1311475 42.960147,24.2786885 39.9437535,21.2622951 Z M19.4847371,26.8360656 C18.7634257,26.8360656 18.1732617,26.2459016 18.1732617,25.5245902 C18.1732617,24.8032787 19.4847371,23.0327869 19.4847371,23.0327869 C19.4847371,23.0327869 20.7962125,24.8032787 20.7962125,25.5245902 C20.7962125,26.2459016 20.2060486,26.8360656 19.4847371,26.8360656 Z M21.5830978,23.8852459 C21.0257207,23.8852459 20.5667044,23.4262295 20.5667044,22.8688525 C20.5667044,22.3114754 21.5830978,20.9344262 21.5830978,20.9344262 C21.5830978,20.9344262 22.5994912,22.3114754 22.5994912,22.8688525 C22.5994912,23.4590164 22.1404748,23.8852459 21.5830978,23.8852459 Z M23.4191634,35.4262295 C23.4191634,35.3278689 23.4847371,35.2622951 23.5830978,35.2622951 L24.107688,35.2622951 C24.0421142,33.9508197 22.960147,32.9016393 21.6486716,32.8032787 L21.6486716,33.3278689 C21.6486716,33.4262295 21.5830978,33.4918033 21.4847371,33.4918033 C21.3863765,33.4918033 21.3208027,33.4262295 21.3208027,33.3278689 L21.3208027,32.8032787 C20.0093273,32.8688525 18.960147,33.9508197 18.8617863,35.2622951 L19.3863765,35.2622951 C19.4847371,35.2622951 19.5503109,35.3278689 19.5503109,35.4262295 C19.5503109,35.5245902 19.517524,35.5901639 19.4191634,35.5901639 L18.8945732,35.5901639 C18.960147,36.9016393 20.0421142,37.9508197 21.3535896,38.0491803 L21.3535896,37.5245902 C21.3535896,37.4262295 21.4191634,37.3606557 21.517524,37.3606557 C21.6158847,37.3606557 21.6814585,37.4262295 21.6814585,37.5245902 L21.6814585,38.0491803 C22.9929339,37.9836066 24.0421142,36.9016393 24.1404748,35.5901639 L23.6158847,35.5901639 C23.4847371,35.5901639 23.4191634,35.4918033 23.4191634,35.4262295 Z M21.9765404,35.8852459 C21.8453929,36.2459016 21.4191634,36.442623 21.0585076,36.3114754 C20.6978519,36.1803279 20.5011306,35.7540984 20.6322781,35.3934426 C20.6978519,35.1967213 20.8617863,35.0655738 21.0585076,34.9672131 L22.5667044,34.3770492 L21.9765404,35.8852459 Z M21.517524,31.3278689 C19.2552289,31.3278689 17.4191634,33.1639344 17.4191634,35.4262295 C17.4191634,37.6885246 19.2224421,39.5245902 21.517524,39.5245902 C23.812606,39.5245902 25.6158847,37.6885246 25.6158847,35.4262295 C25.6158847,33.1639344 23.7798191,31.3278689 21.517524,31.3278689 Z M21.517524,38.704918 C19.7142453,38.704918 18.2388355,37.2295082 18.2388355,35.4262295 C18.2388355,33.6229508 19.7142453,32.147541 21.517524,32.147541 C23.3208027,32.147541 24.7962125,33.6229508 24.7962125,35.4262295 C24.7962125,37.2295082 23.3208027,38.704918 21.517524,38.704918 Z" id="Shape" fill="#FFFFFF" fill-rule="nonzero"></path>
                        </g>
                    </g>
                </g>
            </g>
        </g>
    </g>
</svg>