<?xml version="1.0" encoding="UTF-8"?>
<svg width="30px" height="30px" viewBox="0 0 30 30" version="1.1" xmlns="http://www.w3.org/2000/svg" xmlns:xlink="http://www.w3.org/1999/xlink">
    <title>Weight-green</title>
    <g id="Welcome" stroke="none" stroke-width="1" fill="none" fill-rule="evenodd">
        <g id="Patient-Summary" transform="translate(-786.000000, -344.000000)">
            <g id="Cards" transform="translate(320.000000, 228.000000)">
                <g id="Patient-info-card">
                    <g id="Profile" transform="translate(30.000000, 30.000000)">
                        <g id="Overview" transform="translate(150.000000, 83.000000)">
                            <g id="Height" transform="translate(286.000000, 0.000000)">
                                <g id="Weight-green" transform="translate(0.000000, 3.000000)">
                                    <circle id="Oval" fill="#D9EFDB" cx="15" cy="15" r="15"></circle>
                                    <path d="M22.0721565,21.257203 L19.2431369,13.0621721 C19.1883817,12.9161582 19.0606195,12.8248995 18.8963538,12.8248995 L17.4909699,12.8248995 L16.7061451,12.8248995 C17.2354456,12.3868577 17.5822286,11.6932916 17.5639769,10.9449703 C17.5274734,9.70385202 16.5236277,8.68175462 15.2825095,8.6269994 C13.9318807,8.57224418 12.8185246,9.64909681 12.8185246,10.9997255 C12.8185246,11.7297951 13.147056,12.3868577 13.6763564,12.8248995 L12.3074759,12.8248995 L11.4678959,12.8248995 C11.321882,12.8248995 11.1758681,12.9161582 11.1211129,13.0621721 L8.27384154,21.257203 C8.18258285,21.4944756 8.36510024,21.75 8.62062459,21.75 L21.7253734,21.75 C21.9808978,21.7317483 22.1634152,21.4944756 22.0721565,21.257203 Z M15.172999,9.99587985 C15.7205512,9.99587985 16.1768447,10.4339216 16.1768447,10.9997255 C16.1768447,11.5655294 15.7205512,11.9853194 15.172999,11.9853194 C14.6254468,11.9853194 14.1691534,11.5472777 14.1691534,10.9814738 C14.1691534,10.4156699 14.6254468,9.99587985 15.172999,9.99587985 Z" id="Shape" fill="#41AD49" fill-rule="nonzero"></path>
                                </g>
                            </g>
                        </g>
                    </g>
                </g>
            </g>
        </g>
    </g>
</svg>