<?xml version="1.0" encoding="utf-8"?>
<!-- Generator: Adobe Illustrator 27.5.0, SVG Export Plug-In . SVG Version: 6.00 Build 0)  -->
<svg version="1.1" id="Layer_1" xmlns="http://www.w3.org/2000/svg" xmlns:xlink="http://www.w3.org/1999/xlink" x="0px" y="0px"
	 viewBox="0 0 200 200" style="enable-background:new 0 0 200 200;" xml:space="preserve">
<style type="text/css">
	.st0{fill:#727271;}
	.st1{fill:#3894B5;}
</style>
<g>
	<path class="st0" d="M128.1,92.6c1.9,0,2.6,0,4,0c8.6,0,15.5,1.7,21.2,7.3c5.7,5.6,8.6,12.7,8.6,21.2c0,8.3-2.9,15.3-8.6,21
		c-5.8,5.8-12.8,8.6-21,8.6c-9.2,0-16.5-2.7-21.8-8.1c-5.3-5.4-8-12.8-8-22.1V92.6l21.4,0l0,26.4c0,3,0.4,5.2,1.9,7
		c1.4,1.8,3.9,3,6.3,3c2.2,0,4.1-0.8,5.7-2.4c1.6-1.6,2.3-3.7,2.3-5.9c-0.1-3.1-1.8-5.1-3.4-6.2c-3.5-2.3-5-1.3-8.5-1.4L128.1,92.6
		L128.1,92.6z"/>
	<path class="st0" d="M72.5,92.6c-1.9,0-2.6,0-4,0c-8.6,0-15.5,1.7-21.2,7.3c-5.7,5.6-8.6,12.7-8.6,21.2c0,8.3,2.9,15.3,8.6,21
		c5.8,5.8,12.8,8.6,21,8.6c9.2,0,16.5-2.7,21.8-8.1c5.3-5.4,8-12.8,8-22.1V92.6l-21.4,0l0,26.4c0,3-0.4,5.2-1.9,7
		c-1.4,1.8-3.9,3-6.3,3c-2.2,0-4.1-0.8-5.7-2.4c-1.6-1.6-2.3-3.7-2.3-5.9c0.1-3.1,1.8-5.1,3.4-6.2c3.5-2.3,5-1.3,8.5-1.4L72.5,92.6
		L72.5,92.6z"/>
	<path class="st0" d="M128.1,88.3c1.9,0,2.6,0,4,0c8.6,0,15.5-1.7,21.2-7.3c5.7-5.6,8.6-12.7,8.6-21.2c0-8.3-2.9-15.3-8.6-21
		c-5.8-5.8-12.8-8.6-21-8.6c-9.2,0-16.5,2.7-21.8,8.1c-5.3,5.4-8,12.8-8,22.1v27.9l21.4,0l0-26.4c0-3,0.4-5.2,1.9-7
		c1.4-1.8,3.9-3,6.3-3c2.2,0,4.1,0.8,5.7,2.4c1.6,1.6,2.3,3.7,2.3,5.9c-0.1,3.1-1.8,5.1-3.4,6.2c-3.5,2.3-5,1.3-8.5,1.4L128.1,88.3
		L128.1,88.3z"/>
	<path class="st1" d="M72.5,88.3c-1.9,0-2.6,0-4,0c-8.6,0-15.5-1.7-21.2-7.3c-5.7-5.6-8.6-12.7-8.6-21.2c0-8.3,2.9-15.3,8.6-21
		c5.8-5.8,12.8-8.6,21-8.6c9.2,0,16.5,2.7,21.8,8.1c5.3,5.4,8,12.8,8,22.1v27.9l-21.4,0l0-26.4c0-3-0.4-5.2-1.9-7
		c-1.4-1.8-3.9-3-6.3-3c-2.2,0-4.1,0.8-5.7,2.4c-1.6,1.6-2.3,3.7-2.3,5.9c0.1,3.1,1.8,5.1,3.4,6.2c3.5,2.3,5,1.3,8.5,1.4L72.5,88.3
		L72.5,88.3z"/>
	<path class="st0" d="M61.9,169.5v-11.4h3.1v4.4h4.2v-4.4h3.1v11.4h-3.1v-4.7h-4.2v4.7H61.9L61.9,169.5z M78,169.5v-11.4h7v2.5h-4v2
		h3.7v2.4H81v1.9h4v2.6H78L78,169.5z M93.3,165.2h3.1l-1.2-3.8c0-0.1-0.1-0.3-0.1-0.6c-0.1-0.3-0.1-0.6-0.2-1
		c-0.1,0.3-0.1,0.5-0.2,0.8c-0.1,0.3-0.1,0.5-0.2,0.7L93.3,165.2L93.3,165.2z M88.9,169.5l3.9-11.4h3.9l4,11.4h-3.1l-0.6-2h-4.4
		l-0.6,2H88.9L88.9,169.5z M105,169.5v-11.4h3.1v8.8h3.9v2.7H105L105,169.5z M117.8,169.5v-8.7h-2.6v-2.7h8.2v2.7h-2.6v8.7H117.8
		L117.8,169.5z M128.2,169.5v-11.4h3.1v4.4h4.2v-4.4h3.1v11.4h-3.1v-4.7h-4.2v4.7H128.2L128.2,169.5z"/>
</g>
</svg>
