<?xml version="1.0" encoding="UTF-8"?>
<svg width="102px" height="102px" viewBox="0 0 102 102" version="1.1" xmlns="http://www.w3.org/2000/svg" xmlns:xlink="http://www.w3.org/1999/xlink">
    <title>Lock-icon-circle</title>
    <g id="Welcome" stroke="none" stroke-width="1" fill="none" fill-rule="evenodd">
        <g id="Sign-in-locked" transform="translate(-669.000000, -396.000000)">
            <g id="Locked">
                <g id="Content" transform="translate(535.000000, 337.000000)">
                    <g id="Portlet_Diagnoses-Copy">
                        <g id="PortletView">
                            <g id="Group-7">
                                <g id="Group-4">
                                    <g id="Lock-icon-circle" transform="translate(135.000000, 60.000000)">
                                        <circle id="Oval" stroke="#212121" cx="50" cy="50" r="50"></circle>
                                        <path d="M50.084063,31 C49.915937,31 49.7478109,31 49.5796848,31 C42.7985989,31.2241681 37.58669,36.9964974 37.58669,43.7775832 L37.58669,47.8126095 L37.3064799,47.8126095 C35.4570928,47.8126095 34,49.2697023 34,51.1190893 L34,66.4185639 C34,68.267951 35.4570928,69.7250438 37.3064799,69.7250438 L62.6935201,69.7250438 C64.5429072,69.7250438 66,68.267951 66,66.4185639 L66,51.1190893 C66,49.2697023 64.5429072,47.8126095 62.6935201,47.8126095 L62.5814361,47.8126095 L62.5814361,43.441331 C62.5814361,36.6042032 56.9772329,31 50.084063,31 Z M52.4378284,62.6077058 C52.4938704,63 52.2136602,63.3362522 51.821366,63.3362522 L49.971979,63.3362522 L48.1225919,63.3362522 C47.7302977,63.3362522 47.4500876,63 47.5061296,62.6077058 L48.234676,59.1330998 C47.5621716,58.5166375 47.1138354,57.619965 47.2819615,56.6112084 C47.4500876,55.4343257 48.4588441,54.4816112 49.6357268,54.3134851 C49.7478109,54.3134851 49.8598949,54.3134851 49.971979,54.3134851 C51.4851138,54.3134851 52.7180385,55.5464098 52.7180385,57.0595447 C52.7180385,57.9001751 52.3257443,58.6847636 51.709282,59.1891419 L52.4378284,62.6077058 Z M57.089317,47.8126095 L43.0227671,47.8126095 L43.0227671,43.6654991 C43.0227671,40.0227671 45.7127846,36.7723292 49.3555166,36.4360771 C49.5796848,36.4360771 49.8038529,36.380035 50.028021,36.380035 C53.8949212,36.380035 57.089317,39.5183888 57.089317,43.441331 L57.089317,47.8126095 L57.089317,47.8126095 Z" id="Shape" fill="#212121" fill-rule="nonzero"></path>
                                    </g>
                                </g>
                            </g>
                        </g>
                    </g>
                </g>
            </g>
        </g>
    </g>
</svg>