<?xml version="1.0" encoding="UTF-8"?>
<svg width="12px" height="12px" viewBox="0 0 12 12" version="1.1" xmlns="http://www.w3.org/2000/svg" xmlns:xlink="http://www.w3.org/1999/xlink">
    <!-- Generator: Sketch 64 (93537) - https://sketch.com -->
    <title>Add-icon-12x12</title>
    <desc>Created with Sketch.</desc>
    <g id="Welcome" stroke="none" stroke-width="1" fill="red" fill-rule="evenodd">
        <g id="Users" transform="translate(-1268.000000, -168.000000)" fill="#FFFFFF">
            <g id="Button-/-Medium-/-Left-+-Right-Icon" transform="translate(1252.000000, 154.000000)">
                <g id="Left-Icon" transform="translate(16.000000, 14.000000)">
                    <path d="M6,0.166666667 C6.46023729,0.166666667 6.83333333,0.539762708 6.83333333,1 L6.83266667,5.16666667 L11,5.16666667 C11.4602373,5.16666667 11.8333333,5.53976271 11.8333333,6 C11.8333333,6.46023729 11.4602373,6.83333333 11,6.83333333 L6.83266667,6.83266667 L6.83333333,11 C6.83333333,11.4602373 6.46023729,11.8333333 6,11.8333333 C5.53976271,11.8333333 5.16666667,11.4602373 5.16666667,11 L5.16666667,6.83266667 L1,6.83333333 C0.539762708,6.83333333 0.166666667,6.46023729 0.166666667,6 C0.166666667,5.53976271 0.539762708,5.16666667 1,5.16666667 L5.16666667,5.16666667 L5.16666667,1 C5.16666667,0.539762708 5.53976271,0.166666667 6,0.166666667 Z" id="Add-icon-12x12"></path>
                </g>
            </g>
        </g>
    </g>
</svg>