<?xml version="1.0" encoding="UTF-8"?>
<svg width="20px" height="20px" viewBox="0 0 20 20" version="1.1" xmlns="http://www.w3.org/2000/svg" xmlns:xlink="http://www.w3.org/1999/xlink">
    <title>Appointment-icon</title>
    <g id="Symbols" stroke="none" stroke-width="1" fill="none" fill-rule="evenodd">
        <g id="Appointments-inactive" transform="translate(-37.000000, -14.000000)" fill="#B0B0B0" fill-rule="nonzero">
            <g id="Dashbaord" transform="translate(22.000000, 0.000000)">
                <g id="Appointment-icon" transform="translate(15.000000, 14.000000)">
                    <path d="M5.35416667,7.58333333 L3.20833333,7.58333333 C3.08333333,7.58333333 2.97916667,7.6875 2.97916667,7.8125 L2.97916667,9.60416667 C2.97916667,9.72916667 3.08333333,9.83333333 3.20833333,9.83333333 L5.35416667,9.83333333 C5.47916667,9.83333333 5.58333333,9.72916667 5.58333333,9.60416667 L5.58333333,7.8125 C5.58333333,7.6875 5.47916667,7.58333333 5.35416667,7.58333333 Z" id="Path"></path>
                    <path d="M11.2291667,9.83333333 L13.375,9.83333333 C13.5,9.83333333 13.6041667,9.72916667 13.6041667,9.60416667 L13.6041667,7.8125 C13.6041667,7.6875 13.5,7.58333333 13.375,7.58333333 L11.2291667,7.58333333 C11.1041667,7.58333333 11,7.6875 11,7.8125 L11,9.60416667 C11,9.72916667 11.1041667,9.83333333 11.2291667,9.83333333 Z" id="Path"></path>
                    <path d="M9.35416667,7.58333333 L7.20833333,7.58333333 C7.08333333,7.58333333 6.97916667,7.6875 6.97916667,7.8125 L6.97916667,9.60416667 C6.97916667,9.72916667 7.08333333,9.83333333 7.20833333,9.83333333 L9.35416667,9.83333333 C9.47916667,9.83333333 9.58333333,9.72916667 9.58333333,9.60416667 L9.58333333,7.8125 C9.58333333,7.6875 9.47916667,7.58333333 9.35416667,7.58333333 Z" id="Path"></path>
                    <path d="M5.35416667,11.2708333 L3.20833333,11.2708333 C3.08333333,11.2708333 2.97916667,11.375 2.97916667,11.5 L2.97916667,13.2916667 C2.97916667,13.4166667 3.08333333,13.5208333 3.20833333,13.5208333 L5.35416667,13.5208333 C5.47916667,13.5208333 5.58333333,13.4166667 5.58333333,13.2916667 L5.58333333,11.5 C5.58333333,11.3541667 5.47916667,11.2708333 5.35416667,11.2708333 Z" id="Path"></path>
                    <path d="M9.35416667,11.2708333 L7.20833333,11.2708333 C7.08333333,11.2708333 6.97916667,11.375 6.97916667,11.5 L6.97916667,13.2916667 C6.97916667,13.4166667 7.08333333,13.5208333 7.20833333,13.5208333 L9.35416667,13.5208333 C9.47916667,13.5208333 9.58333333,13.4166667 9.58333333,13.2916667 L9.58333333,11.5 C9.58333333,11.3541667 9.47916667,11.2708333 9.35416667,11.2708333 Z" id="Path"></path>
                    <path d="M16.4166667,10.9166667 L16.4166667,2.54166667 C16.4166667,2.02083333 16,1.60416667 15.4791667,1.60416667 L13.4375,1.60416667 L13.4375,1.5 C13.4375,0.729166667 12.8125,0.104166667 12.0416667,0.104166667 L11,0.104166667 C10.2291667,0.104166667 9.60416667,0.729166667 9.60416667,1.5 L9.60416667,1.58333333 L7,1.58333333 L7,1.5 C7,0.729166667 6.375,0.104166667 5.60416667,0.104166667 L4.5625,0.104166667 C3.79166667,0.104166667 3.16666667,0.729166667 3.16666667,1.5 L3.16666667,1.58333333 L1.08333333,1.58333333 C0.5625,1.58333333 0.145833333,2 0.145833333,2.52083333 L0.145833333,15.25 C0.145833333,15.7708333 0.5625,16.1875 1.08333333,16.1875 L10.25,16.1875 C10.6875,18.3125 12.5625,19.8958333 14.7916667,19.8958333 C17.3541667,19.8958333 19.4375,17.8125 19.4375,15.25 C19.4375,13.2708333 18.1666667,11.5833333 16.4166667,10.9166667 Z M10.7916667,1.5 C10.7916667,1.39583333 10.875,1.3125 10.9791667,1.3125 L12.0208333,1.3125 C12.125,1.3125 12.2083333,1.39583333 12.2083333,1.5 L12.2083333,2.97916667 C12.2083333,3.08333333 12.125,3.16666667 12.0208333,3.16666667 L10.9791667,3.16666667 C10.875,3.16666667 10.7916667,3.08333333 10.7916667,2.97916667 L10.7916667,1.5 Z M4.35416667,1.5 C4.35416667,1.39583333 4.4375,1.3125 4.54166667,1.3125 L5.58333333,1.3125 C5.6875,1.3125 5.77083333,1.39583333 5.77083333,1.5 L5.77083333,2.97916667 C5.77083333,3.08333333 5.6875,3.16666667 5.58333333,3.16666667 L4.54166667,3.16666667 C4.4375,3.16666667 4.35416667,3.08333333 4.35416667,2.97916667 L4.35416667,1.5 Z M1.4375,6.125 L15.125,6.125 L15.125,10.6458333 C15.0208333,10.625 14.8958333,10.625 14.7916667,10.625 C12.3541667,10.625 10.3333333,12.5208333 10.1666667,14.9375 L1.4375,14.9375 L1.4375,6.125 Z M14.7916667,18.6041667 C12.9375,18.6041667 11.4375,17.1041667 11.4375,15.25 C11.4375,13.3958333 12.9375,11.8958333 14.7916667,11.8958333 C16.6458333,11.8958333 18.1458333,13.3958333 18.1458333,15.25 C18.1458333,17.1041667 16.6458333,18.6041667 14.7916667,18.6041667 Z" id="Shape"></path>
                    <path d="M16.3125,15.0416667 L15,15.0416667 L15,13.7291667 C15,13.375 14.7083333,13.0833333 14.3541667,13.0833333 C14,13.0833333 13.7083333,13.375 13.7083333,13.7291667 L13.7083333,15.6875 C13.7083333,16.0416667 14,16.3333333 14.3541667,16.3333333 L16.3125,16.3333333 C16.6666667,16.3333333 16.9583333,16.0416667 16.9583333,15.6875 C16.9583333,15.3333333 16.6666667,15.0416667 16.3125,15.0416667 Z" id="Path"></path>
                </g>
            </g>
        </g>
    </g>
</svg>