<svg width="32" height="32" viewBox="0 0 32 32" fill="none" xmlns="http://www.w3.org/2000/svg">
<g id="AssessingRestingEnergyExpenditureDryweightKey">
<rect id="Rectangle" width="32" height="32" rx="6" fill="#70DBA1" fill-opacity="0.15"/>
<path id="Vector" fill-rule="evenodd" clip-rule="evenodd" d="M16.268 8.51301V14.0253H21.0219C21.2027 14.0253 21.3581 14.1107 21.455 14.2637C21.5513 14.4167 21.5622 14.5935 21.4848 14.7569L17.2429 23.707C17.1391 23.926 16.9042 24.0402 16.6678 23.9871C16.4314 23.9339 16.268 23.7298 16.268 23.4875V17.9752H11.5141C11.3333 17.9752 11.1778 17.8897 11.081 17.7368C10.9846 17.5843 10.9737 17.407 11.0512 17.2436L15.2931 8.29349C15.3969 8.07447 15.6318 7.95974 15.8682 8.01288C16.1046 8.06602 16.268 8.27015 16.268 8.51251V8.51301Z" fill="#70DBA1"/>
</g>
</svg>
