<?xml version="1.0" encoding="utf-8"?>
<!-- Generator: Adobe Illustrator 23.0.2, SVG Export Plug-In . SVG Version: 6.00 Build 0)  -->
<svg version="1.1" id="Layer_1" xmlns="http://www.w3.org/2000/svg" xmlns:xlink="http://www.w3.org/1999/xlink" x="0px" y="0px"
	 width="124px" height="124px" viewBox="0 0 124 124" style="enable-background:new 0 0 124 124;" xml:space="preserve">
<style type="text/css">
	.st0{fill:#DADADA;}
	.st1{fill:#FFFFFF;}
	.st2{filter:url(#Adobe_OpacityMaskFilter);}
	.st3{fill-rule:evenodd;clip-rule:evenodd;fill:#FFFFFF;}
	.st4{mask:url(#mask-2_1_);fill-rule:evenodd;clip-rule:evenodd;fill:#FFFFFF;}
</style>
<path class="st0" d="M62,123C28.3,123,1,95.7,1,62S28.3,1,62,1s61,27.3,61,61S95.7,123,62,123z"/>
<path class="st1" d="M62,124C27.8,124,0,96.2,0,62C0,27.8,27.8,0,62,0c34.2,0,62,27.8,62,62C124,96.2,96.2,124,62,124z M62,2
	C28.9,2,2,28.9,2,62s26.9,60,60,60s60-26.9,60-60S95.1,2,62,2z"/>
<defs>
	<filter id="Adobe_OpacityMaskFilter" filterUnits="userSpaceOnUse" x="15.7" y="28" width="94.3" height="94.3">
		<feColorMatrix  type="matrix" values="1 0 0 0 0  0 1 0 0 0  0 0 1 0 0  0 0 0 1 0"/>
	</filter>
</defs>
<mask maskUnits="userSpaceOnUse" x="15.7" y="28" width="94.3" height="94.3" id="mask-2_1_">
	<g class="st2">
		<path id="path-1_1_" class="st3" d="M62,122c33.1,0,60-26.9,60-60S95.1,2,62,2S2,28.9,2,62S28.9,122,62,122z"/>
	</g>
</mask>
<path id="Shape" class="st4" d="M75.3,80.7l0,5.3c23,13.2,34.6,6.6,34.6,36.3H63.6H63H15.7c0-30.9,11.6-23.2,34.6-36.3v-5.3
	c-4-2.9-10.5-23.6-9.2-25.2c1.1-1-2-20,10.2-23.6c0-7.4,28.6-4.1,31.9,8c1.6,4.7,0.6,14.6,1.1,15.2C86,56.1,79.1,78.1,75.3,80.7
	L75.3,80.7z"/>
</svg>
