<svg width="32" height="32" viewBox="0 0 32 32" fill="none" xmlns="http://www.w3.org/2000/svg">
<g id="BabyKickCounter">
<rect id="Rectangle" width="32" height="32" rx="6" fill="#FE9263" fill-opacity="0.15"/>
<g id="Group">
<g id="Group_2">
<path id="Vector" d="M14.4058 8.28895C14.3717 8.42101 14.3535 8.55948 14.3535 8.70219C14.3535 9.61205 15.0911 10.3496 16.001 10.3496C16.2609 10.3496 16.4717 10.1389 16.4717 9.87894C16.4717 9.61898 16.2609 9.40824 16.001 9.40824C15.611 9.40824 15.2949 9.09213 15.2949 8.70219C15.2949 8.33735 15.5716 8.03714 15.9266 8C17.6716 8.08397 19.0605 9.52531 19.0605 11.291C19.0605 13.1108 17.5853 14.586 15.7656 14.586C13.9459 14.586 12.4707 13.1108 12.4707 11.291C12.4707 9.95619 13.2645 8.80674 14.4058 8.28895ZM14.5889 11.9971C14.8488 11.9971 15.0596 11.7864 15.0596 11.5264C15.0596 11.2664 14.8488 11.0557 14.5889 11.0557C14.3289 11.0557 14.1182 11.2664 14.1182 11.5264C14.1182 11.7864 14.3289 11.9971 14.5889 11.9971ZM16.9424 11.9971C17.2023 11.9971 17.4131 11.7864 17.4131 11.5264C17.4131 11.2664 17.2023 11.0557 16.9424 11.0557C16.6824 11.0557 16.4717 11.2664 16.4717 11.5264C16.4717 11.7864 16.6824 11.9971 16.9424 11.9971ZM15.7656 15.5274C16.8507 15.5274 17.8406 15.1194 18.5901 14.4484C19.1781 15.1149 19.5234 15.9811 19.5311 16.9076C17.7821 16.8244 16.2263 17.0826 14.8684 17.6861C13.7787 18.1704 12.8219 18.8748 12 19.7955V16.9395C12 16.001 12.3464 15.1225 12.9411 14.4484C13.6907 15.1194 14.6805 15.5274 15.7656 15.5274ZM19.5312 20.2344C19.5312 22.3141 17.8453 24 15.7656 24C14.0045 24 12.5258 22.7911 12.1141 21.1578C12.9722 19.963 14.0164 19.095 15.2507 18.5464C16.479 18.0005 17.9043 17.7671 19.5312 17.8502V20.2344Z" fill="#FE9263"/>
</g>
</g>
</g>
</svg>
