<svg width="32" height="32" viewBox="0 0 32 32" fill="none" xmlns="http://www.w3.org/2000/svg">
<g id="Badminton">
<rect id="Rectangle" width="32" height="32" rx="6" fill="#3D69DB" fill-opacity="0.15"/>
<g id="Group 289317">
<path id="Vector" d="M9.87673 18.1579L9.4707 18.5479L13.1887 22.4196L13.5948 22.0297L9.87673 18.1579Z" fill="#3D69DB"/>
<path id="Vector_2" d="M8.8253 19.168C8.31177 19.6609 8.01511 20.3377 8.00056 21.0494C7.98602 21.7611 8.25479 22.4494 8.74775 22.963C9.24071 23.4765 9.91747 23.7732 10.6292 23.7877C11.3409 23.8022 12.0292 23.5335 12.5427 23.0405L12.9906 22.61L9.27146 18.7393L8.8253 19.168Z" fill="#3D69DB"/>
<path id="Vector_3" d="M11.4462 14.8458L11.6082 15.6893L10.2959 17.7841L10.6601 18.1641L12.0875 15.8792L12.6103 15.5864L12.7463 16.3969L11.0889 18.6102L11.4462 18.9832L13.1123 16.7559L13.975 16.6008L13.8913 17.6708L11.9638 19.5217L12.3158 19.8894L14.2434 18.0386L15.3169 17.9985L15.1252 18.8525L12.8334 20.428L13.1907 20.8009L15.4703 19.2341L16.2737 19.4032L15.96 19.9121L13.6212 21.2471L13.9837 21.6253L16.1326 20.4001L16.9674 20.5953L22.6576 17.9096L23.9996 16.1319L22.0668 16.0047L22.8528 14.058L20.2508 14.1765L20.5349 11.6442L17.9921 11.8255L18.217 9.23042L16.2389 9.938L16.1901 8L14.3601 9.26877L11.4462 14.8458Z" fill="#3D69DB"/>
</g>
</g>
</svg>
