<svg width="18" height="15" viewBox="0 0 18 15" fill="none" xmlns="http://www.w3.org/2000/svg">
<path d="M0.625 3.75C0.79076 3.75 0.949732 3.68415 1.06694 3.56694C1.18415 3.44973 1.25 3.29076 1.25 3.125V1.25H3.125C3.29076 1.25 3.44973 1.18415 3.56694 1.06694C3.68415 0.949731 3.75 0.79076 3.75 0.625C3.75 0.45924 3.68415 0.300269 3.56694 0.183058C3.44973 0.0658481 3.29076 0 3.125 0H1.25C0.918479 0 0.600537 0.131696 0.366116 0.366116C0.131696 0.600537 0 0.918479 0 1.25V3.125C0 3.29076 0.065848 3.44973 0.183058 3.56694C0.300268 3.68415 0.45924 3.75 0.625 3.75Z" fill="#242E49"/>
<path d="M3.125 13.75H1.25V11.875C1.25 11.7093 1.18415 11.5503 1.06694 11.4331C0.949732 11.3159 0.79076 11.25 0.625 11.25C0.45924 11.25 0.300268 11.3159 0.183058 11.4331C0.065848 11.5503 0 11.7093 0 11.875V13.75C0 14.0816 0.131696 14.3995 0.366116 14.6339C0.600537 14.8683 0.918479 15 1.25 15H3.125C3.29076 15 3.44973 14.9342 3.56694 14.817C3.68415 14.6998 3.75 14.5408 3.75 14.375C3.75 14.2093 3.68415 14.0503 3.56694 13.9331C3.44973 13.8159 3.29076 13.75 3.125 13.75Z" fill="#242E49"/>
<path d="M16.8749 11.25C16.7091 11.25 16.5501 11.3159 16.4329 11.4331C16.3157 11.5503 16.2499 11.7093 16.2499 11.875V13.75H14.3749C14.2091 13.75 14.0501 13.8159 13.9329 13.9331C13.8157 14.0503 13.7499 14.2093 13.7499 14.375C13.7499 14.5408 13.8157 14.6998 13.9329 14.817C14.0501 14.9342 14.2091 15 14.3749 15H16.2499C16.5814 15 16.8993 14.8683 17.1338 14.6339C17.3682 14.3995 17.4999 14.0816 17.4999 13.75V11.875C17.4999 11.7093 17.434 11.5503 17.3168 11.4331C17.1996 11.3159 17.0406 11.25 16.8749 11.25Z" fill="#242E49"/>
<path d="M16.2499 0H14.3749C14.2091 0 14.0501 0.0658481 13.9329 0.183058C13.8157 0.300269 13.7499 0.45924 13.7499 0.625C13.7499 0.79076 13.8157 0.949731 13.9329 1.06694C14.0501 1.18415 14.2091 1.25 14.3749 1.25H16.2499V3.23125C16.2499 3.39701 16.3157 3.55598 16.4329 3.67319C16.5501 3.7904 16.7091 3.85625 16.8749 3.85625C17.0406 3.85625 17.1996 3.7904 17.3168 3.67319C17.434 3.55598 17.4999 3.39701 17.4999 3.23125V1.25C17.4999 0.918479 17.3682 0.600537 17.1338 0.366116C16.8993 0.131696 16.5814 0 16.2499 0Z" fill="#242E49"/>
<path d="M15 11.25V3.75003C15 3.41851 14.8683 3.10057 14.6339 2.86615C14.3995 2.63173 14.0815 2.50003 13.75 2.50003H11.25V12.5H13.75C14.0815 12.5 14.3995 12.3683 14.6339 12.1339C14.8683 11.8995 15 11.5816 15 11.25Z" fill="#242E49"/>
<path d="M10 2.50003H7.5V12.5H10V2.50003Z" fill="#242E49"/>
<path d="M2.5 3.75003V11.25C2.5 11.5816 2.6317 11.8995 2.86612 12.1339C3.10054 12.3683 3.41848 12.5 3.75 12.5H6.25V2.50003H3.75C3.41848 2.50003 3.10054 2.63173 2.86612 2.86615C2.6317 3.10057 2.5 3.41851 2.5 3.75003Z" fill="#242E49"/>
</svg>
