<svg width="32" height="32" viewBox="0 0 32 32" fill="none" xmlns="http://www.w3.org/2000/svg">
<g id="BasalMetobolicRateKey">
<rect id="Rectangle" width="32" height="32" rx="6" fill="#FF7878" fill-opacity="0.15"/>
<g id="Group">
<path id="Vector" d="M14.4001 21.9329C14.7683 21.9329 15.0667 21.6345 15.0667 21.2663C15.0667 20.8981 14.7683 20.5996 14.4001 20.5996C14.0319 20.5996 13.7334 20.8981 13.7334 21.2663C13.7334 21.6345 14.0319 21.9329 14.4001 21.9329Z" fill="#FF7878"/>
<path id="Vector_2" d="M18.2663 11.1331C18.6345 11.1331 18.9329 10.8347 18.9329 10.4665C18.9329 10.0983 18.6345 9.7998 18.2663 9.7998C17.8981 9.7998 17.5996 10.0983 17.5996 10.4665C17.5996 10.8347 17.8981 11.1331 18.2663 11.1331Z" fill="#FF7878"/>
<path id="Vector_3" d="M16.5329 14.8665C16.9011 14.8665 17.1995 14.5681 17.1995 14.1999C17.1995 13.8317 16.9011 13.5332 16.5329 13.5332C16.1647 13.5332 15.8662 13.8317 15.8662 14.1999C15.8662 14.5681 16.1647 14.8665 16.5329 14.8665Z" fill="#FF7878"/>
<path id="Vector_4" d="M14.5333 10.4671C14.5333 8.667 13.4193 7.1834 12 7.0166V13.9177C13.4193 13.7509 14.5333 12.2673 14.5333 10.4671Z" fill="#FF7878"/>
<path id="Vector_5" d="M17.7334 19.5335C17.7334 21.3337 18.8474 22.8173 20.2667 22.9841V16.083C18.8474 16.2498 17.7334 17.7334 17.7334 19.5335Z" fill="#FF7878"/>
<path id="Vector_6" d="M14.4001 17.9329C14.7683 17.9329 15.0667 17.6345 15.0667 17.2663C15.0667 16.8981 14.7683 16.5996 14.4001 16.5996C14.0319 16.5996 13.7334 16.8981 13.7334 17.2663C13.7334 17.6345 14.0319 17.9329 14.4001 17.9329Z" fill="#FF7878"/>
<path id="Vector_7" d="M17.2 19.5333C17.2 17.4356 18.5529 15.7111 20.2667 15.5472V7H13.3931C14.3921 7.6916 15.0667 8.986 15.0667 10.4667C15.0667 12.5644 13.7137 14.2889 12 14.4528V23H18.8736C17.8745 22.3084 17.2 21.014 17.2 19.5333ZM16.6667 17.1333C16.3725 17.1333 16.1333 16.8941 16.1333 16.6C16.1333 16.3059 16.3725 16.0667 16.6667 16.0667C16.9608 16.0667 17.2 16.3059 17.2 16.6C17.2 16.8941 16.9608 17.1333 16.6667 17.1333ZM18.9333 13.9333C18.6392 13.9333 18.4 13.6941 18.4 13.4C18.4 13.1059 18.6392 12.8667 18.9333 12.8667C19.2275 12.8667 19.4667 13.1059 19.4667 13.4C19.4667 13.6941 19.2275 13.9333 18.9333 13.9333ZM18.9333 7.26667C19.2275 7.26667 19.4667 7.50587 19.4667 7.8C19.4667 8.09413 19.2275 8.33333 18.9333 8.33333C18.6392 8.33333 18.4 8.09413 18.4 7.8C18.4 7.50587 18.6392 7.26667 18.9333 7.26667ZM18.2667 9.26667C18.9284 9.26667 19.4667 9.80493 19.4667 10.4667C19.4667 11.1284 18.9284 11.6667 18.2667 11.6667C17.6049 11.6667 17.0667 11.1284 17.0667 10.4667C17.0667 9.80493 17.6049 9.26667 18.2667 9.26667ZM16.2667 7.8C16.5608 7.8 16.8 8.0392 16.8 8.33333C16.8 8.62747 16.5608 8.86667 16.2667 8.86667C15.9725 8.86667 15.7333 8.62747 15.7333 8.33333C15.7333 8.0392 15.9725 7.8 16.2667 7.8ZM16 11.2667C16.2941 11.2667 16.5333 11.5059 16.5333 11.8C16.5333 12.0941 16.2941 12.3333 16 12.3333C15.7059 12.3333 15.4667 12.0941 15.4667 11.8C15.4667 11.5059 15.7059 11.2667 16 11.2667ZM16.5333 13C17.1951 13 17.7333 13.5383 17.7333 14.2C17.7333 14.8617 17.1951 15.4 16.5333 15.4C15.8716 15.4 15.3333 14.8617 15.3333 14.2C15.3333 13.5383 15.8716 13 16.5333 13ZM14 14.3333C14.2941 14.3333 14.5333 14.5725 14.5333 14.8667C14.5333 15.1608 14.2941 15.4 14 15.4C13.7059 15.4 13.4667 15.1608 13.4667 14.8667C13.4667 14.5725 13.7059 14.3333 14 14.3333ZM14.4 16.0667C15.0617 16.0667 15.6 16.6049 15.6 17.2667C15.6 17.9284 15.0617 18.4667 14.4 18.4667C13.7383 18.4667 13.2 17.9284 13.2 17.2667C13.2 16.6049 13.7383 16.0667 14.4 16.0667ZM12.5333 19.2667C12.5333 18.9725 12.7725 18.7333 13.0667 18.7333C13.3608 18.7333 13.6 18.9725 13.6 19.2667C13.6 19.5608 13.3608 19.8 13.0667 19.8C12.7725 19.8 12.5333 19.5608 12.5333 19.2667ZM14.4 22.4667C13.7383 22.4667 13.2 21.9284 13.2 21.2667C13.2 20.6049 13.7383 20.0667 14.4 20.0667C15.0617 20.0667 15.6 20.6049 15.6 21.2667C15.6 21.9284 15.0617 22.4667 14.4 22.4667ZM15.6 19.2667C15.6 18.9725 15.8392 18.7333 16.1333 18.7333C16.4275 18.7333 16.6667 18.9725 16.6667 19.2667C16.6667 19.5608 16.4275 19.8 16.1333 19.8C15.8392 19.8 15.6 19.5608 15.6 19.2667ZM16.8 22.7333C16.5059 22.7333 16.2667 22.4941 16.2667 22.2C16.2667 21.9059 16.5059 21.6667 16.8 21.6667C17.0941 21.6667 17.3333 21.9059 17.3333 22.2C17.3333 22.4941 17.0941 22.7333 16.8 22.7333Z" fill="#FF7878"/>
</g>
</g>
</svg>
