<svg width="32" height="32" viewBox="0 0 32 32" fill="none" xmlns="http://www.w3.org/2000/svg">
<g id="Bicycling">
<rect id="Rectangle" width="32" height="32" rx="6" fill="#31C1EE" fill-opacity="0.15"/>
<g id="Group 289320">
<g id="Group">
<path id="Vector" d="M20.8322 22.6076C19.0864 22.6076 17.665 21.1869 17.665 19.4397C17.665 17.6938 19.0864 16.2725 20.8322 16.2725C22.5788 16.2725 24.0001 17.6938 24.0001 19.4397C24.0001 21.1869 22.5788 22.6076 20.8322 22.6076ZM20.8322 17.5088C19.7678 17.5088 18.9021 18.3753 18.9021 19.4397C18.9021 20.5048 19.7678 21.3705 20.8322 21.3705C21.8974 21.3705 22.763 20.5048 22.763 19.4397C22.763 18.3753 21.8974 17.5088 20.8322 17.5088Z" fill="#31C1EE"/>
</g>
<g id="Group_2">
<path id="Vector_2" d="M11.1679 22.6076C9.42137 22.6076 8 21.1869 8 19.4397C8 17.6938 9.42137 16.2725 11.1679 16.2725C12.9145 16.2725 14.3358 17.6938 14.3358 19.4397C14.3358 21.1869 12.9145 22.6076 11.1679 22.6076ZM11.1679 17.5088C10.1028 17.5088 9.23711 18.3753 9.23711 19.4397C9.23711 20.5048 10.1035 21.3705 11.1679 21.3705C12.233 21.3705 13.0987 20.5048 13.0987 19.4397C13.0987 18.3753 12.233 17.5088 11.1679 17.5088Z" fill="#31C1EE"/>
</g>
<g id="Group_3">
<path id="Vector_3" d="M16.2302 21.0551C15.8508 21.0551 15.4945 20.821 15.358 20.4438L14.1685 17.1733C14.0248 16.7787 14.1649 16.3365 14.5082 16.0959L16.2171 14.8999L14.8854 13.5313L13.727 14.5719C13.3455 14.9144 12.7595 14.8819 12.4169 14.5018C12.0752 14.1203 12.1062 13.5342 12.487 13.1917L14.3087 11.5564C14.6794 11.224 15.2467 11.2435 15.5928 11.5998L18.3069 14.3883C18.4963 14.5834 18.5916 14.8515 18.5649 15.1225C18.5396 15.3935 18.3965 15.6392 18.174 15.7953L16.1543 17.208L17.1009 19.8108C17.2758 20.2935 17.0272 20.8239 16.5459 20.9995C16.4419 21.0371 16.3342 21.0551 16.2302 21.0551Z" fill="#31C1EE"/>
</g>
<g id="Group_4">
<path id="Vector_4" d="M12.846 11.6491C13.5775 11.6491 14.1706 11.0561 14.1706 10.3245C14.1706 9.59302 13.5775 9 12.846 9C12.1145 9 11.5215 9.59302 11.5215 10.3245C11.5215 11.0561 12.1145 11.6491 12.846 11.6491Z" fill="#31C1EE"/>
</g>
<g id="Group_5">
<path id="Vector_5" d="M18.6575 14.0652C18.3995 14.0652 18.1416 13.9575 17.958 13.7472L16.4471 12.0122C16.1103 11.6264 16.1508 11.0403 16.5374 10.7036C16.9232 10.3676 17.5093 10.4073 17.8453 10.7939L19.3577 12.5289C19.6937 12.9148 19.6533 13.5008 19.2667 13.8375C19.0911 13.99 18.8736 14.0652 18.6575 14.0652Z" fill="#31C1EE"/>
</g>
</g>
</g>
</svg>
