<svg width="32" height="32" viewBox="0 0 32 32" fill="none" xmlns="http://www.w3.org/2000/svg">
<g id="Blood-pressure">
<rect id="Rectangle" width="32" height="32" rx="6" fill="#EF5D5D" fill-opacity="0.15"/>
<g id="Group">
<g id="Group_2">
<path id="Vector" d="M22.6188 10.3812C20.7771 8.53959 17.8145 8.53959 15.9928 10.3812C14.1512 8.53959 11.1885 8.53959 9.36691 10.3812C7.58532 12.1628 7.54528 15.0454 9.2468 16.8871C9.78729 16.3466 10.528 16.0263 11.3487 16.0263C13.0102 16.0263 14.3514 17.3675 14.3514 19.029C14.3514 19.8497 14.0111 20.6104 13.4706 21.1509L15.9928 23.6531L22.6188 17.0272C24.4604 15.1855 24.4604 12.2229 22.6188 10.3812ZM10.1276 13.7843C9.6872 13.7843 9.32688 13.424 9.32688 12.9836C9.32688 12.5432 10.1276 11.4622 10.1276 11.4622C10.1276 11.4622 10.9283 12.5432 10.9283 12.9836C10.9283 13.424 10.568 13.7843 10.1276 13.7843ZM11.4087 11.9827C11.0684 11.9827 10.7882 11.7024 10.7882 11.3621C10.7882 11.0218 11.4087 10.1811 11.4087 10.1811C11.4087 10.1811 12.0293 11.0218 12.0293 11.3621C12.0293 11.7224 11.749 11.9827 11.4087 11.9827ZM12.5297 19.029C12.5297 18.9689 12.5698 18.9289 12.6298 18.9289H12.9501C12.9101 18.1282 12.2495 17.4876 11.4488 17.4275V17.7478C11.4488 17.8079 11.4087 17.8479 11.3487 17.8479C11.2886 17.8479 11.2486 17.8079 11.2486 17.7478V17.4275C10.4479 17.4676 9.80731 18.1282 9.74725 18.9289H10.0675C10.1276 18.9289 10.1676 18.9689 10.1676 19.029C10.1676 19.089 10.1476 19.1291 10.0876 19.1291H9.76727C9.80731 19.9298 10.4679 20.5703 11.2686 20.6304V20.3101C11.2686 20.2501 11.3086 20.21 11.3687 20.21C11.4288 20.21 11.4688 20.2501 11.4688 20.3101V20.6304C12.2695 20.5904 12.9101 19.9298 12.9701 19.1291H12.6498C12.5698 19.1291 12.5297 19.069 12.5297 19.029ZM11.649 19.3092C11.5689 19.5294 11.3086 19.6495 11.0885 19.5695C10.8683 19.4894 10.7481 19.2292 10.8282 19.009C10.8683 18.8888 10.9683 18.8088 11.0885 18.7487L12.0093 18.3884L11.649 19.3092ZM11.3687 16.5267C9.98747 16.5267 8.86646 17.6477 8.86646 19.029C8.86646 20.4102 9.96745 21.5312 11.3687 21.5312C12.77 21.5312 13.8709 20.4102 13.8709 19.029C13.8709 17.6477 12.7499 16.5267 11.3687 16.5267ZM11.3687 21.0308C10.2677 21.0308 9.36691 20.13 9.36691 19.029C9.36691 17.928 10.2677 17.0272 11.3687 17.0272C12.4697 17.0272 13.3705 17.928 13.3705 19.029C13.3705 20.13 12.4697 21.0308 11.3687 21.0308Z" fill="white"/>
</g>
<g id="Group_3">
<path id="Vector_2" d="M22.6188 10.3812C20.7771 8.53959 17.8145 8.53959 15.9928 10.3812C14.1512 8.53959 11.1885 8.53959 9.36691 10.3812C7.58532 12.1628 7.54528 15.0454 9.2468 16.8871C9.78729 16.3466 10.528 16.0263 11.3487 16.0263C13.0102 16.0263 14.3514 17.3675 14.3514 19.029C14.3514 19.8497 14.0111 20.6104 13.4706 21.1509L15.9928 23.6531L22.6188 17.0272C24.4604 15.1855 24.4604 12.2229 22.6188 10.3812ZM10.1276 13.7843C9.6872 13.7843 9.32688 13.424 9.32688 12.9836C9.32688 12.5432 10.1276 11.4622 10.1276 11.4622C10.1276 11.4622 10.9283 12.5432 10.9283 12.9836C10.9283 13.424 10.568 13.7843 10.1276 13.7843ZM11.4087 11.9827C11.0684 11.9827 10.7882 11.7024 10.7882 11.3621C10.7882 11.0218 11.4087 10.1811 11.4087 10.1811C11.4087 10.1811 12.0293 11.0218 12.0293 11.3621C12.0293 11.7224 11.749 11.9827 11.4087 11.9827ZM12.5297 19.029C12.5297 18.9689 12.5698 18.9289 12.6298 18.9289H12.9501C12.9101 18.1282 12.2495 17.4876 11.4488 17.4275V17.7478C11.4488 17.8079 11.4087 17.8479 11.3487 17.8479C11.2886 17.8479 11.2486 17.8079 11.2486 17.7478V17.4275C10.4479 17.4676 9.80731 18.1282 9.74725 18.9289H10.0675C10.1276 18.9289 10.1676 18.9689 10.1676 19.029C10.1676 19.089 10.1476 19.1291 10.0876 19.1291H9.76727C9.80731 19.9298 10.4679 20.5703 11.2686 20.6304V20.3101C11.2686 20.2501 11.3086 20.21 11.3687 20.21C11.4288 20.21 11.4688 20.2501 11.4688 20.3101V20.6304C12.2695 20.5904 12.9101 19.9298 12.9701 19.1291H12.6498C12.5698 19.1291 12.5297 19.069 12.5297 19.029ZM11.649 19.3092C11.5689 19.5294 11.3086 19.6495 11.0885 19.5695C10.8683 19.4894 10.7481 19.2292 10.8282 19.009C10.8683 18.8888 10.9683 18.8088 11.0885 18.7487L12.0093 18.3884L11.649 19.3092ZM11.3687 16.5267C9.98747 16.5267 8.86646 17.6477 8.86646 19.029C8.86646 20.4102 9.96745 21.5312 11.3687 21.5312C12.77 21.5312 13.8709 20.4102 13.8709 19.029C13.8709 17.6477 12.7499 16.5267 11.3687 16.5267ZM11.3687 21.0308C10.2677 21.0308 9.36691 20.13 9.36691 19.029C9.36691 17.928 10.2677 17.0272 11.3687 17.0272C12.4697 17.0272 13.3705 17.928 13.3705 19.029C13.3705 20.13 12.4697 21.0308 11.3687 21.0308Z" fill="#EF5D5D"/>
</g>
</g>
</g>
</svg>
