<svg width="32" height="32" viewBox="0 0 32 32" fill="none" xmlns="http://www.w3.org/2000/svg">
<g id="BMI">
<rect id="Rectangle" width="32" height="32" rx="6" fill="#63ABFE" fill-opacity="0.15"/>
<g id="Group">
<path id="Vector" d="M15.7343 11.2557C16.6334 11.2557 17.3622 10.5269 17.3622 9.62787C17.3622 8.72882 16.6334 8 15.7343 8C14.8353 8 14.1064 8.72882 14.1064 9.62787C14.1064 10.5269 14.8353 11.2557 15.7343 11.2557Z" fill="#63ABFE"/>
<path id="Vector_2" d="M20.384 13.3732C20.338 13.2533 20.2571 13.1455 20.1418 13.0688L17.9041 11.5789C17.7753 11.4931 17.6269 11.4631 17.4844 11.4779C17.4636 11.476 17.443 11.4717 17.4218 11.4717H14.0473C14.0259 11.4717 14.0054 11.476 13.985 11.4779C13.8421 11.4631 13.6938 11.4931 13.5649 11.5789L11.3268 13.0688C11.2118 13.1455 11.1308 13.2535 11.0849 13.3736C10.9545 13.6021 10.972 13.8965 11.1538 14.1075L12.8438 16.0705C12.8907 17.0237 13.2973 17.8681 13.9122 18.433V23.2405C13.9122 23.6598 14.2524 24.0001 14.6715 24.0001C15.0906 24.0001 15.4305 23.6598 15.4305 23.2405V19.146C15.5305 19.1581 15.6319 19.1643 15.7347 19.1643C15.8375 19.1643 15.9387 19.1581 16.0388 19.146V23.2403C16.0388 23.6596 16.3786 23.9999 16.7979 23.9999C17.2168 23.9999 17.5571 23.6596 17.5571 23.2403V18.4328C18.1722 17.8681 18.5786 17.0235 18.6257 16.0701L20.3153 14.1073C20.4969 13.8963 20.5144 13.602 20.384 13.3732ZM13.3888 13.2344V13.9615C13.2918 14.1131 13.2058 14.2741 13.1324 14.4438L12.5638 13.7836L13.3888 13.2344ZM18.3362 14.4436C18.2633 14.2741 18.1774 14.1131 18.0805 13.9617V13.2343L18.905 13.7834L18.3362 14.4436Z" fill="#63ABFE"/>
</g>
</g>
</svg>
