<svg width="32" height="32" viewBox="0 0 32 32" fill="none" xmlns="http://www.w3.org/2000/svg">
<g id="BodyTemperature">
<rect id="Rectangle" width="32" height="32" rx="6" fill="#41C1D2" fill-opacity="0.15"/>
<g id="Group 289310">
<path id="Vector" d="M18.963 17.6794V9.00516C18.963 8.20814 18.6464 7.44377 18.0828 6.88019C17.5192 6.31661 16.7549 6 15.9578 6C15.1608 6 14.3964 6.31661 13.8329 6.88019C13.2693 7.44377 12.9527 8.20814 12.9527 9.00516V17.6794C12.1148 18.3098 11.4963 19.1877 11.1847 20.1889C10.8732 21.1901 10.8844 22.2639 11.2167 23.2584C11.549 24.2529 12.1856 25.1177 13.0364 25.7305C13.8873 26.3433 14.9093 26.673 15.9578 26.673C17.0064 26.673 18.0284 26.3433 18.8792 25.7305C19.7301 25.1177 20.3667 24.2529 20.699 23.2584C21.0313 22.2639 21.0425 21.1901 20.731 20.1889C20.4194 19.1877 19.8009 18.3098 18.963 17.6794ZM15.9578 24.1139C15.3891 24.114 14.8398 23.9074 14.4121 23.5326C13.9844 23.1578 13.7075 22.6403 13.6329 22.0765C13.5584 21.5127 13.6913 20.941 14.0069 20.468C14.3225 19.9949 14.7993 19.6526 15.3485 19.505V11.284C15.3485 11.1224 15.4127 10.9674 15.527 10.8532C15.6413 10.7389 15.7962 10.6747 15.9578 10.6747C16.1194 10.6747 16.2744 10.7389 16.3887 10.8532C16.503 10.9674 16.5672 11.1224 16.5672 11.284V19.505C17.1163 19.6526 17.5931 19.9949 17.9088 20.468C18.2244 20.941 18.3573 21.5127 18.2828 22.0765C18.2082 22.6403 17.9313 23.1578 17.5036 23.5326C17.0759 23.9074 16.5265 24.114 15.9578 24.1139Z" fill="#41C1D2"/>
<path id="Vector_2" d="M17.087 21.7671C17.087 21.9903 17.0208 22.2085 16.8968 22.3941C16.7728 22.5796 16.5966 22.7243 16.3904 22.8097C16.1842 22.8951 15.9573 22.9175 15.7384 22.8739C15.5195 22.8304 15.3184 22.7229 15.1606 22.5651C15.0028 22.4073 14.8953 22.2062 14.8518 21.9873C14.8082 21.7684 14.8306 21.5415 14.916 21.3353C15.0014 21.1291 15.146 20.9528 15.3316 20.8288C15.5172 20.7049 15.7353 20.6387 15.9585 20.6387C16.2578 20.6387 16.5449 20.7576 16.7565 20.9692C16.9681 21.1808 17.087 21.4678 17.087 21.7671Z" fill="#41C1D2"/>
<path id="Vector_3" d="M24.0003 9.75701C24.0008 10.0797 23.9055 10.3953 23.7266 10.6638C23.5476 10.9323 23.2929 11.1417 22.9949 11.2654C22.6969 11.3891 22.3688 11.4216 22.0523 11.3588C21.7358 11.2959 21.445 11.1406 21.2168 10.9124C20.9886 10.6842 20.8333 10.3935 20.7705 10.077C20.7076 9.76043 20.7401 9.43238 20.8638 9.13434C20.9876 8.8363 21.1969 8.58167 21.4654 8.40269C21.734 8.22371 22.0495 8.12843 22.3722 8.12891C22.8038 8.12955 23.2176 8.30129 23.5228 8.60648C23.828 8.91167 23.9997 9.32541 24.0003 9.75701Z" fill="#41C1D2"/>
<path id="Vector_4" d="M8.60932 10.5878H11.2221C11.3837 10.5878 11.5387 10.5236 11.6529 10.4093C11.7672 10.295 11.8314 10.1401 11.8314 9.97846C11.8314 9.81686 11.7672 9.66188 11.6529 9.54761C11.5387 9.43334 11.3837 9.36914 11.2221 9.36914H8.60932C8.44772 9.36914 8.29274 9.43334 8.17847 9.54761C8.0642 9.66188 8 9.81686 8 9.97846C8 10.1401 8.0642 10.295 8.17847 10.4093C8.29274 10.5236 8.44772 10.5878 8.60932 10.5878Z" fill="#41C1D2"/>
<path id="Vector_5" d="M8.60932 13.3876H11.2221C11.3837 13.3876 11.5387 13.3234 11.6529 13.2091C11.7672 13.0948 11.8314 12.9399 11.8314 12.7783C11.8314 12.6167 11.7672 12.4617 11.6529 12.3474C11.5387 12.2331 11.3837 12.1689 11.2221 12.1689H8.60932C8.44772 12.1689 8.29274 12.2331 8.17847 12.3474C8.0642 12.4617 8 12.6167 8 12.7783C8 12.9399 8.0642 13.0948 8.17847 13.2091C8.29274 13.3234 8.44772 13.3876 8.60932 13.3876Z" fill="#41C1D2"/>
<path id="Vector_6" d="M11.8314 15.5791C11.8317 15.4989 11.8162 15.4196 11.7857 15.3455C11.7552 15.2714 11.7103 15.2041 11.6537 15.1475C11.597 15.0908 11.5297 15.046 11.4556 15.0155C11.3816 14.9849 11.3022 14.9694 11.2221 14.9697H8.60932C8.44772 14.9697 8.29274 15.0339 8.17847 15.1482C8.0642 15.2625 8 15.4174 8 15.5791C8 15.7407 8.0642 15.8956 8.17847 16.0099C8.29274 16.1242 8.44772 16.1884 8.60932 16.1884H11.2221C11.3022 16.1887 11.3816 16.1732 11.4556 16.1426C11.5297 16.1121 11.597 16.0673 11.6537 16.0106C11.7103 15.954 11.7552 15.8867 11.7857 15.8126C11.8162 15.7385 11.8317 15.6592 11.8314 15.5791Z" fill="#41C1D2"/>
</g>
</g>
</svg>
