<svg width="32" height="32" viewBox="0 0 32 32" fill="none" xmlns="http://www.w3.org/2000/svg">
<g id="BodyFatPercentageKey">
<rect id="Rectangle" width="32" height="32" rx="6" fill="#F6A860" fill-opacity="0.15"/>
<g id="Group">
<path id="Vector" d="M13.1501 14.0004H13.3454C13.0567 14.6274 12.8878 15.32 12.8878 16.0053C12.8878 18.1726 14.5728 18.9422 16.4164 18.9422C18.2601 18.9422 19.945 18.1726 19.945 16.0053C19.945 15.32 19.7762 14.6274 19.4875 14.0004H19.6827C19.9671 14.6431 20.1218 15.3343 20.1218 16.0053C20.1218 16.8203 19.8964 17.488 19.4517 17.9993C19.5292 18.2275 19.7307 18.4035 19.9859 18.435C20.0129 18.4384 20.0397 18.44 20.0662 18.44C20.389 18.44 20.6686 18.1993 20.7091 17.8708C21.0434 15.163 20.6989 13.1681 19.685 11.9415C19.0731 11.2012 18.3867 10.953 18.0195 10.8701C17.6683 11.3798 17.0808 11.7148 16.4163 11.7148C15.7519 11.7148 15.1644 11.3798 14.8131 10.8701C14.4459 10.953 13.7596 11.2012 13.1475 11.9415C12.1338 13.1681 11.7893 15.163 12.1236 17.8708C12.1642 18.1993 12.4438 18.44 12.7666 18.44C12.793 18.44 12.8199 18.4384 12.8469 18.435C13.1021 18.4035 13.3036 18.2275 13.3811 17.9993C12.9364 17.488 12.7109 16.8203 12.7109 16.0053C12.7109 15.3343 12.8657 14.6431 13.1501 14.0004Z" fill="#F6A860"/>
<path id="Vector_2" d="M13.4902 18.1182L14.5171 23.2963C14.5171 23.6852 14.9065 24.0003 15.3867 24.0003C15.8672 24.0003 16.2567 23.6851 16.2567 23.2963V19.1173C15.2857 19.0941 14.4588 18.8583 13.858 18.4312C13.7234 18.3355 13.6013 18.2308 13.4902 18.1182Z" fill="#F6A860"/>
<path id="Vector_3" d="M18.9749 18.4312C18.3741 18.8583 17.5472 19.0941 16.5762 19.1173V23.2963C16.5762 23.6852 16.9657 24.0003 17.4461 24.0003C17.9263 24.0003 18.3159 23.6851 18.3159 23.2963L19.3427 18.1182C19.2317 18.2308 19.1094 18.3355 18.9749 18.4312Z" fill="#F6A860"/>
<path id="Vector_4" d="M16.4165 11.538C17.3935 11.538 18.1855 10.746 18.1855 9.769C18.1855 8.79201 17.3935 8 16.4165 8C15.4395 8 14.6475 8.79201 14.6475 9.769C14.6475 10.746 15.4395 11.538 16.4165 11.538Z" fill="#F6A860"/>
</g>
</g>
</svg>
