<svg width="32" height="32" viewBox="0 0 32 32" fill="none" xmlns="http://www.w3.org/2000/svg">
<g id="Body Volume">
<rect id="Rectangle" width="32" height="32" rx="6" fill="#72B9FB" fill-opacity="0.15"/>
<g id="Group">
<g id="Group_2">
<path id="Vector" d="M17.121 9.48099C17.1254 9.28812 17.0911 9.09625 17.0203 8.91678C16.9496 8.73731 16.8438 8.57383 16.709 8.43587C16.5741 8.2979 16.413 8.18826 16.2352 8.11341C16.0574 8.03857 15.8664 8 15.6735 8C15.4806 8 15.2896 8.03857 15.1118 8.11341C14.934 8.18826 14.7729 8.2979 14.638 8.43587C14.5032 8.57383 14.3971 8.73731 14.3263 8.91678C14.2555 9.09625 14.2216 9.28812 14.226 9.48099C14.2216 9.67386 14.2555 9.86564 14.3263 10.0451C14.3971 10.2246 14.5032 10.3881 14.638 10.526C14.7729 10.664 14.934 10.7736 15.1118 10.8485C15.2896 10.9233 15.4806 10.9619 15.6735 10.9619C15.8664 10.9619 16.0574 10.9233 16.2352 10.8485C16.413 10.7736 16.5741 10.664 16.709 10.526C16.8438 10.3881 16.9496 10.2246 17.0203 10.0451C17.0911 9.86564 17.1254 9.67386 17.121 9.48099Z" fill="#72B9FB"/>
<path id="Vector_2" d="M17.8715 13.9994C17.8511 14.0291 17.831 14.059 17.8111 14.0891C17.6781 14.2913 17.597 14.523 17.5746 14.764C17.4798 15.7768 17.5018 16.7971 17.6403 17.8048L18.4548 22.9784C18.4902 23.2103 18.4323 23.4468 18.2938 23.636C18.1553 23.8253 17.9478 23.952 17.7161 23.9884C17.4845 24.0249 17.2475 23.9682 17.0576 23.8306C16.8677 23.693 16.7402 23.4858 16.7027 23.2543L15.855 17.8707C15.8478 17.8276 15.8256 17.7885 15.7923 17.7602C15.7589 17.732 15.7168 17.7165 15.6732 17.7165C15.6295 17.7165 15.587 17.732 15.5537 17.7602C15.5204 17.7885 15.4985 17.8276 15.4913 17.8707L14.6433 23.2543C14.603 23.4832 14.4745 23.6872 14.2854 23.8223C14.0962 23.9574 13.8615 24.0128 13.6319 23.9767C13.4022 23.9406 13.1961 23.8157 13.0576 23.629C12.919 23.4423 12.8592 23.2087 12.8912 22.9784L13.7057 17.8048C13.8442 16.7971 13.8661 15.7768 13.7714 14.764C13.749 14.5231 13.6679 14.2913 13.5349 14.0891C13.515 14.059 13.4949 14.0291 13.4745 13.9994C13.4618 13.9804 13.4435 13.9658 13.4222 13.9576C13.4009 13.9494 13.3779 13.948 13.3558 13.9535C13.3337 13.959 13.3137 13.9712 13.2988 13.9884C13.2838 14.0056 13.2746 14.0269 13.2723 14.0496C13.1639 15.0469 13.2246 16.0553 13.4521 17.0324C13.4887 17.1899 13.4611 17.3555 13.3756 17.4929C13.2901 17.6302 13.1537 17.728 12.9962 17.7647C12.8386 17.8013 12.6729 17.7738 12.5356 17.6884C12.3982 17.6029 12.3005 17.4663 12.2638 17.3088C11.9181 15.8239 11.9121 14.2801 12.2461 12.7925C12.3381 12.383 12.5668 12.0169 12.8945 11.7547C13.2223 11.4924 13.6294 11.3496 14.0492 11.3496H17.2955C17.7152 11.3496 18.1224 11.4924 18.4501 11.7547C18.7779 12.0169 19.0066 12.383 19.0986 12.7925C19.4325 14.2801 19.4265 15.8239 19.0808 17.3088C19.0431 17.4652 18.945 17.6005 18.8081 17.685C18.6711 17.7695 18.5062 17.7965 18.3495 17.76C18.1927 17.7235 18.0567 17.6266 17.9711 17.4903C17.8855 17.354 17.8573 17.1894 17.8926 17.0324C18.12 16.0553 18.1808 15.0469 18.0724 14.0496C18.0701 14.0269 18.0608 14.0056 18.0459 13.9884C18.0309 13.9712 18.011 13.959 17.9889 13.9535C17.9667 13.948 17.9434 13.9494 17.9221 13.9576C17.9008 13.9658 17.8841 13.9804 17.8715 13.9994Z" fill="#72B9FB"/>
</g>
</g>
</g>
</svg>
