<svg width="32" height="32" viewBox="0 0 32 32" fill="none" xmlns="http://www.w3.org/2000/svg">
<g id="Boxing">
<rect id="Rectangle" width="32" height="32" rx="6" fill="#EFB154" fill-opacity="0.15"/>
<g id="Group 289318">
<path id="Vector" d="M17.8604 12.64C18.1604 12.96 18.3404 13.38 18.3404 13.82C18.3404 14.12 18.2604 14.4 18.1204 14.64L20.5004 17.02C21.0404 17.56 21.9004 17.56 22.4404 17.02L23.6004 15.84C23.8604 15.58 24.0004 15.24 24.0004 14.88C24.0004 14.52 23.8604 14.16 23.6004 13.9L18.0804 8.4C17.8204 8.14 17.4804 8 17.1204 8C16.7604 8 16.4004 8.14 16.1604 8.4L15.0004 9.56C14.9604 9.6 14.9204 9.64 14.9004 9.68C14.9604 9.72 15.0404 9.78 15.1004 9.84L17.8604 12.64Z" fill="#EFB154"/>
<path id="Vector_2" d="M15.5596 21.3796C16.2596 22.0796 17.3996 22.0796 18.0796 21.3796L21.3596 18.0996C20.8596 18.0796 20.3796 17.8796 19.9996 17.4996L17.6596 15.1596C17.3796 15.3596 17.0396 15.4796 16.6796 15.4796C16.2396 15.4796 15.8196 15.2996 15.4996 14.9996L13.7396 13.2396C13.5996 13.1196 13.5996 12.8996 13.7396 12.7596C13.8596 12.6396 14.0796 12.6396 14.2196 12.7596L15.9796 14.5196C16.3396 14.8796 16.9996 14.8796 17.3796 14.5196C17.5596 14.3396 17.6596 14.0796 17.6596 13.8196C17.6596 13.5596 17.5596 13.2996 17.3796 13.1196L14.5996 10.3396C14.3996 10.1396 14.1596 10.0596 13.8996 10.0596C13.6396 10.0596 13.3996 10.1596 13.1996 10.3396L10.1196 13.3996C9.77961 13.7396 9.59961 14.1796 9.59961 14.6596C9.59961 15.1396 9.77961 15.5796 10.1196 15.9396L15.5596 21.3796Z" fill="#EFB154"/>
<path id="Vector_3" d="M15.12 21.8999L9.6 16.3799L8 17.9799L13.52 23.4999L15.12 21.8999Z" fill="#EFB154"/>
</g>
</g>
</svg>
