<svg width="32" height="32" viewBox="0 0 32 32" fill="none" xmlns="http://www.w3.org/2000/svg">
<g id="Blood-pressure-systolic">
<rect id="Rectangle" width="32" height="32" rx="6" fill="#EF5D5D" fill-opacity="0.15"/>
<g id="Group">
<g id="Group_2">
<path id="Vector" d="M22.6188 10.3812C20.7771 8.53959 17.8145 8.53959 15.9928 10.3812C14.1512 8.53959 11.1885 8.53959 9.36691 10.3812C7.58532 12.1628 7.54528 15.0454 9.2468 16.8871C9.78729 16.3466 10.528 16.0263 11.3487 16.0263C13.0102 16.0263 14.3514 17.3675 14.3514 19.029C14.3514 19.8497 14.0111 20.6104 13.4706 21.1509L15.9928 23.6531L22.6188 17.0272C24.4604 15.1855 24.4604 12.2229 22.6188 10.3812ZM10.1276 13.7843C9.6872 13.7843 9.32688 13.424 9.32688 12.9836C9.32688 12.5432 10.1276 11.4622 10.1276 11.4622C10.1276 11.4622 10.9283 12.5432 10.9283 12.9836C10.9283 13.424 10.568 13.7843 10.1276 13.7843ZM11.4087 11.9827C11.0684 11.9827 10.7882 11.7024 10.7882 11.3621C10.7882 11.0218 11.4087 10.1811 11.4087 10.1811C11.4087 10.1811 12.0293 11.0218 12.0293 11.3621C12.0293 11.7224 11.749 11.9827 11.4087 11.9827ZM12.5297 19.029C12.5297 18.9689 12.5698 18.9289 12.6298 18.9289H12.9501C12.9101 18.1282 12.2495 17.4876 11.4488 17.4275V17.7478C11.4488 17.8079 11.4087 17.8479 11.3487 17.8479C11.2886 17.8479 11.2486 17.8079 11.2486 17.7478V17.4275C10.4479 17.4676 9.80731 18.1282 9.74725 18.9289H10.0675C10.1276 18.9289 10.1676 18.9689 10.1676 19.029C10.1676 19.089 10.1476 19.1291 10.0876 19.1291H9.76727C9.80731 19.9298 10.4679 20.5703 11.2686 20.6304V20.3101C11.2686 20.2501 11.3086 20.21 11.3687 20.21C11.4288 20.21 11.4688 20.2501 11.4688 20.3101V20.6304C12.2695 20.5904 12.9101 19.9298 12.9701 19.1291H12.6498C12.5698 19.1291 12.5297 19.069 12.5297 19.029ZM11.649 19.3092C11.5689 19.5294 11.3086 19.6495 11.0885 19.5695C10.8683 19.4894 10.7481 19.2292 10.8282 19.009C10.8683 18.8888 10.9683 18.8088 11.0885 18.7487L12.0093 18.3884L11.649 19.3092ZM11.3687 16.5267C9.98747 16.5267 8.86646 17.6477 8.86646 19.029C8.86646 20.4102 9.96745 21.5312 11.3687 21.5312C12.77 21.5312 13.8709 20.4102 13.8709 19.029C13.8709 17.6477 12.7499 16.5267 11.3687 16.5267ZM11.3687 21.0308C10.2677 21.0308 9.36691 20.13 9.36691 19.029C9.36691 17.928 10.2677 17.0272 11.3687 17.0272C12.4697 17.0272 13.3705 17.928 13.3705 19.029C13.3705 20.13 12.4697 21.0308 11.3687 21.0308Z" fill="white"/>
</g>
<g id="Group_3">
<path id="Vector_2" d="M22.6188 10.3812C20.7771 8.53959 17.8145 8.53959 15.9928 10.3812C14.1512 8.53959 11.1885 8.53959 9.36691 10.3812C7.58532 12.1628 7.54528 15.0454 9.2468 16.8871C9.78729 16.3466 10.528 16.0263 11.3487 16.0263C13.0102 16.0263 14.3514 17.3675 14.3514 19.029C14.3514 19.8497 14.0111 20.6104 13.4706 21.1509L15.9928 23.6531L22.6188 17.0272C24.4604 15.1855 24.4604 12.2229 22.6188 10.3812ZM10.1276 13.7843C9.6872 13.7843 9.32688 13.424 9.32688 12.9836C9.32688 12.5432 10.1276 11.4622 10.1276 11.4622C10.1276 11.4622 10.9283 12.5432 10.9283 12.9836C10.9283 13.424 10.568 13.7843 10.1276 13.7843ZM11.4087 11.9827C11.0684 11.9827 10.7882 11.7024 10.7882 11.3621C10.7882 11.0218 11.4087 10.1811 11.4087 10.1811C11.4087 10.1811 12.0293 11.0218 12.0293 11.3621C12.0293 11.7224 11.749 11.9827 11.4087 11.9827ZM12.5297 19.029C12.5297 18.9689 12.5698 18.9289 12.6298 18.9289H12.9501C12.9101 18.1282 12.2495 17.4876 11.4488 17.4275V17.7478C11.4488 17.8079 11.4087 17.8479 11.3487 17.8479C11.2886 17.8479 11.2486 17.8079 11.2486 17.7478V17.4275C10.4479 17.4676 9.80731 18.1282 9.74725 18.9289H10.0675C10.1276 18.9289 10.1676 18.9689 10.1676 19.029C10.1676 19.089 10.1476 19.1291 10.0876 19.1291H9.76727C9.80731 19.9298 10.4679 20.5703 11.2686 20.6304V20.3101C11.2686 20.2501 11.3086 20.21 11.3687 20.21C11.4288 20.21 11.4688 20.2501 11.4688 20.3101V20.6304C12.2695 20.5904 12.9101 19.9298 12.9701 19.1291H12.6498C12.5698 19.1291 12.5297 19.069 12.5297 19.029ZM11.649 19.3092C11.5689 19.5294 11.3086 19.6495 11.0885 19.5695C10.8683 19.4894 10.7481 19.2292 10.8282 19.009C10.8683 18.8888 10.9683 18.8088 11.0885 18.7487L12.0093 18.3884L11.649 19.3092ZM11.3687 16.5267C9.98747 16.5267 8.86646 17.6477 8.86646 19.029C8.86646 20.4102 9.96745 21.5312 11.3687 21.5312C12.77 21.5312 13.8709 20.4102 13.8709 19.029C13.8709 17.6477 12.7499 16.5267 11.3687 16.5267ZM11.3687 21.0308C10.2677 21.0308 9.36691 20.13 9.36691 19.029C9.36691 17.928 10.2677 17.0272 11.3687 17.0272C12.4697 17.0272 13.3705 17.928 13.3705 19.029C13.3705 20.13 12.4697 21.0308 11.3687 21.0308Z" fill="#EF5D5D"/>
</g>
</g>
<g id="Group 289307">
<circle id="Ellipse 40" cx="24" cy="8" r="6" fill="white"/>
<path id="S" d="M25.3593 6.53519C25.3296 6.23642 25.2025 6.00432 24.9778 5.83889C24.7531 5.67346 24.4481 5.59074 24.063 5.59074C23.8012 5.59074 23.5802 5.62778 23.4 5.70185C23.2198 5.77346 23.0815 5.87346 22.9852 6.00185C22.8914 6.13025 22.8444 6.27593 22.8444 6.43889C22.8395 6.57469 22.8679 6.69321 22.9296 6.79444C22.9938 6.89568 23.0815 6.98333 23.1926 7.05741C23.3037 7.12901 23.4321 7.19198 23.5778 7.2463C23.7235 7.29815 23.879 7.34259 24.0444 7.37963L24.7259 7.54259C25.0568 7.61667 25.3605 7.71543 25.637 7.83889C25.9136 7.96235 26.1531 8.1142 26.3556 8.29444C26.558 8.47469 26.7148 8.68704 26.8259 8.93148C26.9395 9.17593 26.9975 9.45617 27 9.77222C26.9975 10.2364 26.879 10.6389 26.6444 10.9796C26.4123 11.3179 26.0765 11.5809 25.637 11.7685C25.2 11.9537 24.6728 12.0463 24.0556 12.0463C23.4432 12.0463 22.9099 11.9525 22.4556 11.7648C22.0037 11.5772 21.6506 11.2994 21.3963 10.9315C21.1444 10.5611 21.0123 10.1031 21 9.55741H22.5519C22.5691 9.81173 22.642 10.0241 22.7704 10.1944C22.9012 10.3623 23.0753 10.4895 23.2926 10.5759C23.5123 10.6599 23.7605 10.7019 24.037 10.7019C24.3086 10.7019 24.5444 10.6623 24.7444 10.5833C24.9469 10.5043 25.1037 10.3944 25.2148 10.2537C25.3259 10.113 25.3815 9.95123 25.3815 9.76852C25.3815 9.59815 25.3309 9.45494 25.2296 9.33889C25.1309 9.22284 24.9852 9.12407 24.7926 9.04259C24.6025 8.96111 24.3691 8.88704 24.0926 8.82037L23.2667 8.61296C22.6272 8.45741 22.1222 8.2142 21.7519 7.88333C21.3815 7.55247 21.1975 7.10679 21.2 6.5463C21.1975 6.08704 21.3198 5.6858 21.5667 5.34259C21.816 4.99938 22.158 4.73148 22.5926 4.53889C23.0272 4.3463 23.521 4.25 24.0741 4.25C24.637 4.25 25.1284 4.3463 25.5481 4.53889C25.9704 4.73148 26.2988 4.99938 26.5333 5.34259C26.7679 5.6858 26.8889 6.08333 26.8963 6.53519H25.3593Z" fill="#EF5D5D"/>
</g>
</g>
</svg>
