<svg width="32" height="32" viewBox="0 0 32 32" fill="none" xmlns="http://www.w3.org/2000/svg">
<g id="Cardio">
<rect id="Rectangle" width="32" height="32" rx="6" fill="#E16F6F" fill-opacity="0.15"/>
<path id="Vector" d="M22.1504 8.65976C20.365 7.49751 17.9731 8.00284 16.6424 9.6704L16.1708 10.2431C16.0697 10.3779 15.8676 10.3779 15.7665 10.2431L15.1938 9.53565C13.7284 7.66595 10.9323 7.46383 9.1805 9.14823C7.7656 10.5294 7.64769 12.7192 8.69202 14.3699H11.2018L12.3809 12.3991C12.5156 12.1633 12.7683 12.0286 13.021 12.0286C13.2905 12.0286 13.5263 12.1633 13.661 12.3991L15.8002 16.0038L16.5414 14.7405C16.6761 14.5047 16.9288 14.3699 17.1814 14.3699H19.3038C19.7249 14.3699 20.0618 14.7068 20.0618 15.1279C20.0618 15.549 19.7249 15.8859 19.3038 15.8859H17.6531L16.474 17.8566C16.3392 18.0924 16.0866 18.2272 15.8339 18.2272C15.5644 18.2272 15.3286 18.0924 15.1938 17.8566L13.0378 14.252L12.2967 15.5153C12.1619 15.7511 11.9092 15.8859 11.6566 15.8859H9.85426L14.7727 22.0508C15.3791 22.8256 16.5582 22.8256 17.1646 22.0508L23.1106 14.6226C24.5928 12.7529 24.1886 9.99044 22.1504 8.65976Z" fill="#E16F6F"/>
</g>
</svg>
