<?xml version="1.0" encoding="UTF-8"?>
<svg width="20px" height="16px" viewBox="0 0 20 16" version="1.1" xmlns="http://www.w3.org/2000/svg" xmlns:xlink="http://www.w3.org/1999/xlink">
    <title>Programs-icon</title>
    <g id="Symbols" stroke="none" stroke-width="1" fill="none" fill-rule="evenodd">
        <g id="Q-path-inactive" transform="translate(-38.000000, -17.000000)" fill="#B0B0B0" fill-rule="nonzero">
            <g id="Dashbaord" transform="translate(22.000000, 0.000000)">
                <path d="M35.2842105,17 L16.7157895,17 C16.3157895,17 16,17.3157895 16,17.7157895 L16,31.6526316 C16,32.0526316 16.3157895,32.3684211 16.7157895,32.3684211 L35.2842105,32.3684211 C35.6842105,32.3684211 36,32.0526316 36,31.6526316 L36,17.7157895 C36,17.3157895 35.6842105,17 35.2842105,17 Z M22.0421053,29.2105263 C21.5368421,29.2105263 21.1368421,28.8105263 21.1368421,28.3052632 C21.1368421,27.8 21.5368421,27.4 22.0421053,27.4 C22.5473684,27.4 22.9473684,27.8 22.9473684,28.3052632 C22.9473684,28.8105263 22.5263158,29.2105263 22.0421053,29.2105263 Z M24.2947368,24.2842105 C23.9368421,24.7894737 23.5578947,25.0421053 23.2842105,25.2315789 C22.9684211,25.4631579 22.8210526,25.5684211 22.7789474,26.0947368 C22.7578947,26.2842105 22.5894737,26.4526316 22.4,26.4526316 L21.7052632,26.4526316 C21.6,26.4526316 21.4947368,26.4105263 21.4105263,26.3263158 C21.3263158,26.2421053 21.3052632,26.1368421 21.3052632,26.0315789 C21.3894737,24.8526316 21.8526316,24.4526316 22.4210526,24.0315789 C22.6526316,23.8631579 22.8631579,23.7157895 23.0947368,23.4 C23.3263158,23.0842105 23.3473684,22.6421053 23.1578947,22.2842105 C23.0315789,22.0315789 22.6947368,21.6105263 21.9157895,21.6105263 C20.9052632,21.6105263 20.5684211,22.2421053 20.4842105,22.7684211 C20.4421053,22.9578947 20.2947368,23.0842105 20.1052632,23.0842105 L19.4105263,23.0842105 C19.3052632,23.0842105 19.1789474,23.0421053 19.1157895,22.9578947 C19.0526316,22.8736842 19.0105263,22.7684211 19.0315789,22.6631579 C19.2,21.4421053 20.0631579,20.1578947 21.9368421,20.1578947 C23.0736842,20.1578947 24.0210526,20.7052632 24.4842105,21.6315789 C24.9473684,22.5157895 24.8631579,23.5263158 24.2947368,24.2842105 Z M31.9157895,29.0421053 L27.4947368,29.0421053 C27.0947368,29.0421053 26.7789474,28.7263158 26.7789474,28.3263158 C26.7789474,27.9263158 27.0947368,27.6105263 27.4947368,27.6105263 L31.9368421,27.6105263 C32.3368421,27.6105263 32.6526316,27.9263158 32.6526316,28.3263158 C32.6526316,28.7052632 32.3157895,29.0421053 31.9157895,29.0421053 Z M31.9157895,25.4 L27.4947368,25.4 C27.0947368,25.4 26.7789474,25.0842105 26.7789474,24.6842105 C26.7789474,24.2842105 27.0947368,23.9684211 27.4947368,23.9684211 L31.9368421,23.9684211 C32.3368421,23.9684211 32.6526316,24.2842105 32.6526316,24.6842105 C32.6526316,25.0842105 32.3157895,25.4 31.9157895,25.4 Z M31.9157895,21.7789474 L27.4947368,21.7789474 C27.0947368,21.7789474 26.7789474,21.4631579 26.7789474,21.0631579 C26.7789474,20.6631579 27.0947368,20.3473684 27.4947368,20.3473684 L31.9368421,20.3473684 C32.3368421,20.3473684 32.6526316,20.6631579 32.6526316,21.0631579 C32.6526316,21.4631579 32.3157895,21.7789474 31.9157895,21.7789474 Z" id="Programs-icon"></path>
            </g>
        </g>
    </g>
</svg>