<?xml version="1.0" encoding="UTF-8"?>
<svg width="22px" height="20px" viewBox="0 0 22 20" version="1.1" xmlns="http://www.w3.org/2000/svg" xmlns:xlink="http://www.w3.org/1999/xlink">
    <title>Carepaths</title>
    <g id="Welcome" stroke="none" stroke-width="1" fill="none" fill-rule="evenodd">
        <g id="Cards-&amp;-Badges" transform="translate(-508.000000, -4350.000000)" fill="#212121" fill-rule="nonzero">
            <g id="Carepaths" transform="translate(508.000000, 4350.000000)">
                <path d="M10.7247312,7.0692438 C8.84946237,4.48859864 5.05806452,5.33591047 5.11182796,8.68859864 C5.16129032,11.9230072 8.8172043,13.5789212 10.7247312,15.7187062 C12.6430108,13.5681685 16.288172,11.9165556 16.3376344,8.67999649 C16.3913978,5.33591047 12.6,4.4864481 10.7247312,7.0692438 Z" id="Path"></path>
                <path d="M19.4924731,9.91225456 L17.5784946,12.3595664 L18.6537634,12.3595664 C17.5675018,16.0269132 14.110002,18.4724396 10.2902532,18.2751659 C6.47050453,18.0778923 3.28332976,15.2891971 2.58064516,11.5294589 L0.840860215,11.5294589 C1.57560498,16.2437688 5.53785097,19.7827739 10.3048894,19.9825555 C15.0719278,20.182337 19.3163917,16.9872663 20.4430108,12.3509642 L21.4043011,12.3509642 L19.4924731,9.91225456 Z" id="Path"></path>
                <path d="M3.82580645,7.85849111 L2.72903226,7.85849111 C3.72871419,4.1276939 7.1757243,1.58418206 11.035407,1.72930613 C14.8950898,1.8744302 18.1413651,4.66960957 18.8580645,8.46494273 L20.6064516,8.46494273 C19.8675158,3.70844073 15.8447378,0.153308447 11.0334711,0.00481581127 C6.22220442,-0.143676824 1.98784406,3.15661109 0.956989247,7.85849111 L0,7.85849111 L1.91397849,10.3058029 L3.82580645,7.85849111 Z" id="Path"></path>
            </g>
        </g>
    </g>
</svg>