<?xml version="1.0" encoding="UTF-8"?>
<svg width="25px" height="20px" viewBox="0 0 25 20" version="1.1" xmlns="http://www.w3.org/2000/svg" xmlns:xlink="http://www.w3.org/1999/xlink">
    <title>Chat-icon</title>
    <g id="Welcome" stroke="none" stroke-width="1" fill="none" fill-rule="evenodd">
        <g id="Cards-&amp;-Badges" transform="translate(-647.000000, -4348.000000)" fill="#b0b0b0" fill-rule="nonzero">
            <path d="M671.76177,4355.14282 L671.76177,4363.7142 C671.759469,4364.50222 671.121225,4365.14046 670.333207,4365.14276 L668.904643,4365.14276 L668.904643,4367.5237 C668.906699,4367.70375 668.80469,4367.86882 668.64274,4367.94751 C668.481722,4368.03068 668.287258,4368.01401 668.142742,4367.90465 L664.46181,4365.14276 L656.999946,4365.14276 C656.211927,4365.14046 655.573683,4364.50222 655.571382,4363.7142 L655.571382,4360.38089 L661.761825,4360.38089 C663.076585,4360.38041 664.142291,4359.31471 664.142764,4357.99995 L664.142764,4353.71425 L670.333207,4353.71425 C671.121225,4353.71656 671.759469,4354.3548 671.76177,4355.14282 L671.76177,4355.14282 Z M661.761825,4359.42851 L654.301627,4359.42851 L650.619028,4362.1904 C650.474735,4362.29862 650.281682,4362.31603 650.120358,4362.23536 C649.959033,4362.1547 649.857127,4361.98982 649.857127,4361.80945 L649.857127,4359.42851 L648.428564,4359.42851 C647.639949,4359.42764 647.000866,4358.78856 647,4357.99995 L647,4349.42856 C647.000866,4348.63995 647.639949,4348.00087 648.428564,4348 L661.761825,4348 C662.550439,4348.00087 663.189522,4348.63995 663.190388,4349.42856 L663.190388,4357.99995 C663.189522,4358.78856 662.550439,4359.42764 661.761825,4359.42851 L661.761825,4359.42851 Z M651.761879,4353.23807 L650.809503,4353.23807 L650.809503,4354.19044 L651.761879,4354.19044 L651.761879,4353.23807 Z M655.571382,4353.23807 L654.619006,4353.23807 L654.619006,4354.19044 L655.571382,4354.19044 L655.571382,4353.23807 Z M659.380885,4353.23807 L658.428509,4353.23807 L658.428509,4354.19044 L659.380885,4354.19044 L659.380885,4353.23807 Z" id="Chat-icon"></path>
        </g>
    </g>
</svg>