<svg width="32" height="32" viewBox="0 0 32 32" fill="none" xmlns="http://www.w3.org/2000/svg">
<g id="Climbing">
<rect id="Rectangle" width="32" height="32" rx="6" fill="#6650EF" fill-opacity="0.15"/>
<g id="Group 289319">
<path id="Vector" fill-rule="evenodd" clip-rule="evenodd" d="M19.4441 8.23933C19.4194 8.10322 19.3003 8 19.157 8L19.1046 8.0047C18.9684 8.02941 18.8652 8.14854 18.8652 8.29178V9.8571C18.7916 9.87651 18.7192 9.90593 18.65 9.94586L13.4959 12.9219C13.4199 12.9524 13.3451 12.9887 13.2721 13.0309L12.7667 13.3226C12.6756 13.3752 12.5943 13.4383 12.5234 13.5093C12.4584 13.56 12.3962 13.6141 12.3368 13.6715L10.3559 15.5867C9.96894 15.9608 9.88801 16.5511 10.16 17.0156L11.5663 19.417C11.6848 19.6193 11.872 19.7565 12.081 19.8162V23.667L12.0857 23.7194C12.1104 23.8556 12.2295 23.9588 12.3727 23.9588L12.4252 23.9541C12.5613 23.9294 12.6645 23.8102 12.6645 23.667L12.6643 19.7803C12.6981 19.7658 12.7314 19.7491 12.764 19.73L12.8349 19.6839C13.1859 19.4304 13.3003 18.9534 13.096 18.5666L18.8028 11.8791L19.5254 11.4619L19.5965 11.4163C19.9596 11.1576 20.0733 10.6602 19.8458 10.2662C19.7507 10.1014 19.61 9.97922 19.4488 9.90642V8.29178L19.4441 8.23933ZM17.2902 12.7523L15.6722 13.6864L16.0035 14.2605L17.2902 12.7523ZM13.5923 17.0869L12.7791 15.6785L11.902 16.5268L12.7847 18.0335L13.5923 17.0869Z" fill="#6650EF"/>
<path id="Vector_2" d="M13.8744 10.9782C13.8744 11.9451 13.0906 12.7289 12.1238 12.7289C11.1569 12.7289 10.373 11.9451 10.373 10.9782C10.373 10.0114 11.1569 9.22754 12.1238 9.22754C13.0906 9.22754 13.8744 10.0114 13.8744 10.9782Z" fill="#6650EF"/>
<path id="Vector_3" d="M16.6227 15.333L17.2402 16.4026H19.3349C19.7519 16.4026 20.1372 16.625 20.3457 16.986L22.0548 19.9458C22.2965 20.3645 22.1531 20.8998 21.7344 21.1416C21.3158 21.3833 20.7804 21.2399 20.5386 20.8213L18.9976 18.1531L16.2301 18.1532L17.0218 19.525C17.2302 19.8861 17.2302 20.3308 17.0218 20.6919L15.3652 23.5623C15.1235 23.981 14.5881 24.1245 14.1694 23.8829C13.7507 23.6412 13.6072 23.1059 13.8488 22.6871L15.3369 20.1081L14.6743 18.9599L14.6737 18.9602L14.2114 18.1592L16.6227 15.333Z" fill="#6650EF"/>
</g>
</g>
</svg>
