<?xml version="1.0" encoding="UTF-8"?>
<svg width="15px" height="15px" viewBox="0 0 15 15" version="1.1" xmlns="http://www.w3.org/2000/svg" xmlns:xlink="http://www.w3.org/1999/xlink">
    <!-- Generator: Sketch 64 (93537) - https://sketch.com -->
    <title>Close-Btn</title>
    <desc>Created with Sketch.</desc>
    <g id="Welcome" stroke="none" stroke-width="1" fill="none" fill-rule="evenodd">
        <g id="Add-QPath" transform="translate(-1395.000000, -38.000000)" fill="#212121" fill-rule="nonzero">
            <g id="Model-Pop" transform="translate(920.000000, 0.000000)">
                <path d="M488.133393,51.8 L482.519393,46.533 L476.905393,51.8 C476.45873,52.2085633 475.774057,52.2085633 475.327393,51.8 C475.118879,51.6104755 475,51.341776 475,51.06 C475,50.778224 475.118879,50.5095245 475.327393,50.32 L480.941393,45.054 L475.327393,39.787 C475.119211,39.5974948 475.00055,39.3290173 475.00055,39.0475 C475.00055,38.7659827 475.119211,38.4975052 475.327393,38.308 C475.773687,37.8984868 476.459099,37.8984868 476.905393,38.308 L482.519393,43.574 L488.133393,38.308 C488.579356,37.8986222 489.26443,37.8986222 489.710393,38.308 C489.918575,38.4975052 490.037237,38.7659827 490.037237,39.0475 C490.037237,39.3290173 489.918575,39.5974948 489.710393,39.787 L484.096393,45.054 L489.710393,50.32 C489.918907,50.5095245 490.037786,50.778224 490.037786,51.06 C490.037786,51.341776 489.918907,51.6104755 489.710393,51.8 C489.263877,52.2079538 488.57991,52.2079538 488.133393,51.8 L488.133393,51.8 Z" id="Close-Btn"></path>
            </g>
        </g>
    </g>
</svg>