<?xml version="1.0" encoding="UTF-8"?>
<svg width="160px" height="160px" viewBox="0 0 160 160" version="1.1" xmlns="http://www.w3.org/2000/svg" xmlns:xlink="http://www.w3.org/1999/xlink">
    <title>BE10BB0D-5D55-4DA1-B54F-2190EE45A752</title>
    <g id="Design" stroke="none" stroke-width="1" fill="none" fill-rule="evenodd">
        <g id="Configuration-mismatch" transform="translate(-295.000000, -625.000000)">
            <g id="Cont" transform="translate(155.000000, 625.000000)">
                <g id="Config-icon" transform="translate(140.000000, 0.000000)">
                    <circle id="Oval" fill="#CCE4F6" cx="80" cy="80" r="80"></circle>
                    <g id="Icon" transform="translate(40.000000, 33.000000)">
                        <g id="Config-icon" transform="translate(0.000000, 7.000000)" fill="#0078D3" fill-rule="nonzero">
                            <path d="M79.3939394,46.0606061 C79.3939394,46.6666667 78.9090909,47.1515152 78.4242424,47.2727273 L71.5151515,48.4848485 C70.7878788,51.2727273 69.6969697,53.9393939 68.2424242,56.4848485 L72.2424242,62.3030303 C72.6060606,62.7878788 72.4848485,63.3939394 72.1212121,63.8787879 L63.7575758,72.3636364 C63.3939394,72.7272727 62.6666667,72.8484848 62.1818182,72.4848485 L56.3636364,68.4848485 C55.1515152,69.2121212 53.9393939,69.8181818 52.6060606,70.3030303 C52.2424242,70.4242424 51.7575758,70.4242424 51.5151515,70.1818182 C51.1515152,69.9393939 50.9090909,69.5757576 50.9090909,69.2121212 L50.9090909,60.6060606 C50.9090909,60.1212121 51.1515152,59.7575758 51.5151515,59.5151515 C58.3030303,55.3939394 62.4242424,48.2424242 62.4242424,40.2424242 C62.4242424,27.8787879 52.3636364,17.8181818 40,17.8181818 C17.2121212,17.8181818 8.96969697,47.8787879 28.3636364,59.5151515 C28.7272727,59.7575758 28.969697,60.1212121 28.969697,60.6060606 L28.969697,69.0909091 C28.969697,69.4545455 28.7272727,69.8181818 28.4848485,70.0606061 C28.1212121,70.3030303 27.7575758,70.3030303 27.3939394,70.1818182 C26.1818182,69.6969697 24.969697,69.0909091 23.8787879,68.3636364 L18.0606061,72.3636364 C17.8181818,72.4848485 17.5757576,72.6060606 17.3333333,72.6060606 C16.969697,72.6060606 16.7272727,72.4848485 16.4848485,72.2424242 L8,63.8787879 C7.63636364,63.3939394 7.51515152,62.7878788 7.87878788,62.3030303 L11.8787879,56.4848485 C10.4242424,53.9393939 9.33333333,51.2727273 8.60606061,48.4848485 L1.6969697,47.2727273 C1.09090909,47.1515152 0.727272727,46.6666667 0.727272727,46.0606061 L0.727272727,34.1818182 C0.727272727,33.5757576 1.09090909,33.0909091 1.6969697,32.969697 L8.60606061,31.7575758 C9.33333333,28.969697 10.4242424,26.3030303 11.8787879,23.7575758 L7.87878788,17.9393939 C7.51515152,17.4545455 7.63636364,16.8484848 8,16.3636364 L16.3636364,8 C16.7272727,7.63636364 17.4545455,7.51515152 17.9393939,7.87878788 L23.7575758,11.8787879 C26.3030303,10.4242424 28.969697,9.33333333 31.7575758,8.60606061 L32.969697,1.6969697 C33.0909091,1.09090909 33.5757576,0.727272727 34.1818182,0.727272727 L46.0606061,0.727272727 C46.6666667,0.727272727 47.1515152,1.09090909 47.2727273,1.6969697 L48.4848485,8.60606061 C51.2727273,9.33333333 53.9393939,10.4242424 56.4848485,11.8787879 L62.3030303,7.87878788 C62.7878788,7.51515152 63.3939394,7.63636364 63.8787879,8 L72.3636364,16.3636364 C72.8484848,16.7272727 72.8484848,17.4545455 72.4848485,17.9393939 L68.4848485,23.7575758 C69.9393939,26.3030303 71.030303,28.969697 71.8787879,31.7575758 L78.7878788,32.969697 C79.3939394,33.0909091 79.7575758,33.5757576 79.7575758,34.1818182 L79.3939394,46.0606061 Z" id="Path"></path>
                            <path d="M50.3030303,52.2424242 C48.7272727,53.5757576 47.8787879,55.6363636 47.8787879,57.8181818 L47.8787879,78.0606061 C47.8787879,78.7878788 47.2727273,79.2727273 46.6666667,79.2727273 L33.3333333,79.2727273 C32.6060606,79.2727273 32.1212121,78.7878788 32.1212121,78.0606061 L32.1212121,57.6969697 C32.1212121,55.5151515 31.2727273,53.4545455 29.6969697,52.1212121 C20.969697,44.7272727 22.9090909,30.7878788 33.2121212,25.9393939 C33.5757576,25.8181818 34.0606061,25.8181818 34.4242424,26.0606061 C34.7878788,26.3030303 35.030303,26.6666667 35.030303,27.1515152 L35.030303,38.7878788 C35.030303,39.7575758 35.8787879,40.6060606 36.8484848,40.6060606 L43.2727273,40.6060606 C44.2424242,40.6060606 45.0909091,39.8787879 45.0909091,38.7878788 L45.0909091,27.030303 C45.0909091,26.5454545 45.3333333,26.1818182 45.6969697,25.9393939 C46.0606061,25.6969697 46.5454545,25.6969697 46.9090909,25.8181818 C56.969697,30.7878788 59.030303,44.7272727 50.3030303,52.2424242 Z" id="Path"></path>
                        </g>
                        <g id="Cross" transform="translate(47.000000, 0.000000)">
                            <path d="M34.140625,34.140625 C38.046875,30.234375 40,25.5208333 40,20 C40,14.4791667 38.046875,9.765625 34.140625,5.859375 C30.234375,1.953125 25.5208333,0 20,0 C14.4791667,0 9.765625,1.953125 5.859375,5.859375 C1.953125,9.765625 0,14.4791667 0,20 C0,25.5208333 1.953125,30.234375 5.859375,34.140625 C9.765625,38.046875 14.4791667,40 20,40 C25.5208333,40 30.234375,38.046875 34.140625,34.140625 Z" id="Path" fill="#D32027" fill-rule="nonzero"></path>
                            <g id="Add" transform="translate(20.666667, 20.666667) rotate(45.000000) translate(-20.666667, -20.666667) translate(10.666667, 10.666667)" stroke="#FFFFFF" stroke-linecap="round" stroke-width="3">
                                <line x1="10" y1="19.6875" x2="10" y2="0.3125" id="Path"></line>
                                <line x1="10" y1="20" x2="10" y2="-6.77380374e-12" id="Path" transform="translate(10.000000, 10.000000) rotate(90.000000) translate(-10.000000, -10.000000) "></line>
                            </g>
                        </g>
                    </g>
                </g>
            </g>
        </g>
    </g>
</svg>