<?xml version="1.0" encoding="UTF-8"?>
<svg width="14px" height="14px" viewBox="0 0 14 14" version="1.1" xmlns="http://www.w3.org/2000/svg" xmlns:xlink="http://www.w3.org/1999/xlink">
    <!-- Generator: Sketch 64 (93537) - https://sketch.com -->
    <title>Config-icon-white</title>
    <desc>Created with Sketch.</desc>
    <g id="Welcome" stroke="none" stroke-width="1" fill="none" fill-rule="evenodd">
        <g id="Dashboard" transform="translate(-1274.000000, -167.000000)" fill="#FFFFFF" fill-rule="nonzero">
            <g id="Button-/-Medium-/-Left-+-Right-Icon" transform="translate(1259.000000, 154.000000)">
                <g id="Left-Icon" transform="translate(15.000000, 13.000000)">
                    <g id="Config-icon-white" transform="translate(0.333333, 0.333333)">
                        <path d="M13.2323232,7.67676768 C13.2323232,7.77777778 13.1515152,7.85858586 13.0707071,7.87878788 L11.9191919,8.08080808 C11.7979798,8.54545455 11.6161616,8.98989899 11.3737374,9.41414141 L12.040404,10.3838384 C12.1010101,10.4646465 12.0808081,10.5656566 12.020202,10.6464646 L10.6262626,12.0606061 C10.5656566,12.1212121 10.4444444,12.1414141 10.3636364,12.0808081 L9.39393939,11.4141414 C9.19191919,11.5353535 8.98989899,11.6363636 8.76767677,11.7171717 C8.70707071,11.7373737 8.62626263,11.7373737 8.58585859,11.6969697 C8.52525253,11.6565657 8.48484848,11.5959596 8.48484848,11.5353535 L8.48484848,10.1010101 C8.48484848,10.020202 8.52525253,9.95959596 8.58585859,9.91919192 C9.71717172,9.23232323 10.4040404,8.04040404 10.4040404,6.70707071 C10.4040404,4.64646465 8.72727273,2.96969697 6.66666667,2.96969697 C2.86868687,2.96969697 1.49494949,7.97979798 4.72727273,9.91919192 C4.78787879,9.95959596 4.82828283,10.020202 4.82828283,10.1010101 L4.82828283,11.5151515 C4.82828283,11.5757576 4.78787879,11.6363636 4.74747475,11.6767677 C4.68686869,11.7171717 4.62626263,11.7171717 4.56565657,11.6969697 C4.36363636,11.6161616 4.16161616,11.5151515 3.97979798,11.3939394 L3.01010101,12.0606061 C2.96969697,12.0808081 2.92929293,12.1010101 2.88888889,12.1010101 C2.82828283,12.1010101 2.78787879,12.0808081 2.74747475,12.040404 L1.33333333,10.6464646 C1.27272727,10.5656566 1.25252525,10.4646465 1.31313131,10.3838384 L1.97979798,9.41414141 C1.73737374,8.98989899 1.55555556,8.54545455 1.43434343,8.08080808 L0.282828283,7.87878788 C0.181818182,7.85858586 0.121212121,7.77777778 0.121212121,7.67676768 L0.121212121,5.6969697 C0.121212121,5.5959596 0.181818182,5.51515152 0.282828283,5.49494949 L1.43434343,5.29292929 C1.55555556,4.82828283 1.73737374,4.38383838 1.97979798,3.95959596 L1.31313131,2.98989899 C1.25252525,2.90909091 1.27272727,2.80808081 1.33333333,2.72727273 L2.72727273,1.33333333 C2.78787879,1.27272727 2.90909091,1.25252525 2.98989899,1.31313131 L3.95959596,1.97979798 C4.38383838,1.73737374 4.82828283,1.55555556 5.29292929,1.43434343 L5.49494949,0.282828283 C5.51515152,0.181818182 5.5959596,0.121212121 5.6969697,0.121212121 L7.67676768,0.121212121 C7.77777778,0.121212121 7.85858586,0.181818182 7.87878788,0.282828283 L8.08080808,1.43434343 C8.54545455,1.55555556 8.98989899,1.73737374 9.41414141,1.97979798 L10.3838384,1.31313131 C10.4646465,1.25252525 10.5656566,1.27272727 10.6464646,1.33333333 L12.0606061,2.72727273 C12.1414141,2.78787879 12.1414141,2.90909091 12.0808081,2.98989899 L11.4141414,3.95959596 C11.6565657,4.38383838 11.8383838,4.82828283 11.979798,5.29292929 L13.1313131,5.49494949 C13.2323232,5.51515152 13.2929293,5.5959596 13.2929293,5.6969697 L13.2323232,7.67676768 Z" id="Path"></path>
                        <path d="M8.38383838,8.70707071 C8.12121212,8.92929293 7.97979798,9.27272727 7.97979798,9.63636364 L7.97979798,13.010101 C7.97979798,13.1313131 7.87878788,13.2121212 7.77777778,13.2121212 L5.55555556,13.2121212 C5.43434343,13.2121212 5.35353535,13.1313131 5.35353535,13.010101 L5.35353535,9.61616162 C5.35353535,9.25252525 5.21212121,8.90909091 4.94949495,8.68686869 C3.49494949,7.45454545 3.81818182,5.13131313 5.53535354,4.32323232 C5.5959596,4.3030303 5.67676768,4.3030303 5.73737374,4.34343434 C5.7979798,4.38383838 5.83838384,4.44444444 5.83838384,4.52525253 L5.83838384,6.46464646 C5.83838384,6.62626263 5.97979798,6.76767677 6.14141414,6.76767677 L7.21212121,6.76767677 C7.37373737,6.76767677 7.51515152,6.64646465 7.51515152,6.46464646 L7.51515152,4.50505051 C7.51515152,4.42424242 7.55555556,4.36363636 7.61616162,4.32323232 C7.67676768,4.28282828 7.75757576,4.28282828 7.81818182,4.3030303 C9.49494949,5.13131313 9.83838384,7.45454545 8.38383838,8.70707071 Z" id="Path"></path>
                    </g>
                </g>
            </g>
        </g>
    </g>
</svg>