<?xml version="1.0" encoding="UTF-8"?>
<svg width="20px" height="20px" viewBox="0 0 20 20" version="1.1" xmlns="http://www.w3.org/2000/svg" xmlns:xlink="http://www.w3.org/1999/xlink">
    <title>Config-icon</title>
    <g id="Welcome" stroke="none" stroke-width="1" fill="none" fill-rule="evenodd">
        <g id="ConfigIconImg" transform="translate(-750.000000, -4347.000000)" fill="#b0b0b0" fill-rule="nonzero">
            <g id="Config-icon" transform="translate(750.000000, 4347.000000)">
                <path d="M19.8484848,11.5151515 C19.8484848,11.6666667 19.7272727,11.7878788 19.6060606,11.8181818 L17.8787879,12.1212121 C17.6969697,12.8181818 17.4242424,13.4848485 17.0606061,14.1212121 L18.0606061,15.5757576 C18.1515152,15.6969697 18.1212121,15.8484848 18.030303,15.969697 L15.9393939,18.0909091 C15.8484848,18.1818182 15.6666667,18.2121212 15.5454545,18.1212121 L14.0909091,17.1212121 C13.7878788,17.3030303 13.4848485,17.4545455 13.1515152,17.5757576 C13.0606061,17.6060606 12.9393939,17.6060606 12.8787879,17.5454545 C12.7878788,17.4848485 12.7272727,17.3939394 12.7272727,17.3030303 L12.7272727,15.1515152 C12.7272727,15.030303 12.7878788,14.9393939 12.8787879,14.8787879 C14.5757576,13.8484848 15.6060606,12.0606061 15.6060606,10.0606061 C15.6060606,6.96969697 13.0909091,4.45454545 10,4.45454545 C4.3030303,4.45454545 2.24242424,11.969697 7.09090909,14.8787879 C7.18181818,14.9393939 7.24242424,15.030303 7.24242424,15.1515152 L7.24242424,17.2727273 C7.24242424,17.3636364 7.18181818,17.4545455 7.12121212,17.5151515 C7.03030303,17.5757576 6.93939394,17.5757576 6.84848485,17.5454545 C6.54545455,17.4242424 6.24242424,17.2727273 5.96969697,17.0909091 L4.51515152,18.0909091 C4.45454545,18.1212121 4.39393939,18.1515152 4.33333333,18.1515152 C4.24242424,18.1515152 4.18181818,18.1212121 4.12121212,18.0606061 L2,15.969697 C1.90909091,15.8484848 1.87878788,15.6969697 1.96969697,15.5757576 L2.96969697,14.1212121 C2.60606061,13.4848485 2.33333333,12.8181818 2.15151515,12.1212121 L0.424242424,11.8181818 C0.272727273,11.7878788 0.181818182,11.6666667 0.181818182,11.5151515 L0.181818182,8.54545455 C0.181818182,8.39393939 0.272727273,8.27272727 0.424242424,8.24242424 L2.15151515,7.93939394 C2.33333333,7.24242424 2.60606061,6.57575758 2.96969697,5.93939394 L1.96969697,4.48484848 C1.87878788,4.36363636 1.90909091,4.21212121 2,4.09090909 L4.09090909,2 C4.18181818,1.90909091 4.36363636,1.87878788 4.48484848,1.96969697 L5.93939394,2.96969697 C6.57575758,2.60606061 7.24242424,2.33333333 7.93939394,2.15151515 L8.24242424,0.424242424 C8.27272727,0.272727273 8.39393939,0.181818182 8.54545455,0.181818182 L11.5151515,0.181818182 C11.6666667,0.181818182 11.7878788,0.272727273 11.8181818,0.424242424 L12.1212121,2.15151515 C12.8181818,2.33333333 13.4848485,2.60606061 14.1212121,2.96969697 L15.5757576,1.96969697 C15.6969697,1.87878788 15.8484848,1.90909091 15.969697,2 L18.0909091,4.09090909 C18.2121212,4.18181818 18.2121212,4.36363636 18.1212121,4.48484848 L17.1212121,5.93939394 C17.4848485,6.57575758 17.7575758,7.24242424 17.969697,7.93939394 L19.6969697,8.24242424 C19.8484848,8.27272727 19.9393939,8.39393939 19.9393939,8.54545455 L19.8484848,11.5151515 Z" id="Path"></path>
                <path d="M12.5757576,13.0606061 C12.1818182,13.3939394 11.969697,13.9090909 11.969697,14.4545455 L11.969697,19.5151515 C11.969697,19.6969697 11.8181818,19.8181818 11.6666667,19.8181818 L8.33333333,19.8181818 C8.15151515,19.8181818 8.03030303,19.6969697 8.03030303,19.5151515 L8.03030303,14.4242424 C8.03030303,13.8787879 7.81818182,13.3636364 7.42424242,13.030303 C5.24242424,11.1818182 5.72727273,7.6969697 8.3030303,6.48484848 C8.39393939,6.45454545 8.51515152,6.45454545 8.60606061,6.51515152 C8.6969697,6.57575758 8.75757576,6.66666667 8.75757576,6.78787879 L8.75757576,9.6969697 C8.75757576,9.93939394 8.96969697,10.1515152 9.21212121,10.1515152 L10.8181818,10.1515152 C11.0606061,10.1515152 11.2727273,9.96969697 11.2727273,9.6969697 L11.2727273,6.75757576 C11.2727273,6.63636364 11.3333333,6.54545455 11.4242424,6.48484848 C11.5151515,6.42424242 11.6363636,6.42424242 11.7272727,6.45454545 C14.2424242,7.6969697 14.7575758,11.1818182 12.5757576,13.0606061 Z" id="Path"></path>
            </g>
        </g>
    </g>
</svg>