<svg width="32" height="32" viewBox="0 0 32 32" fill="none" xmlns="http://www.w3.org/2000/svg">
<g id="Crossfit">
<rect id="Rectangle" width="32" height="32" rx="6" fill="#EC63F8" fill-opacity="0.15"/>
<g id="Group">
<path id="Vector" fill-rule="evenodd" clip-rule="evenodd" d="M20.1484 16.2862C20.2376 16.395 20.3223 16.5058 20.3992 16.6197C20.3992 16.6197 20.4618 16.7177 20.5129 16.7995C21.3561 18.1496 21.5496 19.8788 21.014 21.3906C20.7546 22.1228 20.3318 22.7943 19.7859 23.3493L19.7582 23.3778L19.7292 23.406C19.5124 23.5878 19.2215 23.6591 18.9393 23.726C18.3616 23.863 17.7676 23.9222 17.1738 23.9594C16.0117 24.0321 14.8401 24.0145 13.6928 23.8461C13.2983 23.788 12.8992 23.7207 12.5327 23.5647C12.4356 23.5234 12.3421 23.4749 12.26 23.406L12.2311 23.3778C11.5096 22.6389 10.985 21.6999 10.7774 20.6765C10.5282 19.4487 10.731 18.1295 11.3367 17.0364L11.3392 17.0319C11.1966 16.2955 10.7664 15.6426 10.4932 14.9537C9.97782 13.6543 9.86307 12.1566 10.1645 10.8611C10.3399 10.107 10.686 9.38262 11.2557 8.85862C11.5808 8.55962 11.972 8.3355 12.3928 8.19709C12.7897 8.06655 13.2094 8.01077 13.6256 8.00651C14.0193 8.003 14.4129 7.99997 14.806 8C16.0511 8.00071 17.2864 8.00489 18.5542 8.00653C19.1486 8.00883 19.7534 8.13594 20.2565 8.45469C20.5876 8.66441 20.867 8.95291 21.0776 9.28266C21.4357 9.84343 21.6015 10.5046 21.6646 11.1393C21.7566 12.0651 21.6521 13.0096 21.4082 13.9049C21.2894 14.3407 21.1302 14.7713 20.9201 15.1652C20.7188 15.5448 20.5478 15.9401 20.4504 16.3553C20.3755 16.248 20.2968 16.1435 20.2146 16.0421C20.2672 15.8671 20.3304 15.6948 20.4016 15.5256C20.166 15.138 19.822 14.8186 19.4107 14.6388C19.2206 14.5556 19.0194 14.4996 18.8148 14.464C18.7414 14.5422 18.6585 14.6124 18.5694 14.6755C18.463 14.6179 18.3544 14.5637 18.2438 14.5131C18.4561 14.394 18.6428 14.2399 18.7397 14.0315C18.743 14.0244 18.7463 14.0173 18.7495 14.0101C19.0564 13.3435 19.2745 12.6149 19.243 11.882C19.2253 11.4708 19.1231 11.0446 18.8083 10.7665C18.5936 10.5768 18.2975 10.4985 18.0079 10.497C18.0021 10.497 17.9964 10.497 17.9906 10.497C16.7229 10.5084 15.4604 10.4972 14.1971 10.4971C13.6346 10.4982 13.0504 10.6804 12.7418 11.205C12.5319 11.5618 12.4741 11.985 12.4775 12.3833C12.482 12.9303 12.6018 13.4769 12.7775 13.9955C12.8863 14.3167 13.0525 14.6324 13.3368 14.8141C13.3869 14.8461 13.4397 14.8738 13.4943 14.8974C14.8244 14.1884 16.4371 14.0784 17.8573 14.6096C17.8917 14.6224 17.9259 14.6357 17.96 14.6492C18.0881 14.7003 18.2144 14.756 18.3386 14.8174C18.6051 14.9484 18.8607 15.1016 19.1012 15.2759C19.496 15.5621 19.848 15.9036 20.1484 16.2862ZM13.0354 14.9805C12.8709 15.4758 12.4042 15.8686 11.9053 16.0633C11.7436 16.1264 11.5738 16.1711 11.4014 16.1887C11.5006 16.4287 11.5849 16.6735 11.6386 16.9285C11.9608 16.8943 12.2647 16.7417 12.5447 16.5607C12.9177 16.3196 13.2731 16.0211 13.4705 15.6275C13.4808 15.607 13.4904 15.5863 13.4992 15.5652C13.543 15.4605 13.57 15.3387 13.5196 15.2415L13.5172 15.2428L13.4418 15.2148C13.2949 15.1592 13.157 15.0798 13.0354 14.9805Z" fill="#EC63F8"/>
</g>
</g>
</svg>
