<svg width="32" height="32" viewBox="0 0 32 32" fill="none" xmlns="http://www.w3.org/2000/svg">
<g id="Dancing">
<rect id="Rectangle" width="32" height="32" rx="6" fill="#FE6969" fill-opacity="0.15"/>
<g id="Group">
<path id="Vector" d="M22.1884 13.6252C22.6768 13.6252 23.0473 13.1873 22.98 12.6988C22.9126 12.3115 22.5421 12.042 22.1547 12.042H10.8368C10.4326 12.042 10.0789 12.3115 10.0116 12.6988C9.92735 13.2041 10.3147 13.6252 10.8031 13.6252H14.5084L14.6095 17.1451L13.1947 19.4525C13.1105 19.5704 13.0768 19.722 13.06 19.8736L12.8916 23.0736C12.8579 23.562 13.2452 23.983 13.7505 23.9999C13.7673 23.9999 13.7673 23.9999 13.7842 23.9999C14.2558 23.9999 14.6431 23.6294 14.66 23.1578L14.8116 20.1767L16.0916 18.0883C16.1421 18.0209 16.2263 17.9704 16.3105 17.9704H16.6137C16.7147 17.9704 16.7989 18.0209 16.8326 18.1051L17.8768 20.1599C18.0621 20.5304 18.4831 20.7157 18.8873 20.6146L21.7505 19.8904C22.2052 19.7725 22.5252 19.3515 22.4579 18.8967C22.3737 18.3746 21.8684 18.0378 21.3631 18.1725L19.14 18.7283L18.3821 17.1788L18.4831 13.6252H22.1884Z" fill="#FE6969"/>
<path id="Vector_2" d="M16.496 11.5368C17.4726 11.5368 18.2644 10.7451 18.2644 9.76842C18.2644 8.79175 17.4726 8 16.496 8C15.5193 8 14.7275 8.79175 14.7275 9.76842C14.7275 10.7451 15.5193 11.5368 16.496 11.5368Z" fill="#FE6969"/>
</g>
</g>
</svg>
