<?xml version="1.0" encoding="UTF-8"?>
<svg xmlns="http://www.w3.org/2000/svg" xmlns:xlink="http://www.w3.org/1999/xlink" width="28px" height="28px" viewBox="0 0 28 40" version="1.1">
    <g id="surface1">
        <path d="M 27.726562 10.601562 L 19.40625 2.242188 C 16.417969 -0.746094 11.582031 -0.746094 8.59375 2.242188 L 0.273438 10.601562 C 0.0078125 10.867188 -0.0742188 11.273438 0.0703125 11.621094 C 0.214844 11.972656 0.558594 12.199219 0.933594 12.199219 L 2.34375 12.199219 L 2.34375 21.308594 C 2.347656 25.003906 5.328125 27.996094 9 28 L 10.429688 28 C 10.945312 27.996094 11.359375 27.574219 11.359375 27.054688 L 11.359375 19.382812 L 16.640625 19.382812 L 16.640625 27.054688 C 16.640625 27.574219 17.054688 27.996094 17.570312 28 L 19 28 C 22.671875 27.996094 25.652344 25.003906 25.65625 21.308594 L 25.65625 12.199219 L 27.066406 12.199219 C 27.441406 12.199219 27.785156 11.972656 27.929688 11.621094 C 28.074219 11.273438 27.992188 10.867188 27.726562 10.601562 Z M 9.839844 3.613281 C 10.941406 2.578125 12.4375 2 14 2 C 15.5625 2 17.058594 2.578125 18.160156 3.613281 L 25 10 L 3 10 Z M 19.105469 26 C 21.808594 25.996094 23.996094 23.832031 24 21.160156 L 24 12 L 4 12 L 4 21.160156 C 4.003906 23.832031 6.191406 25.996094 8.894531 26 L 9.394531 26 L 9.394531 18.273438 C 9.398438 17.753906 9.828125 17.332031 10.351562 17.332031 L 17.648438 17.332031 C 18.171875 17.332031 18.601562 17.753906 18.605469 18.273438 L 18.605469 26 Z M 19.105469 26 "></path>
        <path d="M 27.726562 10.601562 L 19.40625 2.242188 C 16.417969 -0.746094 11.582031 -0.746094 8.59375 2.242188 L 0.273438 10.601562 C 0.0078125 10.867188 -0.0742188 11.273438 0.0703125 11.621094 C 0.214844 11.972656 0.558594 12.199219 0.933594 12.199219 L 2.34375 12.199219 L 2.34375 21.308594 C 2.347656 25.003906 5.328125 27.996094 9 28 L 10.429688 28 C 10.945312 27.996094 11.359375 27.574219 11.359375 27.054688 L 11.359375 19.382812 L 16.640625 19.382812 L 16.640625 27.054688 C 16.640625 27.574219 17.054688 27.996094 17.570312 28 L 19 28 C 22.671875 27.996094 25.652344 25.003906 25.65625 21.308594 L 25.65625 12.199219 L 27.066406 12.199219 C 27.441406 12.199219 27.785156 11.972656 27.929688 11.621094 C 28.074219 11.273438 27.992188 10.867188 27.726562 10.601562 Z M 27.726562 10.601562 "></path>
    </g>
</svg>
