<?xml version="1.0" encoding="UTF-8"?>
<svg width = "72" height="71" viewBox="0 0 72 71" fill="none" xmlns="http://www.w3.org/2000/svg">
	<path d = "M52.276 36.5664C53.4106 36.5664 53.7596 36.5664 54.6324 36.5664C59.6069 36.5664 63.7088 37.5263 67.0252 40.8428C70.3417 44.1592 71.9999 48.2611 71.9999 53.2356C71.9999 58.0358 70.3417 62.1377 66.938 65.5412C63.6215 68.8576 59.5197 70.6031 54.6324 70.6031C49.2213 70.6031 45.0322 69.0323 41.8904 65.8903C38.8357 62.7486 37.2649 58.472 37.2649 52.9739V36.6537H49.745V52.1012C49.745 53.8467 50.0069 55.1557 50.8795 56.2029C51.7524 57.2502 53.1487 57.9483 54.545 57.9483C55.8542 57.9483 56.9888 57.5121 57.8614 56.552C58.8215 55.592 59.1705 54.3701 59.1705 53.0611C59.0833 51.2284 58.1234 50.0938 57.2505 49.4829C55.2433 48.1738 54.2832 48.6975 52.276 48.6975V36.5664Z" fill="white"/>
	<path fill-rule="evenodd" clip-rule="evenodd" d="M19.7239 36.5664C18.5893 36.5664 18.2402 36.5664 17.3675 36.5664C12.3929 36.5664 8.29102 37.5263 4.97461 40.8428C1.65821 44.1592 0 48.2611 0 53.2356C0 58.0358 1.65821 62.1377 5.0619 65.5412C8.37831 68.8576 12.4802 70.6031 17.3675 70.6031C22.7785 70.6031 26.9676 69.0323 30.1096 65.8903C33.1641 62.7486 34.7351 58.472 34.7351 52.9739V36.6537H22.2548V52.1012C22.2548 53.8467 21.9931 55.1557 21.1202 56.2029C20.2476 57.2502 18.8512 57.9483 17.4548 57.9483C16.1457 57.9483 15.0111 57.5121 14.1384 56.552C13.1784 55.592 12.8293 54.3701 12.8293 53.0611C12.9165 51.2284 13.8765 50.0938 14.7493 49.4829C16.7566 48.1738 17.7166 48.6975 19.7239 48.6975V36.5664Z" fill="white"/>
	<path d = "M52.276 34.0368C53.4106 34.0368 53.7596 34.0368 54.6324 34.0368C59.6069 34.0368 63.7088 33.0767 67.0252 29.7603C70.3417 26.444 71.9999 22.3422 71.9999 17.3675C71.9999 12.5674 70.3417 8.46556 66.938 5.06187C63.6215 1.74546 59.5197 0 54.6324 0C49.2213 0 45.0322 1.57093 41.8904 4.71279C38.8357 7.85465 37.2649 12.1311 37.2649 17.6293V33.9496H49.745V18.502C49.745 16.7566 50.0069 15.4475 50.8795 14.4002C51.7524 13.3529 53.1487 12.6547 54.545 12.6547C55.8542 12.6547 56.9888 13.0911 57.8614 14.0511C58.8215 15.0111 59.1705 16.2329 59.1705 17.542C59.0833 19.3748 58.1234 20.5094 57.2505 21.1203C55.2433 22.4294 54.2832 21.9057 52.276 21.9057V34.0368Z" fill="white"/>
	<path d = "M19.7239 34.0368C18.5893 34.0368 18.2402 34.0368 17.3675 34.0368C12.3929 34.0368 8.29102 33.0767 4.97461 29.7603C1.65821 26.444 0 22.3422 0 17.3675C0 12.5674 1.65821 8.46556 5.0619 5.06187C8.37831 1.74546 12.4802 0 17.3675 0C22.7785 0 26.9676 1.57093 30.1096 4.71279C33.1641 7.85465 34.7351 12.1311 34.7351 17.6293V33.9496H22.2548V18.502C22.2548 16.7566 21.9931 15.4475 21.1202 14.4002C20.2476 13.3529 18.8512 12.6547 17.4548 12.6547C16.1457 12.6547 15.0111 13.0911 14.1384 14.0511C13.1784 15.0111 12.8293 16.2329 12.8293 17.542C12.9165 19.3748 13.8765 20.5094 14.7493 21.1203C16.7566 22.4294 17.7166 21.9057 19.7239 21.9057V34.0368Z" fill="#3894B5"/>
</svg>