<?xml version="1.0" encoding="UTF-8"?>
<svg width="20px" height="13px" viewBox="0 0 20 13" version="1.1" xmlns="http://www.w3.org/2000/svg" xmlns:xlink="http://www.w3.org/1999/xlink">
    <title>Education-icon</title>
    <g id="Welcome" stroke="none" stroke-width="1" fill="none" fill-rule="evenodd">
        <g id="Cards-&amp;-Badges" transform="translate(-581.000000, -4354.000000)" fill="#b0b0b0" fill-rule="nonzero">
            <g id="Education-icon" transform="translate(581.000000, 4354.000000)">
                <path d="M10,7.97916667 C9.4375,7.97916667 8.875,7.89583333 8.33333333,7.75 L3.66666667,6.35416667 L3.66666667,9.54166667 C3.66666667,10.125 4.04166667,10.625 4.60416667,10.7916667 L6.64583333,11.3958333 C8.89583333,12.0625 11.2708333,12.0625 13.5208333,11.3958333 L15.5625,10.7916667 C16.125,10.625 16.5,10.125 16.5,9.54166667 L16.5,6.3125 L11.6666667,7.75 C11.125,7.91666667 10.5625,7.97916667 10,7.97916667 Z" id="Path"></path>
                <path d="M19.4791667,2.8125 L11.25,0.375 C10.4375,0.125 9.5625,0.125 8.72916667,0.375 L0.520833333,2.8125 C-0.0416666667,2.97916667 -0.0416666667,3.79166667 0.520833333,3.95833333 L8.75,6.39583333 C9.5625,6.64583333 10.4375,6.64583333 11.2708333,6.39583333 L18.3125,4.3125 L18.3125,6.16666667 C18.1666667,6.25 18.0625,6.39583333 18.0625,6.5625 L18.0625,7.0625 C18.0625,7.25 18.1666667,7.41666667 18.3333333,7.47916667 L17.8958333,8.5 C17.8333333,8.64583333 17.9166667,8.79166667 18.0833333,8.8125 L18.5416667,8.85416667 C18.625,8.85416667 18.7291667,8.85416667 18.8125,8.85416667 L19.2708333,8.8125 C19.4166667,8.79166667 19.5,8.64583333 19.4583333,8.5 L19.0208333,7.47916667 C19.1875,7.39583333 19.2916667,7.25 19.2916667,7.0625 L19.2916667,6.5625 C19.2916667,6.39583333 19.1875,6.25 19.0416667,6.16666667 L19.0416667,4.10416667 L19.5,3.95833333 C20.0416667,3.77083333 20.0416667,2.97916667 19.4791667,2.8125 Z" id="Path"></path>
            </g>
        </g>
    </g>
</svg>