<svg width="40" height="24" viewBox="0 0 40 24" fill="none" xmlns="http://www.w3.org/2000/svg">
<path d="M19.9973 15.7366C18.8612 15.7366 17.7251 15.5683 16.6311 15.2738L7.20572 12.4546V18.8924C7.20572 20.0706 7.96311 21.0805 9.09921 21.4171L13.2228 22.6373C17.7672 23.9838 22.564 23.9838 27.1084 22.6373L31.232 21.4171C32.3681 21.0805 33.1255 20.0706 33.1255 18.8924V12.3704L23.3635 15.2738C22.2695 15.6104 21.1334 15.7366 19.9973 15.7366Z" fill="#242E49"/>
<path d="M39.1426 5.30177L22.522 0.378698C20.881 -0.126233 19.1137 -0.126233 17.4306 0.378698L0.852069 5.30177C-0.284023 5.63839 -0.284023 7.27941 0.852069 7.61603L17.4727 12.5391C19.1137 13.044 20.881 13.044 22.5641 12.5391L36.7863 8.33135V12.0762C36.4917 12.2446 36.2813 12.5391 36.2813 12.8757V13.8856C36.2813 14.2643 36.4917 14.6009 36.8283 14.7271L35.9447 16.7889C35.8185 17.0835 35.9868 17.378 36.3234 17.4201L37.2491 17.5042C37.4174 17.5042 37.6278 17.5042 37.7961 17.5042L38.7218 17.4201C39.0164 17.378 39.1847 17.0835 39.1005 16.7889L38.2169 14.7271C38.5535 14.5588 38.7639 14.2643 38.7639 13.8856V12.8757C38.7639 12.5391 38.5535 12.2446 38.259 12.0762V7.91057L39.1847 7.61603C40.2787 7.23733 40.2787 5.63839 39.1426 5.30177Z" fill="#242E49"/>
</svg>
