<?xml version="1.0" encoding="UTF-8"?>
<svg width="40px" height="28px" viewBox="0 0 40 28" version="1.1" xmlns="http://www.w3.org/2000/svg" xmlns:xlink="http://www.w3.org/1999/xlink">
    <!-- Generator: Sketch 64 (93537) - https://sketch.com -->
    <title>Shape</title>
    <desc>Created with Sketch.</desc>
    <g id="Design" stroke="none" stroke-width="1" fill="none" fill-rule="evenodd">
        <g id="Reset-password" transform="translate(-65.000000, -295.000000)" fill="#212121" fill-rule="nonzero">
            <g id="Data" transform="translate(39.000000, 260.000000)">
                <g id="Search">
                    <path d="M29.0769231,35 C28.6685282,35 28.2790205,35.0811282 27.9230769,35.224359 L44.9262821,50.9455538 C45.6558564,51.6200667 46.3104154,51.6205282 47.0416667,50.9455538 L64.0769231,35.224359 C63.7209795,35.0811282 63.3314718,35 62.9230769,35 L29.0769231,35 Z M26.0320513,37.6602564 C26.0140564,37.7953846 26,37.9367179 26,38.0769231 L26,59.6154 C26,61.3200154 27.3723282,62.6923231 29.0769231,62.6923231 L62.9230769,62.6923231 C64.6276718,62.6923231 66,61.3200154 66,59.6154 L66,38.0769231 C66,37.9367179 65.9859487,37.7953846 65.9679487,37.6602564 L49.1410256,53.2051436 C47.3764308,54.8340154 44.5913487,54.8365795 42.8269231,53.2051436 L26.0320513,37.6602564 Z" id="Shape"></path>
                </g>
            </g>
        </g>
    </g>
</svg>