<?xml version="1.0" encoding="UTF-8"?>
<svg version="1.1" xmlns="http://www.w3.org/2000/svg" width="119" height="129">
<path d="M0 0 C39.27 0 78.54 0 119 0 C119 42.57 119 85.14 119 129 C79.73 129 40.46 129 0 129 C0 86.43 0 43.86 0 0 Z " fill="#AEAFF7" transform="translate(0,0)"/>
<path d="M0 0 C10.56 0 21.12 0 32 0 C32 42.57 32 85.14 32 129 C-7.27 129 -46.54 129 -87 129 C-87 117.45 -87 105.9 -87 94 C-86.67 94 -86.34 94 -86 94 C-85.85304688 94.76183594 -85.70609375 95.52367188 -85.5546875 96.30859375 C-83.48210189 105.84963441 -80.64704566 112.96689725 -72.25 118.4375 C-63.64423348 123.57461573 -53.31920039 123.3178536 -43.609375 123.3359375 C-42.34716125 123.3425943 -41.08494751 123.3492511 -39.78448486 123.35610962 C-37.12522164 123.36619114 -34.46636793 123.37179876 -31.80712891 123.37060547 C-29.10926461 123.37044307 -26.4120804 123.38431767 -23.71435547 123.41162109 C-19.78332213 123.44857501 -15.85306559 123.45809185 -11.921875 123.4609375 C-10.14148834 123.48249405 -10.14148834 123.48249405 -8.32513428 123.50448608 C3.13327684 123.44306332 14.79486217 121.70880756 23.2265625 113.35546875 C26.28370052 109.29499689 27.72824666 104.87505447 29 100 C29.17553909 99.41661865 29.35107819 98.8332373 29.53193665 98.23217773 C30.13089888 95.37574781 30.13523503 92.68893983 30.14526367 89.76953125 C30.15164352 88.5072168 30.15802338 87.24490234 30.16459656 85.94433594 C30.16612643 84.56705768 30.16723975 83.18977891 30.16796875 81.8125 C30.17118579 80.3896481 30.17455019 78.96679653 30.17805481 77.54394531 C30.18404132 74.55809769 30.18589546 71.57227898 30.18530273 68.58642578 C30.18520174 64.79192929 30.19879073 60.99762256 30.21607494 57.20317078 C30.22729568 54.2603066 30.2292188 51.31748663 30.22869301 48.37460327 C30.22986045 46.97780714 30.23421132 45.58100938 30.24202538 44.18423462 C30.41001495 25.78215983 30.41001495 25.78215983 22 10 C15.54397324 3.86677458 8.55547955 2.29397822 0 1 C0 0.67 0 0.34 0 0 Z " fill="#FCFCFE" transform="translate(87,0)"/>
<path d="M0 0 C5.87648108 3.35798919 8.91629844 9.74889532 11 16 C11.12070269 18.31019336 11.175363 20.6241874 11.1875 22.9375 C11.20167969 24.16339844 11.21585938 25.38929687 11.23046875 26.65234375 C11.01404072 29.79605261 10.80122582 31.46163887 9 34 C3.84365427 36.88755361 -0.11872531 37.67490037 -6 37 C-11.48613845 32.44723104 -14.4302418 25.8714339 -15.45703125 18.89453125 C-15.71860679 11.25071271 -14.24942521 5.69762179 -9.1875 -0.0625 C-5.79512635 -1.51637442 -3.51930757 -0.92613357 0 0 Z " fill="#FDFDFE" transform="translate(45,44)"/>
<path d="M0 0 C3.75969794 2.1858709 5.96312796 4.71548211 7.4921875 8.828125 C9.51695712 17.48790891 8.16373358 26.18657402 4 34 C1.96186935 36.53248574 0.82994131 37.81374254 -2.3671875 38.53125 C-8.21602929 38.45836724 -11.5432076 37.88540876 -16 34 C-18.90513793 28.18972414 -17.84501057 17.95753698 -16.09375 11.828125 C-12.90910917 5.09138478 -8.30261825 -1.58986307 0 0 Z " fill="#FDFDFE" transform="translate(82,24)"/>
<path d="M0 0 C2.32593713 3.28367595 2.15441205 6.13310411 1.55078125 10.03125 C0.72033265 12.99966202 -0.84758238 14.84758238 -3 17 C-5.90295805 18.45147903 -7.77261779 18.37239025 -11 18 C-15.08226373 15.25232249 -17.89829965 12.89644598 -19 8 C-18.70700977 6.32577014 -18.37835439 4.65702651 -18 3 C-16.12743583 2.49095343 -14.25180659 1.99317545 -12.375 1.5 C-11.33085938 1.2215625 -10.28671875 0.943125 -9.2109375 0.65625 C-6.04312582 0.00881404 -3.22258533 -0.1161292 0 0 Z " fill="#FBFBFE" transform="translate(57,82)"/>
<path d="M0 0 C6.7281627 -0.22262303 12.53991163 0.04978464 19 2 C20.05226802 5.25246478 20.07353836 6.78803649 18.9375 10.0625 C16.63680832 13.55064546 14.75037686 15.16157997 11 17 C6.80161426 17.08568134 5.37511864 16.32510282 2.1875 13.5625 C-1.24141561 9.54577029 -1.18749197 7.2497752 -1 2 C-0.67 1.34 -0.34 0.68 0 0 Z " fill="#FCFCFE" transform="translate(64,64)"/>
<path d="M0 0 C9.9 0 19.8 0 30 0 C30 0.33 30 0.66 30 1 C29.23816406 1.14695313 28.47632812 1.29390625 27.69140625 1.4453125 C18.18402905 3.51058545 11.05559865 6.34857915 5.5625 14.6875 C2.6971868 19.90221127 1.64750123 25.12783369 1 31 C0.67 31 0.34 31 0 31 C0 20.77 0 10.54 0 0 Z " fill="#FDFDFE" transform="translate(0,0)"/>
<path d="M0 0 C-0.99 1.485 -0.99 1.485 -2 3 C-2.99 3 -3.98 3 -5 3 C-5 2.34 -5 1.68 -5 1 C-6.32 0.67 -7.64 0.34 -9 0 C-3.375 -1.125 -3.375 -1.125 0 0 Z " fill="#BBBCF8" transform="translate(50,81)"/>
</svg>
