<svg width="32" height="32" viewBox="0 0 32 32" fill="none" xmlns="http://www.w3.org/2000/svg">
<g id="FastingBloodSugarKey ">
<rect id="Rectangle" width="32" height="32" rx="6" fill="#F570B0" fill-opacity="0.15"/>
<g id="Group">
<path id="Vector" d="M19.9998 21.2179L20.0126 21.2051L22.5742 19.7299V15.6211L19.0078 17.6723V21.7875L19.9998 21.2179Z" fill="#F570B0"/>
<path id="Vector_2" d="M18.4574 17.6719L14.8926 15.6143V19.7295L18.4574 21.7871V17.6719Z" fill="#F570B0"/>
<path id="Vector_3" d="M18.7876 13.1076L18.7332 13.082L15.1748 15.1396L18.7332 17.1972L22.2932 15.1396L18.8404 13.1412L18.7876 13.1076Z" fill="#F570B0"/>
<path id="Vector_4" d="M14.9328 24C16.408 24 17.8016 23.4576 18.8736 22.5056C18.8672 22.512 18.8528 22.512 18.8464 22.5184C18.8464 22.5184 18.84 22.5184 18.8336 22.5184C18.8 22.5312 18.7664 22.5392 18.7328 22.5392C18.6992 22.5392 18.6656 22.5328 18.632 22.5184C18.6256 22.5184 18.6192 22.5184 18.6192 22.5184C18.6128 22.512 18.5984 22.512 18.592 22.5056L14.4832 20.1264C14.3968 20.08 14.3424 19.9856 14.3424 19.8912V15.1392C14.3424 15.0928 14.3552 15.0448 14.3824 14.9984C14.3952 14.9776 14.4032 14.9648 14.4224 14.9456C14.4352 14.9248 14.4624 14.912 14.4832 14.8992L18.4512 12.6064C17.064 10.5344 15.4896 8.6496 14.9328 8C13.8608 9.2528 9 15.1184 9 18.0608C9 21.3392 11.6608 24 14.9328 24Z" fill="#F570B0"/>
</g>
</g>
</svg>
