<svg width="32" height="32" viewBox="0 0 32 32" fill="none" xmlns="http://www.w3.org/2000/svg">
<g id="FeedingCounterKey">
<rect id="Rectangle" width="32" height="32" rx="6" fill="#E76E6E" fill-opacity="0.15"/>
<g id="Group">
<path id="Vector" d="M16.0015 8C15.4259 8 14.9546 8.47182 14.9546 9.04741C14.9546 9.13875 14.9494 9.35002 14.9764 9.5797C14.9948 9.73556 15.0749 9.89696 15.1453 10.0569L14.6619 10.7035H17.3394L16.8581 10.0569C16.9214 9.90237 16.9891 9.74753 17.0114 9.59164C17.0439 9.36521 17.0508 9.15697 17.0509 9.04741C17.0509 8.47182 16.5771 8 16.0015 8ZM13.5735 11.2332C13.0658 11.2205 12.7998 11.7683 12.786 12.2151H19.1707C19.1644 11.7604 18.8978 11.2364 18.4274 11.2358L13.5735 11.2332ZM12.5526 12.7474C12.2216 12.9568 12 13.3237 12 13.7428V14.8229C12.5324 14.827 13.0646 14.8189 13.5969 14.8115C13.9595 14.7993 13.9659 15.3474 13.6031 15.3437C13.0687 15.3508 12.5344 15.3544 12 15.3557V16.9521C12.3332 16.9527 12.6664 16.9529 12.9996 16.9551C13.3624 16.946 13.3645 17.494 13.0017 17.4873C12.6678 17.4878 12.3339 17.4879 12 17.4853V19.0816C12.3332 19.0824 12.6664 19.0826 12.9996 19.0847C13.3623 19.0756 13.3645 19.6235 13.0017 19.6169C12.6678 19.6173 12.3339 19.6174 12 19.6139V21.216C12.7099 21.2119 13.4198 21.205 14.1296 21.1983C14.4924 21.1863 14.4983 21.7348 14.1354 21.7305C13.4233 21.7376 12.7124 21.7449 12 21.7518V22.8154C12 23.4665 12.5315 24 13.1826 24H18.7975C19.4486 24 19.98 23.4665 19.98 22.8154V13.7427C19.98 13.3247 19.76 12.9573 19.4306 12.7473L12.5526 12.7474ZM17.4044 15.9629C17.6735 15.9891 17.9295 16.1197 18.1607 16.3262C18.4081 16.5471 18.589 16.8634 18.6223 17.2281C18.6556 17.5928 18.5313 17.9977 18.2158 18.3612L16.3513 20.5106C16.2466 20.6315 16.0598 20.6334 15.9526 20.5147C15.8902 20.4455 15.472 19.9626 15.031 19.4558C14.5917 18.951 14.1583 18.4538 14.0943 18.3788C13.4573 17.6659 13.6366 16.7746 14.139 16.3261C14.6122 15.9036 15.2111 15.899 15.6522 16.1805C15.8486 16.3059 16.0044 16.4966 16.1522 16.665C16.3011 16.5027 16.4593 16.3157 16.6361 16.1883C16.8677 16.0215 17.1353 15.9366 17.4044 15.9629Z" fill="#E76E6E"/>
</g>
</g>
</svg>
