<?xml version="1.0" encoding="UTF-8"?>
<svg width="32px" height="40px" viewBox="0 0 32 40" version="1.1" xmlns="http://www.w3.org/2000/svg" xmlns:xlink="http://www.w3.org/1999/xlink">
    <title>Files-xlsx</title>
    <g id="Welcome" stroke="none" stroke-width="1" fill="none" fill-rule="evenodd">
        <g id="Cards-&amp;-Badges" transform="translate(-971.000000, -4451.000000)" fill-rule="nonzero">
            <g id="Files-xlsx" transform="translate(971.000000, 4451.000000)">
                <path d="M2.15,0.2 C1.6,0.2 1.15,0.4 0.75,0.8 C0.35,1.2 0.15,1.65 0.15,2.2 L0.15,37.85 C0.15,38.4 0.35,38.85 0.75,39.25 C1.15,39.65 1.6,39.85 2.15,39.85 L29.8,39.85 C30.35,39.85 30.8,39.65 31.2,39.25 C31.6,38.85 31.8,38.4 31.8,37.85 L31.8,13.35 L20.6,13.35 C20.05,13.35 19.6,13.15 19.2,12.75 C18.8,12.35 18.6,11.9 18.6,11.35 L18.6,0.2 L2.15,0.2 Z" id="Path" fill="#1F7246"></path>
                <path d="M22,1.6 C21.8,1.4 21.55,1.2 21.25,1 L21.25,10.7 L31,10.7 C30.8,10.4 30.6,10.15 30.4,9.95 L22,1.6 Z" id="Path" fill="#1F7246"></path>
                <path d="M6.132,28 L7.356,25.096 L8.592,28 L10.536,28 L8.4,23.668 L10.392,19.432 L8.508,19.432 L7.416,22.204 L6.312,19.432 L4.404,19.432 L6.372,23.668 L4.236,28 L6.132,28 Z M15.996,28 L15.996,26.584 L12.936,26.584 L12.936,19.432 L11.208,19.432 L11.208,28 L15.996,28 Z M19.152,28.132 C20.088,28.132 20.818,27.926 21.342,27.514 C21.866,27.102 22.128,26.444 22.128,25.54 C22.128,25.276 22.104,25.036 22.056,24.82 C22.008,24.604 21.922,24.406 21.798,24.226 C21.674,24.046 21.508,23.878 21.3,23.722 C21.092,23.566 20.824,23.416 20.496,23.272 L19.164,22.696 C18.796,22.544 18.556,22.378 18.444,22.198 C18.332,22.018 18.276,21.796 18.276,21.532 C18.276,21.404 18.29,21.28 18.318,21.16 C18.346,21.04 18.398,20.934 18.474,20.842 C18.55,20.75 18.652,20.676 18.78,20.62 C18.908,20.564 19.068,20.536 19.26,20.536 C19.596,20.536 19.836,20.646 19.98,20.866 C20.124,21.086 20.196,21.4 20.196,21.808 L21.852,21.808 L21.852,21.568 C21.852,21.16 21.786,20.81 21.654,20.518 C21.522,20.226 21.338,19.986 21.102,19.798 C20.866,19.61 20.586,19.474 20.262,19.39 C19.938,19.306 19.584,19.264 19.2,19.264 C18.376,19.264 17.728,19.472 17.256,19.888 C16.784,20.304 16.548,20.936 16.548,21.784 C16.548,22.136 16.592,22.446 16.68,22.714 C16.768,22.982 16.906,23.218 17.094,23.422 C17.282,23.626 17.516,23.804 17.796,23.956 C18.076,24.108 18.408,24.248 18.792,24.376 C19.08,24.472 19.322,24.566 19.518,24.658 C19.714,24.75 19.872,24.852 19.992,24.964 C20.112,25.076 20.198,25.202 20.25,25.342 C20.302,25.482 20.328,25.648 20.328,25.84 C20.328,26.2 20.222,26.466 20.01,26.638 C19.798,26.81 19.56,26.896 19.296,26.896 C19.072,26.896 18.886,26.864 18.738,26.8 C18.59,26.736 18.472,26.648 18.384,26.536 C18.296,26.424 18.236,26.286 18.204,26.122 C18.172,25.958 18.156,25.776 18.156,25.576 L18.156,25.324 L16.428,25.324 L16.428,25.672 C16.428,26.464 16.638,27.072 17.058,27.496 C17.478,27.92 18.176,28.132 19.152,28.132 Z M24.36,28 L25.584,25.096 L26.82,28 L28.764,28 L26.628,23.668 L28.62,19.432 L26.736,19.432 L25.644,22.204 L24.54,19.432 L22.632,19.432 L24.6,23.668 L22.464,28 L24.36,28 Z" id="XLSX" fill="#FFFFFF"></path>
            </g>
        </g>
    </g>
</svg>