<?xml version="1.0" encoding="UTF-8"?>
<svg width="50px" height="50px" viewBox="0 0 50 50" version="1.1" xmlns="http://www.w3.org/2000/svg" xmlns:xlink="http://www.w3.org/1999/xlink">
    <title>Files-icon</title>
    <g id="Welcome" stroke="none" stroke-width="1" fill="none" fill-rule="evenodd">
        <g id="Patient-Summary-files" transform="translate(-350.000000, -635.000000)">
            <g id="Cards" transform="translate(320.000000, 228.000000)">
                <g id="Table" transform="translate(0.000000, 310.000000)">
                    <g id="Item" transform="translate(1.000000, 72.000000)">
                        <g id="Files-icon" transform="translate(29.000000, 25.000000)">
                            <circle id="Oval" fill="#0078D3" cx="25" cy="25" r="25"></circle>
                            <g transform="translate(16.666667, 15.000000)" fill="#FFFFFF" fill-rule="nonzero" id="Path">
                                <path d="M1.075,0.1 C0.8,0.1 0.575,0.2 0.375,0.4 C0.175,0.6 0.075,0.825 0.075,1.1 L0.075,18.925 C0.075,19.2 0.175,19.425 0.375,19.625 C0.575,19.825 0.8,19.925 1.075,19.925 L14.9,19.925 C15.175,19.925 15.4,19.825 15.6,19.625 C15.8,19.425 15.9,19.2 15.9,18.925 L15.9,6.675 L10.3,6.675 C10.025,6.675 9.8,6.575 9.6,6.375 C9.4,6.175 9.3,5.95 9.3,5.675 L9.3,0.1 L1.075,0.1 Z"></path>
                                <path d="M11,0.8 C10.9,0.7 10.775,0.6 10.625,0.5 L10.625,5.35 L15.5,5.35 C15.4,5.2 15.3,5.075 15.2,4.975 L11,0.8 Z"></path>
                            </g>
                        </g>
                    </g>
                </g>
            </g>
        </g>
    </g>
</svg>