<?xml version="1.0" encoding="UTF-8"?>
<svg width="32px" height="40px" viewBox="0 0 32 40" version="1.1" xmlns="http://www.w3.org/2000/svg" xmlns:xlink="http://www.w3.org/1999/xlink">
    <title>Files-pdf</title>
    <g id="Welcome" stroke="none" stroke-width="1" fill="none" fill-rule="evenodd">
        <g id="Cards-&amp;-Badges" transform="translate(-930.000000, -4451.000000)" fill-rule="nonzero">
            <g id="Files-pdf" transform="translate(930.000000, 4451.000000)">
                <path d="M2.15,0.2 C1.6,0.2 1.15,0.4 0.75,0.8 C0.35,1.2 0.15,1.65 0.15,2.2 L0.15,37.85 C0.15,38.4 0.35,38.85 0.75,39.25 C1.15,39.65 1.6,39.85 2.15,39.85 L29.8,39.85 C30.35,39.85 30.8,39.65 31.2,39.25 C31.6,38.85 31.8,38.4 31.8,37.85 L31.8,13.35 L20.6,13.35 C20.05,13.35 19.6,13.15 19.2,12.75 C18.8,12.35 18.6,11.9 18.6,11.35 L18.6,0.2 L2.15,0.2 Z" id="Path" fill="#D32027"></path>
                <path d="M22,1.6 C21.8,1.4 21.55,1.2 21.25,1 L21.25,10.7 L31,10.7 C30.8,10.4 30.6,10.15 30.4,9.95 L22,1.6 Z" id="Path" fill="#D32027"></path>
                <path d="M7.908,28 L7.908,24.295 L8.909,24.295 C9.351,24.295 9.754,24.2386667 10.118,24.126 C10.482,24.0133333 10.7918333,23.8443333 11.0475,23.619 C11.3031667,23.3936667 11.5025,23.1033333 11.6455,22.748 C11.7885,22.3926667 11.86,21.9766667 11.86,21.5 C11.86,21.1533333 11.8166667,20.8131667 11.73,20.4795 C11.6433333,20.1458333 11.5003333,19.849 11.301,19.589 C11.1016667,19.329 10.8395,19.1188333 10.5145,18.9585 C10.1895,18.7981667 9.78866667,18.718 9.312,18.718 L6.036,18.718 L6.036,28 L7.908,28 Z M8.74,22.917 L7.908,22.917 L7.908,20.096 L8.688,20.096 C9.156,20.096 9.48966667,20.2173333 9.689,20.46 C9.88833333,20.7026667 9.988,21.058 9.988,21.526 C9.988,22.0026667 9.87316667,22.3536667 9.6435,22.579 C9.41383333,22.8043333 9.11266667,22.917 8.74,22.917 Z M15.825,28 C16.449,28 16.9646667,27.9046667 17.372,27.714 C17.7793333,27.5233333 18.1043333,27.233 18.347,26.843 C18.5896667,26.453 18.7608333,25.9568333 18.8605,25.3545 C18.9601667,24.7521667 19.01,24.0436667 19.01,23.229 C19.01,22.5443333 18.971,21.9246667 18.893,21.37 C18.815,20.8153333 18.6655,20.3408333 18.4445,19.9465 C18.2235,19.5521667 17.9136667,19.2488333 17.515,19.0365 C17.1163333,18.8241667 16.592,18.718 15.942,18.718 L12.874,18.718 L12.874,28 L15.825,28 Z M15.578,26.622 L14.746,26.622 L14.746,20.096 L15.539,20.096 C15.8943333,20.096 16.1781667,20.1631667 16.3905,20.2975 C16.6028333,20.4318333 16.7631667,20.6311667 16.8715,20.8955 C16.9798333,21.1598333 17.0513333,21.4913333 17.086,21.89 C17.1206667,22.2886667 17.138,22.7523333 17.138,23.281 C17.138,23.9136667 17.1185,24.4423333 17.0795,24.867 C17.0405,25.2916667 16.9625,25.634 16.8455,25.894 C16.7285,26.154 16.5703333,26.3403333 16.371,26.453 C16.1716667,26.5656667 15.9073333,26.622 15.578,26.622 Z M22.117,28 L22.117,23.97 L25.237,23.97 L25.237,22.436 L22.117,22.436 L22.117,20.252 L25.432,20.252 L25.432,18.718 L20.245,18.718 L20.245,28 L22.117,28 Z" id="PDF" fill="#FFFFFF"></path>
            </g>
        </g>
    </g>
</svg>