<?xml version="1.0" encoding="UTF-8"?>
<svg width="32px" height="40px" viewBox="0 0 32 40" version="1.1" xmlns="http://www.w3.org/2000/svg" xmlns:xlink="http://www.w3.org/1999/xlink">
    <title>Files-doc</title>
    <g id="Welcome" stroke="none" stroke-width="1" fill="none" fill-rule="evenodd">
        <g id="Cards-&amp;-Badges" transform="translate(-1012.000000, -4451.000000)" fill-rule="nonzero">
            <g id="Files-doc" transform="translate(1012.000000, 4451.000000)">
                <path d="M2.15,0.2 C1.6,0.2 1.15,0.4 0.75,0.8 C0.35,1.2 0.15,1.65 0.15,2.2 L0.15,37.85 C0.15,38.4 0.35,38.85 0.75,39.25 C1.15,39.65 1.6,39.85 2.15,39.85 L29.8,39.85 C30.35,39.85 30.8,39.65 31.2,39.25 C31.6,38.85 31.8,38.4 31.8,37.85 L31.8,13.35 L20.6,13.35 C20.05,13.35 19.6,13.15 19.2,12.75 C18.8,12.35 18.6,11.9 18.6,11.35 L18.6,0.2 L2.15,0.2 Z" id="Path" fill="#2B569A"></path>
                <path d="M22,1.6 C21.8,1.4 21.55,1.2 21.25,1 L21.25,10.7 L31,10.7 C30.8,10.4 30.6,10.15 30.4,9.95 L22,1.6 Z" id="Path" fill="#2B569A"></path>
                <path d="M9.906,28 C10.482,28 10.958,27.912 11.334,27.736 C11.71,27.56 12.01,27.292 12.234,26.932 C12.458,26.572 12.616,26.114 12.708,25.558 C12.8,25.002 12.846,24.348 12.846,23.596 C12.846,22.964 12.81,22.392 12.738,21.88 C12.666,21.368 12.528,20.93 12.324,20.566 C12.12,20.202 11.834,19.922 11.466,19.726 C11.098,19.53 10.614,19.432 10.014,19.432 L7.182,19.432 L7.182,28 L9.906,28 Z M9.678,26.728 L8.91,26.728 L8.91,20.704 L9.642,20.704 C9.97,20.704 10.232,20.766 10.428,20.89 C10.624,21.014 10.772,21.198 10.872,21.442 C10.972,21.686 11.038,21.992 11.07,22.36 C11.102,22.728 11.118,23.156 11.118,23.644 C11.118,24.228 11.1,24.716 11.064,25.108 C11.028,25.5 10.956,25.816 10.848,26.056 C10.74,26.296 10.594,26.468 10.41,26.572 C10.226,26.676 9.982,26.728 9.678,26.728 Z M16.722,28.132 C17.37,28.132 17.886,28.028 18.27,27.82 C18.654,27.612 18.948,27.312 19.152,26.92 C19.356,26.528 19.488,26.06 19.548,25.516 C19.608,24.972 19.638,24.372 19.638,23.716 C19.638,23.068 19.608,22.47 19.548,21.922 C19.488,21.374 19.356,20.904 19.152,20.512 C18.948,20.12 18.654,19.814 18.27,19.594 C17.886,19.374 17.37,19.264 16.722,19.264 C16.074,19.264 15.558,19.374 15.174,19.594 C14.79,19.814 14.496,20.12 14.292,20.512 C14.088,20.904 13.956,21.374 13.896,21.922 C13.836,22.47 13.806,23.068 13.806,23.716 C13.806,24.372 13.836,24.972 13.896,25.516 C13.956,26.06 14.088,26.528 14.292,26.92 C14.496,27.312 14.79,27.612 15.174,27.82 C15.558,28.028 16.074,28.132 16.722,28.132 Z M16.722,26.896 C16.466,26.896 16.26,26.838 16.104,26.722 C15.948,26.606 15.828,26.422 15.744,26.17 C15.66,25.918 15.604,25.59 15.576,25.186 C15.548,24.782 15.534,24.292 15.534,23.716 C15.534,23.14 15.548,22.652 15.576,22.252 C15.604,21.852 15.66,21.524 15.744,21.268 C15.828,21.012 15.948,20.826 16.104,20.71 C16.26,20.594 16.466,20.536 16.722,20.536 C16.978,20.536 17.184,20.594 17.34,20.71 C17.496,20.826 17.616,21.012 17.7,21.268 C17.784,21.524 17.84,21.852 17.868,22.252 C17.896,22.652 17.91,23.14 17.91,23.716 C17.91,24.292 17.896,24.782 17.868,25.186 C17.84,25.59 17.784,25.918 17.7,26.17 C17.616,26.422 17.496,26.606 17.34,26.722 C17.184,26.838 16.978,26.896 16.722,26.896 Z M23.394,28.132 C23.962,28.132 24.424,28.044 24.78,27.868 C25.136,27.692 25.412,27.448 25.608,27.136 C25.804,26.824 25.938,26.46 26.01,26.044 C26.082,25.628 26.118,25.188 26.118,24.724 L24.39,24.724 C24.39,25.188 24.362,25.562 24.306,25.846 C24.25,26.13 24.174,26.35 24.078,26.506 C23.982,26.662 23.868,26.766 23.736,26.818 C23.604,26.87 23.462,26.896 23.31,26.896 C23.126,26.896 22.964,26.858 22.824,26.782 C22.684,26.706 22.568,26.558 22.476,26.338 C22.384,26.118 22.316,25.808 22.272,25.408 C22.228,25.008 22.206,24.484 22.206,23.836 C22.206,23.228 22.222,22.714 22.254,22.294 C22.286,21.874 22.342,21.534 22.422,21.274 C22.502,21.014 22.612,20.826 22.752,20.71 C22.892,20.594 23.07,20.536 23.286,20.536 C23.678,20.536 23.948,20.678 24.096,20.962 C24.244,21.246 24.318,21.7 24.318,22.324 L26.046,22.324 C26.046,22.012 26.024,21.678 25.98,21.322 C25.936,20.966 25.826,20.634 25.65,20.326 C25.474,20.018 25.208,19.764 24.852,19.564 C24.496,19.364 24.01,19.264 23.394,19.264 C22.746,19.264 22.23,19.374 21.846,19.594 C21.462,19.814 21.168,20.12 20.964,20.512 C20.76,20.904 20.628,21.374 20.568,21.922 C20.508,22.47 20.478,23.068 20.478,23.716 C20.478,24.372 20.508,24.972 20.568,25.516 C20.628,26.06 20.76,26.528 20.964,26.92 C21.168,27.312 21.462,27.612 21.846,27.82 C22.23,28.028 22.746,28.132 23.394,28.132 Z" id="DOC" fill="#FFFFFF"></path>
            </g>
        </g>
    </g>
</svg>