<?xml version="1.0" encoding="UTF-8"?>
<svg version="1.1" xmlns="http://www.w3.org/2000/svg" width="119" height="129">
<path d="M0 0 C39.27 0 78.54 0 119 0 C119 42.57 119 85.14 119 129 C79.73 129 40.46 129 0 129 C0 86.43 0 43.86 0 0 Z " fill="#A0E3E2" transform="translate(0,0)"/>
<path d="M0 0 C6.610447 4.69508717 11.19698628 12.06673961 13 20 C13 21.98 13 23.96 13 26 C-8.78 26 -30.56 26 -53 26 C-53 15.52035038 -51.39288587 10.67293527 -44.2578125 3.05078125 C-32.20058709 -7.90085083 -13.68339303 -8.07405179 0 0 Z " fill="#FDFEFE" transform="translate(81,52)"/>
<path d="M0 0 C10.23 0 20.46 0 31 0 C31 0.33 31 0.66 31 1 C30.2265625 1.15855469 29.453125 1.31710938 28.65625 1.48046875 C19.65418892 3.49701956 12.26183543 6.00980546 7 14 C1.48327517 23.12381415 1.70064465 33.51616156 1.734375 43.86328125 C1.73246155 45.17225876 1.7305481 46.48123627 1.72857666 47.82987976 C1.72564712 50.58740011 1.7298503 53.3447899 1.73925781 56.10229492 C1.75061724 59.59836209 1.74410139 63.09412084 1.73211288 66.59017658 C1.72305109 69.97290128 1.72944097 73.35554786 1.734375 76.73828125 C1.73032654 77.97411453 1.72627808 79.20994781 1.72210693 80.48323059 C1.75403375 98.42426917 1.75403375 98.42426917 9.6875 113.93359375 C14.56183916 118.66052346 19.4281931 120.60630523 26 122 C26.75901611 122.17215027 27.51803223 122.34430054 28.30004883 122.52166748 C31.11742076 123.02080266 33.73363007 123.14083851 36.59375 123.16113281 C37.69259521 123.17074036 38.79144043 123.1803479 39.92358398 123.19024658 C41.10380127 123.19449646 42.28401855 123.19874634 43.5 123.203125 C44.72726807 123.20882507 45.95453613 123.21452515 47.21899414 123.22039795 C49.81802511 123.22983983 52.41706802 123.2363787 55.01611328 123.24023438 C58.957575 123.249896 62.89850531 123.28091006 66.83984375 123.3125 C69.37239276 123.31903504 71.90494547 123.32428354 74.4375 123.328125 C76.18353516 123.3466452 76.18353516 123.3466452 77.96484375 123.36553955 C89.89738482 123.33368124 101.81566876 121.90548733 110.7109375 113.35546875 C115.58950258 107.70347262 116.74718496 101.20918131 118 94 C118.33 94 118.66 94 119 94 C119 105.55 119 117.1 119 129 C79.73 129 40.46 129 0 129 C0 86.43 0 43.86 0 0 Z " fill="#FCFEFE" transform="translate(0,0)"/>
<path d="M0 0 C26.4 0 52.8 0 80 0 C80 1.65 80 3.3 80 5 C81.98 5 83.96 5 86 5 C86 5.66 86 6.32 86 7 C55.31 7 24.62 7 -7 7 C-7 6.67 -7 6.34 -7 6 C-4.69 6 -2.38 6 0 6 C0 4.02 0 2.04 0 0 Z " fill="#F8FDFD" transform="translate(21,79)"/>
<path d="M0 0 C10.23 0 20.46 0 31 0 C31 9.57 31 19.14 31 29 C29.41256537 25.82513074 28.57379814 23.54078089 27.75 20.1875 C25.89935707 13.988302 23.18839686 10.07053061 17.73828125 6.53125 C12.03094826 3.44911099 6.39826278 1.91209278 0 1 C0 0.67 0 0.34 0 0 Z " fill="#FCFEFE" transform="translate(88,0)"/>
<path d="M0 0 C2.09765625 0.58203125 2.09765625 0.58203125 4.16015625 2.45703125 C5.09765625 4.58203125 5.09765625 4.58203125 5.09765625 7.58203125 C-0.51234375 7.58203125 -6.12234375 7.58203125 -11.90234375 7.58203125 C-8.97767931 0.27037014 -7.59937166 -1.12445987 0 0 Z " fill="#FAFDFD" transform="translate(63.90234375,38.41796875)"/>
<path d="M0 0 C3.83325416 1.45399296 5.28279605 3.3080115 7 7 C7.1875 9.8125 7.1875 9.8125 7 12 C6.34 11.01 5.68 10.02 5 9 C4.319375 8.01 3.63875 7.02 2.9375 6 C1 3 1 3 0 0 Z " fill="#B4E9E8" transform="translate(80,59)"/>
</svg>
