<svg width="32" height="32" viewBox="0 0 32 32" fill="none" xmlns="http://www.w3.org/2000/svg">
<g id="ForearmCircumferenceKey">
<rect id="Rectangle" width="32" height="32" rx="6" fill="#A873EC" fill-opacity="0.15"/>
<g id="5. Forearm">
<path id="Vector" d="M19.8987 10.6694C20.0122 10.9864 20.0344 11.3288 19.9626 11.6578C19.8909 11.9867 19.7281 12.2888 19.4929 12.5297L17.6287 14.4519C17.8697 18.4753 18.731 20.0585 18.6642 23.4939C18.6616 23.6292 18.6059 23.7582 18.5091 23.8528C18.4123 23.9475 18.2822 24.0004 18.1468 24H11.6196C11.486 24.0001 11.3575 23.9484 11.2613 23.8557C11.165 23.7631 11.1085 23.6367 11.1035 23.5032C10.9689 19.9356 11.4244 18.695 11.8618 13.909L11.0844 11.4413C10.8909 10.8233 11.0667 10.4159 11.2457 9.81365C11.346 9.47224 11.5452 9.16819 11.8181 8.93983C12.091 8.71146 12.4255 8.56902 12.7792 8.53046C17.892 7.96596 17.6239 7.9737 17.9368 8.01854C17.9819 8.02549 18.0243 8.04425 18.0597 8.07292C18.0952 8.10159 18.1224 8.13914 18.1386 8.18176C18.1549 8.22437 18.1595 8.27052 18.1521 8.31551C18.1447 8.3605 18.1255 8.40272 18.0965 8.43788L17.5175 9.1427C17.0617 9.69107 16.8194 10.4259 16.8904 11.3001C16.9014 11.4365 16.9662 11.563 17.0705 11.6517C17.1748 11.7404 17.31 11.784 17.4465 11.7729C17.5829 11.7619 17.7094 11.6971 17.7981 11.5928C17.8868 11.4885 17.9304 11.3533 17.9194 11.2168C17.8774 10.7007 17.9691 10.2333 18.3174 9.79462L18.9145 9.06786C18.9428 9.03335 18.9795 9.00675 19.0211 8.99065C19.0626 8.97454 19.1077 8.9695 19.1518 8.976C19.1959 8.98249 19.2376 9.00032 19.2728 9.02772C19.308 9.05513 19.3355 9.09119 19.3526 9.13238C19.3726 9.1827 19.3339 9.07593 19.8987 10.6694Z" fill="#A873EC"/>
</g>
</g>
</svg>
