<svg width="32" height="32" viewBox="0 0 32 32" fill="none" xmlns="http://www.w3.org/2000/svg">
<g id="BloodGlucose-fasting">
<rect id="Rectangle" width="32" height="32" rx="6" fill="#5D74EF" fill-opacity="0.15"/>
<g id="Group">
<path id="Vector" d="M19.4381 13.798C18.9012 13.2577 18.2226 12.8591 17.4649 12.6582V12.7175C17.4649 13.3269 16.9708 13.821 16.3614 13.821C15.752 13.821 15.2546 13.3269 15.2546 12.7175V12.6615C13.3868 13.1556 12 14.862 12 16.8813V19.6417C12 22.0399 13.9633 23.9999 16.3614 23.9999C18.7595 23.9999 20.7195 22.0366 20.7195 19.6417V16.878C20.7195 15.6789 20.2287 14.5886 19.4381 13.798ZM15.9991 20.8606C15.8937 20.966 15.752 21.0286 15.5939 21.0286H14.5101C14.1939 21.0286 13.9337 20.7683 13.9337 20.4521C13.9337 20.294 13.9995 20.1523 14.1016 20.0469C14.2038 19.9415 14.3487 19.8789 14.5068 19.8789H15.5906C15.9068 19.8789 16.1671 20.1392 16.1671 20.4554C16.1671 20.6135 16.1045 20.7552 15.9991 20.8606ZM18.8452 20.8606C18.7431 20.966 18.5981 21.0286 18.44 21.0286H17.3595C17.04 21.0286 16.7831 20.7683 16.7831 20.4521C16.7831 20.294 16.8457 20.1523 16.9511 20.0469C17.0532 19.9415 17.1981 19.8789 17.3562 19.8789H18.4367C18.7562 19.8789 19.0132 20.1392 19.0132 20.4554C19.0132 20.6135 18.9506 20.7552 18.8452 20.8606ZM19.5172 18.077C19.5172 18.7919 18.9308 19.3782 18.216 19.3782H14.7374C14.0193 19.3782 13.4362 18.7919 13.4362 18.077V16.8846C13.4362 16.1697 14.0193 15.5834 14.7374 15.5834H18.216C18.9308 15.5834 19.5172 16.1697 19.5172 16.8846V18.077Z" fill="#5D74EF"/>
<g id="Group_2">
<path id="Vector_2" d="M16.3615 13.5308C15.9135 13.5308 15.5479 13.1652 15.5479 12.7172V8.81365C15.5479 8.36565 15.9135 8 16.3615 8C16.8095 8 17.1751 8.36565 17.1751 8.81365V12.7172C17.1751 13.1652 16.8095 13.5308 16.3615 13.5308Z" fill="#5D74EF"/>
</g>
</g>
<g id="Group 289307">
<circle id="Ellipse 40" cx="24" cy="8" r="6" fill="white"/>
<path id="Vector_3" fill-rule="evenodd" clip-rule="evenodd" d="M26.1508 8.12682L26.1647 8.40468L24.44 6.68C24.4064 6.54283 24.3889 6.40084 24.3889 6.25676C24.3889 5.56487 24.6985 4.64321 25.2238 4.19293C25.3739 4.06431 25.5619 4 25.75 4C25.938 4 26.1261 4.06431 26.2761 4.19293C26.8015 4.64321 27.1111 5.56487 27.1111 6.25676C27.1111 6.79676 26.8657 7.3075 26.444 7.64483L26.3249 7.74007C26.2081 7.83352 26.1433 7.97741 26.1508 8.12682ZM25.2178 10.7556L26.1086 11.6464C26.0121 11.7282 25.8871 11.7778 25.75 11.7778C25.4327 11.7778 25.1799 11.5121 25.1958 11.1952L25.2178 10.7556ZM23.6111 4.29167V5.85111L23.0278 5.26778V4.29167C23.0278 4.13059 23.1584 4 23.3194 4C23.4805 4 23.6111 4.13059 23.6111 4.29167ZM22.5417 4.29167V4.78167L21.9699 4.20994C22.0053 4.08864 22.1173 4 22.25 4C22.4111 4 22.5417 4.13059 22.5417 4.29167ZM21.1593 7.04672C21.0135 6.87176 20.9227 6.65877 20.8967 6.43446L22.654 8.19184L22.6541 8.19231L22.8042 11.1952C22.82 11.5121 22.5673 11.7778 22.25 11.7778C21.9327 11.7778 21.6799 11.5121 21.6958 11.1952L21.8459 8.19231C21.8557 7.9972 21.7917 7.80559 21.6666 7.65552L21.1593 7.04672ZM21.1639 4.50279C21.012 4.35092 20.7658 4.35092 20.6139 4.50279C20.462 4.65466 20.462 4.90089 20.6139 5.05277L26.8361 11.275C26.988 11.4269 27.2342 11.4269 27.3861 11.275C27.538 11.1231 27.538 10.8769 27.3861 10.725L21.1639 4.50279Z" fill="#5D74EF"/>
</g>
</g>
</svg>
