<?xml version="1.0" encoding="UTF-8"?>
<svg width="96px" height="96px" viewBox="0 0 96 96" version="1.1" xmlns="http://www.w3.org/2000/svg" xmlns:xlink="http://www.w3.org/1999/xlink">
    <title>GlucoseFasting</title>
    <g id="Page-1" stroke="none" stroke-width="1" fill="none" fill-rule="evenodd">
        <g id="GlucoseFasting" fill="#B0B0B0" fill-rule="nonzero">
            <path d="M41.511,17.932 L40.338,17.892 L40.308,34.34 C40.308,35.198 39.884,35.904 38.99,35.904 C38.157,35.904 37.82,35.299 37.73,34.51 C37.716,34.452 36.224,17.888 36.224,17.888 L35.05,17.888 L33.732,34.358 C33.627,35.3 33.174,35.908 32.323,35.908 C31.432,35.908 30.99,35.202 30.99,34.344 L30.932,17.896 L29.76,17.896 C28.471,23.661 26.273,30.683 26.273,36.759 C26.273,40.38 28.413,43.531 31.651,44.95 C33.291,45.671 33.306,46.399 33.306,46.399 C33.306,46.399 30.963,74.786 30.963,76.391 C30.963,77.996 31.55,78.995 32.354,79.766 C33.162,80.541 34.436,80.921 35.639,80.921 L35.697,80.921 C36.899,80.921 38.159,80.541 38.978,79.766 C39.786,78.995 40.34,78.234 40.34,76.391 C40.34,74.544 37.997,46.403 37.997,46.403 C37.997,46.403 37.852,45.697 39.666,44.911 C42.917,43.498 45.022,40.293 45.029,36.749 C45.029,30.669 42.831,23.633 41.516,17.933 L41.511,17.932 Z M65.828,17.8918187 C65.378,17.885 64.949,18.081 64.658,18.424 C61.917,21.647 56.789,29.722 56.789,48.582 C56.789,54.097 61.623,54.097 61.479,58.349 L61.479,58.403 C61.186,65.03 59.295,74.04 59.136,76.741 C59.074,78.878 60.556,80.934 62.667,80.934 L62.725,80.934 C64.833,80.934 66.165,78.906 66.165,76.77 L66.165,18.776 C66.164,18.074 66.092,17.8918187 65.828,17.8918187 Z" id="Shape"></path>
            <path d="M48,95.077 C21.999,95.077 0.923,74.001 0.923,48 C0.923,21.999 21.999,0.923 48,0.923 C74.001,0.923 95.077,21.999 95.077,48 C95.077,74.001 74.001,95.077 48,95.077 Z M48.152,84.517 C68.236,84.517 84.517,68.236 84.517,48.152 C84.517,28.068 68.236,11.787 48.152,11.787 C28.068,11.787 11.787,28.068 11.787,48.152 C11.787,68.236 28.068,84.517 48.152,84.517 Z" id="Shape"></path>
            <polygon id="Path" points="14.956 75.377 75.312 15.017 80.918 20.623 20.561 80.979"></polygon>
        </g>
    </g>
</svg>