<svg width="32" height="32" viewBox="0 0 32 32" fill="none" xmlns="http://www.w3.org/2000/svg">
<g id="BloodGlucose-BeforeBed">
<rect id="Rectangle" width="32" height="32" rx="6" fill="#5D74EF" fill-opacity="0.15"/>
<g id="Group">
<path id="Vector" d="M19.4381 13.798C18.9012 13.2577 18.2226 12.8591 17.4649 12.6582V12.7175C17.4649 13.3269 16.9708 13.821 16.3614 13.821C15.752 13.821 15.2546 13.3269 15.2546 12.7175V12.6615C13.3868 13.1556 12 14.862 12 16.8813V19.6417C12 22.0399 13.9633 23.9999 16.3614 23.9999C18.7595 23.9999 20.7195 22.0366 20.7195 19.6417V16.878C20.7195 15.6789 20.2287 14.5886 19.4381 13.798ZM15.9991 20.8606C15.8937 20.966 15.752 21.0286 15.5939 21.0286H14.5101C14.1939 21.0286 13.9337 20.7683 13.9337 20.4521C13.9337 20.294 13.9995 20.1523 14.1016 20.0469C14.2038 19.9415 14.3487 19.8789 14.5068 19.8789H15.5906C15.9068 19.8789 16.1671 20.1392 16.1671 20.4554C16.1671 20.6135 16.1045 20.7552 15.9991 20.8606ZM18.8452 20.8606C18.7431 20.966 18.5981 21.0286 18.44 21.0286H17.3595C17.04 21.0286 16.7831 20.7683 16.7831 20.4521C16.7831 20.294 16.8457 20.1523 16.9511 20.0469C17.0532 19.9415 17.1981 19.8789 17.3562 19.8789H18.4367C18.7562 19.8789 19.0132 20.1392 19.0132 20.4554C19.0132 20.6135 18.9506 20.7552 18.8452 20.8606ZM19.5172 18.077C19.5172 18.7919 18.9308 19.3782 18.216 19.3782H14.7374C14.0193 19.3782 13.4362 18.7919 13.4362 18.077V16.8846C13.4362 16.1697 14.0193 15.5834 14.7374 15.5834H18.216C18.9308 15.5834 19.5172 16.1697 19.5172 16.8846V18.077Z" fill="#5D74EF"/>
<g id="Group_2">
<path id="Vector_2" d="M16.3615 13.5308C15.9135 13.5308 15.5479 13.1652 15.5479 12.7172V8.81365C15.5479 8.36565 15.9135 8 16.3615 8C16.8095 8 17.1751 8.36565 17.1751 8.81365V12.7172C17.1751 13.1652 16.8095 13.5308 16.3615 13.5308Z" fill="#5D74EF"/>
</g>
</g>
<g id="Group 289307">
<circle id="Ellipse 40" cx="24" cy="8" r="6" fill="white"/>
<g id="Group_3">
<path id="Vector_3" d="M26.8416 9.81673C26.4801 9.90511 26.1105 9.94528 25.7168 9.92117C23.4994 9.81673 21.7801 7.93673 21.8765 5.71127C21.9006 5.20511 22.0211 4.71503 22.2139 4.27315C22.2943 4.0964 22.0854 3.92768 21.9247 4.03212C20.824 4.70699 20.0688 5.89605 20.0045 7.28596C19.9001 9.51143 21.6194 11.3914 23.8368 11.4959C25.1062 11.5521 26.2551 11.0299 27.0344 10.1542C27.163 10.0015 27.0344 9.77656 26.8416 9.81673Z" fill="#5D74EF"/>
<path id="Vector_4" d="M23.1703 6.0557C23.2185 6.09587 23.2346 6.16014 23.2266 6.21638L23.1221 6.6663C23.09 6.81091 23.2426 6.92339 23.3712 6.84305L23.7729 6.60202C23.8291 6.56989 23.8934 6.56989 23.9416 6.60202L24.3433 6.84305C24.4719 6.92339 24.6245 6.80288 24.5924 6.6663L24.4879 6.21638C24.4719 6.15211 24.496 6.09587 24.5442 6.0557L24.8977 5.7504C25.0102 5.65399 24.9539 5.4692 24.8013 5.46117L24.3192 5.421C24.2549 5.41296 24.2067 5.38083 24.1826 5.31655L24.0059 4.88271C23.9496 4.74613 23.7568 4.74613 23.7006 4.88271L23.5238 5.31655C23.4997 5.37279 23.4435 5.41296 23.3873 5.421L22.9213 5.46117C22.7767 5.4692 22.7124 5.65399 22.8249 5.7504L23.1703 6.0557Z" fill="#5D74EF"/>
<path id="Vector_5" d="M24.5921 7.84024L24.9456 8.14554C24.9938 8.18571 25.0099 8.24999 25.0018 8.30623L24.8974 8.75614C24.8652 8.90076 25.0179 9.01323 25.1464 8.93289L25.5482 8.69187C25.6044 8.65973 25.6687 8.65973 25.7169 8.69187L26.1186 8.93289C26.2471 9.01323 26.3998 8.89272 26.3676 8.75614L26.2632 8.30623C26.2471 8.24195 26.2712 8.18571 26.3194 8.14554L26.6729 7.84024C26.7854 7.74383 26.7211 7.55905 26.5765 7.55101L26.0945 7.51084C26.0302 7.50281 25.982 7.46264 25.9579 7.4064L25.7811 6.97255C25.7249 6.83597 25.5321 6.83597 25.4758 6.97255L25.2991 7.4064C25.275 7.46264 25.2187 7.50281 25.1625 7.51084L24.6965 7.55101C24.5358 7.55905 24.4796 7.74383 24.5921 7.84024Z" fill="#5D74EF"/>
<path id="Vector_6" d="M27.573 5.14005C27.6855 5.04364 27.6293 4.85885 27.4766 4.85082L27.0106 4.81065C26.9463 4.80261 26.8981 4.77048 26.874 4.7062L26.6973 4.27236C26.6411 4.13578 26.4482 4.13578 26.392 4.27236L26.2152 4.7062C26.1911 4.76244 26.1349 4.80261 26.0787 4.81065L25.6127 4.85082C25.4681 4.85885 25.4038 5.04364 25.5163 5.14005L25.8698 5.44535C25.918 5.48552 25.934 5.54979 25.926 5.60603L25.8216 6.05595C25.7894 6.20056 25.9421 6.31304 26.0706 6.2327L26.4723 5.99167C26.5286 5.95953 26.5928 5.95953 26.6491 5.99167L27.0508 6.2327C27.1793 6.31304 27.332 6.19253 27.2999 6.05595L27.1954 5.60603C27.1793 5.54176 27.2034 5.48552 27.2516 5.44535L27.573 5.14005Z" fill="#5D74EF"/>
</g>
</g>
</g>
</svg>
