<?xml version="1.0" encoding="UTF-8"?>
<svg width="70px" height="98px" viewBox="0 0 70 98" version="1.1" xmlns="http://www.w3.org/2000/svg" xmlns:xlink="http://www.w3.org/1999/xlink">
    <title>BloodGlucoseBeforeDiner</title>
    <g id="Page-1" stroke="none" stroke-width="1" fill="none" fill-rule="evenodd">
        <g id="BloodGlucoseBeforeDiner" fill="#B0B0B0" fill-rule="nonzero">
            <path d="M35,97.667 C35.831,97.667 35.862,94.883 36.816,94.883 C37.77,94.883 40.555,96.832 40.555,96.832 C41.828,89.076 37.409,88.957 35,88.957 C32.591,88.957 28.172,89.076 29.445,96.832 C29.445,96.832 32.229,94.883 33.184,94.883 C34.139,94.883 34.169,97.667 35,97.667 Z" id="Path"></path>
            <path d="M9.555,0.651 C9.555,0.651 25.663,-2.571 28.009,11.509 C28.786,16.173 32.353,19.716 36.776,22.368 C36.776,22.368 7.606,32.151 9.555,0.651 Z" id="Path"></path>
            <path d="M35,85.728 C36.471,85.728 37.939,85.946 39.256,86.845 C44.612,90.504 46.739,90.112 48.981,89.025 C59.276,84.029 66.548,74.093 68.741,62.094 C74.485,30.65 52.699,25.409 44.9,26.961 C43.739,27.192 37.549,29.387 35,29.387 C32.451,29.387 26.261,27.192 25.1,26.961 C17.301,25.41 -4.485,30.651 1.259,62.093 C3.451,74.093 10.724,84.028 21.019,89.024 C23.261,90.112 25.388,90.503 30.744,86.844 C32.061,85.945 33.529,85.728 35,85.728 Z" id="Path"></path>
        </g>
    </g>
</svg>