<svg width="32" height="32" viewBox="0 0 32 32" fill="none" xmlns="http://www.w3.org/2000/svg">
<g id="BloodGlucose-AfterBreakfast">
<rect id="Rectangle" width="32" height="32" rx="6" fill="#5D74EF" fill-opacity="0.15"/>
<g id="Group">
<path id="Vector" d="M19.4381 13.798C18.9012 13.2577 18.2226 12.8591 17.4649 12.6582V12.7175C17.4649 13.3269 16.9708 13.821 16.3614 13.821C15.752 13.821 15.2546 13.3269 15.2546 12.7175V12.6615C13.3868 13.1556 12 14.862 12 16.8813V19.6417C12 22.0399 13.9633 23.9999 16.3614 23.9999C18.7595 23.9999 20.7195 22.0366 20.7195 19.6417V16.878C20.7195 15.6789 20.2287 14.5886 19.4381 13.798ZM15.9991 20.8606C15.8937 20.966 15.752 21.0286 15.5939 21.0286H14.5101C14.1939 21.0286 13.9337 20.7683 13.9337 20.4521C13.9337 20.294 13.9995 20.1523 14.1016 20.0469C14.2038 19.9415 14.3487 19.8789 14.5068 19.8789H15.5906C15.9068 19.8789 16.1671 20.1392 16.1671 20.4554C16.1671 20.6135 16.1045 20.7552 15.9991 20.8606ZM18.8452 20.8606C18.7431 20.966 18.5981 21.0286 18.44 21.0286H17.3595C17.04 21.0286 16.7831 20.7683 16.7831 20.4521C16.7831 20.294 16.8457 20.1523 16.9511 20.0469C17.0532 19.9415 17.1981 19.8789 17.3562 19.8789H18.4367C18.7562 19.8789 19.0132 20.1392 19.0132 20.4554C19.0132 20.6135 18.9506 20.7552 18.8452 20.8606ZM19.5172 18.077C19.5172 18.7919 18.9308 19.3782 18.216 19.3782H14.7374C14.0193 19.3782 13.4362 18.7919 13.4362 18.077V16.8846C13.4362 16.1697 14.0193 15.5834 14.7374 15.5834H18.216C18.9308 15.5834 19.5172 16.1697 19.5172 16.8846V18.077Z" fill="#5D74EF"/>
<g id="Group_2">
<path id="Vector_2" d="M16.3615 13.5308C15.9135 13.5308 15.5479 13.1652 15.5479 12.7172V8.81365C15.5479 8.36565 15.9135 8 16.3615 8C16.8095 8 17.1751 8.36565 17.1751 8.81365V12.7172C17.1751 13.1652 16.8095 13.5308 16.3615 13.5308Z" fill="#5D74EF"/>
</g>
</g>
<g id="Group 289307">
<circle id="Ellipse 40" cx="24" cy="8" r="6" fill="white"/>
<g id="Group_3">
<path id="Vector_3" d="M28.1628 6.5246C28.0024 6.2681 27.7849 6.11454 27.5158 6.0686C27.1562 6.00706 26.7881 6.16168 26.5482 6.29721C26.5377 6.22929 26.5276 6.16092 26.5151 6.09407H21.1157C21.0408 6.49579 21 6.92086 21 7.36094C21 8.86202 21.4674 10.1897 22.1838 10.9995H25.4473C25.707 10.7057 25.9335 10.3432 26.1173 9.92954C26.1176 9.92924 26.1181 9.92924 26.1186 9.92893C26.4013 9.73156 28.8231 7.58242 28.1628 6.5246ZM26.3948 9.14929C26.5461 8.60173 26.6309 7.99718 26.6309 7.36094C26.6309 7.15128 26.6211 6.94557 26.6032 6.74365C26.7833 6.61934 27.1486 6.42091 27.4467 6.4723C27.5977 6.49822 27.7183 6.58629 27.8153 6.74168C28.1247 7.23709 27.1101 8.45529 26.3948 9.14929Z" fill="#5D74EF"/>
<path id="Vector_4" d="M24.7045 5.64031C24.7867 5.64031 24.8534 5.57376 24.8534 5.49144V4.6889C24.8534 4.60659 24.7867 4.54004 24.7045 4.54004C24.6224 4.54004 24.5557 4.60659 24.5557 4.6889V5.49144C24.5555 5.57376 24.6222 5.64031 24.7045 5.64031Z" fill="#5D74EF"/>
<path id="Vector_5" d="M23.8159 5.63979C23.898 5.63979 23.9647 5.57324 23.9647 5.49092V4.14886C23.9647 4.06655 23.898 4 23.8159 4C23.7337 4 23.667 4.06655 23.667 4.14886V5.49107C23.667 5.57324 23.7337 5.63979 23.8159 5.63979Z" fill="#5D74EF"/>
<path id="Vector_6" d="M22.9272 5.64031C23.0095 5.64031 23.0761 5.57376 23.0761 5.49144V4.6889C23.0761 4.60659 23.0095 4.54004 22.9272 4.54004C22.845 4.54004 22.7783 4.60659 22.7783 4.6889V5.49144C22.7783 5.57376 22.845 5.64031 22.9272 5.64031Z" fill="#5D74EF"/>
</g>
</g>
</g>
</svg>
