<svg width="32" height="32" viewBox="0 0 32 32" fill="none" xmlns="http://www.w3.org/2000/svg">
<g id="BloodGlucose-afterlunch">
<rect id="Rectangle" width="32" height="32" rx="6" fill="#5D74EF" fill-opacity="0.15"/>
<g id="Group">
<path id="Vector" d="M19.4381 13.798C18.9012 13.2577 18.2226 12.8591 17.4649 12.6582V12.7175C17.4649 13.3269 16.9708 13.821 16.3614 13.821C15.752 13.821 15.2546 13.3269 15.2546 12.7175V12.6615C13.3868 13.1556 12 14.862 12 16.8813V19.6417C12 22.0399 13.9633 23.9999 16.3614 23.9999C18.7595 23.9999 20.7195 22.0366 20.7195 19.6417V16.878C20.7195 15.6789 20.2287 14.5886 19.4381 13.798ZM15.9991 20.8606C15.8937 20.966 15.752 21.0286 15.5939 21.0286H14.5101C14.1939 21.0286 13.9337 20.7683 13.9337 20.4521C13.9337 20.294 13.9995 20.1523 14.1016 20.0469C14.2038 19.9415 14.3487 19.8789 14.5068 19.8789H15.5906C15.9068 19.8789 16.1671 20.1392 16.1671 20.4554C16.1671 20.6135 16.1045 20.7552 15.9991 20.8606ZM18.8452 20.8606C18.7431 20.966 18.5981 21.0286 18.44 21.0286H17.3595C17.04 21.0286 16.7831 20.7683 16.7831 20.4521C16.7831 20.294 16.8457 20.1523 16.9511 20.0469C17.0532 19.9415 17.1981 19.8789 17.3562 19.8789H18.4367C18.7562 19.8789 19.0132 20.1392 19.0132 20.4554C19.0132 20.6135 18.9506 20.7552 18.8452 20.8606ZM19.5172 18.077C19.5172 18.7919 18.9308 19.3782 18.216 19.3782H14.7374C14.0193 19.3782 13.4362 18.7919 13.4362 18.077V16.8846C13.4362 16.1697 14.0193 15.5834 14.7374 15.5834H18.216C18.9308 15.5834 19.5172 16.1697 19.5172 16.8846V18.077Z" fill="#5D74EF"/>
<g id="Group_2">
<path id="Vector_2" d="M16.3615 13.5308C15.9135 13.5308 15.5479 13.1652 15.5479 12.7172V8.81365C15.5479 8.36565 15.9135 8 16.3615 8C16.8095 8 17.1751 8.36565 17.1751 8.81365V12.7172C17.1751 13.1652 16.8095 13.5308 16.3615 13.5308Z" fill="#5D74EF"/>
</g>
</g>
<g id="Group 289307">
<circle id="Ellipse 40" cx="24" cy="8" r="6" fill="white"/>
<g id="Group_3">
<g id="Group_4">
<g id="Group_5">
<path id="Vector_3" d="M21.9454 9.89907C21.6776 10.2115 21.7371 10.6876 22.0719 10.9331C22.1983 11.0223 22.3471 11.067 22.4885 11.067C22.7265 11.067 22.9571 10.9479 23.091 10.7248L23.9836 9.26678L23.3513 8.24023L21.9454 9.89907Z" fill="#5D74EF"/>
<path id="Vector_4" d="M25.7763 8.2177C26.0069 7.80113 26.4012 7.07213 26.669 6.41008C26.9888 5.63646 27.1004 4.70661 26.8996 4.17846C26.8326 3.99249 26.5797 3.96274 26.4607 4.12639L24.8911 6.29106C24.906 6.54398 24.8688 6.80434 24.7646 7.04238L25.7763 8.2177Z" fill="#5D74EF"/>
<path id="Vector_5" d="M24.207 7.1016C24.512 6.66271 24.5045 6.05274 24.1549 5.61385L22.9573 4.08891C22.8754 3.99221 22.7341 3.96989 22.63 4.04428L22.6076 4.05916C22.5035 4.14098 22.4812 4.28976 22.563 4.3939L23.7086 5.86677C23.7904 5.97091 23.7681 6.12712 23.6639 6.20151C23.5598 6.2759 23.411 6.25358 23.3366 6.14944L22.2059 4.63938C22.1316 4.53524 21.9828 4.51292 21.8786 4.58731L21.8489 4.60962C21.7447 4.68401 21.7224 4.83278 21.7968 4.93693L22.8903 6.47675C22.9647 6.58089 22.9424 6.72966 22.8382 6.80405C22.7267 6.88588 22.5779 6.85612 22.5035 6.74454L21.4546 5.20472C21.3802 5.09314 21.2315 5.07082 21.1199 5.14521L21.0976 5.16009C20.9934 5.23448 20.9711 5.37581 21.0381 5.47995L22.1167 7.09416C22.4291 7.5628 23.0093 7.74877 23.5152 7.59999L25.4344 10.7243C25.6501 11.0739 26.1262 11.1706 26.4609 10.9251C26.7956 10.6796 26.8552 10.2036 26.5874 9.89112L24.207 7.1016Z" fill="#5D74EF"/>
</g>
</g>
</g>
</g>
</g>
</svg>
