<svg width="32" height="32" viewBox="0 0 32 32" fill="none" xmlns="http://www.w3.org/2000/svg">
<g id="BloodGlucose-afterdinner">
<rect id="Rectangle" width="32" height="32" rx="6" fill="#5D74EF" fill-opacity="0.15"/>
<g id="Group">
<path id="Vector" d="M19.4381 13.798C18.9012 13.2577 18.2226 12.8591 17.4649 12.6582V12.7175C17.4649 13.3269 16.9708 13.821 16.3614 13.821C15.752 13.821 15.2546 13.3269 15.2546 12.7175V12.6615C13.3868 13.1556 12 14.862 12 16.8813V19.6417C12 22.0399 13.9633 23.9999 16.3614 23.9999C18.7595 23.9999 20.7195 22.0366 20.7195 19.6417V16.878C20.7195 15.6789 20.2287 14.5886 19.4381 13.798ZM15.9991 20.8606C15.8937 20.966 15.752 21.0286 15.5939 21.0286H14.5101C14.1939 21.0286 13.9337 20.7683 13.9337 20.4521C13.9337 20.294 13.9995 20.1523 14.1016 20.0469C14.2038 19.9415 14.3487 19.8789 14.5068 19.8789H15.5906C15.9068 19.8789 16.1671 20.1392 16.1671 20.4554C16.1671 20.6135 16.1045 20.7552 15.9991 20.8606ZM18.8452 20.8606C18.7431 20.966 18.5981 21.0286 18.44 21.0286H17.3595C17.04 21.0286 16.7831 20.7683 16.7831 20.4521C16.7831 20.294 16.8457 20.1523 16.9511 20.0469C17.0532 19.9415 17.1981 19.8789 17.3562 19.8789H18.4367C18.7562 19.8789 19.0132 20.1392 19.0132 20.4554C19.0132 20.6135 18.9506 20.7552 18.8452 20.8606ZM19.5172 18.077C19.5172 18.7919 18.9308 19.3782 18.216 19.3782H14.7374C14.0193 19.3782 13.4362 18.7919 13.4362 18.077V16.8846C13.4362 16.1697 14.0193 15.5834 14.7374 15.5834H18.216C18.9308 15.5834 19.5172 16.1697 19.5172 16.8846V18.077Z" fill="#5D74EF"/>
<g id="Group_2">
<path id="Vector_2" d="M16.3615 13.5308C15.9135 13.5308 15.5479 13.1652 15.5479 12.7172V8.81365C15.5479 8.36565 15.9135 8 16.3615 8C16.8095 8 17.1751 8.36565 17.1751 8.81365V12.7172C17.1751 13.1652 16.8095 13.5308 16.3615 13.5308Z" fill="#5D74EF"/>
</g>
</g>
<g id="Group 289307">
<circle id="Ellipse 40" cx="24" cy="8" r="6" fill="white"/>
<g id="Group 289309">
<path id="Vector_3" d="M28.0409 9.36345H19.9385C19.9385 7.29316 21.5201 5.58864 23.5507 5.37172C23.5507 5.36389 23.5507 5.35606 23.5507 5.34822V4.96139H23.4562C23.4432 4.96616 23.4291 4.96752 23.4154 4.96533C23.4017 4.96315 23.3888 4.95749 23.3779 4.9489C23.367 4.94031 23.3585 4.92907 23.3532 4.91626C23.3479 4.90344 23.3459 4.88948 23.3475 4.8757C23.3478 4.84685 23.3593 4.81925 23.3796 4.79876C23.3999 4.77827 23.4274 4.76652 23.4562 4.76601H23.5992C23.6327 4.68712 23.6887 4.61983 23.7602 4.57252C23.8317 4.52522 23.9155 4.5 24.0012 4.5C24.0869 4.5 24.1708 4.52522 24.2422 4.57252C24.3137 4.61983 24.3697 4.68712 24.4032 4.76601H24.5462C24.5751 4.76639 24.6028 4.77809 24.6232 4.79859C24.6436 4.81909 24.6551 4.84677 24.6554 4.8757C24.6554 4.93592 24.5462 4.96139 24.5462 4.96139H24.4316V5.34822C24.4316 5.35606 24.4316 5.36389 24.4316 5.37172C26.4623 5.58864 28.0434 7.29316 28.0434 9.36345H28.0409Z" fill="#5D74EF"/>
<path id="Vector_4" d="M28.2552 10.0971H19.7448C19.6799 10.0971 19.6176 10.0713 19.5717 10.0254C19.5258 9.97946 19.5 9.91719 19.5 9.85225C19.5 9.78732 19.5258 9.72505 19.5717 9.67913C19.6176 9.63322 19.6799 9.60742 19.7448 9.60742H28.2552C28.2873 9.60742 28.3192 9.61375 28.3489 9.62606C28.3786 9.63836 28.4056 9.6564 28.4283 9.67913C28.451 9.70187 28.4691 9.72886 28.4814 9.75856C28.4937 9.78826 28.5 9.8201 28.5 9.85225C28.5 9.8844 28.4937 9.91624 28.4814 9.94595C28.4691 9.97565 28.451 10.0026 28.4283 10.0254C28.4056 10.0481 28.3786 10.0661 28.3489 10.0784C28.3192 10.0908 28.2873 10.0971 28.2552 10.0971Z" fill="#5D74EF"/>
</g>
</g>
</g>
</svg>
