<svg width="32" height="32" viewBox="0 0 32 32" fill="none" xmlns="http://www.w3.org/2000/svg">
<g id="Gymnastics">
<rect id="Rectangle" width="32" height="32" rx="6" fill="#2BD7B8" fill-opacity="0.15"/>
<g id="Group">
<path id="Vector" d="M12.7488 14.5062C12.7488 14.0091 12.5513 13.5323 12.1998 13.1808C11.8483 12.8293 11.3715 12.6318 10.8744 12.6318C10.3773 12.6318 9.90051 12.8293 9.54899 13.1808C9.19748 13.5323 9 14.0091 9 14.5062C9 15.0033 9.19748 15.4801 9.54899 15.8316C9.90051 16.1831 10.3773 16.3806 10.8744 16.3806C11.3715 16.3806 11.8483 16.1831 12.1998 15.8316C12.5513 15.4801 12.7488 15.0033 12.7488 14.5062Z" fill="#2BD7B8"/>
<path id="Vector_2" d="M14.3492 21.1599L15.3669 17.0579H16.991L15.6813 22.5308C15.6105 22.8383 15.6641 23.1615 15.8304 23.4297C15.9967 23.698 16.2622 23.8898 16.5692 23.9632C16.8761 24.0367 17.1997 23.986 17.4694 23.822C17.7391 23.6581 17.9332 23.3942 18.0093 23.0878L18.96 19.115C18.9658 19.0914 18.9794 19.0705 18.9985 19.0556C19.0176 19.0406 19.0412 19.0325 19.0654 19.0325C19.0897 19.0325 19.1132 19.0406 19.1323 19.0556C19.1514 19.0705 19.165 19.0914 19.1708 19.115L20.2038 23.1107C20.285 23.4161 20.4837 23.6769 20.7565 23.8364C21.0293 23.9959 21.3541 24.041 21.66 23.9619C21.966 23.8828 22.2282 23.6859 22.3896 23.4143C22.5509 23.1426 22.5983 22.8181 22.5213 22.5116L20.6124 15.1273C20.4796 14.6137 20.1799 14.1587 19.7604 13.8339C19.3409 13.509 18.8254 13.3328 18.2948 13.3328H16.0596V9.07836C16.0571 8.7915 15.9414 8.51722 15.7376 8.31527C15.5339 8.11331 15.2586 8 14.9717 8C14.6849 8 14.4096 8.11331 14.2059 8.31527C14.0021 8.51722 13.8864 8.7915 13.8839 9.07836V14.0017L12.2375 20.6378C12.1712 20.9167 12.2177 21.2105 12.3668 21.4554C12.516 21.7002 12.7557 21.8762 13.034 21.9453C13.3122 22.0143 13.6065 21.9707 13.8527 21.824C14.099 21.6772 14.2774 21.4392 14.3492 21.1617V21.1599Z" fill="#2BD7B8"/>
</g>
</g>
</svg>
