<svg width="32" height="32" viewBox="0 0 32 32" fill="none" xmlns="http://www.w3.org/2000/svg">
<g id="HandgripStrengthKey">
<rect id="Rectangle" width="32" height="32" rx="6" fill="#7572FF" fill-opacity="0.15"/>
<g id="Group">
<g id="Group_2">
<path id="Vector" d="M16.4632 8C17.2089 8 17.884 8.30227 18.3727 8.79098C18.8614 9.27968 19.1637 9.95479 19.1637 10.7005C19.1637 11.4462 18.8614 12.1213 18.3727 12.61C17.884 13.0987 17.2089 13.401 16.4632 13.401C15.7175 13.401 15.0424 13.0987 14.5537 12.61C14.065 12.1213 13.7627 11.4462 13.7627 10.7005C13.7627 9.95479 14.065 9.27968 14.5537 8.79098C15.0424 8.30227 15.7175 8 16.4632 8ZM14.8742 10.7005C14.8742 11.1392 15.0521 11.5365 15.3396 11.824C15.6272 12.1116 16.0244 12.2894 16.4632 12.2894C16.9019 12.2894 17.2992 12.1116 17.5867 11.824C17.8743 11.5365 18.0521 11.1392 18.0521 10.7005C18.0521 10.2617 17.8743 9.8645 17.5867 9.57696C17.2992 9.28943 16.9019 9.11155 16.4632 9.11155C16.0244 9.11155 15.6272 9.28943 15.3396 9.57696C15.0521 9.8645 14.8742 10.2617 14.8742 10.7005Z" fill="#7572FF"/>
<path id="Vector_2" fill-rule="evenodd" clip-rule="evenodd" d="M14.5417 12.9414L14.2064 14.1926L13.4824 13.9992L13.9509 12.251C14.0701 12.444 14.2124 12.6242 14.376 12.7878C14.4295 12.8413 14.4848 12.8925 14.5417 12.9414Z" fill="#7572FF"/>
<path id="Vector_3" d="M13.402 13.5896L14.4818 13.8789C14.7316 13.9458 14.9316 14.1092 15.0527 14.3186C15.0561 14.3245 15.0604 14.3303 15.0632 14.3363C15.1763 14.5422 15.2136 14.79 15.1485 15.0332L14.6752 16.7995L11.7226 16.2161L12.2477 14.2563C12.3146 14.0065 12.478 13.8065 12.6874 13.6854C12.6933 13.6819 12.6991 13.6777 12.7052 13.6748C12.9111 13.5618 13.1588 13.5245 13.402 13.5896ZM14.5437 17.2905L14.1791 18.6511L11.2207 18.0891L11.591 16.7071L14.5437 17.2905ZM14.0473 19.143L12.9327 23.3027C12.8658 23.5524 12.7024 23.7525 12.493 23.8736C12.4871 23.877 12.4813 23.8813 12.4753 23.8841C12.2694 23.9972 12.0216 24.0345 11.7784 23.9694L10.6986 23.6801C10.4481 23.6129 10.2479 23.4496 10.1272 23.2406C10.1226 23.2327 10.1179 23.2246 10.1143 23.2164C10.0036 23.0117 9.96743 22.7664 10.0319 22.5258L11.0889 18.5811L14.0473 19.143Z" fill="#7572FF"/>
<path id="Vector_4" fill-rule="evenodd" clip-rule="evenodd" d="M18.9746 12.251L19.443 13.9992L18.7191 14.1927L18.3838 12.9414C18.4407 12.8925 18.496 12.8413 18.5495 12.7878C18.7131 12.6242 18.8553 12.444 18.9746 12.251Z" fill="#7572FF"/>
<path id="Vector_5" d="M18.4438 13.8789L19.5236 13.5896C19.7668 13.5245 20.0145 13.5618 20.2204 13.6748C20.2265 13.6777 20.2325 13.6808 20.2384 13.6843C20.4478 13.8054 20.611 14.0065 20.6779 14.2563L21.2073 16.2322L18.2457 16.7819L17.7771 15.0332C17.712 14.7901 17.7493 14.5423 17.8623 14.3364C17.8652 14.3303 17.8683 14.3243 17.8717 14.3184C17.9929 14.109 18.194 13.9458 18.4438 13.8789ZM21.3393 16.7247L21.7091 18.1047L18.742 18.6342L18.3776 17.2744L21.3393 16.7247ZM21.8413 18.5981L22.8937 22.5258C22.9588 22.769 22.9215 23.0167 22.8085 23.2226C22.8056 23.2287 22.8025 23.2347 22.799 23.2406C22.6779 23.45 22.4768 23.6132 22.227 23.6801L21.1472 23.9694C20.8974 24.0364 20.6425 23.9949 20.4333 23.8741C20.2236 23.753 20.0599 23.5528 19.9929 23.3027L18.8742 19.1276L21.8413 18.5981Z" fill="#7572FF"/>
</g>
</g>
</g>
</svg>
