<svg width="32" height="32" viewBox="0 0 32 32" fill="none" xmlns="http://www.w3.org/2000/svg">
<g id="Heart-rate">
<rect id="Rectangle" width="32" height="32" rx="6" fill="#EF5DA8" fill-opacity="0.15"/>
<path id="Vector" d="M23.0808 16.228C22.2252 17.5598 19.5613 19.6556 17.6172 21.1858C17.0245 21.652 16.5127 22.0546 16.1204 22.3804C16.0868 22.4084 16.0444 22.4236 16.0007 22.4236C15.957 22.4236 15.9146 22.4084 15.8809 22.3804C15.4889 22.0548 14.977 21.652 14.3842 21.1858C12.4387 19.6556 9.7748 17.5598 8.91923 16.228C8.32524 15.3364 8.00566 14.2902 8 13.2188C8.00056 12.2851 8.30545 11.3771 8.86847 10.6323C9.42154 9.91914 10.1924 9.40608 11.0637 9.17114C11.9043 8.93334 12.7957 8.94356 13.6306 9.20056C14.3239 9.41147 14.939 9.82349 15.3978 10.3844C15.6669 10.7208 15.8711 11.1042 16 11.5152C16.1289 11.1042 16.3331 10.7208 16.6022 10.3844C17.061 9.82354 17.676 9.41152 18.3692 9.20056C19.2042 8.94355 20.0956 8.93334 20.9363 9.17114C21.8076 9.40608 22.5785 9.91914 23.1315 10.6323C23.6945 11.3771 23.9994 12.2851 24 13.2188C23.9943 14.2902 23.6748 15.3364 23.0808 16.228Z" fill="#EF5DA8"/>
</g>
</svg>
