<svg width="32" height="32" viewBox="0 0 32 32" fill="none" xmlns="http://www.w3.org/2000/svg">
<g id="Height">
<rect id="Rectangle" width="32" height="32" rx="6" fill="#3D8FDB" fill-opacity="0.15"/>
<path id="Vector" d="M18.5593 12.0372C18.7258 12.2036 18.916 12.275 19.1301 12.275C19.3441 12.275 19.5344 12.2036 19.7009 12.0372C20.01 11.728 20.01 11.2048 19.7009 10.8956L17.0372 8.23188C16.728 7.92271 16.2048 7.92271 15.8956 8.23188L13.2319 10.9194C12.9227 11.2285 12.9227 11.7518 13.2319 12.0609C13.5411 12.3701 14.0643 12.3701 14.3735 12.0609L15.6815 10.7529V21.265L14.3735 19.9569C14.0643 19.6477 13.5411 19.6477 13.2319 19.9569C12.9227 20.2661 12.9227 20.7893 13.2319 21.0985L15.8956 23.7622C16.0621 23.9287 16.2523 24 16.4664 24C16.6804 24 16.8707 23.9287 17.0372 23.7622L19.7009 21.0985C20.01 20.7893 20.01 20.2661 19.7009 19.9569C19.3917 19.6477 18.8684 19.6477 18.5593 19.9569L17.2512 21.265V10.7529L18.5593 12.0372Z" fill="#3D8FDB"/>
</g>
</svg>
