<?xml version="1.0" encoding="UTF-8"?>
<svg width="30px" height="30px" viewBox="0 0 30 30" version="1.1" xmlns="http://www.w3.org/2000/svg" xmlns:xlink="http://www.w3.org/1999/xlink">
    <!-- Generator: Sketch 64 (93537) - https://sketch.com -->
    <title>Height</title>
    <desc>Created with Sketch.</desc>
    <g id="Welcome" stroke="none" stroke-width="1" fill="none" fill-rule="evenodd">
        <g id="Patient-Summary-demogrph" transform="translate(-500.000000, -344.000000)">
            <g id="Cards" transform="translate(320.000000, 228.000000)">
                <g id="Patient-info-card">
                    <g id="Profile" transform="translate(30.000000, 30.000000)">
                        <g id="Overview" transform="translate(150.000000, 83.000000)">
                            <g id="Height">
                                <g transform="translate(0.000000, 3.000000)">
                                    <circle id="Oval" fill="#CCE4F6" cx="15" cy="15" r="15"></circle>
                                    <path d="M18.3129542,15.5900104 C18.3129542,15.5712799 17.882153,12.817898 17.76977,11.9937565 C17.6199261,10.9635796 16.889437,10.1768991 15.9529126,9.95213319 C15.5783028,10.1768991 15.1287711,10.3080125 14.6605088,10.3080125 C14.1922466,10.3080125 13.7427149,10.1768991 13.3681051,9.95213319 C12.4128501,10.1768991 11.7010916,10.9635796 11.5512477,11.9937565 C11.4201342,12.8366285 11.0080635,15.5712799 11.0080635,15.5900104 C10.951872,15.9458897 11.1953684,16.2830385 11.5512477,16.33923 C11.9633184,16.3954214 12.2442757,16.1144641 12.3004672,15.7960458 C12.3004672,15.7773153 12.7874599,12.5744017 12.8436514,12.2185224 C12.8436514,12.1997919 12.8623819,12.1810614 12.8811124,12.1810614 C12.9185734,12.1810614 12.9373038,12.1997919 12.9373038,12.2372529 L12.9373038,16.5452653 L12.3566587,22.8761707 C12.3191977,23.3444329 12.6563465,23.7565036 13.1246087,23.7939646 C13.592871,23.8314256 14.0049417,23.4942768 14.0424027,23.0260146 C14.0424027,23.0260146 14.6043174,16.8636837 14.6043174,16.8449532 C14.6043174,16.8262227 14.6792393,16.8262227 14.6792393,16.8449532 C14.6792393,16.8636837 15.241154,23.0260146 15.241154,23.0260146 C15.278615,23.4755463 15.6157638,23.8501561 16.158948,23.7939646 C16.6272102,23.7565036 16.964359,23.3444329 16.926898,22.8761707 L16.3462529,16.5452653 L16.3649833,12.1997919 C16.3649833,12.1810614 16.3837138,12.1623309 16.4024443,12.1623309 C16.4211748,12.1623309 16.4399053,12.1810614 16.4399053,12.1997919 C16.4960968,12.5556712 16.9830895,15.7773153 16.9830895,15.8147763 C17.039281,16.1331946 17.2827773,16.4328824 17.732309,16.3579605 C18.1256493,16.2830385 18.3691457,15.9458897 18.3129542,15.5900104 Z" id="Path" fill="#0078D3" fill-rule="nonzero"></path>
                                    <circle id="Oval" fill="#0078D3" fill-rule="nonzero" cx="14.6605088" cy="7.81685744" r="1.81685744"></circle>
                                </g>
                            </g>
                        </g>
                    </g>
                </g>
            </g>
        </g>
    </g>
</svg>