<svg width="32" height="32" viewBox="0 0 32 32" fill="none" xmlns="http://www.w3.org/2000/svg">
<g id="HighIntensityIntervalTraining">
<rect id="Rectangle" width="32" height="32" rx="6" fill="#E8BE54" fill-opacity="0.15"/>
<g id="Group">
<g id="Group_2">
<g id="Group_3">
<path id="Vector" d="M15.9842 11.1221C15.1439 11.1221 14.4717 11.7943 14.4717 12.6346C14.4717 13.4748 15.1439 14.147 15.9842 14.147C16.8244 14.147 17.4966 13.4748 17.4966 12.6346C17.4966 11.7943 16.8244 11.1221 15.9842 11.1221Z" fill="#E8BE54"/>
<path id="Vector_2" d="M23.6135 9.18915L22.1682 9.00429C21.9497 8.97068 21.7481 9.13874 21.7313 9.35721L21.58 10.5336C20.9246 10.4664 20.2356 10.3991 19.513 10.3655C19.3785 10.1975 19.16 10.1134 18.9248 10.1303C18.7735 10.1471 18.6391 10.2143 18.5382 10.3151C17.698 10.2815 16.8409 10.2647 15.9838 10.2647C15.11 10.2647 14.2529 10.2815 13.4294 10.3151C13.3286 10.2143 13.1941 10.1471 13.0429 10.1303C12.8076 10.1134 12.6059 10.1975 12.4547 10.3655C11.7321 10.4159 11.043 10.4664 10.3876 10.5336L10.2364 9.35721C10.2028 9.13874 10.0179 8.98749 9.79945 9.00429L8.35419 9.18915C8.13572 9.22276 7.98447 9.40762 8.00127 9.62609L8.35419 12.4998C8.3878 12.7183 8.57266 12.8695 8.79113 12.8527L10.2364 12.6679C10.4549 12.6343 10.6061 12.4494 10.5893 12.2309L10.4549 11.105C11.0262 11.0377 11.6312 10.9873 12.2698 10.9537L12.169 11.962C12.001 13.5586 12.9253 15.071 14.3705 15.6424L14.5218 18.3145L13.3286 18.3313C13.0933 18.3313 12.8748 18.4489 12.7236 18.6506C12.5891 18.8522 12.5387 19.0875 12.6228 19.3228L13.4966 22.0957C13.5975 22.415 13.9 22.6335 14.2193 22.6335C14.2865 22.6335 14.3705 22.6167 14.4377 22.5998C14.8411 22.4822 15.0595 22.0453 14.9419 21.6587L14.3705 19.8438H17.6308L17.0594 21.6587C16.9417 22.0621 17.1602 22.4822 17.5635 22.5998C17.6308 22.6167 17.7148 22.6335 17.782 22.6335C18.1013 22.6335 18.4038 22.4318 18.5046 22.0957L19.3785 19.3228C19.4457 19.0875 19.4121 18.8522 19.2777 18.6506C19.1432 18.4489 18.908 18.3481 18.6727 18.3313L17.4795 18.3145L17.6308 15.6424C19.076 15.0878 19.9835 13.5586 19.8323 11.962L19.7314 10.9537C20.3532 11.0041 20.9582 11.0546 21.5464 11.105L21.412 12.2477C21.3784 12.4662 21.5464 12.6679 21.7649 12.6847L23.2101 12.8695C23.4286 12.9031 23.6303 12.7351 23.6471 12.5166L24 9.6429C23.9832 9.42443 23.8319 9.22276 23.6135 9.18915ZM17.0426 14.382C16.3872 14.6005 15.5805 14.6005 14.9251 14.382C14.0008 14.0627 13.4126 13.1048 13.5134 12.0797L13.6311 10.8697C14.4041 10.8361 15.1772 10.8193 15.9838 10.8193C16.7737 10.8193 17.5635 10.8361 18.3366 10.8697L18.4542 12.0797C18.5551 13.1048 17.9669 14.0627 17.0426 14.382Z" fill="#E8BE54"/>
</g>
</g>
</g>
</g>
</svg>
