<svg width="32" height="32" viewBox="0 0 32 32" fill="none" xmlns="http://www.w3.org/2000/svg">
<g id="HipCircumferenceKey">
<rect id="Rectangle" width="32" height="32" rx="6" fill="#A767F9" fill-opacity="0.15"/>
<g id="Group">
<g id="Group_2">
<path id="Vector" d="M11.7117 18.4495C11.1537 17.9539 10.9757 17.811 10.5902 17.811L10.577 17.811C10.1029 17.811 9.66253 17.7396 9.2644 17.6006C9.24193 17.9241 9.24563 18.2281 9.27641 18.5109C9.40897 19.7296 10.0466 20.5894 11.1204 20.9974C11.1354 21.0031 11.1507 21.0081 11.1661 21.0123C11.6843 21.1541 12.1439 21.2257 12.5604 21.2257C13.1603 21.2257 13.6706 21.0773 14.137 20.777C14.4033 20.6054 14.6509 20.3883 14.8936 20.1074C13.2801 19.8414 12.3588 19.0243 11.7117 18.4495Z" fill="#A767F9"/>
<path id="Vector_2" d="M21.4243 17.8112L21.4142 17.8112C21.0271 17.8112 20.8492 17.9541 20.2913 18.4497C19.6442 19.0245 18.7229 19.8416 17.1094 20.1075C17.3521 20.3885 17.5996 20.6055 17.866 20.7771C18.3324 21.0775 18.8425 21.2258 19.4425 21.2258C19.8589 21.2258 20.3187 21.1543 20.8368 21.0124C20.8523 21.0082 20.8675 21.0032 20.8826 20.9975C21.9563 20.5895 22.594 19.7297 22.7265 18.511C22.7573 18.2282 22.761 17.9242 22.7385 17.6006C22.34 17.7397 21.8991 17.8112 21.4243 17.8112Z" fill="#A767F9"/>
</g>
<path id="Vector_3" d="M19.0155 10.5492C18.8787 10.3949 18.4731 9.94399 17.8963 10.0058C17.559 10.0418 17.2963 10.2334 17.0422 10.4186C16.7356 10.6421 16.446 10.8532 16.0004 10.8532C15.5547 10.8532 15.2651 10.6421 14.9585 10.4186C14.7045 10.2334 14.4418 10.0418 14.1045 10.0058C13.5269 9.94386 13.1221 10.3948 12.9852 10.5491C12.6296 10.9354 12.4711 11.3032 12.5005 11.6733C12.5432 12.209 12.9589 12.5357 13.2929 12.7982C13.4215 12.8993 13.6608 13.0874 13.6768 13.165C13.6768 13.165 13.6768 13.1662 13.6762 13.1696C13.5601 13.8736 13.7401 14.5443 14.1831 15.058C14.6242 15.5694 15.273 15.8606 15.9686 15.8605C15.9792 15.8605 15.9897 15.8605 16.0004 15.8603C16.7091 15.8696 17.3699 15.5772 17.8176 15.058C18.2606 14.5443 18.4407 13.8736 18.3245 13.1688C18.3241 13.167 18.324 13.1659 18.3239 13.1657C18.3408 13.0866 18.5795 12.899 18.7078 12.7981C19.0419 12.5356 19.4576 12.2089 19.5002 11.6732C19.5297 11.3032 19.3711 10.9354 19.0155 10.5492Z" fill="#A767F9"/>
<path id="Vector_4" d="M23.9859 13.1C23.9854 13.0925 23.9849 13.0851 23.9842 13.0777C23.7658 10.8594 22.4314 9.80511 20.1252 10.0296C20.1192 10.0302 20.1131 10.0309 20.107 10.0317C20.0427 10.0404 19.9808 10.0512 19.9199 10.0632C20.3513 10.6012 20.547 11.1684 20.5005 11.7525C20.4251 12.699 19.775 13.2344 19.3626 13.5592C19.3693 14.3588 19.0989 15.1082 18.5776 15.7127C17.9456 16.4455 17.0204 16.8632 16.0333 16.8632C16.0222 16.8632 16.0111 16.8632 16 16.8631C15.9896 16.8632 15.9793 16.8632 15.9689 16.8632C14.9822 16.8632 14.0545 16.4439 13.4239 15.7127C12.9022 15.1077 12.6318 14.358 12.6386 13.559C12.2258 13.234 11.5763 12.6986 11.5009 11.7525C11.4544 11.1683 11.6501 10.6012 12.0815 10.0632C12.0207 10.0512 11.9587 10.0403 11.8945 10.0317C11.8884 10.0309 11.8823 10.0302 11.8762 10.0296C9.57029 9.80543 8.2356 10.8594 8.01727 13.0777C8.01655 13.0851 8.01599 13.0925 8.01558 13.1C7.96662 14.0116 7.98953 15.316 8.75009 16.1158C9.18639 16.5746 9.80135 16.8072 10.5764 16.8072C10.5808 16.8072 10.5852 16.8072 10.5895 16.8072C11.3734 16.8072 11.7944 17.1811 12.3772 17.6988C13.1257 18.3637 14.0574 19.1912 16.0007 19.1912C17.9441 19.1912 18.8757 18.3637 19.6243 17.6988C20.207 17.1811 20.628 16.8072 21.4103 16.8072C21.4147 16.8072 21.419 16.8072 21.4235 16.8072C22.2001 16.8072 22.8151 16.5746 23.2513 16.1158C23.6156 15.7328 24.088 15.0035 23.9859 13.1ZM12.0191 15.0154C11.9637 15.2451 11.7583 15.3995 11.532 15.3995C11.493 15.3995 11.4535 15.3949 11.414 15.3853C10.6141 15.1924 10.2323 14.7826 10.0529 14.4727C9.84448 14.1129 9.79379 13.6953 9.91018 13.2969C9.98789 13.031 10.2661 12.8783 10.5323 12.9561C10.7981 13.0338 10.9507 13.3123 10.873 13.5782C10.8456 13.6719 10.8317 13.816 10.9209 13.97C11.0357 14.1683 11.2944 14.3247 11.6491 14.4103C11.9185 14.4752 12.0841 14.7462 12.0191 15.0154ZM21.9486 14.4727C21.7691 14.7826 21.3873 15.1924 20.5875 15.3853C20.548 15.3949 20.5084 15.3995 20.4695 15.3995C20.2431 15.3995 20.0377 15.2452 19.9823 15.0154C19.9174 14.7461 20.083 14.4752 20.3523 14.4102C20.707 14.3247 20.9657 14.1683 21.0805 13.97C21.1697 13.816 21.1558 13.6719 21.1284 13.5782C21.0507 13.3123 21.2033 13.0338 21.4691 12.9561C21.7351 12.8784 22.0135 13.031 22.0912 13.2968C22.2076 13.6953 22.157 14.1128 21.9486 14.4727Z" fill="#A767F9"/>
</g>
</g>
</svg>
