<svg width="32" height="32" viewBox="0 0 32 32" fill="none" xmlns="http://www.w3.org/2000/svg">
<g id="Hydration">
<rect id="Rectangle" width="32" height="32" rx="6" fill="#60C0F6" fill-opacity="0.15"/>
<path id="Vector" d="M16.3102 24C19.2383 24 21.6204 21.6179 21.6204 18.6898C21.6204 14.9002 18.0652 10.0285 16.5364 8.11024C16.46 8.01429 16.3621 8 16.3102 8C16.2583 8 16.1603 8.01429 16.084 8.10984C14.5552 10.0285 11 14.9002 11 18.6898C11 21.6179 13.3821 24 16.3102 24ZM14.2535 18.3052C14.4658 18.0928 14.8096 18.0928 15.0219 18.3052L16.3102 19.593L18.4347 17.4689C18.647 17.2566 18.9908 17.2566 19.2031 17.4689C19.4155 17.6812 19.4155 18.0251 19.2031 18.2374L16.6944 20.7461C16.5883 20.8523 16.4494 20.9053 16.3102 20.9053C16.171 20.9053 16.0321 20.8523 15.926 20.7461L14.2535 19.0736C14.0412 18.8613 14.0412 18.5175 14.2535 18.3052Z" fill="#60C0F7"/>
</g>
</svg>
