<?xml version="1.0" encoding="UTF-8"?>
<svg width="50px" height="50px" viewBox="0 0 50 50" version="1.1" xmlns="http://www.w3.org/2000/svg" xmlns:xlink="http://www.w3.org/1999/xlink">
    <title>Icon-Hangup</title>
    <g id="Welcome" stroke="none" stroke-width="1" fill="none" fill-rule="evenodd">
        <g id="Videocall-Appointments" transform="translate(-929.000000, -810.000000)">
            <g id="Video-holder" transform="translate(319.000000, 226.000000)">
                <g id="Group-5" transform="translate(400.000000, 584.000000)">
                    <g id="Icon-Hangup" transform="translate(210.000000, 0.000000)">
                        <circle id="Oval-2" fill="#EA2915" cx="25" cy="25" r="25"></circle>
                        <path d="M35.4530355,30.2279473 C34.5058399,29.2546729 31.8134687,27.4314055 30.0488302,27.4314055 C29.6401088,27.4314055 29.2832885,27.5222444 28.9913446,27.7104108 C28.1284883,28.261933 27.4407983,28.6901737 27.1099286,28.6901737 C26.9282747,28.6901737 26.7336454,28.5279613 26.3054611,28.158117 L26.234097,28.0932321 C25.0468586,27.0615612 24.7938406,26.7955329 24.3332181,26.3153842 L24.2164405,26.1921027 C24.1321012,26.1077523 24.0607371,26.0298903 23.9893731,25.9585169 C23.5871393,25.5432531 23.2951955,25.2447823 22.2636605,24.076853 L22.218247,24.024945 C21.7251862,23.4669344 21.4008042,23.1035786 21.3813412,22.8375503 C21.3618783,22.5780104 21.5889458,22.1562582 22.1663458,21.3711501 C22.8670111,20.4238297 22.8929617,19.2559004 22.2506852,17.8998047 C21.7381615,16.8292029 20.9012558,15.8040205 20.1616646,14.9021196 L20.0967882,14.8242576 C19.4609994,14.0456381 18.7214082,13.6563283 17.8974778,13.6563283 C16.9827203,13.6563283 16.2236663,14.149454 15.8214325,14.4089939 C15.7889943,14.4284593 15.7565561,14.4544133 15.7241179,14.4738788 C14.8223357,15.0448665 14.167084,15.8299745 13.9205536,16.6280595 C13.550758,17.8284313 13.3042276,19.3856703 15.0753538,22.6234299 C16.6064371,25.4264602 17.9947924,27.3081241 20.2005905,29.5726092 C22.2766357,31.7008359 23.1978808,32.3886165 25.2609508,33.8809706 C27.5575759,35.5420256 29.763374,36.4958345 31.3074326,36.4958345 C32.7412014,36.4958345 33.870051,36.4958345 35.4789861,34.5557742 C37.1657728,32.5183864 36.4651076,31.2725952 35.4530355,30.2279473 L35.4530355,30.2279473 Z" id="Shape" fill="#FFFFFF" transform="translate(25.076081, 25.076081) rotate(134.000000) translate(-25.076081, -25.076081) "></path>
                    </g>
                </g>
            </g>
        </g>
    </g>
</svg>