<?xml version="1.0" encoding="UTF-8"?>
<svg width="50px" height="50px" viewBox="0 0 50 50" version="1.1" xmlns="http://www.w3.org/2000/svg" xmlns:xlink="http://www.w3.org/1999/xlink">
    <title>Icon-Mute</title>
    <g id="Welcome" stroke="none" stroke-width="1" fill="none" fill-rule="evenodd">
        <g id="Videocall-Appointments" transform="translate(-789.000000, -810.000000)">
            <g id="Video-holder" transform="translate(319.000000, 226.000000)">
                <g id="Group-5" transform="translate(400.000000, 584.000000)">
                    <g id="Icon-Mute" transform="translate(70.000000, 0.000000)">
                        <g id="volume-high" transform="translate(11.785714, 13.571429)"></g>
                        <circle id="Oval-2" fill="#FFFFFF" cx="25" cy="25" r="25"></circle>
                        <g id="Group" transform="translate(11.785714, 13.571429)" fill="#0078D3">
                            <polygon id="Shape" points="11.739477 20.4642857 11.739477 2.39880952 6.14110332 7.61904762 0 7.61904762 0 15.2380952 6.14110332 15.2380952"></polygon>
                            <path d="M15.0489477,17.3630952 C16.2582908,15.702381 16.9838967,13.6547619 16.9838967,11.4285714 C16.9838967,9.20238095 16.2582908,7.1547619 15.0489477,5.49404762 L13.8455038,6.4047619 C14.8719707,7.80952381 15.4854911,9.54166667 15.4854911,11.4285714 C15.4854911,13.3095238 14.8719707,15.047619 13.8455038,16.4464286 L15.0489477,17.3630952 L15.0489477,17.3630952 Z" id="Shape"></path>
                            <path d="M18.977838,20.1011905 C20.7476084,17.6785714 21.8094707,14.6785714 21.8094707,11.4285714 C21.8094707,8.17857143 20.7476084,5.18452381 18.977838,2.75595238 L17.7743941,3.66666667 C19.3612883,5.83333333 20.3110651,8.51785714 20.3110651,11.4285714 C20.3110651,14.3392857 19.3612883,17.0178571 17.7743941,19.1845238 L18.977838,20.1011905 L18.977838,20.1011905 Z" id="Shape"></path>
                            <path d="M21.5145089,0.916666667 C23.6618304,3.85119048 24.9301658,7.49404762 24.9301658,11.4285714 C24.9301658,15.3630952 23.6618304,19 21.5145089,21.9404762 L22.723852,22.8571429 C25.0481505,19.6666667 26.4285714,15.7142857 26.4285714,11.4285714 C26.4285714,7.14285714 25.0481505,3.19047619 22.723852,0 L21.5145089,0.916666667 L21.5145089,0.916666667 Z" id="Shape"></path>
                        </g>
                    </g>
                </g>
            </g>
        </g>
    </g>
</svg>