<?xml version="1.0" encoding="UTF-8"?>
<svg width="50px" height="50px" viewBox="0 0 50 50" version="1.1" xmlns="http://www.w3.org/2000/svg" xmlns:xlink="http://www.w3.org/1999/xlink">
    <title>Icon-Microphone</title>
    <g id="Welcome" stroke="none" stroke-width="1" fill="none" fill-rule="evenodd">
        <g id="Videocall-Appointments" transform="translate(-719.000000, -810.000000)">
            <g id="Video-holder" transform="translate(319.000000, 226.000000)">
                <g id="Icon-Microphone" transform="translate(400.000000, 584.000000)">
                    <circle id="Oval-2" fill="#FFFFFF" cx="25" cy="25" r="25"></circle>
                    <g id="Group" transform="translate(18.214286, 13.571429)" fill="#0078D3">
                        <path d="M6.32716049,16.1689126 C8.48729263,16.1689126 10.2322049,14.2829586 10.2322049,11.9695216 L10.2322049,4.19939098 C10.2322049,1.88595403 8.48729263,0 6.32716049,0 C4.16702836,0 2.42211613,1.88595403 2.42211613,4.19939098 L2.42211613,11.9695216 C2.42211613,14.2829586 4.16702836,16.1689126 6.32716049,16.1689126 L6.32716049,16.1689126 Z" id="Shape"></path>
                        <path d="M11.813995,8.04673721 L11.813995,12.0550182 C11.813995,15.0826031 9.3523341,17.5469163 6.37659144,17.5469163 C3.40084877,17.5469163 0.939187886,15.0826031 0.939187886,12.0550182 L0.939187886,8.04673721 L0,8.04673721 L0,12.0550182 C0,15.4346478 2.61983989,18.2208306 5.93171296,18.4672619 L5.93171296,21.6256063 L2.32325424,21.6256063 L2.32325424,22.5308642 L10.2816358,22.5308642 L10.2816358,21.6256063 L6.87090085,21.6256063 L6.87090085,18.4672619 C10.133343,18.2208306 12.654321,15.4346478 12.654321,12.0550182 L12.654321,8.04673721 L11.813995,8.04673721 L11.813995,8.04673721 Z" id="Shape"></path>
                    </g>
                </g>
            </g>
        </g>
    </g>
</svg>