<?xml version="1.0" encoding="UTF-8"?>
<svg width="16px" height="16px" viewBox="0 0 16 16" version="1.1" xmlns="http://www.w3.org/2000/svg" xmlns:xlink="http://www.w3.org/1999/xlink">
    <title>Info-icon</title>
    <g id="Welcome" stroke="none" stroke-width="1" fill="none" fill-rule="evenodd">
        <g id="Sign-in" transform="translate(-771.000000, -380.000000)" fill="#0078D3" fill-rule="nonzero">
            <g transform="translate(191.000000, 168.000000)" id="Content">
                <g transform="translate(360.000000, 0.000000)">
                    <g transform="translate(180.000000, 149.000000)">
                        <g id="Input-/-Field-/-Large-/-With-Label" transform="translate(0.000000, 63.000000)">
                            <path d="M42.3430079,2.34300792 C39.2189974,5.46701847 39.2189974,10.5329815 42.3430079,13.6569921 C45.4670185,16.7810026 50.5329815,16.7810026 53.6569921,13.6569921 C56.7810026,10.5329815 56.7810026,5.46701847 53.6569921,2.34300792 C50.5329815,-0.781002639 45.4670185,-0.781002639 42.3430079,2.34300792 Z M48.3208443,3.35620053 C48.9963061,3.35620053 49.5366755,3.91345646 49.5366755,4.58891821 C49.5366755,5.26437995 48.9794195,5.82163588 48.3208443,5.82163588 C47.6453826,5.82163588 47.0881266,5.26437995 47.0881266,4.57203166 C47.0881266,3.89656992 47.6453826,3.35620053 48.3208443,3.35620053 Z M50.0601583,11.6137203 C50.0263852,11.7150396 49.9588391,11.8332454 49.8912929,11.9007916 C49.4522427,12.3567282 48.9118734,12.6269129 48.2701847,12.6269129 C47.9662269,12.6269129 47.6791557,12.6269129 47.3751979,12.5762533 C46.8854881,12.5087071 46.260686,11.9007916 46.3451187,11.2591029 C46.4126649,10.8200528 46.4802111,10.3810026 46.5477573,9.94195251 C46.6828496,9.18205805 46.817942,8.40527704 46.9530343,7.64538259 C46.9530343,7.59472296 46.9699208,7.54406332 46.9699208,7.49340369 C46.9699208,7.17255937 46.8686016,7.05435356 46.5477573,7.02058047 C46.4126649,7.00369393 46.2775726,6.98680739 46.1424802,6.9530343 C45.9905013,6.90237467 45.9060686,6.76728232 45.9229551,6.64907652 C45.9398417,6.51398417 46.0242744,6.42955145 46.1931398,6.39577836 C46.2775726,6.37889182 46.3788918,6.37889182 46.4802111,6.37889182 C46.851715,6.37889182 47.223219,6.37889182 47.6116095,6.37889182 C48.0168865,6.37889182 48.405277,6.37889182 48.8105541,6.37889182 C49.0976253,6.37889182 49.2664908,6.51398417 49.2664908,6.80105541 C49.2664908,7.03746702 49.2327177,7.27387863 49.182058,7.51029024 C49.0300792,8.3883905 48.8612137,9.24960422 48.7092348,10.1277045 C48.6585752,10.4147757 48.591029,10.701847 48.5572559,10.9889182 C48.5403694,11.1240106 48.5572559,11.2759894 48.591029,11.4110818 C48.6416887,11.5968338 48.776781,11.698153 48.962533,11.6812665 C49.1145119,11.6643799 49.2664908,11.6137203 49.4184697,11.5461741 C49.5366755,11.4955145 49.6379947,11.4110818 49.7562005,11.3773087 C49.9588391,11.3097625 50.1108179,11.4279683 50.0601583,11.6137203 Z" id="Info-icon"></path>
                        </g>
                    </g>
                </g>
            </g>
        </g>
    </g>
</svg>