<svg width="22" height="22" viewBox="0 0 22 22" fill="none" xmlns="http://www.w3.org/2000/svg">
<circle cx="10.75" cy="10.75" r="10.75" fill="#64748B"/>
<path d="M11 12.5C10.59 12.5 10.25 12.16 10.25 11.75V6.75C10.25 6.34 10.59 6 11 6C11.41 6 11.75 6.34 11.75 6.75V11.75C11.75 12.16 11.41 12.5 11 12.5Z" fill="white"/>
<path d="M11 15.75C10.87 15.75 10.74 15.72 10.62 15.67C10.5 15.62 10.39 15.55 10.29 15.46C10.2 15.36 10.13 15.26 10.08 15.13C10.03 15.01 10 14.88 10 14.75C10 14.62 10.03 14.49 10.08 14.37C10.13 14.25 10.2 14.14 10.29 14.04C10.39 13.95 10.5 13.88 10.62 13.83C10.86 13.73 11.14 13.73 11.38 13.83C11.5 13.88 11.61 13.95 11.71 14.04C11.8 14.14 11.87 14.25 11.92 14.37C11.97 14.49 12 14.62 12 14.75C12 14.88 11.97 15.01 11.92 15.13C11.87 15.26 11.8 15.36 11.71 15.46C11.61 15.55 11.5 15.62 11.38 15.67C11.26 15.72 11.13 15.75 11 15.75Z" fill="white"/>
</svg>
