<svg width="32" height="32" viewBox="0 0 32 32" fill="none" xmlns="http://www.w3.org/2000/svg">
<g id="Insulin-night">
<rect id="Rectangle" width="32" height="32" rx="6" fill="#8C5DEF" fill-opacity="0.15"/>
<path id="Vector" d="M15.6065 10.3804V9.1719H16.9249V10.3804H15.6065ZM16.2322 23.97C16.2331 23.9782 16.237 23.9858 16.2432 23.9914C16.2494 23.9969 16.2574 24 16.2657 24C16.274 24 16.282 23.9969 16.2882 23.9914C16.2943 23.9858 16.2983 23.9782 16.2992 23.97L16.6066 21.1518H15.9248L16.2322 23.97ZM15.0938 8.73243H17.4376C17.5347 8.73243 17.6278 8.69385 17.6965 8.62517C17.7652 8.55649 17.8038 8.46334 17.8038 8.36622C17.8038 8.26909 17.7652 8.17594 17.6965 8.10726C17.6278 8.03858 17.5347 8 17.4376 8H15.0938C14.9966 8 14.9035 8.03858 14.8348 8.10726C14.7661 8.17594 14.7276 8.26909 14.7276 8.36622C14.7276 8.46334 14.7661 8.55649 14.8348 8.62517C14.9035 8.69385 14.9966 8.73243 15.0938 8.73243ZM15.7896 20.7123H16.7418L17.553 19.7436H14.9784L15.7896 20.7123ZM18.1661 10.8199H14.3652C14.2682 10.8201 14.1754 10.8589 14.1069 10.9275C14.0384 10.9962 14 11.0891 14 11.1861C14 11.283 14.0384 11.376 14.1069 11.4447C14.1754 11.5133 14.2682 11.552 14.3652 11.5523H18.1661C18.2631 11.552 18.356 11.5133 18.4244 11.4447C18.4929 11.376 18.5313 11.283 18.5313 11.1861C18.5313 11.0891 18.4929 10.9962 18.4244 10.9275C18.356 10.8589 18.2631 10.8201 18.1661 10.8199ZM14.7275 19.3041H17.8038V11.9918H14.7275V19.3041Z" fill="#8C5DEF"/>
<g id="Group 289307">
<circle id="Ellipse 40" cx="24" cy="8" r="6" fill="white"/>
<g id="Group">
<path id="Vector_2" d="M26.8416 9.81673C26.4801 9.90511 26.1105 9.94528 25.7168 9.92117C23.4994 9.81673 21.7801 7.93673 21.8765 5.71127C21.9006 5.20511 22.0211 4.71503 22.2139 4.27315C22.2943 4.0964 22.0854 3.92768 21.9247 4.03212C20.824 4.70699 20.0688 5.89605 20.0045 7.28596C19.9001 9.51143 21.6194 11.3914 23.8368 11.4959C25.1062 11.5521 26.2551 11.0299 27.0344 10.1542C27.163 10.0015 27.0344 9.77656 26.8416 9.81673Z" fill="#8C5DEF"/>
<path id="Vector_3" d="M23.1703 6.0557C23.2185 6.09587 23.2346 6.16014 23.2266 6.21638L23.1221 6.6663C23.09 6.81091 23.2426 6.92339 23.3712 6.84305L23.7729 6.60202C23.8291 6.56989 23.8934 6.56989 23.9416 6.60202L24.3433 6.84305C24.4719 6.92339 24.6245 6.80288 24.5924 6.6663L24.4879 6.21638C24.4719 6.15211 24.496 6.09587 24.5442 6.0557L24.8977 5.7504C25.0102 5.65399 24.9539 5.4692 24.8013 5.46117L24.3192 5.421C24.2549 5.41296 24.2067 5.38083 24.1826 5.31655L24.0059 4.88271C23.9496 4.74613 23.7568 4.74613 23.7006 4.88271L23.5238 5.31655C23.4997 5.37279 23.4435 5.41296 23.3873 5.421L22.9213 5.46117C22.7767 5.4692 22.7124 5.65399 22.8249 5.7504L23.1703 6.0557Z" fill="#8C5DEF"/>
<path id="Vector_4" d="M24.5921 7.84024L24.9456 8.14554C24.9938 8.18571 25.0099 8.24999 25.0018 8.30623L24.8974 8.75614C24.8652 8.90076 25.0179 9.01323 25.1464 8.93289L25.5482 8.69187C25.6044 8.65973 25.6687 8.65973 25.7169 8.69187L26.1186 8.93289C26.2471 9.01323 26.3998 8.89272 26.3676 8.75614L26.2632 8.30623C26.2471 8.24195 26.2712 8.18571 26.3194 8.14554L26.6729 7.84024C26.7854 7.74383 26.7211 7.55905 26.5765 7.55101L26.0945 7.51084C26.0302 7.50281 25.982 7.46264 25.9579 7.4064L25.7811 6.97255C25.7249 6.83597 25.5321 6.83597 25.4758 6.97255L25.2991 7.4064C25.275 7.46264 25.2187 7.50281 25.1625 7.51084L24.6965 7.55101C24.5358 7.55905 24.4796 7.74383 24.5921 7.84024Z" fill="#8C5DEF"/>
<path id="Vector_5" d="M27.573 5.14005C27.6855 5.04364 27.6293 4.85885 27.4766 4.85082L27.0106 4.81065C26.9463 4.80261 26.8981 4.77048 26.874 4.7062L26.6973 4.27236C26.6411 4.13578 26.4482 4.13578 26.392 4.27236L26.2152 4.7062C26.1911 4.76244 26.1349 4.80261 26.0787 4.81065L25.6127 4.85082C25.4681 4.85885 25.4038 5.04364 25.5163 5.14005L25.8698 5.44535C25.918 5.48552 25.934 5.54979 25.926 5.60603L25.8216 6.05595C25.7894 6.20056 25.9421 6.31304 26.0706 6.2327L26.4723 5.99167C26.5286 5.95953 26.5928 5.95953 26.6491 5.99167L27.0508 6.2327C27.1793 6.31304 27.332 6.19253 27.2999 6.05595L27.1954 5.60603C27.1793 5.54176 27.2034 5.48552 27.2516 5.44535L27.573 5.14005Z" fill="#8C5DEF"/>
</g>
</g>
</g>
</svg>
