<svg width="32" height="32" viewBox="0 0 32 32" fill="none" xmlns="http://www.w3.org/2000/svg">
<g id="Insulin-morning">
<rect id="Rectangle" width="32" height="32" rx="6" fill="#8C5DEF" fill-opacity="0.15"/>
<path id="Vector" d="M15.6065 10.3804V9.1719H16.9249V10.3804H15.6065ZM16.2322 23.97C16.2331 23.9782 16.237 23.9858 16.2432 23.9914C16.2494 23.9969 16.2574 24 16.2657 24C16.274 24 16.282 23.9969 16.2882 23.9914C16.2943 23.9858 16.2983 23.9782 16.2992 23.97L16.6066 21.1518H15.9248L16.2322 23.97ZM15.0938 8.73243H17.4376C17.5347 8.73243 17.6278 8.69385 17.6965 8.62517C17.7652 8.55649 17.8038 8.46334 17.8038 8.36622C17.8038 8.26909 17.7652 8.17594 17.6965 8.10726C17.6278 8.03858 17.5347 8 17.4376 8H15.0938C14.9966 8 14.9035 8.03858 14.8348 8.10726C14.7661 8.17594 14.7276 8.26909 14.7276 8.36622C14.7276 8.46334 14.7661 8.55649 14.8348 8.62517C14.9035 8.69385 14.9966 8.73243 15.0938 8.73243ZM15.7896 20.7123H16.7418L17.553 19.7436H14.9784L15.7896 20.7123ZM18.1661 10.8199H14.3652C14.2682 10.8201 14.1754 10.8589 14.1069 10.9275C14.0384 10.9962 14 11.0891 14 11.1861C14 11.283 14.0384 11.376 14.1069 11.4447C14.1754 11.5133 14.2682 11.552 14.3652 11.5523H18.1661C18.2631 11.552 18.356 11.5133 18.4244 11.4447C18.4929 11.376 18.5313 11.283 18.5313 11.1861C18.5313 11.0891 18.4929 10.9962 18.4244 10.9275C18.356 10.8589 18.2631 10.8201 18.1661 10.8199ZM14.7275 19.3041H17.8038V11.9918H14.7275V19.3041Z" fill="#8C5DEF"/>
<g id="Group 289307">
<circle id="Ellipse 40" cx="24" cy="8" r="6" fill="white"/>
<g id="Group 289312">
<path id="Vector_2" d="M24.0001 5.42871C23.4916 5.42871 22.9944 5.57952 22.5715 5.86207C22.1487 6.14463 21.8191 6.54623 21.6245 7.0161C21.4298 7.48596 21.3789 8.00299 21.4781 8.5018C21.5773 9.00061 21.8222 9.45879 22.1819 9.81841C22.5415 10.178 22.9997 10.4229 23.4985 10.5222C23.9973 10.6214 24.5143 10.5705 24.9842 10.3758C25.4541 10.1812 25.8557 9.85162 26.1382 9.42875C26.4208 9.00588 26.5716 8.50872 26.5716 8.00014C26.5716 7.31815 26.3007 6.6641 25.8184 6.18186C25.3362 5.69963 24.6821 5.42871 24.0001 5.42871ZM24.0001 9.71443C23.5455 9.71443 23.1094 9.53381 22.788 9.21232C22.4665 8.89083 22.2859 8.4548 22.2859 8.00014H22.8573C22.8573 8.30324 22.9777 8.59393 23.192 8.80826C23.4063 9.02259 23.697 9.143 24.0001 9.143V9.71443Z" fill="#8C5DEF"/>
<path id="Vector_3" d="M24.2863 4H23.7148V5.14286H24.2863V4Z" fill="#8C5DEF"/>
<path id="Vector_4" d="M27.9993 7.71484H26.8564V8.28627H27.9993V7.71484Z" fill="#8C5DEF"/>
<path id="Vector_5" d="M24.2863 10.8564H23.7148V11.9993H24.2863V10.8564Z" fill="#8C5DEF"/>
<path id="Vector_6" d="M21.1429 7.71484H20V8.28627H21.1429V7.71484Z" fill="#8C5DEF"/>
<path id="Vector_7" d="M21.3728 4.96801L20.9688 5.37207L21.7769 6.18019L22.1809 5.77613L21.3728 4.96801Z" fill="#8C5DEF"/>
<path id="Vector_8" d="M26.6265 4.96629L25.8184 5.77441L26.2224 6.17848L27.0305 5.37035L26.6265 4.96629Z" fill="#8C5DEF"/>
<path id="Vector_9" d="M26.2254 9.81957L25.8213 10.2236L26.6294 11.0318L27.0335 10.6277L26.2254 9.81957Z" fill="#8C5DEF"/>
<path id="Vector_10" d="M21.7788 9.82078L20.9707 10.6289L21.3748 11.033L22.1829 10.2248L21.7788 9.82078Z" fill="#8C5DEF"/>
</g>
</g>
</g>
</svg>
