<svg width="32" height="32" viewBox="0 0 32 32" fill="none" xmlns="http://www.w3.org/2000/svg">
<g id="Insulin-afternoon">
<rect id="Rectangle" width="32" height="32" rx="6" fill="#8C5DEF" fill-opacity="0.15"/>
<path id="Vector" d="M15.6065 10.3804V9.1719H16.9249V10.3804H15.6065ZM16.2322 23.97C16.2331 23.9782 16.237 23.9858 16.2432 23.9914C16.2494 23.9969 16.2574 24 16.2657 24C16.274 24 16.282 23.9969 16.2882 23.9914C16.2943 23.9858 16.2983 23.9782 16.2992 23.97L16.6066 21.1518H15.9248L16.2322 23.97ZM15.0938 8.73243H17.4376C17.5347 8.73243 17.6278 8.69385 17.6965 8.62517C17.7652 8.55649 17.8038 8.46334 17.8038 8.36622C17.8038 8.26909 17.7652 8.17594 17.6965 8.10726C17.6278 8.03858 17.5347 8 17.4376 8H15.0938C14.9966 8 14.9035 8.03858 14.8348 8.10726C14.7661 8.17594 14.7276 8.26909 14.7276 8.36622C14.7276 8.46334 14.7661 8.55649 14.8348 8.62517C14.9035 8.69385 14.9966 8.73243 15.0938 8.73243ZM15.7896 20.7123H16.7418L17.553 19.7436H14.9784L15.7896 20.7123ZM18.1661 10.8199H14.3652C14.2682 10.8201 14.1754 10.8589 14.1069 10.9275C14.0384 10.9962 14 11.0891 14 11.1861C14 11.283 14.0384 11.376 14.1069 11.4447C14.1754 11.5133 14.2682 11.552 14.3652 11.5523H18.1661C18.2631 11.552 18.356 11.5133 18.4244 11.4447C18.4929 11.376 18.5313 11.283 18.5313 11.1861C18.5313 11.0891 18.4929 10.9962 18.4244 10.9275C18.356 10.8589 18.2631 10.8201 18.1661 10.8199ZM14.7275 19.3041H17.8038V11.9918H14.7275V19.3041Z" fill="#8C5DEF"/>
<g id="Group 289307">
<circle id="Ellipse 40" cx="24" cy="8" r="6" fill="white"/>
<g id="Group 289311">
<path id="Vector_2" d="M28.6198 9.64896H27.3918C27.2894 7.72499 25.6315 6.25132 23.7076 6.35366C21.9474 6.45599 20.5146 7.86827 20.4327 9.64896H19.2047C19.0819 9.64896 19 9.73083 19 9.85364C19 9.97644 19.0819 10.0583 19.2047 10.0583H28.6198C28.7426 10.0583 28.8245 9.97644 28.8245 9.85364C28.8245 9.73083 28.7426 9.64896 28.6198 9.64896ZM23.1549 7.60219C22.5819 7.80686 22.1111 8.23669 21.8655 8.78931C21.8245 8.87119 21.7631 8.91212 21.6813 8.91212C21.6608 8.91212 21.6199 8.91212 21.5994 8.89165C21.4971 8.85072 21.4561 8.72791 21.4971 8.62557C21.8041 7.97061 22.3567 7.45891 23.0321 7.23377C23.1345 7.19283 23.2573 7.25424 23.2982 7.35657C23.3187 7.45891 23.2573 7.56125 23.1549 7.60219Z" fill="#8C5DEF"/>
<path id="Vector_3" d="M23.9127 5.82163C23.7899 5.82163 23.708 5.73976 23.708 5.61695V4.20468C23.708 4.08187 23.7899 4 23.9127 4C24.0355 4 24.1174 4.08187 24.1174 4.20468V5.61695C24.1174 5.73976 24.0355 5.82163 23.9127 5.82163Z" fill="#8C5DEF"/>
<path id="Vector_4" d="M25.7955 6.29223C25.6727 6.29223 25.5908 6.21036 25.5908 6.08756C25.5908 6.04662 25.5908 6.00569 25.6113 5.98522L26.3277 4.79809C26.3891 4.69575 26.5119 4.67528 26.6142 4.73669C26.7165 4.79809 26.737 4.9209 26.6756 5.02324L25.9592 6.1899C25.9388 6.2513 25.8774 6.29223 25.7955 6.29223Z" fill="#8C5DEF"/>
<path id="Vector_5" d="M22.0288 6.29214C21.9469 6.29214 21.8855 6.25121 21.8446 6.1898L21.1487 5.02314C21.0873 4.92081 21.1282 4.798 21.2101 4.7366C21.3124 4.67519 21.4353 4.71613 21.4967 4.798L22.213 5.98513C22.2744 6.08747 22.2335 6.21027 22.1516 6.27167C22.1107 6.29214 22.0698 6.29214 22.0288 6.29214Z" fill="#8C5DEF"/>
<path id="Vector_6" d="M27.2076 7.47924C27.0848 7.47924 27.0029 7.39737 27.0029 7.27456C27.0029 7.21316 27.0234 7.15176 27.0848 7.11082L28.2719 6.16931C28.3538 6.08744 28.4971 6.1079 28.5585 6.18977C28.6403 6.27165 28.6199 6.41492 28.538 6.47632L27.3509 7.41784C27.2895 7.45877 27.2485 7.47924 27.2076 7.47924Z" fill="#8C5DEF"/>
<path id="Vector_7" d="M20.6169 7.47943C20.576 7.47943 20.535 7.45896 20.4941 7.43849L19.307 6.49698C19.2251 6.4151 19.2046 6.2923 19.2865 6.21043C19.3479 6.12856 19.4912 6.10809 19.573 6.16949L20.7397 7.11101C20.8216 7.17241 20.842 7.31568 20.7806 7.39755C20.7397 7.43849 20.6783 7.47943 20.6169 7.47943Z" fill="#8C5DEF"/>
<path id="Vector_8" d="M28.149 11.0002H19.6754C19.5526 11.0002 19.4707 10.9183 19.4707 10.7955C19.4707 10.6727 19.5526 10.5908 19.6754 10.5908H28.149C28.2718 10.5908 28.3537 10.6727 28.3537 10.7955C28.3537 10.9183 28.2718 11.0002 28.149 11.0002Z" fill="#8C5DEF"/>
</g>
</g>
</g>
</svg>
