<svg width="32" height="32" viewBox="0 0 32 32" fill="none" xmlns="http://www.w3.org/2000/svg">
<g id="Insulin-evening">
<rect id="Rectangle" width="32" height="32" rx="6" fill="#8C5DEF" fill-opacity="0.15"/>
<path id="Vector" d="M15.6065 10.3804V9.1719H16.9249V10.3804H15.6065ZM16.2322 23.97C16.2331 23.9782 16.237 23.9858 16.2432 23.9914C16.2494 23.9969 16.2574 24 16.2657 24C16.274 24 16.282 23.9969 16.2882 23.9914C16.2943 23.9858 16.2983 23.9782 16.2992 23.97L16.6066 21.1518H15.9248L16.2322 23.97ZM15.0938 8.73243H17.4376C17.5347 8.73243 17.6278 8.69385 17.6965 8.62517C17.7652 8.55649 17.8038 8.46334 17.8038 8.36622C17.8038 8.26909 17.7652 8.17594 17.6965 8.10726C17.6278 8.03858 17.5347 8 17.4376 8H15.0938C14.9966 8 14.9035 8.03858 14.8348 8.10726C14.7661 8.17594 14.7276 8.26909 14.7276 8.36622C14.7276 8.46334 14.7661 8.55649 14.8348 8.62517C14.9035 8.69385 14.9966 8.73243 15.0938 8.73243ZM15.7896 20.7123H16.7418L17.553 19.7436H14.9784L15.7896 20.7123ZM18.1661 10.8199H14.3652C14.2682 10.8201 14.1754 10.8589 14.1069 10.9275C14.0384 10.9962 14 11.0891 14 11.1861C14 11.283 14.0384 11.376 14.1069 11.4447C14.1754 11.5133 14.2682 11.552 14.3652 11.5523H18.1661C18.2631 11.552 18.356 11.5133 18.4244 11.4447C18.4929 11.376 18.5313 11.283 18.5313 11.1861C18.5313 11.0891 18.4929 10.9962 18.4244 10.9275C18.356 10.8589 18.2631 10.8201 18.1661 10.8199ZM14.7275 19.3041H17.8038V11.9918H14.7275V19.3041Z" fill="#8C5DEF"/>
<g id="Group 289307">
<circle id="Ellipse 40" cx="24" cy="8" r="6" fill="white"/>
<g id="Group 289313">
<path id="Vector_2" fill-rule="evenodd" clip-rule="evenodd" d="M23.3035 11.5706C21.8665 11.4794 20.6337 10.6312 20 9.42079C20.5561 9.71192 21.1887 9.8767 21.8594 9.8767C24.0766 9.8767 25.8767 8.07661 25.8767 5.85931C25.8767 5.18861 25.712 4.55609 25.4208 4C26.7031 4.67131 27.5788 6.01487 27.5788 7.5614C27.5788 8.63053 27.1602 9.6027 26.478 10.3231C26.3415 10.2553 26.1877 10.2172 26.0251 10.2172C26.0075 10.2172 25.99 10.2177 25.9727 10.2185C25.739 9.89966 25.3617 9.69244 24.9363 9.69244C24.3416 9.69244 23.8409 10.0977 23.695 10.6466C23.4484 10.8011 23.2842 11.0752 23.2842 11.3875C23.2842 11.4503 23.2909 11.5116 23.3035 11.5706Z" fill="#8C5DEF"/>
<path id="Vector_3" fill-rule="evenodd" clip-rule="evenodd" d="M23.9247 10.8206C23.9998 10.3296 24.4243 9.95312 24.9361 9.95312C25.329 9.95312 25.6704 10.175 25.842 10.5001C25.9006 10.4856 25.9618 10.4779 26.0249 10.4779C26.3703 10.4779 26.6623 10.7086 26.7551 11.0242C26.7653 11.0236 26.7755 11.0232 26.7859 11.0232C27.0554 11.0232 27.2741 11.242 27.2741 11.5116C27.2741 11.781 27.0554 11.9998 26.7859 11.9998H24.1575C23.8194 11.9998 23.5449 11.7253 23.5449 11.3873C23.5449 11.1316 23.7019 10.9123 23.9247 10.8206Z" fill="#8C5DEF"/>
</g>
</g>
</g>
</svg>
