<svg width="32" height="32" viewBox="0 0 32 32" fill="none" xmlns="http://www.w3.org/2000/svg">
<g id="JumpRope">
<rect id="Rectangle" width="32" height="32" rx="6" fill="#CF6FFC" fill-opacity="0.15"/>
<g id="Group">
<path id="Vector" d="M16.3326 11.3331C17.2525 11.3331 17.9991 10.5864 17.9991 9.66655C17.9991 8.74995 17.2525 8 16.3326 8C15.416 8 14.666 8.74995 14.666 9.66655C14.666 10.5864 15.416 11.3331 16.3326 11.3331Z" fill="#CF6FFC"/>
<path id="Vector_2" d="M21.6606 15.0009C21.6603 14.6486 21.4791 14.3073 21.1519 14.1265L18.0421 12.1766C17.8588 12.0633 17.6488 12 17.4322 12H15.2323C15.019 12 14.8057 12.0633 14.6257 12.1766L11.5259 14.1198C11.1909 14.3011 11.0059 14.6454 11.005 15.0009H11V18.6673C11 21.6079 13.3924 24.0003 16.333 24.0003C19.2735 24.0003 21.6659 21.6079 21.6659 18.6673V15.0009H21.6606ZM20.9993 18.6673C20.9993 21.2404 18.906 23.3337 16.333 23.3337C13.7599 23.3337 11.6666 21.2404 11.6666 18.6673V15.9384C11.9245 16.0294 12.2178 16.0186 12.4792 15.8764L14.6657 14.6364V21.6326C14.6657 22.1359 15.0257 22.5759 15.5023 22.6526C15.5556 22.6625 15.609 22.6659 15.6656 22.6659C15.7801 22.6659 15.8928 22.6456 15.9996 22.6081V18.5231H16.6663V22.6035C16.8243 22.6591 16.9946 22.6797 17.1655 22.6526C17.6422 22.5759 17.9988 22.1359 17.9988 21.6326V14.6364L20.192 15.883C20.4286 16.0096 20.6986 16.0363 20.9519 15.9597C20.9685 15.9547 20.9831 15.946 20.9993 15.9403V18.6673Z" fill="#CF6FFC"/>
</g>
</g>
</svg>
