<svg width="32" height="32" viewBox="0 0 32 32" fill="none" xmlns="http://www.w3.org/2000/svg">
<g id="Kickboxing">
<rect id="Rectangle" width="32" height="32" rx="6" fill="#44C9A9" fill-opacity="0.15"/>
<g id="Group 289324">
<path id="Vector" d="M17.1524 9.79934C17.1524 10.7931 16.3468 11.5987 15.3531 11.5987C14.3593 11.5987 13.5537 10.7931 13.5537 9.79934C13.5537 8.80559 14.3593 8 15.3531 8C16.3468 8 17.1524 8.80559 17.1524 9.79934Z" fill="#44C9A9"/>
<path id="Vector_2" d="M21.2975 14.2468C22.0428 14.2468 22.647 13.6427 22.647 12.8973C22.647 12.152 22.0428 11.5479 21.2975 11.5479C20.8965 11.5479 20.5365 11.7227 20.2893 12.0003H15.3887C15.7069 12.281 15.9375 12.6354 16.0694 13.022L16.0736 13.0203C16.1211 12.96 16.1726 12.902 16.2282 12.8464C16.9894 12.0851 18.2237 12.0851 18.9849 12.8464C19.2567 13.1182 19.4314 13.4503 19.5092 13.7996H20.2939C20.541 14.0742 20.899 14.2468 21.2975 14.2468Z" fill="#44C9A9"/>
<path id="Vector_3" d="M18.5606 13.2711C18.7145 13.425 18.8234 13.6069 18.8875 13.8003C19.0426 14.2693 18.9336 14.8065 18.5606 15.1796C18.278 15.4623 17.9012 15.5933 17.5312 15.5728L16.0931 17.0109C15.7417 17.3623 15.1721 17.3623 14.8207 17.0109C14.7116 16.9018 14.6324 16.7664 14.5906 16.6178L14.479 16.2197L13.9885 17.0692L15.8761 18.6518C16.148 18.8797 16.305 19.2162 16.305 19.571V23.1C16.305 23.5969 15.9022 23.9997 15.4054 23.9997C14.9085 23.9997 14.5056 23.597 14.5056 23.1L14.5053 19.8507L12.5988 18.2523V19.7416C12.5988 20.0575 12.5157 20.3678 12.3578 20.6413L10.679 23.5491C10.4305 23.9794 9.88029 24.1268 9.44999 23.8784C9.04499 23.6446 8.89057 23.1434 9.08093 22.7265L9.12068 22.6494L10.7993 19.7415L10.7995 15.9251C10.7986 15.8923 10.7986 15.8595 10.7995 15.8266C10.7997 15.802 10.8009 15.7776 10.803 15.7536C10.8212 15.4887 10.8985 15.2238 11.0402 14.9785L12.2408 12.899C12.7377 12.0384 13.8381 11.7435 14.6987 12.2404C15.1004 12.4723 15.3789 12.8357 15.5111 13.2448L15.5131 13.2442L15.9076 14.6512L16.2589 14.3001C16.2385 13.9303 16.3695 13.5537 16.6521 13.2711C16.8003 13.1229 16.9743 13.0164 17.1597 12.9516C17.3864 12.8723 17.6301 12.8553 17.864 12.9006C18.1193 12.95 18.3629 13.0735 18.5606 13.2711Z" fill="#44C9A9"/>
</g>
</g>
</svg>
