<?xml version="1.0" encoding="UTF-8"?>
<svg version="1.1" xmlns="http://www.w3.org/2000/svg" width="119" height="129">
<path d="M0 0 C39.27 0 78.54 0 119 0 C119 42.57 119 85.14 119 129 C79.73 129 40.46 129 0 129 C0 86.43 0 43.86 0 0 Z " fill="#F09E55" transform="translate(0,0)"/>
<path d="M0 0 C0.93972656 -0.00128906 1.87945312 -0.00257812 2.84765625 -0.00390625 C3.83636719 -0.00003906 4.82507813 0.00382812 5.84375 0.0078125 C7.32681641 0.00201172 7.32681641 0.00201172 8.83984375 -0.00390625 C9.77957031 -0.00261719 10.71929687 -0.00132813 11.6875 0 C12.55568359 0.00112793 13.42386719 0.00225586 14.31835938 0.00341797 C16.34375 0.1328125 16.34375 0.1328125 17.34375 1.1328125 C17.38467937 3.46578683 17.38616723 5.79986475 17.34375 8.1328125 C15.69375 8.1328125 14.04375 8.1328125 12.34375 8.1328125 C10.81057572 25.04153459 18.98015221 34.67092291 29.13916016 47.37866211 C29.68749512 48.08128174 30.23583008 48.78390137 30.80078125 49.5078125 C31.29167236 50.12527344 31.78256348 50.74273437 32.28833008 51.37890625 C33.34375 53.1328125 33.34375 53.1328125 33.34375 56.5703125 C32.34375 59.1328125 32.34375 59.1328125 30.34375 60.1328125 C28.78174949 60.23287545 27.21557754 60.27113881 25.65039062 60.27807617 C24.67598022 60.28445602 23.70156982 60.29083588 22.69763184 60.29740906 C21.64241333 60.29852188 20.58719482 60.2996347 19.5 60.30078125 C18.41996704 60.30410965 17.33993408 60.30743805 16.22717285 60.31086731 C13.94067817 60.31593625 11.65417608 60.31827565 9.36767578 60.31811523 C5.85827545 60.32030344 2.34918848 60.33846442 -1.16015625 60.35742188 C-3.37760309 60.36035538 -5.59505142 60.36234046 -7.8125 60.36328125 C-8.86771851 60.37046677 -9.92293701 60.37765228 -11.01013184 60.38505554 C-11.98454224 60.38197891 -12.95895264 60.37890228 -13.96289062 60.37573242 C-14.82289673 60.37715744 -15.68290283 60.37858246 -16.56896973 60.38005066 C-18.65625 60.1328125 -18.65625 60.1328125 -20.65625 58.1328125 C-20.99920607 50.0733449 -15.07660157 44.44315351 -10.31640625 38.44433594 C-2.4819376 28.46260145 -0.1279984 20.82638759 -0.65625 8.1328125 C-2.30625 8.1328125 -3.95625 8.1328125 -5.65625 8.1328125 C-5.69866723 5.79986475 -5.69717937 3.46578683 -5.65625 1.1328125 C-4.03424485 -0.48919265 -2.23601969 0.002905 0 0 Z " fill="#FEFEFD" transform="translate(60.65625,31.8671875)"/>
<path d="M0 0 C11.55 0 23.1 0 35 0 C35 42.57 35 85.14 35 129 C-4.27 129 -43.54 129 -84 129 C-84 117.45 -84 105.9 -84 94 C-83.67 94 -83.34 94 -83 94 C-82.85304688 94.76183594 -82.70609375 95.52367188 -82.5546875 96.30859375 C-80.60384109 105.28921428 -77.91098475 112.76225707 -69.9375 117.9375 C-60.44652346 123.1683223 -51.54864593 123.17331374 -40.90234375 123.23828125 C-39.63588516 123.246353 -38.36942657 123.25442474 -37.06459045 123.26274109 C-34.38750594 123.27654309 -31.71054283 123.28756965 -29.03344727 123.29516602 C-25.64369439 123.3061763 -22.25460768 123.34053942 -18.86508846 123.38033772 C-15.58590844 123.41315456 -12.30666285 123.41731191 -9.02734375 123.42578125 C-7.83100815 123.44328934 -6.63467255 123.46079742 -5.40208435 123.47883606 C4.70802453 123.45328449 15.46594581 122.20946375 23.625 115.75 C33.38584027 105.92659024 33.30665508 92.72561091 33.265625 79.6640625 C33.26697658 78.29462617 33.26892119 76.92519032 33.27142334 75.55575562 C33.27435345 72.69988389 33.27014705 69.84413819 33.26074219 66.98828125 C33.24937066 63.36208316 33.25590596 59.73618203 33.26788712 56.10999489 C33.27518193 53.28551069 33.27278286 50.46109459 33.26763153 47.63660812 C33.26568315 45.66053826 33.27166613 43.68446555 33.27789307 41.70840454 C33.21722287 29.88944408 32.97427511 19.30002308 25 10 C19.60067927 4.87064531 13.95891815 2.71194279 6.625 1.8125 C4.75714844 1.57466797 4.75714844 1.57466797 2.8515625 1.33203125 C1.91054687 1.22246094 0.96953125 1.11289062 0 1 C0 0.67 0 0.34 0 0 Z " fill="#FEFDFC" transform="translate(84,0)"/>
<path d="M0 0 C4.95 0 9.9 0 15 0 C15 1.65 15 3.3 15 5 C14.01 5 13.02 5 12 5 C12.144375 5.67546875 12.28875 6.3509375 12.4375 7.046875 C12.623125 7.93890625 12.80875 8.8309375 13 9.75 C13.185625 10.63171875 13.37125 11.5134375 13.5625 12.421875 C14.56490668 18.32891439 13.23389099 20.72989336 9.98510742 25.39868164 C2.51388822 35.52325067 2.51388822 35.52325067 -2.53515625 37.11328125 C-5.53260119 37.06683693 -8.11449205 36.79546436 -11 36 C-11.68310547 34.26660156 -11.68310547 34.26660156 -12 32 C-10.84423828 29.92871094 -10.84423828 29.92871094 -9.0703125 27.734375 C-8.12478516 26.52201172 -8.12478516 26.52201172 -7.16015625 25.28515625 C-5.81407279 23.60836515 -4.4651564 21.93384394 -3.11328125 20.26171875 C0.93462503 15.05962331 2.89274564 11.64977007 3 5 C2.01 5 1.02 5 0 5 C0 3.35 0 1.7 0 0 Z " fill="#FEFBF8" transform="translate(34,46)"/>
<path d="M0 0 C11.55 0 23.1 0 35 0 C35 26.4 35 52.8 35 80 C34.67 80 34.34 80 34 80 C33.99191315 79.41277161 33.98382629 78.82554321 33.97549438 78.22052002 C33.88878709 72.05485013 33.78926308 65.88947762 33.68261719 59.72412109 C33.64456289 57.42957594 33.60967101 55.13497589 33.578125 52.84033203 C33.5319586 49.52356473 33.47405414 46.20716774 33.4140625 42.890625 C33.40251129 41.88074524 33.39096008 40.87086548 33.37905884 39.8303833 C33.1528305 28.67123745 32.50038449 18.74734668 25 10 C19.60067927 4.87064531 13.95891815 2.71194279 6.625 1.8125 C5.37976563 1.65394531 4.13453125 1.49539062 2.8515625 1.33203125 C1.91054687 1.22246094 0.96953125 1.11289062 0 1 C0 0.67 0 0.34 0 0 Z " fill="#FDF7F2" transform="translate(84,0)"/>
<path d="M0 0 C9.9 0 19.8 0 30 0 C30 0.33 30 0.66 30 1 C29.23816406 1.14695313 28.47632812 1.29390625 27.69140625 1.4453125 C18.90669666 3.35360148 11.40717339 6.03853675 6.125 13.6875 C3.44341825 18.46609723 2.20097508 23.6883704 1 29 C0.67 29 0.34 29 0 29 C0 19.43 0 9.86 0 0 Z " fill="#FEFDFD" transform="translate(0,0)"/>
</svg>
