<svg width="32" height="32" viewBox="0 0 32 32" fill="none" xmlns="http://www.w3.org/2000/svg">
<g id="MartialArts">
<rect id="Rectangle" width="32" height="32" rx="6" fill="#F6AF44" fill-opacity="0.15"/>
<g id="Group 289321">
<path id="Vector" d="M19.4937 9.63648C19.4937 8.73396 18.7597 8 17.8572 8C16.9547 8 16.2207 8.73396 16.2207 9.63648C16.2207 10.539 16.9547 11.273 17.8572 11.273C18.7597 11.273 19.4937 10.539 19.4937 9.63648Z" fill="#F7AF44"/>
<path id="Vector_2" d="M10 12.9098C10 13.361 10.367 13.728 10.8182 13.728H14.9929C15.2187 13.728 15.402 13.9113 15.402 14.1371V15.1481L17.4308 12.5567L16.2583 11.376L13.8118 12.0752C13.7754 12.0854 13.7373 12.0911 13.6993 12.0911H10.8182C10.367 12.0911 10 12.4585 10 12.9098Z" fill="#F7AF44"/>
<path id="Vector_3" d="M15.4018 16.4743V18.2274C15.4018 18.2884 15.3879 18.3493 15.3613 18.4046L13.3144 22.6664C13.1925 22.9204 13.2089 23.2031 13.3586 23.4416C13.5088 23.6797 13.7559 23.8164 14.0374 23.8164H14.2427C14.5492 23.8164 14.8237 23.6462 14.9603 23.3717L17.3426 18.5932C17.404 18.4692 17.5247 18.3849 17.6626 18.369C17.6777 18.3673 17.6933 18.3665 17.7084 18.3665C17.8299 18.3665 17.9461 18.4209 18.0242 18.5158L19.0184 19.7252C19.5584 20.3826 19.8559 21.2128 19.8559 22.0629V23.1978C19.8559 23.6401 20.2155 23.9997 20.6577 23.9997C21.1 23.9997 21.46 23.6401 21.46 23.1978V21.655C21.46 21.1166 21.3091 20.5905 21.0231 20.1343L19.9639 18.4442C19.923 18.3792 19.9017 18.3035 19.9017 18.227V16.6842H18.9255C18.1101 16.6842 17.447 16.021 17.447 15.2052C17.447 14.3894 18.1101 13.7263 18.9255 13.7263H20.3108C20.537 13.7263 20.7199 13.9096 20.7199 14.1354C20.7199 14.3612 20.537 14.5445 20.3108 14.5445H18.9255C18.5614 14.5445 18.2652 14.8411 18.2652 15.2052C18.2652 15.5694 18.5618 15.866 18.9255 15.866H20.1922C20.2306 15.8476 20.2723 15.8345 20.3169 15.8287L21.6617 15.6516C22.0565 15.5992 22.3544 15.2596 22.3548 14.8616L22.3564 13.1171C22.3564 12.8107 22.1776 12.5275 21.901 12.3962L19.6644 11.335L18.2848 12.7902L15.401 16.4735L15.4018 16.4743Z" fill="#F7AF44"/>
</g>
</g>
</svg>
