<?xml version="1.0" encoding="UTF-8"?>
<svg width="18px" height="20px" viewBox="0 0 18 20" version="1.1" xmlns="http://www.w3.org/2000/svg" xmlns:xlink="http://www.w3.org/1999/xlink">
    <title>Master-data-icon</title>
    <g id="Welcome" stroke="none" stroke-width="1" fill="none" fill-rule="evenodd">
        <g id="Cards-&amp;-Badges" transform="translate(-689.000000, -4348.000000)" fill="#b0b0b0" fill-rule="nonzero">
            <g id="Master-data-icon" transform="translate(689.000000, 4348.000000)">
                <path d="M16.2753333,0.292333333 L1.058,0.292333333 C0.478333333,0.292333333 0.00833333333,0.762333333 0.00833333333,1.34133333 L0.00833333333,5.36466667 C0.00833333333,5.94366667 0.478333333,6.41366667 1.058,6.41366667 L16.2753333,6.41366667 C16.855,6.41366667 17.3250002,5.94366667 17.3250002,5.36466667 L17.3250002,1.34133333 C17.3253333,0.762333333 16.855,0.292333333 16.2753333,0.292333333 Z M3.594,4.70866667 L1.32,4.70866667 L1.32,1.99766667 L3.594,1.99766667 L3.594,4.70866667 L3.594,4.70866667 Z" id="Shape"></path>
                <path d="M16.2753333,6.93866667 L1.058,6.93866667 C0.478333333,6.93866667 0.00833333333,7.40833333 0.00833333333,7.98833333 L0.00833333333,12.011 C0.00833333333,12.5906667 0.478333333,13.0603333 1.058,13.0603333 L16.2753333,13.0603333 C16.855,13.0603333 17.3250002,12.5906667 17.3250002,12.011 L17.3250002,7.98866667 C17.3253333,7.40866667 16.855,6.93866667 16.2753333,6.93866667 Z M3.594,11.3553333 L1.32,11.3553333 L1.32,8.644 L3.594,8.644 L3.594,11.3553333 L3.594,11.3553333 Z" id="Shape"></path>
                <path d="M16.2753333,13.5856667 L1.058,13.5856667 C0.478333333,13.5856667 0.00833333333,14.0556667 0.00833333333,14.635 L0.00833333333,18.658 C0.00833333333,19.2373333 0.478333333,19.7073333 1.058,19.7073333 L16.2753333,19.7073333 C16.855,19.7073333 17.3250002,19.2373333 17.3250002,18.658 L17.3250002,14.635 C17.3253333,14.0556667 16.855,13.5856667 16.2753333,13.5856667 Z M3.594,18.0023333 L1.32,18.0023333 L1.32,15.291 L3.594,15.291 L3.594,18.0023333 L3.594,18.0023333 Z" id="Shape"></path>
            </g>
        </g>
    </g>
</svg>