<svg width="35" height="40" viewBox="0 0 35 40" fill="none" xmlns="http://www.w3.org/2000/svg">
<path fill-rule="evenodd" clip-rule="evenodd" d="M24.8689 20.1748C23.5705 20.1748 22.372 20.4245 21.2734 20.8739V10.6367C21.2734 4.74407 16.4794 0 10.6367 0C4.79401 0 0 4.79401 0 10.6367V29.3633C0 35.2559 4.79401 40 10.6367 40C13.4831 40 16.0799 38.9014 17.9775 37.0537C19.7753 38.8015 22.1723 39.9001 24.8689 39.9001C30.3121 39.9001 34.7066 35.5056 34.7066 30.0624C34.7066 24.6192 30.3121 20.1748 24.8689 20.1748ZM10.6366 37.4532C6.14224 37.4532 2.4968 33.8078 2.4968 29.3134V19.9751H18.7764V22.3222C16.5293 24.1199 15.0811 26.9164 15.0811 30.0125C15.0811 31.8602 15.5804 33.5581 16.4793 35.0063C14.9812 36.5544 12.8838 37.4532 10.6366 37.4532ZM18.7266 25.9676C17.9775 27.1162 17.5281 28.5144 17.5281 30.0125H32.1598C32.1598 25.9676 28.8639 22.6717 24.819 22.6717C23.5206 22.6717 22.2721 23.0213 21.2235 23.6205C20.2247 24.2198 19.3758 25.0188 18.7266 25.9676Z" fill="#242E49"/>
</svg>
