<?xml version="1.0" encoding="UTF-8"?>
<svg width="40px" height="40px" viewBox="0 0 40 40" version="1.1" xmlns="http://www.w3.org/2000/svg" xmlns:xlink="http://www.w3.org/1999/xlink">
    <title>Reminder-set-icon</title>
    <g id="Design" stroke="none" stroke-width="1" fill="none" fill-rule="evenodd">
        <g id="Medication-list" transform="translate(-641.000000, -563.000000)">
            <g id="Noti-holder-1" transform="translate(40.000000, 522.000000)">
                <g id="Content" transform="translate(28.000000, 41.000000)">
                    <g id="Reminder-set-icon" transform="translate(573.000000, 0.000000)">
                        <rect id="Rectangle" x="0" y="0" width="40" height="40"></rect>
                        <g id="Group-3" transform="translate(5.000000, 2.000000)" fill="#F6861F" fill-rule="nonzero">
                            <path d="M14.2712443,35.2311244 C12.9738584,34.8379771 12.1482493,33.579906 12.1482493,32.2432055 L12.1482493,31.2210227 C12.1482493,31.2210227 12.1482493,31.181708 12.187564,31.181708 L18.3992902,31.181708 L18.3992902,32.2825202 C18.3599754,34.3268858 16.3942393,35.8994747 14.2712443,35.2311244 Z" id="Path"></path>
                            <path d="M28.4638591,30.4740429 L2.04436557,30.4740429 C0.904238619,30.4740429 1.31450406e-13,29.5698043 1.31450406e-13,28.4296774 L1.31450406e-13,28.0758449 C1.31450406e-13,27.5254388 0.196573613,27.0143474 0.589720838,26.6212001 L3.34175142,23.947799 L3.34175142,15.2592453 C3.34175142,9.9910725 6.64418811,5.54850885 11.5978432,3.97591995 C11.6371579,3.97591995 11.6371579,3.93660523 11.6371579,3.89729051 L11.6371579,3.58277273 C11.6371579,2.40333105 12.187564,1.2632041 13.1704321,0.634168535 C15.8438332,-1.09567926 18.7924374,0.988001038 18.7924374,3.58277273 L18.7924374,3.89729051 C23.7854071,5.46987941 27.1271586,9.91244306 27.1271586,15.2199306 L27.1271586,23.947799 L29.8791891,26.6605149 C30.2723364,27.0536621 30.46891,27.5647535 30.46891,28.1151596 L30.46891,28.4689921 C30.5082247,29.5698043 29.6039861,30.4740429 28.4638591,30.4740429 Z" id="Path"></path>
                        </g>
                    </g>
                </g>
            </g>
        </g>
    </g>
</svg>