<svg width="32" height="32" viewBox="0 0 32 32" fill="none" xmlns="http://www.w3.org/2000/svg">
<g id="NappyChangeCountKey">
<rect id="Rectangle" width="32" height="32" rx="6" fill="#4BE0F4" fill-opacity="0.15"/>
<path id="Vector" fill-rule="evenodd" clip-rule="evenodd" d="M16.8945 8.90599H20.2267V9.47005L18.33 11.9999H20.2267V12.8718H16.6554V12.3932L18.6548 9.77769H16.8945V8.90599ZM13.4257 10.5812C13.0042 11.5726 12.7934 12.6155 12.7934 13.7094C12.7934 15.9544 13.5852 17.869 15.1688 19.453C16.7522 21.0371 18.6604 21.829 20.8932 21.829C21.5539 21.829 22.2147 21.7494 22.8753 21.5898C22.1236 22.3534 21.2635 22.9401 20.2951 23.3504C19.2812 23.7835 18.2217 24 17.1168 24C14.8839 24 12.9701 23.2081 11.3751 21.624C9.79167 20.04 9 18.1254 9 15.8803C9 14 9.5809 12.3191 10.7428 10.8376C11.8934 9.39028 13.3575 8.44444 15.1345 8C14.3941 8.75208 13.8245 9.61259 13.4257 10.5812ZM19.5432 13.4188H22.2602V13.8803L20.7053 15.9488H22.2602V16.6668H19.3383V16.2734L20.9786 14.1197H19.5432V13.4188ZM20.1072 19.9146H17.8344V19.6068L19.116 17.9316H17.9882V17.3845H20.1072V17.7437L18.9111 19.3503H20.1072V19.9146Z" fill="#4BE0F4"/>
</g>
</svg>
