<?xml version="1.0" encoding="UTF-8"?>
<svg width="160px" height="160px" viewBox="0 0 160 160" version="1.1" xmlns="http://www.w3.org/2000/svg" xmlns:xlink="http://www.w3.org/1999/xlink">
    <title>D6FFA0A1-28FD-4AC4-90B9-92C7484C2C47</title>
    <g id="Design" stroke="none" stroke-width="1" fill="none" fill-rule="evenodd">
        <g id="No-internet" transform="translate(-295.000000, -625.000000)">
            <g id="Cont" transform="translate(189.000000, 625.000000)">
                <g id="No-internet" transform="translate(106.000000, 0.000000)">
                    <circle id="Oval" fill="#CCE4F6" cx="80" cy="80" r="80"></circle>
                    <g id="Icon" transform="translate(40.000000, 40.000000)">
                        <g id="Wi-fi" transform="translate(0.000000, 22.000000)" fill="#0078D3" fill-rule="nonzero">
                            <path d="M45.8017069,55.5917213 C47.3433533,54.050075 48.1141764,52.1898218 48.1141764,50.0109616 C48.1141764,47.8321015 47.3433533,45.9718483 45.8017069,44.4302019 C44.2600606,42.8885556 42.3998074,42.1177325 40.2209473,42.1177325 C38.0420871,42.1177325 36.1818339,42.8885556 34.6401876,44.4302019 C33.0985413,45.9718483 32.3277181,47.8321015 32.3277181,50.0109616 C32.3277181,52.1898218 33.0985413,54.050075 34.6401876,55.5917213 C36.1818339,57.1333676 38.0420871,57.9041908 40.2209473,57.9041908 C42.3998074,57.9041908 44.2600606,57.1333676 45.8017069,55.5917213 Z" id="Path"></path>
                            <path d="M1.9799158,16.5179422 C1.47799755,17.0826002 1.10155887,17.709998 0.850599743,18.4001356 C0.599640619,19.0902732 0.505530948,19.8117807 0.568270729,20.564658 C0.63101051,21.7567139 1.10155887,22.85466 1.9799158,23.8584965 C2.23087492,24.0467159 3.70525978,25.3015115 6.40307036,27.6228834 C7.46964664,28.5012403 8.69307236,28.9090489 10.0733475,28.8463091 C11.4536227,28.7835693 12.6456786,28.2502812 13.6495151,27.2464447 C17.100203,23.6075374 21.115549,20.7842473 25.695553,18.7765743 C30.3382968,16.8316411 35.2006298,15.8591745 40.2825521,15.8591745 C45.3017346,15.8591745 50.1326977,16.8316411 54.7754415,18.7765743 C59.4181853,20.7842473 63.4649012,23.6075374 66.9155891,27.2464447 C67.8566858,28.2502812 69.0173718,28.7835693 70.3976469,28.8463091 C71.7779221,28.9090489 73.0013479,28.5012403 74.0679241,27.6228834 L78.11464,24.2349352 C78.679298,23.7957567 79.1184765,23.2310987 79.4321754,22.5409611 C79.7458743,21.9135633 79.9340937,21.2234257 79.9968334,20.4705484 C79.9968334,19.7804108 79.8713539,19.0902732 79.6203948,18.4001356 C79.3694356,17.709998 78.9929969,17.0826002 78.4910787,16.5179422 C73.534636,11.3105403 67.7312063,7.26382446 61.0807895,4.37779454 C54.4303727,1.49176461 47.4976269,0.0487496512 40.2825521,0.0487496512 C33.0047375,0.0487496512 26.0406218,1.49176461 19.390205,4.37779454 C12.7397882,7.26382446 6.9363585,11.3105403 1.9799158,16.5179422 Z" id="Path"></path>
                            <path d="M18.543218,37.8808376 L22.5899338,41.2687857 C23.6565101,42.1471427 24.848566,42.5549513 26.1661014,42.4922115 C27.420897,42.4294717 28.550213,41.9589233 29.5540495,41.0805664 C32.565559,38.320016 36.1417265,36.9397409 40.2825521,36.9397409 C44.3606378,36.9397409 47.9054355,38.320016 50.916945,41.0805664 C51.9207815,42.0216631 53.0814674,42.4922115 54.3990028,42.4922115 C55.7165382,42.5549513 56.8772242,42.1471427 57.8810606,41.2687857 L61.9277765,37.8808376 C62.5551743,37.3789193 63.0257227,36.7828914 63.3394216,36.0927538 C63.6531205,35.465356 63.8413398,34.7438485 63.9040796,33.9282314 C63.9040796,33.2380938 63.7472302,32.5165863 63.4335313,31.7637089 C63.1825721,31.0735713 62.7747636,30.4775434 62.2101055,29.9756252 C59.198596,27.0895952 55.779278,24.862333 51.9521513,23.2938385 C48.1877645,21.7880838 44.2978981,21.0352064 40.2825521,21.0352064 C36.2044663,21.0352064 32.3145999,21.7880838 28.6129528,23.2938385 C24.7230864,24.862333 21.2723984,27.0895952 18.260889,29.9756252 C17.6962309,30.4775434 17.2884224,31.0735713 17.0374632,31.7637089 C16.7237643,32.5165863 16.5982848,33.2380938 16.6610245,33.9282314 C16.6610245,34.7438485 16.8492439,35.465356 17.2256826,36.0927538 C17.5393815,36.7828914 17.9785599,37.3789193 18.543218,37.8808376 M30.4010366,28.1875414 C33.5380256,26.9327458 36.8004942,26.305348 40.1884424,26.305348 C43.5136508,26.305348 46.7447495,26.9327458 49.8817386,28.1875414 C53.0814674,29.5050768 55.9361274,31.3559004 58.4457187,33.740012 L54.4931125,37.2220699 C50.4777665,33.457683 45.740913,31.5754896 40.2825521,31.5754896 C34.7614514,31.5754896 29.993228,33.457683 25.977882,37.2220699 L21.8370565,33.740012 C24.3466477,31.3559004 27.2013078,29.5050768 30.4010366,28.1875414 M40.1884424,26.305348 C36.8004942,26.305348 33.5380256,26.9327458 30.4010366,28.1875414 C27.2013078,29.5050768 24.3466477,31.3559004 21.8370565,33.740012 L25.977882,37.2220699 C29.993228,33.457683 34.7614514,31.5754896 40.2825521,31.5754896 C45.740913,31.5754896 50.4777665,33.457683 54.4931125,37.2220699 L58.4457187,33.740012 C55.9361274,31.3559004 53.0814674,29.5050768 49.8817386,28.1875414 C46.7447495,26.9327458 43.5136508,26.305348 40.1884424,26.305348 Z" id="Shape"></path>
                        </g>
                        <g id="Cross" transform="translate(47.000000, 0.000000)">
                            <path d="M34.140625,34.140625 C38.046875,30.234375 40,25.5208333 40,20 C40,14.4791667 38.046875,9.765625 34.140625,5.859375 C30.234375,1.953125 25.5208333,0 20,0 C14.4791667,0 9.765625,1.953125 5.859375,5.859375 C1.953125,9.765625 0,14.4791667 0,20 C0,25.5208333 1.953125,30.234375 5.859375,34.140625 C9.765625,38.046875 14.4791667,40 20,40 C25.5208333,40 30.234375,38.046875 34.140625,34.140625 Z" id="Path" fill="#D32027" fill-rule="nonzero"></path>
                            <g id="Add" transform="translate(20.666667, 20.666667) rotate(45.000000) translate(-20.666667, -20.666667) translate(10.666667, 10.666667)" stroke="#FFFFFF" stroke-linecap="round" stroke-width="3">
                                <line x1="10" y1="19.6875" x2="10" y2="0.3125" id="Path"></line>
                                <line x1="10" y1="20" x2="10" y2="-6.77380374e-12" id="Path" transform="translate(10.000000, 10.000000) rotate(90.000000) translate(-10.000000, -10.000000) "></line>
                            </g>
                        </g>
                    </g>
                </g>
            </g>
        </g>
    </g>
</svg>