<?xml version="1.0" encoding="UTF-8"?>
<svg width="100px" height="100px" viewBox="0 0 100 100" version="1.1" xmlns="http://www.w3.org/2000/svg" xmlns:xlink="http://www.w3.org/1999/xlink">
    <title>Not-implemented</title>
    <g id="Welcome" stroke="none" stroke-width="1" fill="none" fill-rule="evenodd">
        <g id="Dashboard" transform="translate(-1070.000000, -1369.000000)">
            <g id="Cards" transform="translate(320.000000, 229.000000)">
                <g id="Organisation-Card" transform="translate(540.000000, 1027.000000)">
                    <g id="Content" transform="translate(29.000000, 30.000000)">
                        <g id="Empty-state" transform="translate(144.000000, 83.000000)">
                            <g id="Not-implemented" transform="translate(37.000000, 0.000000)">
                                <rect id="Rectangle" x="0" y="0" width="100" height="100"></rect>
                                <g id="Artwork" transform="translate(10.000000, 0.000000)">
                                    <g id="Group" fill-rule="nonzero">
                                        <path d="M73.397088,60.5029126 C75.5097094,55.7475728 76.6990298,50.4873786 76.6980589,44.961165 C76.7000007,36.7194175 74.0873793,29.0563107 69.6495152,22.8058252 C65.2145638,16.5543689 58.9543696,11.6902913 51.6349521,8.98543689 L49.2796123,15.3601942 C55.2922337,17.5805825 60.4543696,21.5893204 64.1058259,26.738835 C67.7572822,31.8902913 69.8990298,38.1592233 69.9009715,44.9621359 C69.8990298,49.1621359 69.0757288,53.1553398 67.5922337,56.8116505 L61.3087385,52.8145631 L63.0252434,70.0165049 L79.3310686,64.2796117 L73.397088,60.5029126 Z" id="Path" fill="#EFEFEF"></path>
                                        <path d="M38.3495152,76.5145631 C32.6553405,76.5135922 27.3388356,75.0135922 22.7320395,72.3864078 C19.4601948,70.5184466 16.5621366,68.0699029 14.1553405,65.1961165 L20.2747579,61.7368932 L4.28932105,55.1601942 L1.68155406,72.2485437 L8.15534046,68.5883495 C11.2223308,72.5 15.020389,75.8097087 19.3640783,78.2883495 C24.9601948,81.4834951 31.4533987,83.3116505 38.3495152,83.3106806 C46.8067968,83.3126214 54.651457,80.5563107 60.9902919,75.9097087 L56.9737871,70.4281553 C51.7446609,74.2553398 45.3262142,76.5126214 38.3495152,76.5145631 Z" id="Path" fill-opacity="0.5" fill="#E0E0E0"></path>
                                        <path d="M6.79611716,44.961165 C6.79805891,36.2378641 10.3213599,28.3699029 16.0368939,22.6504854 C20.34369,18.3485437 25.8640783,15.2902913 32.0504861,14.0378641 L32.1077676,21.3572816 L45.6165055,10.5737864 L31.9407774,0 L31.997088,7.14563107 C23.9543696,8.48932039 16.7427191,12.3281553 11.2310686,17.8446602 C4.29611716,24.7747573 -0.00194108993,34.3825243 0,44.9621359 C0,46.8524272 0.150486095,48.692233 0.409709396,50.4776699 L7.13592299,49.5048544 C6.91747639,48.0009709 6.79611716,46.4893204 6.79611716,44.961165 Z" id="Path" fill="#EFEFEF"></path>
                                    </g>
                                    <g id="Group-6" transform="translate(24.271845, 30.097087)">
                                        <path d="M22.9397307,6.31770578 C23.6598453,7.08700339 24.2636526,7.94074741 24.744657,8.8514077 L27.628827,8.84058124 L28.7006469,13.4907022 L26.1029142,14.7437881 C26.0691975,15.7732302 25.9003047,16.8051469 25.5894305,17.8126267 L27.6362509,19.8436713 L25.1053329,23.8896756 L22.3835598,22.9391121 C21.6142622,23.6598453 20.7598995,24.2633433 19.8492392,24.7440383 L19.8600657,27.6285177 L15.210254,28.7006469 L13.9568588,26.1026049 C12.9277261,26.0688882 11.8958094,25.899686 10.8883296,25.5885025 L8.85759425,27.6353229 L4.81066198,25.1053329 L5.76184418,22.3829412 C5.041111,21.6139529 4.43761296,20.7598995 3.95691796,19.8489299 L1.07212927,19.8597564 L3.97106378e-14,15.2093261 L2.59866071,13.9565495 C2.63237741,12.9274168 2.80157958,11.8955001 3.11214443,10.8880203 L1.06594272,8.8569756 L3.59593271,4.81066198 L6.31801511,5.76153485 C7.08700339,5.04080167 7.94167539,4.43699431 8.85233568,3.95660863 L8.84119989,1.07181994 L13.4913209,-2.38263827e-14 L14.7444068,2.59804205 C15.7735395,2.63175875 16.8054562,2.80096092 17.8132453,3.1118351 L19.8439807,1.06532407 L23.889985,3.59562338 L22.9397307,6.31770578 Z" id="Path" fill="#E0E0E0"></path>
                                        <path d="M17.2487226,10.1245999 C14.8517434,8.62559859 11.6928905,9.35344631 10.1935799,11.7510441 C8.69457864,14.1480233 9.42304501,17.3068761 11.8200242,18.8058774 C14.217622,20.305188 17.3761655,19.577031 18.8751668,17.1797425 C20.3741681,14.7821447 19.6463204,11.6239105 17.2487226,10.1245999 L17.2487226,10.1245999 Z" id="Path" fill="#FFFFFF"></path>
                                    </g>
                                    <g id="Group-8" transform="translate(1.941748, 93.203883)">
                                        <rect id="Rectangle" fill="#EFEFEF" x="7.96524736e-14" y="1.13789248e-14" width="77.5919567" height="6.11169522" rx="3.05584761"></rect>
                                        <rect id="Rectangle" fill="#E0E0E0" x="-3.98262368e-14" y="1.13789248e-14" width="29.2298467" height="6.11169522" rx="3.05584761"></rect>
                                    </g>
                                </g>
                            </g>
                        </g>
                    </g>
                </g>
            </g>
        </g>
    </g>
</svg>