<svg width="32" height="32" viewBox="0 0 32 32" fill="none" xmlns="http://www.w3.org/2000/svg">
<g id="NutritionSodium">
<rect id="Rectangle" width="32" height="32" rx="6" fill="#69BE27" fill-opacity="0.15"/>
<g id="Group">
<g id="Group_2">
<path id="Vector" d="M9.39356 14.7141L16.1045 20.0323L18.5685 17.5682L21.0326 15.1044L15.7141 8.39362C15.7141 8.39362 15.2308 7.56209 14.4765 8.31621L11.8965 10.8964L9.31633 13.4763C8.56203 14.2306 9.39356 14.7141 9.39356 14.7141Z" fill="#69BE27"/>
<path id="Vector_2" d="M20.6542 19.6533C21.7446 18.5629 21.8833 16.8815 21.0706 15.6406L16.6416 20.0698C17.8823 20.8825 19.564 20.7438 20.6542 19.6533ZM20.8364 17.3733C20.9191 17.2905 21.0532 17.2905 21.1363 17.3733C21.2189 17.456 21.2189 17.5901 21.1363 17.673C21.0534 17.7558 20.9191 17.7558 20.8364 17.673C20.7536 17.5901 20.7536 17.456 20.8364 17.3733ZM19.9422 17.1748C20.0248 17.0921 20.159 17.0921 20.2418 17.1748C20.3245 17.2576 20.3245 17.3918 20.2418 17.4746C20.159 17.5573 20.0248 17.5573 19.9422 17.4746C19.8593 17.392 19.8593 17.2576 19.9422 17.1748ZM20.3609 18.503C20.4436 18.4202 20.5777 18.4202 20.6606 18.503C20.7434 18.5857 20.7434 18.72 20.6606 18.8027C20.5777 18.8855 20.4436 18.8855 20.3609 18.8027C20.2781 18.7198 20.2781 18.5857 20.3609 18.503ZM18.7044 18.4128C18.787 18.3301 18.9212 18.3301 19.0042 18.4128C19.0869 18.4956 19.0869 18.6297 19.0042 18.7124C18.9212 18.7953 18.787 18.7953 18.7044 18.7124C18.6215 18.6297 18.6215 18.4956 18.7044 18.4128ZM19.6358 19.4408C19.7185 19.358 19.8526 19.358 19.9355 19.4408C20.0181 19.5235 20.0181 19.6576 19.9355 19.7405C19.8526 19.8231 19.7185 19.8231 19.6358 19.7405C19.553 19.6578 19.553 19.5235 19.6358 19.4408ZM18.2981 19.6119C18.381 19.5291 18.5151 19.5291 18.5978 19.6119C18.6806 19.6946 18.6806 19.8287 18.5978 19.9116C18.5151 19.9942 18.381 19.9942 18.2981 19.9116C18.2153 19.8287 18.2153 19.6946 18.2981 19.6119Z" fill="#69BE27"/>
</g>
<path id="Vector_3" d="M20.4947 21.1789C20.591 21.1789 20.6691 21.1008 20.6691 21.0045C20.6691 20.9082 20.591 20.8301 20.4947 20.8301C20.3984 20.8301 20.3203 20.9082 20.3203 21.0045C20.3203 21.1008 20.3984 21.1789 20.4947 21.1789Z" fill="#69BE27"/>
<path id="Vector_4" d="M21.2074 20.1033C21.3036 20.1033 21.3816 20.0253 21.3816 19.9291C21.3816 19.8329 21.3036 19.7549 21.2074 19.7549C21.1112 19.7549 21.0332 19.8329 21.0332 19.9291C21.0332 20.0253 21.1112 20.1033 21.2074 20.1033Z" fill="#69BE27"/>
<path id="Vector_5" d="M21.982 21.5285C22.0783 21.5285 22.1564 21.4504 22.1564 21.3541C22.1564 21.2578 22.0783 21.1797 21.982 21.1797C21.8857 21.1797 21.8076 21.2578 21.8076 21.3541C21.8076 21.4504 21.8857 21.5285 21.982 21.5285Z" fill="#69BE27"/>
<path id="Vector_6" d="M21.3814 22.6662C21.4777 22.6662 21.5558 22.5881 21.5558 22.4918C21.5558 22.3955 21.4777 22.3174 21.3814 22.3174C21.2851 22.3174 21.207 22.3955 21.207 22.4918C21.207 22.5881 21.2851 22.6662 21.3814 22.6662Z" fill="#69BE27"/>
<path id="Vector_7" d="M22.5767 23.2814C22.673 23.2814 22.7511 23.2033 22.7511 23.107C22.7511 23.0107 22.673 22.9326 22.5767 22.9326C22.4804 22.9326 22.4023 23.0107 22.4023 23.107C22.4023 23.2033 22.4804 23.2814 22.5767 23.2814Z" fill="#69BE27"/>
<path id="Vector_8" d="M21.5553 24.0001C21.6516 24.0001 21.7296 23.9221 21.7296 23.8258C21.7296 23.7294 21.6516 23.6514 21.5553 23.6514C21.4589 23.6514 21.3809 23.7294 21.3809 23.8258C21.3809 23.9221 21.4589 24.0001 21.5553 24.0001Z" fill="#69BE27"/>
<path id="Vector_9" d="M20.3199 22.6662C20.4162 22.6662 20.4943 22.5881 20.4943 22.4918C20.4943 22.3955 20.4162 22.3174 20.3199 22.3174C20.2236 22.3174 20.1455 22.3955 20.1455 22.4918C20.1455 22.5881 20.2236 22.6662 20.3199 22.6662Z" fill="#69BE27"/>
</g>
</g>
</svg>
