<svg width="32" height="32" viewBox="0 0 32 32" fill="none" xmlns="http://www.w3.org/2000/svg">
<g id="NutritionIron">
<rect id="Rectangle" width="32" height="32" rx="6" fill="#FA7CA9" fill-opacity="0.15"/>
<path id="Vector" fill-rule="evenodd" clip-rule="evenodd" d="M16.7155 8C17.3344 9.46313 18.0235 12.0802 18.3437 14.4615C18.5668 16.1179 18.6065 17.6622 18.3376 18.6405C17.5348 21.558 16.7806 23.0912 16.3583 24C16.3919 24 16.4262 24 16.4599 24C18.5877 24 20.4677 23.8344 21.6366 22.7666C22.4316 22.0394 22.9191 20.8965 22.9191 19.0861C22.9191 16.4768 21.9049 13.0304 20.3413 10.6911C19.3232 9.16719 18.0643 8.11871 16.7155 8ZM16.1186 8.00883C14.8024 8.16343 13.575 9.19921 12.5779 10.6911C11.0143 13.0304 10 16.4768 10 19.0861C10 20.8965 10.4875 22.0394 11.2826 22.7666C12.3228 23.7168 13.9262 23.9525 15.7664 23.9928C15.7647 23.9498 15.773 23.905 15.7923 23.8631C16.1976 22.9824 16.9667 21.4702 17.7872 18.4887C18.0411 17.5639 17.9881 16.1041 17.7778 14.5377C17.4564 12.1487 16.7585 9.51613 16.1424 8.11263C16.1275 8.07895 16.1197 8.04362 16.1186 8.00883ZM21.0701 16.3028C21.0701 16.3028 21.2573 17.8814 21.0613 19.3638C20.9392 20.2853 20.6886 21.1798 20.0923 21.5585C19.9636 21.6402 19.9255 21.8108 20.0072 21.9395C20.089 22.0681 20.2596 22.1062 20.3882 22.0245C20.9315 21.68 21.2755 21.0014 21.4676 20.2064C21.8823 18.4904 21.6189 16.2377 21.6189 16.2377C21.6007 16.0864 21.4632 15.9782 21.3119 15.9959C21.1606 16.0141 21.0524 16.1516 21.0701 16.3028Z" fill="#FA7CA9"/>
</g>
</svg>
