<svg width="32" height="32" viewBox="0 0 32 32" fill="none" xmlns="http://www.w3.org/2000/svg">
<g id="NutritionVitaminA">
<rect id="Rectangle" width="32" height="32" rx="6" fill="#F66960" fill-opacity="0.15"/>
<g id="Group 289316">
<path id="Vector" d="M16.6006 9.9429C17.8869 7.34169 20.826 8.10414 20.826 8.10414C20.1813 11.4483 17.637 11.5054 16.6006 11.3829V9.9429Z" fill="#F66960"/>
<path id="Vector_2" d="M16.2255 9.94295C14.9389 7.34154 12 8.10419 12 8.10419C12.6447 11.4483 15.189 11.5054 16.2255 11.383V9.94295Z" fill="#F66960"/>
<path id="Vector_3" d="M16.3598 11.7295C15.3682 11.7295 14.5645 12.5334 14.5645 13.5248C14.5645 13.6447 14.5776 13.7611 14.6 13.8743H15.8066C15.8656 13.8743 15.9136 13.9222 15.9136 13.9813C15.9136 14.0403 15.8656 14.0882 15.8066 14.0882H14.6542L14.7485 14.6796H15.6232C15.6822 14.6796 15.7301 14.7275 15.7301 14.7865C15.7301 14.8456 15.6822 14.8935 15.6232 14.8935H14.7827L16.2137 23.8748C16.2403 24.0414 16.4799 24.0414 16.5065 23.8748L18.0666 14.0826C18.1241 13.9068 18.1555 13.7192 18.1555 13.5245C18.1553 12.5334 17.3514 11.7295 16.3598 11.7295Z" fill="#F66960"/>
</g>
</g>
</svg>
