<svg width="32" height="32" viewBox="0 0 32 32" fill="none" xmlns="http://www.w3.org/2000/svg">
<g id="NutritionTotalCarbs">
<rect id="Rectangle" width="32" height="32" rx="6" fill="#60A5F6" fill-opacity="0.15"/>
<g id="Group">
<path id="Vector" d="M20.8 11H11.2C9.432 11 8 12.432 8 14.2V15.8C8 16.24 8.36 16.6 8.8 16.6V19C8.8 19.88 9.52 20.6 10.4 20.6H21.6C22.48 20.6 23.2 19.88 23.2 19V16.6C23.64 16.6 24 16.24 24 15.8V14.2C24 12.432 22.568 11 20.8 11ZM9.6 15V13.8C9.6 13.136 10.136 12.6 10.8 12.6H16.44C16.168 13.072 16 13.616 16 14.2V15H9.6ZM16.8 19H10.4V16.6H16.8V19Z" fill="#60A5F6"/>
</g>
</g>
</svg>
