<svg width="32" height="32" viewBox="0 0 32 32" fill="none" xmlns="http://www.w3.org/2000/svg">
<g id="NutritionDietaryFiber">
<rect id="Rectangle" width="32" height="32" rx="6" fill="#40DBA3" fill-opacity="0.15"/>
<path id="Vector" d="M9.03511 23.824C9.09271 23.936 9.20471 24 9.31991 24C9.36791 24 9.41911 23.9872 9.46391 23.9648C10.8911 23.2384 12.1647 22.3232 13.2911 21.2992C13.9183 21.7664 14.6671 22.0128 15.4447 22.0128C15.5471 22.0128 15.6527 22.0064 15.7551 22C16.7247 21.9168 17.6079 21.4624 18.2447 20.7136C18.3599 20.5792 18.3439 20.3776 18.2095 20.2656C17.3103 19.5008 16.1487 19.2384 15.0799 19.4592C15.4767 19.0016 15.8511 18.5312 16.2031 18.0576C16.6863 18.3136 17.2079 18.4352 17.7295 18.4352C18.8655 18.4352 19.9791 17.8496 20.6063 16.8C20.6959 16.6496 20.6447 16.4512 20.4943 16.3616C19.7263 15.904 18.8271 15.7696 17.9599 15.9872C17.7999 16.0288 17.6463 16.08 17.4959 16.1408C17.8063 15.6384 18.0911 15.136 18.3567 14.6432C18.7183 14.784 19.0991 14.8544 19.4799 14.8544C19.8095 14.8544 20.1391 14.8032 20.4623 14.6976C21.2559 14.4352 21.9023 13.8752 22.2831 13.1264C22.3631 12.9696 22.2991 12.7744 22.1423 12.6944C21.2271 12.2304 20.1935 12.2528 19.3327 12.6688C19.3807 12.5632 19.4287 12.4608 19.4735 12.3584V12.3552C19.8831 12.1376 20.2255 11.8368 20.5039 11.456C21.2047 10.4928 21.3039 9.2352 20.7599 8.17279C20.6767 8.01599 20.4847 7.95519 20.3279 8.03519C19.5791 8.41599 19.0223 9.0688 18.7567 9.8656C18.5103 10.6176 18.5519 11.4144 18.8751 12.128C18.8399 12.208 18.8015 12.2912 18.7631 12.3744C18.7407 12.2368 18.7055 12.096 18.6607 11.9616C18.4047 11.1616 17.8511 10.512 17.0991 10.1312C16.9423 10.0512 16.7503 10.1152 16.6703 10.272C16.2895 11.0208 16.2255 11.8752 16.4911 12.6816C16.7247 13.376 17.1791 13.9616 17.7871 14.352C17.5183 14.8512 17.2271 15.3568 16.9135 15.8656C16.8303 14.8224 16.2639 13.8368 15.3039 13.2608C15.1503 13.1712 14.9551 13.2192 14.8655 13.3728C13.9951 14.8224 14.3663 16.6752 15.6655 17.7088C15.2527 18.2624 14.8143 18.8096 14.3407 19.3344C14.3951 19.0368 14.4111 18.7264 14.3855 18.416C14.3119 17.44 13.8607 16.5536 13.1151 15.92C12.9807 15.8048 12.7791 15.8208 12.6639 15.9552C12.0303 16.7008 11.7263 17.6512 11.8095 18.6336C11.8799 19.4816 12.2319 20.2656 12.8079 20.8704C11.7359 21.8432 10.5263 22.7072 9.17591 23.3952C9.01591 23.4752 8.95511 23.6672 9.03511 23.824Z" fill="#40DBA3"/>
</g>
</svg>
