<svg width="32" height="32" viewBox="0 0 32 32" fill="none" xmlns="http://www.w3.org/2000/svg">
<g id="NutritionCalories">
<rect id="Rectangle" width="32" height="32" rx="6" fill="#DD694F" fill-opacity="0.15"/>
<path id="Vector" d="M15.8331 24C13.0857 24 10.2153 22.4418 10.0103 18.9973C9.84627 16.2089 11.671 12.3748 13.4138 10.6731C13.4753 10.6116 13.5778 10.5911 13.6598 10.6526C13.7418 10.6936 13.7828 10.7961 13.7418 10.8986C13.7418 10.9191 13.2908 12.3133 14.0084 13.2975C14.0904 10.7961 16.3457 8.37674 17.9654 8.00769C18.0475 7.98719 18.109 8.00769 18.1705 8.0692C18.2115 8.13071 18.232 8.21272 18.2115 8.27423C17.6579 9.85296 18.0065 11.4112 19.2981 13.0104L19.4007 13.1334C20.3438 14.3226 22.0865 16.5164 21.861 19.1613C21.574 22.3393 18.601 24 15.8331 24Z" fill="#DD694F"/>
</g>
</svg>
