<svg width="32" height="32" viewBox="0 0 32 32" fill="none" xmlns="http://www.w3.org/2000/svg">
<g id="NutritionCalcium">
<rect id="Rectangle" width="32" height="32" rx="6" fill="#9C79FF" fill-opacity="0.15"/>
<path id="Vector" d="M23.9994 12.8004C23.9994 13.4504 23.7444 14.0604 23.2844 14.5154C22.3494 15.4503 20.8395 15.4703 19.8945 14.5704L14.5697 19.8952C15.4697 20.8451 15.4547 22.3501 14.5147 23.285C14.0398 23.76 13.4198 24 12.7948 24C12.1748 24 11.5599 23.765 11.0899 23.295C10.7284 22.9375 10.4959 22.4806 10.4134 21.9906C10.3789 21.7861 10.2194 21.6261 10.0149 21.5911C9.52494 21.5076 9.06746 21.2726 8.70997 20.9151C8.25499 20.4601 8 19.8502 8 19.2002C8.005 18.5502 8.25499 17.9402 8.71497 17.4853C9.17495 17.0253 9.78493 16.7703 10.4349 16.7703C10.4349 16.7703 10.4349 16.7703 10.4399 16.7703C11.0649 16.7703 11.6549 17.0053 12.1048 17.4303L17.4296 12.1055C16.5297 11.1555 16.5497 9.65057 17.4846 8.71561C18.4346 7.76565 19.9745 7.76065 20.9195 8.70561C21.2765 9.06659 21.508 9.52058 21.5905 10.0116C21.6255 10.218 21.7865 10.378 21.9929 10.412C22.4839 10.4925 22.9384 10.7245 23.2994 11.0855C23.7544 11.5405 24.0044 12.1505 23.9994 12.8004Z" fill="#9C79FF"/>
</g>
</svg>
