<svg width="32" height="32" viewBox="0 0 32 32" fill="none" xmlns="http://www.w3.org/2000/svg">
<g id="NutritionProtein">
<rect id="Rectangle" width="32" height="32" rx="6" fill="#BE7927" fill-opacity="0.15"/>
<g id="Group 289315">
<path id="Vector" d="M15.7895 8C13.7002 8 12 9.6998 12 11.7895C12 12.5558 12.1697 13.328 12.4905 14.0232L14.3747 18.1053H17.2046L19.0889 14.0236C19.4093 13.328 19.579 12.5554 19.579 11.7895C19.579 9.6998 17.8788 8 15.7895 8ZM13.2632 12.2105C13.0307 12.2105 12.8421 12.0219 12.8421 11.7895C12.8421 11.5571 13.0307 11.3684 13.2632 11.3684C13.4956 11.3684 13.6842 11.5571 13.6842 11.7895C13.6842 12.0219 13.4956 12.2105 13.2632 12.2105ZM14.1053 13.8948C13.8728 13.8948 13.6842 13.7061 13.6842 13.4737C13.6842 13.2413 13.8728 13.0526 14.1053 13.0526C14.3377 13.0526 14.5263 13.2413 14.5263 13.4737C14.5263 13.7061 14.3377 13.8948 14.1053 13.8948ZM14.1053 10.5263C13.8728 10.5263 13.6842 10.3377 13.6842 10.1053C13.6842 9.87285 13.8728 9.68422 14.1053 9.68422C14.3377 9.68422 14.5263 9.87285 14.5263 10.1053C14.5263 10.3377 14.3377 10.5263 14.1053 10.5263Z" fill="#BE7927"/>
<path id="Vector_2" d="M16.631 21.6479V18.9473H14.9468V21.6479L13.9093 22.6858C13.7657 22.8294 13.6836 23.0273 13.6836 23.2302C13.6836 23.6547 14.0289 23.9999 14.4537 23.9999C14.6592 23.9999 14.8529 23.9199 14.9981 23.7747L15.7889 22.9835L16.5796 23.7747C16.7253 23.9199 16.9186 23.9999 17.124 23.9999C17.5489 23.9999 17.8941 23.6547 17.8941 23.2302C17.8941 23.0277 17.812 22.8294 17.6689 22.6858L16.631 21.6479Z" fill="#BE7927"/>
</g>
</g>
</svg>
