<svg width="32" height="32" viewBox="0 0 32 32" fill="none" xmlns="http://www.w3.org/2000/svg">
<g id="NutritionSugar">
<rect id="Rectangle" width="32" height="32" rx="6" fill="#A260F6" fill-opacity="0.15"/>
<g id="Group">
<g id="Group_2">
<path id="Vector" d="M10 10.7584L10.481 15.9871L15.7097 15.5063L15.5363 13.6227L15.2287 10.2773L11.0118 10.6653L10 10.7584Z" fill="#A260F6"/>
<path id="Vector_2" d="M10.8945 8.66343L10.8396 8.78606L10.0596 10.5262L10.9916 10.4404L15.2551 10.0483L16.09 8.18555L10.8945 8.66343Z" fill="#A260F6"/>
<path id="Vector_3" d="M15.4463 10.1737L15.7616 13.6018L15.9057 15.1689L16.6446 13.5207L16.6584 13.4895L16.199 8.49414L15.4463 10.1737Z" fill="#A260F6"/>
</g>
<g id="Group_3">
<path id="Vector_4" d="M17.4339 9.87598L16.8682 15.0963L22.0883 15.6618L22.292 13.7815L22.6542 10.4419L18.4441 9.98551L17.4339 9.87598Z" fill="#A260F6"/>
<path id="Vector_5" d="M18.7256 8L18.6476 8.10931L17.5381 9.66016L18.4686 9.76089L22.7248 10.2223L23.9127 8.56212L18.7256 8Z" fill="#A260F6"/>
<path id="Vector_6" d="M22.8871 10.3836L22.5163 13.8058L22.3467 15.3709L23.3977 13.9015L23.4176 13.8742L23.9581 8.88672L22.8871 10.3836Z" fill="#A260F6"/>
</g>
<g id="Group_4">
<path id="Vector_7" d="M13.4404 18.8497L14.4642 24L19.6143 22.9763L19.2455 21.1212L18.5908 17.8262L14.4373 18.6519L13.4404 18.8497Z" fill="#A260F6"/>
<path id="Vector_8" d="M14.1116 16.673L14.0698 16.8008L13.4756 18.6127L14.3936 18.4303L18.5927 17.5956L19.2289 15.6562L14.1116 16.673Z" fill="#A260F6"/>
<path id="Vector_9" d="M18.7959 17.7003L19.4669 21.0767L19.7736 22.6205L20.3364 20.9041L20.3472 20.8718L19.3693 15.9512L18.7959 17.7003Z" fill="#A260F6"/>
</g>
</g>
</g>
</svg>
