<svg width="32" height="32" viewBox="0 0 32 32" fill="none" xmlns="http://www.w3.org/2000/svg">
<g id="NutritionCholesterol">
<rect id="Rectangle" width="32" height="32" rx="6" fill="#5D80FB" fill-opacity="0.15"/>
<path id="Vector" fill-rule="evenodd" clip-rule="evenodd" d="M19.6581 8.18197C18.4064 10.0078 16.1984 12.2342 13.1824 12.8142C11.3733 13.1622 9.54319 14.0554 8.23359 15.0021C8.10332 15.0962 8 15.306 8 15.4668V17.0668C8 17.1957 8.0734 17.2258 8.16699 17.1371C9.3779 15.9902 11.4158 14.7839 13.4841 14.3859C17.5099 13.6117 20.1424 10.5403 21.4846 8.26219C21.5693 8.11829 21.5 8.00007 21.333 8.00006L19.9997 8C19.8786 7.99999 19.7266 8.08212 19.6581 8.18197ZM22.3997 9.33346C21.961 9.33346 21.5997 9.69479 21.5997 10.1335C21.5997 10.5721 21.9611 10.9335 22.3997 10.9335C22.8384 10.9335 23.1997 10.5721 23.1997 10.1335C23.1997 9.69479 22.8384 9.33346 22.3997 9.33346ZM20.7997 10.9335C20.3611 10.9335 19.9998 11.2948 19.9998 11.7335C19.9998 12.1721 20.3611 12.5335 20.7997 12.5335C21.2384 12.5335 21.5997 12.1721 21.5997 11.7335C21.5997 11.2948 21.2384 10.9335 20.7997 10.9335ZM23.1997 11.4668C22.761 11.4668 22.3997 11.8281 22.3997 12.2668C22.3997 12.7055 22.761 13.0668 23.1997 13.0668C23.6383 13.0668 23.9997 12.7055 23.9997 12.2668C23.9997 11.8281 23.6383 11.4668 23.1997 11.4668ZM19.733 13.0668C17.6744 13.0668 15.9997 14.7414 15.9997 16.8001C15.9997 17.1471 16.0482 17.4827 16.1372 17.8017C16.8414 17.492 17.6 17.2469 18.4147 17.0902C20.0012 16.7851 21.6731 15.7524 22.8558 14.7606C22.1884 13.7421 21.0391 13.0668 19.733 13.0668ZM23.8349 14.5982C22.6132 15.7861 20.568 17.2195 18.5154 17.6142C14.4896 18.3885 11.857 21.4598 10.5149 23.738C10.4302 23.8818 10.4995 24 10.6665 24H11.9998C12.121 24 12.2734 23.9179 12.3419 23.8179C13.5937 21.9921 15.8017 19.7659 18.8177 19.1859C20.6423 18.835 22.4662 17.7486 23.7649 16.75C23.8957 16.6494 24 16.4318 24 16.2667L23.9998 14.6667C23.9998 14.5384 23.9269 14.5088 23.8349 14.5982ZM14.6666 14.9335C14.228 14.9335 13.8667 15.2948 13.8667 15.7335C13.8667 16.1721 14.228 16.5335 14.6666 16.5335C15.1053 16.5335 15.4666 16.1721 15.4666 15.7335C15.4666 15.2948 15.1053 14.9335 14.6666 14.9335ZM9.33329 17.8668C8.89463 17.8668 8.53332 18.2281 8.53332 18.6668C8.53332 19.1055 8.89466 19.4668 9.33329 19.4668C9.77193 19.4668 10.1333 19.1055 10.1333 18.6668C10.1333 18.2281 9.77193 17.8668 9.33329 17.8668ZM12.8 17.8668C12.3613 17.8668 12 18.2281 12 18.6668C12 19.1055 12.3613 19.4668 12.8 19.4668C13.2386 19.4668 13.5999 19.1055 13.5999 18.6668C13.5999 18.2281 13.2386 17.8668 12.8 17.8668Z" fill="#5D80FB"/>
</g>
</svg>
