<svg width="32" height="32" viewBox="0 0 32 32" fill="none" xmlns="http://www.w3.org/2000/svg">
<g id="NutritionVitaminC">
<rect id="Rectangle" width="32" height="32" rx="6" fill="#FED238" fill-opacity="0.15"/>
<path id="Vector" d="M19.0592 21.2596C17.9577 21.7514 16.8024 21.9855 15.6673 21.9855C12.4741 21.9855 9.42071 20.143 8.03464 17.0441C7.94538 16.8454 8.03464 16.6113 8.23337 16.522C8.4321 16.4328 8.6662 16.522 8.75546 16.7208C10.4548 20.5253 14.933 22.2364 18.7358 20.5371C20.5783 19.7135 21.9896 18.223 22.7105 16.3368C23.4313 14.4522 23.3757 12.3992 22.5521 10.5567C22.4629 10.358 22.5521 10.1239 22.7509 10.0346C22.9496 9.94538 23.1837 10.0346 23.273 10.2334C25.1525 14.437 23.2612 19.3818 19.0592 21.2596ZM12.3882 19.8213C12.6324 19.951 12.9356 19.8297 13.0332 19.5721L15.0627 14.2636L9.87543 16.581C9.62281 16.6938 9.52007 17.0037 9.66154 17.2412C10.3352 18.3628 11.2884 19.2403 12.3882 19.8213ZM13.9629 20.4226C15.1704 20.724 16.4656 20.7072 17.7152 20.3198C17.9796 20.2373 18.1093 19.9392 17.9965 19.6866L15.6791 14.4994L13.6496 19.8062C13.5503 20.0638 13.6951 20.3569 13.9629 20.4226ZM22.4393 15.3313C22.7408 14.1238 22.7239 12.8287 22.3366 11.579C22.254 11.3146 21.9559 11.1849 21.7033 11.2978L16.5161 13.6152L21.8246 15.6446C22.0806 15.744 22.3719 15.5991 22.4393 15.3313ZM19.2562 19.631C20.3796 18.959 21.2553 18.0058 21.8364 16.906C21.9661 16.6618 21.8448 16.3587 21.5871 16.261L16.2786 14.2299L18.596 19.4171C18.7106 19.6714 19.0188 19.7742 19.2562 19.631Z" fill="#FED238"/>
</g>
</svg>
