<svg width="32" height="32" viewBox="0 0 32 32" fill="none" xmlns="http://www.w3.org/2000/svg">
<g id="NutritionTotalFat">
<rect id="Rectangle" width="32" height="32" rx="6" fill="#F6A860" fill-opacity="0.15"/>
<g id="Group">
<path id="Vector" d="M13.1501 13.9995H13.3454C13.0567 14.6264 12.8878 15.319 12.8878 16.0043C12.8878 18.1716 14.5728 18.9412 16.4164 18.9412C18.2601 18.9412 19.945 18.1716 19.945 16.0043C19.945 15.319 19.7762 14.6264 19.4875 13.9995H19.6827C19.9671 14.6421 20.1218 15.3333 20.1218 16.0043C20.1218 16.8193 19.8964 17.487 19.4517 17.9983C19.5292 18.2265 19.7307 18.4026 19.9859 18.4341C20.0129 18.4374 20.0397 18.439 20.0662 18.439C20.389 18.439 20.6686 18.1983 20.7091 17.8698C21.0434 15.162 20.6989 13.1671 19.685 11.9406C19.0731 11.2002 18.3867 10.952 18.0195 10.8691C17.6683 11.3788 17.0808 11.7138 16.4163 11.7138C15.7519 11.7138 15.1644 11.3788 14.8131 10.8691C14.4459 10.952 13.7596 11.2002 13.1475 11.9406C12.1338 13.1671 11.7893 15.162 12.1236 17.8698C12.1642 18.1984 12.4438 18.439 12.7666 18.439C12.793 18.439 12.8199 18.4374 12.8469 18.4341C13.1021 18.4026 13.3036 18.2265 13.3811 17.9983C12.9364 17.487 12.7109 16.8193 12.7109 16.0043C12.7109 15.3333 12.8657 14.6421 13.1501 13.9995Z" fill="#F6A860"/>
<path id="Vector_2" d="M13.4902 18.1172L14.5171 23.2954C14.5171 23.6842 14.9065 23.9994 15.3867 23.9994C15.8672 23.9994 16.2567 23.6841 16.2567 23.2954V19.1163C15.2857 19.0931 14.4588 18.8573 13.858 18.4302C13.7234 18.3345 13.6013 18.2299 13.4902 18.1172Z" fill="#F6A860"/>
<path id="Vector_3" d="M18.9749 18.4302C18.3741 18.8573 17.5472 19.0931 16.5762 19.1163V23.2954C16.5762 23.6842 16.9657 23.9994 17.4461 23.9994C17.9263 23.9994 18.3159 23.6841 18.3159 23.2954L19.3427 18.1172C19.2317 18.2299 19.1094 18.3345 18.9749 18.4302Z" fill="#F6A860"/>
<path id="Vector_4" d="M16.4165 11.537C17.3935 11.537 18.1855 10.745 18.1855 9.76803C18.1855 8.79103 17.3935 7.99902 16.4165 7.99902C15.4395 7.99902 14.6475 8.79103 14.6475 9.76803C14.6475 10.745 15.4395 11.537 16.4165 11.537Z" fill="#F6A860"/>
</g>
</g>
</svg>
