<svg width="32" height="32" viewBox="0 0 32 32" fill="none" xmlns="http://www.w3.org/2000/svg">
<g id="NutritionPotassium">
<rect id="Rectangle" width="32" height="32" rx="6" fill="#C57327" fill-opacity="0.15"/>
<path id="Vector" fill-rule="evenodd" clip-rule="evenodd" d="M8.93587 10.0019C8.71781 10.0159 8.50422 10.0702 8.30591 10.162C8.49861 10.7942 8.63853 11.4413 8.72422 12.0967C8.78671 12.6672 8.74829 13.0963 8.60898 13.384C8.6072 13.3881 8.60524 13.3922 8.60328 13.3961C8.40601 13.7837 8.25429 14.1928 8.15118 14.6153C8.05042 15.0319 7.99967 15.4591 8 15.8878C8 17.6783 8.88323 19.3012 10.3121 20.4777C11.7495 21.6636 13.7395 22.3966 15.94 22.3966C17.3183 22.4109 18.684 22.1331 19.9472 21.5815C21.0717 21.0946 22.0458 20.3162 22.7687 19.3268C22.8227 19.2557 22.8501 19.1679 22.8462 19.0787C22.8406 19.0042 22.8128 18.9331 22.7665 18.8745C22.7192 18.8128 22.6563 18.7648 22.5842 18.7354C22.5095 18.7039 22.426 18.7001 22.3488 18.7246C21.2388 19.0761 20.0804 19.2502 18.9162 19.2404C17.0885 19.2549 15.2815 18.8531 13.6321 18.0656C12.0442 17.271 10.7827 16.0705 10.2474 14.452C10.0609 13.8809 9.96755 13.2835 9.97098 12.6827C9.97098 10.9712 9.86071 10.7185 9.70065 10.3516C9.67005 10.2815 9.63768 10.2073 9.60265 10.1161C9.39176 10.0296 9.16441 9.99062 8.93676 10.0019H8.93587ZM19.4851 20.4893C19.4353 20.4931 19.386 20.4773 19.3477 20.4453C19.3094 20.4132 19.2851 20.3675 19.28 20.3178C19.2749 20.2682 19.2894 20.2185 19.3204 20.1793C19.3514 20.1402 19.3965 20.1147 19.446 20.1083L19.4837 20.1044L19.5221 20.1003C19.5472 20.0976 19.5725 20.0998 19.5967 20.1069C19.6208 20.114 19.6434 20.1258 19.663 20.1416C19.6826 20.1575 19.6989 20.177 19.7109 20.1991C19.723 20.2212 19.7306 20.2455 19.7332 20.2705C19.7359 20.2956 19.7336 20.3209 19.7264 20.3451C19.7193 20.3692 19.7074 20.3917 19.6916 20.4113C19.6757 20.4309 19.6561 20.4471 19.634 20.4591C19.6118 20.4711 19.5876 20.4787 19.5625 20.4813L19.4851 20.4893ZM9.39029 15.0354C9.38135 14.9854 9.39261 14.934 9.4216 14.8924C9.45058 14.8507 9.49492 14.8223 9.54484 14.8134C9.59477 14.8045 9.64621 14.8157 9.68784 14.8447C9.72946 14.8737 9.75787 14.918 9.76681 14.968C10.0692 16.6295 11.1507 17.8864 12.6045 18.7472C14.3119 19.7585 16.5295 20.2248 18.6119 20.1625C18.6622 20.1618 18.7107 20.181 18.747 20.2158C18.7834 20.2506 18.8045 20.2984 18.8059 20.3487C18.8072 20.3989 18.7888 20.4478 18.7544 20.4845C18.7201 20.5213 18.6726 20.5431 18.6224 20.5451C16.4728 20.6091 14.1801 20.1257 12.4095 19.0773C10.8652 18.1628 9.71487 16.8207 9.39029 15.0354ZM19.6525 18.8336C19.4092 18.8483 19.1637 18.8557 18.9162 18.8559C17.1479 18.8709 15.3994 18.4834 13.803 17.7227C12.3023 16.9717 11.1123 15.8441 10.6113 14.3307C10.4894 13.9603 10.4105 13.5771 10.3761 13.1887C10.4374 13.2858 10.5013 13.3802 10.5679 13.4718C11.6869 15.0144 13.5122 15.784 15.5158 15.9659C17.5559 16.1211 19.603 15.7742 21.4782 14.9557C22.154 14.6648 22.7967 14.302 23.3951 13.8738C23.4615 13.8272 23.5424 13.8057 23.6233 13.8133C23.7006 13.8193 23.775 13.8459 23.8386 13.8903C23.9006 13.9322 23.9486 13.9916 23.9767 14.0609C24.0073 14.1449 24.0078 14.237 23.9779 14.3213C23.656 15.2962 23.1145 16.1842 22.395 16.9167C21.608 17.7206 20.6779 18.3707 19.6525 18.8336ZM21.2023 16.424C21.156 16.4432 21.1039 16.4434 21.0574 16.4247C21.0109 16.4059 20.9736 16.3696 20.9536 16.3236C20.9335 16.2776 20.9323 16.2256 20.9502 16.1788C20.968 16.1319 21.0036 16.0939 21.0492 16.073L21.1203 16.0422C21.1434 16.0322 21.1682 16.0267 21.1933 16.0263C21.2184 16.0258 21.2434 16.0303 21.2668 16.0395C21.2902 16.0487 21.3115 16.0624 21.3296 16.0799C21.3477 16.0973 21.3622 16.1181 21.3723 16.1412C21.3823 16.1642 21.3877 16.189 21.3882 16.2141C21.3886 16.2393 21.3841 16.2642 21.3749 16.2876C21.3658 16.311 21.352 16.3324 21.3346 16.3505C21.3172 16.3686 21.2963 16.3831 21.2733 16.3931L21.2023 16.424ZM13.437 17.0643C13.4125 17.0573 13.3896 17.0454 13.3698 17.0293C13.3499 17.0133 13.3334 16.9935 13.3213 16.971C13.3092 16.9486 13.3017 16.9239 13.2993 16.8985C13.2968 16.8731 13.2995 16.8475 13.3071 16.8231C13.3147 16.7987 13.327 16.7761 13.3435 16.7566C13.3599 16.7371 13.3801 16.721 13.4028 16.7094C13.4255 16.6978 13.4503 16.6908 13.4758 16.6889C13.5012 16.687 13.5268 16.6902 13.551 16.6983C14.592 17.0068 15.6787 17.132 16.7625 17.0682C17.9591 17.0079 19.1407 16.7755 20.2709 16.3782C20.3188 16.3614 20.3714 16.3644 20.4171 16.3865C20.4628 16.4086 20.4979 16.4479 20.5146 16.4958C20.5314 16.5437 20.5284 16.5963 20.5063 16.6421C20.4842 16.6878 20.4449 16.7228 20.397 16.7396C19.2319 17.1492 18.0139 17.3888 16.7805 17.451C15.652 17.5168 14.5206 17.3858 13.437 17.0638V17.0643Z" fill="#C57327"/>
</g>
</svg>
