<svg width="20" height="21" viewBox="0 0 20 21" fill="none" xmlns="http://www.w3.org/2000/svg">
<path d="M10.0001 0.000257205C8.41074 0.000257205 7.10642 1.30457 7.10642 2.8941C7.10642 4.28897 8.1121 5.45972 9.43245 5.72557L9.43231 7.77685H2.88895C2.72233 7.77615 2.56228 7.84215 2.44452 7.95993C2.3266 8.0777 2.26074 8.23775 2.26144 8.40436V10.6242C0.972342 10.9143 0 12.0702 0 13.4434C0 15.0328 1.29942 16.3323 2.88895 16.3322C4.47833 16.3322 5.78264 15.0328 5.78264 13.4434C5.78264 12.0683 4.80402 10.9111 3.5116 10.623L3.51174 9.02715H9.43209V14.2809C8.11188 14.5476 7.10621 15.7211 7.10621 17.116C7.10621 18.7054 8.41052 20.0048 10 20.0048C11.5894 20.0048 12.8937 18.7054 12.8937 17.116C12.8937 15.7628 11.9456 14.6246 10.6838 14.3139L10.6837 9.02686H16.4837V10.6239C15.1936 10.914 14.2186 12.0699 14.2186 13.4431C14.2186 15.0325 15.5217 16.3321 17.1112 16.3319C18.7006 16.3319 20 15.0325 20 13.4431C20 12.0681 19.0266 10.911 17.7351 10.6227V8.40411C17.7358 8.23819 17.6703 8.07869 17.5533 7.96093C17.4363 7.84329 17.2773 7.77687 17.1112 7.77659H10.6839V5.69223C11.9458 5.38244 12.8939 4.24699 12.8939 2.89384C12.8939 1.30431 11.5896 0 10.0002 0L10.0001 0.000257205Z" fill="#B0B0B0"/>
</svg>