<?xml version="1.0" encoding="UTF-8"?>
<svg width="17px" height="20px" viewBox="0 0 17 20" version="1.1" xmlns="http://www.w3.org/2000/svg" xmlns:xlink="http://www.w3.org/1999/xlink">
    <title>Password-icon</title>
    <g id="Welcome" stroke="none" stroke-width="1" fill="none" fill-rule="evenodd">
        <g id="Cards-&amp;-Badges" transform="translate(-173.000000, -4348.000000)" fill="#212121" fill-rule="nonzero">
            <path d="M181.306802,4348 C181.219971,4348 181.13314,4348 181.04631,4348 C177.544139,4348.11577 174.852388,4351.09696 174.852388,4354.59913 L174.852388,4356.68307 L174.70767,4356.68307 C173.752533,4356.68307 173,4357.4356 173,4358.39074 L173,4366.29233 C173,4367.24747 173.752533,4368 174.70767,4368 L187.819103,4368 C188.77424,4368 189.526773,4367.24747 189.526773,4366.29233 L189.526773,4358.39074 C189.526773,4357.4356 188.77424,4356.68307 187.819103,4356.68307 L187.761216,4356.68307 L187.761216,4354.42547 C187.761216,4350.89436 184.86686,4348 181.306802,4348 Z M182.522431,4364.32417 C182.551375,4364.52677 182.406657,4364.70043 182.204052,4364.70043 L181.248915,4364.70043 L180.293777,4364.70043 C180.091172,4364.70043 179.946454,4364.52677 179.975398,4364.32417 L180.351664,4362.52967 C180.004342,4362.21129 179.772793,4361.74819 179.859624,4361.22721 C179.946454,4360.61939 180.467438,4360.12735 181.075253,4360.04052 C181.13314,4360.04052 181.191027,4360.04052 181.248915,4360.04052 C182.030391,4360.04052 182.667149,4360.67728 182.667149,4361.45876 C182.667149,4361.89291 182.464544,4362.29812 182.146165,4362.55861 L182.522431,4364.32417 Z M184.924747,4356.68307 L177.659913,4356.68307 L177.659913,4354.54124 C177.659913,4352.65991 179.049204,4350.98119 180.930535,4350.80753 C181.04631,4350.80753 181.162084,4350.77858 181.277858,4350.77858 C183.274964,4350.77858 184.924747,4352.39942 184.924747,4354.42547 L184.924747,4356.68307 L184.924747,4356.68307 Z" id="Password-icon"></path>
        </g>
    </g>
</svg>