<?xml version="1.0" encoding="UTF-8"?>
<svg width="20px" height="15px" viewBox="0 0 20 15" version="1.1" xmlns="http://www.w3.org/2000/svg" xmlns:xlink="http://www.w3.org/1999/xlink">
    <title>Eye-blue</title>
    <g id="Welcome" stroke="none" stroke-width="1" fill="none" fill-rule="evenodd">
        <g id="Sign-in" transform="translate(-1034.000000, -528.000000)">
            <g transform="translate(191.000000, 168.000000)" id="Content">
                <g transform="translate(360.000000, 0.000000)">
                    <g transform="translate(180.000000, 149.000000)">
                        <g id="Input-/-Field-/-Large-/-With-Label-Copy" transform="translate(0.000000, 174.000000)">
                            <g id="Eye-blue" transform="translate(303.833333, 37.333333)">
                                <path d="M7.28306304e-14,6.66666667 C1.58583333,10.4675325 4.58333333,13.3333333 9.16666667,13.3333333 C13.75,13.3333333 16.7475,10.4675325 18.3333333,6.66666667 C16.7475,2.86580087 13.75,-3.64153152e-14 9.16666667,-3.64153152e-14 C4.58333333,-3.64153152e-14 1.58583333,2.86580087 7.28306304e-14,6.66666667 Z" id="Path" fill="#0078D3"></path>
                                <path d="M5,6.66666667 C5,4.36111111 6.86111111,2.5 9.16666667,2.5 C11.4722222,2.5 13.3333333,4.36111111 13.3333333,6.66666667 C13.3333333,8.97222222 11.4722222,10.8333333 9.16666667,10.8333333 C6.86111111,10.8333333 5,8.97222222 5,6.66666667 Z" id="Path" fill="#FFFFFF"></path>
                                <path d="M6.66666667,6.66666667 C6.66666667,8.05174764 7.78158569,9.16666667 9.16666667,9.16666667 C10.5517476,9.16666667 11.6666667,8.05174764 11.6666667,6.66666667 C11.6666667,5.28158569 10.5517476,4.16666667 9.16666667,4.16666667 C7.78158569,4.16666667 6.66666667,5.28158569 6.66666667,6.66666667 Z" id="Path" fill="#0078D3"></path>
                            </g>
                        </g>
                    </g>
                </g>
            </g>
        </g>
    </g>
</svg>