<?xml version="1.0" encoding="UTF-8"?>
<svg width="14px" height="16px" viewBox="0 0 14 16" version="1.1" xmlns="http://www.w3.org/2000/svg" xmlns:xlink="http://www.w3.org/1999/xlink">
    <!-- Generator: Sketch 64 (93537) - https://sketch.com -->
    <title>Shape</title>
    <desc>Created with Sketch.</desc>
    <g id="Welcome" stroke="none" stroke-width="1" fill="none" fill-rule="evenodd">
        <g id="Sign-in" transform="translate(-746.000000, -501.000000)" fill="#212121" fill-rule="nonzero">
            <g transform="translate(191.000000, 168.000000)" id="Content">
                <g transform="translate(360.000000, 0.000000)">
                    <g transform="translate(180.000000, 149.000000)">
                        <g id="Input-/-Field-/-Large-/-With-Label-Copy" transform="translate(0.000000, 148.000000)">
                            <g id="Input-/-Field-/-Medium-/-Right-Icon" transform="translate(0.000000, 24.000000)">
                                <path d="M21.6454414,12 C21.5759768,12 21.5065123,12 21.4370478,12 C18.6353111,12.0926194 16.4819103,14.4775687 16.4819103,17.2793054 L16.4819103,18.9464544 L16.366136,18.9464544 C15.602026,18.9464544 15,19.5484805 15,20.3125904 L15,26.633864 C15,27.397974 15.602026,28 16.366136,28 L26.8552822,28 C27.6193922,28 28.2214182,27.397974 28.2214182,26.633864 L28.2214182,20.3125904 C28.2214182,19.5484805 27.6193922,18.9464544 26.8552822,18.9464544 L26.8089725,18.9464544 L26.8089725,17.1403763 C26.8089725,14.3154848 24.4934877,12 21.6454414,12 Z M22.617945,25.0593343 C22.6410999,25.2214182 22.5253256,25.3603473 22.3632417,25.3603473 L21.5991317,25.3603473 L20.8350217,25.3603473 C20.6729378,25.3603473 20.5571635,25.2214182 20.5803184,25.0593343 L20.8813314,23.6237337 C20.6034732,23.3690304 20.4182344,22.9985528 20.487699,22.5817656 C20.5571635,22.0955137 20.9739508,21.7018813 21.4602026,21.6324168 C21.5065123,21.6324168 21.552822,21.6324168 21.5991317,21.6324168 C22.2243126,21.6324168 22.7337192,22.1418234 22.7337192,22.7670043 C22.7337192,23.1143271 22.5716353,23.4384949 22.316932,23.6468886 L22.617945,25.0593343 Z M24.5397974,18.9464544 L18.7279305,18.9464544 L18.7279305,17.2329957 C18.7279305,15.7279305 19.8393632,14.3849493 21.3444284,14.2460203 C21.4370478,14.2460203 21.5296671,14.2228654 21.6222865,14.2228654 C23.2199711,14.2228654 24.5397974,15.5195369 24.5397974,17.1403763 L24.5397974,18.9464544 L24.5397974,18.9464544 Z" id="Shape"></path>
                            </g>
                        </g>
                    </g>
                </g>
            </g>
        </g>
    </g>
</svg>