<?xml version="1.0" encoding="UTF-8"?>
<svg xmlns="http://www.w3.org/2000/svg" xmlns:xlink="http://www.w3.org/1999/xlink" width="28px" height="35px" viewBox="0 0 30 35" version="1.1">
<defs>
    <clipPath id="clip1">
        <path d="M 4 8 L 23 8 L 23 15.828125 L 4 15.828125 Z M 4 8 "/>
    </clipPath>
    <clipPath id="clip2">
        <path d="M 0 0 L 27.425781 0 L 27.425781 12 L 0 12 Z M 0 0 "/>
    </clipPath>
</defs>
<g id="surface1">
    <g clip-path="url(#clip1)" clip-rule="nonzero">
        <path d="M 13.710938 10.53125 C 12.929688 10.53125 12.152344 10.417969 11.402344 10.222656 L 4.941406 8.335938 L 4.941406 12.644531 C 4.941406 13.433594 5.460938 14.109375 6.238281 14.335938 L 9.066406 15.152344 C 12.179688 16.050781 15.46875 16.050781 18.585938 15.152344 L 21.414062 14.335938 C 22.191406 14.109375 22.710938 13.433594 22.710938 12.644531 L 22.710938 8.28125 L 16.019531 10.222656 C 15.269531 10.449219 14.488281 10.53125 13.710938 10.53125 Z M 13.710938 10.53125 "/>
    </g>
    <g clip-path="url(#clip2)" clip-rule="nonzero">
        <path d="M 26.835938 3.546875 L 15.441406 0.253906 C 14.316406 -0.0859375 13.105469 -0.0859375 11.949219 0.253906 L 0.585938 3.546875 C -0.195312 3.773438 -0.195312 4.871094 0.585938 5.097656 L 11.980469 8.390625 C 13.105469 8.730469 14.316406 8.730469 15.46875 8.390625 L 25.222656 5.574219 L 25.222656 8.082031 C 25.019531 8.195312 24.875 8.390625 24.875 8.617188 L 24.875 9.292969 C 24.875 9.546875 25.019531 9.773438 25.25 9.855469 L 24.644531 11.238281 C 24.558594 11.433594 24.671875 11.628906 24.902344 11.660156 L 25.539062 11.714844 C 25.652344 11.714844 25.796875 11.714844 25.914062 11.714844 L 26.546875 11.660156 C 26.75 11.628906 26.863281 11.433594 26.808594 11.238281 L 26.203125 9.855469 C 26.433594 9.742188 26.578125 9.546875 26.578125 9.292969 L 26.578125 8.617188 C 26.578125 8.390625 26.433594 8.195312 26.230469 8.082031 L 26.230469 5.292969 L 26.863281 5.097656 C 27.617188 4.84375 27.617188 3.773438 26.835938 3.546875 Z M 26.835938 3.546875 "/>
    </g>
</g>
</svg>
