<?xml version="1.0" encoding="UTF-8"?>
<svg xmlns="http://www.w3.org/2000/svg" xmlns:xlink="http://www.w3.org/1999/xlink" width="35px" height="35px" viewBox="0 0 35 43" version="1.1">
<g id="surface1">
<path style=" stroke:none;fill-rule:nonzero;fill:rgb(14.117647%,18.039216%,28.627451%);fill-opacity:1;" d="M 2.207031 0 C 1.601562 0 1.101562 0.21875 0.660156 0.652344 C 0.21875 1.085938 0 1.574219 0 2.167969 L 0 40.832031 C 0 41.425781 0.21875 41.914062 0.660156 42.347656 C 1.101562 42.78125 1.601562 43 2.207031 43 L 32.714844 43 C 33.324219 43 33.820312 42.78125 34.261719 42.347656 C 34.703125 41.914062 34.921875 41.425781 34.921875 40.832031 L 34.921875 14.261719 L 22.566406 14.261719 C 21.957031 14.261719 21.460938 14.042969 21.019531 13.609375 C 20.578125 13.175781 20.359375 12.6875 20.359375 12.09375 L 20.359375 0 Z M 2.207031 0 "/>
<path style=" stroke:none;fill-rule:nonzero;fill:rgb(14.117647%,18.039216%,28.627451%);fill-opacity:1;" d="M 24.109375 1.519531 C 23.886719 1.300781 23.613281 1.085938 23.28125 0.867188 L 23.28125 11.386719 L 34.039062 11.386719 C 33.820312 11.0625 33.597656 10.789062 33.378906 10.574219 Z M 24.109375 1.519531 "/>
</g>
</svg>
