<svg width="50" height="50" viewBox="0 10 90 70"  xmlns="http://www.w3.org/2000/svg">
<g clip-path="url(#clip0_1498_312)">
<path fill-rule="evenodd" clip-rule="evenodd" d="M11 26.0155C11 17.7322 17.7322 11 26.0155 11C34.2989 11 41.031 17.7632 41.031 26.0155C41.031 34.2678 34.2989 41 26.0155 41C17.7322 41 11 34.2989 11 26.0155ZM16.2741 25.9845C16.2741 27.2875 17.3289 28.3113 18.6009 28.3113C19.8729 28.3113 20.9277 27.2875 20.9277 25.9845C20.9277 24.6815 19.9039 23.6577 18.6009 23.6577C17.2979 23.6577 16.2741 24.6815 16.2741 25.9845ZM26.0156 28.3113C24.7436 28.3113 23.6888 27.2875 23.6888 25.9845C23.6888 24.6815 24.7126 23.6577 26.0156 23.6577C27.3186 23.6577 28.3423 24.6815 28.3423 25.9845C28.3423 27.2875 27.2875 28.3113 26.0156 28.3113ZM31.1034 25.9845C31.1034 27.2875 32.1582 28.3113 33.4302 28.3113C34.7332 28.3113 35.757 27.2875 35.757 25.9845C35.757 24.6815 34.7332 23.6577 33.4302 23.6577C32.1272 23.6577 31.1034 24.6815 31.1034 25.9845Z" />
</g>
<defs>
<clipPath id="clip0_1498_312">
<rect width="52" height="52" fill="white"/>
</clipPath>
</defs>
</svg>
