<?xml version="1.0" encoding="UTF-8"?>
<svg xmlns="http://www.w3.org/2000/svg" xmlns:xlink="http://www.w3.org/1999/xlink" width="28px" height="28px" viewBox="0 0 28 28" version="1.1">
<g id="surface1">
    <path d="M 20.992188 0.667969 C 21.082031 2.285156 20.265625 7.613281 17.058594 11.4375 L 17.367188 12.300781 C 17.941406 13.847656 17.476562 15.59375 16.21875 16.65625 L 13.34375 19.109375 C 12.945312 19.441406 12.304688 19.285156 12.128906 18.777344 L 11.175781 16.148438 C 10.203125 16.722656 9.386719 17.121094 8.8125 17.386719 C 8.324219 17.605469 7.773438 17.496094 7.417969 17.140625 L 3.878906 13.582031 C 3.503906 13.207031 3.394531 12.652344 3.613281 12.1875 C 3.878906 11.613281 4.277344 10.796875 4.851562 9.824219 L 2.222656 8.851562 C 1.714844 8.671875 1.535156 8.03125 1.890625 7.632812 L 4.34375 4.738281 C 5.40625 3.476562 7.152344 3.011719 8.699219 3.589844 L 9.585938 3.921875 C 13.386719 0.714844 18.714844 -0.0820312 20.332031 0.0078125 C 20.53125 0.0078125 20.683594 0.09375 20.792969 0.207031 C 20.90625 0.339844 20.992188 0.492188 20.992188 0.667969 Z M 12.328125 8.671875 C 13.1875 9.515625 14.558594 9.515625 15.398438 8.671875 C 16.238281 7.832031 16.238281 6.460938 15.398438 5.601562 C 14.539062 4.761719 13.167969 4.761719 12.328125 5.601562 C 11.488281 6.460938 11.488281 7.832031 12.328125 8.671875 Z M 12.328125 8.671875 "/>
    <path d="M 5.890625 18.046875 L 4.300781 19.617188 C 3.992188 19.929688 3.992188 20.457031 4.300781 20.769531 C 4.609375 21.078125 5.140625 21.078125 5.449219 20.769531 L 7.042969 19.175781 C 7.351562 18.867188 7.351562 18.335938 7.042969 18.027344 C 6.710938 17.714844 6.203125 17.714844 5.890625 18.046875 Z M 5.890625 18.046875 "/>
    <path d="M 4.984375 16.015625 C 4.675781 15.703125 4.144531 15.703125 3.835938 16.015625 L 1.316406 18.558594 C 1.007812 18.867188 1.007812 19.398438 1.316406 19.707031 C 1.625 20.015625 2.15625 20.015625 2.464844 19.707031 L 4.984375 17.140625 C 5.316406 16.832031 5.316406 16.324219 4.984375 16.015625 Z M 4.984375 16.015625 "/>
    <path d="M 2.972656 15.128906 C 3.285156 14.820312 3.285156 14.289062 2.972656 13.980469 C 2.664062 13.671875 2.132812 13.671875 1.824219 13.980469 L 0.230469 15.570312 C -0.078125 15.882812 -0.078125 16.414062 0.230469 16.722656 C 0.542969 17.03125 1.074219 17.03125 1.382812 16.722656 Z M 2.972656 15.128906 "/>
</g>
</svg>

