<svg width="30" height="26" viewBox="0 0 30 26" fill="none" xmlns="http://www.w3.org/2000/svg">
<path d="M1.07143 6.42857C1.35559 6.42857 1.62811 6.31569 1.82904 6.11476C2.02997 5.91383 2.14286 5.6413 2.14286 5.35714V2.14286H5.35714C5.6413 2.14286 5.91383 2.02997 6.11476 1.82904C6.31569 1.62811 6.42857 1.35559 6.42857 1.07143C6.42857 0.787268 6.31569 0.514746 6.11476 0.313814C5.91383 0.112883 5.6413 0 5.35714 0H2.14286C1.57454 0 1.02949 0.225765 0.627628 0.627628C0.225765 1.02949 0 1.57454 0 2.14286V5.35714C0 5.6413 0.112882 5.91383 0.313814 6.11476C0.514746 6.31569 0.787268 6.42857 1.07143 6.42857Z" fill="#242E49"/>
<path d="M5.35714 23.5715H2.14286V20.3572C2.14286 20.073 2.02997 19.8005 1.82904 19.5996C1.62811 19.3986 1.35559 19.2858 1.07143 19.2858C0.787268 19.2858 0.514746 19.3986 0.313814 19.5996C0.112882 19.8005 0 20.073 0 20.3572V23.5715C0 24.1398 0.225765 24.6848 0.627628 25.0867C1.02949 25.4886 1.57454 25.7143 2.14286 25.7143H5.35714C5.6413 25.7143 5.91383 25.6015 6.11476 25.4005C6.31569 25.1996 6.42857 24.9271 6.42857 24.6429C6.42857 24.3587 6.31569 24.0862 6.11476 23.8853C5.91383 23.6844 5.6413 23.5715 5.35714 23.5715Z" fill="#242E49"/>
<path d="M28.9286 19.2858C28.6444 19.2858 28.3719 19.3986 28.171 19.5996C27.97 19.8005 27.8572 20.073 27.8572 20.3572V23.5715H24.6429C24.3587 23.5715 24.0862 23.6844 23.8853 23.8853C23.6843 24.0862 23.5714 24.3587 23.5714 24.6429C23.5714 24.9271 23.6843 25.1996 23.8853 25.4005C24.0862 25.6015 24.3587 25.7143 24.6429 25.7143H27.8572C28.4255 25.7143 28.9705 25.4886 29.3724 25.0867C29.7742 24.6848 30 24.1398 30 23.5715V20.3572C30 20.073 29.8871 19.8005 29.6862 19.5996C29.4853 19.3986 29.2127 19.2858 28.9286 19.2858Z" fill="#242E49"/>
<path d="M27.8572 0H24.6429C24.3587 0 24.0862 0.112883 23.8853 0.313814C23.6843 0.514746 23.5714 0.787268 23.5714 1.07143C23.5714 1.35559 23.6843 1.62811 23.8853 1.82904C24.0862 2.02997 24.3587 2.14286 24.6429 2.14286H27.8572V5.53929C27.8572 5.82345 27.97 6.09597 28.171 6.2969C28.3719 6.49783 28.6444 6.61071 28.9286 6.61071C29.2127 6.61071 29.4853 6.49783 29.6862 6.2969C29.8871 6.09597 30 5.82345 30 5.53929V2.14286C30 1.57454 29.7742 1.02949 29.3724 0.627628C28.9705 0.225765 28.4255 0 27.8572 0Z" fill="#242E49"/>
<path d="M25.7143 19.2858V6.42862C25.7143 5.8603 25.4886 5.31526 25.0867 4.9134C24.6848 4.51153 24.1398 4.28577 23.5715 4.28577H19.2858V21.4286H23.5715C24.1398 21.4286 24.6848 21.2029 25.0867 20.801C25.4886 20.3991 25.7143 19.8541 25.7143 19.2858Z" fill="#242E49"/>
<path d="M17.1429 4.28577H12.8572V21.4286H17.1429V4.28577Z" fill="#242E49"/>
<path d="M4.28577 6.42862V19.2858C4.28577 19.8541 4.51153 20.3991 4.91339 20.801C5.31526 21.2029 5.8603 21.4286 6.42862 21.4286H10.7143V4.28577H6.42862C5.8603 4.28577 5.31526 4.51153 4.91339 4.9134C4.51153 5.31526 4.28577 5.8603 4.28577 6.42862Z" fill="#242E49"/>
</svg>
