<?xml version="1.0" encoding="UTF-8"?>
<svg xmlns="http://www.w3.org/2000/svg" xmlns:xlink="http://www.w3.org/1999/xlink" width="35px" height="35px" viewBox="0 0 35 35" version="1.1">
<g id="surface1">
    <path d="M 14.574219 10.859375 C 13.917969 10.859375 13.3125 10.984375 12.757812 11.210938 L 12.757812 6.042969 C 12.757812 3.066406 10.339844 0.671875 7.390625 0.671875 C 4.4375 0.671875 2.019531 3.09375 2.019531 6.042969 L 2.019531 15.496094 C 2.019531 18.46875 4.4375 20.867188 7.390625 20.867188 C 8.824219 20.867188 10.136719 20.3125 11.09375 19.378906 C 12.003906 20.261719 13.210938 20.816406 14.574219 20.816406 C 17.320312 20.816406 19.539062 18.597656 19.539062 15.847656 C 19.539062 13.101562 17.320312 10.859375 14.574219 10.859375 Z M 7.390625 19.578125 C 5.121094 19.578125 3.28125 17.738281 3.28125 15.472656 L 3.28125 10.757812 L 11.496094 10.757812 L 11.496094 11.941406 C 10.363281 12.847656 9.632812 14.261719 9.632812 15.824219 C 9.632812 16.757812 9.882812 17.613281 10.339844 18.34375 C 9.582031 19.125 8.523438 19.578125 7.390625 19.578125 Z M 11.472656 13.78125 C 11.09375 14.363281 10.867188 15.066406 10.867188 15.824219 L 18.253906 15.824219 C 18.253906 13.78125 16.589844 12.117188 14.546875 12.117188 C 13.890625 12.117188 13.261719 12.292969 12.734375 12.597656 C 12.230469 12.898438 11.800781 13.304688 11.472656 13.78125 Z M 11.472656 13.78125 "/>
</g>
</svg>