<svg width="32" height="32" viewBox="0 0 32 32" fill="none" xmlns="http://www.w3.org/2000/svg">
<g id="Pilates">
<rect id="Rectangle" width="32" height="32" rx="6" fill="#5B58E5" fill-opacity="0.15"/>
<g id="Group">
<g id="Group_2">
<g id="Group_3">
<path id="Vector" d="M8.86015 13.9734C9.8362 14.7307 11.233 14.5624 11.9734 13.5864C12.7307 12.6103 12.5624 11.2135 11.5864 10.4731C10.6271 9.71581 9.23038 9.8841 8.47309 10.8601C7.71581 11.8194 7.8841 13.2161 8.86015 13.9734Z" fill="#5B58E6"/>
<path id="Vector_2" d="M23.2988 20.7718H16.5506L23.5681 15.3361C24.0561 14.9659 24.1403 14.2591 23.77 13.7711C23.3998 13.2831 22.693 13.1989 22.205 13.5692L16.0626 18.3148L14.3629 16.3122C14.5312 16.3122 14.7163 16.2954 14.9182 16.2617C16.416 16.0429 18.3849 14.7808 18.6037 14.6293C19.058 14.3264 19.1927 13.7038 18.8898 13.2494C18.5868 12.795 17.9642 12.6604 17.5098 12.9633C17.0218 13.2831 15.5241 14.1582 14.6153 14.2928C14.2114 14.3433 13.9085 14.3096 13.6056 14.276C12.68 14.1582 11.8891 14.1245 10.6606 15.2688C9.98747 15.8747 9.86967 16.6993 10.1894 17.3051C10.4755 17.8436 11.4347 19.0216 13.0166 20.7886H8.79265C8.48973 20.7886 8.2373 21.041 8.2373 21.3439C8.2373 21.6468 8.48973 21.8993 8.79265 21.8993H23.2988C23.6017 21.8993 23.8542 21.6468 23.8542 21.3439C23.8542 21.041 23.6186 20.7718 23.2988 20.7718Z" fill="#5B58E6"/>
</g>
</g>
</g>
</g>
</svg>
