<?xml version="1.0" encoding="utf-8"?>
<!-- Generator: Adobe Illustrator 24.0.3, SVG Export Plug-In . SVG Version: 6.00 Build 0)  -->
<svg version="1.1" id="Layer_1" xmlns="http://www.w3.org/2000/svg" xmlns:xlink="http://www.w3.org/1999/xlink" x="0px" y="0px"
	 width="50px" height="50px" viewBox="0 0 50 50" style="enable-background:new 0 0 50 50;" xml:space="preserve">
<style type="text/css">
	.st0{fill:#0078D3;}
</style>
<path class="st0" d="M25,0C11.2,0,0,11.2,0,25s11.2,25,25,25s25-11.2,25-25S38.8,0,25,0z M28.7,20.3l1-1c-0.3-0.7-0.2-1.6,0.4-2.1
	c0.8-0.8,2-0.8,2.7,0c0.8,0.8,0.8,2,0,2.7c-0.6,0.6-1.4,0.7-2.1,0.4l-1.5,1.5c-0.3-0.4-0.6-0.7-0.9-0.9L28.7,20.3z M25,14
	c1.1,0,1.9,0.8,1.9,1.9c0,0.8-0.5,1.5-1.2,1.8v2.2c-0.2,0-0.4,0-0.7,0c-0.2,0-0.4,0-0.7,0v-2.2c-0.7-0.3-1.2-1-1.2-1.8
	C23.1,14.8,23.9,14,25,14z M18.6,16.6c1.1,0,1.9,0.8,1.9,1.9c0,0.3-0.1,0.6-0.2,0.8l1.5,1.5c-0.4,0.3-0.7,0.6-0.9,0.9l-1.5-1.5
	c-0.2,0.1-0.5,0.2-0.8,0.2c-1.1,0-1.9-0.9-1.9-1.9C16.7,17.5,17.5,16.6,18.6,16.6z M14,25.1c0-1.1,0.8-1.9,1.9-1.9
	c0.8,0,1.5,0.5,1.8,1.2h2.1c0,0.2,0,0.4,0,0.5c0,0.3,0,0.5,0,0.8h-2.2c-0.3,0.7-1,1.2-1.8,1.2C14.8,27,14,26.2,14,25.1z M20.5,31.4
	c0,1.1-0.8,1.9-1.9,1.9c-1.1,0-1.9-0.8-1.9-1.9c0-1.1,0.8-1.9,1.9-1.9c0.3,0,0.6,0.1,0.8,0.2l1.5-1.5c0.3,0.4,0.6,0.7,0.9,0.9
	l-1.5,1.5C20.4,30.8,20.5,31.1,20.5,31.4z M25,36c-1.1,0-1.9-0.8-1.9-1.9c0-0.8,0.5-1.5,1.2-1.8v-1.3v-0.8c0.2,0,0.4,0,0.7,0
	c0.2,0,0.4,0,0.7,0v0.8v1.3c0.7,0.3,1.2,1,1.2,1.8C26.9,35.1,26,36,25,36z M25,29.1c-2.3,0-4.1-1.9-4.1-4.1s1.9-4.1,4.1-4.1
	c2.3,0,4.1,1.9,4.1,4.1S27.3,29.1,25,29.1z M31.4,33.3c-1.1,0-1.9-0.8-1.9-1.9c0-0.3,0.1-0.6,0.2-0.8l-1.5-1.5
	c0.4-0.3,0.7-0.6,0.9-0.9l1.5,1.5c0.2-0.1,0.5-0.2,0.8-0.2c1.1,0,1.9,0.8,1.9,1.9C33.3,32.5,32.5,33.3,31.4,33.3z M34.1,26.9
	c-0.8,0-1.5-0.5-1.7-1.2h-2.2c0-0.3,0-0.5,0-0.8c0-0.2,0-0.4,0-0.5h2.1c0.2-0.8,1-1.3,1.8-1.3c1.1,0,1.9,0.8,1.9,1.9
	S35.2,26.9,34.1,26.9z"/>
</svg>
