<?xml version="1.0" encoding="UTF-8"?>
<svg width="20px" height="20px" viewBox="0 0 20 20" version="1.1" xmlns="http://www.w3.org/2000/svg" xmlns:xlink="http://www.w3.org/1999/xlink">
    <title>program-Shape</title>
    <g id="Welcome" stroke="none" stroke-width="1" fill="none" fill-rule="evenodd">
        <g id="Patient-Summary-programs" transform="translate(-365.000000, -653.000000)" fill="#FFFFFF" fill-rule="nonzero">
            <g id="Cards" transform="translate(320.000000, 228.000000)">
                <g id="Table" transform="translate(0.000000, 310.000000)">
                    <g id="Item" transform="translate(1.000000, 75.000000)">
                        <g id="Files-icon" transform="translate(29.000000, 25.000000)">
                            <path d="M33.2836869,23.2618026 C34.2493521,23.2618026 35.0218843,24.0343348 35.0218843,25 C35.0218843,25.9656652 34.2493521,26.7381974 33.2836869,26.7381974 C32.5755324,26.7381974 31.9532148,26.3090129 31.695704,25.6866953 L29.6570774,25.6866953 C29.6999959,25.4506438 29.6999959,25.2145923 29.6999959,24.9785408 C29.6999959,24.806867 29.6999959,24.6351931 29.6785367,24.4849785 L31.6098671,24.4849785 C31.8244594,23.776824 32.4896955,23.2618026 33.2836869,23.2618026 Z M16.7171633,26.8454936 C17.4682362,26.8454936 18.112013,26.3733906 18.3480646,25.7081545 L20.3437727,25.7081545 C20.3008542,25.472103 20.3008542,25.2360515 20.3008542,25 C20.3008542,24.8283262 20.3008542,24.6566524 20.3223135,24.5064378 L18.3695238,24.5064378 C18.1334723,23.8412017 17.4896955,23.3690987 16.7386225,23.3690987 C15.7729573,23.3690987 15.0004251,24.1416309 15.0004251,25.1072961 C14.9789658,26.0729614 15.7729573,26.8454936 16.7171633,26.8454936 Z M24.3995667,18.3690987 L24.3995667,20.3433476 C24.5926997,20.3218884 24.807292,20.3004292 25.0004251,20.3004292 C25.2150173,20.3004292 25.4081504,20.3218884 25.6012834,20.3433476 L25.6012834,18.3690987 C26.2665195,18.1330472 26.7386225,17.4892704 26.7386225,16.7381974 C26.7386225,15.7725322 25.9660903,15 25.0004251,15 C24.0347598,15 23.2622276,15.7725322 23.2622276,16.7381974 C23.2622276,17.4678112 23.7343306,18.111588 24.3995667,18.3690987 Z M28.7128714,22.1244635 L30.1077212,20.7296137 C30.751498,21.0300429 31.5454894,20.9012876 32.0605109,20.3862661 C32.7472062,19.6995708 32.7472062,18.6051502 32.0605109,17.9184549 C31.3738156,17.2317597 30.279395,17.2317597 29.5926997,17.9184549 C29.0562191,18.4549356 28.9489229,19.2274678 29.2493521,19.8712446 L28.3695238,20.751073 L28.3695238,20.751073 L27.8545023,21.2660944 C28.19785,21.5236052 28.4768199,21.8025751 28.7128714,22.1244635 Z M19.142056,20.9012876 C19.3995667,20.9012876 19.6570774,20.8369099 19.8716697,20.7296137 L21.2665195,22.1244635 C21.502571,21.8025751 21.8030002,21.5236052 22.1248886,21.2660944 L20.7300388,19.8712446 C20.8373349,19.6566524 20.9017126,19.3991416 20.9017126,19.1416309 C20.9017126,18.1759657 20.1291804,17.4034335 19.1635152,17.4034335 C18.19785,17.4034335 17.4253178,18.1759657 17.4253178,19.1416309 C17.4038585,20.1072961 18.1763907,20.9012876 19.142056,20.9012876 Z M21.2879787,27.8755365 L19.8931289,29.2703863 C19.6785367,29.1630901 19.4210259,29.0987124 19.1635152,29.0987124 C18.19785,29.0987124 17.4253178,29.8712446 17.4253178,30.8369099 C17.4253178,31.8025751 18.19785,32.5751073 19.1635152,32.5751073 C20.1291804,32.5751073 20.9017126,31.8025751 20.9017126,30.8369099 C20.9017126,30.5793991 20.8373349,30.3218884 20.7300388,30.1072961 L22.1248886,28.7124464 C21.8030002,28.4763948 21.5240302,28.1974249 21.2879787,27.8755365 Z M30.8587942,32.5965665 C31.8244594,32.5965665 32.5969916,31.8240343 32.5969916,30.8583691 C32.5969916,29.8927039 31.8244594,29.1201717 30.8587942,29.1201717 C30.6012834,29.1201717 30.3437727,29.1845494 30.1291804,29.2918455 L28.7343306,27.8969957 C28.4982791,28.2188841 28.19785,28.4978541 27.8759615,28.7553648 L29.2708113,30.1502146 C29.1635152,30.3648069 29.0991375,30.6223176 29.0991375,30.8798283 C29.0991375,31.8240343 29.8931289,32.5965665 30.8587942,32.5965665 Z M25.6012834,29.6566524 C25.4081504,29.6781116 25.1935581,29.6995708 25.0004251,29.6995708 C24.7858328,29.6995708 24.5926997,29.6781116 24.3995667,29.6566524 L24.3995667,30.4077253 L24.3995667,31.6309013 C23.7343306,31.8669528 23.2622276,32.5107296 23.2622276,33.2618026 C23.2622276,34.2274678 24.0347598,35 25.0004251,35 C25.9660903,35 26.7386225,34.2274678 26.7386225,33.2618026 C26.7386225,32.5107296 26.2665195,31.8669528 25.6012834,31.6309013 L25.6012834,30.4077253 L25.6012834,29.6566524 L25.6012834,29.6566524 Z M21.223601,25 C21.223601,22.9184549 22.91888,21.223176 25.0004251,21.223176 C27.0819701,21.223176 28.7772491,22.9184549 28.7772491,25 C28.7772491,27.0815451 27.0819701,28.776824 25.0004251,28.776824 C22.91888,28.776824 21.223601,27.0815451 21.223601,25 Z M22.3609401,25 C22.3609401,26.4592275 23.5411976,27.639485 25.0004251,27.639485 C26.4596525,27.639485 27.63991,26.4592275 27.63991,25 C27.63991,23.5407725 26.4596525,22.360515 25.0004251,22.360515 C23.5411976,22.360515 22.3609401,23.5407725 22.3609401,25 Z M23.669953,25.5793991 C23.9918414,25.5793991 24.2493521,25.3218884 24.2493521,25 C24.2493521,24.5922747 24.5926997,24.248927 25.0004251,24.248927 C25.3223135,24.248927 25.5798242,23.9914163 25.5798242,23.6695279 C25.5798242,23.3476395 25.3223135,23.0901288 25.0004251,23.0901288 C23.9489229,23.0901288 23.0905538,23.9484979 23.0905538,25 C23.0905538,25.3218884 23.3480646,25.5793991 23.669953,25.5793991 Z" id="program-Shape"></path>
                        </g>
                    </g>
                </g>
            </g>
        </g>
    </g>
</svg>