<svg width="32" height="32" viewBox="0 0 32 32" fill="none" xmlns="http://www.w3.org/2000/svg">
<g id="PulseKey">
<rect id="Rectangle" width="32" height="32" rx="6" fill="#E46161" fill-opacity="0.15"/>
<path id="Vector" d="M13.7188 10L13.0375 11.8812L11.5812 15.8875C10.1784 15.8855 9.6713 15.8875 8 15.8875V17.0875C9.8666 17.0875 10.1333 17.0855 12 17.0875H12.4188L12.5625 16.6937L13.4812 14.1625L15.0188 20.625L15.4938 22.6375L16.1688 20.6812L17.9 15.6375L18.4625 16.7562L18.6312 17.0875H19H22.2062C22.3889 17.3274 22.6752 17.4875 23 17.4875C23.5523 17.4875 24 17.0398 24 16.4875C24 15.9352 23.5523 15.4875 23 15.4875C22.6752 15.4875 22.3889 15.6476 22.2062 15.8875H19.375L18.3375 13.8187L17.7 12.5375L17.2312 13.8875L15.7 18.3312L14.1812 11.9437L13.7188 10Z" fill="#E46161"/>
</g>
</svg>
