<svg width="32" height="32" viewBox="0 0 32 32" fill="none" xmlns="http://www.w3.org/2000/svg">
<g id="PumpingKey">
<rect id="Rectangle" width="32" height="32" rx="6" fill="#E16F6F" fill-opacity="0.15"/>
<path id="Vector" d="M22.1504 9.65976C20.365 8.49751 17.9731 9.00284 16.6424 10.6704L16.1708 11.2431C16.0697 11.3779 15.8676 11.3779 15.7665 11.2431L15.1938 10.5356C13.7284 8.66595 10.9323 8.46383 9.1805 10.1482C7.7656 11.5294 7.64769 13.7192 8.69202 15.3699H11.2018L12.3809 13.3991C12.5156 13.1633 12.7683 13.0286 13.021 13.0286C13.2905 13.0286 13.5263 13.1633 13.661 13.3991L15.8002 17.0038L16.5414 15.7405C16.6761 15.5047 16.9288 15.3699 17.1814 15.3699H19.3038C19.7249 15.3699 20.0618 15.7068 20.0618 16.1279C20.0618 16.549 19.7249 16.8859 19.3038 16.8859H17.6531L16.474 18.8566C16.3392 19.0924 16.0866 19.2272 15.8339 19.2272C15.5644 19.2272 15.3286 19.0924 15.1938 18.8566L13.0378 15.252L12.2967 16.5153C12.1619 16.7511 11.9092 16.8859 11.6566 16.8859H9.85426L14.7727 23.0508C15.3791 23.8256 16.5582 23.8256 17.1646 23.0508L23.1106 15.6226C24.5928 13.7529 24.1886 10.9904 22.1504 9.65976Z" fill="#E16F6F"/>
</g>
</svg>
