<?xml version="1.0" encoding="UTF-8"?>
<svg width="60px" height="60px" viewBox="0 0 60 60" version="1.1" xmlns="http://www.w3.org/2000/svg" xmlns:xlink="http://www.w3.org/1999/xlink">
    <title>Questionnaire-icon</title>
    <g id="Design" stroke="none" stroke-width="1" fill="none" fill-rule="evenodd">
        <g id="Tasks" transform="translate(-68.000000, -470.000000)">
            <g id="Noti-holder-1" transform="translate(40.000000, 420.000000)">
                <g id="Content" transform="translate(28.000000, 44.000000)">
                    <g id="Questionnaire-icon" transform="translate(0.000000, 6.000000)">
                        <circle id="Oval" fill="#0078D3" cx="30" cy="30" r="30"></circle>
                        <g id="icon" transform="translate(15.000000, 18.000000)" fill="#FFFFFF" fill-rule="nonzero">
                            <path d="M27.0807692,19.7688462 C27.2076923,19.7007692 27.3346154,19.6396154 27.4592308,19.5923077 L28.395,19.2311538 C29.4853846,18.8111538 29.5015385,18.0819231 28.4307692,17.6123077 L26.2765385,16.6673077 C25.2046154,16.1988462 23.4542308,15.4292308 22.3823077,14.9607692 L20.2280769,14.0157692 C19.155,13.5461538 18.6646154,14.0376923 19.1342308,15.1084615 L20.0803846,17.2638462 C20.5476923,18.3346154 21.3173077,20.0861538 21.7869231,21.1569231 L22.7307692,23.3123077 C23.2015385,24.3830769 23.9296154,24.3657692 24.3507692,23.2753846 L24.7107692,22.3407692 C24.7592308,22.2161538 24.8203846,22.0892308 24.8884615,21.9623077 L27.7246154,24.7984615 L29.9169231,22.6073077 L27.0807692,19.7688462 Z" id="Path"></path>
                            <path d="M0.0819230769,2.11961538 L0.0819230769,5.82230769 C0.0819230769,6.66807692 0.768461538,7.35461538 1.61307692,7.35461538 L6.72230769,7.35461538 L6.72230769,0.587307692 L1.61307692,0.587307692 C0.768461538,0.587307692 0.0819230769,1.27384615 0.0819230769,2.11961538 Z M3.40038462,6.32538462 C3.12692308,6.32538462 2.90423077,6.10384615 2.90423077,5.82807692 C2.90423077,5.55576923 3.12576923,5.33192308 3.40038462,5.33192308 C3.675,5.33192308 3.89769231,5.55461538 3.89769231,5.82807692 C3.89653846,6.10384615 3.675,6.32538462 3.40038462,6.32538462 Z M3.39115385,1.61538462 C3.86653846,1.61538462 4.26576923,1.80692308 4.51384615,2.15538462 C4.76307692,2.50730769 4.83115385,2.97692308 4.68923077,3.38423077 C4.59807692,3.64846154 4.41230769,3.85961538 4.23230769,4.06384615 C3.99461538,4.33269231 3.78807692,4.56461538 3.78807692,4.88653846 L3.01269231,4.88653846 C3.01269231,4.27153846 3.36692308,3.87 3.65192308,3.54923077 C3.78692308,3.39576923 3.91615385,3.25038462 3.95769231,3.13038462 C4.005,2.99076923 4.00269231,2.77269231 3.88269231,2.60653846 C3.78115385,2.46346154 3.61384615,2.39076923 3.39115385,2.39076923 C2.91,2.39076923 2.82,2.95269231 2.81192308,3.01615385 L2.04230769,2.92038462 C2.09769231,2.46923077 2.44961538,1.61538462 3.39115385,1.61538462 Z" id="Shape"></path>
                            <path d="M26.1323077,5.82230769 L26.1323077,2.11961538 C26.1323077,1.27384615 25.4446154,0.587307692 24.6,0.587307692 L8.38269231,0.587307692 L8.38269231,7.35461538 L24.6,7.35461538 C25.4446154,7.35461538 26.1323077,6.66807692 26.1323077,5.82230769 Z" id="Path"></path>
                            <path d="M0.0819230769,10.3534615 L0.0819230769,14.0561538 C0.0819230769,14.9019231 0.768461538,15.5884615 1.61307692,15.5884615 L6.72230769,15.5884615 L6.72230769,8.82115385 L1.61307692,8.82115385 C0.768461538,8.82115385 0.0819230769,9.50538462 0.0819230769,10.3534615 Z M3.40038462,14.5592308 C3.12692308,14.5592308 2.90423077,14.3376923 2.90423077,14.0619231 C2.90423077,13.7884615 3.12576923,13.5657692 3.40038462,13.5657692 C3.675,13.5657692 3.89769231,13.7873077 3.89769231,14.0619231 C3.89653846,14.3376923 3.675,14.5592308 3.40038462,14.5592308 Z M3.39115385,9.84923077 C3.86653846,9.84923077 4.26576923,10.0407692 4.51384615,10.3892308 C4.76423077,10.74 4.83115385,11.2107692 4.68923077,11.6169231 C4.59807692,11.8811538 4.41230769,12.0923077 4.23230769,12.2953846 C3.99576923,12.5653846 3.78807692,12.7984615 3.78807692,13.1203846 L3.01269231,13.1203846 C3.01269231,12.5053846 3.36692308,12.1038462 3.65192308,11.7830769 C3.78692308,11.6284615 3.91615385,11.4830769 3.95769231,11.3642308 C4.005,11.2246154 4.00269231,11.0065385 3.88269231,10.8403846 C3.78230769,10.6973077 3.61615385,10.6246154 3.39230769,10.6246154 C2.91115385,10.6246154 2.82115385,11.1853846 2.81307692,11.25 L2.04230769,11.1542308 C2.09769231,10.7019231 2.44961538,9.84923077 3.39115385,9.84923077 Z" id="Shape"></path>
                            <path d="M0.0819230769,18.585 L0.0819230769,22.2888462 C0.0819230769,23.1346154 0.768461538,23.8211538 1.61307692,23.8211538 L6.72230769,23.8211538 L6.72230769,17.0526923 L1.61307692,17.0526923 C0.768461538,17.0526923 0.0819230769,17.7392308 0.0819230769,18.585 Z M3.40038462,22.7930769 C3.12692308,22.7930769 2.90423077,22.5715385 2.90423077,22.2957692 C2.90423077,22.0223077 3.12576923,21.7996154 3.40038462,21.7996154 C3.675,21.7996154 3.89769231,22.0211538 3.89769231,22.2957692 C3.89653846,22.5715385 3.675,22.7930769 3.40038462,22.7930769 Z M3.39115385,18.0819231 C3.86653846,18.0819231 4.26576923,18.2746154 4.51384615,18.6230769 C4.76423077,18.9738462 4.83115385,19.4446154 4.68923077,19.8507692 C4.59807692,20.115 4.41230769,20.325 4.23230769,20.5292308 C3.99576923,20.7980769 3.78807692,21.0323077 3.78807692,21.3542308 L3.01269231,21.3542308 C3.01269231,20.7380769 3.36692308,20.3376923 3.65192308,20.0157692 C3.78692308,19.8623077 3.91615385,19.7169231 3.95769231,19.5969231 C4.005,19.4573077 4.00269231,19.2403846 3.88269231,19.0730769 C3.78230769,18.9311538 3.61615385,18.8573077 3.39230769,18.8573077 C2.91115385,18.8573077 2.82115385,19.4192308 2.81307692,19.4838462 L2.04230769,19.3869231 C2.09769231,18.9357692 2.44961538,18.0819231 3.39115385,18.0819231 Z" id="Shape"></path>
                            <path d="M17.9584615,13.3430769 C18.2919231,12.8319231 18.8619231,12.5376923 19.5207692,12.5376923 C19.9003846,12.5376923 20.3134615,12.6346154 20.7473077,12.825 L25.7723077,15.0288462 C25.9926923,14.7634615 26.1311538,14.4276923 26.1311538,14.055 L26.1311538,10.3523077 C26.1311538,9.50538462 25.4434615,8.82 24.5988462,8.82 L8.38269231,8.82 L8.38269231,15.5873077 L17.9284615,15.5873077 C17.4623077,14.4923077 17.6838462,13.7619231 17.9584615,13.3430769 Z" id="Path"></path>
                            <polygon id="Path" points="8.38269231 17.0526923 8.38269231 23.8223077 21.5388462 23.8223077 18.5688462 17.0526923"></polygon>
                        </g>
                    </g>
                </g>
            </g>
        </g>
    </g>
</svg>