<?xml version="1.0" encoding="UTF-8"?>
<svg width="80px" height="80px" viewBox="0 0 80 80" version="1.1" xmlns="http://www.w3.org/2000/svg" xmlns:xlink="http://www.w3.org/1999/xlink">
    <title>Questionnaire-avatar</title>
    <g id="Symbols" stroke="none" stroke-width="1" fill="none" fill-rule="evenodd">
        <g id="Questionnaire-card" transform="translate(-84.000000, -30.000000)">
            <g id="User-patient-card">
                <g id="Content" transform="translate(30.000000, 30.000000)">
                    <g id="Questionnaire-avatar" transform="translate(54.000000, 0.000000)">
                        <rect id="Rectangle" fill="#B9DFF5" x="0" y="0" width="80" height="80" rx="8"></rect>
                        <g id="icon" transform="translate(24.000000, 23.333333)">
                            <path d="M31.5811538,24.5374359 C31.5811538,29.1733333 27.8221795,32.9323077 23.185,32.9323077 C18.5491026,32.9323077 14.7901282,29.1733333 14.7901282,24.5374359 C14.7901282,19.9015385 18.5491026,16.1425641 23.185,16.1425641 C27.8221795,16.1425641 31.5811538,19.9015385 31.5811538,24.5374359" id="Fill-5" fill="#F6861F"></path>
                            <path d="M25.7780462,21.4946053 C26.057168,21.1885597 26.5315399,21.1667336 26.8375855,21.4458554 C27.1158088,21.6996025 27.1591399,22.1147133 26.9550106,22.4180275 L26.8863354,22.5053947 L22.8523713,26.9284713 C22.5986141,27.2067057 22.1834828,27.2500277 21.8801676,27.0458752 L21.7928007,26.9771927 L19.494574,24.8809105 C19.1885442,24.6017714 19.1667449,24.1273983 19.445884,23.8213684 C19.6996468,23.5431595 20.11476,23.4998519 20.4180627,23.7039983 L20.505426,23.7726784 L22.249,25.363 L25.7780462,21.4946053 Z" id="Stroke-8" fill="#FFFFFF" fill-rule="nonzero"></path>
                            <path d="M27.5558974,-0.512820513 C28.1081822,-0.512820513 28.5558974,-0.0651052627 28.5558974,0.487179487 C28.5558974,1.00001533 28.1698572,1.42268665 27.6725186,1.48045176 L27.5558974,1.48717949 L3.28923077,1.48717949 C2.3003617,1.48717949 1.48794872,2.29984891 1.48794872,3.28974359 C1.48794872,4.22941266 2.22161403,5.0105246 3.14237271,5.08628662 L3.28923077,5.09230769 L27.5558974,5.09230769 C28.0687333,5.09230769 28.4914046,5.47834788 28.5491697,5.97568657 L28.5558974,6.09230769 L28.5558974,14.5076923 C28.5558974,15.0599771 28.1081822,15.5076923 27.5558974,15.5076923 C27.0430616,15.5076923 26.6203903,15.1216521 26.5626252,14.6243134 L26.5558974,14.5076923 L26.555,7.092 L3.28923077,7.09230769 C1.26143488,7.09230769 -0.404920586,5.48830886 -0.507087534,3.4848348 L-0.512051282,3.28974359 C-0.512051282,1.26086828 1.09058717,-0.405678405 3.09412849,-0.507856249 L3.28923077,-0.512820513 L27.5558974,-0.512820513 Z" id="Stroke-1" fill="#0078D3" fill-rule="nonzero"></path>
                            <path d="M0.662179487,3.27961538 C1.17501533,3.27961538 1.59768665,3.66565557 1.65545176,4.16299426 L1.66217949,4.27961538 L1.66217949,30.6655128 C1.66217949,31.5270849 2.29657317,32.0610416 3.41492242,32.114861 L3.60576923,32.119359 L15.1147436,32.119359 C15.6670283,32.119359 16.1147436,32.5670742 16.1147436,33.119359 C16.1147436,33.6321948 15.7287034,34.0548661 15.2313647,34.1126312 L15.1147436,34.119359 L3.60576923,34.119359 C1.43405726,34.119359 -0.227609449,32.8934978 -0.332553907,30.8704582 L-0.337820513,30.6655128 L-0.337820513,4.27961538 C-0.337820513,3.72733063 0.109894737,3.27961538 0.662179487,3.27961538 Z" id="Stroke-3" fill="#0078D3" fill-rule="nonzero"></path>
                            <path d="M19.5078205,9.1025641 C20.0601053,9.1025641 20.5078205,9.55027935 20.5078205,10.1025641 C20.5078205,10.6153999 20.1217803,11.0380713 19.6244416,11.0958364 L19.5078205,11.1025641 L4.295,11.1025641 C3.74271525,11.1025641 3.295,10.6548489 3.295,10.1025641 C3.295,9.58972826 3.68104019,9.16705694 4.17837887,9.10929183 L4.295,9.1025641 L19.5078205,9.1025641 Z" id="Stroke-10" fill="#0078D3" fill-rule="nonzero"></path>
                            <path d="M15.6616667,13.5897436 C16.2139514,13.5897436 16.6616667,14.0374588 16.6616667,14.5897436 C16.6616667,15.1025794 16.2756265,15.5252508 15.7782878,15.5830159 L15.6616667,15.5897436 L4.295,15.5897436 C3.74271525,15.5897436 3.295,15.1420283 3.295,14.5897436 C3.295,14.0769078 3.68104019,13.6542364 4.17837887,13.5964713 L4.295,13.5897436 L15.6616667,13.5897436 Z" id="Stroke-12" fill="#0078D3" fill-rule="nonzero"></path>
                            <path d="M10.5334615,18.0769231 C11.0857463,18.0769231 11.5334615,18.5246383 11.5334615,19.0769231 C11.5334615,19.5897589 11.1474213,20.0124302 10.6500827,20.0701953 L10.5334615,20.0769231 L4.295,20.0769231 C3.74271525,20.0769231 3.295,19.6292078 3.295,19.0769231 C3.295,18.5640872 3.68104019,18.1414159 4.17837887,18.0836508 L4.295,18.0769231 L10.5334615,18.0769231 Z" id="Stroke-14" fill="#0078D3" fill-rule="nonzero"></path>
                        </g>
                    </g>
                </g>
            </g>
        </g>
    </g>
</svg>