<?xml version="1.0" encoding="UTF-8"?>
<svg width="40px" height="40px" viewBox="0 0 40 40" version="1.1" xmlns="http://www.w3.org/2000/svg" xmlns:xlink="http://www.w3.org/1999/xlink">
    <title>Bluetooth-icon</title>
    <g id="Design" stroke="none" stroke-width="1" fill="none" fill-rule="evenodd">
        <g id="Results-steps" transform="translate(-640.000000, -263.000000)" fill="#0078D3" fill-rule="nonzero">
            <g id="Targets" transform="translate(40.000000, 263.000000)">
                <g id="Group" transform="translate(570.000000, 0.000000)">
                    <path d="M50,0 C38.9543784,0 30,8.95435135 30,19.999973 C30,31.0456486 38.9543784,40.000027 50,40.000027 C61.0456216,40.000027 70,31.0456486 70,19.999973 C70,8.95435135 61.0456216,0 50,0 Z M48.2601081,5.94594595 C48.551263,5.91158463 48.8438897,5.99693409 49.0709189,6.18243243 L57.179027,12.6689189 C57.4357368,12.8740892 57.585199,13.1848771 57.585199,13.5135027 C57.585199,13.8421283 57.4357368,14.1529162 57.179027,14.3580865 L50.0675676,19.999973 L57.179027,25.625 C57.4420976,25.8298554 57.5959355,26.1446296 57.5959355,26.4780541 C57.5959355,26.8114785 57.4420976,27.1262527 57.179027,27.3311081 L49.0709189,33.8175946 C48.7463344,34.0773594 48.3015572,34.1280096 47.926878,33.9478754 C47.5521988,33.7677411 47.3139887,33.3887317 47.3141622,32.973 L47.3141622,22.1621351 L44.2060541,24.6283514 C43.9014686,24.8718079 43.489904,24.9336924 43.1271915,24.7905734 C42.7644791,24.6474543 42.5060627,24.3212088 42.4497871,23.9353637 C42.3935114,23.5495187 42.5479787,23.1630539 42.8547027,22.9222973 L46.5540541,19.999973 L42.8547027,17.0607892 C42.4969168,16.7938375 42.339978,16.3344441 42.4596489,15.9043827 C42.5793198,15.4743213 42.9509935,15.1620221 43.3952432,15.1182486 C43.6863982,15.0838873 43.9790249,15.1692368 44.2060541,15.3547351 L47.3141622,17.8209514 L47.3141622,7.02702703 C47.3099146,6.47900457 47.7163716,6.0144823 48.2601081,5.94594595 L48.2601081,5.94594595 Z M49.4763243,9.27364865 L49.4763243,17.6858162 L54.7635135,13.496627 L49.4763243,9.27364865 Z M49.4763243,22.2972703 L49.4763243,30.7263514 L54.7635135,26.4865135 L49.4763243,22.2972703 Z" id="Bluetooth-icon"></path>
                </g>
            </g>
        </g>
    </g>
</svg>