<?xml version="1.0" encoding="UTF-8"?>
<svg width="30px" height="26px" viewBox="0 0 30 26" version="1.1" xmlns="http://www.w3.org/2000/svg" xmlns:xlink="http://www.w3.org/1999/xlink">
    <title>Note-added</title>
    <g id="Design" stroke="none" stroke-width="1" fill="none" fill-rule="evenodd">
        <g id="Results-steps" transform="translate(-161.000000, -996.000000)">
            <g id="Data" transform="translate(38.000000, 420.000000)">
                <g id="List" transform="translate(2.000000, 508.000000)">
                    <g id="Group-11" transform="translate(28.000000, 24.000000)">
                        <g id="Group-10" transform="translate(0.000000, 39.000000)">
                            <g id="Note-added" transform="translate(93.000000, 5.000000)">
                                <path d="M26.839681,20.7791079 L13.2756854,20.7791079 L6.58005083,25.8007256 C6.31769931,25.9974892 5.96669523,26.0291393 5.67337732,25.8824803 C5.3800594,25.7358214 5.19477697,25.4360281 5.19477697,25.1080887 L5.19477697,20.7791079 L2.59738848,20.7791079 C1.16354318,20.7775332 0.00157463312,19.6155647 -4.19866162e-14,18.1817194 L-4.19866162e-14,2.59738848 C0.00157463312,1.16354318 1.16354318,0.00157463312 2.59738848,-2.90676574e-14 L26.839681,-2.90676574e-14 C28.2735263,0.00157463312 29.4354949,1.16354318 29.4370695,2.59738848 L29.4370695,18.1817194 C29.4354949,19.6155647 28.2735263,20.7775332 26.839681,20.7791079 L26.839681,20.7791079 Z" id="Path" fill="#B0B0B0"></path>
                                <polygon id="Path" fill="#FFFFFF" points="8.65796161 9.52375778 6.92636929 9.52375778 6.92636929 11.2553501 8.65796161 11.2553501"></polygon>
                                <polygon id="Path" fill="#FFFFFF" points="15.5843309 9.52375778 13.8527386 9.52375778 13.8527386 11.2553501 15.5843309 11.2553501"></polygon>
                                <polygon id="Path" fill="#FFFFFF" points="22.5107002 9.52375778 20.7791079 9.52375778 20.7791079 11.2553501 22.5107002 11.2553501"></polygon>
                            </g>
                        </g>
                    </g>
                </g>
            </g>
        </g>
    </g>
</svg>