<?xml version="1.0" encoding="UTF-8"?>
<svg width="60" height="60" viewBox="0 0 60 60" fill="none" xmlns="http://www.w3.org/2000/svg">
	<rect width="60" height="60" rx="14.4" fill="#83388F" fill-opacity="0.15"/>
	<path d="M51.1983 38.2598C49.8766 30.0204 45.9459 22.9197 40.4974 18.2837C38.2303 16.3548 34.7387 17.991 34.7387 20.9676V39.1327C34.7387 39.8244 34.8749 40.5094 35.1397 41.1484C35.4044 41.7875 35.7924 42.3682 36.2815 42.8573C36.7706 43.3464 37.3513 43.7344 37.9903 43.9991C38.6294 44.2638 39.3144 44.4001 40.0061 44.4001H45.9981C49.2549 44.4001 51.7141 41.4756 51.1983 38.2598Z" fill="#83388F"/>
	<path d="M19.1695 18.2837C13.7209 22.9197 9.7903 30.0204 8.4686 38.2598C7.95275 41.4756 10.4119 44.4 13.6688 44.4H19.6608C20.3525 44.4 21.0375 44.2638 21.6765 43.9991C22.3156 43.7344 22.8963 43.3464 23.3854 42.8573C23.8746 42.3682 24.2626 41.7875 24.5273 41.1484C24.792 40.5093 24.9282 39.8244 24.9282 39.1327V20.9676C24.9282 17.991 21.4366 16.3548 19.1695 18.2837Z" fill="#83388F"/>
	<path d="M31.4328 14.4H28.2338V21.9319C28.234 22.3654 28.1487 22.7948 27.9826 23.1953C27.8166 23.5958 27.5732 23.9596 27.2664 24.2659V27.9908C28.2552 27.6078 29.1361 26.9901 29.8333 26.191C30.5304 26.9901 31.4113 27.6078 32.4002 27.9908V24.2661C32.0933 23.9598 31.8499 23.596 31.6839 23.1954C31.5179 22.7949 31.4325 22.3655 31.4327 21.9319L31.4328 14.4Z" fill="#83388F"/>
</svg>
