<svg width="32" height="32" viewBox="0 0 32 32" fill="none" xmlns="http://www.w3.org/2000/svg">
<g id="Running">
<rect id="Rectangle" width="32" height="32" rx="6" fill="#B96363" fill-opacity="0.15"/>
<g id="Group">
<path id="Vector" d="M19.4117 23.9996C19.4064 23.9994 19.401 23.9994 19.3955 23.999C19.4008 23.9992 19.4062 23.9994 19.4117 23.9996Z" fill="#B96363"/>
<path id="Vector_2" d="M11.4702 12.5109C11.4277 12.5534 11.3836 12.5984 11.3398 12.6423C11.4449 12.5422 11.5523 12.4485 11.6618 12.3604C11.5976 12.4087 11.5336 12.4581 11.4702 12.5109Z" fill="#B96363"/>
<path id="Vector_3" d="M19.2872 11.1733C19.3236 11.1403 19.3576 11.1049 19.3914 11.0693C19.0737 11.3632 18.6489 11.541 18.1846 11.541C18.6193 11.5408 18.9869 11.4075 19.2872 11.1733Z" fill="#B96363"/>
<path id="Vector_4" d="M19.5174 14.8291C19.5021 14.8303 19.4868 14.8311 19.4717 14.8321C19.487 14.8311 19.5023 14.8303 19.5174 14.8291Z" fill="#B96363"/>
<path id="Vector_5" d="M18.7856 14.8225C18.7481 14.819 18.7105 14.816 18.6729 14.8115C18.7104 14.816 18.7479 14.8192 18.7856 14.8225Z" fill="#B96363"/>
<path id="Vector_6" d="M20.0564 12.911C20.0521 12.9153 20.0482 12.9178 20.0439 12.921C20.104 12.8979 20.1634 12.8712 20.2224 12.8428C20.1673 12.8684 20.1119 12.8913 20.0564 12.911Z" fill="#B96363"/>
<path id="Vector_7" d="M17.6508 12.6106C17.6172 12.5772 17.5502 12.5439 17.5166 12.5439C17.5573 12.5679 17.5975 12.5882 17.638 12.6106H17.6508Z" fill="#B96363"/>
<path id="Vector_8" d="M21.489 14.1377C21.4759 14.1464 21.4624 14.1544 21.4492 14.1629C21.4626 14.1544 21.4759 14.1462 21.489 14.1377Z" fill="#B96363"/>
<path id="Vector_9" d="M10.7266 13.3291C10.7632 13.2813 10.8003 13.2347 10.8377 13.1885C10.8 13.2345 10.7632 13.2815 10.7266 13.3291Z" fill="#B96363"/>
<path id="Vector_10" d="M20.0563 23.8025C20.0755 23.7833 20.0922 23.762 20.1094 23.7412C19.9867 23.853 19.8335 23.9332 19.6699 23.9725C19.8079 23.9409 19.9405 23.8829 20.0563 23.8025Z" fill="#B96363"/>
<path id="Vector_11" d="M16.8152 18.1894C16.7518 18.1471 16.6842 18.1048 16.6152 18.0625C16.6817 18.1037 16.7484 18.1464 16.8151 18.1896L16.8152 18.1894Z" fill="#B96363"/>
<path id="Vector_12" d="M18.1934 14.7281C18.0906 14.7046 17.9879 14.6792 17.8848 14.6484C17.9879 14.679 18.0908 14.705 18.1934 14.7281Z" fill="#B96363"/>
<path id="Vector_13" d="M19.3276 23.9924C19.3168 23.9909 19.3058 23.9901 19.2949 23.9883C19.3058 23.9899 19.3168 23.9909 19.3276 23.9924Z" fill="#B96363"/>
<path id="Vector_14" d="M16.8825 12.1765C15.7132 11.475 14.5443 11.2746 13.4751 11.475C13.4751 11.48 13.4729 11.4832 13.4717 11.4869C14.5448 11.265 15.7134 11.485 16.8825 12.1765Z" fill="#B96363"/>
<path id="Vector_15" d="M21.5569 11.6309C21.5356 11.6447 21.5143 11.6591 21.4936 11.6751C21.4602 11.7087 21.4268 11.7425 21.3936 11.8094C21.4433 11.7395 21.4986 11.681 21.5569 11.6309Z" fill="#B96363"/>
<path id="Vector_16" d="M18.6533 23.502C18.795 23.7853 19.0188 23.934 19.2608 23.9816C19.022 23.9326 18.7984 23.7829 18.6533 23.502Z" fill="#B96363"/>
<path id="Vector_17" d="M17.0509 8.41797C17.0279 8.43415 17.0047 8.44997 16.9828 8.46686C16.9316 8.51806 16.8838 8.57353 16.8379 8.6306C16.903 8.55415 16.9741 8.48286 17.0509 8.41797Z" fill="#B96363"/>
<path id="Vector_18" d="M21.9276 13.8129C21.9447 13.7976 21.9605 13.7811 21.9774 13.7656C21.9465 13.7923 21.9161 13.8207 21.8848 13.8465C21.899 13.8348 21.9134 13.8245 21.9276 13.8129Z" fill="#B96363"/>
<path id="Vector_19" d="M21.7924 13.9189C21.7462 13.9552 21.6993 13.9899 21.6523 14.024C21.6995 13.9902 21.746 13.9549 21.7924 13.9189Z" fill="#B96363"/>
<path id="Vector_20" d="M20.2461 12.8318C20.2875 12.8113 20.3288 12.7907 20.3695 12.7676C20.3286 12.7902 20.2873 12.8122 20.2461 12.8318Z" fill="#B96363"/>
<path id="Vector_21" d="M21.5566 11.6302C21.4983 11.6803 21.443 11.7388 21.3932 11.8087C21.0805 12.2425 20.7368 12.5584 20.3695 12.7671C20.3288 12.7902 20.2874 12.8108 20.2462 12.8313C20.2383 12.8352 20.2303 12.8387 20.2225 12.8427C20.1635 12.8711 20.1041 12.8978 20.044 12.9209C19.3094 13.2023 18.4923 13.083 17.6387 12.6105C17.5982 12.5881 17.558 12.5678 17.5173 12.5438C17.4172 12.477 16.9827 12.2094 16.8826 12.176C15.7135 11.4845 14.5447 11.2646 13.4718 11.4863C12.827 11.6195 12.2168 11.9127 11.6621 12.3596C11.5526 12.4478 11.4452 12.5415 11.3401 12.6416C11.1661 12.8075 10.9986 12.99 10.8381 13.1885C10.8007 13.2347 10.7634 13.2811 10.7269 13.3291C10.6733 13.3995 10.6201 13.4715 10.5682 13.5456C9.90024 14.4813 11.4704 15.3834 12.1055 14.4482C12.9402 13.2788 13.9763 12.9445 15.1126 13.312C14.5446 14.3478 14.0099 15.3498 13.308 16.7534C12.5727 18.1899 11.0029 19.3258 9.46538 18.457C8.36346 17.789 7.39434 19.3927 8.46355 20.0275C10.568 21.2301 13.0072 20.4953 14.2432 18.9249C14.2766 18.9249 14.3433 18.958 14.3767 18.958C15.4125 19.3258 16.7491 20.261 17.1502 20.5957C17.5507 20.9294 18.2523 22.6335 18.6535 23.5018C18.7984 23.7827 19.0223 23.9324 19.261 23.9815C19.2724 23.9838 19.2836 23.9865 19.295 23.9884C19.3058 23.9902 19.3169 23.9911 19.3277 23.9925C19.3503 23.9954 19.3731 23.9975 19.3958 23.9987C19.4011 23.9991 19.4065 23.9991 19.412 23.9993C19.4404 24.0002 19.4689 23.9998 19.4973 23.9982C19.4996 23.998 19.5019 23.998 19.5044 23.9979C19.5341 23.9959 19.5638 23.9927 19.5933 23.9879C19.5965 23.9874 19.5997 23.987 19.6027 23.9865C19.6255 23.9826 19.6479 23.9778 19.6701 23.9724C19.8337 23.9331 19.9869 23.853 20.1096 23.7411C20.3626 23.5107 20.4847 23.1475 20.2908 22.7334C19.8227 21.7647 19.021 19.8268 18.4198 19.3258C18.0528 19.0565 17.435 18.5908 16.8158 18.1901C16.7491 18.1469 16.6824 18.1042 16.6159 18.063C16.4566 17.964 16.2991 17.8712 16.1475 17.789C16.7155 16.7198 17.2837 15.6844 17.885 14.6486C17.9881 14.6794 18.091 14.7048 18.1936 14.7283C18.243 14.7396 18.2923 14.7489 18.3417 14.7585C18.3938 14.7686 18.4459 14.778 18.4978 14.7864C18.5561 14.7958 18.6144 14.8044 18.6726 14.8113C18.7103 14.8159 18.7478 14.8188 18.7853 14.8223C19.0164 14.8442 19.2452 14.8472 19.4712 14.8319C19.4865 14.8308 19.5018 14.8301 19.5169 14.8289C19.5969 14.8225 19.6765 14.8138 19.7558 14.8028C19.7613 14.802 19.767 14.801 19.7725 14.8003C20.3608 14.7158 20.9248 14.5026 21.4491 14.1629C21.4622 14.1544 21.4757 14.1464 21.4889 14.1377C21.5436 14.1014 21.5979 14.0633 21.6519 14.0242C21.699 13.9901 21.7458 13.9554 21.792 13.9192C21.8228 13.895 21.8539 13.8719 21.8845 13.8468C21.9158 13.821 21.9462 13.7926 21.9771 13.7659C22.3175 13.4722 22.6377 13.1225 22.9298 12.7106C23.5478 11.8451 22.2791 11.0091 21.5566 11.6302Z" fill="#B96363"/>
<path id="Vector_22" d="M18.1851 11.5411C18.6495 11.5411 19.0742 11.3635 19.3919 11.0695C19.7373 10.7498 19.9562 10.2926 19.9562 9.7704C19.9562 8.80182 19.1542 8 18.1851 8C17.7554 8 17.3593 8.15841 17.0506 8.41851C16.9738 8.4834 16.9025 8.55452 16.8375 8.63132C16.575 8.94067 16.415 9.33873 16.415 9.77057C16.415 10.7731 17.2165 11.5411 18.1851 11.5411Z" fill="#B96363"/>
</g>
</g>
</svg>
