<svg width="20" height="20" viewBox="0 0 20 20" fill="none" xmlns="http://www.w3.org/2000/svg">
<path fill-rule="evenodd" clip-rule="evenodd" d="M17.2621 7.63843L19.53 8.23771C19.7918 8.30672 19.9748 8.54273 19.9765 8.81349V11.1636C19.9794 11.4246 19.8131 11.6575 19.5652 11.7394L17.2974 12.3034C17.1584 12.7053 16.9935 13.0978 16.8039 13.4785L17.9789 15.476C18.1202 15.7073 18.081 16.0058 17.8849 16.1928L16.2281 17.8497C16.041 18.0458 15.7426 18.0849 15.5113 17.9437L13.5137 16.7686C13.1331 16.9583 12.7406 17.1231 12.3386 17.2621L11.7159 19.5535C11.6469 19.8153 11.4109 19.9983 11.1401 20H8.78999C8.51923 19.9983 8.28322 19.8153 8.21421 19.5535L7.65018 17.2856C7.24826 17.1466 6.85576 16.9818 6.47513 16.7921L4.47754 17.9672C4.24626 18.1084 3.94779 18.0693 3.76076 17.8732L2.12743 16.2281C1.93132 16.041 1.89217 15.7426 2.03343 15.5113L3.20848 13.5137C3.0188 13.1331 2.85395 12.7406 2.71496 12.3386L0.447104 11.7394C0.185282 11.6704 0.00225931 11.4344 0.000583912 11.1636V8.81349C-0.0114132 8.54068 0.16253 8.29426 0.423603 8.21421L2.69146 7.65018C2.83045 7.24826 2.9953 6.85576 3.18498 6.47513L2.00993 4.47754C1.86867 4.24626 1.90782 3.94779 2.10393 3.76076L3.74901 2.12743C3.93604 1.93132 4.23451 1.89217 4.46579 2.03343L6.46338 3.20848C6.84401 3.0188 7.23651 2.85395 7.63843 2.71496L8.23771 0.447104C8.30672 0.185282 8.54273 0.00225931 8.81349 0.000583912H11.1636C11.4364 -0.0114132 11.6828 0.16253 11.7629 0.423603L12.3269 2.69146C12.7288 2.83045 13.1213 2.9953 13.502 3.18498L15.4995 2.00993C15.7308 1.86867 16.0293 1.90782 16.2163 2.10393L17.8497 3.74901C18.0458 3.93604 18.0849 4.23451 17.9437 4.46579L16.7686 6.46338C16.9583 6.84401 17.1231 7.23651 17.2621 7.63843ZM6.46338 9.98854C6.46338 11.9354 8.04165 13.5137 9.98854 13.5137C10.9235 13.5137 11.8201 13.1423 12.4812 12.4812C13.1423 11.8201 13.5137 10.9235 13.5137 9.98854C13.5137 8.04165 11.9354 6.46338 9.98854 6.46338C8.04165 6.46338 6.46338 8.04165 6.46338 9.98854Z" fill="#B0B0B0"/>
</svg>
