<?xml version="1.0" encoding="UTF-8"?>
<svg version="1.1" xmlns="http://www.w3.org/2000/svg" width="372" height="88">
<path d="M0 0 C122.76 0 245.52 0 372 0 C372 29.04 372 58.08 372 88 C249.24 88 126.48 88 0 88 C0 58.96 0 29.92 0 0 Z " fill="#FDFDFE" transform="translate(0,0)"/>
<path d="M0 0 C21.52808989 0 21.52808989 0 29.37109375 7.05078125 C33.38615608 11.85537622 33.3651154 16.82737303 33.375 22.8125 C33.39949219 23.58142578 33.42398438 24.35035156 33.44921875 25.14257812 C33.47833821 30.89367083 32.26045708 35.22343038 29 40 C27.03515625 41.83984375 27.03515625 41.83984375 25.0625 42.9375 C24.41410156 43.31777344 23.76570313 43.69804688 23.09765625 44.08984375 C15.67689492 47.30965267 8.11000523 46 0 46 C0 30.82 0 15.64 0 0 Z " fill="#FBFDFD" transform="translate(221,19)"/>
<path d="M0 0 C2.89809084 3.44093729 4.54542567 7.24795093 6.25 11.36328125 C6.54938477 12.07348923 6.84876953 12.7836972 7.15722656 13.51542664 C8.11005173 15.77896082 9.05516554 18.04562038 10 20.3125 C10.63490082 21.82508642 11.27031247 23.33745853 11.90625 24.84960938 C13.08132601 27.6449141 14.25306519 30.44157206 15.421875 33.23950195 C16.92649183 36.83565984 18.45962067 40.41902403 20 44 C22.76927857 40.68479707 24.38170332 37.10739119 25.99609375 33.14453125 C26.2709108 32.48345871 26.54572784 31.82238617 26.82887268 31.14128113 C27.70377559 29.03386016 28.57090964 26.92335098 29.4375 24.8125 C30.58010896 22.04737992 31.72564687 19.28347667 32.87109375 16.51953125 C33.14384125 15.85970245 33.41658875 15.19987366 33.69760132 14.52005005 C35.71859797 9.64195466 37.82240844 4.80996269 40 0 C40.66 0.33 41.32 0.66 42 1 C42.60668945 3.21118164 42.60668945 3.21118164 43.11328125 6.16015625 C43.30696289 7.25287842 43.50064453 8.34560059 43.70019531 9.47143555 C43.90225586 10.65648682 44.10431641 11.84153809 44.3125 13.0625 C44.74890967 15.52907032 45.18776387 17.99520922 45.62890625 20.4609375 C45.85336426 21.71616211 46.07782227 22.97138672 46.30908203 24.26464844 C47.53896133 30.91381921 48.95582104 37.52297044 50.38793945 44.13110352 C51.518784 49.41501283 52.41910229 54.62669623 53 60 C50.69 60 48.38 60 46 60 C43.69 48.12 41.38 36.24 39 24 C38.34 24 37.68 24 37 24 C36.54109375 25.2065625 36.0821875 26.413125 35.609375 27.65625 C34.98979448 29.27091437 34.36999087 30.88549315 33.75 32.5 C33.44964844 33.29148438 33.14929688 34.08296875 32.83984375 34.8984375 C31.08507481 39.45336965 29.16394734 43.83260075 26.93261719 48.17382812 C25.61974641 50.74458033 24.43438005 53.36804434 23.25 56 C22.82203125 56.94875 22.3940625 57.8975 21.953125 58.875 C21.48132813 59.926875 21.48132813 59.926875 21 61 C18.83160252 58.2824604 17.29354632 55.70993306 15.94921875 52.5078125 C15.58304443 51.64373779 15.21687012 50.77966309 14.83959961 49.8894043 C14.45940674 48.97715088 14.07921387 48.06489746 13.6875 47.125 C12.89064305 45.23827363 12.09376798 43.3515549 11.296875 41.46484375 C10.90822266 40.53913574 10.51957031 39.61342773 10.11914062 38.65966797 C8.57685584 34.99438645 7.00867346 31.34046616 5.4375 27.6875 C4.625 25.79166667 3.8125 23.89583333 3 22 C0.87135997 24.12864003 1.11163075 28.49098301 0.6875 31.4375 C-0.75609622 41.07223647 -2.76886213 50.52049544 -5 60 C-7.31 60 -9.62 60 -12 60 C-11.09085754 52.45172514 -9.88375005 45.12426032 -8.0625 37.75 C-6.03998607 29.54726943 -4.648934 21.30055887 -3.3203125 12.96191406 C-1.43902439 1.43902439 -1.43902439 1.43902439 0 0 Z " fill="#3798B9" transform="translate(156,12)"/>
<path d="M0 0 C32.66101695 0 32.66101695 0 41.9375 8.6875 C48.02453733 16.36807777 48.96349873 25.46778594 48 35 C46.04964609 43.78322643 41.96807294 50.6071697 34.4375 55.75 C23.96497388 61.12052622 11.16897131 58 0 58 C0 38.86 0 19.72 0 0 Z M7 6 C7 21.18 7 36.36 7 52 C22.31494371 52.77498578 22.31494371 52.77498578 34.875 46.6875 C39.49282216 40.84731315 40.48233246 36.22705257 40.375 29 C40.38660156 28.21882813 40.39820313 27.43765625 40.41015625 26.6328125 C40.38091571 20.84318504 39.26733075 16.74899169 35.4921875 12.171875 C26.86521204 4.58680479 18.65579372 6 7 6 Z " fill="#3295B7" transform="translate(214,13)"/>
<path d="M0 0 C2.98074774 1.49037387 3.32114945 3.63686627 4.6171875 6.67578125 C5.13643799 7.88395508 5.65568848 9.09212891 6.19067383 10.33691406 C6.75231595 11.6620246 7.3137533 12.98722194 7.875 14.3125 C8.45085054 15.66007251 9.0272729 17.0074008 9.60424805 18.35449219 C10.8019844 21.15312512 11.99607791 23.9532758 13.18798828 26.75439453 C14.95163511 30.89408368 16.73736989 35.0239851 18.52734375 39.15234375 C19.35629523 41.06862451 20.18477954 42.98510628 21.01300049 44.90170288 C21.80435636 46.73117338 22.59821037 48.55956263 23.39208984 50.38793945 C24.10486084 52.04442505 24.10486084 52.04442505 24.83203125 53.734375 C25.25202393 54.70600586 25.6720166 55.67763672 26.10473633 56.67871094 C27 59 27 59 27 61 C24.36 61 21.72 61 19 61 C18.66226563 60.11957031 18.32453125 59.23914063 17.9765625 58.33203125 C17.53054687 57.17058594 17.08453125 56.00914063 16.625 54.8125 C16.18414062 53.66394531 15.74328125 52.51539063 15.2890625 51.33203125 C14.21171783 48.54725851 13.10893741 45.77234352 12 43 C4.41 42.67 -3.18 42.34 -11 42 C-11.99 44.97 -12.98 47.94 -14 51 C-14.70918291 52.86190162 -15.43412735 54.71803593 -16.1875 56.5625 C-16.53167969 57.40941406 -16.87585938 58.25632813 -17.23046875 59.12890625 C-17.48441406 59.74636719 -17.73835938 60.36382812 -18 61 C-20.64 61 -23.28 61 -26 61 C-25.58979123 59.68546734 -25.17131747 58.37351447 -24.75 57.0625 C-24.51796875 56.33160156 -24.2859375 55.60070312 -24.046875 54.84765625 C-22.56168645 50.80772173 -20.76997261 46.92202417 -19 43 C-18.07574712 40.92626039 -17.15264605 38.85200719 -16.23046875 36.77734375 C-15.73708008 35.6685083 -15.24369141 34.55967285 -14.73535156 33.41723633 C-9.78742772 22.29377285 -4.85546794 11.16415691 0 0 Z " fill="#3697B8" transform="translate(115,11)"/>
<path d="M0 0 C2.06539507 2.60039609 3.58320311 5.0158878 4.83203125 8.08984375 C5.15236328 8.86714844 5.47269531 9.64445312 5.80273438 10.4453125 C6.13595703 11.26773437 6.46917969 12.09015625 6.8125 12.9375 C9.11077296 18.50881616 11.43142303 24.04617219 14 29.5 C16.54291908 34.92815419 18.91856023 40.41611195 21.25 45.9375 C21.59160156 46.74316406 21.93320312 47.54882812 22.28515625 48.37890625 C24.03201663 52.54074892 25.64400878 56.68988504 27 61 C24.36 61 21.72 61 19 61 C17.82905995 58.2100561 16.66309073 55.41821403 15.5 52.625 C15.16613281 51.8309375 14.83226562 51.036875 14.48828125 50.21875 C14.01455078 49.07792969 14.01455078 49.07792969 13.53125 47.9140625 C13.23798828 47.2123291 12.94472656 46.5105957 12.64257812 45.78759766 C12 44 12 44 12 42 C4.41 42.33 -3.18 42.66 -11 43 C-11.969375 45.2275 -12.93875 47.455 -13.9375 49.75 C-14.24163818 50.44448242 -14.54577637 51.13896484 -14.85913086 51.85449219 C-16.15984369 54.86703523 -17.35668847 57.77529915 -18 61 C-20.64 61 -23.28 61 -26 61 C-24.01091727 54.66478391 -21.64070844 48.60450821 -18.9453125 42.5390625 C-18.5618869 41.6678476 -18.1784613 40.79663269 -17.78341675 39.89901733 C-16.5676978 37.13933809 -15.34638112 34.38217717 -14.125 31.625 C-13.31344724 29.78401055 -12.50224646 27.9428659 -11.69140625 26.1015625 C-7.84557232 17.37762594 -3.98277502 8.66247276 0 0 Z " fill="#3697B8" transform="translate(338,11)"/>
<path d="M0 0 C2.31 0 4.62 0 7 0 C7 7.26 7 14.52 7 22 C17.23 22 27.46 22 38 22 C38 14.74 38 7.48 38 0 C40.31 0 42.62 0 45 0 C45 19.47 45 38.94 45 59 C42.69 59 40.38 59 38 59 C38 49.1 38 39.2 38 29 C27.77 29 17.54 29 7 29 C7 38.9 7 48.8 7 59 C4.69 59 2.38 59 0 59 C0 39.53 0 20.06 0 0 Z " fill="#3295B7" transform="translate(265,13)"/>
<path d="M0 0 C3.96 0 7.92 0 12 0 C12.04898438 1.20398437 12.09796875 2.40796875 12.1484375 3.6484375 C12.22346343 5.22398198 12.29901133 6.79950166 12.375 8.375 C12.4059375 9.1690625 12.436875 9.963125 12.46875 10.78125 C12.51816421 15.36667375 12.51816421 15.36667375 15 19 C17.10820797 18.6814823 17.10820797 18.6814823 19 18 C19 16.35 19 14.7 19 13 C17.35 12.34 15.7 11.68 14 11 C14 7.37 14 3.74 14 0 C20.19309134 0.37533887 24.13001329 0.82572568 29 5 C32.37306504 8.82280705 32.5157342 12.58920069 32.34765625 17.5 C31.62631551 22.68716938 29.2464238 25.78473679 25.5 29.4375 C20.31846777 31.75068403 15.58362338 31.73630198 10 31 C5.00640554 28.85988809 3.09507755 26.02145133 0.8203125 21.32226562 C-0.61927507 17.24686176 -0.42059095 13.27133484 -0.25 9 C-0.23195312 8.12988281 -0.21390625 7.25976562 -0.1953125 6.36328125 C-0.14868436 4.24170093 -0.07696077 2.12069665 0 0 Z " fill="#737373" transform="translate(44,43)"/>
<path d="M0 0 C0 3.63 0 7.26 0 11 C-1.98 11.33 -3.96 11.66 -6 12 C-6.16687448 14.41645782 -6.16687448 14.41645782 -6 17 C-5.34 17.66 -4.68 18.32 -4 19 C-1.91666667 18.83333333 -1.91666667 18.83333333 0 18 C1.585869 14.828262 1.37866445 11.36486178 1.5625 7.875 C1.60568359 7.12089844 1.64886719 6.36679687 1.69335938 5.58984375 C1.7994832 3.72678112 1.90025001 1.86341476 2 0 C5.63 0 9.26 0 13 0 C13.08127476 3.20884784 13.14063141 6.41561761 13.1875 9.625 C13.21263672 10.52863281 13.23777344 11.43226562 13.26367188 12.36328125 C13.33978595 19.31503383 12.15033158 23.46371147 7.5625 28.875 C3.72523942 31.82969065 -0.40341409 31.69161663 -5.0859375 31.48828125 C-10.55364962 30.57210965 -13.37471492 27.83499928 -16.9375 23.8125 C-18.98597987 18.39005329 -18.72113183 13.04953258 -16.8125 7.625 C-12.24332998 1.00758136 -7.7446074 -0.14612467 0 0 Z " fill="#717171" transform="translate(29,43)"/>
<path d="M0 0 C3.0873973 2.46991784 5.41669843 5.20839687 7.1875 8.75 C7.77856487 14.43331608 7.45993416 18.89777003 4.1875 23.75 C-0.74729895 28.31468903 -4.18848449 28.87498142 -10.8125 28.75 C-10.8125 25.12 -10.8125 21.49 -10.8125 17.75 C-9.1625 17.42 -7.5125 17.09 -5.8125 16.75 C-5.8125 14.77 -5.8125 12.79 -5.8125 10.75 C-7.47861905 10.707279 -9.14632885 10.70936168 -10.8125 10.75 C-12.93175604 12.86925604 -12.23081017 17.3696093 -12.375 20.3125 C-12.41818359 21.11880859 -12.46136719 21.92511719 -12.50585938 22.75585938 C-12.61225262 24.75368805 -12.71290888 26.7518207 -12.8125 28.75 C-16.4425 28.75 -20.0725 28.75 -23.8125 28.75 C-23.97522563 25.22729153 -24.09374709 21.71216307 -24.1875 18.1875 C-24.23777344 17.19685547 -24.28804687 16.20621094 -24.33984375 15.18554688 C-24.44195895 10.06276783 -24.33114142 6.65974812 -20.96484375 2.62890625 C-15.06527933 -3.36373715 -7.38263026 -3.281169 0 0 Z " fill="#717171" transform="translate(68.8125,12.25)"/>
<path d="M0 0 C3.56849155 2.95675015 5.90179093 5.62943973 6.5090332 10.26928711 C6.58048965 13.0853783 6.536679 15.87234233 6.4375 18.6875 C6.41945313 19.66203125 6.40140625 20.6365625 6.3828125 21.640625 C6.33592913 24.03167673 6.26419352 26.42221873 6.1875 28.8125 C2.5575 28.8125 -1.0725 28.8125 -4.8125 28.8125 C-4.87308594 27.59691406 -4.93367188 26.38132812 -4.99609375 25.12890625 C-5.08048332 23.54425772 -5.1651321 21.95962298 -5.25 20.375 C-5.28931641 19.57255859 -5.32863281 18.77011719 -5.36914062 17.94335938 C-5.2179296 14.06010439 -5.2179296 14.06010439 -6.8125 10.8125 C-8.47867115 10.77186168 -10.14638095 10.769779 -11.8125 10.8125 C-12.1425 12.4625 -12.4725 14.1125 -12.8125 15.8125 C-10.8325 16.4725 -8.8525 17.1325 -6.8125 17.8125 C-6.8125 21.4425 -6.8125 25.0725 -6.8125 28.8125 C-15.51785714 29.61607143 -15.51785714 29.61607143 -19.75 26.125 C-23.571543 22.32999549 -24.8720722 19.16452342 -25.0625 13.8125 C-24.90807184 9.47225606 -24.38870091 6.44031454 -21.26171875 3.2109375 C-14.69873859 -2.71963558 -8.26054833 -3.48778707 0 0 Z " fill="#3094B6" transform="translate(35.8125,12.1875)"/>
<path d="M0 0 C2.5625 0.1875 2.5625 0.1875 4.5625 2.1875 C4.70767744 5.0968558 4.74880796 7.907446 4.6875 10.8125 C4.67847656 11.61429688 4.66945313 12.41609375 4.66015625 13.2421875 C4.63656223 15.22408523 4.60069065 17.20582981 4.5625 19.1875 C8.5225 19.1875 12.4825 19.1875 16.5625 19.1875 C16.5625 13.2475 16.5625 7.3075 16.5625 1.1875 C16.8925 1.1875 17.2225 1.1875 17.5625 1.1875 C17.5625 7.1275 17.5625 13.0675 17.5625 19.1875 C21.5225 19.1875 25.4825 19.1875 29.5625 19.1875 C29.2325 19.8475 28.9025 20.5075 28.5625 21.1875 C24.9325 21.1875 21.3025 21.1875 17.5625 21.1875 C17.5625 27.1275 17.5625 33.0675 17.5625 39.1875 C17.2325 39.1875 16.9025 39.1875 16.5625 39.1875 C16.5625 33.2475 16.5625 27.3075 16.5625 21.1875 C12.6025 21.1875 8.6425 21.1875 4.5625 21.1875 C4.59730469 22.29609375 4.63210937 23.4046875 4.66796875 24.546875 C4.69611349 26.01040148 4.72341292 27.47394439 4.75 28.9375 C4.78770508 30.03191406 4.78770508 30.03191406 4.82617188 31.1484375 C4.87231636 34.53236604 4.81574128 36.76608557 3.05078125 39.703125 C2.31408203 40.43789062 2.31408203 40.43789062 1.5625 41.1875 C-1.30474686 40.61405063 -2.2989515 40.3260485 -4.4375 38.1875 C-4.0625 35.5625 -4.0625 35.5625 -3.4375 33.1875 C-0.4675 32.6925 -0.4675 32.6925 2.5625 32.1875 C2.5625 28.5575 2.5625 24.9275 2.5625 21.1875 C0.5825 20.8575 -1.3975 20.5275 -3.4375 20.1875 C-3.4375 19.8575 -3.4375 19.5275 -3.4375 19.1875 C-1.4575 19.1875 0.5225 19.1875 2.5625 19.1875 C2.5625 15.5575 2.5625 11.9275 2.5625 8.1875 C0.9125 8.1875 -0.7375 8.1875 -2.4375 8.1875 C-3.0975 7.5275 -3.7575 6.8675 -4.4375 6.1875 C-3.71780303 0.28598485 -3.71780303 0.28598485 0 0 Z " fill="#F6F9FB" transform="translate(26.4375,21.8125)"/>
<path d="M0 0 C3.27654325 2.67633563 4.60786726 6.19328012 6.1875 10 C6.46013672 10.6290625 6.73277344 11.258125 7.01367188 11.90625 C8.22496537 14.7720672 9 16.85703523 9 20 C3.39 20 -2.22 20 -8 20 C-5.83836487 13.06001352 -3.1063786 6.56882431 0 0 Z " fill="#EFF7F9" transform="translate(115,27)"/>
<path d="M0 0 C3.35792757 1.67896378 3.8573341 5.50288131 5.0625 8.875 C5.33126953 9.60847656 5.60003906 10.34195313 5.87695312 11.09765625 C6.95632322 14.05313846 8.00500152 17.01500456 9 20 C3.39 20 -2.22 20 -8 20 C-5.83836487 13.06001352 -3.1063786 6.56882431 0 0 Z " fill="#F0F7F9" transform="translate(338,27)"/>
<path d="M0 0 C0.33 0 0.66 0 1 0 C1.08112454 2.58396679 1.14054748 5.16537568 1.1875 7.75 C1.22520508 8.84441406 1.22520508 8.84441406 1.26367188 9.9609375 C1.30981636 13.34486604 1.25324128 15.57858557 -0.51171875 18.515625 C-1.00285156 19.00546875 -1.49398438 19.4953125 -2 20 C-4.86724686 19.42655063 -5.8614515 19.1385485 -8 17 C-7.625 14.375 -7.625 14.375 -7 12 C-3.535 11.505 -3.535 11.505 0 11 C0 7.37 0 3.74 0 0 Z " fill="#F3F3F3" transform="translate(30,43)"/>
<path d="M0 0 C0.33 0 0.66 0 1 0 C1 3.63 1 7.26 1 11 C2.65 11.33 4.3 11.66 6 12 C7 13 7 13 7.1875 15.4375 C7 18 7 18 5 20 C2.06546739 19.63318342 1.13562754 19.13562754 -1 17 C-0.98251781 14.08047432 -0.86055367 11.27702115 -0.625 8.375 C-0.56828125 7.57320312 -0.5115625 6.77140625 -0.453125 5.9453125 C-0.31152018 3.96284502 -0.15697741 1.98130949 0 0 Z " fill="#F7F7F7" transform="translate(57,43)"/>
</svg>
