<svg width="32" height="32" viewBox="0 0 32 32" fill="none" xmlns="http://www.w3.org/2000/svg">
<g id="Skating">
<rect id="Rectangle" width="32" height="32" rx="6" fill="#5295D2" fill-opacity="0.15"/>
<g id="Group 289323">
<path id="Vector" d="M11.9988 22.9937C12.7349 22.9937 13.3316 22.397 13.3316 21.6609C13.3316 20.9248 12.7349 20.3281 11.9988 20.3281C11.2627 20.3281 10.666 20.9248 10.666 21.6609C10.666 22.397 11.2627 22.9937 11.9988 22.9937Z" fill="#5295D2"/>
<path id="Vector_2" d="M20.0017 22.9937C20.7378 22.9937 21.3345 22.397 21.3345 21.6609C21.3345 20.9248 20.7378 20.3281 20.0017 20.3281C19.2657 20.3281 18.6689 20.9248 18.6689 21.6609C18.6689 22.397 19.2657 22.9937 20.0017 22.9937Z" fill="#5295D2"/>
<path id="Vector_3" d="M15.9998 22.9937C16.7358 22.9937 17.3325 22.397 17.3325 21.6609C17.3325 20.9248 16.7358 20.3281 15.9998 20.3281C15.2637 20.3281 14.667 20.9248 14.667 21.6609C14.667 22.397 15.2637 22.9937 15.9998 22.9937Z" fill="#5295D2"/>
<path id="Vector_4" d="M17.746 9.10994C17.686 9.17992 17.6527 9.27654 17.666 9.36984C17.755 10.1754 17.7502 10.8175 17.6985 11.3324H23.9946L23.9934 9.33319C23.9934 9.14994 23.8434 9 23.6602 9H17.9959C17.9026 9 17.8093 9.03998 17.746 9.10994Z" fill="#5295D2"/>
<path id="Vector_5" d="M9.7726 19.979L9.4394 20.5688C9.43273 20.5788 9.4294 20.5921 9.42608 20.6021C9.2928 20.912 9.32277 21.2652 9.50938 21.545C9.63266 21.735 9.81258 21.8716 10.0192 21.9415C10.0058 21.8516 9.99917 21.7583 9.99917 21.6617C9.99917 20.9653 10.3557 20.3522 10.8955 19.9957C11.212 19.7824 11.5918 19.6625 11.9983 19.6625C12.4048 19.6625 12.7847 19.7824 13.1012 19.9957C13.641 20.3522 13.9975 20.9653 13.9975 21.6617H14.0008C14.0008 20.9653 14.3574 20.3522 14.9005 19.9957C15.217 19.7824 15.5935 19.6625 16 19.6625C16.4065 19.6625 16.783 19.7824 17.0995 19.9957C17.6426 20.3522 17.9992 20.9653 17.9992 21.6617H18.0025C18.0025 20.9653 18.359 20.3522 18.8988 19.9957C19.2153 19.7824 19.5952 19.6625 20.0017 19.6625C20.4082 19.6625 20.788 19.7824 21.1045 19.9957C21.6443 20.3522 22.0008 20.9653 22.0008 21.6617C22.0008 21.7749 21.9908 21.8882 21.9708 21.9949H22.3174C22.6539 21.9949 22.9638 21.8283 23.1503 21.545C23.3369 21.2652 23.3669 20.912 23.2336 20.6021C23.2303 20.5921 23.227 20.5788 23.2203 20.5688L22.8971 19.9957H23.6668C23.7534 19.9957 23.8401 19.959 23.9 19.899C23.9633 19.8357 24 19.7491 24 19.6625L23.9967 11.999H17.5927C17.3994 12.852 17.0795 13.1452 17.0762 13.1452C17.0529 13.1652 17.0329 13.1852 17.0162 13.2085C16.9463 13.3051 16.8663 13.3951 16.7863 13.4817C17.0929 13.8716 17.9092 14.6079 19.6152 14.4213C19.8051 14.4013 19.9617 14.5313 19.9817 14.7145C20.0017 14.8978 19.8717 15.0611 19.6885 15.0811C19.4719 15.1044 19.2686 15.1177 19.0787 15.1177C17.5194 15.1177 16.6797 14.398 16.2965 13.9349C15.8934 14.2547 15.4236 14.5113 14.9404 14.7145C15.2203 15.1677 16.04 16.2006 17.8226 16.3339C18.0058 16.3505 18.1458 16.5105 18.1324 16.6937C18.1191 16.867 17.9725 17.0003 17.7992 17.0003H17.7726C15.5568 16.8337 14.5906 15.4542 14.3107 14.9511C12.728 15.4809 11.1787 15.5309 11.152 15.5309C11.142 15.5342 11.1354 15.5342 11.1254 15.5342H10.1591C8.96959 15.5342 8 16.5704 8 17.8466C8 18.4563 8.2199 19.0328 8.62307 19.4759C8.9496 19.8224 9.35277 19.9424 9.7726 19.979Z" fill="#5295D2"/>
</g>
</g>
</svg>
