<svg width="32" height="32" viewBox="0 0 32 32" fill="none" xmlns="http://www.w3.org/2000/svg">
<g id="SkinfoldThicknessBicepsKey">
<rect id="Rectangle" width="32" height="32" rx="6" fill="#6E87E0" fill-opacity="0.15"/>
<g id="Group">
<path id="Vector" d="M22.7881 17.2736C22.4411 16.2492 21.7018 15.5884 20.5988 15.2972C19.6695 15.0563 18.7063 15.1235 17.6539 15.5045C17.3461 15.051 17.0267 14.7263 16.6631 14.491C16.1367 14.1497 15.5601 14.0432 15.1232 13.9873C14.1656 13.8699 13.3149 13.993 12.5366 14.357C12.531 14.357 12.531 14.3627 12.531 14.3627C12.7047 13.6516 13.0011 12.9742 13.4266 12.3191L13.6785 12.6831C13.8295 12.9013 14.0818 13.1925 14.5017 13.2151C14.7033 13.2265 14.8879 13.1759 15.011 13.1313C15.1398 13.0864 15.2463 13.0811 15.3581 13.12C15.8116 13.271 16.2201 13.1536 16.5396 12.7673C16.8923 12.3531 17.0996 11.849 17.1834 11.2331C17.2057 11.0594 17.217 10.8804 17.2 10.7124C17.1664 10.2309 16.9145 9.87259 16.4777 9.70456C16.1027 9.55352 15.733 9.43571 15.3747 9.34621C14.8426 9.22312 14.3053 9.11663 13.7789 9.0328C13.0007 8.90404 12.284 9.1559 11.7074 9.76082C11.3713 10.1135 11.0693 10.4998 10.7891 10.8638C10.2906 11.5246 9.69743 12.3085 9.11479 13.12C8.75078 13.635 8.39243 14.1614 8.03409 14.6821L7.4741 15.5053C7.39556 15.6174 7.31174 15.7292 7.24452 15.847C6.89751 16.418 6.91978 17.0115 7.31174 17.6161C7.54698 17.9801 7.86606 18.3105 8.32522 18.6405C9.48408 19.4973 10.5032 20.0796 11.5333 20.4825C12.6922 20.9303 13.885 21.104 15.0832 21.0032C15.2569 20.9918 15.3686 21.0202 15.4917 21.1153C16.4044 21.8377 17.496 22.1904 18.812 22.1904C19.0529 22.1904 19.2991 22.179 19.5566 22.1568C20.3349 22.0839 21.0402 21.8207 21.6451 21.3785C22.4068 20.8242 22.8489 20.0403 22.9664 19.0551C23.0457 18.4381 22.9841 17.8392 22.7881 17.2736ZM16.2545 19.3285C15.4483 19.4852 14.7766 19.5638 14.155 19.5638C13.9477 19.5638 13.7517 19.5524 13.5561 19.5358C12.4811 19.452 11.5911 19.043 10.9133 18.3264C10.8068 18.2089 10.8125 18.0352 10.9246 17.9287C11.0368 17.8223 11.2158 17.8279 11.3222 17.9401C11.9102 18.5616 12.6548 18.903 13.6011 18.9815C14.3457 19.0374 15.1296 18.9758 16.1431 18.7742C16.2941 18.7462 16.4456 18.8471 16.4735 18.9981C16.5007 19.1491 16.4055 19.2949 16.2545 19.3285Z" fill="#6E87E0"/>
</g>
</g>
</svg>
