<svg width="32" height="32" viewBox="0 0 32 32" fill="none" xmlns="http://www.w3.org/2000/svg">
<g id="SkinfoldThicknessSubscapularKey">
<rect id="Rectangle" width="32" height="32" rx="6" fill="#589EDF" fill-opacity="0.15"/>
<path id="Vector" d="M21.3057 8.09358C21.1778 7.96881 20.976 7.96881 20.8513 8.09358C20.1504 8.79439 19.3027 9.30295 18.4002 9.5655C14.2596 10.7685 11.3864 13.725 9.61365 18.5952C9.34161 19.3505 8.85203 20.0928 8.20569 20.7391L8.09358 20.8544C7.96881 20.9792 7.96881 21.1809 8.09358 21.3057L10.6951 23.9072C10.7559 23.968 10.8392 24 10.919 24C11.0023 24 11.0852 23.968 11.146 23.9072L11.2613 23.7919C11.9076 23.1456 12.6468 22.6592 13.402 22.384C18.2751 20.6147 21.2284 17.7412 22.4318 13.6006C22.6975 12.6953 23.2061 11.8472 23.9037 11.1495C24.0285 11.0216 24.0285 10.8199 23.9037 10.6951L21.3057 8.09358ZM19.5224 13.181C19.6735 13.2724 19.722 13.4692 19.6306 13.6203C18.1267 16.1055 16.1041 18.1278 13.6192 19.6313C13.5676 19.6626 13.5103 19.6777 13.4541 19.6777C13.3458 19.6777 13.24 19.6229 13.1799 19.5234C13.0885 19.3723 13.1367 19.1755 13.2882 19.0841C15.6837 17.6347 17.6333 15.6848 19.0834 13.2892C19.1748 13.1377 19.3713 13.0892 19.5224 13.181ZM11.0792 18.913C11.0328 18.913 10.9861 18.9031 10.9411 18.8817C10.7819 18.8054 10.7144 18.6142 10.7903 18.455C12.4355 15.0149 15.0138 12.4366 18.4539 10.7914C18.6128 10.7155 18.8044 10.7826 18.8806 10.9422C18.9569 11.1017 18.8894 11.2929 18.7298 11.3688C15.4251 12.9494 12.948 15.4261 11.3674 18.7312C11.313 18.8458 11.1984 18.913 11.0792 18.913ZM12.6415 18.8659C12.5852 18.8659 12.528 18.8507 12.4763 18.8195C12.3252 18.7281 12.2767 18.5313 12.368 18.3801C13.8719 15.8953 15.8946 13.8727 18.3794 12.3691C18.5302 12.2774 18.7274 12.3259 18.8188 12.4773C18.9101 12.6285 18.862 12.8253 18.7105 12.9167C16.3153 14.3665 14.3654 16.316 12.9156 18.7116C12.8555 18.811 12.7497 18.8659 12.6415 18.8659ZM21.208 13.5454C19.5628 16.9859 16.9845 19.5639 13.5444 21.209C13.4998 21.2301 13.453 21.2403 13.4063 21.2403C13.2868 21.2403 13.1725 21.1732 13.1174 21.0586C13.0411 20.8994 13.1086 20.7079 13.2681 20.6319C16.5729 19.0518 19.05 16.5747 20.6305 13.2695C20.7068 13.1103 20.8977 13.0429 21.0572 13.1188C21.2168 13.195 21.2843 13.3859 21.208 13.5454Z" fill="#589EDF"/>
</g>
</svg>
