<svg width="32" height="32" viewBox="0 0 32 32" fill="none" xmlns="http://www.w3.org/2000/svg">
<g id="SleepFellAsleepAndWakeUpCounterKey">
<rect id="Rectangle" width="32" height="32" rx="6" fill="#9062F2" fill-opacity="0.15"/>
<g id="Group">
<path id="Vector" d="M20.2239 19.4805V16.0007C20.2239 14.9399 19.8025 13.9226 19.0524 13.1725C18.3024 12.4224 17.285 12.001 16.2242 12.001C15.1634 12.001 14.1461 12.4224 13.396 13.1725C12.6459 13.9226 12.2245 14.9399 12.2245 16.0007V19.4805L11.4885 20.9764C11.4476 21.0368 11.4241 21.1074 11.4204 21.1803C11.4168 21.2532 11.4331 21.3257 11.4677 21.39C11.5023 21.4543 11.5539 21.5079 11.6168 21.5449C11.6797 21.582 11.7515 21.6012 11.8245 21.6003H20.6239C20.6969 21.6012 20.7688 21.582 20.8316 21.5449C20.8945 21.5079 20.9461 21.4543 20.9807 21.39C21.0153 21.3257 21.0317 21.2532 21.028 21.1803C21.0243 21.1074 21.0008 21.0368 20.9599 20.9764L20.2239 19.4805Z" fill="#9062F2"/>
<path id="Vector_2" d="M12.2249 11.6007C12.2249 11.4946 12.1828 11.3929 12.1078 11.3179C12.0328 11.2429 11.931 11.2007 11.825 11.2007H10.3931L12.1049 9.48085C12.1687 9.43128 12.2148 9.36251 12.2364 9.28471C12.258 9.20691 12.254 9.12422 12.2249 9.04888C12.193 8.97058 12.1371 8.90439 12.0653 8.85984C11.9934 8.81529 11.9093 8.79465 11.825 8.8009H9.42512C9.31904 8.8009 9.21731 8.84304 9.1423 8.91805C9.06729 8.99306 9.02515 9.09479 9.02515 9.20087C9.02515 9.30695 9.06729 9.40869 9.1423 9.48369C9.21731 9.5587 9.31904 9.60084 9.42512 9.60084H10.857L9.14514 11.3207C9.08141 11.3703 9.03533 11.4391 9.01372 11.5169C8.99211 11.5947 8.99611 11.6774 9.02515 11.7527C9.05705 11.831 9.11294 11.8972 9.18481 11.9417C9.25667 11.9863 9.3408 12.0069 9.42512 12.0007H11.825C11.931 12.0007 12.0328 11.9585 12.1078 11.8835C12.1828 11.8085 12.2249 11.7068 12.2249 11.6007Z" fill="#9062F2"/>
<path id="Vector_3" d="M16.6242 8.80104H17.2561L16.3442 9.72098C16.2859 9.77455 16.246 9.84515 16.2302 9.92271C16.2144 10.0003 16.2235 10.0808 16.2562 10.1529C16.2862 10.226 16.3371 10.2885 16.4026 10.3326C16.4681 10.3768 16.5452 10.4005 16.6242 10.4009H18.224C18.3301 10.4009 18.4319 10.3588 18.5069 10.2838C18.5819 10.2088 18.624 10.107 18.624 10.001C18.624 9.89488 18.5819 9.79314 18.5069 9.71813C18.4319 9.64312 18.3301 9.60098 18.224 9.60098H17.5921L18.504 8.68105C18.5678 8.63147 18.6138 8.5627 18.6355 8.4849C18.6571 8.40711 18.6531 8.32442 18.624 8.24908C18.5921 8.17077 18.5362 8.10459 18.4644 8.06004C18.3925 8.01548 18.3084 7.99485 18.224 8.00109H16.6242C16.5181 8.00109 16.4163 8.04323 16.3413 8.11824C16.2663 8.19325 16.2242 8.29499 16.2242 8.40107C16.2242 8.50715 16.2663 8.60888 16.3413 8.68389C16.4163 8.7589 16.5181 8.80104 16.6242 8.80104Z" fill="#9062F2"/>
<path id="Vector_4" d="M23.0238 12.8012H22.3919L23.3038 11.8812C23.3676 11.8317 23.4136 11.7629 23.4353 11.6851C23.4569 11.6073 23.4529 11.5246 23.4238 11.4493C23.3919 11.371 23.336 11.3048 23.2642 11.2602C23.1923 11.2157 23.1082 11.195 23.0238 11.2013H21.424C21.3179 11.2013 21.2161 11.2434 21.1411 11.3184C21.0661 11.3934 21.024 11.4952 21.024 11.6013C21.024 11.7073 21.0661 11.8091 21.1411 11.8841C21.2161 11.9591 21.3179 12.0012 21.424 12.0012H22.0559L21.144 12.9212C21.0857 12.9747 21.0458 13.0453 21.03 13.1229C21.0142 13.2005 21.0233 13.281 21.056 13.3531C21.086 13.4262 21.1369 13.4887 21.2024 13.5328C21.2679 13.577 21.345 13.6007 21.424 13.6011H23.0238C23.1299 13.6011 23.2317 13.559 23.3067 13.484C23.3817 13.409 23.4238 13.3072 23.4238 13.2012C23.4238 13.0951 23.3817 12.9933 23.3067 12.9183C23.2317 12.8433 23.1299 12.8012 23.0238 12.8012Z" fill="#9062F2"/>
<path id="Vector_5" d="M16.2249 23.9993C16.6492 23.9993 17.0561 23.8307 17.3562 23.5307C17.6562 23.2307 17.8248 22.8237 17.8248 22.3994H14.625C14.625 22.8237 14.7936 23.2307 15.0936 23.5307C15.3936 23.8307 15.8006 23.9993 16.2249 23.9993Z" fill="#9062F2"/>
</g>
</g>
</svg>
