<svg width="32" height="32" viewBox="0 0 32 32" fill="none" xmlns="http://www.w3.org/2000/svg">
<g id="Soccer">
<rect id="Rectangle" width="32" height="32" rx="6" fill="#282828" fill-opacity="0.15"/>
<path id="Vector" d="M21.6575 10.3439C18.5323 7.21869 13.4672 7.21869 10.3439 10.3439C7.21869 13.4672 7.21869 18.5323 10.3439 21.6575C13.4672 24.7808 18.5323 24.7808 21.6575 21.6575C24.7808 18.5323 24.7808 13.4672 21.6575 10.3439ZM15.8246 19.3425L13.1613 17.4065L10.0264 18.411L9.91478 20.5856C8.98915 19.3578 8.42529 17.8414 8.38296 16.196L9.91671 18.0743L13.0535 17.0678L14.0677 13.9406L12.0509 11.3177L9.5299 11.9758C10.5306 10.3689 12.1144 9.16234 13.9849 8.65045L12.3357 11.1118L14.3525 13.729H17.6509L19.5695 11.1349L18.0185 8.65237C19.889 9.16427 21.4708 10.3709 22.4715 11.9777L19.8563 11.3446L17.9357 13.9387L18.9537 17.0697L22.1021 18.1262L23.6166 16.2076C23.5723 17.8433 23.0123 19.3521 22.0944 20.5741L21.9943 18.463L18.8421 17.4065L16.1787 19.3425L16.1807 22.6486L18.0185 23.3471C16.7022 23.7089 15.2993 23.7089 13.983 23.3471L15.8266 22.6486L15.8246 19.3425Z" fill="#282828"/>
</g>
</svg>
