<svg width="32" height="32" viewBox="0 0 32 32" fill="none" xmlns="http://www.w3.org/2000/svg">
<g id="SPo2">
<rect id="Rectangle" width="32" height="32" rx="6" fill="#FFBB0E" fill-opacity="0.15"/>
<g id="Group 289314">
<path id="Vector" d="M9.01514 19.3966C9.21511 22.4662 11.6308 24 14.0465 24C15.9843 24 17.922 23.0101 18.7159 21.0344C18.462 21.0904 18.198 21.1224 17.926 21.1224C15.9103 21.1224 14.2685 19.4826 14.2685 17.4648C14.2685 15.4471 15.8263 13.8993 17.768 13.8153C16.2722 10.5937 14.0465 8 14.0465 8C14.0465 8 8.67918 14.2432 9.01514 19.3946V19.3966Z" fill="#FFBB0E"/>
<path id="Vector_2" d="M17.9259 20.8245C19.7803 20.8245 21.2835 19.3213 21.2835 17.467C21.2835 15.6126 19.7803 14.1094 17.9259 14.1094C16.0716 14.1094 14.5684 15.6126 14.5684 17.467C14.5684 19.3213 16.0716 20.8245 17.9259 20.8245Z" fill="#FFBB0E"/>
<path id="Vector_3" d="M19.4879 11.635C20.2886 11.635 20.9377 10.9859 20.9377 10.1852C20.9377 9.38446 20.2886 8.73535 19.4879 8.73535C18.6872 8.73535 18.0381 9.38446 18.0381 10.1852C18.0381 10.9859 18.6872 11.635 19.4879 11.635Z" fill="#FFBB0E"/>
<path id="Vector_4" d="M21.6298 14.2771C22.1588 14.2771 22.5876 13.8482 22.5876 13.3192C22.5876 12.7902 22.1588 12.3613 21.6298 12.3613C21.1007 12.3613 20.6719 12.7902 20.6719 13.3192C20.6719 13.8482 21.1007 14.2771 21.6298 14.2771Z" fill="#FFBB0E"/>
</g>
</g>
</svg>
