<svg width="32" height="32" viewBox="0 0 32 32" fill="none" xmlns="http://www.w3.org/2000/svg">
<g id="Squash">
<rect id="Rectangle" width="32" height="32" rx="6" fill="#81CB46" fill-opacity="0.15"/>
<g id="Group">
<path id="Vector" d="M12.5531 18.5205C11.1964 18.5205 10.0898 19.6238 10.0898 20.9837C10.0898 22.3437 11.1964 23.4503 12.5531 23.4503C13.913 23.4503 15.0196 22.3437 15.0196 20.9837C15.0196 19.6238 13.913 18.5205 12.5531 18.5205Z" fill="#81CB46"/>
<path id="Vector_2" d="M19.0928 17.7403C18.6562 16.3503 18.4162 15.0304 18.1396 13.5005L18.0529 13.0372C17.8896 11.8672 17.3263 10.6906 16.3763 9.73729C15.363 8.72735 14.0697 8.11403 12.7298 8.01404C11.3765 7.91405 10.1366 8.35069 9.24327 9.24399C8.43331 10.0539 8 11.1472 8 12.3539C8 12.4805 8.00334 12.6072 8.01333 12.7338C8.05999 13.3605 8.22332 13.9771 8.48332 14.5637C8.48663 14.5671 8.48663 14.5704 8.48663 14.5738C8.78329 15.2271 9.19994 15.837 9.72993 16.3703C9.73326 16.3737 9.73326 16.377 9.73326 16.377C9.73658 16.3803 9.73991 16.3803 9.73991 16.3837C10.2766 16.917 10.8832 17.3236 11.5198 17.6103C11.5332 17.617 11.5465 17.6269 11.5598 17.6303C11.9898 17.8203 12.4331 17.9536 12.8765 18.0303C14.6497 18.4136 16.213 18.8036 17.6429 19.2169L18.6695 20.2435L20.1328 18.7802L19.0928 17.7403ZM17.3629 12.9238C17.3629 12.9338 17.3596 12.9438 17.3629 12.9538L17.3963 13.1471C17.4396 13.4638 17.4529 13.7771 17.4262 14.0838L16.403 13.0572L17.1896 12.2672C17.2629 12.4872 17.3229 12.7038 17.3629 12.9238ZM12.5831 13.0572L11.6165 14.0238L10.6499 13.0572L11.6165 12.0905L12.5831 13.0572ZM12.0898 11.6206L13.0564 10.6539L14.0231 11.6206L13.0564 12.5872L12.0898 11.6206ZM13.0564 13.5271L14.0231 14.4938L13.0564 15.4604L12.0898 14.4938L13.0564 13.5271ZM13.5264 13.0572L14.493 12.0905L15.4597 13.0572L14.493 14.0238L13.5264 13.0572ZM15.9296 13.5271L17.2829 14.8804C17.1496 15.3437 16.9296 15.7737 16.6196 16.1503L14.963 14.4938L15.9296 13.5271ZM16.9129 11.6039L15.9296 12.5872L14.963 11.6206L16.1297 10.4539C16.4463 10.8139 16.7096 11.2006 16.9129 11.6039ZM15.6563 9.98394L14.493 11.1472L13.5264 10.1806L14.5097 9.20065C14.9164 9.40397 15.303 9.66729 15.6563 9.98394ZM12.3531 8.66733C12.4598 8.66733 12.5698 8.67067 12.6831 8.67734C13.0764 8.70735 13.4664 8.79399 13.8431 8.92066L13.0564 9.71062L12.0265 8.68068C12.1331 8.674 12.2431 8.66733 12.3531 8.66733ZM11.2265 8.824L12.5831 10.1806L11.6165 11.1472L9.95992 9.49064C10.3299 9.18399 10.7599 8.96065 11.2265 8.824ZM9.48993 9.96395L11.1465 11.6206L10.1799 12.5872L8.82662 11.2339C8.9633 10.7639 9.18661 10.3339 9.48993 9.96395ZM8.67663 12.6838C8.65996 12.4605 8.66664 12.2439 8.6833 12.0305L9.70993 13.0572L8.91996 13.8471C8.7933 13.4671 8.70663 13.0772 8.67663 12.6838ZM9.1966 14.5104L10.1799 13.5271L11.1465 14.4938L9.97992 15.6604C9.66659 15.3071 9.40326 14.9204 9.1966 14.5104ZM10.4532 16.1303L11.6165 14.9671L12.5831 15.9337L11.6032 16.9137C11.1999 16.7103 10.8099 16.4503 10.4532 16.1303ZM13.0631 17.3903C13.0298 17.3803 12.9964 17.3736 12.9631 17.367C12.9498 17.3636 12.9398 17.367 12.9264 17.367C12.7065 17.3236 12.4865 17.267 12.2665 17.1936L13.0564 16.4037L14.0797 17.4303C13.7464 17.4536 13.4064 17.4436 13.0631 17.3903ZM13.5264 15.9337L14.493 14.9671L16.1463 16.6203C15.7697 16.9303 15.3397 17.1503 14.8797 17.2836L13.5264 15.9337ZM17.7029 18.5436C16.9129 18.3136 16.083 18.0969 15.203 17.8803C15.8196 17.6803 16.393 17.347 16.8696 16.8703C17.2996 16.4403 17.6129 15.9304 17.8196 15.3804C17.9862 16.2003 18.1729 17.0103 18.4229 17.8236L17.7029 18.5436Z" fill="#81CB46"/>
<path id="Vector_3" d="M23.8891 22.7201C23.8891 23.0634 23.7558 23.3834 23.5158 23.6267C23.2658 23.8767 22.9392 24 22.6092 24C22.2825 24 21.9559 23.8767 21.7059 23.6267L19.1927 21.1135C19.086 21.0068 19.066 20.8401 19.1393 20.7135L20.6026 19.2502C20.7293 19.1802 20.8993 19.2002 21.0026 19.3035L23.5158 21.8168C23.7558 22.0568 23.8891 22.3801 23.8891 22.7201Z" fill="#81CB46"/>
</g>
</g>
</svg>
