<svg width="32" height="32" viewBox="0 0 32 32" fill="none" xmlns="http://www.w3.org/2000/svg">
<g id="StairClimbing">
<rect id="Rectangle" width="32" height="32" rx="6" fill="#CC68E5" fill-opacity="0.15"/>
<path id="Vector" d="M23.6561 8H20.5772C20.386 8 20.2322 8.15589 20.2322 8.34603V11.0697H17.5182C17.3288 11.0697 17.1751 11.2238 17.1751 11.4139V14.1375H14.4611C14.2702 14.1375 14.1158 14.2916 14.1158 14.4835V17.2354H11.4014C11.2127 17.2354 11.0593 17.3895 11.0593 17.5789V20.3032H8.34496C8.15375 20.3029 8 20.457 8 20.6489V23.0261C8 23.2152 8.15375 23.3704 8.34496 23.3704H23.6568C23.8459 23.3704 24 23.2152 24 23.0261V8.34603C24 8.15589 23.8459 8 23.6561 8Z" fill="#CC68E6"/>
</g>
</svg>
