<?xml version="1.0" encoding="UTF-8"?>
<svg width="31px" height="40px" viewBox="0 0 31 40" version="1.1" xmlns="http://www.w3.org/2000/svg" xmlns:xlink="http://www.w3.org/1999/xlink">
    <title>Static-page</title>
    <g id="Design" stroke="none" stroke-width="1" fill="none" fill-rule="evenodd">
        <g id="More-menu" transform="translate(-52.000000, -783.000000)" fill-rule="nonzero">
            <g id="Menu-list" transform="translate(0.000000, 263.000000)">
                <g id="List-Copy" transform="translate(0.000000, 480.000000)">
                    <g id="Static-page" transform="translate(52.000000, 40.000000)">
                        <path d="M22.7692308,9.74358974 L30.6153846,9.74358974 C30.4615385,9.33333333 30.2564103,8.92307692 29.9487179,8.61538462 L22,0.820512821 C21.6923077,0.564102564 21.3846154,0.358974359 21.025641,0.205128205 L21.025641,8 C21.025641,8.97435897 21.7948718,9.74358974 22.7692308,9.74358974 Z" id="Path" fill="#212121"></path>
                        <path d="M2.76923077,40 L28,40 C29.5384615,40 30.7692308,38.7692308 30.7692308,37.2307692 L30.7692308,10.7692308 L22.7692308,10.7692308 C21.2307692,10.7692308 20,9.53846154 20,8 L20,0 L2.76923077,0 C1.23076923,0 0,1.23076923 0,2.76923077 L0,37.2307692 C0,38.7692308 1.23076923,40 2.76923077,40 Z" id="Path" fill="#212121"></path>
                        <path d="M7.12014223,24.1025641 L7.12014223,22.2445913 L8.21739784,22.2445913 C8.78998064,22.2445913 9.23051883,22.1183894 9.53901242,21.8659856 C9.84750601,21.6135817 10.0017528,21.1823918 10.0017528,20.5724159 C10.0017528,20.0138555 9.84750601,19.6013622 9.53901242,19.3349359 C9.23051883,19.0685096 8.81685697,18.9352965 8.29802684,18.9352965 L8.29802684,18.9352965 L6.04742588,18.9352965 L6.04742588,24.1025641 L7.12014223,24.1025641 Z M8.126252,21.3541667 L7.12014223,21.3541667 L7.12014223,19.8327324 L8.126252,19.8327324 C8.38099292,19.8327324 8.57905983,19.8899907 8.72045272,20.0045072 C8.86184562,20.1190238 8.93254207,20.3106637 8.93254207,20.5794271 C8.93254207,20.8481904 8.86184562,21.0445045 8.72045272,21.1683694 C8.57905983,21.2922342 8.38099292,21.3541667 8.126252,21.3541667 L8.126252,21.3541667 Z M11.0464243,24.1025641 L11.4039964,23.0403646 L13.3075421,23.0403646 L13.6405749,24.1025641 L14.8114483,24.1025641 L12.9815204,18.9352965 L11.7615685,18.9352965 L9.91761819,24.1025641 L11.0464243,24.1025641 Z M13.0060597,22.1499399 L11.6949619,22.1499399 L12.3610276,20.1166867 L13.0060597,22.1499399 Z M17.584385,24.2392829 C18.0003839,24.2392829 18.3509448,24.1516426 18.6360677,23.9763622 C18.8019999,23.8758681 18.9889657,23.7029247 19.1969651,23.4575321 L19.1969651,23.4575321 L19.305639,24.1025641 L20.0207833,24.1025641 L20.0207833,21.3296274 L17.8683393,21.3296274 L17.8683393,22.1920072 L19.063752,22.1920072 C19.0099993,22.5308827 18.8674379,22.8049045 18.6360677,23.0140725 C18.4046975,23.2232405 18.1078893,23.3278245 17.745643,23.3278245 C17.3763856,23.3278245 17.0468583,23.1957799 16.7570613,22.9316907 C16.4672643,22.6676015 16.3223658,22.217715 16.3223658,21.5820312 C16.3223658,20.9510216 16.4561632,20.4783487 16.723758,20.1640124 C16.9913528,19.8496761 17.3331497,19.692508 17.7491486,19.692508 C17.9664964,19.692508 18.163979,19.7310697 18.3415966,19.8081931 C18.6594384,19.9484175 18.8592581,20.1949786 18.9410557,20.5478766 L18.9410557,20.5478766 L20.0032552,20.5478766 C19.9448284,20.0500801 19.7163795,19.6346655 19.3179087,19.3016326 C18.9194378,18.9685998 18.3918436,18.8020833 17.7351262,18.8020833 C16.9779147,18.8020833 16.3691072,19.0544872 15.9087039,19.5592949 C15.4483006,20.0641026 15.218099,20.7348424 15.218099,21.5715144 C15.218099,22.3988381 15.4459635,23.0508814 15.9016927,23.5276442 C16.3387253,24.00207 16.8996227,24.2392829 17.584385,24.2392829 Z M24.998748,24.1025641 L24.998748,23.1735777 L22.1381711,23.1735777 L22.1381711,21.8449519 L24.6481871,21.8449519 L24.6481871,20.947516 L22.1381711,20.947516 L22.1381711,19.8502604 L24.8725461,19.8502604 L24.8725461,18.9352965 L21.0829828,18.9352965 L21.0829828,24.1025641 L24.998748,24.1025641 Z" id="PAGE" fill="#FFFFFF"></path>
                    </g>
                </g>
            </g>
        </g>
    </g>
</svg>