<svg width="32" height="32" viewBox="0 0 32 32" fill="none" xmlns="http://www.w3.org/2000/svg">
<g id="Steps">
<rect id="Rectangle" width="32" height="32" rx="6" fill="#3DD6DB" fill-opacity="0.15"/>
<g id="Group">
<path id="Vector" d="M13.6823 20.5876C12.5176 20.8328 11.4959 20.608 11.782 21.9566C12.0681 23.3052 13.2532 24.2043 14.4179 23.9591C15.5826 23.7139 16.3182 22.3857 16.0322 21.0371C15.7461 19.6885 14.8675 20.3219 13.6823 20.5876Z" fill="#3DD6DB"/>
<path id="Vector_2" d="M13.5801 19.9962C13.6619 19.9758 13.7232 19.9553 13.8049 19.9349C14.1931 19.8123 14.5609 19.6693 14.8674 19.4036C15.1944 19.1175 15.3783 18.6884 15.46 18.2593C15.6643 17.1968 15.5213 16.0116 15.1739 15.0104C14.8879 14.193 14.4588 13.437 13.8253 12.8444C13.3349 12.3744 12.6606 11.9862 11.9659 12.1088C11.2507 12.2314 10.7194 12.8853 10.4129 13.5596C9.96336 14.5813 9.90206 15.7256 10.1268 16.8085C10.2903 17.585 10.6377 18.3411 11.0259 19.0358C11.2711 19.4445 11.5981 19.8327 12.0476 20.0166C12.5584 20.221 13.0897 20.1392 13.5801 19.9962Z" fill="#3DD6DB"/>
<path id="Vector_3" d="M19.4036 16.6033C18.2389 16.5216 17.2581 15.786 17.0333 17.155C16.8086 18.5241 17.6259 19.7705 18.8111 19.9544C19.9962 20.1383 21.1405 19.1779 21.3448 17.8089C21.5492 16.4398 20.5684 16.8689 19.4036 16.6033Z" fill="#3DD6DB"/>
<path id="Vector_4" d="M20.6295 8.02146C19.5261 7.85799 18.7497 8.6549 18.2388 9.51311C17.6871 10.4122 17.3806 11.4543 17.2989 12.5169C17.258 13.0686 17.2989 13.6203 17.401 14.172C17.5032 14.642 17.5849 15.1324 17.9936 15.4593C18.2592 15.6636 18.5862 15.7658 18.9131 15.8475C19.3831 15.9701 19.8531 16.011 20.3435 16.011C20.936 16.011 21.3039 15.7862 21.6308 15.2958C22.2438 14.3968 22.5912 13.3546 22.6729 12.2717C22.7342 11.2704 22.5707 10.1261 22.1212 9.20661C21.9577 8.9001 21.7534 8.5936 21.4878 8.36883C21.2221 8.18493 20.9565 8.08276 20.6295 8.02146Z" fill="#3DD6DB"/>
</g>
</g>
</svg>
