<?xml version="1.0" encoding="UTF-8"?>
<svg width="16px" height="20px" viewBox="0 0 16 20" version="1.1" xmlns="http://www.w3.org/2000/svg" xmlns:xlink="http://www.w3.org/1999/xlink">
    <title>Subscription-plan</title>
    <g id="Welcome" stroke="none" stroke-width="1" fill="none" fill-rule="evenodd">
        <g id="Cards-&amp;-Badges" transform="translate(-721.000000, -4348.000000)">
            <g id="Subscription-plan" transform="translate(721.000000, 4348.000000)">
                <path d="M11.986,0.000133333333 L0.828666667,0.000133333333 C0.394666667,0.000133333333 0.04,0.416133333 0.04,0.924133333 L0.04,18.5154667 C0.04,19.0234667 0.394666667,19.4394667 0.828666667,19.4394667 L14.6506667,19.4394667 C15.0833333,19.4394667 15.4386667,19.0234667 15.4386667,18.5154667 L15.4386667,0.924133333 C15.4386667,0.416133333 15.0833333,0.000133333333 14.6506667,0.000133333333 L11.4506667,0.000133333333" id="Fill-1" fill="#212121"></path>
                <path d="M13.0732499,6.73046311 C13.222111,6.56723529 13.4751091,6.55558878 13.6383369,6.7044499 C13.7811612,6.83470337 13.8079311,7.0446867 13.7126667,7.20449721 L13.6643501,7.26953689 L11.8683501,9.23887023 C11.7380932,9.38169833 11.528103,9.40846538 11.3682917,9.31319342 L11.3032521,9.26487338 L10.2799187,8.33154004 C10.1166965,8.18267284 10.1050594,7.92967434 10.2539266,7.76645208 C10.3841854,7.6236326 10.5941698,7.59687054 10.7539767,7.69214097 L10.8190146,7.74045996 L11.547,8.404 L13.0732499,6.73046311 Z" id="Stroke-4" fill="#FFFFFF" fill-rule="nonzero"></path>
                <path d="M13.0732045,10.7080462 C13.2220381,10.5447934 13.4750342,10.5331042 13.6382871,10.6819378 C13.7811334,10.8121672 13.8079387,11.022146 13.7127011,11.1819726 L13.6643955,11.2470204 L11.8683955,13.2170204 C11.7381472,13.3598875 11.5281307,13.386677 11.3682997,13.2913982 L11.3032521,13.2430734 L10.2799187,12.30974 C10.1166965,12.1608728 10.1050594,11.9078743 10.2539266,11.7446521 C10.3841854,11.6018326 10.5941698,11.5750705 10.7539767,11.670341 L10.8190146,11.71866 L11.547,12.382 L13.0732045,10.7080462 Z" id="Stroke-8" fill="#FFFFFF" fill-rule="nonzero"></path>
                <path d="M13.0732045,14.6859129 C13.2220381,14.52266 13.4750342,14.5109709 13.6382871,14.6598045 C13.7811334,14.7900339 13.8079387,15.0000127 13.7127011,15.1598393 L13.6643955,15.2248871 L11.8683955,17.1948871 C11.7381472,17.3377542 11.5281307,17.3645437 11.3682997,17.2692649 L11.3032521,17.22094 L10.2799187,16.2876067 C10.1166965,16.1387395 10.1050594,15.885741 10.2539266,15.7225187 C10.3841854,15.5796993 10.5941698,15.5529372 10.7539767,15.6482076 L10.8190146,15.6965266 L11.546,16.359 L13.0732045,14.6859129 Z" id="Stroke-12" fill="#FFFFFF" fill-rule="nonzero"></path>
                <polygon id="Stroke-16" fill="#FFFFFF" fill-rule="nonzero" points="15.4036667 3.40086667 15.4036667 5.40086667 0.000333333333 5.40086667 0.000333333333 3.40086667"></polygon>
                <path d="M7.124,7.48493333 C7.40014237,7.48493333 7.624,7.70879096 7.624,7.98493333 C7.624,8.23039322 7.44712484,8.4345417 7.21387563,8.47687766 L7.124,8.48493333 L2,8.48493333 C1.72385763,8.48493333 1.5,8.26107571 1.5,7.98493333 C1.5,7.73947344 1.67687516,7.53532496 1.91012437,7.492989 L2,7.48493333 L7.124,7.48493333 Z" id="Stroke-6" fill="#FFFFFF" fill-rule="nonzero"></path>
                <path d="M7.124,11.4628 C7.40014237,11.4628 7.624,11.6866576 7.624,11.9628 C7.624,12.2082599 7.44712484,12.4124084 7.21387563,12.4547443 L7.124,12.4628 L2,12.4628 C1.72385763,12.4628 1.5,12.2389424 1.5,11.9628 C1.5,11.7173401 1.67687516,11.5131916 1.91012437,11.4708557 L2,11.4628 L7.124,11.4628 Z" id="Stroke-10" fill="#FFFFFF" fill-rule="nonzero"></path>
                <path d="M7.124,15.4406667 C7.40014237,15.4406667 7.624,15.6645243 7.624,15.9406667 C7.624,16.1861266 7.44712484,16.390275 7.21387563,16.432611 L7.124,16.4406667 L2,16.4406667 C1.72385763,16.4406667 1.5,16.216809 1.5,15.9406667 C1.5,15.6952068 1.67687516,15.4910583 1.91012437,15.4487223 L2,15.4406667 L7.124,15.4406667 Z" id="Stroke-14" fill="#FFFFFF" fill-rule="nonzero"></path>
            </g>
        </g>
    </g>
</svg>