<svg width="32" height="32" viewBox="0 0 32 32" fill="none" xmlns="http://www.w3.org/2000/svg">
<g id="Swimming">
<rect id="Rectangle" width="32" height="32" rx="6" fill="#5AC2E3" fill-opacity="0.15"/>
<g id="Group">
<g id="Group_2">
<g id="Group_3">
<path id="Vector" d="M13.2545 18.6371C13.3217 18.6875 13.4056 18.6875 13.4728 18.6371C13.5399 18.5868 13.6239 18.5196 13.6742 18.486C14.094 18.1838 14.7991 17.6466 16.0247 17.6466C17.2671 17.6466 17.9555 18.167 18.3752 18.486C18.4256 18.5196 18.5095 18.57 18.5767 18.6371C18.6438 18.6875 18.7278 18.6875 18.7949 18.6371C18.8621 18.5868 18.946 18.5196 18.9796 18.5028C19.1139 18.4021 19.2818 18.2846 19.5001 18.1503L17.6868 15.0443L17.8715 12.5595L20.3227 11.9383C20.8432 11.804 21.1622 11.2667 21.0447 10.7463C20.9103 10.2258 20.3731 9.90681 19.8526 10.0243L16.7131 10.8134C16.3101 10.9142 16.0079 11.2667 15.9744 11.7032L15.7393 14.8764L11.626 17.7641C12.3143 17.932 12.7676 18.2678 13.0698 18.486C13.1034 18.5196 13.1874 18.5868 13.2545 18.6371Z" fill="#5AC2E3"/>
<path id="Vector_2" d="M23.0598 19.3419C22.7072 19.0733 22.2204 18.7207 21.3305 18.7207C20.4407 18.7207 19.9538 19.0733 19.6013 19.3419C19.2991 19.5602 19.1144 19.7113 18.6611 19.7113C18.2246 19.7113 18.0399 19.5769 17.7377 19.3419C17.3851 19.0733 16.8982 18.7207 16.0084 18.7207C15.1186 18.7207 14.6317 19.0733 14.2791 19.3419C13.9769 19.5602 13.7922 19.7113 13.3389 19.7113C12.8856 19.7113 12.7177 19.5769 12.3987 19.3419C12.0462 19.0733 11.5593 18.7207 10.6695 18.7207C9.77964 18.7207 9.29276 19.0733 8.94019 19.3419C8.63799 19.5602 8.45331 19.7113 8 19.7113V21.0376C8.88982 21.0376 9.37671 20.685 9.72928 20.4164C10.0315 20.1981 10.2162 20.047 10.6695 20.047C11.1228 20.047 11.2907 20.1814 11.6097 20.4164C11.9622 20.685 12.4491 21.0376 13.3389 21.0376C14.2288 21.0376 14.7156 20.685 15.0682 20.4164C15.3704 20.1981 15.5551 20.047 16.0084 20.047C16.4449 20.047 16.6296 20.1814 16.9318 20.4164C17.2844 20.685 17.7712 21.0376 18.6611 21.0376C19.5509 21.0376 20.0378 20.685 20.3903 20.4164C20.6925 20.1981 20.8772 20.047 21.3305 20.047C21.7671 20.047 21.9517 20.1814 22.2707 20.4164C22.6233 20.685 23.1102 21.0376 24 21.0376V19.7113C23.5635 19.6945 23.3788 19.5602 23.0598 19.3419Z" fill="#5AC2E3"/>
<path id="Vector_3" d="M20.8943 17.025C22.0441 17.025 22.9762 16.0929 22.9762 14.9432C22.9762 13.7934 22.0441 12.8613 20.8943 12.8613C19.7446 12.8613 18.8125 13.7934 18.8125 14.9432C18.8125 16.0929 19.7446 17.025 20.8943 17.025Z" fill="#5AC2E3"/>
</g>
</g>
</g>
</g>
</svg>
