<?xml version="1.0" encoding="UTF-8"?>
<svg width="160px" height="160px" viewBox="0 0 160 160" version="1.1" xmlns="http://www.w3.org/2000/svg" xmlns:xlink="http://www.w3.org/1999/xlink">
    <title>160F6770-04FD-4F25-9A40-031EB5346E76</title>
    <g id="Design" stroke="none" stroke-width="1" fill="none" fill-rule="evenodd">
        <g id="Unauthorized" transform="translate(-295.000000, -625.000000)">
            <g id="Cont" transform="translate(155.000000, 625.000000)">
                <g id="Unauthorized-icon" transform="translate(140.000000, 0.000000)">
                    <circle id="Oval" fill="#CCE4F6" cx="80" cy="80" r="80"></circle>
                    <g id="Icon" transform="translate(49.000000, 33.000000)">
                        <path d="M31.1505065,10 C30.8248915,10 30.4992764,10 30.1736614,10 C17.040521,10.4341534 6.94645441,21.6136035 6.94645441,34.7467438 L6.94645441,42.5615051 L6.40376266,42.5615051 C2.82199711,42.5615051 0,45.3835022 0,48.9652677 L0,78.5962373 C0,82.1780029 2.82199711,85 6.40376266,85 L55.5716353,85 C59.1534009,85 61.975398,82.1780029 61.975398,78.5962373 L61.975398,48.9652677 C61.975398,45.3835022 59.1534009,42.5615051 55.5716353,42.5615051 L55.3545586,42.5615051 L55.3545586,34.0955137 C55.3545586,20.853835 44.5007236,10 31.1505065,10 Z M35.7091172,71.2156295 C35.8176556,71.975398 35.2749638,72.6266281 34.5151954,72.6266281 L30.9334298,72.6266281 L27.3516643,72.6266281 C26.5918958,72.6266281 26.0492041,71.975398 26.1577424,71.2156295 L27.568741,64.4862518 C26.2662808,63.29233 25.397974,61.5557164 25.723589,59.602026 C26.0492041,57.3227207 28.0028944,55.4775687 30.2821997,55.1519537 C30.4992764,55.1519537 30.7163531,55.1519537 30.9334298,55.1519537 C33.8639653,55.1519537 36.251809,57.5397974 36.251809,60.4703329 C36.251809,62.0984081 35.4920405,63.617945 34.2981187,64.5947902 L35.7091172,71.2156295 Z M44.7178003,42.5615051 L17.4746744,42.5615051 L17.4746744,34.5296671 C17.4746744,27.4746744 22.6845152,21.1794501 29.739508,20.52822 C30.1736614,20.52822 30.6078148,20.4196816 31.0419682,20.4196816 C38.5311143,20.4196816 44.7178003,26.4978292 44.7178003,34.0955137 L44.7178003,42.5615051 L44.7178003,42.5615051 Z" id="Shape" fill="#0078D3" fill-rule="nonzero"></path>
                        <g id="Cross" transform="translate(38.000000, 0.000000)">
                            <path d="M34.140625,34.140625 C38.046875,30.234375 40,25.5208333 40,20 C40,14.4791667 38.046875,9.765625 34.140625,5.859375 C30.234375,1.953125 25.5208333,0 20,0 C14.4791667,0 9.765625,1.953125 5.859375,5.859375 C1.953125,9.765625 0,14.4791667 0,20 C0,25.5208333 1.953125,30.234375 5.859375,34.140625 C9.765625,38.046875 14.4791667,40 20,40 C25.5208333,40 30.234375,38.046875 34.140625,34.140625 Z" id="Path" fill="#D32027" fill-rule="nonzero"></path>
                            <g id="Add" transform="translate(20.666667, 20.666667) rotate(45.000000) translate(-20.666667, -20.666667) translate(10.666667, 10.666667)" stroke="#FFFFFF" stroke-linecap="round" stroke-width="3">
                                <line x1="10" y1="19.6875" x2="10" y2="0.3125" id="Path"></line>
                                <line x1="10" y1="20" x2="10" y2="-6.77380374e-12" id="Path" transform="translate(10.000000, 10.000000) rotate(90.000000) translate(-10.000000, -10.000000) "></line>
                            </g>
                        </g>
                    </g>
                </g>
            </g>
        </g>
    </g>
</svg>