<?xml version="1.0" encoding="UTF-8"?>
<svg width="26px" height="20px" viewBox="0 0 26 20" version="1.1" xmlns="http://www.w3.org/2000/svg" xmlns:xlink="http://www.w3.org/1999/xlink">
    <title>Users</title>
    <g id="Welcome" stroke="none" stroke-width="1" fill="#b0b0b0" fill-rule="evenodd">
        <g id="Cards-&amp;-Badges" transform="translate(-309.000000, -4347.000000)" fill="#b0b0b0" fill-rule="nonzero">
            <g id="Users" transform="translate(309.000000, 4347.000000)">
                <path d="M11.9189189,11.5945946 C12.0540541,11.4864865 12.2162162,11.4054054 12.3783784,11.3243243 C10.8108108,10.6756757 8.37837838,10.6216216 7.56756757,10.6216216 C6.64864865,10.6216216 3.56756757,10.7027027 2.13513514,11.6756757 C0.324324324,12.9189189 0.135135135,16.8108108 0.108108108,17.5945946 C0.108108108,17.8378378 0.189189189,18.0540541 0.351351351,18.2432432 C0.513513514,18.4054054 0.72972973,18.5135135 0.972972973,18.5135135 L9.10810811,18.5135135 C9.24324324,16.5945946 9.72972973,13.0810811 11.9189189,11.5945946 Z" id="Path"></path>
                <circle id="Oval" cx="7.59459459" cy="4.67567568" r="4.51351351"></circle>
                <path d="M25.8108108,18.8378378 C25.7837838,17.8648649 25.5405405,14.2162162 23.7837838,13.0540541 C22.3513514,12.0810811 19.2702703,12 18.3513514,12 C17.4324324,12 14.3513514,12.0810811 12.9189189,13.0540541 C11.1081081,14.2972973 10.9189189,18.1891892 10.8918919,18.972973 C10.8918919,19.2162162 10.972973,19.4324324 11.1351351,19.6216216 C11.2972973,19.7837838 11.5405405,19.8918919 11.7567568,19.8918919 L24.9189189,19.8918919 C24.9189189,19.8918919 24.9189189,19.8918919 24.9189189,19.8918919 C25.4054054,19.8918919 25.8108108,19.4864865 25.8108108,19 C25.8108108,18.9189189 25.8108108,18.8648649 25.8108108,18.8378378 Z" id="Path"></path>
                <circle id="Oval" cx="18.3513514" cy="6.08108108" r="4.51351351"></circle>
            </g>
        </g>
    </g>
</svg>