<svg width="32" height="32" viewBox="0 0 32 32" fill="none" xmlns="http://www.w3.org/2000/svg">
<g id="VitaminDKey">
<rect id="Rectangle" width="32" height="32" rx="6" fill="#E76C6C" fill-opacity="0.15"/>
<g id="Group">
<path id="Vector" fill-rule="evenodd" clip-rule="evenodd" d="M16.4357 8C15.9621 8 15.4887 8.0836 15.0713 8.2505C12.4468 9.29979 9.4784 11.3342 9.00746 13.9863C8.99974 14.0281 8.999 14.0719 9.00084 14.1169C9.18472 13.86 9.48372 13.6906 9.82116 13.6906C10.376 13.6906 10.8317 14.1463 10.8317 14.7012C10.8317 15.0793 10.6175 15.4072 10.3071 15.5803C10.8327 15.7802 11.4544 15.8555 12.0518 15.8897C13.4249 15.9679 14.846 15.1468 16.4355 15.1468C17.5317 15.1468 18.5468 15.533 19.5223 15.7498C19.4892 15.6502 19.467 15.5462 19.467 15.4361C19.467 14.8812 19.9227 14.4256 20.4776 14.4256C21.0324 14.4256 21.4881 14.8812 21.4881 15.4361C21.4881 15.5795 21.4568 15.7154 21.402 15.8394C22.0903 15.7618 22.7607 15.5991 23.2257 15.2108C23.6014 14.8969 23.9315 14.3646 23.8644 13.9863C23.7255 13.204 23.3654 12.4764 22.8646 11.811C22.7045 12.1593 22.3534 12.4045 21.9474 12.4045C21.3926 12.4045 20.9369 11.9488 20.9369 11.394C20.9369 10.9731 21.1997 10.61 21.5685 10.4588C20.4517 9.51545 19.0853 8.76439 17.7998 8.2505C17.3825 8.0836 16.9092 8 16.4357 8ZM14.5984 10.3835C15.3561 10.3835 15.9763 11.0037 15.9763 11.7615C15.9763 12.5192 15.3561 13.1394 14.5984 13.1394C13.8406 13.1394 13.2204 12.5192 13.2204 11.7615C13.2204 11.0037 13.8406 10.3835 14.5984 10.3835Z" fill="#E76C6C"/>
<path id="Vector_2" fill-rule="evenodd" clip-rule="evenodd" d="M14.5983 10.9346C15.0582 10.9346 15.4251 11.3015 15.4251 11.7614C15.4251 12.2213 15.0582 12.5881 14.5983 12.5881C14.1384 12.5881 13.7715 12.2213 13.7715 11.7614C13.7715 11.3015 14.1384 10.9346 14.5983 10.9346Z" fill="#E76C6C"/>
<path id="Vector_3" fill-rule="evenodd" clip-rule="evenodd" d="M21.9476 10.9346C22.0115 10.9346 22.072 10.9471 22.127 10.9698C22.2114 11.0535 22.2939 11.1378 22.3739 11.2239C22.3944 11.2765 22.4069 11.3335 22.4069 11.394C22.4069 11.651 22.2046 11.8533 21.9476 11.8533C21.6907 11.8533 21.4883 11.651 21.4883 11.394C21.4883 11.1371 21.6906 10.9346 21.9476 10.9346Z" fill="#E76C6C"/>
<path id="Vector_4" fill-rule="evenodd" clip-rule="evenodd" d="M9.82163 14.2422C10.0786 14.2422 10.281 14.4446 10.281 14.7015C10.281 14.9585 10.0786 15.1608 9.82163 15.1608C9.56467 15.1608 9.3623 14.9585 9.3623 14.7015C9.3623 14.4446 9.56467 14.2422 9.82163 14.2422Z" fill="#E76C6C"/>
<path id="Vector_5" fill-rule="evenodd" clip-rule="evenodd" d="M20.4779 14.9766C20.7348 14.9766 20.9372 15.179 20.9372 15.4359C20.9372 15.6798 20.7541 15.8724 20.5159 15.8916C20.4702 15.8916 20.4246 15.8876 20.3788 15.8847C20.1709 15.8402 20.0186 15.6588 20.0186 15.4361C20.0186 15.1791 20.2209 14.9766 20.4779 14.9766Z" fill="#E76C6C"/>
<path id="Vector_6" fill-rule="evenodd" clip-rule="evenodd" d="M16.4361 15.6982C17.0299 15.6982 17.6335 15.8514 18.254 16.0191C18.1921 16.1624 18.1197 16.3338 18.0409 16.5379C17.8615 17.0022 17.6694 17.5555 17.6318 18.0064C17.5636 18.823 17.8245 19.5398 18.0452 20.2398C18.2656 20.9392 18.4513 21.6199 18.3265 22.4087C18.1537 23.4575 17.3024 23.9848 16.4325 23.9999C15.5626 24.0149 14.7227 23.533 14.5464 22.4109C14.4209 21.621 14.6071 20.9399 14.8277 20.2398C15.0484 19.5398 15.3093 18.823 15.2411 18.0064C15.2035 17.5555 15.0114 17.0022 14.832 16.5379C14.7532 16.3338 14.6808 16.1624 14.6189 16.0191C15.2391 15.8515 15.8424 15.6982 16.4361 15.6982Z" fill="#E76C6C"/>
</g>
</g>
</svg>
