<?xml version="1.0" encoding="UTF-8"?>
<svg version="1.1" xmlns="http://www.w3.org/2000/svg" width="119" height="129">
<path d="M0 0 C39.27 0 78.54 0 119 0 C119 42.57 119 85.14 119 129 C79.73 129 40.46 129 0 129 C0 86.43 0 43.86 0 0 Z " fill="#EF5EA8" transform="translate(0,0)"/>
<path d="M0 0 C3.01585745 1.76299279 3.01585745 1.76299279 6.4375 1.25 C7.22125 0.79625 8.005 0.3425 8.8125 -0.125 C13.82159229 -2.17417412 18.45834881 -3.01282879 23.8125 -2.125 C30.36971629 0.6736708 34.99306093 5.31622013 37.8125 11.875 C38.1484375 14.171875 38.1484375 14.171875 38.1875 16.625 C38.21585937 17.42421875 38.24421875 18.2234375 38.2734375 19.046875 C37.09504568 26.27700784 32.74254805 31.56312628 27.69140625 36.59765625 C27.1096312 37.18800156 26.52785614 37.77834686 25.92845154 38.38658142 C24.70729634 39.61913542 23.48098485 40.84660066 22.24975586 42.0690918 C20.36562097 43.94684727 18.50984752 45.84990079 16.65429688 47.75585938 C15.45995475 48.95474246 14.26404511 50.15206646 13.06640625 51.34765625 C12.51416885 51.91831314 11.96193146 52.48897003 11.39295959 53.07691956 C9.79516602 54.63696289 9.79516602 54.63696289 6.8125 56.875 C3.5372268 56.8125257 2.32863182 56.29129975 -0.20703125 54.24609375 C-0.79871094 53.60800781 -1.39039062 52.96992187 -2 52.3125 C-2.60457031 51.67183594 -3.20914063 51.03117187 -3.83203125 50.37109375 C-4.27933594 49.87738281 -4.72664063 49.38367188 -5.1875 48.875 C-4.86652344 48.32714844 -4.54554687 47.77929688 -4.21484375 47.21484375 C-2.33893057 42.94232665 -2.50490345 38.43690762 -3.1875 33.875 C-5.3890974 30.97816132 -6.97344462 29.48202769 -10.1875 27.875 C-15.13019981 27.6319164 -18.67759758 27.62004879 -23.1875 29.875 C-27.68812591 24.20029777 -27.86282312 18.92730282 -27.1875 11.875 C-25.62937543 6.29015592 -22.72561998 2.97442135 -17.96875 -0.21484375 C-12.0647086 -3.23160175 -5.7068895 -3.20405706 0 0 Z " fill="#FEFCFD" transform="translate(54.1875,37.125)"/>
<path d="M0 0 C10.89 0 21.78 0 33 0 C33 42.57 33 85.14 33 129 C-6.27 129 -45.54 129 -86 129 C-86 117.45 -86 105.9 -86 94 C-85.67 94 -85.34 94 -85 94 C-84.85304688 94.76183594 -84.70609375 95.52367188 -84.5546875 96.30859375 C-82.60384109 105.28921428 -79.91098475 112.76225707 -71.9375 117.9375 C-62.44652346 123.1683223 -53.54864593 123.17331374 -42.90234375 123.23828125 C-41.63588516 123.246353 -40.36942657 123.25442474 -39.06459045 123.26274109 C-36.38750594 123.27654309 -33.71054283 123.28756965 -31.03344727 123.29516602 C-27.64369439 123.3061763 -24.25460768 123.34053942 -20.86508846 123.38033772 C-17.58590844 123.41315456 -14.30666285 123.41731191 -11.02734375 123.42578125 C-9.83100815 123.44328934 -8.63467255 123.46079742 -7.40208435 123.47883606 C3.57231025 123.45110016 15.37446686 122.01388898 23.453125 113.91796875 C31.1840328 104.33242397 31.30548908 93.21880552 31.265625 81.421875 C31.26697555 80.00473972 31.26891931 78.5876049 31.27142334 77.17047119 C31.27436013 74.20849166 31.27012636 71.24663332 31.26074219 68.28466797 C31.24939041 64.52165354 31.25588905 60.75892585 31.26788712 56.99592209 C31.27518091 54.07020993 31.27278297 51.14456354 31.26763153 48.21884918 C31.26631352 46.83322362 31.26787651 45.44759174 31.27259064 44.06197357 C31.39298921 25.72417437 31.39298921 25.72417437 23 10 C16.24277491 3.58063617 8.95665892 2.23190293 0 1 C0 0.67 0 0.34 0 0 Z " fill="#FEFAFC" transform="translate(86,0)"/>
<path d="M0 0 C9.9 0 19.8 0 30 0 C30 0.33 30 0.66 30 1 C29.23816406 1.14695313 28.47632812 1.29390625 27.69140625 1.4453125 C18.90669666 3.35360148 11.40717339 6.03853675 6.125 13.6875 C3.44341825 18.46609723 2.20097508 23.6883704 1 29 C0.67 29 0.34 29 0 29 C0 19.43 0 9.86 0 0 Z " fill="#FEFDFE" transform="translate(0,0)"/>
<path d="M0 0 C0.99 0.66 1.98 1.32 3 2 C3.36328125 3.875 3.36328125 3.875 3.3125 6 C3.30863281 6.70125 3.30476563 7.4025 3.30078125 8.125 C3 10 3 10 1 12 C-0.875 12.30078125 -0.875 12.30078125 -3 12.3125 C-3.70125 12.32925781 -4.4025 12.34601563 -5.125 12.36328125 C-5.74375 12.24339844 -6.3625 12.12351562 -7 12 C-9.31282587 8.53076119 -9.42478586 7.07794425 -9 3 C-6.78229215 -0.69617975 -4.0271794 -0.41949785 0 0 Z " fill="#FCE7F2" transform="translate(43,70)"/>
<path d="M0 0 C3.03978021 0.68164768 4.80055419 2.23591662 6.93359375 4.43359375 C8.28799043 7.1423871 7.99860826 9.44292643 7.93359375 12.43359375 C7.70671875 11.87671875 7.47984375 11.31984375 7.24609375 10.74609375 C5.50563848 7.67957732 3.66568611 5.66894205 0.93359375 3.43359375 C-2.59106353 3.01063488 -4.70274234 3.31237245 -8.06640625 4.43359375 C-9.37293682 10.41512157 -9.37293682 10.41512157 -7.56640625 15.99609375 C-4.11888489 17.97841853 -1.98723006 17.98388481 1.93359375 17.43359375 C4.84168918 15.57643188 4.84168918 15.57643188 6.93359375 13.43359375 C6.45322423 17.99710414 6.45322423 17.99710414 4.37109375 19.74609375 C0.85390506 20.73812133 -2.4727302 21.03253976 -6.06640625 20.43359375 C-8.87644085 18.63995464 -10.57581093 17.4147844 -12.06640625 14.43359375 C-12.19568432 9.73341258 -11.64997063 6.30009843 -9.00390625 2.37109375 C-5.69491642 0.18856854 -3.88132992 -0.24212455 0 0 Z " fill="#FDF1F7" transform="translate(42.06640625,65.56640625)"/>
<path d="M0 0 C4.52045575 0.84758545 6.83558353 3.39808353 10 6.5625 C10.33 6.5625 10.66 6.5625 11 6.5625 C11 9.5625 11 12.5625 11 15.5625 C10.01 14.5725 9.02 13.5825 8 12.5625 C7.484375 13.2225 6.96875 13.8825 6.4375 14.5625 C4 16.5625 4 16.5625 0.5625 17.125 C-3 16.5625 -3 16.5625 -5.9375 14.4375 C-8 11.5625 -8 11.5625 -8.625 8.5625 C-7.58351809 3.56338683 -5.03644185 0.94433285 0 0 Z M-4.75 3.6875 C-6.55775998 6.39913997 -6.33220081 8.37337222 -6 11.5625 C-5.01 13.0475 -5.01 13.0475 -4 14.5625 C-2.09542071 15.00077201 -2.09542071 15.00077201 0 14.875 C1.051875 14.86919922 1.051875 14.86919922 2.125 14.86328125 C4.2416577 14.71162946 4.2416577 14.71162946 6 12.5625 C6.24212873 10.58121492 6.24212873 10.58121492 6.125 8.4375 C6.08375 7.15875 6.0425 5.88 6 4.5625 C0.65450874 2.10826259 0.65450874 2.10826259 -4.75 3.6875 Z " fill="#F178B6" transform="translate(40,67.4375)"/>
<path d="M0 0 C4.36675424 0.10321419 6.87566028 1.56305024 10.25 4.375 C12.38586678 7.57880017 12.48132175 8.39439967 12.375 12.0625 C12.35695313 12.87074219 12.33890625 13.67898437 12.3203125 14.51171875 C12.29710938 15.12660156 12.27390625 15.74148437 12.25 16.375 C11.59 16.705 10.93 17.035 10.25 17.375 C10.3325 16.34375 10.415 15.3125 10.5 14.25 C10.20973559 9.7509016 9.05320422 7.83778168 6.25 4.375 C3.81612247 3.15806124 1.83161154 3.05540104 -0.875 2.8125 C-1.78507812 2.72871094 -2.69515625 2.64492187 -3.6328125 2.55859375 C-4.33148438 2.49800781 -5.03015625 2.43742187 -5.75 2.375 C-3.75 0.375 -3.75 0.375 0 0 Z " fill="#F06AAF" transform="translate(39.75,63.625)"/>
<path d="M0 0 C0.99 0.33 1.98 0.66 3 1 C3.33 3.31 3.66 5.62 4 8 C2.125 8.625 2.125 8.625 0 9 C-0.66 8.34 -1.32 7.68 -2 7 C-1.6730244 4.38419521 -1.17960932 2.35921863 0 0 Z " fill="#F06AAF" transform="translate(34,46)"/>
<path d="M0 0 C1.65 0 3.3 0 5 0 C5 3 5 6 5 9 C4.01 8.01 3.02 7.02 2 6 C1.01 6.99 0.02 7.98 -1 9 C-1 5.88772805 -0.54372951 3.05847848 0 0 Z " fill="#F59BC9" transform="translate(46,74)"/>
<path d="M0 0 C1.5625 1.25 1.5625 1.25 3 3 C2.6875 5.1875 2.6875 5.1875 2 7 C0.68 6.67 -0.64 6.34 -2 6 C-1.125 1.125 -1.125 1.125 0 0 Z " fill="#F06BAF" transform="translate(40,40)"/>
<path d="M0 0 C3.33537489 1.11179163 4.63707344 2.47411298 7 5 C6.67 5.99 6.34 6.98 6 8 C1.2 4.55384615 1.2 4.55384615 0.1875 1.75 C0.125625 1.1725 0.06375 0.595 0 0 Z " fill="#FCE4F0" transform="translate(30,78)"/>
</svg>
