<svg width="32" height="32" viewBox="0 0 32 32" fill="none" xmlns="http://www.w3.org/2000/svg">
<g id="WaistCircumferenceKey">
<rect id="Rectangle" width="32" height="32" rx="6" fill="#EB8A8A" fill-opacity="0.15"/>
<g id="Group">
<g id="Group_2">
<path id="Vector" d="M20.4498 12.607C19.0509 12.0445 17.4491 11.7647 15.6471 11.7647C13.845 11.7647 12.2432 12.0445 10.8443 12.607C10.6535 12.1585 10.5335 11.7677 10.4753 11.3607C10.2975 10.116 10.6605 9.02688 11.5496 8.13783C11.6378 8.04958 11.7575 8 11.8824 8H19.4118C19.5366 8 19.6563 8.04958 19.7445 8.13783C20.6336 9.02688 20.9966 10.116 20.8188 11.3607C20.7607 11.7677 20.6406 12.1585 20.4498 12.607ZM20.051 13.4613C20.0165 13.5327 19.9857 13.5964 19.9704 13.6284C19.412 14.7945 19.1765 15.5931 19.1765 16.7059C19.1765 17.5331 19.3851 18.1597 19.9019 19.1219C19.9412 19.195 19.9817 19.2696 20.0376 19.3717C20.0723 19.4349 20.0723 19.4349 20.1073 19.4987C20.1425 19.5628 20.1569 19.5892 20.1778 19.6276C20.9678 21.0759 21.2941 22.0487 21.2941 23.5294C21.2941 23.7893 21.0834 24 20.8235 24H10.4706C10.2107 24 10 23.7893 10 23.5294C10 22.0487 10.3263 21.0759 11.1163 19.6276C11.1372 19.5892 11.1517 19.5628 11.1868 19.4987C11.2218 19.4349 11.2218 19.4349 11.2565 19.3717C11.3124 19.2696 11.353 19.195 11.3922 19.1219C11.909 18.1597 12.1176 17.5331 12.1176 16.7059C12.1176 15.5931 11.8821 14.7945 11.3237 13.6284C11.3084 13.5964 11.2776 13.5327 11.2431 13.4613C12.5138 12.9586 13.981 12.7059 15.6471 12.7059C17.3131 12.7059 18.7803 12.9586 20.051 13.4613ZM15.6471 19.2941C15.907 19.2941 16.1176 19.0834 16.1176 18.8235C16.1176 18.5636 15.907 18.3529 15.6471 18.3529C15.3872 18.3529 15.1765 18.5636 15.1765 18.8235C15.1765 19.0834 15.3872 19.2941 15.6471 19.2941ZM12.8841 22.084C13.7256 22.4206 14.6476 22.5882 15.6471 22.5882C16.6465 22.5882 17.5685 22.4206 18.4101 22.084C18.6514 21.9875 18.7688 21.7136 18.6722 21.4723C18.5757 21.231 18.3018 21.1136 18.0605 21.2101C17.3334 21.501 16.5299 21.6471 15.6471 21.6471C14.7642 21.6471 13.9607 21.501 13.2336 21.2101C12.9923 21.1136 12.7184 21.231 12.6219 21.4723C12.5254 21.7136 12.6427 21.9875 12.8841 22.084Z" fill="#EB8A8A"/>
</g>
</g>
</g>
</svg>
