<svg width="32" height="32" viewBox="0 0 32 32" fill="none" xmlns="http://www.w3.org/2000/svg">
<g id="Walking">
<rect id="Rectangle" width="32" height="32" rx="6" fill="#725CFA" fill-opacity="0.15"/>
<g id="Group">
<g id="Group_2">
<g id="Group_3">
<path id="Vector" d="M13.5938 18.9092L14.9412 20.2566L13.7768 23.4007C13.6437 23.75 13.311 23.9663 12.9617 23.9663C12.8619 23.9663 12.762 23.9496 12.6622 23.9164C12.2131 23.75 11.9802 23.2509 12.1465 22.8018L13.5938 18.9092Z" fill="#725CFA"/>
<path id="Vector_2" d="M11.0816 15.4663L11.8801 13.9359C12.0963 13.5367 12.4124 13.2039 12.795 12.9711C14.6415 11.8731 14.8744 11.8898 15.1073 11.9064L16.3549 11.9896C16.7375 12.0062 17.0037 12.106 18.2846 13.9858C18.3345 14.0523 18.4011 14.1022 18.5009 14.1189L20.0313 14.3518C20.4472 14.4183 20.73 14.8009 20.6634 15.2168C20.5969 15.6327 20.2143 15.9155 19.7984 15.8489L18.268 15.616C17.7689 15.5329 17.3198 15.2667 17.037 14.8508C16.9704 14.751 16.9205 14.6678 16.854 14.5847L15.8725 17.6954L17.2366 19.0595C17.4362 19.2591 17.6026 19.5253 17.7024 19.7915L18.7504 22.8523C18.9167 23.3015 18.6672 23.8005 18.2181 23.9502C18.1183 23.9835 18.0351 24.0001 17.9353 24.0001C17.5693 24.0001 17.2366 23.7673 17.1035 23.4179L16.0555 20.3571C16.0389 20.3238 16.0222 20.3071 16.0056 20.2739L13.5769 17.8285C13.2275 17.4792 13.0944 16.9968 13.1943 16.531L13.7266 14.1688C13.6767 14.2021 13.6268 14.2353 13.5602 14.2686C13.4105 14.3518 13.2941 14.4849 13.2109 14.6346L12.4124 16.165C12.2793 16.4145 12.0132 16.5642 11.747 16.5642C11.6306 16.5642 11.5141 16.531 11.3977 16.4811C11.0317 16.2814 10.8986 15.8323 11.0816 15.4663Z" fill="#725CFA"/>
<path id="Vector_3" d="M17.657 10.0342C17.7574 9.11172 17.091 8.28254 16.1686 8.18214C15.2461 8.08174 14.417 8.74814 14.3166 9.67058C14.2162 10.593 14.8826 11.4222 15.805 11.5226C16.7274 11.623 17.5566 10.9566 17.657 10.0342Z" fill="#725CFA"/>
</g>
</g>
</g>
</g>
</svg>
