<svg width="32" height="32" viewBox="0 0 32 32" fill="none" xmlns="http://www.w3.org/2000/svg">
<g id="Weight">
<rect id="Rectangle" width="32" height="32" rx="6" fill="#BE9427" fill-opacity="0.15"/>
<g id="Group">
<path id="Vector" d="M23.3249 22.0484L22.2481 13.9895C22.1304 13.1314 21.4069 12.4921 20.532 12.4921H18.4122C18.6309 12.0715 18.7655 11.6004 18.7655 11.0957C18.7655 9.39642 17.3859 8 15.6698 8C13.9537 8 12.5741 9.3796 12.5741 11.0957C12.5741 11.6004 12.7087 12.0715 12.9274 12.4921H10.8075C9.9495 12.4921 9.20922 13.1314 9.09145 13.9895L8.01469 22.0484C7.88009 23.0747 8.68767 24 9.73078 24H21.6088C22.6519 24 23.4595 23.0747 23.3249 22.0484ZM15.6698 9.74974C16.4269 9.74974 17.0326 10.3554 17.0326 11.1125C17.0326 11.8696 16.4269 12.4753 15.6698 12.4753C14.9127 12.4753 14.307 11.8696 14.307 11.1125C14.307 10.3554 14.9127 9.74974 15.6698 9.74974Z" fill="#BE9427"/>
</g>
</g>
</svg>
