<svg width="32" height="32" viewBox="0 0 32 32" fill="none" xmlns="http://www.w3.org/2000/svg">
<g id="WristCircumferenceKey">
<rect id="Rectangle" width="32" height="32" rx="6" fill="#ED6CC9" fill-opacity="0.15"/>
<path id="Vector" d="M23.0387 12.886C22.8036 12.6871 22.4237 12.7052 22.1886 12.9584L20.0183 15.1106C19.8917 15.2372 19.6927 15.2372 19.5661 15.1106C19.4395 14.984 19.4395 14.7851 19.5661 14.6585L22.5684 11.6562C22.7855 11.4391 22.8216 11.0955 22.6589 10.8604C22.5504 10.7157 22.3876 10.6253 22.2248 10.6072C22.0439 10.5891 21.8812 10.6614 21.7546 10.788L19.1501 13.3563C19.0235 13.4829 18.8246 13.4829 18.698 13.3563C18.5714 13.2297 18.5714 13.0307 18.698 12.9041L21.7546 9.84754C21.9716 9.63051 22.0078 9.28687 21.845 9.05175C21.7365 8.90706 21.5737 8.81663 21.4109 8.79854C21.2301 8.78046 21.0673 8.8528 20.9407 8.97941L17.9926 11.9275C17.866 12.0541 17.6671 12.0541 17.5405 11.9275C17.4139 11.8009 17.4139 11.6019 17.5405 11.4753L19.964 9.05175C20.1811 8.83472 20.2172 8.49108 20.0545 8.25596C19.9459 8.11127 19.7832 8.02084 19.6204 8.00275C19.4395 7.98466 19.2767 8.05701 19.1501 8.18361L15.8946 11.403L15.967 11.4753C15.9851 11.4934 16.0031 11.4934 16.0031 11.5115C16.0212 11.5296 16.0212 11.5296 16.0393 11.5476L17.5405 13.1031C17.9926 13.5733 18.0288 14.3148 17.649 14.7851C17.3958 15.0745 17.0521 15.2372 16.6723 15.2372C16.401 15.2372 16.1478 15.1468 15.9489 14.984L15.8042 14.8574V15.0564C15.7861 16.0873 15.2254 16.8831 14.7733 17.2629C14.6467 17.3714 14.4477 17.3533 14.3392 17.2448L14.285 17.1905C14.2307 17.1182 14.2126 17.0459 14.2126 16.9554C14.2126 16.865 14.2669 16.7926 14.3392 16.7384C14.3935 16.7022 15.551 15.7075 14.9722 14.0978L14.9361 13.9712L14.4477 14.3329C14.303 14.4414 14.1041 14.4053 13.9956 14.2606C13.8871 14.1159 13.9232 13.9169 14.0679 13.8084L14.8456 13.2297C14.9722 13.1392 15.1712 13.1573 15.2797 13.2658L16.2925 14.3691C16.4191 14.4957 16.5638 14.55 16.7085 14.55C16.8894 14.55 17.0521 14.4776 17.1787 14.3329C17.3596 14.1159 17.3415 13.7542 17.1245 13.519L15.6233 11.9636C15.2254 11.5657 14.5924 11.5296 14.1403 11.8732L12.6934 12.9945C12.0965 13.4648 11.7167 14.1521 11.6625 14.9117L11.4997 17.498C11.4997 17.5704 11.4635 17.6608 11.4092 17.715L8.08139 21.0248C7.97287 21.1333 7.97287 21.3323 8.08139 21.4408L10.5592 23.9186C10.6677 24.0271 10.8667 24.0271 10.9752 23.9186L14.3211 20.5727C14.3935 20.5003 14.5201 20.4641 14.6286 20.4822L15.0807 20.5907C15.8765 20.7716 16.7266 20.5365 17.3054 19.9577L17.3234 19.9396C18.0469 19.2343 19.0416 18.2576 19.7651 17.2086C19.9459 16.9373 20.1268 16.7203 20.3257 16.5214L23.0749 13.7722C23.1834 13.6637 23.2557 13.501 23.2557 13.3563C23.2376 13.1573 23.1653 12.9945 23.0387 12.886Z" fill="#ED6CC9"/>
</g>
</svg>
