<svg width="32" height="32" viewBox="0 0 32 32" fill="none" xmlns="http://www.w3.org/2000/svg">
<g id="Yoga">
<rect id="Rectangle" width="32" height="32" rx="6" fill="#3ED04C" fill-opacity="0.15"/>
<path id="Vector" fill-rule="evenodd" clip-rule="evenodd" d="M16.4498 19.4362L17.8084 18.5608C17.9264 18.4848 17.9949 18.3678 18.0034 18.2275L18.2073 14.8441C18.2096 14.8055 18.2306 14.7733 18.2649 14.7555C18.2994 14.7377 18.3374 14.7393 18.3703 14.7598L20.3552 15.9561C20.397 15.9813 20.4345 15.9996 20.4802 16.017L23.1411 17.0325C23.4718 17.1431 23.8304 16.976 23.9584 16.6517L23.96 16.6476C24.0891 16.3226 23.8908 16.0513 23.5808 15.8899L21.069 14.5824C21.0183 14.5561 20.9774 14.529 20.9332 14.4926L18.3262 12.349C18.2069 12.2508 18.0726 12.2062 17.9181 12.2062L14.0827 12.2046C13.928 12.2046 13.7929 12.2485 13.674 12.3474L11.1051 14.4826C11.0578 14.5219 11.0139 14.5509 10.9592 14.5786L8.41464 15.8705C8.10282 16.0288 7.91206 16.3205 8.0406 16.6456L8.0422 16.6497C8.1702 16.974 8.52877 17.1411 8.85944 17.0305L11.6057 15.9996C11.6564 15.9806 11.6982 15.96 11.7442 15.9313L13.6272 14.7598C13.6603 14.7392 13.6991 14.7377 13.7335 14.7561C13.768 14.7744 13.7887 14.8069 13.7904 14.846L13.933 18.1959C13.9391 18.3388 14.008 18.4592 14.1284 18.5367L15.5247 19.4364C15.8128 19.6218 16.1616 19.6218 16.4498 19.4362ZM21.6757 19.1541L13.8073 23.271C13.1007 23.6463 12.4909 22.4102 13.1842 21.9635L20.7008 17.1203C21.1042 16.8604 21.5972 16.932 21.9268 17.2984L21.9611 17.3365C22.202 17.6044 22.3017 17.9544 22.243 18.3274C22.1844 18.7009 21.984 18.9927 21.6757 19.1541ZM16.6121 22.4574L18.1671 23.271C18.8738 23.6463 19.4836 22.4102 18.7902 21.9635L18.0907 21.5126C18.0464 21.4842 17.9942 21.4817 17.9476 21.5062L16.6123 22.2049C16.5641 22.2302 16.5358 22.2767 16.5358 22.3311C16.5358 22.3855 16.5639 22.4323 16.6121 22.4574ZM15.4729 19.8261C15.5149 19.8531 15.5382 19.8959 15.5382 19.9457C15.5382 19.9955 15.5147 20.0385 15.4729 20.0654L14.0045 21.0115C13.9602 21.0399 13.9079 21.0424 13.8614 21.0179L10.2987 19.1537C9.99045 18.9925 9.7901 18.7006 9.73143 18.3274C9.67294 17.9543 9.7725 17.6042 10.0134 17.3365L10.0477 17.2984C10.3773 16.932 10.8703 16.8604 11.2736 17.1203L15.4729 19.8261ZM15.9577 8C16.8496 8 17.5726 8.72302 17.5726 9.61493C17.5726 10.5068 16.8496 11.2299 15.9577 11.2299C15.0658 11.2299 14.3428 10.5068 14.3428 9.61493C14.3428 8.7232 15.0658 8 15.9577 8Z" fill="#3ED04C"/>
</g>
</svg>
